<svg width="99" height="32" viewBox="0 0 99 32" fill="none" xmlns="http://www.w3.org/2000/svg">
<path d="M19.5114 18.4023C19.3077 18.4023 19.1197 18.4807 18.9787 18.6217C17.6627 19.9064 15.6887 19.9064 15.6887 19.9064C15.6887 19.9064 13.7147 19.9064 12.3987 18.6217C12.2577 18.4807 12.0697 18.4023 11.8661 18.4023C11.4431 18.4023 11.0984 18.747 11.0984 19.17C11.0984 19.3424 11.1454 19.4677 11.2394 19.593C11.3177 19.8124 13.1821 21.4887 15.6887 21.4417C18.1954 21.4887 20.0597 19.8124 20.1381 19.593C20.2321 19.4677 20.2634 19.3267 20.2634 19.17C20.2791 18.747 19.9344 18.4023 19.5114 18.4023Z" fill="#276CB0"/>
<path d="M26.6246 23.2267C25.8726 23.9317 24.4626 24.433 22.4102 24.7463C21.9402 24.8247 20.7652 24.9343 20.3892 24.9813H20.4049C20.2169 24.9813 20.0602 25.0597 19.9506 25.185L15.6892 29.4933L11.4279 25.185C11.3182 25.0597 11.1459 24.9813 10.9736 24.9813H10.9892C10.6132 24.95 9.4539 24.8247 8.96824 24.7463C6.90024 24.4173 5.5059 23.916 4.7539 23.2267C3.40657 21.9733 2.6859 18.417 2.6859 13.435C2.6859 12.8867 2.70157 12.354 2.71724 11.837L4.06457 11.8683L6.90024 11.931C7.18223 14.2497 9.18757 16.0357 11.5376 16.0357C13.2922 16.0357 14.8902 15.0643 15.6892 13.5133C16.4882 15.0643 18.0862 16.0357 19.8409 16.0357C22.1909 16.0357 24.1962 14.2497 24.4782 11.931L27.3139 11.8683L28.6612 11.837C28.6769 12.354 28.6926 12.8867 28.6926 13.435C28.6926 18.417 27.9719 21.9733 26.6246 23.2267ZM14.8902 11.3513C14.8902 13.2 13.3862 14.704 11.5376 14.704C9.6889 14.704 8.1849 13.2 8.1849 11.3513C8.1849 9.50267 9.6889 8.01434 11.5376 8.01434C13.3862 8.01434 14.8902 9.50267 14.8902 11.3513ZM23.1936 11.3513C23.1936 13.2 21.6896 14.704 19.8409 14.704C17.9922 14.704 16.4882 13.2 16.4882 11.3513C16.4882 9.50267 17.9922 8.01434 19.8409 8.01434C21.6896 8.01434 23.1936 9.50267 23.1936 11.3513ZM4.7539 3.58067C6.13257 2.296 9.79857 1.62234 15.6892 1.62234C21.5642 1.62234 25.2459 2.28034 26.6246 3.58067C27.6429 4.53634 28.3009 6.808 28.5672 10.004L27.3296 10.0197L24.3372 10.0823C23.7732 8.06134 21.9402 6.65134 19.8409 6.65134C18.0706 6.65134 16.4882 7.62267 15.6892 9.17367C14.8902 7.62267 13.3079 6.65134 11.5376 6.65134C9.42257 6.65134 7.60524 8.04567 7.04123 10.0823L4.0489 10.0197L2.81124 10.004C3.07757 6.808 3.73557 4.53634 4.7539 3.58067ZM28.1599 2.28034C26.6246 0.839006 21.6739 -0.100994 15.7049 0.00867309C9.7359 -0.100994 4.78524 0.839006 3.2499 2.28034C1.71457 3.70601 0.899902 7.57567 0.899902 13.435C0.899902 19.2943 1.71457 23.1953 3.2499 24.621C4.3309 25.6393 6.64957 26.2973 10.1746 26.6107H10.1902C10.3469 26.6263 10.4722 26.689 10.5662 26.783L15.7206 32L20.8749 26.783C20.9689 26.689 21.1099 26.6107 21.2509 26.6107H21.2666C24.7759 26.2973 27.0946 25.6393 28.1912 24.621C29.7266 23.1953 30.5412 19.31 30.5412 13.435C30.5099 7.57567 29.6796 3.70601 28.1599 2.28034Z" fill="#276CB0"/>
<path d="M18.4307 12.3844C18.4307 13.1207 18.9633 13.7161 19.6213 13.7161C20.2793 13.7161 20.812 13.1207 20.812 12.3844C20.812 11.6481 20.2793 11.0527 19.6213 11.0527C18.9633 11.0684 18.4307 11.6637 18.4307 12.3844Z" fill="#276CB0"/>
<path d="M11.7725 11.0684C11.1145 11.0684 10.5818 11.6637 10.5818 12.4C10.5818 13.1364 11.1145 13.7317 11.7725 13.7317C12.4305 13.7317 12.9631 13.1364 12.9631 12.4C12.9631 11.6637 12.4148 11.0684 11.7725 11.0684Z" fill="#276CB0"/>
<path d="M38.5 7.98438H46.7093V9.31604H40.0823V13.1074H46.2706V14.439H40.0823V18.5594H46.772V19.891H38.5V7.98438Z" fill="#276CB0"/>
<path d="M51.8948 18.8414C53.7905 18.8414 54.5268 17.212 54.5268 15.5827C54.5268 13.875 53.7592 12.3084 51.8165 12.3084C49.8895 12.3084 49.2315 13.9534 49.2315 15.6454C49.2315 17.2747 50.0618 18.8414 51.8948 18.8414ZM55.9055 19.891H54.4955V18.716H54.4642C53.9942 19.6717 52.8975 20.079 51.7068 20.079C49.0592 20.079 47.7432 17.9797 47.7432 15.5514C47.7432 13.123 49.0435 11.0707 51.6755 11.0707C52.5528 11.0707 53.8218 11.3997 54.4642 12.418H54.4955V7.98438H55.9055V19.891Z" fill="#276CB0"/>
<path d="M57.707 11.2564H59.0387V12.5254H59.07C59.6967 11.5541 60.668 11.0527 61.8587 11.0527C62.9084 11.0527 63.8797 11.4757 64.2244 12.5254C64.804 11.6011 65.8224 11.0527 66.919 11.0527C68.6424 11.0527 69.786 11.7734 69.786 13.5594V19.873H68.376V14.2174C68.376 13.152 68.094 12.3061 66.7154 12.3061C65.3524 12.3061 64.4594 13.1677 64.4594 14.4994V19.873H63.0494V14.2174C63.0494 13.105 62.7047 12.3061 61.4357 12.3061C59.7437 12.3061 59.1327 13.857 59.1327 14.4994V19.873H57.7227V11.2564H57.707Z" fill="#276CB0"/>
<path d="M75.348 18.839C76.8364 18.839 78.027 17.6796 78.027 15.5803C78.027 13.481 76.8207 12.306 75.348 12.306C73.8597 12.306 72.669 13.481 72.669 15.5803C72.669 17.664 73.8597 18.839 75.348 18.839ZM75.348 11.0684C78.0897 11.0684 79.531 13.058 79.531 15.5803C79.531 18.1026 78.074 20.0766 75.348 20.0766C72.6064 20.0766 71.165 18.087 71.165 15.5803C71.165 13.0423 72.622 11.0684 75.348 11.0684Z" fill="#276CB0"/>
<path d="M84.9202 18.8414C86.8159 18.8414 87.5522 17.212 87.5522 15.5827C87.5522 13.875 86.7846 12.3084 84.8419 12.3084C82.9149 12.3084 82.2569 13.9534 82.2569 15.6454C82.2569 17.2747 83.0872 18.8414 84.9202 18.8414ZM88.9309 19.891H87.5209V18.716H87.4896C87.0196 19.6717 85.9229 20.079 84.7322 20.079C82.0846 20.079 80.7686 17.9797 80.7686 15.5514C80.7686 13.123 82.0689 11.0707 84.7009 11.0707C85.5782 11.0707 86.8472 11.3997 87.4896 12.418H87.5209V7.98438H88.9309V19.891Z" fill="#276CB0"/>
<path d="M94.3985 18.839C95.8868 18.839 97.0775 17.6796 97.0775 15.5803C97.0775 13.481 95.8711 12.306 94.3985 12.306C92.9101 12.306 91.7195 13.481 91.7195 15.5803C91.7038 17.664 92.9101 18.839 94.3985 18.839ZM94.3985 11.0684C97.1401 11.0684 98.5815 13.058 98.5815 15.5803C98.5815 18.1026 97.1245 20.0766 94.3985 20.0766C91.6568 20.0766 90.2155 18.087 90.2155 15.5803C90.1998 13.0423 91.6568 11.0684 94.3985 11.0684Z" fill="#276CB0"/>
</svg>
