<svg width="25" height="24" viewBox="0 0 25 24" fill="none" xmlns="http://www.w3.org/2000/svg">
<path d="M12.5 2.25C10.7567 2.24984 9.04528 2.71707 7.54393 3.60304C6.04258 4.48901 4.80622 5.7613 3.96363 7.28742C3.12103 8.81353 2.70301 10.5376 2.75311 12.2802C2.80321 14.0228 3.31959 15.72 4.24848 17.1952C5.17736 18.6704 6.48477 19.8695 8.03455 20.6678C9.58432 21.466 11.3198 21.8342 13.0602 21.7338C14.8005 21.6335 16.4822 21.0684 17.93 20.0974C19.3778 19.1264 20.5387 17.7849 21.292 16.2128C20.7587 16.4104 20.1936 16.5077 19.625 16.5C17.9106 16.5 16.9508 15.7495 16.4476 15.1199C16.3304 14.9729 16.2246 14.8171 16.131 14.654C15.5948 15.3886 14.8487 15.9434 13.991 16.2456C13.1333 16.5477 12.2042 16.5829 11.3261 16.3466C10.4479 16.1102 9.66201 15.6134 9.07181 14.9216C8.48162 14.2297 8.11484 13.3753 8.0198 12.471C7.92477 11.5666 8.10593 10.6546 8.53942 9.85519C8.97291 9.05579 9.6384 8.40645 10.4482 7.99273C11.258 7.57902 12.1742 7.42032 13.076 7.53755C13.9777 7.65479 14.8229 8.04245 15.5 8.64947V8.25C15.5 8.05109 15.579 7.86032 15.7197 7.71967C15.8603 7.57902 16.0511 7.5 16.25 7.5C16.4489 7.5 16.6397 7.57902 16.7803 7.71967C16.921 7.86032 17 8.05109 17 8.25V12C17 13.3686 17.4554 15 19.625 15C21.7199 15 22.2165 13.4791 22.2482 12.1423C22.2488 12.0949 22.25 12.0476 22.25 12C22.2471 9.41504 21.2189 6.93679 19.391 5.10894C17.5632 3.28109 15.0849 2.25293 12.5 2.25Z" fill="#11BDCF"/>
<path d="M12.5 15C14.1569 15 15.5 13.6569 15.5 12C15.5 10.3431 14.1569 9 12.5 9C10.8431 9 9.5 10.3431 9.5 12C9.5 13.6569 10.8431 15 12.5 15Z" fill="#11BDCF"/>
</svg>
