<svg width="170" height="170" viewBox="0 0 170 170" fill="none" xmlns="http://www.w3.org/2000/svg">
<g clip-path="url(#clip0)">
<path d="M161.36 57.4842L157.013 135.598L80.5989 158.764L85.8893 63.7112L161.36 57.4842Z" fill="#AC2858"/>
<path d="M6.18744 130.263L80.2976 158.473L85.588 63.4205L10.7205 48.8627L6.18744 130.263Z" fill="#F6515B"/>
<path d="M164.855 44.4457L85.1309 53.1861L7.13769 35.7182L85.4525 27.7227L164.855 44.4457Z" fill="#AC2858"/>
<path d="M161.523 67.546L162.814 44.3204L83.0904 53.0608L81.6277 79.2869L161.523 67.546Z" fill="#F6515B"/>
<path d="M84.2927 79.2461L6.48575 58.4911L7.76211 35.552L85.7554 53.0199L84.2927 79.2461Z" fill="#AC2858"/>
<path d="M122.069 38.5888L143.737 46.7273L138.498 140.825L118.522 146.485L122.115 49.2814L88.1953 38.0897L122.069 38.5888Z" fill="#FFDCDE"/>
<path d="M80.6442 31.5488L34.9787 44.41L29.7392 138.508L48.9631 146.338L56.1881 49.3268L91.1456 41.9448L80.6442 31.5488Z" fill="#FFDCDE"/>
<path d="M100.065 26.964C100.065 26.964 132.739 4.84582 134.737 -1.44324C136.735 -7.7323 133.45 -7.88989 128.033 -2.5446C122.617 2.8007 100.065 26.964 100.065 26.964Z" fill="#353535"/>
<path d="M136.152 -3.91342C136.152 -3.91342 134.537 2.00729 140.607 8.01494C146.677 14.0226 155.675 22.8838 152.816 34.9935C152.816 34.9935 121.533 48.6079 100.674 39.0535L100.065 26.9643C100.065 26.9643 137.257 1.28032 134.859 -6.01903L136.152 -3.91342Z" fill="#FFDCDE"/>
<path d="M90.7531 26.4506C90.7531 26.4506 60.7418 0.902443 59.4541 -5.61052C58.1663 -12.1235 61.444 -11.8889 66.2318 -5.96034C71.0196 -0.031726 90.7531 26.4506 90.7531 26.4506Z" fill="#353535"/>
<path d="M58.2696 -8.21593C58.2696 -8.21593 59.2099 -2.1358 52.5244 3.15695C45.8389 8.4497 35.8835 16.3024 37.3981 28.6201C37.3981 28.6201 66.9718 45.608 88.7629 38.4048L90.7081 26.4658C90.7081 26.4658 56.6033 -3.16913 59.7796 -10.1601L58.2696 -8.21593Z" fill="#FFDCDE"/>
<path d="M94.2812 20.9788L96.5115 21.1022C100.222 21.3073 103.063 24.4796 102.857 28.1877L102.349 37.3364C102.143 41.0445 98.9673 43.8842 95.2565 43.679L93.0262 43.5557C89.3154 43.3505 86.4743 40.1782 86.6805 36.4702L87.189 27.3214C87.3952 23.6134 90.5705 20.7737 94.2812 20.9788Z" fill="#FFDCDE"/>
<g clip-path="url(#clip1)">
<path d="M143.04 95.6374L143.026 95.6233C142.748 95.3454 142.371 95.1866 141.978 95.1823L110.461 94.8562C110.121 94.8534 109.789 94.9668 109.52 95.1767C109.344 95.3128 109.186 95.4645 109.013 95.6374C99.632 105.019 99.632 120.283 109.013 129.664C118.395 139.046 133.659 139.046 143.04 129.664C152.422 120.283 152.422 105.019 143.04 95.6374Z" fill="#113255"/>
<path d="M143.353 96.1334C143.136 95.5592 142.583 95.1764 141.967 95.1665L110.449 94.8404C109.833 94.8362 109.274 95.2076 109.041 95.7776C108.812 96.339 108.942 96.9827 109.369 97.4094L109.394 97.435C118.722 106.343 133.47 106.496 142.968 97.7809C143.42 97.3626 143.574 96.7091 143.353 96.1334V96.1334Z" fill="#2A4F77"/>
<path d="M129.885 114.201C130.239 114.555 130.727 114.776 131.266 114.775C132.343 114.775 133.22 113.898 133.221 112.82C133.223 111.743 132.344 110.864 131.266 110.865C130.189 110.865 129.312 111.742 129.311 112.82C129.31 113.359 129.531 113.847 129.885 114.201Z" fill="#11BDCF"/>
<path d="M137.911 119.077C137.913 118 137.034 117.121 135.956 117.122C135.434 117.122 134.942 117.326 134.572 117.697C134.202 118.066 134.001 118.557 134.001 119.077C134.001 119.616 134.22 120.105 134.574 120.459C134.928 120.813 135.416 121.032 135.954 121.032C136.475 121.033 136.967 120.83 137.336 120.461C137.707 120.09 137.911 119.599 137.911 119.077V119.077Z" fill="#11BDCF"/>
<path d="M118.445 114.776L117.662 114.776L117.662 113.213L120.399 113.212C121.047 113.212 121.572 112.686 121.572 112.039C121.571 111.389 121.046 110.864 120.399 110.865L116.491 110.868C115.843 110.868 115.318 111.393 115.318 112.041L115.318 115.95C115.318 116.598 115.843 117.124 116.491 117.124L118.446 117.124C118.875 117.124 119.231 117.475 119.228 117.905C119.229 118.335 118.876 118.688 118.447 118.688L116.491 118.687C115.845 118.686 115.318 119.212 115.318 119.86C115.318 120.183 115.449 120.477 115.661 120.689C115.872 120.901 116.166 121.033 116.49 121.032L118.447 121.034C120.169 121.031 121.571 119.629 121.573 117.906C121.573 116.179 120.167 114.775 118.445 114.776V114.776Z" fill="#11BDCF"/>
<path d="M128.528 113.994C128.528 112.271 127.125 110.87 125.402 110.866C124.567 110.867 123.781 111.191 123.191 111.781C122.6 112.372 122.274 113.158 122.274 113.994L122.274 117.904C122.274 118.739 122.599 119.524 123.19 120.115L123.191 120.116C123.781 120.706 124.567 121.03 125.401 121.03C127.125 121.032 128.529 119.627 128.528 117.904L128.528 113.994ZM125.4 118.683C125.191 118.684 124.996 118.602 124.849 118.455L124.848 118.454C124.7 118.306 124.619 118.11 124.618 117.901L124.618 113.992C124.618 113.782 124.701 113.586 124.848 113.439C124.995 113.292 125.191 113.211 125.399 113.211L125.4 113.21C125.617 113.21 125.811 113.298 125.953 113.44C126.094 113.581 126.182 113.777 126.183 113.993L126.183 117.902C126.183 118.334 125.832 118.684 125.4 118.683V118.683Z" fill="#11BDCF"/>
<path d="M137.471 111.124C136.966 110.721 136.228 110.802 135.824 111.308L129.569 119.126C129.19 119.597 129.237 120.27 129.654 120.686L129.752 120.774C130.257 121.177 130.995 121.097 131.4 120.59L137.655 112.772C138.06 112.267 137.98 111.54 137.471 111.124V111.124Z" fill="#11BDCF"/>
</g>
</g>
<defs>
<clipPath id="clip0">
<rect width="170" height="170" fill="white" transform="matrix(-1 -8.74228e-08 -8.74228e-08 1 170 0)"/>
</clipPath>
<clipPath id="clip1">
<rect width="48.1212" height="48.1212" fill="white" transform="translate(126.027 78.624) rotate(45)"/>
</clipPath>
</defs>
</svg>
