<svg width="107" height="32" viewBox="0 0 107 32" fill="none" xmlns="http://www.w3.org/2000/svg">
<path d="M3.80908 5.08984H29.9909V26.908H3.80908V5.08984Z" fill="#0F9D58"/>
<path d="M22.7181 16.7278C23.6211 16.7278 24.3545 15.9945 24.3545 15.0914C24.3545 14.1884 23.6211 13.4551 22.7181 13.4551C21.8151 13.4551 21.0817 14.1884 21.0817 15.0914C21.0817 15.9945 21.8151 16.7278 22.7181 16.7278ZM22.7181 17.8187C20.9666 17.8187 19.0817 18.746 19.0817 19.8975V21.0914H26.3545V19.8975C26.3545 18.746 24.4696 17.8187 22.7181 17.8187ZM11.0817 16.7278C11.9847 16.7278 12.7181 15.9945 12.7181 15.0914C12.7181 14.1884 11.9847 13.4551 11.0817 13.4551C10.1787 13.4551 9.44532 14.1884 9.44532 15.0914C9.44532 15.9945 10.1787 16.7278 11.0817 16.7278ZM11.0817 17.8187C9.33017 17.8187 7.44531 18.746 7.44531 19.8975V21.0914H14.7181V19.8975C14.7181 18.746 12.8332 17.8187 11.0817 17.8187Z" fill="#57BB8A"/>
<path d="M16.9 15.2718C18.1061 15.2718 19.0818 14.2961 19.0818 13.09C19.0818 11.884 18.1061 10.9082 16.9 10.9082C15.6939 10.9082 14.7182 11.884 14.7182 13.09C14.7182 14.2961 15.6939 15.2718 16.9 15.2718ZM16.9 16.7264C14.4455 16.7264 11.8091 18.0294 11.8091 19.6355V21.09H21.9909V19.6355C21.9909 18.0294 19.3546 16.7264 16.9 16.7264Z" fill="#F7F7F7"/>
<path d="M19.8091 25.4551H26.3545V26.9095H19.8091V25.4551Z" fill="#F1F1F1"/>
<path d="M30.7181 2.18164H3.08172C1.87566 2.18164 0.899902 3.1574 0.899902 4.36346V27.6362C0.899902 28.8422 1.87566 29.818 3.08172 29.818H30.7181C31.9241 29.818 32.8999 28.8422 32.8999 27.6362V4.36346C32.8999 3.1574 31.9241 2.18164 30.7181 2.18164ZM29.9908 26.9089H3.80899V5.09073H29.9908V26.9089Z" fill="#F4B400"/>
<path opacity="0.2" d="M30.7181 2.18164H3.08172C1.87566 2.18164 0.899902 3.1574 0.899902 4.36346V4.54528C0.899902 3.33922 1.87566 2.36346 3.08172 2.36346H30.7181C31.9241 2.36346 32.8999 3.33922 32.8999 4.54528V4.36346C32.8999 3.1574 31.9241 2.18164 30.7181 2.18164Z" fill="white"/>
<path opacity="0.2" d="M30.7181 29.637H3.08172C1.87566 29.637 0.899902 28.6612 0.899902 27.4551V27.6369C0.899902 28.843 1.87566 29.8188 3.08172 29.8188H30.7181C31.9241 29.8188 32.8999 28.843 32.8999 27.6369V27.4551C32.8999 28.6612 31.9241 29.637 30.7181 29.637Z" fill="#BF360C"/>
<path d="M26.3423 26.9082H19.7969L22.706 29.8173H29.2453L26.3423 26.9082Z" fill="url(#paint0_linear)"/>
<path opacity="0.2" d="M3.80908 4.9082H29.9909V5.09003H3.80908V4.9082Z" fill="#555555"/>
<path opacity="0.2" d="M3.80908 26.9082H29.9909V27.09H3.80908V26.9082Z" fill="white"/>
<path d="M30.7181 2.18164H3.08172C1.87566 2.18164 0.899902 3.1574 0.899902 4.36346V27.6362C0.899902 28.8422 1.87566 29.818 3.08172 29.818H30.7181C31.9241 29.818 32.8999 28.8422 32.8999 27.6362V4.36346C32.8999 3.1574 31.9241 2.18164 30.7181 2.18164Z" fill="url(#paint1_radial)"/>
<path d="M49.9077 11.9219C49.5913 12.3008 49.144 12.5957 48.5659 12.8066C47.9878 13.0137 47.3472 13.1172 46.644 13.1172C45.9058 13.1172 45.2573 12.957 44.6987 12.6367C44.144 12.3125 43.7144 11.8438 43.4097 11.2305C43.1089 10.6172 42.9546 9.89648 42.9468 9.06836V8.48828C42.9468 7.63672 43.0894 6.90039 43.3745 6.2793C43.6636 5.6543 44.0776 5.17773 44.6167 4.84961C45.1597 4.51758 45.7944 4.35156 46.521 4.35156C47.5327 4.35156 48.3237 4.59375 48.894 5.07812C49.4644 5.55859 49.8022 6.25977 49.9077 7.18164H48.1968C48.1187 6.69336 47.9448 6.33594 47.6753 6.10938C47.4097 5.88281 47.0425 5.76953 46.5737 5.76953C45.9761 5.76953 45.521 5.99414 45.2085 6.44336C44.896 6.89258 44.7378 7.56055 44.7339 8.44727V8.99219C44.7339 9.88672 44.9038 10.5625 45.2437 11.0195C45.5835 11.4766 46.0815 11.7051 46.7378 11.7051C47.3979 11.7051 47.8687 11.5645 48.1499 11.2832V9.8125H46.5503V8.51758H49.9077V11.9219Z" fill="#353535"/>
<path d="M50.9624 9.77148C50.9624 9.14258 51.0835 8.58203 51.3257 8.08984C51.5679 7.59766 51.9155 7.2168 52.3687 6.94727C52.8257 6.67773 53.355 6.54297 53.9565 6.54297C54.812 6.54297 55.5093 6.80469 56.0483 7.32812C56.5913 7.85156 56.894 8.5625 56.9565 9.46094L56.9683 9.89453C56.9683 10.8672 56.6968 11.6484 56.1538 12.2383C55.6108 12.8242 54.8823 13.1172 53.9683 13.1172C53.0542 13.1172 52.3237 12.8242 51.7769 12.2383C51.2339 11.6523 50.9624 10.8555 50.9624 9.84766V9.77148ZM52.6558 9.89453C52.6558 10.4961 52.769 10.957 52.9956 11.2773C53.2222 11.5938 53.5464 11.752 53.9683 11.752C54.3784 11.752 54.6987 11.5957 54.9292 11.2832C55.1597 10.9668 55.2749 10.4629 55.2749 9.77148C55.2749 9.18164 55.1597 8.72461 54.9292 8.40039C54.6987 8.07617 54.3745 7.91406 53.9565 7.91406C53.5425 7.91406 53.2222 8.07617 52.9956 8.40039C52.769 8.7207 52.6558 9.21875 52.6558 9.89453Z" fill="#353535"/>
<path d="M57.7476 9.77148C57.7476 9.14258 57.8687 8.58203 58.1108 8.08984C58.353 7.59766 58.7007 7.2168 59.1538 6.94727C59.6108 6.67773 60.1401 6.54297 60.7417 6.54297C61.5972 6.54297 62.2944 6.80469 62.8335 7.32812C63.3765 7.85156 63.6792 8.5625 63.7417 9.46094L63.7534 9.89453C63.7534 10.8672 63.4819 11.6484 62.939 12.2383C62.396 12.8242 61.6675 13.1172 60.7534 13.1172C59.8394 13.1172 59.1089 12.8242 58.562 12.2383C58.019 11.6523 57.7476 10.8555 57.7476 9.84766V9.77148ZM59.4409 9.89453C59.4409 10.4961 59.5542 10.957 59.7808 11.2773C60.0073 11.5938 60.3315 11.752 60.7534 11.752C61.1636 11.752 61.4839 11.5957 61.7144 11.2832C61.9448 10.9668 62.0601 10.4629 62.0601 9.77148C62.0601 9.18164 61.9448 8.72461 61.7144 8.40039C61.4839 8.07617 61.1597 7.91406 60.7417 7.91406C60.3276 7.91406 60.0073 8.07617 59.7808 8.40039C59.5542 8.7207 59.4409 9.21875 59.4409 9.89453Z" fill="#353535"/>
<path d="M64.5503 9.7832C64.5503 8.81055 64.7808 8.02734 65.2417 7.43359C65.7065 6.83984 66.3315 6.54297 67.1167 6.54297C67.812 6.54297 68.353 6.78125 68.7397 7.25781L68.8101 6.66016H70.3452V12.7891C70.3452 13.3438 70.2183 13.8262 69.9644 14.2363C69.7144 14.6465 69.3608 14.959 68.9038 15.1738C68.4468 15.3887 67.9116 15.4961 67.2983 15.4961C66.8335 15.4961 66.3804 15.4023 65.939 15.2148C65.4976 15.0312 65.1636 14.793 64.937 14.5L65.687 13.4688C66.1089 13.9414 66.6206 14.1777 67.2222 14.1777C67.6714 14.1777 68.021 14.0566 68.271 13.8145C68.521 13.5762 68.646 13.2363 68.646 12.7949V12.4551C68.2554 12.8965 67.7417 13.1172 67.105 13.1172C66.3433 13.1172 65.7261 12.8203 65.2534 12.2266C64.7847 11.6289 64.5503 10.8379 64.5503 9.85352V9.7832ZM66.2437 9.90625C66.2437 10.4805 66.3589 10.9316 66.5894 11.2598C66.8198 11.584 67.1362 11.7461 67.5386 11.7461C68.0542 11.7461 68.4233 11.5527 68.646 11.166V8.5C68.4194 8.11328 68.0542 7.91992 67.5503 7.91992C67.144 7.91992 66.8237 8.08594 66.5894 8.41797C66.3589 8.75 66.2437 9.24609 66.2437 9.90625Z" fill="#353535"/>
<path d="M73.439 13H71.7397V4H73.439V13Z" fill="#353535"/>
<path d="M77.7573 13.1172C76.8276 13.1172 76.0698 12.832 75.4839 12.2617C74.9019 11.6914 74.6108 10.9316 74.6108 9.98242V9.81836C74.6108 9.18164 74.7339 8.61328 74.98 8.11328C75.2261 7.60938 75.5737 7.22266 76.0229 6.95312C76.4761 6.67969 76.9917 6.54297 77.5698 6.54297C78.437 6.54297 79.1187 6.81641 79.6147 7.36328C80.1147 7.91016 80.3647 8.68555 80.3647 9.68945V10.3809H76.3276C76.3823 10.7949 76.5464 11.127 76.8198 11.377C77.0972 11.627 77.4468 11.752 77.8687 11.752C78.521 11.752 79.0308 11.5156 79.3979 11.043L80.23 11.9746C79.9761 12.334 79.6323 12.6152 79.1987 12.8184C78.7651 13.0176 78.2847 13.1172 77.7573 13.1172ZM77.564 7.91406C77.228 7.91406 76.9546 8.02734 76.7437 8.25391C76.5366 8.48047 76.4038 8.80469 76.3452 9.22656H78.7007V9.0918C78.6929 8.7168 78.5913 8.42773 78.396 8.22461C78.2007 8.01758 77.9233 7.91406 77.564 7.91406Z" fill="#353535"/>
<path d="M49.855 24.1582C49.7886 25.0762 49.4487 25.7988 48.8354 26.3262C48.2261 26.8535 47.4214 27.1172 46.4214 27.1172C45.3276 27.1172 44.4663 26.75 43.8374 26.0156C43.2124 25.2773 42.8999 24.2656 42.8999 22.9805V22.459C42.8999 21.6387 43.0444 20.916 43.3335 20.291C43.6226 19.666 44.0347 19.1875 44.5698 18.8555C45.1089 18.5195 45.7339 18.3516 46.4448 18.3516C47.4292 18.3516 48.2222 18.6152 48.8237 19.1426C49.4253 19.6699 49.7729 20.4102 49.8667 21.3633H48.1089C48.0659 20.8125 47.9116 20.4141 47.646 20.168C47.3843 19.918 46.9839 19.793 46.4448 19.793C45.8589 19.793 45.4194 20.0039 45.1265 20.4258C44.8374 20.8438 44.689 21.4941 44.6812 22.377V23.0215C44.6812 23.9434 44.8198 24.6172 45.0972 25.043C45.3784 25.4688 45.8198 25.6816 46.4214 25.6816C46.9644 25.6816 47.3687 25.5586 47.6343 25.3125C47.9038 25.0625 48.0581 24.6777 48.0972 24.1582H49.855Z" fill="#353535"/>
<path d="M52.6851 27H50.9858V18H52.6851V27Z" fill="#353535"/>
<path d="M57.7593 27C57.6812 26.8477 57.6245 26.6582 57.5894 26.4316C57.1792 26.8887 56.646 27.1172 55.9897 27.1172C55.3687 27.1172 54.853 26.9375 54.4429 26.5781C54.0366 26.2188 53.8335 25.7656 53.8335 25.2188C53.8335 24.5469 54.0815 24.0312 54.5776 23.6719C55.0776 23.3125 55.7983 23.1309 56.7397 23.127H57.519V22.7637C57.519 22.4707 57.4429 22.2363 57.2905 22.0605C57.1421 21.8848 56.9058 21.7969 56.5815 21.7969C56.2964 21.7969 56.0718 21.8652 55.9077 22.002C55.7476 22.1387 55.6675 22.3262 55.6675 22.5645H53.9741C53.9741 22.1973 54.0874 21.8574 54.314 21.5449C54.5405 21.2324 54.8608 20.9883 55.2749 20.8125C55.689 20.6328 56.1538 20.543 56.6694 20.543C57.4507 20.543 58.0698 20.7402 58.5269 21.1348C58.9878 21.5254 59.2183 22.0762 59.2183 22.7871V25.5352C59.2222 26.1367 59.3062 26.5918 59.4702 26.9004V27H57.7593ZM56.3589 25.8223C56.6089 25.8223 56.8394 25.7676 57.0503 25.6582C57.2612 25.5449 57.4175 25.3945 57.519 25.207V24.1172H56.8862C56.0386 24.1172 55.5874 24.4102 55.5327 24.9961L55.5269 25.0957C55.5269 25.3066 55.6011 25.4805 55.7495 25.6172C55.8979 25.7539 56.1011 25.8223 56.3589 25.8223Z" fill="#353535"/>
<path d="M63.9526 25.248C63.9526 25.041 63.8491 24.8789 63.6421 24.7617C63.439 24.6406 63.1108 24.5332 62.6577 24.4395C61.1499 24.123 60.396 23.4824 60.396 22.5176C60.396 21.9551 60.6284 21.4863 61.0933 21.1113C61.562 20.7324 62.1733 20.543 62.9272 20.543C63.7319 20.543 64.3745 20.7324 64.855 21.1113C65.3394 21.4902 65.5815 21.9824 65.5815 22.5879H63.8882C63.8882 22.3457 63.8101 22.1465 63.6538 21.9902C63.4976 21.8301 63.2534 21.75 62.9214 21.75C62.6362 21.75 62.4155 21.8145 62.2593 21.9434C62.103 22.0723 62.0249 22.2363 62.0249 22.4355C62.0249 22.623 62.1128 22.7754 62.2886 22.8926C62.4683 23.0059 62.769 23.1055 63.1909 23.1914C63.6128 23.2734 63.9683 23.3672 64.2573 23.4727C65.1519 23.8008 65.5991 24.3691 65.5991 25.1777C65.5991 25.7559 65.3511 26.2246 64.855 26.584C64.3589 26.9395 63.7183 27.1172 62.9331 27.1172C62.4019 27.1172 61.9292 27.0234 61.5151 26.8359C61.105 26.6445 60.7827 26.3848 60.5483 26.0566C60.314 25.7246 60.1968 25.3672 60.1968 24.9844H61.8022C61.8179 25.2852 61.9292 25.5156 62.1362 25.6758C62.3433 25.8359 62.6206 25.916 62.9683 25.916C63.2925 25.916 63.5366 25.8555 63.7007 25.7344C63.8687 25.6094 63.9526 25.4473 63.9526 25.248Z" fill="#353535"/>
<path d="M70.1284 25.248C70.1284 25.041 70.0249 24.8789 69.8179 24.7617C69.6147 24.6406 69.2866 24.5332 68.8335 24.4395C67.3257 24.123 66.5718 23.4824 66.5718 22.5176C66.5718 21.9551 66.8042 21.4863 67.269 21.1113C67.7378 20.7324 68.3491 20.543 69.103 20.543C69.9077 20.543 70.5503 20.7324 71.0308 21.1113C71.5151 21.4902 71.7573 21.9824 71.7573 22.5879H70.064C70.064 22.3457 69.9858 22.1465 69.8296 21.9902C69.6733 21.8301 69.4292 21.75 69.0972 21.75C68.812 21.75 68.5913 21.8145 68.4351 21.9434C68.2788 22.0723 68.2007 22.2363 68.2007 22.4355C68.2007 22.623 68.2886 22.7754 68.4644 22.8926C68.644 23.0059 68.9448 23.1055 69.3667 23.1914C69.7886 23.2734 70.144 23.3672 70.4331 23.4727C71.3276 23.8008 71.7749 24.3691 71.7749 25.1777C71.7749 25.7559 71.5269 26.2246 71.0308 26.584C70.5347 26.9395 69.894 27.1172 69.1089 27.1172C68.5776 27.1172 68.105 27.0234 67.6909 26.8359C67.2808 26.6445 66.9585 26.3848 66.7241 26.0566C66.4897 25.7246 66.3726 25.3672 66.3726 24.9844H67.978C67.9937 25.2852 68.105 25.5156 68.312 25.6758C68.519 25.8359 68.7964 25.916 69.144 25.916C69.4683 25.916 69.7124 25.8555 69.8765 25.7344C70.0444 25.6094 70.1284 25.4473 70.1284 25.248Z" fill="#353535"/>
<path d="M76.4331 22.248C76.2026 22.2168 75.9995 22.2012 75.8237 22.2012C75.1831 22.2012 74.7632 22.418 74.564 22.8516V27H72.8706V20.6602H74.4702L74.5171 21.416C74.8569 20.834 75.3276 20.543 75.9292 20.543C76.1167 20.543 76.2925 20.5684 76.4565 20.6191L76.4331 22.248Z" fill="#353535"/>
<path d="M76.7788 23.7715C76.7788 23.1426 76.8999 22.582 77.1421 22.0898C77.3843 21.5977 77.7319 21.2168 78.1851 20.9473C78.6421 20.6777 79.1714 20.543 79.7729 20.543C80.6284 20.543 81.3257 20.8047 81.8647 21.3281C82.4077 21.8516 82.7104 22.5625 82.7729 23.4609L82.7847 23.8945C82.7847 24.8672 82.5132 25.6484 81.9702 26.2383C81.4272 26.8242 80.6987 27.1172 79.7847 27.1172C78.8706 27.1172 78.1401 26.8242 77.5933 26.2383C77.0503 25.6523 76.7788 24.8555 76.7788 23.8477V23.7715ZM78.4722 23.8945C78.4722 24.4961 78.5854 24.957 78.812 25.2773C79.0386 25.5938 79.3628 25.752 79.7847 25.752C80.1948 25.752 80.5151 25.5957 80.7456 25.2832C80.9761 24.9668 81.0913 24.4629 81.0913 23.7715C81.0913 23.1816 80.9761 22.7246 80.7456 22.4004C80.5151 22.0762 80.1909 21.9141 79.7729 21.9141C79.3589 21.9141 79.0386 22.0762 78.812 22.4004C78.5854 22.7207 78.4722 23.2188 78.4722 23.8945Z" fill="#353535"/>
<path d="M83.564 23.7715C83.564 23.1426 83.6851 22.582 83.9272 22.0898C84.1694 21.5977 84.5171 21.2168 84.9702 20.9473C85.4272 20.6777 85.9565 20.543 86.5581 20.543C87.4136 20.543 88.1108 20.8047 88.6499 21.3281C89.1929 21.8516 89.4956 22.5625 89.5581 23.4609L89.5698 23.8945C89.5698 24.8672 89.2983 25.6484 88.7554 26.2383C88.2124 26.8242 87.4839 27.1172 86.5698 27.1172C85.6558 27.1172 84.9253 26.8242 84.3784 26.2383C83.8354 25.6523 83.564 24.8555 83.564 23.8477V23.7715ZM85.2573 23.8945C85.2573 24.4961 85.3706 24.957 85.5972 25.2773C85.8237 25.5938 86.1479 25.752 86.5698 25.752C86.98 25.752 87.3003 25.5957 87.5308 25.2832C87.7612 24.9668 87.8765 24.4629 87.8765 23.7715C87.8765 23.1816 87.7612 22.7246 87.5308 22.4004C87.3003 22.0762 86.9761 21.9141 86.5581 21.9141C86.144 21.9141 85.8237 22.0762 85.5972 22.4004C85.3706 22.7207 85.2573 23.2188 85.2573 23.8945Z" fill="#353535"/>
<path d="M92.2007 20.6602L92.2534 21.3691C92.7026 20.8184 93.3101 20.543 94.0757 20.543C94.8921 20.543 95.4526 20.8652 95.7573 21.5098C96.2026 20.8652 96.8374 20.543 97.6616 20.543C98.3491 20.543 98.8608 20.7441 99.1968 21.1465C99.5327 21.5449 99.7007 22.1465 99.7007 22.9512V27H98.0015V22.957C98.0015 22.5977 97.9312 22.3359 97.7905 22.1719C97.6499 22.0039 97.4019 21.9199 97.0464 21.9199C96.5386 21.9199 96.187 22.1621 95.9917 22.6465L95.9976 27H94.3042V22.9629C94.3042 22.5957 94.2319 22.3301 94.0874 22.166C93.9429 22.002 93.6968 21.9199 93.3491 21.9199C92.8687 21.9199 92.521 22.1191 92.3062 22.5176V27H90.6128V20.6602H92.2007Z" fill="#353535"/>
<defs>
<linearGradient id="paint0_linear" x1="24.5214" y1="26.9485" x2="24.5214" y2="29.8476" gradientUnits="userSpaceOnUse">
<stop stop-color="#BF360C" stop-opacity="0.2"/>
<stop offset="1" stop-color="#BF360C" stop-opacity="0.02"/>
</linearGradient>
<radialGradient id="paint1_radial" cx="0" cy="0" r="1" gradientUnits="userSpaceOnUse" gradientTransform="translate(1.84178 2.82943) scale(132.032 132.032)">
<stop stop-color="white" stop-opacity="0.1"/>
<stop offset="1" stop-color="white" stop-opacity="0"/>
</radialGradient>
</defs>
</svg>
