<svg width="96" height="96" viewBox="0 0 96 96" fill="none" xmlns="http://www.w3.org/2000/svg">
<path d="M54.1638 3.22606L75.3015 11.9816C79.2481 13.6163 82.3837 16.7519 84.0184 20.6985L92.7739 41.8362C94.4087 45.7828 94.4087 50.2172 92.7739 54.1638L84.0184 75.3015C82.3837 79.2481 79.2481 82.3837 75.3015 84.0184L54.1638 92.7739C50.2172 94.4087 45.7828 94.4087 41.8362 92.7739L20.6985 84.0184C16.7519 82.3837 13.6163 79.2481 11.9816 75.3015L3.22606 54.1638C1.59131 50.2172 1.59131 45.7828 3.22606 41.8362L11.9816 20.6985C13.6163 16.7519 16.7519 13.6163 20.6985 11.9816L41.8362 3.22606C45.7828 1.59131 50.2172 1.59131 54.1638 3.22606Z" stroke="#11BDCF" stroke-width="4"/>
<path d="M51.7108 24.5195V28.759L51.9754 28.3802C52.1951 28.066 52.6282 27.9889 52.9431 28.2077L56.4213 30.6285C56.7365 30.8479 56.8143 31.281 56.5952 31.5962L54.1744 35.0815C54.0691 35.2334 53.9077 35.337 53.726 35.3696C53.6853 35.3767 53.6442 35.3805 53.6031 35.3805C53.5681 35.3805 53.5347 35.37 53.5003 35.3647C53.4776 35.3613 53.4557 35.3601 53.4334 35.3545C53.3529 35.3341 53.275 35.304 53.2056 35.2558L51.7108 34.215V49.1201C51.8868 49.3459 51.9642 49.5693 52.0107 49.723C52.0569 49.8755 52.0579 49.8762 52.117 49.9173C52.1768 49.9587 52.1768 49.9597 52.3375 49.9502C52.5773 49.9356 52.9777 49.9122 53.4346 50.2301C53.8911 50.548 54.0076 50.9325 54.0772 51.1625C54.1238 51.315 54.1248 51.316 54.1839 51.3571C54.244 51.3986 54.2444 51.3996 54.4047 51.3901C54.6448 51.3768 55.0463 51.3531 55.5022 51.6703C55.959 51.9886 56.0765 52.3731 56.1465 52.6027C56.1937 52.7569 56.1947 52.7576 56.2555 52.8C56.316 52.8418 56.318 52.8428 56.4777 52.8333C56.7178 52.8197 57.1193 52.7966 57.5758 53.1146C57.891 53.334 57.9685 53.7678 57.7487 54.083C57.6135 54.2769 57.3972 54.3809 57.1774 54.3809C57.0402 54.3809 56.9016 54.3404 56.7803 54.2559C56.7192 54.2137 56.7175 54.2134 56.5578 54.2222C56.3194 54.2375 55.9172 54.2596 55.4604 53.9417C55.0035 53.6234 54.886 53.2389 54.816 53.0093C54.7688 52.8551 54.7678 52.8544 54.707 52.8119C54.6472 52.7705 54.6469 52.7695 54.4859 52.779C54.2461 52.7922 53.8449 52.816 53.3884 52.4984C52.9322 52.1808 52.8157 51.7963 52.7461 51.5664C52.6995 51.4139 52.6985 51.4128 52.6394 51.3717C52.5796 51.3303 52.5786 51.3289 52.4193 51.3391C52.2516 51.3482 52.0013 51.3567 51.7108 51.2551V61.5088C51.7108 61.645 51.6707 61.7782 51.5956 61.892L49.472 65.0743C49.3429 65.2676 49.1259 65.3834 48.8935 65.3834C48.8935 65.3834 48.8935 65.3834 48.8932 65.3834C48.6609 65.3834 48.4438 65.2673 48.3151 65.074L46.7716 62.7619L45.2285 65.074C44.971 65.4605 44.3298 65.4605 44.0716 65.074L43.9643 64.9132L43.9194 67.1514L46.5108 66.1341C46.7265 66.0495 46.972 66.0784 47.1623 66.2105C47.3531 66.3437 47.4649 66.5631 47.4605 66.7954L47.4048 69.577L49.9944 68.5556C50.077 68.523 50.1636 68.507 50.2498 68.507C50.3898 68.507 50.5287 68.5491 50.6469 68.6313C50.8382 68.7645 50.9499 68.9839 50.9455 69.2166L50.8898 71.9995L53.2777 71.06L74.596 40.4578L51.7108 24.5195ZM62.2972 47.5522C62.162 47.7461 61.9457 47.85 61.7259 47.85C61.5887 47.85 61.4501 47.8096 61.3288 47.725C61.2677 47.6829 61.266 47.6826 61.1064 47.6914C60.8669 47.7064 60.4654 47.7288 60.0089 47.4109C59.552 47.0926 59.4345 46.7081 59.3645 46.4785C59.3173 46.3242 59.3163 46.3236 59.2555 46.2811C59.1961 46.24 59.195 46.238 59.0347 46.2482C58.7959 46.2614 58.3934 46.2852 57.9372 45.9679C57.4811 45.65 57.3642 45.2655 57.2946 45.0355C57.2484 44.8834 57.247 44.8827 57.1883 44.8416C57.1281 44.7998 57.1254 44.7995 56.9678 44.8083C56.7284 44.8236 56.3272 44.8463 55.8704 44.5281C55.4145 44.2105 55.2977 43.826 55.228 43.5964C55.1815 43.4435 55.1805 43.4428 55.1214 43.4017C55.0626 43.3603 55.0613 43.3596 54.9033 43.3698C54.6628 43.3841 54.262 43.4079 53.8065 43.0909C53.35 42.7727 53.2332 42.3882 53.1635 42.1585C53.117 42.0057 53.116 42.005 53.0569 41.9639C52.7417 41.7442 52.6639 41.3107 52.8833 40.9955C53.102 40.6796 53.5365 40.6022 53.8517 40.8219C54.3082 41.1399 54.4251 41.5244 54.4947 41.7543C54.5412 41.9072 54.5422 41.9079 54.6017 41.9493C54.6598 41.9891 54.6604 41.9894 54.8194 41.9809C55.0592 41.966 55.4607 41.9425 55.9162 42.2598C56.3727 42.5777 56.4896 42.9622 56.5592 43.1922C56.6057 43.3447 56.6068 43.3454 56.6659 43.3868C56.7256 43.4282 56.727 43.4282 56.886 43.4197C57.1254 43.4055 57.5266 43.3817 57.9834 43.7C58.4393 44.0172 58.5561 44.4021 58.6257 44.6317C58.6723 44.7842 58.6733 44.7852 58.7324 44.8263C58.7922 44.8681 58.7925 44.8691 58.9535 44.8593C59.1933 44.846 59.5948 44.8222 60.051 45.1398C60.5075 45.4578 60.625 45.8423 60.695 46.0719C60.7422 46.2261 60.7432 46.2268 60.804 46.2692C60.8642 46.311 60.8665 46.3124 61.0262 46.3025C61.2657 46.2879 61.6678 46.2655 62.1243 46.5838C62.4396 46.8032 62.517 47.2369 62.2972 47.5522ZM66.2744 41.3192C66.1372 41.3192 65.9989 41.2788 65.8777 41.1946C65.8169 41.1528 65.8145 41.1514 65.6552 41.1609C65.4144 41.1738 65.0129 41.1976 64.5571 40.8797C64.1005 40.5618 63.983 40.1773 63.913 39.9476C63.8658 39.7934 63.8648 39.7928 63.804 39.7503C63.7446 39.7089 63.7432 39.7078 63.5832 39.7173C63.3441 39.7309 62.9419 39.7544 62.4857 39.4371C62.0292 39.1192 61.9127 38.7343 61.8431 38.5047C61.7969 38.3526 61.7959 38.3515 61.7371 38.3108C61.6773 38.2693 61.6767 38.2676 61.5167 38.2778C61.2755 38.2938 60.8757 38.3152 60.4192 37.9979C59.9627 37.68 59.8462 37.2955 59.7765 37.0655C59.73 36.913 59.729 36.912 59.6699 36.8709C59.6108 36.8298 59.6091 36.8291 59.4515 36.839C59.2107 36.8533 58.8112 36.8774 58.355 36.5601C57.8985 36.2419 57.7817 35.8573 57.712 35.6277C57.6655 35.4749 57.6645 35.4742 57.6054 35.4331C57.2902 35.2133 57.2124 34.7799 57.4318 34.4647C57.6509 34.1491 58.0847 34.071 58.4002 34.2911C58.8567 34.6091 58.9736 34.9936 59.0432 35.2235C59.0897 35.3764 59.0908 35.3771 59.1502 35.4185C59.2086 35.4593 59.2103 35.4599 59.3679 35.4501C59.6088 35.4372 60.0089 35.412 60.4654 35.7293C60.9216 36.0472 61.0381 36.4317 61.1077 36.6617C61.1542 36.8142 61.1553 36.8152 61.2144 36.8563C61.2741 36.8978 61.2765 36.8988 61.4345 36.8889C61.6773 36.8747 62.0758 36.8519 62.5319 37.1688C62.9885 37.4864 63.105 37.8712 63.1746 38.1012C63.2208 38.2534 63.2218 38.2544 63.2809 38.2955C63.3404 38.3369 63.3407 38.3379 63.502 38.3284C63.7415 38.3155 64.1433 38.2914 64.5995 38.609C65.056 38.9269 65.1735 39.3114 65.2435 39.5411C65.2907 39.6953 65.2918 39.6959 65.3526 39.7384C65.4127 39.7802 65.4144 39.7805 65.575 39.772C65.8145 39.7574 66.216 39.7347 66.6725 40.0526C66.9877 40.272 67.0655 40.7054 66.8461 41.021C66.7109 41.2153 66.4945 41.3192 66.2744 41.3192Z" fill="#11BDCF"/>
<path d="M41.4976 64.3078L43.0254 63.7083C43.0617 63.694 43.0988 63.6828 43.1365 63.675L42.5281 62.7637L41.4976 64.3078Z" fill="#11BDCF"/>
<path d="M43.1067 61.1231L44.6502 63.4352L46.1933 61.1231C46.4507 60.7366 47.092 60.7366 47.3502 61.1231L48.894 63.4356L50.3196 61.3004V49.5721C50.2752 49.4343 50.2735 49.2899 50.3196 49.1489V32.8834V30.9703V24H22V61.2984L23.4259 63.4352L24.9694 61.1231C25.0985 60.9298 25.3155 60.8137 25.5478 60.8137C25.7802 60.8137 25.9976 60.9298 26.1263 61.1231L27.6694 63.4352L29.2129 61.1231C29.3419 60.9298 29.559 60.8137 29.7913 60.8137C30.0237 60.8137 30.2411 60.9298 30.3698 61.1231L31.9139 63.4366L33.4635 61.1221C33.5926 60.9295 33.8096 60.8137 34.0416 60.8137C34.0419 60.8137 34.0419 60.8137 34.0423 60.8137C34.2743 60.814 34.4913 60.9298 34.6201 61.1231L36.1622 63.4339L37.7073 61.1221C37.8364 60.9292 38.0531 60.8137 38.2851 60.8137C38.5174 60.8137 38.7341 60.9295 38.8632 61.1221L40.406 63.4359L41.9498 61.1231C42.2073 60.7366 42.8486 60.7366 43.1067 61.1231ZM27.4062 53.3834H27.9367C28.9055 53.3834 29.6935 54.1714 29.6935 55.1402C29.6935 56.1089 28.9055 56.897 27.9367 56.897H26.3447C25.9605 56.897 25.6491 56.5855 25.6491 56.2013C25.6491 55.8171 25.9605 55.5057 26.3447 55.5057H27.9367C28.1382 55.5057 28.3022 55.3416 28.3022 55.1402C28.3022 54.9388 28.1382 54.7747 27.9367 54.7747H27.4062C26.4374 54.7747 25.6491 53.9867 25.6491 53.0179C25.6491 52.1985 26.2156 51.514 26.9758 51.3208V51.161C26.9758 50.7768 27.2873 50.4653 27.6715 50.4653C28.0556 50.4653 28.3671 50.7768 28.3671 51.161V51.2612H28.9979C29.382 51.2612 29.6935 51.5726 29.6935 51.9568C29.6935 52.341 29.382 52.6524 28.9979 52.6524H27.4062C27.2044 52.6524 27.0403 52.8165 27.0403 53.0179C27.0403 53.2194 27.2044 53.3834 27.4062 53.3834ZM30.487 47.179C30.487 47.5632 30.1755 47.8747 29.7913 47.8747H25.5478C25.1637 47.8747 24.8522 47.5632 24.8522 47.179V42.9355C24.8522 42.5514 25.1637 42.2399 25.5478 42.2399H29.7913C30.1755 42.2399 30.487 42.5514 30.487 42.9355V47.179ZM30.487 39.2209C30.487 39.6051 30.1755 39.9166 29.7913 39.9166H25.5478C25.1637 39.9166 24.8522 39.6051 24.8522 39.2209V34.9774C24.8522 34.5933 25.1637 34.2818 25.5478 34.2818H29.7913C30.1755 34.2818 30.487 34.5933 30.487 34.9774V39.2209ZM30.487 31.2628C30.487 31.647 30.1755 31.9584 29.7913 31.9584H25.5478C25.1637 31.9584 24.8522 31.647 24.8522 31.2628V27.0193C24.8522 26.6352 25.1637 26.3237 25.5478 26.3237H29.7913C30.1755 26.3237 30.487 26.6352 30.487 27.0193V31.2628ZM33.5077 28.1436C34.1024 28.1436 34.4258 28.4544 34.619 28.6402C34.6591 28.6786 34.7196 28.7367 34.7413 28.7476C34.8127 28.737 34.8728 28.6789 34.9129 28.6406C35.1058 28.4548 35.4288 28.1436 36.0236 28.1436C36.6183 28.1436 36.9417 28.4544 37.135 28.6402C37.1751 28.6786 37.2355 28.7367 37.2573 28.7476C37.3299 28.7367 37.3904 28.6786 37.4308 28.6399C37.6241 28.4544 37.9475 28.1436 38.5426 28.1436C39.1373 28.1436 39.4607 28.4544 39.654 28.6402C39.6937 28.6786 39.7542 28.7367 39.7759 28.7476C39.8489 28.7367 39.9097 28.6783 39.9498 28.6395C40.1434 28.4541 40.4671 28.1436 41.0622 28.1436C41.6573 28.1436 41.9814 28.4537 42.175 28.6392C42.2154 28.6779 42.2762 28.7367 42.2979 28.7472C42.3744 28.7367 42.4352 28.6783 42.4756 28.6395C42.6692 28.4541 42.9932 28.1436 43.5887 28.1436C43.9729 28.1436 44.2843 28.4551 44.2843 28.8393C44.2843 29.2234 43.9729 29.5349 43.5887 29.5349C43.5394 29.5468 43.4786 29.6056 43.4382 29.6443C43.2446 29.8297 42.9206 30.1399 42.3255 30.1399C41.73 30.1399 41.406 29.8294 41.2124 29.6439C41.1719 29.6052 41.1111 29.5468 41.0894 29.5363C41.014 29.5468 40.9532 29.6052 40.9131 29.6439C40.7195 29.8294 40.3958 30.1399 39.8007 30.1399C39.2059 30.1399 38.8826 29.8291 38.6893 29.6433C38.6496 29.6049 38.5891 29.5468 38.5674 29.5359C38.495 29.5468 38.4346 29.6049 38.3941 29.6436C38.2009 29.8291 37.8775 30.1399 37.2824 30.1399C36.6876 30.1399 36.3643 29.8291 36.171 29.6433C36.1309 29.6049 36.0705 29.5468 36.0487 29.5359C35.9777 29.5465 35.9176 29.6045 35.8775 29.6429C35.6846 29.8287 35.3616 30.1399 34.7668 30.1399C34.1717 30.1399 33.8483 29.8291 33.6551 29.6433C33.615 29.6049 33.5545 29.5468 33.5328 29.5359C33.1486 29.5359 32.8246 29.2241 32.8246 28.8396C32.8246 28.4554 33.1235 28.1436 33.5077 28.1436ZM33.5077 36.1024C34.1024 36.1024 34.4258 36.4132 34.619 36.599C34.6591 36.6374 34.7196 36.6955 34.7413 36.7063C34.8127 36.6958 34.8728 36.6377 34.9129 36.5993C35.1058 36.4135 35.4288 36.1024 36.0236 36.1024C36.6183 36.1024 36.9417 36.4132 37.135 36.599C37.1751 36.6374 37.2355 36.6955 37.2573 36.7063C37.3299 36.6955 37.3904 36.6374 37.4308 36.5987C37.6241 36.4132 37.9475 36.1024 38.5426 36.1024C39.1373 36.1024 39.4607 36.4132 39.654 36.599C39.6937 36.6374 39.7542 36.6955 39.7759 36.7063C39.8489 36.6955 39.9097 36.637 39.9498 36.5983C40.1434 36.4129 40.4671 36.1024 41.0622 36.1024C41.6573 36.1024 41.9814 36.4125 42.175 36.598C42.2154 36.6367 42.2762 36.6955 42.2979 36.706C42.3744 36.6955 42.4352 36.637 42.4756 36.5983C42.6692 36.4129 42.9932 36.1024 43.5887 36.1024C43.9729 36.1024 44.2843 36.4139 44.2843 36.7981C44.2843 37.1822 43.9729 37.4937 43.5887 37.4937C43.5394 37.5056 43.4786 37.5643 43.4382 37.6031C43.2446 37.7885 42.9206 38.0986 42.3255 38.0986C41.73 38.0986 41.406 37.7882 41.2124 37.6027C41.1719 37.564 41.1111 37.5056 41.0894 37.4951C41.014 37.5056 40.9532 37.564 40.9131 37.6027C40.7195 37.7882 40.3958 38.0986 39.8007 38.0986C39.2059 38.0986 38.8826 37.7878 38.6893 37.602C38.6496 37.5637 38.5891 37.5056 38.5674 37.4947C38.495 37.5056 38.4346 37.5637 38.3941 37.6024C38.2009 37.7878 37.8775 38.0986 37.2824 38.0986C36.6876 38.0986 36.3643 37.7878 36.171 37.602C36.1309 37.5637 36.0705 37.5056 36.0487 37.4947C35.9777 37.5052 35.9176 37.5633 35.8775 37.6017C35.6846 37.7875 35.3616 38.0986 34.7668 38.0986C34.1717 38.0986 33.8483 37.7878 33.6551 37.602C33.615 37.5637 33.5545 37.5056 33.5328 37.4947C33.1486 37.4947 32.8246 37.1829 32.8246 36.7984C32.8246 36.4142 33.1235 36.1024 33.5077 36.1024ZM33.5077 44.0612C34.1024 44.0612 34.4258 44.372 34.619 44.5578C34.6591 44.5962 34.7196 44.6543 34.7413 44.6651C34.8127 44.6546 34.8728 44.5965 34.9129 44.5581C35.1058 44.3723 35.4288 44.0612 36.0236 44.0612C36.6183 44.0612 36.9417 44.372 37.135 44.5578C37.1751 44.5962 37.2355 44.6543 37.2573 44.6651C37.3299 44.6543 37.3904 44.5962 37.4308 44.5575C37.6241 44.372 37.9475 44.0612 38.5426 44.0612C39.1373 44.0612 39.4607 44.372 39.654 44.5578C39.6937 44.5962 39.7542 44.6543 39.7759 44.6651C39.8489 44.6543 39.9097 44.5958 39.9498 44.5571C40.1434 44.3717 40.4671 44.0612 41.0622 44.0612C41.6573 44.0612 41.9814 44.3713 42.175 44.5568C42.2154 44.5955 42.2762 44.6543 42.2979 44.6648C42.3744 44.6543 42.4352 44.5958 42.4756 44.5571C42.6692 44.3717 42.9932 44.0612 43.5887 44.0612C43.9729 44.0612 44.2843 44.3727 44.2843 44.7568C44.2843 45.141 43.9729 45.4525 43.5887 45.4525C43.5394 45.4644 43.4786 45.5231 43.4382 45.5619C43.2446 45.7473 42.9206 46.0574 42.3255 46.0574C41.73 46.0574 41.406 45.747 41.2124 45.5615C41.1719 45.5228 41.1111 45.4644 41.0894 45.4538C41.014 45.4644 40.9532 45.5228 40.9131 45.5615C40.7195 45.747 40.3958 46.0574 39.8007 46.0574C39.2059 46.0574 38.8826 45.7466 38.6893 45.5608C38.6496 45.5225 38.5891 45.4644 38.5674 45.4535C38.495 45.4644 38.4346 45.5225 38.3941 45.5612C38.2009 45.7466 37.8775 46.0574 37.2824 46.0574C36.6876 46.0574 36.3643 45.7466 36.171 45.5608C36.1309 45.5225 36.0705 45.4644 36.0487 45.4535C35.9777 45.464 35.9176 45.5221 35.8775 45.5605C35.6846 45.7463 35.3616 46.0574 34.7668 46.0574C34.1717 46.0574 33.8483 45.7466 33.6551 45.5608C33.615 45.5225 33.5545 45.4644 33.5328 45.4535C33.1486 45.4535 32.8246 45.1417 32.8246 44.7572C32.8246 44.373 33.1235 44.0612 33.5077 44.0612ZM32.2814 49.304C32.2814 48.9198 32.5929 48.6083 32.9771 48.6083H44.1193C44.5034 48.6083 44.8149 48.9198 44.8149 49.304C44.8149 49.6882 44.5034 49.9996 44.1193 49.9996H32.9771C32.5929 49.9996 32.2814 49.6882 32.2814 49.304ZM33.506 55.8328C33.1218 55.8328 32.8103 55.5213 32.8103 55.1371V53.0152C32.8103 52.6311 33.1218 52.3196 33.506 52.3196H43.586C43.9701 52.3196 44.2816 52.6311 44.2816 53.0152V55.1371C44.2816 55.5213 43.9701 55.8328 43.586 55.8328H33.506Z" fill="#11BDCF"/>
</svg>
