<svg width="48" height="48" viewBox="0 0 48 48" fill="none" xmlns="http://www.w3.org/2000/svg">
<rect width="48" height="48" rx="24" fill="#DBF5F8"/>
<path d="M31.3462 27.852V25.3536L30.2918 25.7638L30.2887 25.7569L30.2636 25.7112C29.8596 25.0822 29.2062 24.6445 28.4704 24.5111L25.9333 24.0495V23.8492C26.8821 23.2983 27.5769 22.3583 27.7934 21.2472C28.4963 21.1018 29.0264 20.4781 29.0264 19.7327V15.9139C29.0264 14.8348 28.3196 13.8937 27.2943 13.5875L27.1009 13.3942C26.2016 12.4949 25.0061 12 23.7345 12C21.1096 12 18.9739 14.1354 18.9739 16.7606V19.7327C18.9739 20.4781 19.5039 21.1018 20.2068 21.2472C20.4237 22.3583 21.1181 23.2986 22.0669 23.8492V24.0495L19.5302 24.5107C18.7952 24.6441 18.1422 25.081 17.7378 25.7097L17.7146 25.7661L16.654 25.3536V27.852C16.0146 27.852 15.4941 28.3725 15.4941 29.012V30.5585C15.4941 31.198 16.0146 31.7184 16.654 31.7184V33.1428L24.0001 36L31.3462 33.1428V31.7184C31.9857 31.7184 32.5061 31.198 32.5061 30.5585V29.012C32.5061 28.3725 31.9857 27.852 31.3462 27.852ZM26.6578 24.9674L28.332 25.2716C28.8249 25.3613 29.2615 25.6459 29.5526 26.0511L25.8119 27.5056L26.6578 24.9674ZM22.8731 24.2038C23.2299 24.3128 23.6081 24.3723 24.0001 24.3723C24.3922 24.3723 24.7703 24.3128 25.1272 24.2038L24.0001 25.0489L22.8731 24.2038ZM23.4117 25.574L22.6225 26.3627L22.1106 24.8274L22.3569 24.7829L23.4117 25.574ZM25.6433 24.7833L25.8896 24.8278L25.3777 26.3631L24.5886 25.5744L25.6433 24.7833ZM27.8665 20.3985V19.0669C28.0965 19.2011 28.2531 19.4478 28.2531 19.7327C28.2531 20.0177 28.0965 20.2643 27.8665 20.3985ZM20.1338 20.3985C19.9037 20.2643 19.7471 20.0177 19.7471 19.7327C19.7471 19.4478 19.9037 19.2011 20.1338 19.0669V20.3985ZM20.1338 17.7995V18.2411C19.9961 18.277 19.867 18.3312 19.7471 18.4011V16.7606C19.7471 14.5622 21.5357 12.7733 23.7345 12.7733C24.7993 12.7733 25.8011 13.1881 26.5542 13.9413L26.8952 14.2827L26.9992 14.3082C27.7377 14.4926 28.2531 15.153 28.2531 15.9139V18.4011C28.1332 18.3312 28.0041 18.2766 27.8665 18.2411V17.7995H26.6405C25.5927 17.7995 24.5913 17.2992 23.963 16.4614L23.6556 16.0508L22.8874 16.8194C22.2548 17.4516 21.4143 17.7995 20.5204 17.7995H20.1338ZM20.907 20.506V18.555C21.8616 18.4665 22.7474 18.0524 23.4341 17.3661L23.5845 17.2157C24.3597 18.0713 25.4763 18.5728 26.6405 18.5728H27.0932V20.506C27.0932 22.2114 25.7056 23.5991 24.0001 23.5991C22.2947 23.5991 20.907 22.2114 20.907 20.506ZM19.6683 25.2716L21.3424 24.9674L22.1883 27.5056L18.4469 26.0507C18.738 25.6451 19.1753 25.3613 19.6683 25.2716ZM16.2674 30.5585V29.012C16.2674 28.7985 16.441 28.6253 16.654 28.6253C17.2935 28.6253 17.814 29.1457 17.814 29.7852C17.814 30.4247 17.2935 30.9451 16.654 30.9451C16.441 30.9451 16.2674 30.7719 16.2674 30.5585ZM23.6135 35.0195L17.4273 32.6142V31.5545C18.109 31.2552 18.5872 30.5759 18.5872 29.7852C18.5872 28.9946 18.109 28.3152 17.4273 28.016V26.4841L23.6135 28.8898V35.0195ZM22.4656 27.6139L24.0001 26.0789L25.5347 27.6135L24.0001 28.2105L22.4656 27.6139ZM30.5729 32.6138L24.3868 35.0191V28.8898L30.5729 26.4841V28.016C29.8913 28.3152 29.413 28.9946 29.413 29.7852C29.413 30.5759 29.8913 31.2552 30.5729 31.5545V32.6138ZM31.7328 30.5585C31.7328 30.7719 31.5592 30.9451 31.3462 30.9451C30.7067 30.9451 30.1863 30.4247 30.1863 29.7852C30.1863 29.1457 30.7067 28.6253 31.3462 28.6253C31.5592 28.6253 31.7328 28.7985 31.7328 29.012V30.5585Z" fill="#113255"/>
</svg>
