<svg width="96" height="96" viewBox="0 0 96 96" fill="none" xmlns="http://www.w3.org/2000/svg">
<path d="M54.1638 3.22606L75.3015 11.9816C79.2481 13.6163 82.3837 16.7519 84.0184 20.6985L92.7739 41.8362C94.4087 45.7828 94.4087 50.2172 92.7739 54.1638L84.0184 75.3015C82.3837 79.2481 79.2481 82.3837 75.3015 84.0184L54.1638 92.7739C50.2172 94.4087 45.7828 94.4087 41.8362 92.7739L20.6985 84.0184C16.7519 82.3837 13.6163 79.2481 11.9816 75.3015L3.22606 54.1638C1.59131 50.2172 1.59131 45.7828 3.22606 41.8362L11.9816 20.6985C13.6163 16.7519 16.7519 13.6163 20.6985 11.9816L41.8362 3.22606C45.7828 1.59131 50.2172 1.59131 54.1638 3.22606Z" stroke="#FAA017" stroke-width="4"/>
<path fill-rule="evenodd" clip-rule="evenodd" d="M29.7953 24C27.1345 24 24.9966 26.1397 24.9966 28.8037C24.9966 30.913 26.3397 32.6897 28.2186 33.34C28.2217 33.3409 28.2237 33.3421 28.2267 33.343C28.3275 33.3776 28.4298 33.4088 28.5335 33.4369C28.5811 33.45 28.6287 33.4616 28.6769 33.4732C28.7585 33.4926 28.8409 33.5106 28.9242 33.5257C28.9994 33.5397 29.0758 33.5507 29.1523 33.561C29.2181 33.5698 29.2825 33.5802 29.3491 33.5863C29.4959 33.5999 29.6446 33.6085 29.7953 33.6085C29.9459 33.6085 30.0947 33.5999 30.2414 33.5863C30.308 33.5802 30.3735 33.5698 30.4393 33.561C30.5158 33.5507 30.5922 33.5397 30.6674 33.5257C30.7507 33.5105 30.832 33.4926 30.9137 33.4732C30.9619 33.4616 31.0105 33.45 31.058 33.4369C31.1623 33.4087 31.2646 33.3769 31.3659 33.342H31.3669C33.2494 32.6936 34.596 30.9154 34.596 28.8037C34.596 27.5291 34.0903 26.3072 33.1899 25.4061C32.2895 24.505 31.0683 24 29.7953 24ZM65.2606 24C62.766 24 60.7297 25.8809 60.4851 28.3111C60.4688 28.4732 60.4609 28.6372 60.4609 28.8037C60.4609 30.913 61.804 32.6897 63.6829 33.34C63.686 33.3409 63.688 33.3421 63.6909 33.343C63.7917 33.3776 63.894 33.4088 63.9978 33.4369C64.0454 33.45 64.094 33.4616 64.1421 33.4732C64.2238 33.4926 64.3052 33.5106 64.3884 33.5257C64.4637 33.5397 64.5401 33.5507 64.6166 33.561C64.6823 33.5698 64.7478 33.5802 64.8144 33.5863C64.9612 33.5999 65.1099 33.6085 65.2606 33.6085C65.4112 33.6085 65.5589 33.5999 65.7057 33.5863C65.7723 33.5802 65.8378 33.5698 65.9035 33.561C65.98 33.5507 66.0564 33.5397 66.1317 33.5257C66.2149 33.5105 66.2963 33.4926 66.378 33.4732C66.4261 33.4616 66.4747 33.45 66.5223 33.4369C66.6266 33.4087 66.7289 33.3769 66.8302 33.342H66.8312C68.7137 32.6936 70.0602 30.9154 70.0602 28.8037C70.0602 27.5291 69.5545 26.3072 68.6542 25.4061C67.7537 24.505 66.5336 24 65.2606 24ZM46.6573 26.9151C43.0286 26.9783 39.4435 27.979 36.2787 29.8444C36.2333 30.1274 36.1744 30.4053 36.0939 30.6752C36.6302 30.899 37.1247 31.2234 37.5434 31.6422C37.8669 31.9656 38.1356 32.3338 38.3449 32.7313C43.8438 29.6107 50.791 29.6154 56.4192 33.1966C56.5517 33.281 56.6793 33.3708 56.8088 33.4581C57.0891 32.244 57.8616 31.2152 58.9033 30.5914C58.7117 30.4604 58.5211 30.3282 58.324 30.2028C54.9436 28.0518 51.1543 26.9797 47.3831 26.9151C47.1409 26.9112 46.8992 26.9107 46.6573 26.9151ZM60.0944 32.8434C60.0927 32.8443 60.091 32.8455 60.0894 32.8464C60.0881 32.8468 60.0867 32.847 60.0854 32.8474C59.9755 32.8962 59.8709 32.9538 59.7694 33.016C59.7388 33.0347 59.7104 33.0556 59.6806 33.0755C59.6103 33.1225 59.5421 33.1728 59.4767 33.2259C59.4438 33.2526 59.4124 33.2795 59.3808 33.3077C59.3212 33.3608 59.2639 33.4161 59.2092 33.4742C59.1804 33.5048 59.1518 33.5352 59.1244 33.5671C59.0695 33.6312 59.0188 33.6989 58.97 33.768C58.9486 33.7981 58.9255 33.8258 58.9054 33.8568C58.8423 33.9541 58.7853 34.0562 58.7348 34.1616C58.7179 34.1968 58.7047 34.2337 58.6894 34.2696C58.657 34.3454 58.6261 34.4216 58.6005 34.5008C58.5849 34.549 58.5732 34.5988 58.5602 34.6482C58.5491 34.6903 58.5349 34.7305 58.5258 34.7733C58.5276 34.7747 58.5293 34.7766 58.5309 34.7784C58.4914 34.9647 58.4643 35.1549 58.4643 35.3537V38.0973L72.0568 38.0983V35.3537C72.0568 34.6256 71.7672 33.9285 71.2523 33.4137C71.0124 33.1737 70.7316 32.9849 70.4277 32.8494C69.2235 34.3878 67.3558 35.383 65.2595 35.383C64.7449 35.383 64.2443 35.3226 63.7636 35.2094C63.7619 35.2067 63.7607 35.2038 63.7586 35.2013C63.6242 35.1696 63.4938 35.1301 63.3629 35.0903C63.2997 35.071 63.2355 35.0539 63.1731 35.0327C63.0434 34.9889 62.9165 34.939 62.7905 34.8874C62.7224 34.8594 62.6546 34.8298 62.5877 34.7996C62.459 34.7416 62.3312 34.6828 62.2071 34.6169C62.165 34.5945 62.1246 34.5695 62.083 34.5462C61.8322 34.4059 61.5915 34.2488 61.3622 34.0778C61.323 34.0486 61.2827 34.0222 61.2441 33.9921C61.1299 33.9028 61.0202 33.8069 60.9121 33.7104C60.8638 33.6674 60.8157 33.6246 60.7687 33.5802C60.6677 33.4847 60.5689 33.3872 60.474 33.2855C60.4317 33.2401 60.3919 33.1927 60.3508 33.1462C60.2634 33.0471 60.176 32.9476 60.0944 32.8434ZM24.6251 32.8454C23.6641 33.2703 23 34.2274 23 35.3537V38.0973L36.5916 38.0983V35.3537C36.5916 34.9169 36.4859 34.4921 36.2918 34.1102C36.2913 34.1088 36.2897 34.1075 36.2888 34.1061C36.2285 33.9881 36.16 33.8756 36.0828 33.767C36.0704 33.7494 36.0573 33.7318 36.0445 33.7145C35.9659 33.6091 35.8822 33.5078 35.7881 33.4137C35.6684 33.294 35.5393 33.1866 35.4015 33.0927L35.4005 33.0917C35.3317 33.0449 35.261 33.0028 35.1885 32.9625L35.1875 32.9615C35.1147 32.921 35.0394 32.8833 34.9634 32.8494C34.8258 33.0253 34.6777 33.1921 34.5233 33.3531C34.4825 33.3955 34.4401 33.4359 34.3981 33.4773C34.2816 33.5925 34.1605 33.703 34.0358 33.8093C33.9833 33.8539 33.9312 33.8986 33.8773 33.9416C33.7406 34.051 33.5986 34.154 33.4533 34.2525C33.3855 34.2982 33.317 34.3435 33.2474 34.3867C33.1042 34.4763 32.9576 34.5606 32.8073 34.6391C32.7099 34.6897 32.6098 34.7356 32.5096 34.7814C32.4207 34.8223 32.331 34.8616 32.24 34.8985C32.121 34.9466 32.0011 34.9916 31.8787 35.0327C31.8123 35.0552 31.7441 35.074 31.6768 35.0943C31.5482 35.133 31.42 35.1735 31.2882 35.2043L31.2932 35.2084C30.8121 35.3218 30.3105 35.383 29.7953 35.383C27.6972 35.383 25.8289 34.3861 24.6251 32.8454ZM39.3937 39.1299C39.3174 39.1299 39.2418 39.145 39.1714 39.1743C39.1009 39.2035 39.0369 39.2463 38.983 39.3003C38.9291 39.3543 38.8864 39.4184 38.8572 39.4889C38.8281 39.5595 38.8132 39.635 38.8133 39.7113V49.1936C38.8133 49.3475 38.8745 49.4951 38.9833 49.6039C39.0922 49.7128 39.2398 49.7739 39.3937 49.774H46.5382L42.5743 56.6349H43.9158L46.9521 51.379V56.6349H48.1139V51.38L51.1461 56.6349H52.4876L48.5277 49.774H54.1037C54.6766 49.774 55.2268 49.5463 55.6319 49.1411C56.037 48.736 56.2648 48.1858 56.2648 47.6129V39.7113C56.2649 39.635 56.2499 39.5595 56.2208 39.4889C56.1917 39.4184 56.1489 39.3543 56.095 39.3003C56.0411 39.2463 55.9771 39.2035 55.9067 39.1743C55.8362 39.145 55.7607 39.1299 55.6844 39.1299H39.3937ZM62.5533 39.8718C65.0473 44.6434 65.2935 50.4653 62.7996 55.6295C60.7985 59.7736 57.3654 62.7939 53.3557 64.3518C53.2787 64.6482 53.1879 64.939 53.072 65.2178C53.5026 65.4328 53.9004 65.7141 54.247 66.0607C54.6457 66.4594 54.9584 66.9262 55.1817 67.4325C59.773 65.4994 63.6863 61.9525 65.9944 57.1729C68.7039 51.5619 68.7025 45.2774 66.4486 39.8728L62.5533 39.8718ZM39.9741 40.2917H55.104V47.6129C55.104 47.8783 54.9979 48.1318 54.8102 48.3195C54.6226 48.5071 54.369 48.6132 54.1037 48.6132H39.9741V40.2917ZM28.1298 43.8539L25.5063 62.551L30.7391 61.4376C31.532 62.3983 32.4116 63.292 33.3726 64.1055C34.9756 65.4625 36.8059 66.591 38.8173 67.4365C39.2433 66.4767 39.9951 65.6925 40.929 65.2209C40.8123 64.9404 40.7207 64.648 40.6433 64.3498C38.7877 63.6296 37.1172 62.6258 35.666 61.3973C35.3567 61.1354 35.0596 60.861 34.7706 60.5796L38.139 59.863L36.7955 57.714L28.1298 43.8539ZM30.2899 54.0024L32.4429 57.4475L29.7246 58.0249L30.2899 54.0024ZM46.9995 57.9017C44.3387 57.9017 42.1998 60.0414 42.1998 62.7054C42.1998 64.6647 43.3587 66.3376 45.0291 67.0872C45.0408 67.0925 45.0518 67.0982 45.0635 67.1034C45.1468 67.14 45.233 67.1724 45.3188 67.2043C45.3686 67.223 45.4177 67.2418 45.4682 67.2588C45.5461 67.2849 45.6248 67.3074 45.7044 67.3295C45.7692 67.3476 45.8344 67.3646 45.9003 67.38C45.972 67.3967 46.0443 67.4129 46.1173 67.4264C46.1419 67.431 46.1662 67.4373 46.191 67.4415C46.2483 67.4513 46.3066 67.4561 46.3646 67.4638C46.4266 67.4719 46.4885 67.4822 46.5513 67.488C46.5639 67.4893 46.5761 67.4916 46.5887 67.493H46.5897C46.7247 67.5044 46.8614 67.5102 46.9995 67.5102C47.1376 67.5102 47.2743 67.5044 47.4093 67.493C47.4219 67.4921 47.4341 67.4894 47.4467 67.488C47.5094 67.4822 47.5714 67.4719 47.6334 67.4638C47.6915 67.456 47.7497 67.4514 47.807 67.4415C47.8316 67.4376 47.8552 67.4309 47.8797 67.4264C47.9542 67.4127 48.0276 67.396 48.1007 67.379C48.1639 67.3641 48.2274 67.3488 48.2895 67.3315C48.3713 67.3089 48.4519 67.2846 48.5318 67.2578C48.5793 67.2418 48.6262 67.2238 48.6731 67.2064C48.7624 67.1733 48.8508 67.1405 48.9375 67.1024H48.9386C50.6261 66.3598 51.7992 64.677 51.7992 62.7054C51.7992 61.4308 51.2935 60.2089 50.3931 59.3078C49.4927 58.4067 48.2726 57.9017 46.9995 57.9017ZM41.8273 66.7481C41.6894 66.8092 41.5593 66.8842 41.4347 66.9661C41.4038 66.9865 41.3758 67.0091 41.3458 67.0307C41.2531 67.0973 41.1649 67.1694 41.0814 67.2467C41.053 67.2731 41.0258 67.2999 40.9986 67.3275C40.9127 67.4142 40.8331 67.5064 40.7594 67.6041C40.744 67.6246 40.7268 67.6437 40.7119 67.6646C40.3932 68.1125 40.2032 68.6584 40.2032 69.2554V72H53.7958V69.2554C53.7958 68.8335 53.696 68.423 53.5142 68.0512C53.4508 67.9218 53.3785 67.7973 53.2951 67.6788C53.2861 67.6657 53.2762 67.6533 53.2669 67.6404C53.1869 67.5308 53.0999 67.4262 53.0034 67.3285C52.9994 67.3245 52.9963 67.3193 52.9923 67.3154H52.9913C52.9368 67.2609 52.8802 67.2091 52.8217 67.1599C52.8158 67.1549 52.8105 67.1498 52.8046 67.1448C52.7399 67.0914 52.6736 67.0403 52.6047 66.9934H52.6037C52.4659 66.8994 52.3202 66.8187 52.1686 66.7511L52.1676 66.7521L52.1666 66.7511C52.0306 66.9249 51.8849 67.0895 51.7326 67.2488C51.6981 67.2847 51.6628 67.3206 51.6276 67.3557C51.4857 67.4976 51.3377 67.634 51.1835 67.7625C51.1671 67.7761 51.1515 67.7905 51.135 67.8039C50.9681 67.9403 50.7929 68.0667 50.6131 68.1865C50.5647 68.2187 50.5151 68.2494 50.4658 68.2804C50.321 68.3713 50.1726 68.456 50.0206 68.5357C49.9728 68.5608 49.9259 68.5876 49.8773 68.6114C49.6943 68.7017 49.506 68.7826 49.314 68.8557C49.2441 68.8822 49.1731 68.9052 49.1021 68.9294C48.441 69.1553 47.7348 69.2837 46.9985 69.2837C46.2606 69.2837 45.5541 69.1552 44.8919 68.9284C44.8232 68.905 44.7546 68.8814 44.687 68.8557C44.4951 68.7827 44.3056 68.7035 44.1227 68.6135C44.0697 68.5874 44.0195 68.5581 43.9673 68.5307C43.8182 68.4522 43.6722 68.3687 43.5302 68.2794C43.4802 68.248 43.4298 68.2161 43.3808 68.1835C43.2028 68.0648 43.0293 67.9399 42.864 67.8049C42.8414 67.7865 42.8207 67.7671 42.7984 67.7484C42.6497 67.6237 42.5075 67.4909 42.3704 67.3537C42.3343 67.3177 42.2976 67.2816 42.2624 67.2447C42.1102 67.0854 41.9642 66.9219 41.8283 66.7481H41.8273Z" fill="#FAA017"/>
</svg>
