<svg width="48" height="48" viewBox="0 0 48 48" fill="none" xmlns="http://www.w3.org/2000/svg">
<rect width="48" height="48" rx="24" fill="#E5E5E5"/>
<g clip-path="url(#clip0)">
<path d="M19.2 27.2004C19.4212 27.2004 19.5999 27.0212 19.5999 26.8004V23.8892C19.8379 23.7504 19.9999 23.4952 19.9999 23.2004C19.9999 22.7592 19.6412 22.4004 19.1999 22.4004C18.7587 22.4004 18.3999 22.7592 18.3999 23.2004C18.3999 23.4952 18.5619 23.7504 18.7999 23.8892V26.8004C18.8 27.0212 18.9788 27.2004 19.2 27.2004Z" fill="#113255"/>
<path d="M16.0153 18.3008C16.0917 19.0696 16.4261 19.7464 16.4421 19.7784C16.8049 20.5036 17.3529 21.5996 19.2001 21.5996C21.0473 21.5996 21.5953 20.5036 21.9581 19.7784C21.9741 19.7464 22.3085 19.0696 22.3849 18.3008C22.6321 18.1648 22.8001 17.9012 22.8001 17.5996V16.7996C22.8001 16.504 22.6393 16.2456 22.4001 16.1072V15.9996C22.4001 14.676 21.3237 13.5996 20.0001 13.5996H18.4001C17.0765 13.5996 16.0001 14.676 16.0001 15.9996V16.1072C15.7609 16.2456 15.6001 16.504 15.6001 16.7996V17.5996C15.6001 17.9012 15.7681 18.1648 16.0153 18.3008ZM16.4001 16.7996C16.6213 16.7996 16.8001 16.6204 16.8001 16.3996V15.9996C16.8001 15.1172 17.5177 14.3996 18.4001 14.3996H20.0001C20.8825 14.3996 21.6 15.1172 21.6 15.9996V16.3996C21.6 16.6204 21.7788 16.7996 22 16.7996V17.5996C21.7788 17.5996 21.6 17.7788 21.6 17.9996C21.6 18.6916 21.2457 19.414 21.2421 19.4208C20.8257 20.2536 20.4585 20.7996 19.2 20.7996C17.9416 20.7996 17.5744 20.2536 17.1585 19.4212C17.1545 19.4139 16.8001 18.6915 16.8001 17.9996C16.8001 17.7788 16.6213 17.5996 16.4001 17.5996V16.7996H16.4001Z" fill="#113255"/>
<path d="M20.0001 17.5988H20.4001C20.6213 17.5988 20.8 17.4196 20.8 17.1988C20.8 16.978 20.6213 16.7988 20.4001 16.7988H20.0001C19.7789 16.7988 19.6001 16.978 19.6001 17.1988C19.6001 17.4196 19.7789 17.5988 20.0001 17.5988Z" fill="#113255"/>
<path d="M18.0001 17.5988H18.4001C18.6213 17.5988 18.8001 17.4196 18.8001 17.1988C18.8001 16.978 18.6213 16.7988 18.4001 16.7988H18.0001C17.7789 16.7988 17.6001 16.978 17.6001 17.1988C17.6001 17.4196 17.7789 17.5988 18.0001 17.5988Z" fill="#113255"/>
<path d="M14.7999 27.1992C14.5787 27.1992 14.3999 27.3784 14.3999 27.5992V33.9992C14.3999 34.22 14.5787 34.3992 14.7999 34.3992C15.0211 34.3992 15.1999 34.22 15.1999 33.9992V27.5992C15.1999 27.3784 15.0211 27.1992 14.7999 27.1992Z" fill="#113255"/>
<path d="M33.2262 27.1992H33.2246C33.0046 27.1992 32.8254 27.3772 32.8246 27.5976L32.7998 33.9976C32.799 34.2184 32.977 34.3984 33.1982 34.3992H33.1998C33.4202 34.3992 33.599 34.2212 33.5998 34.0008L33.6246 27.6008C33.6254 27.38 33.4474 27.2 33.2262 27.1992Z" fill="#113255"/>
<path d="M29.5794 17.0724C29.5254 16.9088 29.3726 16.7988 29.2002 16.7988C29.0278 16.7988 28.8754 16.9088 28.821 17.0724C28.5202 17.9745 27.635 17.9985 27.6002 17.9988C27.379 17.9988 27.2002 18.178 27.2002 18.3988V19.9988C27.2002 21.3348 28.113 23.1988 29.6002 23.1988C31.0874 23.1988 32.0002 21.3348 32.0002 19.9988V18.3988C32.0002 18.178 31.8214 17.9988 31.6002 17.9988C31.583 17.9988 29.8802 17.9736 29.5794 17.0724ZM31.2002 19.9988C31.2002 21.0861 30.4866 22.3988 29.6002 22.3988C28.7139 22.3988 28.0003 21.0861 28.0003 19.9988V18.75C28.3919 18.6613 28.8755 18.438 29.2307 17.9836C29.7911 18.544 30.6847 18.7192 31.2003 18.774V19.9988H31.2002Z" fill="#113255"/>
<path d="M35.0193 24.4007C34.2353 23.6183 33.0577 23.2051 31.6121 23.2051C31.3881 23.2095 31.2013 23.3799 31.2001 23.6039C31.1997 23.6855 31.1721 25.6003 29.6001 25.6003C28.0281 25.6003 28.0005 23.6859 28.0002 23.6043C27.9997 23.3839 27.821 23.2055 27.6002 23.2055C27.379 23.2055 27.2002 23.3843 27.2002 23.6055C27.2002 24.4999 27.6322 26.1291 29.2002 26.3679V28.4003C29.2002 28.6211 29.379 28.8003 29.6002 28.8003C29.8214 28.8003 30.0002 28.6211 30.0002 28.4003V26.3675C31.3502 26.1614 31.8586 24.9262 31.9734 24.015C33.0342 24.0746 33.8866 24.4002 34.4542 24.967C34.9354 25.4474 35.2002 26.0982 35.2002 26.8002V33.2002C35.2002 33.421 35.379 33.6002 35.6002 33.6002C35.8214 33.6002 36.0002 33.421 36.0002 33.2002V26.8002C36.0001 25.8843 35.6518 25.0323 35.0193 24.4007Z" fill="#113255"/>
<path d="M23.6002 27.1992C23.379 27.1992 23.2002 27.3784 23.2002 27.5992V33.9992C23.2002 34.22 23.379 34.3992 23.6002 34.3992C23.8214 34.3992 24.0002 34.22 24.0002 33.9992V27.5992C24.0002 27.3784 23.8214 27.1992 23.6002 27.1992Z" fill="#113255"/>
<path d="M29.2001 15.2004H30.0001C31.0529 15.2004 32.3321 16.2812 32.4013 17.2312L32.8013 22.4312C32.8173 22.6408 32.9925 22.8004 33.1997 22.8004C33.2096 22.8004 33.2205 22.8 33.2309 22.7992C33.4509 22.7824 33.6157 22.59 33.5989 22.3696L33.1989 17.1712C33.0921 15.7052 31.3213 14.4004 30.0001 14.4004H29.2001C27.7441 14.4004 26.1301 15.7948 26.0013 17.1696L25.6013 22.3696C25.5845 22.59 25.7493 22.7823 25.9693 22.7992C26.1937 22.8136 26.3821 22.6512 26.3989 22.4312L26.7985 17.2375C26.8877 16.2856 28.1669 15.2004 29.2001 15.2004Z" fill="#113255"/>
<path d="M21.226 22.4044C21.028 22.4012 20.8484 22.5283 20.8084 22.7228L19.2 30.4399L17.5916 22.7227C17.5512 22.5283 17.3656 22.4047 17.1732 22.4043C15.072 22.4043 13.4644 22.8543 12.6448 23.6719C12.2172 24.0991 12 24.6132 12 25.1991V33.1992C12 33.4199 12.1788 33.5991 12.4 33.5991C12.6212 33.5991 12.8 33.4199 12.8 33.1992V25.1991C12.8 24.8279 12.9344 24.5135 13.21 24.2379C13.8332 23.6159 15.1588 23.2459 16.8752 23.2075L18.8076 32.4751C18.8076 32.4759 18.808 32.4767 18.808 32.4775L18.8084 32.4807C18.8112 32.4931 18.8196 32.5027 18.8232 32.5147C18.8348 32.5523 18.8472 32.5895 18.8692 32.6219C18.882 32.6415 18.9012 32.6551 18.9172 32.6719C18.9372 32.6919 18.954 32.7147 18.9776 32.7307C19.004 32.7483 19.0348 32.7567 19.0648 32.7675C19.0832 32.7743 19.0984 32.7867 19.1184 32.7907H19.1212C19.1464 32.7959 19.174 32.7911 19.2004 32.7911C19.2268 32.7911 19.2544 32.7959 19.28 32.7907H19.2816C19.2948 32.7879 19.3048 32.7795 19.3172 32.7755C19.3544 32.7639 19.3916 32.7515 19.4236 32.7299C19.4436 32.7163 19.4576 32.6967 19.4748 32.6799C19.494 32.6611 19.516 32.6447 19.5312 32.6219C19.5528 32.5903 19.5644 32.5535 19.576 32.5167C19.58 32.5043 19.5888 32.4939 19.5916 32.4807L19.592 32.4775C19.592 32.4767 19.5924 32.4759 19.5924 32.4751L21.5248 23.2075C23.2416 23.2459 24.5668 23.6163 25.19 24.2379C25.4656 24.5135 25.6 24.8279 25.6 25.1991V33.1992C25.6 33.4199 25.7788 33.5991 26 33.5991C26.2212 33.5991 26.4 33.4199 26.4 33.1992V25.1991C26.4 24.6132 26.1828 24.0991 25.7552 23.6719C24.9356 22.8539 23.328 22.4044 21.226 22.4044Z" fill="#113255"/>
</g>
<defs>
<clipPath id="clip0">
<rect width="24" height="24" fill="white" transform="translate(12 12)"/>
</clipPath>
</defs>
</svg>
