<svg width="96" height="96" viewBox="0 0 96 96" fill="none" xmlns="http://www.w3.org/2000/svg">
<path d="M54.1638 3.22606L75.3015 11.9816C79.2481 13.6163 82.3837 16.7519 84.0184 20.6985L92.7739 41.8362C94.4087 45.7828 94.4087 50.2172 92.7739 54.1638L84.0184 75.3015C82.3837 79.2481 79.2481 82.3837 75.3015 84.0184L54.1638 92.7739C50.2172 94.4087 45.7828 94.4087 41.8362 92.7739L20.6985 84.0184C16.7519 82.3837 13.6163 79.2481 11.9816 75.3015L3.22606 54.1638C1.59131 50.2172 1.59131 45.7828 3.22606 41.8362L11.9816 20.6985C13.6163 16.7519 16.7519 13.6163 20.6985 11.9816L41.8362 3.22606C45.7828 1.59131 50.2172 1.59131 54.1638 3.22606Z" stroke="#F6515B" stroke-width="4"/>
<path d="M58.6704 24.8008V31.2008C58.6704 31.6808 58.9904 32.0008 59.4704 32.0008H66.6704L58.6704 24.8008Z" fill="#F6515B"/>
<path d="M35.2305 52.6399L35.0705 52.2399L35.2305 52.1599V48.7199L33.8705 49.2799L33.2305 47.8399L35.2305 47.0399V43.5999L32.0305 44.7999L31.3905 43.3599L35.2305 41.7599V38.3199L30.1905 40.3999L29.5505 38.9599L35.2305 36.6399V33.1999L28.3505 36.0799L27.7105 34.6399L35.2305 31.5199V27.9199L24.9905 32.1599C24.1905 32.4799 23.7905 33.4399 24.1105 34.2399L35.2305 60.9599V52.6399Z" fill="#F6515B"/>
<path d="M36.5105 64L37.6305 66.72C37.9505 67.52 38.9105 67.92 39.7105 67.6L48.4305 64H36.5105Z" fill="#F6515B"/>
<path d="M49.6306 61.6C49.6306 60.16 49.8706 58.88 50.3506 57.6H40.0306V56H50.9906C51.6306 54.8 52.5106 53.68 53.4706 52.8H40.0306V51.2H55.6306C57.3906 50.16 59.3906 49.6 61.6306 49.6C63.6306 49.6 65.5506 50.08 67.2306 50.96V33.6H59.4706C58.1106 33.6 56.8306 32.56 56.8306 31.2V24H38.6706C37.7906 24 36.8306 24.72 36.8306 25.6V60.8C36.8306 61.68 37.7906 62.4 38.6706 62.4H49.6306C49.6306 62.16 49.6306 61.84 49.6306 61.6ZM40.0306 27.2H55.2306V28.8H40.0306V27.2ZM40.0306 32H55.2306V33.6H40.0306V32ZM40.0306 36.8H64.0306V38.4H40.0306V36.8ZM40.0306 41.6H64.0306V43.2H40.0306V41.6ZM40.0306 46.4H64.0306V48H40.0306V46.4Z" fill="#F6515B"/>
<path d="M61.6305 51.1992C55.8705 51.1992 51.2305 55.8392 51.2305 61.5992C51.2305 67.3592 55.8705 71.9992 61.6305 71.9992C67.3905 71.9992 72.0305 67.3592 72.0305 61.5992C72.0305 55.8392 67.3905 51.1992 61.6305 51.1992ZM59.9505 67.3592L54.2705 61.6792L55.3905 60.5592L59.9505 65.1192L67.8705 57.1992L68.9905 58.3192L59.9505 67.3592Z" fill="#F6515B"/>
</svg>
