<svg width="48" height="48" viewBox="0 0 48 48" fill="none" xmlns="http://www.w3.org/2000/svg">
<rect width="48" height="48" rx="24" fill="#FCEACF"/>
<path d="M18.3281 12C16.7645 12 15.5156 13.3128 15.5156 14.8594C15.5156 16.4102 16.7773 17.6719 18.3281 17.6719C19.8789 17.6719 21.1406 16.4102 21.1406 14.8594C21.1406 13.3116 19.8902 12 18.3281 12ZM18.3281 16.2656C17.5527 16.2656 16.9219 15.6348 16.9219 14.8594C16.9219 14.0717 17.5658 13.4062 18.3281 13.4062C19.0904 13.4062 19.7344 14.0717 19.7344 14.8594C19.7344 15.6348 19.1035 16.2656 18.3281 16.2656Z" fill="#113255"/>
<path d="M33.8906 12H23.9531C22.79 12 21.8438 12.9463 21.8438 14.1094V18.9077L21.2258 18.2898C20.8274 17.8913 20.2977 17.6719 19.7344 17.6719H18.3281C18.03 17.6719 15.8137 17.6719 15.5156 17.6719C13.5771 17.6719 12 19.249 12 21.1875C12 21.5873 12 24.8288 12 25.4062C12 26.5694 12.9463 27.5156 14.1094 27.5156C14.3558 27.5156 14.5925 27.4732 14.8125 27.3952V33.8906C14.8125 35.0537 15.7588 36 16.9219 36C17.4616 36 17.9547 35.7962 18.3281 35.4616C18.7016 35.7962 19.1946 36 19.7344 36C20.8975 36 21.8438 35.0537 21.8438 33.8906V24.5833C22.3814 24.7729 22.9769 24.7364 23.4903 24.4806L25.8577 23.2969H33.8906C35.0537 23.2969 36 22.3506 36 21.1875V14.1094C36 12.9463 35.0537 12 33.8906 12ZM25.6739 21.8165L22.8622 23.2223C22.5984 23.3538 22.2708 23.3119 22.0497 23.0908L21.6379 22.6789C21.2031 22.2441 20.4394 22.5398 20.4375 23.1739C20.4375 23.1746 20.4375 23.1753 20.4375 23.176V33.8906C20.4375 34.2783 20.122 34.5938 19.7343 34.5938C19.3466 34.5938 19.0312 34.2783 19.0312 33.8906V26.8125C19.0312 26.4242 18.7164 26.1094 18.3281 26.1094C17.9398 26.1094 17.625 26.4242 17.625 26.8125V33.8906C17.625 34.2783 17.3095 34.5938 16.9218 34.5938C16.5341 34.5938 16.2187 34.2783 16.2187 33.8906V25.4062C16.2187 24.8761 16.2187 21.6208 16.2187 21.1875C16.2187 20.7992 15.9039 20.4844 15.5156 20.4844C15.1273 20.4844 14.8125 20.7992 14.8125 21.1875C14.8125 21.5873 14.8125 24.8288 14.8125 25.4062C14.8125 25.794 14.497 26.1094 14.1093 26.1094C13.7216 26.1094 13.4062 25.794 13.4062 25.4062C13.4063 24.8761 13.4062 21.6208 13.4062 21.1875C13.4062 20.0244 14.3525 19.0781 15.5156 19.0781C16.0458 19.0781 19.3011 19.0781 19.7344 19.0781C19.9221 19.0781 20.0986 19.1513 20.2314 19.2842L22.3271 21.3798C22.541 21.5938 22.868 21.6468 23.1387 21.5115L25.045 20.5583C25.394 20.3837 25.8145 20.5249 25.9883 20.873C26.1622 21.2208 26.0217 21.6426 25.6739 21.8165ZM34.5938 21.1875C34.5938 21.5752 34.2783 21.8906 33.8906 21.8906H27.3478C27.352 21.8786 27.3567 21.8668 27.3608 21.8546C27.462 21.5509 27.4924 21.235 27.4537 20.9265L31.2988 19.0039C31.6462 18.8303 31.7869 18.4079 31.6132 18.0606C31.4396 17.7132 31.0172 17.5724 30.6699 17.7461L26.825 19.6686C26.2089 19.0727 25.2494 18.8836 24.4159 19.3007L23.25 19.8837V14.1094C23.25 13.7217 23.5654 13.4062 23.9531 13.4062H33.8906C34.2783 13.4062 34.5938 13.7217 34.5938 14.1094V21.1875Z" fill="#113255"/>
</svg>
