<svg width="48" height="48" viewBox="0 0 48 48" fill="none" xmlns="http://www.w3.org/2000/svg">
<rect width="48" height="48" rx="24" fill="#FFDCDE"/>
<g clip-path="url(#clip0)">
<path d="M20.7998 26.8C20.7998 27.0208 20.979 27.2 21.1998 27.2H22.7998C23.0206 27.2 23.1998 27.0208 23.1998 26.8V24.4C23.1998 24.1792 23.0206 24 22.7998 24H21.1998C20.9791 24 20.7999 24.1792 20.7999 24.4V26.8H20.7998ZM21.5998 24.8H22.3998V26.4H21.5998V24.8Z" fill="#113255"/>
<path d="M21.1998 22.3992H22.7998C23.0206 22.3992 23.1998 22.22 23.1998 21.9992V19.5992C23.1998 19.3784 23.0206 19.1992 22.7998 19.1992H21.1998C20.979 19.1992 20.7998 19.3784 20.7998 19.5992V21.9992C20.7998 22.22 20.979 22.3992 21.1998 22.3992ZM21.5998 19.9992H22.3998V21.5992H21.5998V19.9992Z" fill="#113255"/>
<path d="M18.2061 19.5428L24.0001 16.0664L29.7941 19.5428C29.8585 19.5816 29.9297 19.6 29.9997 19.6C30.1357 19.6 30.2681 19.5308 30.3429 19.406C30.4569 19.2164 30.3953 18.9708 30.2061 18.8572L24.4001 15.3736V12.8H26.4001V13.6H25.2001C24.9793 13.6 24.8001 13.7792 24.8001 14C24.8001 14.2208 24.9793 14.4 25.2001 14.4H26.8001C27.0209 14.4 27.2001 14.2208 27.2001 14V12.4C27.2001 12.1792 27.0209 12 26.8001 12H24.0001C23.7793 12 23.6001 12.1792 23.6001 12.4V15.3736L17.7941 18.8572C17.605 18.9708 17.5434 19.2164 17.6574 19.406C17.7705 19.5952 18.0169 19.6568 18.2061 19.5428Z" fill="#113255"/>
<path d="M16.3999 27.2C16.6207 27.2 16.7999 27.0208 16.7999 26.8V24.4C16.7999 24.1792 16.6207 24 16.3999 24H14.7999C14.5791 24 14.3999 24.1792 14.3999 24.4V25.2C14.3999 25.4207 14.5791 25.5999 14.7999 25.5999C15.0207 25.5999 15.1999 25.4207 15.1999 25.2V24.8H15.9999V26.8C15.9999 27.0208 16.1791 27.2 16.3999 27.2Z" fill="#113255"/>
<path d="M19.1999 32.4004V20.8004C19.1999 20.5796 19.0207 20.4004 18.7999 20.4004C18.5791 20.4004 18.3999 20.5796 18.3999 20.8004V32.4004C18.3999 32.6212 18.5791 32.8004 18.7999 32.8004C19.0207 32.8004 19.1999 32.6212 19.1999 32.4004Z" fill="#113255"/>
<path d="M17.1998 34.4007H30.7998C31.0206 34.4007 31.1998 34.2215 31.1998 34.0007C31.1998 33.7799 31.0206 33.6007 30.7998 33.6007H27.1998V29.6007H27.5998C27.8205 29.6007 27.9997 29.4215 27.9997 29.2008C27.9997 28.98 27.8205 28.8008 27.5998 28.8008H20.3998C20.179 28.8008 19.9998 28.98 19.9998 29.2008C19.9998 29.4215 20.179 29.6007 20.3998 29.6007H20.7998V33.6007H17.1998C16.979 33.6007 16.7998 33.7799 16.7998 34.0007C16.7998 34.2215 16.979 34.4007 17.1998 34.4007ZM24.3998 32.0007C24.6206 32.0007 24.7998 31.8215 24.7998 31.6007C24.7998 31.3799 24.6206 31.2007 24.3998 31.2007V29.6007H26.3998V33.6007H24.3998V32.0007ZM21.5998 29.6007H23.5998V31.2007C23.379 31.2007 23.1998 31.3799 23.1998 31.6007C23.1998 31.8215 23.379 32.0007 23.5998 32.0007V33.6007H21.5998V29.6007Z" fill="#113255"/>
<path d="M33.2002 29.1992H31.6002C31.3794 29.1992 31.2002 29.3784 31.2002 29.5992V31.9992C31.2002 32.22 31.3794 32.3992 31.6002 32.3992H33.2002C33.4209 32.3992 33.6001 32.22 33.6001 31.9992V29.5992C33.6001 29.3784 33.4209 29.1992 33.2002 29.1992ZM32.8001 31.5992H32.0001V29.9992H32.8001V31.5992Z" fill="#113255"/>
<path d="M33.2002 24.4004H31.6002C31.3794 24.4004 31.2002 24.5796 31.2002 24.8004V27.2004C31.2002 27.4212 31.3794 27.6004 31.6002 27.6004H33.2002C33.4209 27.6004 33.6001 27.4212 33.6001 27.2004V24.8004C33.6001 24.5796 33.4209 24.4004 33.2002 24.4004ZM32.8001 26.8004H32.0001V25.2004H32.8001V26.8004Z" fill="#113255"/>
<path d="M32.4002 35.1992H15.6002C15.3794 35.1992 15.2002 35.3784 15.2002 35.5992C15.2002 35.82 15.3794 35.9992 15.6002 35.9992H32.4002C32.621 35.9992 32.8002 35.82 32.8002 35.5992C32.8002 35.3785 32.621 35.1992 32.4002 35.1992Z" fill="#113255"/>
<path d="M35.5999 20.8008C35.3791 20.8008 35.1999 20.98 35.1999 21.2008V21.6007H30.7999C30.5791 21.6007 30.3999 21.78 30.3999 22.0007C30.3999 22.2215 30.5791 22.4007 30.7999 22.4007H35.1999V35.6007C35.1999 35.8215 35.3791 36.0007 35.5999 36.0007C35.8207 36.0007 35.9999 35.8215 35.9999 35.6007V21.2007C35.9999 20.98 35.8207 20.8008 35.5999 20.8008Z" fill="#113255"/>
<path d="M24.7998 26.8C24.7998 27.0208 24.979 27.2 25.1998 27.2H26.7998C27.0206 27.2 27.1998 27.0208 27.1998 26.8V24.4C27.1998 24.1792 27.0206 24 26.7998 24H25.1998C24.979 24 24.7998 24.1792 24.7998 24.4V26.8ZM25.5998 24.8H26.3998V26.4H25.5998V24.8Z" fill="#113255"/>
<path d="M16 31.6004C16 31.5484 15.9772 26.4004 14 26.4004C12.0228 26.4004 12 31.5484 12 31.6004C12 32.5664 12.6884 33.374 13.6 33.56V35.6004C13.6 35.8212 13.7792 36.0004 14 36.0004C14.2208 36.0004 14.4 35.8212 14.4 35.6004V33.56C15.3116 33.374 16 32.5664 16 31.6004ZM14 32.8004C13.3384 32.8004 12.8 32.262 12.8 31.6004C12.8 29.6076 13.3352 27.2004 14 27.2004C14.6648 27.2004 15.2 29.6076 15.2 31.6004C15.2 32.262 14.6616 32.8004 14 32.8004Z" fill="#113255"/>
<path d="M29.6003 32.4V20.4C29.6003 20.1792 29.4211 20 29.2003 20C28.9795 20 28.8003 20.1792 28.8003 20.4V32.4C28.8003 32.6208 28.9795 32.8 29.2003 32.8C29.4211 32.8 29.6003 32.6208 29.6003 32.4Z" fill="#113255"/>
<path d="M25.1998 22.3992H26.7998C27.0206 22.3992 27.1998 22.22 27.1998 21.9992V19.5992C27.1998 19.3784 27.0206 19.1992 26.7998 19.1992H25.1998C24.979 19.1992 24.7998 19.3784 24.7998 19.5992V21.9992C24.7998 22.22 24.979 22.3992 25.1998 22.3992ZM25.5998 19.9992H26.3998V21.5992H25.5998V19.9992Z" fill="#113255"/>
<path d="M12.4 26.0007C12.6208 26.0007 12.8 25.8215 12.8 25.6007V22.4007H17.2C17.4208 22.4007 17.6 22.2215 17.6 22.0007C17.6 21.78 17.4208 21.6007 17.2 21.6007H12.8V21.2008C12.8 20.98 12.6208 20.8008 12.4 20.8008C12.1793 20.8008 12 20.9799 12 21.2007V25.6007C12 25.8215 12.1792 26.0007 12.4 26.0007Z" fill="#113255"/>
</g>
<defs>
<clipPath id="clip0">
<rect width="24" height="24" fill="white" transform="translate(12 12)"/>
</clipPath>
</defs>
</svg>
