<svg width="49" height="48" viewBox="0 0 49 48" fill="none" xmlns="http://www.w3.org/2000/svg">
<path d="M38 23.2892C40.3166 23.4701 42.4925 24.4723 44.1356 26.1154C45.7787 27.7585 46.7809 29.9344 46.9618 32.251H38V23.2892ZM36.5 32.251V23.2892C34.1834 23.4701 32.0075 24.4723 30.3644 26.1154C28.7213 27.7585 27.7191 29.9344 27.5382 32.251H36.5ZM27.5 33.751V37.501C27.5 40.0869 28.5272 42.5668 30.3557 44.3953C32.1842 46.2238 34.6641 47.251 37.25 47.251C39.8359 47.251 42.3158 46.2238 44.1443 44.3953C45.9728 42.5668 47 40.0869 47 37.501V33.751H27.5ZM36.1093 21.8087C36.4883 21.7702 36.869 21.7509 37.25 21.751C37.625 21.751 37.994 21.7712 38.3585 21.8072C38.2761 19.649 37.3502 17.6093 35.7797 16.1267C34.2093 14.644 32.1197 13.8367 29.9603 13.8785C27.801 13.9203 25.7442 14.8077 24.2322 16.35C22.7203 17.8922 21.8739 19.9662 21.875 22.126V42.751C21.875 43.3477 21.6379 43.92 21.216 44.342C20.794 44.7639 20.2217 45.001 19.625 45.001C19.0283 45.001 18.456 44.7639 18.034 44.342C17.6121 43.92 17.375 43.3477 17.375 42.751V30.751C17.375 30.4526 17.2565 30.1665 17.0455 29.9555C16.8345 29.7445 16.5484 29.626 16.25 29.626C15.9516 29.626 15.6655 29.7445 15.4545 29.9555C15.2435 30.1665 15.125 30.4526 15.125 30.751V42.751C15.125 43.9445 15.5991 45.0891 16.443 45.933C17.2869 46.7769 18.4315 47.251 19.625 47.251C20.8185 47.251 21.9631 46.7769 22.807 45.933C23.6509 45.0891 24.125 43.9445 24.125 42.751V22.126C24.1243 20.5627 24.7341 19.0609 25.8245 17.9407C26.915 16.8205 28.3998 16.1704 29.9626 16.129C31.5253 16.0877 33.0425 16.6582 34.1907 17.7192C35.3388 18.7802 36.0273 20.2476 36.1093 21.8087V21.8087Z" fill="#F6515B"/>
<path d="M37.25 0.75H4.25C3.65326 0.75 3.08097 0.987053 2.65901 1.40901C2.23705 1.83097 2 2.40326 2 3V31.5C2 32.0967 2.23705 32.669 2.65901 33.091C3.08097 33.5129 3.65326 33.75 4.25 33.75H37.25C37.8467 33.75 38.419 33.5129 38.841 33.091C39.2629 32.669 39.5 32.0967 39.5 31.5V3C39.5 2.40326 39.2629 1.83097 38.841 1.40901C38.419 0.987053 37.8467 0.75 37.25 0.75V0.75ZM4.25 2.25H37.25C37.4489 2.25 37.6397 2.32902 37.7803 2.46967C37.921 2.61032 38 2.80109 38 3V5.25H3.5V3C3.5 2.80109 3.57902 2.61032 3.71967 2.46967C3.86032 2.32902 4.05109 2.25 4.25 2.25ZM37.25 32.25H4.25C4.05109 32.25 3.86032 32.171 3.71967 32.0303C3.57902 31.8897 3.5 31.6989 3.5 31.5V6.75H38V31.5C38 31.6989 37.921 31.8897 37.7803 32.0303C37.6397 32.171 37.4489 32.25 37.25 32.25ZM30.5375 15.1072L22.142 11.7487C21.2486 11.3903 20.2514 11.3903 19.358 11.7487L10.9618 15.108C10.6836 15.2194 10.4452 15.4116 10.2773 15.6598C10.1094 15.908 10.0197 16.2007 10.0197 16.5004C10.0197 16.8 10.1094 17.0928 10.2773 17.3409C10.4452 17.5891 10.6836 17.7813 10.9618 17.8928L13.25 18.8077V25.5C13.25 25.6234 13.2804 25.745 13.3387 25.8538C13.3969 25.9627 13.4811 26.0555 13.5837 26.124C15.7043 27.543 18.1984 28.3005 20.75 28.3005C23.3016 28.3005 25.7957 27.543 27.9163 26.124C28.0189 26.0555 28.1031 25.9627 28.1613 25.8538C28.2196 25.745 28.25 25.6234 28.25 25.5V18.8077L30.5382 17.892C30.8164 17.7805 31.0547 17.5882 31.2225 17.34C31.3904 17.0918 31.48 16.799 31.4799 16.4994C31.4799 16.1997 31.39 15.907 31.2221 15.6589C31.0541 15.4108 30.8157 15.2186 30.5375 15.1072ZM26.75 25.0905C24.9482 26.2079 22.8702 26.8 20.75 26.8C18.6298 26.8 16.5518 26.2079 14.75 25.0905V19.4078L19.358 21.2512C20.2514 21.6094 21.2486 21.6094 22.142 21.2512L22.25 21.2085V24C22.25 24.1989 22.329 24.3897 22.4697 24.5303C22.6103 24.671 22.8011 24.75 23 24.75C23.1989 24.75 23.3897 24.671 23.5303 24.5303C23.671 24.3897 23.75 24.1989 23.75 24V20.6077L26.75 19.4078V25.0905ZM23.3038 19.1708L21.386 16.1025C21.2806 15.9334 21.1123 15.8132 20.9182 15.7681C20.7241 15.7231 20.5201 15.7571 20.351 15.8625C20.1819 15.9679 20.0617 16.1362 20.0166 16.3303C19.9716 16.5244 20.0056 16.7284 20.111 16.8975L21.8855 19.737L21.5855 19.8585C21.0493 20.0738 20.4507 20.0738 19.9145 19.8585L14.2895 17.6085L11.519 16.5L19.9145 13.1415C20.4507 12.9262 21.0493 12.9262 21.5855 13.1415L29.981 16.5L23.3038 19.1708Z" fill="#113255"/>
</svg>
