<svg width="48" height="48" viewBox="0 0 48 48" fill="none" xmlns="http://www.w3.org/2000/svg">
<path d="M47.0295 23.094L38.0295 14.094C37.8889 13.9538 37.6985 13.875 37.5 13.875H21C20.4033 13.875 19.831 14.1121 19.409 14.534C18.9871 14.956 18.75 15.5283 18.75 16.125V44.625C18.75 45.2217 18.9871 45.794 19.409 46.216C19.831 46.6379 20.4033 46.875 21 46.875H45C45.5967 46.875 46.169 46.6379 46.591 46.216C47.0129 45.794 47.25 45.2217 47.25 44.625V23.625C47.25 23.5263 47.2305 23.4286 47.1927 23.3375C47.1548 23.2464 47.0994 23.1637 47.0295 23.094ZM39.75 40.125H26.25C26.0511 40.125 25.8603 40.046 25.7197 39.9053C25.579 39.7647 25.5 39.5739 25.5 39.375C25.5 39.1761 25.579 38.9853 25.7197 38.8447C25.8603 38.704 26.0511 38.625 26.25 38.625H39.75C39.9489 38.625 40.1397 38.704 40.2803 38.8447C40.421 38.9853 40.5 39.1761 40.5 39.375C40.5 39.5739 40.421 39.7647 40.2803 39.9053C40.1397 40.046 39.9489 40.125 39.75 40.125ZM39.75 35.625H26.25C26.0511 35.625 25.8603 35.546 25.7197 35.4053C25.579 35.2647 25.5 35.0739 25.5 34.875C25.5 34.6761 25.579 34.4853 25.7197 34.3447C25.8603 34.204 26.0511 34.125 26.25 34.125H39.75C39.9489 34.125 40.1397 34.204 40.2803 34.3447C40.421 34.4853 40.5 34.6761 40.5 34.875C40.5 35.0739 40.421 35.2647 40.2803 35.4053C40.1397 35.546 39.9489 35.625 39.75 35.625ZM39.75 31.125H26.25C26.0511 31.125 25.8603 31.046 25.7197 30.9053C25.579 30.7647 25.5 30.5739 25.5 30.375C25.5 30.1761 25.579 29.9853 25.7197 29.8447C25.8603 29.704 26.0511 29.625 26.25 29.625H39.75C39.9489 29.625 40.1397 29.704 40.2803 29.8447C40.421 29.9853 40.5 30.1761 40.5 30.375C40.5 30.5739 40.421 30.7647 40.2803 30.9053C40.1397 31.046 39.9489 31.125 39.75 31.125ZM39 22.875C38.8011 22.875 38.6103 22.796 38.4697 22.6553C38.329 22.5147 38.25 22.3239 38.25 22.125V16.4355L44.6895 22.875H39Z" fill="#F6515B"/>
<path d="M36.459 23.625H25.0808C24.6092 23.6258 24.1498 23.7747 23.7675 24.0507C23.3851 24.3267 23.0992 24.7159 22.95 25.1632L20.25 33.27C20.2264 31.3127 19.6146 29.4078 18.4942 27.8028C17.3738 26.1977 15.7964 24.9668 13.9672 24.27C15.4568 23.4949 16.6432 22.2424 17.3363 20.713C18.0295 19.1836 18.1894 17.4659 17.7905 15.8348C17.3915 14.2038 16.4567 12.7538 15.1358 11.717C13.815 10.6803 12.1844 10.1168 10.5052 10.1168C8.82611 10.1168 7.19554 10.6803 5.87466 11.717C4.55378 12.7538 3.61901 14.2038 3.22004 15.8348C2.82106 17.4659 2.98097 19.1836 3.67416 20.713C4.36735 22.2424 5.5537 23.4949 7.04325 24.27C5.19562 24.9718 3.60464 26.2181 2.48087 27.8439C1.3571 29.4698 0.753515 31.3986 0.75 33.375V37.875C0.75 38.0739 0.829018 38.2647 0.96967 38.4053C1.11032 38.546 1.30109 38.625 1.5 38.625H33C33.1573 38.6249 33.3107 38.5753 33.4383 38.4832C33.5659 38.3911 33.6613 38.2613 33.711 38.112L37.8825 25.5997C37.9578 25.3742 37.9783 25.134 37.9425 24.899C37.9066 24.6639 37.8155 24.4407 37.6764 24.2479C37.5374 24.055 37.3545 23.8979 37.1428 23.7896C36.9312 23.6813 36.6968 23.6249 36.459 23.625ZM10.5 11.625C11.382 11.6252 12.2531 11.8203 13.051 12.1963C13.8489 12.5723 14.5538 13.1199 15.1155 13.8C11.9109 15.6957 8.27726 16.746 4.5555 16.8525C4.7441 15.4085 5.45096 14.0823 6.5445 13.1206C7.63805 12.159 9.04377 11.6275 10.5 11.625V11.625ZM4.54875 18.3525C8.55719 18.246 12.4715 17.114 15.918 15.0645C16.2896 15.8493 16.4862 16.7055 16.4942 17.5738C16.5023 18.4422 16.3216 19.3019 15.9647 20.0935C15.6078 20.8851 15.0832 21.5897 14.4272 22.1586C13.7712 22.7275 12.9994 23.1471 12.1652 23.3883C11.331 23.6296 10.4544 23.6867 9.59598 23.5558C8.73756 23.4249 7.91782 23.1091 7.19348 22.6301C6.46914 22.1512 5.85749 21.5207 5.40085 20.7821C4.9442 20.0435 4.65347 19.2145 4.54875 18.3525V18.3525ZM18.75 37.125H2.25V33.375C2.25 31.187 3.11919 29.0885 4.66637 27.5414C6.21354 25.9942 8.31196 25.125 10.5 25.125C12.688 25.125 14.7865 25.9942 16.3336 27.5414C17.8808 29.0885 18.75 31.187 18.75 33.375V37.125ZM32.4592 37.125H20.541L24.366 25.638C24.4158 25.4886 24.5113 25.3586 24.639 25.2666C24.7668 25.1745 24.9203 25.125 25.0778 25.125H36.4597L32.4592 37.125ZM36 1.125H25.5C24.9033 1.125 24.331 1.36205 23.909 1.78401C23.4871 2.20597 23.25 2.77826 23.25 3.375V15.15L20.376 19.461C20.3012 19.5739 20.2585 19.705 20.2522 19.8403C20.2459 19.9755 20.2764 20.11 20.3404 20.2294C20.4044 20.3487 20.4995 20.4485 20.6156 20.5182C20.7317 20.5878 20.8646 20.6248 21 20.625H36C36.5967 20.625 37.169 20.3879 37.591 19.966C38.0129 19.544 38.25 18.9717 38.25 18.375V3.375C38.25 2.77826 38.0129 2.20597 37.591 1.78401C37.169 1.36205 36.5967 1.125 36 1.125V1.125ZM36.75 18.375C36.75 18.5739 36.671 18.7647 36.5303 18.9053C36.3897 19.046 36.1989 19.125 36 19.125H22.401L24.624 15.7913C24.7059 15.6679 24.7498 15.5231 24.75 15.375V3.375C24.75 3.17609 24.829 2.98532 24.9697 2.84467C25.1103 2.70402 25.3011 2.625 25.5 2.625H36C36.1989 2.625 36.3897 2.70402 36.5303 2.84467C36.671 2.98532 36.75 3.17609 36.75 3.375V18.375ZM33.75 6.375C33.75 6.57391 33.671 6.76468 33.5303 6.90533C33.3897 7.04598 33.1989 7.125 33 7.125H28.5C28.3011 7.125 28.1103 7.04598 27.9697 6.90533C27.829 6.76468 27.75 6.57391 27.75 6.375C27.75 6.17609 27.829 5.98532 27.9697 5.84467C28.1103 5.70402 28.3011 5.625 28.5 5.625H33C33.1989 5.625 33.3897 5.70402 33.5303 5.84467C33.671 5.98532 33.75 6.17609 33.75 6.375ZM33.75 10.875C33.75 11.0739 33.671 11.2647 33.5303 11.4053C33.3897 11.546 33.1989 11.625 33 11.625H28.5C28.3011 11.625 28.1103 11.546 27.9697 11.4053C27.829 11.2647 27.75 11.0739 27.75 10.875C27.75 10.6761 27.829 10.4853 27.9697 10.3447C28.1103 10.204 28.3011 10.125 28.5 10.125H33C33.1989 10.125 33.3897 10.204 33.5303 10.3447C33.671 10.4853 33.75 10.6761 33.75 10.875ZM33.75 15.375C33.75 15.5739 33.671 15.7647 33.5303 15.9053C33.3897 16.046 33.1989 16.125 33 16.125H28.5C28.3011 16.125 28.1103 16.046 27.9697 15.9053C27.829 15.7647 27.75 15.5739 27.75 15.375C27.75 15.1761 27.829 14.9853 27.9697 14.8447C28.1103 14.704 28.3011 14.625 28.5 14.625H33C33.1989 14.625 33.3897 14.704 33.5303 14.8447C33.671 14.9853 33.75 15.1761 33.75 15.375Z" fill="#113255"/>
</svg>
