<svg width="20" height="21" viewBox="0 0 20 21" fill="none" xmlns="http://www.w3.org/2000/svg">
<path fill-rule="evenodd" clip-rule="evenodd" d="M3.33325 4.63737C2.87682 4.63737 2.49992 5.01427 2.49992 5.4707V15.4707C2.49992 15.9271 2.87682 16.304 3.33325 16.304H16.6666C17.123 16.304 17.4999 15.9271 17.4999 15.4707V5.4707C17.4999 5.01427 17.123 4.63737 16.6666 4.63737H3.33325ZM0.833252 5.4707C0.833252 4.0938 1.95635 2.9707 3.33325 2.9707H16.6666C18.0435 2.9707 19.1666 4.0938 19.1666 5.4707V15.4707C19.1666 16.8476 18.0435 17.9707 16.6666 17.9707H3.33325C1.95635 17.9707 0.833252 16.8476 0.833252 15.4707V5.4707Z" fill="#DBF5F8"/>
<path fill-rule="evenodd" clip-rule="evenodd" d="M0.983964 4.99224C1.24789 4.6152 1.7675 4.5235 2.14454 4.78743L9.99999 10.2862L17.8554 4.78743C18.2325 4.5235 18.7521 4.6152 19.016 4.99224C19.2799 5.36928 19.1883 5.88889 18.8112 6.15282L10.4779 11.9861C10.1909 12.187 9.80904 12.187 9.52211 11.9861L1.18877 6.15282C0.81173 5.88889 0.720035 5.36928 0.983964 4.99224Z" fill="#DBF5F8"/>
</svg>
