<svg width="147" height="36" viewBox="0 0 147 36" fill="none" xmlns="http://www.w3.org/2000/svg">
<path d="M31.4593 13.1389H41.1659C42.0875 13.1389 42.8288 13.8817 42.8288 14.8051V23.6682C42.8288 27.0508 40.0941 29.7809 36.7283 29.7809H36.6983C33.3225 29.7809 30.5978 27.0407 30.5978 23.6682V14.0122C30.5878 13.5304 30.9785 13.1389 31.4593 13.1389V13.1389Z" fill="#5059C9"/>
<path d="M38.0207 11.3925C40.1949 11.3925 41.9575 9.62635 41.9575 7.44775C41.9575 5.26916 40.1949 3.50305 38.0207 3.50305C35.8465 3.50305 34.084 5.26916 34.084 7.44775C34.084 9.62635 35.8465 11.3925 38.0207 11.3925Z" fill="#5059C9"/>
<path d="M25.7796 11.3824C28.9164 11.3824 31.4593 8.83438 31.4593 5.69121C31.4593 2.54804 28.9164 0 25.7796 0C22.6428 0 20.0999 2.54804 20.0999 5.69121C20.0999 8.83438 22.6428 11.3824 25.7796 11.3824Z" fill="#7B83EB"/>
<path d="M33.3626 13.1389H17.3351C16.4336 13.159 15.7123 13.9118 15.7324 14.8252V24.9329C15.6021 30.3832 19.9095 34.9101 25.3488 35.0406C30.7882 34.9101 35.0955 30.3832 34.9653 24.9329V14.8252C34.9854 13.9118 34.2641 13.159 33.3626 13.1389V13.1389Z" fill="#7B83EB"/>
<path d="M3.10656 3.4707H25.8836C27.1363 3.4707 28.1613 4.49774 28.1613 5.75301V28.5761C28.1613 29.8314 27.1363 30.8584 25.8836 30.8584H3.10656C1.85382 30.8584 0.828857 29.8314 0.828857 28.5761V5.75301C0.828857 4.49774 1.83959 3.4707 3.10656 3.4707V3.4707Z" fill="url(#paint0_linear)"/>
<path d="M20.4744 12.1579H15.919V24.5822H13.0291V12.1579H8.5022V9.74719H20.4886V12.1579H20.4744Z" fill="white"/>
<path d="M63.6309 14.3952L60.3264 3.85753H60.2496C60.2624 4.10842 60.2816 4.48477 60.3072 4.98656C60.3328 5.48835 60.3584 6.02778 60.384 6.60484C60.4097 7.1819 60.4225 7.69624 60.4225 8.14785V14.3952H57.8289V0.959677H61.7865L65.0333 11.2339H65.091L68.5299 0.959677H72.4876V14.3952H69.7787V8.03495C69.7787 7.60842 69.7851 7.11918 69.7979 6.5672C69.8235 6.01523 69.8427 5.49462 69.8556 5.00538C69.8812 4.50358 69.9004 4.12724 69.9132 3.87634H69.8363L66.3013 14.3952H63.6309Z" fill="#5059C9"/>
<path d="M77.163 0.0940859C77.5857 0.0940859 77.9507 0.194445 78.2581 0.395162C78.5655 0.583334 78.7192 0.94086 78.7192 1.46774C78.7192 1.98208 78.5655 2.33961 78.2581 2.54032C77.9507 2.74104 77.5857 2.8414 77.163 2.8414C76.7275 2.8414 76.3561 2.74104 76.0487 2.54032C75.7541 2.33961 75.6068 1.98208 75.6068 1.46774C75.6068 0.94086 75.7541 0.583334 76.0487 0.395162C76.3561 0.194445 76.7275 0.0940859 77.163 0.0940859ZM78.5847 4.12097V14.3952H75.7221V4.12097H78.5847Z" fill="#5059C9"/>
<path d="M85.8408 14.5833C84.2782 14.5833 83.0679 14.1631 82.2098 13.3226C81.3644 12.4821 80.9418 11.1461 80.9418 9.31452C80.9418 8.06004 81.1595 7.03763 81.595 6.24731C82.0304 5.45699 82.6324 4.87366 83.4009 4.49731C84.1822 4.12097 85.0787 3.9328 86.0906 3.9328C86.8078 3.9328 87.429 4.00179 87.9541 4.13979C88.4921 4.27778 88.9596 4.44086 89.3566 4.62903L88.5113 6.79301C88.063 6.61738 87.6403 6.47312 87.2433 6.36022C86.859 6.24731 86.4748 6.19086 86.0906 6.19086C84.6048 6.19086 83.862 7.22581 83.862 9.2957C83.862 10.3244 84.0541 11.0833 84.4383 11.5726C84.8354 12.0618 85.3861 12.3065 86.0906 12.3065C86.6925 12.3065 87.2241 12.2312 87.6852 12.0806C88.1462 11.9176 88.5945 11.698 89.03 11.422V13.8118C88.5945 14.0878 88.1334 14.2823 87.6467 14.3952C87.1728 14.5206 86.5709 14.5833 85.8408 14.5833Z" fill="#5059C9"/>
<path d="M97.3041 3.9328C97.4449 3.9328 97.6114 3.93907 97.8036 3.95161C97.9957 3.96416 98.1494 3.98298 98.2647 4.00806L98.0533 6.64247C97.9509 6.61738 97.8164 6.59857 97.6499 6.58602C97.4834 6.56093 97.3361 6.54839 97.208 6.54839C96.7213 6.54839 96.2538 6.6362 95.8055 6.81183C95.3572 6.97491 94.9922 7.24462 94.7104 7.62097C94.4415 7.99731 94.307 8.51165 94.307 9.16398V14.3952H91.4444V4.12097H93.6154L94.038 5.85215H94.1725C94.4799 5.32527 94.9026 4.87366 95.4405 4.49731C95.9784 4.12097 96.5996 3.9328 97.3041 3.9328Z" fill="#5059C9"/>
<path d="M109.322 9.23925C109.322 10.9453 108.861 12.2625 107.939 13.1909C107.03 14.1192 105.787 14.5833 104.212 14.5833C103.239 14.5833 102.368 14.3763 101.599 13.9624C100.844 13.5484 100.248 12.9462 99.8126 12.1559C99.3771 11.353 99.1594 10.3808 99.1594 9.23925C99.1594 7.53315 99.614 6.22222 100.523 5.30645C101.433 4.39068 102.682 3.9328 104.27 3.9328C105.256 3.9328 106.127 4.13978 106.883 4.55376C107.638 4.96774 108.234 5.56989 108.669 6.36022C109.105 7.15054 109.322 8.11022 109.322 9.23925ZM102.08 9.23925C102.08 10.2554 102.246 11.0269 102.579 11.5538C102.925 12.0681 103.482 12.3253 104.251 12.3253C105.006 12.3253 105.551 12.0681 105.884 11.5538C106.229 11.0269 106.402 10.2554 106.402 9.23925C106.402 8.22312 106.229 7.46416 105.884 6.96237C105.551 6.44803 105 6.19086 104.231 6.19086C103.476 6.19086 102.925 6.44803 102.579 6.96237C102.246 7.46416 102.08 8.22312 102.08 9.23925Z" fill="#5059C9"/>
<path d="M119.008 11.3468C119.008 12.388 118.63 13.1909 117.875 13.7554C117.132 14.3073 116.017 14.5833 114.532 14.5833C113.802 14.5833 113.174 14.5332 112.649 14.4328C112.124 14.345 111.599 14.1944 111.073 13.9812V11.6667C111.637 11.9176 112.245 12.1246 112.899 12.2876C113.552 12.4507 114.128 12.5323 114.628 12.5323C115.178 12.5323 115.575 12.4507 115.819 12.2876C116.062 12.1246 116.184 11.9113 116.184 11.6478C116.184 11.4722 116.133 11.3154 116.03 11.1774C115.941 11.0394 115.736 10.8826 115.415 10.707C115.095 10.5314 114.596 10.3056 113.917 10.0296C113.251 9.75358 112.707 9.48387 112.284 9.22043C111.874 8.94444 111.567 8.61828 111.362 8.24194C111.157 7.85305 111.054 7.37007 111.054 6.79301C111.054 5.83961 111.432 5.12455 112.188 4.64785C112.943 4.17115 113.949 3.9328 115.204 3.9328C115.857 3.9328 116.478 3.99552 117.068 4.12097C117.657 4.24642 118.265 4.45341 118.893 4.74194L118.028 6.75538C117.516 6.54212 117.029 6.36649 116.568 6.22849C116.107 6.07796 115.64 6.00269 115.166 6.00269C114.32 6.00269 113.898 6.22849 113.898 6.68011C113.898 6.84319 113.949 6.99373 114.051 7.13172C114.167 7.25717 114.378 7.39516 114.685 7.5457C115.006 7.69624 115.473 7.89695 116.088 8.14785C116.69 8.3862 117.209 8.6371 117.644 8.90054C118.079 9.15143 118.412 9.47133 118.643 9.86022C118.886 10.2491 119.008 10.7446 119.008 11.3468Z" fill="#5059C9"/>
<path d="M130.767 9.23925C130.767 10.9453 130.306 12.2625 129.384 13.1909C128.474 14.1192 127.232 14.5833 125.657 14.5833C124.683 14.5833 123.812 14.3763 123.044 13.9624C122.288 13.5484 121.693 12.9462 121.257 12.1559C120.822 11.353 120.604 10.3808 120.604 9.23925C120.604 7.53315 121.059 6.22222 121.968 5.30645C122.877 4.39068 124.126 3.9328 125.714 3.9328C126.701 3.9328 127.572 4.13978 128.327 4.55376C129.083 4.96774 129.678 5.56989 130.114 6.36022C130.549 7.15054 130.767 8.11022 130.767 9.23925ZM123.524 9.23925C123.524 10.2554 123.691 11.0269 124.024 11.5538C124.37 12.0681 124.927 12.3253 125.695 12.3253C126.451 12.3253 126.995 12.0681 127.328 11.5538C127.674 11.0269 127.847 10.2554 127.847 9.23925C127.847 8.22312 127.674 7.46416 127.328 6.96237C126.995 6.44803 126.444 6.19086 125.676 6.19086C124.92 6.19086 124.37 6.44803 124.024 6.96237C123.691 7.46416 123.524 8.22312 123.524 9.23925Z" fill="#5059C9"/>
<path d="M138.935 6.22849H136.457V14.3952H133.594V6.22849H132.019V4.87366L133.594 4.12097V3.36828C133.594 2.49014 133.741 1.81272 134.036 1.33602C134.343 0.846774 134.772 0.501792 135.323 0.301076C135.887 0.100359 136.546 0 137.302 0C137.853 0 138.359 0.043907 138.82 0.131721C139.281 0.219534 139.652 0.319892 139.934 0.432796L139.204 2.48387C138.986 2.42115 138.743 2.3647 138.474 2.31452C138.218 2.25179 137.929 2.22043 137.609 2.22043C137.212 2.22043 136.918 2.33961 136.726 2.57796C136.546 2.81631 136.457 3.11738 136.457 3.48118V4.12097H138.935V6.22849Z" fill="#5059C9"/>
<path d="M144.981 12.3441C145.301 12.3441 145.609 12.319 145.903 12.2688C146.198 12.2061 146.493 12.1246 146.787 12.0242V14.1129C146.48 14.2509 146.096 14.3638 145.634 14.4516C145.186 14.5394 144.693 14.5833 144.155 14.5833C143.528 14.5833 142.964 14.483 142.464 14.2823C141.978 14.0815 141.587 13.7366 141.293 13.2473C141.011 12.7581 140.87 12.0681 140.87 11.1774V6.22849H139.506V5.04301L141.081 4.10215L141.907 1.93817H143.732V4.12097H146.672V6.22849H143.732V11.1774C143.732 11.5663 143.848 11.8611 144.078 12.0618C144.309 12.25 144.61 12.3441 144.981 12.3441Z" fill="#5059C9"/>
<path d="M64.5918 34.7987H61.6318V22.9547H57.8289V20.4167H68.3948V22.9547H64.5918V34.7987Z" fill="#5059C9"/>
<path d="M73.3502 23.5993C74.8269 23.5993 75.9966 24.0357 76.8591 24.9086C77.7216 25.768 78.1529 26.9967 78.1529 28.5947V30.045H71.2527C71.2788 30.891 71.5206 31.5557 71.978 32.0391C72.4484 32.5225 73.0953 32.7642 73.9187 32.7642C74.5982 32.7642 75.219 32.6971 75.7809 32.5628C76.3559 32.4151 76.944 32.1935 77.5452 31.8981V34.2145C77.0094 34.4831 76.454 34.6778 75.8789 34.7987C75.3039 34.9329 74.6048 35.0001 73.7814 35.0001C72.7098 35.0001 71.7623 34.7987 70.939 34.3958C70.1157 33.9795 69.4688 33.3618 68.9983 32.5427C68.5279 31.7101 68.2926 30.656 68.2926 29.3803C68.2926 28.1046 68.5017 27.037 68.9199 26.1776C69.3512 25.3181 69.9458 24.6736 70.7038 24.2439C71.4618 23.8142 72.3439 23.5993 73.3502 23.5993ZM73.3698 25.7344C72.7948 25.7344 72.3243 25.9224 71.9584 26.2984C71.5925 26.6744 71.3768 27.2586 71.3115 28.0508H75.4085C75.3954 27.3928 75.219 26.8423 74.8792 26.3991C74.5525 25.956 74.0493 25.7344 73.3698 25.7344Z" fill="#5059C9"/>
<path d="M84.9123 23.5792C86.3499 23.5792 87.4476 23.9014 88.2056 24.546C88.9767 25.1771 89.3622 26.1507 89.3622 27.4667V34.7987H87.3235L86.755 33.3081H86.6766C86.2192 33.8989 85.7356 34.3287 85.226 34.5972C84.7163 34.8658 84.0171 35.0001 83.1285 35.0001C82.1745 35.0001 81.3838 34.7181 80.7565 34.1541C80.1292 33.5901 79.8156 32.7105 79.8156 31.5154C79.8156 30.3471 80.2142 29.4877 81.0114 28.9371C81.8085 28.3866 83.0043 28.0777 84.5987 28.0106L86.461 27.9501V27.4667C86.461 26.8893 86.3107 26.4663 86.0101 26.1977C85.7226 25.9291 85.3175 25.7949 84.7947 25.7949C84.272 25.7949 83.7623 25.8754 83.2657 26.0366C82.7691 26.1843 82.2725 26.3723 81.7759 26.6006L80.8153 24.5662C81.3773 24.2707 82.0111 24.0357 82.7168 23.8612C83.4225 23.6732 84.1544 23.5792 84.9123 23.5792ZM86.461 29.7025L85.324 29.7428C84.3831 29.7697 83.7296 29.9443 83.3637 30.2665C82.9978 30.5888 82.8148 31.0118 82.8148 31.5355C82.8148 31.9921 82.9455 32.3211 83.2069 32.5225C83.4683 32.7105 83.808 32.8045 84.2262 32.8045C84.8535 32.8045 85.3828 32.6165 85.8141 32.2405C86.2453 31.8511 86.461 31.3072 86.461 30.609V29.7025Z" fill="#5059C9"/>
<path d="M104.917 23.5993C106.133 23.5993 107.048 23.9216 107.662 24.5662C108.289 25.1973 108.603 26.2179 108.603 27.6278V34.7987H105.682V28.3731C105.682 26.7886 105.146 25.9963 104.074 25.9963C103.303 25.9963 102.754 26.2783 102.428 26.8423C102.101 27.4063 101.938 28.2187 101.938 29.2795V34.7987H99.0169V28.3731C99.0169 26.7886 98.4811 25.9963 97.4094 25.9963C96.5992 25.9963 96.0372 26.3119 95.7236 26.943C95.423 27.5607 95.2727 28.4537 95.2727 29.622V34.7987H92.3519V23.8007H94.5866L94.9787 25.2107H95.1355C95.4622 24.6467 95.9066 24.2372 96.4685 23.982C97.0435 23.7269 97.6381 23.5993 98.2524 23.5993C99.0365 23.5993 99.6964 23.7336 100.232 24.0022C100.781 24.2573 101.206 24.6601 101.506 25.2107H101.761C102.088 24.6467 102.539 24.2372 103.114 23.982C103.702 23.7269 104.303 23.5993 104.917 23.5993Z" fill="#5059C9"/>
<path d="M119.079 31.5355C119.079 32.6501 118.693 33.5095 117.922 34.1138C117.164 34.7047 116.027 35.0001 114.511 35.0001C113.766 35.0001 113.126 34.9464 112.59 34.8389C112.055 34.7449 111.519 34.5838 110.983 34.3555V31.878C111.558 32.1465 112.179 32.3681 112.845 32.5427C113.512 32.7172 114.1 32.8045 114.609 32.8045C115.171 32.8045 115.576 32.7172 115.825 32.5427C116.073 32.3681 116.197 32.1398 116.197 31.8578C116.197 31.6698 116.145 31.502 116.04 31.3542C115.949 31.2065 115.74 31.0387 115.413 30.8507C115.086 30.6627 114.577 30.421 113.884 30.1255C113.205 29.8301 112.649 29.5414 112.218 29.2594C111.8 28.964 111.486 28.6148 111.277 28.212C111.068 27.7957 110.963 27.2787 110.963 26.661C110.963 25.6404 111.349 24.875 112.12 24.3647C112.891 23.8544 113.917 23.5993 115.197 23.5993C115.864 23.5993 116.498 23.6664 117.099 23.8007C117.7 23.935 118.321 24.1566 118.961 24.4654L118.079 26.6207C117.556 26.3924 117.06 26.2044 116.589 26.0567C116.119 25.8956 115.642 25.815 115.158 25.815C114.296 25.815 113.865 26.0567 113.865 26.5401C113.865 26.7147 113.917 26.8758 114.021 27.0236C114.139 27.1578 114.355 27.3056 114.668 27.4667C114.995 27.6278 115.472 27.8427 116.099 28.1113C116.713 28.3664 117.243 28.635 117.687 28.917C118.131 29.1855 118.471 29.528 118.706 29.9443C118.955 30.3605 119.079 30.891 119.079 31.5355Z" fill="#5059C9"/>
<defs>
<linearGradient id="paint0_linear" x1="5.57047" y1="1.69364" x2="23.4597" y2="32.6146" gradientUnits="userSpaceOnUse">
<stop stop-color="#5A62C3"/>
<stop offset="0.5" stop-color="#4D55BD"/>
<stop offset="1" stop-color="#3940AB"/>
</linearGradient>
</defs>
</svg>
