<svg width="134" height="31" viewBox="0 0 134 31" fill="none" xmlns="http://www.w3.org/2000/svg">
<path d="M9.05798 5.74902C9.05798 6.72884 8.88481 7.58789 8.53845 8.32617C8.1921 9.06445 7.69535 9.63411 7.04822 10.0352C6.40564 10.4362 5.66736 10.6367 4.83337 10.6367C4.0085 10.6367 3.2725 10.4385 2.62537 10.042C1.97823 9.64551 1.47693 9.0804 1.12146 8.34668C0.765991 7.6084 0.585978 6.76074 0.581421 5.80371V5.31152C0.581421 4.33171 0.756877 3.47038 1.10779 2.72754C1.46326 1.98014 1.96228 1.4082 2.60486 1.01172C3.25199 0.610677 3.99028 0.410156 4.8197 0.410156C5.64913 0.410156 6.38513 0.610677 7.02771 1.01172C7.67485 1.4082 8.17387 1.98014 8.52478 2.72754C8.88025 3.47038 9.05798 4.32943 9.05798 5.30469V5.74902ZM6.97986 5.29785C6.97986 4.25423 6.79301 3.46126 6.41931 2.91895C6.04561 2.37663 5.51241 2.10547 4.8197 2.10547C4.13155 2.10547 3.60063 2.37435 3.22693 2.91211C2.85323 3.44531 2.6641 4.22917 2.65955 5.26367V5.74902C2.65955 6.7653 2.84639 7.55371 3.22009 8.11426C3.59379 8.6748 4.13155 8.95508 4.83337 8.95508C5.52153 8.95508 6.05017 8.6862 6.41931 8.14844C6.78845 7.60612 6.9753 6.81771 6.97986 5.7832V5.29785Z" fill="#555555"/>
<path d="M12.9236 1.28516V3.10352H14.1882V4.55273H12.9236V8.24414C12.9236 8.51758 12.976 8.71354 13.0808 8.83203C13.1856 8.95052 13.3861 9.00977 13.6824 9.00977C13.9011 9.00977 14.0948 8.99382 14.2634 8.96191V10.459C13.876 10.5775 13.4773 10.6367 13.0671 10.6367C11.6817 10.6367 10.9753 9.93717 10.948 8.53809V4.55273H9.86791V3.10352H10.948V1.28516H12.9236Z" fill="#555555"/>
<path d="M17.3565 3.91016C17.8806 3.28125 18.5392 2.9668 19.3321 2.9668C20.9363 2.9668 21.7498 3.89876 21.7726 5.7627V10.5H19.797V5.81738C19.797 5.39355 19.7058 5.08138 19.5235 4.88086C19.3412 4.67578 19.0382 4.57324 18.6143 4.57324C18.0356 4.57324 17.6163 4.79655 17.3565 5.24316V10.5H15.381V0H17.3565V3.91016Z" fill="#555555"/>
<path d="M26.8071 10.6367C25.7224 10.6367 24.8383 10.304 24.1547 9.63867C23.4757 8.97331 23.1362 8.08691 23.1362 6.97949V6.78809C23.1362 6.04525 23.2797 5.38216 23.5669 4.79883C23.854 4.21094 24.2596 3.75977 24.7836 3.44531C25.3123 3.1263 25.9139 2.9668 26.5883 2.9668C27.6001 2.9668 28.3953 3.28581 28.9741 3.92383C29.5574 4.56185 29.8491 5.46647 29.8491 6.6377V7.44434H25.1391C25.2029 7.92741 25.3943 8.31478 25.7133 8.60645C26.0369 8.89811 26.4448 9.04395 26.937 9.04395C27.698 9.04395 28.2928 8.76823 28.7211 8.2168L29.6919 9.30371C29.3956 9.72298 28.9946 10.0511 28.4887 10.2881C27.9829 10.5205 27.4223 10.6367 26.8071 10.6367ZM26.5815 4.56641C26.1896 4.56641 25.8706 4.69857 25.6245 4.96289C25.3829 5.22721 25.228 5.60547 25.1596 6.09766H27.9077V5.94043C27.8986 5.50293 27.7801 5.16569 27.5522 4.92871C27.3243 4.68717 27.0008 4.56641 26.5815 4.56641Z" fill="#555555"/>
<path d="M35.2733 4.95605C35.0044 4.9196 34.7674 4.90137 34.5623 4.90137C33.8149 4.90137 33.325 5.1543 33.0926 5.66016V10.5H31.117V3.10352H32.9832L33.0379 3.98535C33.4344 3.30632 33.9835 2.9668 34.6854 2.9668C34.9041 2.9668 35.1092 2.99642 35.3006 3.05566L35.2733 4.95605Z" fill="#555555"/>
<path d="M45.2876 7.88867C45.2876 7.5013 45.1509 7.20508 44.8775 7C44.604 6.79036 44.1119 6.57161 43.4009 6.34375C42.69 6.11133 42.1272 5.88346 41.7124 5.66016C40.5822 5.04948 40.0171 4.22689 40.0171 3.19238C40.0171 2.65462 40.1675 2.17611 40.4683 1.75684C40.7736 1.33301 41.2089 1.0026 41.774 0.765625C42.3436 0.528646 42.9816 0.410156 43.688 0.410156C44.399 0.410156 45.0324 0.540039 45.5884 0.799805C46.1444 1.05501 46.5751 1.41732 46.8804 1.88672C47.1903 2.35612 47.3452 2.88932 47.3452 3.48633H45.2945C45.2945 3.0306 45.1509 2.67741 44.8638 2.42676C44.5767 2.17155 44.1734 2.04395 43.6538 2.04395C43.1525 2.04395 42.7629 2.15104 42.4849 2.36523C42.2069 2.57487 42.0679 2.85286 42.0679 3.19922C42.0679 3.52279 42.2297 3.79395 42.5533 4.0127C42.8814 4.23145 43.3622 4.43652 43.9956 4.62793C45.1623 4.97884 46.0122 5.41406 46.5454 5.93359C47.0786 6.45312 47.3452 7.10026 47.3452 7.875C47.3452 8.73633 47.0194 9.41309 46.3677 9.90527C45.716 10.3929 44.8387 10.6367 43.7359 10.6367C42.9702 10.6367 42.273 10.4977 41.6441 10.2197C41.0152 9.93717 40.5344 9.55208 40.2017 9.06445C39.8736 8.57682 39.7095 8.01172 39.7095 7.36914H41.7671C41.7671 8.46745 42.4234 9.0166 43.7359 9.0166C44.2235 9.0166 44.604 8.91862 44.8775 8.72266C45.1509 8.52214 45.2876 8.24414 45.2876 7.88867Z" fill="#555555"/>
<path d="M51.8261 9.04395C52.1907 9.04395 52.4869 8.94368 52.7147 8.74316C52.9426 8.54264 53.0611 8.27604 53.0702 7.94336H54.9227C54.9182 8.44466 54.7815 8.90495 54.5126 9.32422C54.2437 9.73893 53.8746 10.0625 53.4052 10.2949C52.9403 10.5228 52.4254 10.6367 51.8602 10.6367C50.803 10.6367 49.969 10.3018 49.3583 9.63184C48.7476 8.95736 48.4423 8.02767 48.4423 6.84277V6.71289C48.4423 5.57357 48.7453 4.66439 49.3515 3.98535C49.9576 3.30632 50.7893 2.9668 51.8466 2.9668C52.7717 2.9668 53.5123 3.23112 54.0683 3.75977C54.6288 4.28385 54.9136 4.9834 54.9227 5.8584H53.0702C53.0611 5.47559 52.9426 5.16569 52.7147 4.92871C52.4869 4.68717 52.1861 4.56641 51.8124 4.56641C51.3521 4.56641 51.0035 4.73503 50.7665 5.07227C50.5341 5.40495 50.4179 5.94727 50.4179 6.69922V6.9043C50.4179 7.66536 50.5341 8.21224 50.7665 8.54492C50.9989 8.8776 51.3521 9.04395 51.8261 9.04395Z" fill="#555555"/>
<path d="M58.1184 3.91016C58.6425 3.28125 59.301 2.9668 60.094 2.9668C61.6982 2.9668 62.5116 3.89876 62.5344 5.7627V10.5H60.5588V5.81738C60.5588 5.39355 60.4677 5.08138 60.2854 4.88086C60.1031 4.67578 59.8001 4.57324 59.3762 4.57324C58.7974 4.57324 58.3782 4.79655 58.1184 5.24316V10.5H56.1428V0H58.1184V3.91016Z" fill="#555555"/>
<path d="M63.857 6.7334C63.857 5.99967 63.9983 5.3457 64.2809 4.77148C64.5634 4.19727 64.969 3.75293 65.4977 3.43848C66.0309 3.12402 66.6484 2.9668 67.3502 2.9668C68.3483 2.9668 69.1617 3.27214 69.7906 3.88281C70.4241 4.49349 70.7773 5.32292 70.8502 6.37109L70.8639 6.87695C70.8639 8.01172 70.5471 8.92318 69.9137 9.61133C69.2802 10.2949 68.4303 10.6367 67.3639 10.6367C66.2975 10.6367 65.4453 10.2949 64.8072 9.61133C64.1738 8.92773 63.857 7.99805 63.857 6.82227V6.7334ZM65.8326 6.87695C65.8326 7.57878 65.9648 8.11654 66.2291 8.49023C66.4934 8.85938 66.8717 9.04395 67.3639 9.04395C67.8424 9.04395 68.2161 8.86165 68.485 8.49707C68.7539 8.12793 68.8883 7.54004 68.8883 6.7334C68.8883 6.04525 68.7539 5.51204 68.485 5.13379C68.2161 4.75553 67.8378 4.56641 67.3502 4.56641C66.8671 4.56641 66.4934 4.75553 66.2291 5.13379C65.9648 5.50749 65.8326 6.08854 65.8326 6.87695Z" fill="#555555"/>
<path d="M71.9131 6.7334C71.9131 5.99967 72.0543 5.3457 72.3369 4.77148C72.6194 4.19727 73.025 3.75293 73.5537 3.43848C74.0869 3.12402 74.7044 2.9668 75.4062 2.9668C76.4043 2.9668 77.2178 3.27214 77.8467 3.88281C78.4801 4.49349 78.8333 5.32292 78.9062 6.37109L78.9199 6.87695C78.9199 8.01172 78.6032 8.92318 77.9697 9.61133C77.3362 10.2949 76.4863 10.6367 75.4199 10.6367C74.3535 10.6367 73.5013 10.2949 72.8633 9.61133C72.2298 8.92773 71.9131 7.99805 71.9131 6.82227V6.7334ZM73.8886 6.87695C73.8886 7.57878 74.0208 8.11654 74.2851 8.49023C74.5495 8.85938 74.9277 9.04395 75.4199 9.04395C75.8984 9.04395 76.2721 8.86165 76.541 8.49707C76.8099 8.12793 76.9443 7.54004 76.9443 6.7334C76.9443 6.04525 76.8099 5.51204 76.541 5.13379C76.2721 4.75553 75.8939 4.56641 75.4062 4.56641C74.9232 4.56641 74.5495 4.75553 74.2851 5.13379C74.0208 5.50749 73.8886 6.08854 73.8886 6.87695Z" fill="#555555"/>
<path d="M82.3617 10.5H80.3792V0H82.3617V10.5Z" fill="#555555"/>
<path d="M3.06287 27.5H1.01208V17.5469H3.06287V27.5Z" fill="#555555"/>
<path d="M6.79857 20.1035L6.86009 20.958C7.38874 20.2972 8.0974 19.9668 8.98607 19.9668C9.76992 19.9668 10.3533 20.1969 10.7361 20.6572C11.1189 21.1175 11.3148 21.8057 11.324 22.7217V27.5H9.34837V22.7695C9.34837 22.3503 9.25723 22.0472 9.07494 21.8604C8.89264 21.6689 8.58958 21.5732 8.16576 21.5732C7.60977 21.5732 7.19277 21.8102 6.91478 22.2842V27.5H4.93919V20.1035H6.79857Z" fill="#555555"/>
<path d="M13.5079 27.5V21.5527H12.4073V20.1035H13.5079V19.4746C13.5079 18.6452 13.7449 18.0026 14.2188 17.5469C14.6974 17.0866 15.365 16.8564 16.2218 16.8564C16.4952 16.8564 16.8302 16.902 17.2267 16.9932L17.2061 18.5244C17.0421 18.4834 16.8416 18.4629 16.6046 18.4629C15.8617 18.4629 15.4903 18.8115 15.4903 19.5088V20.1035H16.9601V21.5527H15.4903V27.5H13.5079Z" fill="#555555"/>
<path d="M17.8178 23.7334C17.8178 22.9997 17.9591 22.3457 18.2417 21.7715C18.5242 21.1973 18.9298 20.7529 19.4585 20.4385C19.9917 20.124 20.6092 19.9668 21.311 19.9668C22.309 19.9668 23.1225 20.2721 23.7514 20.8828C24.3849 21.4935 24.7381 22.3229 24.811 23.3711L24.8247 23.877C24.8247 25.0117 24.5079 25.9232 23.8745 26.6113C23.241 27.2949 22.3911 27.6367 21.3247 27.6367C20.2583 27.6367 19.406 27.2949 18.768 26.6113C18.1346 25.9277 17.8178 24.998 17.8178 23.8223V23.7334ZM19.7934 23.877C19.7934 24.5788 19.9256 25.1165 20.1899 25.4902C20.4542 25.8594 20.8325 26.0439 21.3247 26.0439C21.8032 26.0439 22.1769 25.8617 22.4458 25.4971C22.7146 25.1279 22.8491 24.54 22.8491 23.7334C22.8491 23.0452 22.7146 22.512 22.4458 22.1338C22.1769 21.7555 21.7986 21.5664 21.311 21.5664C20.8279 21.5664 20.4542 21.7555 20.1899 22.1338C19.9256 22.5075 19.7934 23.0885 19.7934 23.877Z" fill="#555555"/>
<path d="M30.3377 21.9561C30.0688 21.9196 29.8319 21.9014 29.6268 21.9014C28.8794 21.9014 28.3895 22.1543 28.157 22.6602V27.5H26.1815V20.1035H28.0477L28.1024 20.9854C28.4988 20.3063 29.048 19.9668 29.7498 19.9668C29.9686 19.9668 30.1736 19.9964 30.3651 20.0557L30.3377 21.9561Z" fill="#555555"/>
<path d="M33.2873 20.1035L33.3488 20.9307C33.8729 20.2881 34.5816 19.9668 35.4748 19.9668C36.4273 19.9668 37.0812 20.3428 37.4367 21.0947C37.9562 20.3428 38.6968 19.9668 39.6584 19.9668C40.4605 19.9668 41.0575 20.2015 41.4494 20.6709C41.8413 21.1357 42.0373 21.8376 42.0373 22.7764V27.5H40.0549V22.7832C40.0549 22.3639 39.9728 22.0586 39.8088 21.8672C39.6447 21.6712 39.3553 21.5732 38.9406 21.5732C38.3482 21.5732 37.938 21.8558 37.7101 22.4209L37.717 27.5H35.7414V22.79C35.7414 22.3617 35.6571 22.0518 35.4885 21.8604C35.3198 21.6689 35.0327 21.5732 34.6271 21.5732C34.0666 21.5732 33.661 21.8057 33.4103 22.2705V27.5H31.4347V20.1035H33.2873Z" fill="#555555"/>
<path d="M47.9878 27.5C47.8967 27.3223 47.8306 27.1012 47.7896 26.8369C47.3111 27.3701 46.689 27.6367 45.9234 27.6367C45.1988 27.6367 44.5972 27.4271 44.1187 27.0078C43.6447 26.5885 43.4077 26.0599 43.4077 25.4219C43.4077 24.638 43.6971 24.0365 44.2759 23.6172C44.8592 23.1979 45.7001 22.986 46.7984 22.9814H47.7076V22.5576C47.7076 22.2158 47.6187 21.9424 47.441 21.7373C47.2678 21.5322 46.9921 21.4297 46.6138 21.4297C46.2811 21.4297 46.0191 21.5094 45.8277 21.6689C45.6408 21.8285 45.5474 22.0472 45.5474 22.3252H43.5718C43.5718 21.8968 43.704 21.5003 43.9683 21.1357C44.2326 20.7712 44.6063 20.4863 45.0894 20.2812C45.5725 20.0716 46.1148 19.9668 46.7163 19.9668C47.6278 19.9668 48.3501 20.1969 48.8833 20.6572C49.4211 21.113 49.69 21.7555 49.69 22.585V25.791C49.6945 26.4928 49.7925 27.0238 49.9839 27.3838V27.5H47.9878ZM46.354 26.126C46.6457 26.126 46.9146 26.0622 47.1607 25.9346C47.4068 25.8024 47.5891 25.627 47.7076 25.4082V24.1367H46.9693C45.9803 24.1367 45.454 24.4785 45.3902 25.1621L45.3833 25.2783C45.3833 25.5244 45.4699 25.7272 45.6431 25.8867C45.8163 26.0462 46.0533 26.126 46.354 26.126Z" fill="#555555"/>
<path d="M53.7128 18.2852V20.1035H54.9774V21.5527H53.7128V25.2441C53.7128 25.5176 53.7652 25.7135 53.87 25.832C53.9748 25.9505 54.1754 26.0098 54.4716 26.0098C54.6903 26.0098 54.884 25.9938 55.0526 25.9619V27.459C54.6653 27.5775 54.2665 27.6367 53.8563 27.6367C52.4709 27.6367 51.7645 26.9372 51.7372 25.5381V21.5527H50.6571V20.1035H51.7372V18.2852H53.7128Z" fill="#555555"/>
<path d="M58.303 27.5H56.3206V20.1035H58.303V27.5ZM56.2043 18.1895C56.2043 17.8932 56.3023 17.6494 56.4983 17.458C56.6988 17.2666 56.97 17.1709 57.3118 17.1709C57.649 17.1709 57.9179 17.2666 58.1184 17.458C58.3189 17.6494 58.4192 17.8932 58.4192 18.1895C58.4192 18.4902 58.3167 18.7363 58.1116 18.9277C57.9111 19.1191 57.6445 19.2148 57.3118 19.2148C56.9791 19.2148 56.7102 19.1191 56.5051 18.9277C56.3046 18.7363 56.2043 18.4902 56.2043 18.1895Z" fill="#555555"/>
<path d="M59.7692 23.7334C59.7692 22.9997 59.9104 22.3457 60.193 21.7715C60.4755 21.1973 60.8811 20.7529 61.4098 20.4385C61.943 20.124 62.5605 19.9668 63.2623 19.9668C64.2604 19.9668 65.0738 20.2721 65.7027 20.8828C66.3362 21.4935 66.6894 22.3229 66.7623 23.3711L66.776 23.877C66.776 25.0117 66.4593 25.9232 65.8258 26.6113C65.1923 27.2949 64.3424 27.6367 63.276 27.6367C62.2096 27.6367 61.3574 27.2949 60.7193 26.6113C60.0859 25.9277 59.7692 24.998 59.7692 23.8223V23.7334ZM61.7447 23.877C61.7447 24.5788 61.8769 25.1165 62.1412 25.4902C62.4055 25.8594 62.7838 26.0439 63.276 26.0439C63.7545 26.0439 64.1282 25.8617 64.3971 25.4971C64.666 25.1279 64.8004 24.54 64.8004 23.7334C64.8004 23.0452 64.666 22.512 64.3971 22.1338C64.1282 21.7555 63.7499 21.5664 63.2623 21.5664C62.7792 21.5664 62.4055 21.7555 62.1412 22.1338C61.8769 22.5075 61.7447 23.0885 61.7447 23.877Z" fill="#555555"/>
<path d="M69.9511 20.1035L70.0127 20.958C70.5413 20.2972 71.25 19.9668 72.1386 19.9668C72.9225 19.9668 73.5058 20.1969 73.8886 20.6572C74.2715 21.1175 74.4674 21.8057 74.4765 22.7217V27.5H72.501V22.7695C72.501 22.3503 72.4098 22.0472 72.2275 21.8604C72.0452 21.6689 71.7422 21.5732 71.3183 21.5732C70.7623 21.5732 70.3454 21.8102 70.0674 22.2842V27.5H68.0918V20.1035H69.9511Z" fill="#555555"/>
<path d="M85.0378 24.8887C85.0378 24.5013 84.9011 24.2051 84.6276 24C84.3542 23.7904 83.862 23.5716 83.1511 23.3438C82.4401 23.1113 81.8773 22.8835 81.4626 22.6602C80.3324 22.0495 79.7673 21.2269 79.7673 20.1924C79.7673 19.6546 79.9177 19.1761 80.2185 18.7568C80.5238 18.333 80.959 18.0026 81.5241 17.7656C82.0938 17.5286 82.7318 17.4102 83.4382 17.4102C84.1491 17.4102 84.7826 17.54 85.3386 17.7998C85.8946 18.055 86.3252 18.4173 86.6306 18.8867C86.9405 19.3561 87.0954 19.8893 87.0954 20.4863H85.0446C85.0446 20.0306 84.9011 19.6774 84.614 19.4268C84.3269 19.1715 83.9235 19.0439 83.404 19.0439C82.9027 19.0439 82.513 19.151 82.2351 19.3652C81.9571 19.5749 81.8181 19.8529 81.8181 20.1992C81.8181 20.5228 81.9798 20.7939 82.3034 21.0127C82.6315 21.2314 83.1123 21.4365 83.7458 21.6279C84.9125 21.9788 85.7624 22.4141 86.2956 22.9336C86.8288 23.4531 87.0954 24.1003 87.0954 24.875C87.0954 25.7363 86.7696 26.4131 86.1179 26.9053C85.4662 27.3929 84.5889 27.6367 83.486 27.6367C82.7204 27.6367 82.0231 27.4977 81.3942 27.2197C80.7653 26.9372 80.2845 26.5521 79.9519 26.0645C79.6237 25.5768 79.4597 25.0117 79.4597 24.3691H81.5173C81.5173 25.4674 82.1735 26.0166 83.486 26.0166C83.9737 26.0166 84.3542 25.9186 84.6276 25.7227C84.9011 25.5221 85.0378 25.2441 85.0378 24.8887Z" fill="#555555"/>
<path d="M91.2618 24.7041L92.629 20.1035H94.7481L91.7745 28.6484L91.6104 29.0381C91.1683 30.0042 90.4392 30.4873 89.4229 30.4873C89.1358 30.4873 88.8441 30.444 88.5479 30.3574V28.8604L88.8487 28.8672C89.2224 28.8672 89.5004 28.8102 89.6827 28.6963C89.8695 28.5824 90.0154 28.3932 90.1202 28.1289L90.3526 27.5205L87.7618 20.1035H89.8877L91.2618 24.7041Z" fill="#555555"/>
<path d="M99.6733 25.4561C99.6733 25.2145 99.5525 25.0254 99.311 24.8887C99.074 24.7474 98.6912 24.6221 98.1625 24.5127C96.4034 24.1436 95.5238 23.3962 95.5238 22.2705C95.5238 21.6143 95.795 21.0674 96.3373 20.6299C96.8842 20.1878 97.5974 19.9668 98.477 19.9668C99.4158 19.9668 100.165 20.1878 100.726 20.6299C101.291 21.0719 101.574 21.6462 101.574 22.3525H99.5981C99.5981 22.07 99.5069 21.8376 99.3246 21.6553C99.1423 21.4684 98.8575 21.375 98.4701 21.375C98.1374 21.375 97.88 21.4502 97.6977 21.6006C97.5154 21.751 97.4242 21.9424 97.4242 22.1748C97.4242 22.3936 97.5268 22.5713 97.7318 22.708C97.9415 22.8402 98.2924 22.9564 98.7846 23.0566C99.2768 23.1523 99.6915 23.2617 100.029 23.3848C101.072 23.7676 101.594 24.4307 101.594 25.374C101.594 26.0485 101.305 26.5954 100.726 27.0146C100.147 27.4294 99.3998 27.6367 98.4838 27.6367C97.864 27.6367 97.3126 27.5273 96.8295 27.3086C96.351 27.0853 95.975 26.7822 95.7016 26.3994C95.4281 26.012 95.2914 25.5951 95.2914 25.1484H97.1645C97.1827 25.4993 97.3126 25.7682 97.5541 25.9551C97.7957 26.1419 98.1192 26.2354 98.5248 26.2354C98.9031 26.2354 99.1879 26.1647 99.3793 26.0234C99.5753 25.8776 99.6733 25.6885 99.6733 25.4561Z" fill="#555555"/>
<path d="M105.378 18.2852V20.1035H106.642V21.5527H105.378V25.2441C105.378 25.5176 105.43 25.7135 105.535 25.832C105.64 25.9505 105.84 26.0098 106.136 26.0098C106.355 26.0098 106.549 25.9938 106.718 25.9619V27.459C106.33 27.5775 105.931 27.6367 105.521 27.6367C104.136 27.6367 103.429 26.9372 103.402 25.5381V21.5527H102.322V20.1035H103.402V18.2852H105.378Z" fill="#555555"/>
<path d="M111.287 27.6367C110.203 27.6367 109.318 27.304 108.635 26.6387C107.956 25.9733 107.616 25.0869 107.616 23.9795V23.7881C107.616 23.0452 107.76 22.3822 108.047 21.7988C108.334 21.2109 108.74 20.7598 109.264 20.4453C109.792 20.1263 110.394 19.9668 111.068 19.9668C112.08 19.9668 112.875 20.2858 113.454 20.9238C114.038 21.5618 114.329 22.4665 114.329 23.6377V24.4443H109.619C109.683 24.9274 109.874 25.3148 110.193 25.6064C110.517 25.8981 110.925 26.0439 111.417 26.0439C112.178 26.0439 112.773 25.7682 113.201 25.2168L114.172 26.3037C113.876 26.723 113.475 27.0511 112.969 27.2881C112.463 27.5205 111.902 27.6367 111.287 27.6367ZM111.062 21.5664C110.67 21.5664 110.351 21.6986 110.105 21.9629C109.863 22.2272 109.708 22.6055 109.64 23.0977H112.388V22.9404C112.379 22.5029 112.26 22.1657 112.032 21.9287C111.804 21.6872 111.481 21.5664 111.062 21.5664Z" fill="#555555"/>
<path d="M117.45 20.1035L117.511 20.9307C118.035 20.2881 118.744 19.9668 119.637 19.9668C120.59 19.9668 121.244 20.3428 121.599 21.0947C122.119 20.3428 122.859 19.9668 123.821 19.9668C124.623 19.9668 125.22 20.2015 125.612 20.6709C126.004 21.1357 126.2 21.8376 126.2 22.7764V27.5H124.217V22.7832C124.217 22.3639 124.135 22.0586 123.971 21.8672C123.807 21.6712 123.518 21.5732 123.103 21.5732C122.511 21.5732 122.1 21.8558 121.873 22.4209L121.879 27.5H119.904V22.79C119.904 22.3617 119.819 22.0518 119.651 21.8604C119.482 21.6689 119.195 21.5732 118.79 21.5732C118.229 21.5732 117.823 21.8057 117.573 22.2705V27.5H115.597V20.1035H117.45Z" fill="#555555"/>
<path d="M131.87 25.4561C131.87 25.2145 131.749 25.0254 131.508 24.8887C131.271 24.7474 130.888 24.6221 130.359 24.5127C128.6 24.1436 127.721 23.3962 127.721 22.2705C127.721 21.6143 127.992 21.0674 128.534 20.6299C129.081 20.1878 129.794 19.9668 130.674 19.9668C131.612 19.9668 132.362 20.1878 132.923 20.6299C133.488 21.0719 133.77 21.6462 133.77 22.3525H131.795C131.795 22.07 131.704 21.8376 131.521 21.6553C131.339 21.4684 131.054 21.375 130.667 21.375C130.334 21.375 130.077 21.4502 129.894 21.6006C129.712 21.751 129.621 21.9424 129.621 22.1748C129.621 22.3936 129.723 22.5713 129.929 22.708C130.138 22.8402 130.489 22.9564 130.981 23.0566C131.473 23.1523 131.888 23.2617 132.225 23.3848C133.269 23.7676 133.791 24.4307 133.791 25.374C133.791 26.0485 133.501 26.5954 132.923 27.0146C132.344 27.4294 131.597 27.6367 130.681 27.6367C130.061 27.6367 129.509 27.5273 129.026 27.3086C128.548 27.0853 128.172 26.7822 127.898 26.3994C127.625 26.012 127.488 25.5951 127.488 25.1484H129.361C129.379 25.4993 129.509 25.7682 129.751 25.9551C129.992 26.1419 130.316 26.2354 130.722 26.2354C131.1 26.2354 131.385 26.1647 131.576 26.0234C131.772 25.8776 131.87 25.6885 131.87 25.4561Z" fill="#555555"/>
</svg>
