<svg width="20" height="20" viewBox="0 0 20 20" fill="none" xmlns="http://www.w3.org/2000/svg">
<path fill-rule="evenodd" clip-rule="evenodd" d="M9.04709 6.94841C9.47885 6.36657 9.63367 5.75336 9.14537 5.21209C8.04957 3.67877 7.31262 2.73057 6.85037 2.27394C5.97157 1.40583 4.52593 1.52326 3.76483 2.2732C3.35603 2.676 3.21763 2.81433 2.79789 3.24067C0.459847 5.57997 1.88571 10.5252 5.67616 14.3193C9.46575 18.1127 14.4105 19.5393 16.7534 17.195C17.1408 16.8216 17.4687 16.4935 17.7273 16.2201C18.4732 15.4318 18.5864 14.0499 17.7224 13.1522C17.2795 12.6919 16.3753 11.9905 14.7774 10.8476C14.2881 10.41 13.7078 10.5049 13.1759 10.8539C12.92 11.0217 12.7338 11.1916 12.3821 11.5435L11.7436 12.1824C11.6595 12.2666 10.5175 11.6947 9.40893 10.585C8.29977 9.47477 7.72825 8.33271 7.81196 8.24901L8.45093 7.60968C8.5625 7.49801 8.61583 7.44394 8.68423 7.37205C8.82674 7.22228 8.94473 7.08636 9.04709 6.94841ZM12.9214 13.3611L13.5601 12.7221C13.7536 12.5284 13.8791 12.4093 13.9811 12.3272C15.3808 13.3323 16.1914 13.9644 16.5225 14.3084C16.7213 14.515 16.6905 14.8919 16.5176 15.0745C16.2785 15.3273 15.9678 15.6382 15.5865 16.006C14.0714 17.5217 10.0799 16.3701 6.85427 13.1413C3.62762 9.91143 2.47657 5.91932 3.98016 4.4149C4.39822 3.99031 4.53067 3.85793 4.93363 3.46087C5.08472 3.312 5.49627 3.27857 5.68006 3.46013C6.03595 3.81169 6.69612 4.65699 7.66726 6.00977C7.61698 6.07219 7.55419 6.14272 7.47778 6.22303C7.42169 6.28198 7.37497 6.32934 7.27282 6.43159L6.63447 7.07029C5.54851 8.15616 6.47335 10.0043 8.23081 11.7634C9.98707 13.5214 11.8359 14.4473 12.9214 13.3611Z" fill="#DBF5F8"/>
</svg>
