<svg width="29" height="30" viewBox="0 0 29 30" fill="none" xmlns="http://www.w3.org/2000/svg">
<g filter="url(#filter0_d)">
<g filter="url(#filter1_d)">
<path d="M10.8013 18.5798C10.4348 18.1085 9.97658 17.1529 9.17799 15.9615C8.71979 15.3069 7.59391 14.0632 7.25353 13.4218C7.00816 13.0319 6.93696 12.5573 7.05716 12.1126C7.26264 11.2672 8.06464 10.7063 8.92925 10.8034C9.59797 10.9378 10.2125 11.2655 10.6966 11.746C11.0346 12.0644 11.3455 12.4103 11.6261 12.7803C11.8356 13.0421 11.8879 13.1468 12.1236 13.4479C12.3592 13.749 12.5163 14.0502 12.3985 13.605C12.3069 12.9505 12.1498 11.8508 11.9272 10.8689C11.757 10.1227 11.7178 10.0049 11.5607 9.44192C11.4036 8.87899 11.3119 8.40769 11.1417 7.7662C10.9862 7.13594 10.8638 6.49794 10.7752 5.85484C10.6101 5.0323 10.7302 4.17809 11.1155 3.4329C11.573 3.00267 12.2439 2.88912 12.8174 3.14488C13.3943 3.5708 13.8243 4.16557 14.0481 4.84679C14.3911 5.68515 14.6201 6.56579 14.7288 7.4651C14.9383 8.77425 15.3441 10.6856 15.3572 11.0784C15.3572 10.594 15.2656 9.57284 15.3572 9.11463C15.448 8.63695 15.78 8.24053 16.2343 8.06731C16.6242 7.94769 17.0367 7.92079 17.4388 7.98876C17.8447 8.07361 18.2042 8.30708 18.4468 8.64334C18.7501 9.40709 18.9185 10.2177 18.9443 11.0391C18.9794 10.3198 19.1025 9.60757 19.3109 8.91826C19.5296 8.61002 19.8491 8.38778 20.2142 8.28987C20.647 8.21073 21.0905 8.21073 21.5233 8.28987C21.8782 8.40852 22.1887 8.63223 22.4136 8.93135C22.6908 9.62566 22.8586 10.3588 22.911 11.1046C22.911 11.2878 23.0027 10.594 23.2907 10.1358C23.4404 9.69145 23.8157 9.36071 24.2753 9.26817C24.735 9.17562 25.2091 9.33531 25.519 9.6871C25.829 10.0389 25.9278 10.5293 25.7781 10.9736C25.7781 11.8246 25.7781 11.7853 25.7781 12.3613C25.7781 12.9374 25.7781 13.4479 25.7781 13.9323C25.7304 14.6984 25.6254 15.4599 25.4639 16.2103C25.2361 16.8742 24.919 17.504 24.5213 18.0824C23.8856 18.7893 23.3604 19.5881 22.9634 20.4519C22.8649 20.8811 22.8209 21.3209 22.8325 21.7611C22.8312 22.1678 22.884 22.5728 22.9896 22.9655C22.4543 23.0221 21.9146 23.0221 21.3793 22.9655C20.8688 22.887 20.2404 21.8658 20.0702 21.5516C19.986 21.3829 19.8136 21.2763 19.6251 21.2763C19.4365 21.2763 19.2642 21.3829 19.1799 21.5516C18.8919 22.0491 18.2504 22.9524 17.8053 23.0048C16.9282 23.1095 15.1216 23.0048 13.6946 23.0048C13.6946 23.0048 13.9302 21.6956 13.3935 21.2243C12.8567 20.753 12.3069 20.2032 11.901 19.8366L10.8013 18.5798Z" fill="white"/>
<path fill-rule="evenodd" clip-rule="evenodd" d="M10.8013 18.5798C10.4348 18.1085 9.97658 17.1529 9.17799 15.9615C8.71979 15.3069 7.59391 14.0632 7.25353 13.4218C7.00816 13.0319 6.93696 12.5573 7.05716 12.1126C7.26264 11.2672 8.06464 10.7063 8.92925 10.8034C9.59797 10.9378 10.2125 11.2655 10.6966 11.746C11.0346 12.0644 11.3455 12.4103 11.6261 12.7803C11.8356 13.0421 11.8879 13.1468 12.1236 13.4479C12.3592 13.749 12.5163 14.0502 12.3985 13.605C12.3069 12.9505 12.1498 11.8508 11.9272 10.8689C11.757 10.1227 11.7178 10.0049 11.5607 9.44192C11.4036 8.87899 11.3119 8.40769 11.1417 7.7662C10.9862 7.13594 10.8638 6.49794 10.7752 5.85484C10.6101 5.0323 10.7302 4.17809 11.1155 3.4329C11.573 3.00267 12.2439 2.88912 12.8174 3.14488C13.3943 3.5708 13.8243 4.16557 14.0481 4.84679C14.3911 5.68515 14.6201 6.56579 14.7288 7.4651C14.9383 8.77425 15.3441 10.6856 15.3572 11.0784C15.3572 10.594 15.2656 9.57284 15.3572 9.11463C15.448 8.63695 15.78 8.24053 16.2343 8.06731C16.6242 7.94769 17.0367 7.92079 17.4388 7.98876C17.8447 8.07361 18.2042 8.30708 18.4468 8.64334C18.7501 9.40709 18.9185 10.2177 18.9443 11.0391C18.9794 10.3198 19.1025 9.60757 19.3109 8.91826C19.5296 8.61002 19.8491 8.38778 20.2142 8.28987C20.647 8.21073 21.0905 8.21073 21.5233 8.28987C21.8782 8.40852 22.1887 8.63223 22.4136 8.93135C22.6908 9.62566 22.8586 10.3588 22.911 11.1046C22.911 11.2878 23.0027 10.594 23.2907 10.1358C23.4404 9.69145 23.8157 9.36071 24.2753 9.26817C24.735 9.17562 25.2091 9.33531 25.519 9.6871C25.829 10.0389 25.9278 10.5293 25.7781 10.9736C25.7781 11.8246 25.7781 11.7853 25.7781 12.3613C25.7781 12.9374 25.7781 13.4479 25.7781 13.9323C25.7304 14.6984 25.6254 15.4599 25.4639 16.2103C25.2361 16.8742 24.919 17.504 24.5213 18.0824C23.8856 18.7893 23.3604 19.5881 22.9634 20.4519C22.8649 20.8811 22.8209 21.3209 22.8325 21.7611C22.8312 22.1678 22.884 22.5728 22.9896 22.9655C22.4543 23.0221 21.9146 23.0221 21.3793 22.9655C20.8688 22.887 20.2404 21.8658 20.0702 21.5516C19.986 21.3829 19.8136 21.2763 19.6251 21.2763C19.4365 21.2763 19.2642 21.3829 19.1799 21.5516C18.8919 22.0491 18.2504 22.9524 17.8053 23.0048C16.9282 23.1095 15.1216 23.0048 13.6946 23.0048C13.6946 23.0048 13.9302 21.6956 13.3935 21.2243C12.8567 20.753 12.3069 20.2032 11.901 19.8366L10.8013 18.5798Z" stroke="black" stroke-width="0.75" stroke-linecap="round" stroke-linejoin="round"/>
<path d="M21.9028 19.2948V14.7759C21.9028 14.5054 21.683 14.2861 21.4118 14.2861C21.1407 14.2861 20.9209 14.5054 20.9209 14.7759V19.2948C20.9209 19.5653 21.1407 19.7846 21.4118 19.7846C21.683 19.7846 21.9028 19.5653 21.9028 19.2948Z" fill="black"/>
<path d="M19.3108 19.2932L19.2846 14.7719C19.283 14.5021 19.062 14.2846 18.7908 14.2861C18.5197 14.2877 18.3012 14.5077 18.3027 14.7776L18.3289 19.2988C18.3305 19.5686 18.5516 19.7861 18.8227 19.7846C19.0938 19.783 19.3123 19.563 19.3108 19.2932Z" fill="black"/>
<path d="M15.6843 14.7823L15.7105 19.2942C15.7121 19.5666 15.9332 19.7862 16.2043 19.7846C16.4754 19.783 16.6939 19.5609 16.6924 19.2884L16.6662 14.7765C16.6646 14.5041 16.4435 14.2846 16.1724 14.2861C15.9013 14.2877 15.6828 14.5099 15.6843 14.7823Z" fill="black"/>
</g>
</g>
<defs>
<filter id="filter0_d" x="-2" y="-1" width="32" height="32" filterUnits="userSpaceOnUse" color-interpolation-filters="sRGB">
<feFlood flood-opacity="0" result="BackgroundImageFix"/>
<feColorMatrix in="SourceAlpha" type="matrix" values="0 0 0 0 0 0 0 0 0 0 0 0 0 0 0 0 0 0 127 0"/>
<feOffset dx="-2" dy="2"/>
<feGaussianBlur stdDeviation="2"/>
<feColorMatrix type="matrix" values="0 0 0 0 0 0 0 0 0 0 0 0 0 0 0 0 0 0 0.15 0"/>
<feBlend mode="normal" in2="BackgroundImageFix" result="effect1_dropShadow"/>
<feBlend mode="normal" in="SourceGraphic" in2="effect1_dropShadow" result="shape"/>
</filter>
<filter id="filter1_d" x="5.825" y="2.63477" width="21.1968" height="22.5916" filterUnits="userSpaceOnUse" color-interpolation-filters="sRGB">
<feFlood flood-opacity="0" result="BackgroundImageFix"/>
<feColorMatrix in="SourceAlpha" type="matrix" values="0 0 0 0 0 0 0 0 0 0 0 0 0 0 0 0 0 0 127 0"/>
<feOffset dy="1"/>
<feGaussianBlur stdDeviation="0.4"/>
<feColorMatrix type="matrix" values="0 0 0 0 0 0 0 0 0 0 0 0 0 0 0 0 0 0 0.5 0"/>
<feBlend mode="normal" in2="BackgroundImageFix" result="effect1_dropShadow"/>
<feBlend mode="normal" in="SourceGraphic" in2="effect1_dropShadow" result="shape"/>
</filter>
</defs>
</svg>
