<svg width="49" height="48" viewBox="0 0 49 48" fill="none" xmlns="http://www.w3.org/2000/svg">
<path d="M36.4828 33.4163V28.0837C36.4828 27.3985 36.755 26.7413 37.2395 26.2568C37.7241 25.7722 38.3812 25.5 39.0665 25.5C39.7518 25.5 40.4089 25.7722 40.8935 26.2568C41.378 26.7413 41.6503 27.3985 41.6503 28.0837V33.4163C41.6503 34.1015 41.378 34.7587 40.8935 35.2432C40.4089 35.7278 39.7518 36 39.0665 36C38.3812 36 37.7241 35.7278 37.2395 35.2432C36.755 34.7587 36.4828 34.1015 36.4828 33.4163V33.4163ZM47.75 21.75V45C47.75 45.5967 47.5129 46.169 47.091 46.591C46.669 47.0129 46.0967 47.25 45.5 47.25H17C16.4033 47.25 15.831 47.0129 15.409 46.591C14.9871 46.169 14.75 45.5967 14.75 45V21.75C14.75 21.1533 14.9871 20.581 15.409 20.159C15.831 19.7371 16.4033 19.5 17 19.5H45.5C46.0967 19.5 46.669 19.7371 47.091 20.159C47.5129 20.581 47.75 21.1533 47.75 21.75ZM34.9828 33.4163C34.9828 34.4993 35.413 35.538 36.1789 36.3039C36.9447 37.0697 37.9834 37.5 39.0665 37.5C40.1496 37.5 41.1883 37.0697 41.9541 36.3039C42.72 35.538 43.1503 34.4993 43.1503 33.4163V28.0837C43.1503 27.0007 42.72 25.962 41.9541 25.1961C41.1883 24.4303 40.1496 24 39.0665 24C37.9834 24 36.9447 24.4303 36.1789 25.1961C35.413 25.962 34.9828 27.0007 34.9828 28.0837V33.4163ZM25.3423 33.4163C25.3568 34.4898 25.7935 35.5145 26.5578 36.2686C27.3222 37.0226 28.3527 37.4454 29.4264 37.4454C30.5001 37.4454 31.5306 37.0226 32.2949 36.2686C33.0593 35.5145 33.496 34.4898 33.5105 33.4163V28.0837C33.496 27.0102 33.0593 25.9855 32.2949 25.2314C31.5306 24.4774 30.5001 24.0546 29.4264 24.0546C28.3527 24.0546 27.3222 24.4774 26.5578 25.2314C25.7935 25.9855 25.3568 27.0102 25.3423 28.0837V33.4163ZM19.0947 24.75C19.0947 24.9489 19.1738 25.1397 19.3144 25.2803C19.4551 25.421 19.6458 25.5 19.8447 25.5H21.6597V36.75C21.6597 36.9489 21.7388 37.1397 21.8794 37.2803C22.0201 37.421 22.2108 37.5 22.4097 37.5C22.6087 37.5 22.7994 37.421 22.9401 37.2803C23.0807 37.1397 23.1597 36.9489 23.1597 36.75V24.75C23.1597 24.5511 23.0807 24.3603 22.9401 24.2197C22.7994 24.079 22.6087 24 22.4097 24H19.8447C19.6458 24 19.4551 24.079 19.3144 24.2197C19.1738 24.3603 19.0947 24.5511 19.0947 24.75ZM43.25 40.5C43.25 40.3011 43.171 40.1103 43.0303 39.9697C42.8897 39.829 42.6989 39.75 42.5 39.75C34.8993 39.8582 27.3217 40.616 19.85 42.015C19.6608 42.0597 19.4963 42.1761 19.3912 42.3397C19.2861 42.5033 19.2487 42.7014 19.2869 42.892C19.325 43.0827 19.4357 43.2511 19.5956 43.3617C19.7555 43.4724 19.9521 43.5165 20.144 43.485C27.5188 42.1054 34.998 41.3577 42.5 41.25C42.6989 41.25 42.8897 41.171 43.0303 41.0303C43.171 40.8897 43.25 40.6989 43.25 40.5ZM29.426 36C30.1111 35.9992 30.7679 35.7268 31.2524 35.2424C31.7369 34.7581 32.0095 34.1013 32.0105 33.4163V28.0837C31.999 27.406 31.7216 26.76 31.2383 26.2848C30.7549 25.8096 30.1042 25.5433 29.4264 25.5433C28.7485 25.5433 28.0979 25.8096 27.6145 26.2848C27.1311 26.76 26.8538 27.406 26.8423 28.0837V33.4163C26.8432 34.1012 27.1158 34.7578 27.6001 35.2421C28.0844 35.7265 28.7411 35.999 29.426 36V36Z" fill="#F6515B"/>
<path d="M36.5 0.75H3.5C2.90326 0.75 2.33097 0.987053 1.90901 1.40901C1.48705 1.83097 1.25 2.40326 1.25 3V15.75C1.25 16.3467 1.48705 16.919 1.90901 17.341C2.33097 17.7629 2.90326 18 3.5 18H36.5C37.0967 18 37.669 17.7629 38.091 17.341C38.5129 16.919 38.75 16.3467 38.75 15.75V3C38.75 2.40326 38.5129 1.83097 38.091 1.40901C37.669 0.987053 37.0967 0.75 36.5 0.75V0.75ZM2.75 15.75V3C2.75 2.80109 2.82902 2.61032 2.96967 2.46967C3.11032 2.32902 3.30109 2.25 3.5 2.25H17V16.5H3.5C3.30109 16.5 3.11032 16.421 2.96967 16.2803C2.82902 16.1397 2.75 15.9489 2.75 15.75ZM37.25 15.75C37.25 15.9489 37.171 16.1397 37.0303 16.2803C36.8897 16.421 36.6989 16.5 36.5 16.5H18.5V2.25H36.5C36.6989 2.25 36.8897 2.32902 37.0303 2.46967C37.171 2.61032 37.25 2.80109 37.25 3V15.75ZM13.874 6.41625L9.374 13.1663C9.30383 13.2714 9.20821 13.3571 9.09604 13.4154C8.98386 13.4738 8.85876 13.5028 8.73237 13.4998C8.60598 13.4968 8.4824 13.4619 8.37311 13.3983C8.26382 13.3348 8.17236 13.2446 8.10725 13.1362L5.85725 9.38625C5.8044 9.30179 5.7689 9.20765 5.75284 9.10932C5.73677 9.011 5.74046 8.91045 5.76369 8.81357C5.78691 8.71668 5.8292 8.62539 5.8881 8.54503C5.947 8.46468 6.02131 8.39686 6.10671 8.34554C6.19211 8.29422 6.28688 8.26043 6.38548 8.24614C6.48408 8.23186 6.58454 8.23736 6.68099 8.26233C6.77744 8.2873 6.86795 8.33124 6.94723 8.39157C7.02652 8.45191 7.09298 8.52744 7.14275 8.61375L8.783 11.3482L12.626 5.58375C12.7364 5.41826 12.908 5.30339 13.1031 5.26443C13.2982 5.22547 13.5008 5.2656 13.6663 5.376C13.8317 5.4864 13.9466 5.65801 13.9856 5.8531C14.0245 6.04818 13.9844 6.25076 13.874 6.41625ZM34.25 6.75C34.25 6.94891 34.171 7.13968 34.0303 7.28033C33.8897 7.42098 33.6989 7.5 33.5 7.5H22.25C22.0511 7.5 21.8603 7.42098 21.7197 7.28033C21.579 7.13968 21.5 6.94891 21.5 6.75C21.5 6.55109 21.579 6.36032 21.7197 6.21967C21.8603 6.07902 22.0511 6 22.25 6H33.5C33.6989 6 33.8897 6.07902 34.0303 6.21967C34.171 6.36032 34.25 6.55109 34.25 6.75ZM29.75 12C29.75 12.1989 29.671 12.3897 29.5303 12.5303C29.3897 12.671 29.1989 12.75 29 12.75H22.25C22.0511 12.75 21.8603 12.671 21.7197 12.5303C21.579 12.3897 21.5 12.1989 21.5 12C21.5 11.8011 21.579 11.6103 21.7197 11.4697C21.8603 11.329 22.0511 11.25 22.25 11.25H29C29.1989 11.25 29.3897 11.329 29.5303 11.4697C29.671 11.6103 29.75 11.8011 29.75 12ZM36.5 21H3.5C2.90326 21 2.33097 21.2371 1.90901 21.659C1.48705 22.081 1.25 22.6533 1.25 23.25V36C1.25 36.5967 1.48705 37.169 1.90901 37.591C2.33097 38.0129 2.90326 38.25 3.5 38.25H36.5C37.0967 38.25 37.669 38.0129 38.091 37.591C38.5129 37.169 38.75 36.5967 38.75 36V23.25C38.75 22.6533 38.5129 22.081 38.091 21.659C37.669 21.2371 37.0967 21 36.5 21ZM2.75 36V23.25C2.75 23.0511 2.82902 22.8603 2.96967 22.7197C3.11032 22.579 3.30109 22.5 3.5 22.5H17V36.75H3.5C3.30109 36.75 3.11032 36.671 2.96967 36.5303C2.82902 36.3897 2.75 36.1989 2.75 36ZM37.25 36C37.25 36.1989 37.171 36.3897 37.0303 36.5303C36.8897 36.671 36.6989 36.75 36.5 36.75H18.5V22.5H36.5C36.6989 22.5 36.8897 22.579 37.0303 22.7197C37.171 22.8603 37.25 23.0511 37.25 23.25V36ZM34.25 27C34.25 27.1989 34.171 27.3897 34.0303 27.5303C33.8897 27.671 33.6989 27.75 33.5 27.75H22.25C22.0511 27.75 21.8603 27.671 21.7197 27.5303C21.579 27.3897 21.5 27.1989 21.5 27C21.5 26.8011 21.579 26.6103 21.7197 26.4697C21.8603 26.329 22.0511 26.25 22.25 26.25H33.5C33.6989 26.25 33.8897 26.329 34.0303 26.4697C34.171 26.6103 34.25 26.8011 34.25 27ZM29.75 32.25C29.75 32.4489 29.671 32.6397 29.5303 32.7803C29.3897 32.921 29.1989 33 29 33H22.25C22.0511 33 21.8603 32.921 21.7197 32.7803C21.579 32.6397 21.5 32.4489 21.5 32.25C21.5 32.0511 21.579 31.8603 21.7197 31.7197C21.8603 31.579 22.0511 31.5 22.25 31.5H29C29.1989 31.5 29.3897 31.579 29.5303 31.7197C29.671 31.8603 29.75 32.0511 29.75 32.25ZM13.7803 32.4697C13.9169 32.6112 13.9925 32.8007 13.9908 32.9973C13.989 33.1939 13.9102 33.3821 13.7711 33.5211C13.6321 33.6602 13.4439 33.739 13.2473 33.7408C13.0507 33.7425 12.8612 33.6669 12.7197 33.5303L9.875 30.6855L7.03025 33.5303C6.96106 33.6019 6.87831 33.659 6.7868 33.6983C6.6953 33.7376 6.59689 33.7583 6.4973 33.7592C6.39772 33.7601 6.29896 33.7411 6.20678 33.7034C6.11461 33.6657 6.03087 33.61 5.96045 33.5395C5.89003 33.4691 5.83434 33.3854 5.79663 33.2932C5.75892 33.201 5.73995 33.1023 5.74081 33.0027C5.74168 32.9031 5.76237 32.8047 5.80167 32.7132C5.84098 32.6217 5.89812 32.5389 5.96975 32.4697L8.8145 29.625L5.96975 26.7803C5.89812 26.7111 5.84098 26.6283 5.80167 26.5368C5.76237 26.4453 5.74168 26.3469 5.74081 26.2473C5.73995 26.1477 5.75892 26.049 5.79663 25.9568C5.83434 25.8646 5.89003 25.7809 5.96045 25.7105C6.03087 25.64 6.11461 25.5843 6.20678 25.5466C6.29896 25.5089 6.39772 25.4899 6.4973 25.4908C6.59689 25.4917 6.6953 25.5124 6.7868 25.5517C6.87831 25.591 6.96106 25.6481 7.03025 25.7197L9.875 28.5645L12.7197 25.7197C12.8612 25.5831 13.0507 25.5075 13.2473 25.5092C13.4439 25.511 13.6321 25.5898 13.7711 25.7289C13.9102 25.8679 13.989 26.0561 13.9908 26.2527C13.9925 26.4493 13.9169 26.6388 13.7803 26.7803L10.9355 29.625L13.7803 32.4697Z" fill="#113255"/>
</svg>
