<svg width="16" height="16" viewBox="0 0 16 16" fill="none" xmlns="http://www.w3.org/2000/svg">
<g id="24 / security / shield-ok">
<path id="icon" fill-rule="evenodd" clip-rule="evenodd" d="M8 15.3327C4 13.5507 2 11.773 2 9.99935V3.33268C2 2.82095 2.1964 2.70202 2.73995 2.37288L2.73995 2.37287C2.90453 2.27322 3.10093 2.15429 3.33333 1.99935C3.4412 1.92744 5.70881 0.666016 8 0.666016C9.99683 0.666016 11.6667 1.33268 12.6667 1.99935C12.8991 2.15429 13.0955 2.27322 13.26 2.37288C13.8036 2.70202 14 2.82095 14 3.33268C14.0131 3.47751 14.0067 6.55742 14.0025 8.52915L14.0025 8.53016C14.0011 9.20208 14 9.74518 14 9.99935C14 11.7771 12 13.5549 8 15.3327ZM12.6667 9.99935C12.6667 9.84581 12.6671 9.58855 12.6679 9.16914L12.6706 7.86697L12.6727 6.7392C12.6751 5.25111 12.6745 3.97389 12.6731 3.57887L12.5815 3.52204L12.5814 3.52201C12.3659 3.38827 12.0849 3.21397 11.9271 3.10875C10.9429 2.45263 9.50679 1.99935 8 1.99935C6.55872 1.99935 4.68576 2.7002 4.07293 3.10875C3.9151 3.21397 3.63413 3.38828 3.41856 3.52201L3.41853 3.52203L3.33333 3.57491V9.99935C3.33333 11.005 4.81941 12.3785 8.00062 13.8673C11.1814 12.3818 12.6667 11.0088 12.6667 9.99935ZM10.1953 5.52792L7.33333 8.38985L5.80473 6.86125L4.86192 7.80406L7.33333 10.2755L11.1381 6.47073L10.1953 5.52792Z" fill="#24AE5F"/>
</g>
</svg>
