<svg width="64" height="64" viewBox="0 0 64 64" fill="none" xmlns="http://www.w3.org/2000/svg">
<circle cx="32" cy="32" r="32" fill="#FFDCDE"/>
<path d="M45.6763 27.4317C42.0461 23.8101 37.1277 21.7762 32 21.7762C26.8723 21.7762 21.9539 23.8101 18.3238 27.4317L16.4375 25.5455C20.5681 21.424 26.1649 19.1094 32 19.1094C37.8351 19.1094 43.4319 21.424 47.5625 25.5455L45.6763 27.4317Z" fill="#113255"/>
<path d="M40.9603 32.1474C38.5819 29.7746 35.3595 28.4421 31.9999 28.4421C28.6403 28.4421 25.4179 29.7746 23.0394 32.1474L21.1532 30.2612C24.0321 27.3886 27.933 25.7754 31.9999 25.7754C36.0668 25.7754 39.9677 27.3886 42.8466 30.2612L40.9603 32.1474Z" fill="#113255"/>
<path d="M36.2446 36.8638C35.118 35.74 33.5916 35.1088 32.0002 35.1088C30.4088 35.1088 28.8824 35.74 27.7558 36.8638L25.8695 34.9775C27.4967 33.3535 29.7018 32.4414 32.0008 32.4414C34.2997 32.4414 36.5048 33.3535 38.132 34.9775L36.2446 36.8638Z" fill="#113255"/>
<path d="M28.9561 39.9883L30.1319 38.8124L35.0322 43.7128L33.8564 44.8886L28.9561 39.9883Z" fill="#F6515B"/>
<path d="M28.9558 43.7129L33.8561 38.8126L35.0319 39.9884L30.1316 44.8887L28.9558 43.7129Z" fill="#F6515B"/>
</svg>
