<svg width="64" height="64" viewBox="0 0 64 64" fill="none" xmlns="http://www.w3.org/2000/svg">
<path fill-rule="evenodd" clip-rule="evenodd" d="M29.3334 13.3333C21.9696 13.3333 16.0001 19.3029 16.0001 26.6667V29.3333L16.0001 48H8.00008C5.05456 48 2.66675 45.6122 2.66675 42.6667V32C2.66675 29.0545 5.05456 26.6667 8.00008 26.6667H10.6667C10.6667 16.3574 19.0241 8 29.3334 8H34.6667C44.9761 8 53.3334 16.3574 53.3334 26.6667L56.0001 26.6667C58.9456 26.6667 61.3334 29.0545 61.3334 32V42.6667C61.3334 45.6122 58.9456 48 56.0001 48H52.9974C51.8132 52.6006 47.637 56 42.6667 56H39.2866C38.3644 57.5941 36.6408 58.6667 34.6667 58.6667C31.7212 58.6667 29.3334 56.2789 29.3334 53.3333C29.3334 50.3878 31.7212 48 34.6667 48C36.6408 48 38.3644 49.0725 39.2866 50.6667H42.6667C45.6123 50.6667 48.0001 48.2789 48.0001 45.3333V29.3333V26.6667C48.0001 19.3029 42.0305 13.3333 34.6667 13.3333H29.3334ZM10.6667 32H8.00008V42.6667H10.6667V32ZM29.3334 32.6667C29.3334 34.5076 27.841 36 26.0001 36C24.1591 36 22.6667 34.5076 22.6667 32.6667C22.6667 30.8257 24.1591 29.3333 26.0001 29.3333C27.841 29.3333 29.3334 30.8257 29.3334 32.6667ZM38.0001 36C39.841 36 41.3334 34.5076 41.3334 32.6667C41.3334 30.8257 39.841 29.3333 38.0001 29.3333C36.1591 29.3333 34.6667 30.8257 34.6667 32.6667C34.6667 34.5076 36.1591 36 38.0001 36ZM53.3334 32H56.0001V42.6667H53.3334V32Z" fill="#FCEACF"/>
</svg>
