<svg width="48" height="48" viewBox="0 0 48 48" fill="none" xmlns="http://www.w3.org/2000/svg">
<path d="M41.2498 42V47.25H24.7498V42C24.7498 39.812 25.619 37.7135 27.1662 36.1664C28.7134 34.6192 30.8118 33.75 32.9998 33.75C35.1879 33.75 37.2863 34.6192 38.8335 36.1664C40.3806 37.7135 41.2498 39.812 41.2498 42ZM44.9998 14.25H14.9998C14.8515 14.25 14.7066 14.294 14.5832 14.3764C14.4599 14.4589 14.3638 14.576 14.3071 14.713C14.2503 14.85 14.2355 15.0008 14.2644 15.1463C14.2933 15.2917 14.3647 15.4254 14.4696 15.5303L18.7498 19.8105V45C18.7498 45.5967 18.9869 46.169 19.4088 46.591C19.8308 47.0129 20.4031 47.25 20.9998 47.25H23.2498V42C23.2532 39.9917 23.8763 38.0333 25.0341 36.3922C26.1918 34.7511 27.8277 33.5073 29.7186 32.8305C28.5234 32.113 27.5963 31.0235 27.0794 29.7288C26.5624 28.4342 26.4841 27.0057 26.8564 25.6623C27.2286 24.3189 28.031 23.1346 29.1406 22.2906C30.2502 21.4467 31.6058 20.9898 32.9998 20.9898C34.3939 20.9898 35.7495 21.4467 36.8591 22.2906C37.9687 23.1346 38.771 24.3189 39.1433 25.6623C39.5156 27.0057 39.4373 28.4342 38.9203 29.7288C38.4034 31.0235 37.4763 32.113 36.2811 32.8305C38.172 33.5073 39.8079 34.7511 40.9656 36.3922C42.1233 38.0333 42.7464 39.9917 42.7498 42V47.25H44.9998C45.5966 47.25 46.1689 47.0129 46.5908 46.591C47.0128 46.169 47.2498 45.5967 47.2498 45V16.5C47.2498 15.9033 47.0128 15.331 46.5908 14.909C46.1689 14.4871 45.5966 14.25 44.9998 14.25ZM32.9998 22.5C32.0357 22.5 31.0931 22.7859 30.2914 23.3216C29.4897 23.8573 28.8649 24.6186 28.4959 25.5094C28.1269 26.4002 28.0304 27.3804 28.2185 28.3261C28.4066 29.2717 28.8709 30.1404 29.5527 30.8221C30.2345 31.5039 31.1031 31.9682 32.0488 32.1563C32.9944 32.3444 33.9746 32.2479 34.8654 31.8789C35.7562 31.5099 36.5176 30.8851 37.0533 30.0834C37.5889 29.2817 37.8748 28.3392 37.8748 27.375C37.8733 26.0826 37.3591 24.8435 36.4452 23.9296C35.5313 23.0157 34.2923 22.5016 32.9998 22.5V22.5Z" fill="#F6515B"/>
<path d="M36 0.75H3C2.40326 0.75 1.83097 0.987053 1.40901 1.40901C0.987053 1.83097 0.75 2.40326 0.75 3V31.5C0.75 32.0967 0.987053 32.669 1.40901 33.091C1.83097 33.5129 2.40326 33.75 3 33.75H36C36.5967 33.75 37.169 33.5129 37.591 33.091C38.0129 32.669 38.25 32.0967 38.25 31.5V3C38.25 2.40326 38.0129 1.83097 37.591 1.40901C37.169 0.987053 36.5967 0.75 36 0.75V0.75ZM3 2.25H36C36.1989 2.25 36.3897 2.32902 36.5303 2.46967C36.671 2.61032 36.75 2.80109 36.75 3V23.25H2.25V3C2.25 2.80109 2.32902 2.61032 2.46967 2.46967C2.61032 2.32902 2.80109 2.25 3 2.25V2.25ZM36 32.25H3C2.80109 32.25 2.61032 32.171 2.46967 32.0303C2.32902 31.8897 2.25 31.6989 2.25 31.5V24.75H36.75V31.5C36.75 31.6989 36.671 31.8897 36.5303 32.0303C36.3897 32.171 36.1989 32.25 36 32.25ZM33.75 28.5C33.75 28.6989 33.671 28.8897 33.5303 29.0303C33.3897 29.171 33.1989 29.25 33 29.25H11.25V30C11.25 30.1989 11.171 30.3897 11.0303 30.5303C10.8897 30.671 10.6989 30.75 10.5 30.75C10.3011 30.75 10.1103 30.671 9.96967 30.5303C9.82902 30.3897 9.75 30.1989 9.75 30V29.25H6C5.80109 29.25 5.61032 29.171 5.46967 29.0303C5.32902 28.8897 5.25 28.6989 5.25 28.5C5.25 28.3011 5.32902 28.1103 5.46967 27.9697C5.61032 27.829 5.80109 27.75 6 27.75H9.75V27C9.75 26.8011 9.82902 26.6103 9.96967 26.4697C10.1103 26.329 10.3011 26.25 10.5 26.25C10.6989 26.25 10.8897 26.329 11.0303 26.4697C11.171 26.6103 11.25 26.8011 11.25 27V27.75H33C33.1989 27.75 33.3897 27.829 33.5303 27.9697C33.671 28.1103 33.75 28.3011 33.75 28.5ZM17.4517 17.6835L23.6542 14.7892C24.0425 14.6083 24.3709 14.3202 24.6011 13.959C24.8312 13.5977 24.9535 13.1783 24.9535 12.75C24.9535 12.3217 24.8312 11.9023 24.6011 11.541C24.3709 11.1798 24.0425 10.8917 23.6542 10.7108L17.4517 7.8165C17.1088 7.65642 16.7311 7.58542 16.3534 7.61007C15.9758 7.63472 15.6105 7.75423 15.2913 7.95753C14.9721 8.16083 14.7093 8.44136 14.5273 8.77316C14.3453 9.10496 14.2499 9.47731 14.25 9.85575V15.6442C14.2499 16.0227 14.3453 16.395 14.5273 16.7268C14.7093 17.0586 14.9721 17.3392 15.2913 17.5425C15.6105 17.7458 15.9758 17.8653 16.3534 17.8899C16.7311 17.9146 17.1088 17.8436 17.4517 17.6835V17.6835ZM15.75 9.85575C15.7499 9.72956 15.7816 9.60538 15.8423 9.49472C15.9029 9.38405 15.9905 9.29047 16.0969 9.22264C16.2033 9.15482 16.3251 9.11494 16.451 9.1067C16.5769 9.09846 16.7029 9.12212 16.8173 9.1755L23.0198 12.0705C23.149 12.1309 23.2584 12.2269 23.335 12.3473C23.4116 12.4676 23.4523 12.6073 23.4523 12.75C23.4523 12.8927 23.4116 13.0324 23.335 13.1527C23.2584 13.2731 23.149 13.3691 23.0198 13.4295L16.8173 16.3245C16.7029 16.3779 16.5769 16.4015 16.451 16.3933C16.3251 16.3851 16.2033 16.3452 16.0969 16.2774C15.9905 16.2095 15.9029 16.116 15.8423 16.0053C15.7816 15.8946 15.7499 15.7704 15.75 15.6442V9.85575Z" fill="#113255"/>
</svg>
