<svg width="48" height="48" viewBox="0 0 48 48" fill="none" xmlns="http://www.w3.org/2000/svg">
<path d="M40.25 8H7.25C6.65326 8 6.08097 8.23705 5.65901 8.65901C5.23705 9.08097 5 9.65326 5 10.25V38.75C5 39.3467 5.23705 39.919 5.65901 40.341C6.08097 40.7629 6.65326 41 7.25 41H40.25C40.8467 41 41.419 40.7629 41.841 40.341C42.2629 39.919 42.5 39.3467 42.5 38.75V10.25C42.5 9.65326 42.2629 9.08097 41.841 8.65901C41.419 8.23705 40.8467 8 40.25 8ZM7.25 9.5H40.25C40.4489 9.5 40.6397 9.57902 40.7803 9.71967C40.921 9.86032 41 10.0511 41 10.25V30.5H6.5V10.25C6.5 10.0511 6.57902 9.86032 6.71967 9.71967C6.86032 9.57902 7.05109 9.5 7.25 9.5ZM40.25 39.5H7.25C7.05109 39.5 6.86032 39.421 6.71967 39.2803C6.57902 39.1397 6.5 38.9489 6.5 38.75V32H41V38.75C41 38.9489 40.921 39.1397 40.7803 39.2803C40.6397 39.421 40.4489 39.5 40.25 39.5ZM38 35.75C38 35.9489 37.921 36.1397 37.7803 36.2803C37.6397 36.421 37.4489 36.5 37.25 36.5H15.5V37.25C15.5 37.4489 15.421 37.6397 15.2803 37.7803C15.1397 37.921 14.9489 38 14.75 38C14.5511 38 14.3603 37.921 14.2197 37.7803C14.079 37.6397 14 37.4489 14 37.25V36.5H10.25C10.0511 36.5 9.86032 36.421 9.71967 36.2803C9.57902 36.1397 9.5 35.9489 9.5 35.75C9.5 35.5511 9.57902 35.3603 9.71967 35.2197C9.86032 35.079 10.0511 35 10.25 35H14V34.25C14 34.0511 14.079 33.8603 14.2197 33.7197C14.3603 33.579 14.5511 33.5 14.75 33.5C14.9489 33.5 15.1397 33.579 15.2803 33.7197C15.421 33.8603 15.5 34.0511 15.5 34.25V35H37.25C37.4489 35 37.6397 35.079 37.7803 35.2197C37.921 35.3603 38 35.5511 38 35.75ZM21.7017 24.9335L27.9042 22.0392C28.2925 21.8583 28.6209 21.5702 28.8511 21.209C29.0812 20.8477 29.2035 20.4283 29.2035 20C29.2035 19.5717 29.0812 19.1523 28.8511 18.791C28.6209 18.4298 28.2925 18.1417 27.9042 17.9608L21.7017 15.0665C21.3588 14.9064 20.9811 14.8354 20.6034 14.8601C20.2258 14.8847 19.8605 15.0042 19.5413 15.2075C19.2221 15.4108 18.9593 15.6914 18.7773 16.0232C18.5953 16.355 18.4999 16.7273 18.5 17.1058V22.8942C18.4999 23.2727 18.5953 23.645 18.7773 23.9768C18.9593 24.3086 19.2221 24.5892 19.5413 24.7925C19.8605 24.9958 20.2258 25.1153 20.6034 25.1399C20.9811 25.1646 21.3588 25.0936 21.7017 24.9335ZM20 17.1058C19.9999 16.9796 20.0316 16.8554 20.0923 16.7447C20.1529 16.634 20.2405 16.5405 20.3469 16.4726C20.4533 16.4048 20.5751 16.3649 20.701 16.3567C20.8269 16.3485 20.9529 16.3721 21.0672 16.4255L27.2698 19.3205C27.399 19.3809 27.5084 19.4769 27.585 19.5973C27.6616 19.7176 27.7023 19.8573 27.7023 20C27.7023 20.1427 27.6616 20.2824 27.585 20.4027C27.5084 20.5231 27.399 20.6191 27.2698 20.6795L21.0672 23.5745C20.9529 23.6279 20.8269 23.6515 20.701 23.6433C20.5751 23.6351 20.4533 23.5952 20.3469 23.5274C20.2405 23.4595 20.1529 23.366 20.0923 23.2553C20.0316 23.1446 19.9999 23.0204 20 22.8942V17.1058Z" fill="#113255"/>
</svg>
