<svg width="25" height="24" viewBox="0 0 25 24" fill="none" xmlns="http://www.w3.org/2000/svg">
<path d="M12.5001 2.25C10.8066 2.25046 9.14242 2.69187 7.67135 3.5308C6.20027 4.36973 4.973 5.57726 4.11033 7.03453C3.24765 8.4918 2.77931 10.1486 2.75139 11.8418C2.72347 13.5351 3.13693 15.2064 3.95109 16.6913L3.14983 19.4959C3.07631 19.7531 3.07293 20.0253 3.14002 20.2842C3.2071 20.5432 3.34223 20.7795 3.53138 20.9687C3.72053 21.1578 3.95683 21.293 4.21578 21.3601C4.47474 21.4272 4.74693 21.4238 5.00414 21.3503L7.80877 20.549C9.11211 21.2642 10.5617 21.6718 12.0468 21.7409C13.5318 21.8099 15.013 21.5384 16.377 20.9472C17.7411 20.356 18.9519 19.4607 19.9168 18.3297C20.8818 17.1988 21.5754 15.8622 21.9446 14.4221C22.3138 12.9821 22.3488 11.4766 22.047 10.0209C21.7451 8.56524 21.1144 7.19784 20.2031 6.02329C19.2917 4.84873 18.1238 3.89812 16.7888 3.24414C15.4537 2.59015 13.9867 2.2501 12.5001 2.25ZM14.7617 18C14.759 18.0022 14.7539 18 14.7499 18C13.6655 18 12.5918 17.7862 11.5901 17.3709C10.5884 16.9556 9.67845 16.3468 8.91223 15.5795C8.146 14.8122 7.53856 13.9013 7.12465 12.8991C6.71074 11.8968 6.49848 10.8228 6.50002 9.73837C6.50344 8.84539 6.86048 7.99013 7.49301 7.35978C8.12554 6.72943 8.98203 6.37534 9.87502 6.375C10.1211 6.37531 10.3627 6.4405 10.5756 6.564C10.7884 6.68749 10.9649 6.86493 11.0873 7.07841L12.1833 8.99662C12.3153 9.22801 12.3834 9.49037 12.3806 9.75677C12.3778 10.0232 12.3041 10.284 12.1672 10.5125L11.5005 11.6236C11.8302 12.1953 12.3048 12.6699 12.8764 12.9996L13.9875 12.3329C14.216 12.196 14.4769 12.1223 14.7433 12.1194C15.0097 12.1166 15.272 12.1847 15.5035 12.3167L17.4215 13.4128C17.635 13.5351 17.8125 13.7116 17.936 13.9244C18.0595 14.1373 18.1247 14.3789 18.125 14.625C18.1247 15.518 17.7706 16.3744 17.1403 17.007C16.5099 17.6395 15.6547 17.9965 14.7617 18Z" fill="#11BDCF"/>
<path d="M13.2922 14.4984C13.1885 14.5607 13.0713 14.5969 12.9505 14.604C12.8297 14.6111 12.7091 14.5889 12.5987 14.5393C11.4257 14.0123 10.4868 13.0734 9.95978 11.9004C9.91017 11.7901 9.88798 11.6694 9.8951 11.5486C9.90223 11.4278 9.93846 11.3106 10.0007 11.2069L10.8809 9.73984L9.81531 7.875C9.33019 7.89022 8.86989 8.09305 8.53131 8.44081C8.19272 8.78856 8.00226 9.25412 8.00001 9.73947C7.99875 10.6267 8.17241 11.5055 8.51107 12.3255C8.84972 13.1456 9.34672 13.8908 9.97364 14.5186C10.6006 15.1465 11.3451 15.6445 12.1647 15.9843C12.9843 16.3242 13.8628 16.4991 14.75 16.4991H14.7596C15.245 16.4968 15.7105 16.3064 16.0583 15.9678C16.406 15.6292 16.6089 15.1689 16.6241 14.6838L14.7593 13.6182L13.2922 14.4984Z" fill="#11BDCF"/>
</svg>
