<svg xmlns="http://www.w3.org/2000/svg" viewBox="0 0 263.04 80"><defs><style>.cls-1{fill:#e57224;}.cls-2{fill:#fff;}.cls-3{fill:#bebfc0;}.cls-4{fill:#e97c24;}.cls-5{fill:#e88026;}.cls-6{fill:#1a1c19;}</style></defs><title>logo</title><g id="Layer_2" data-name="Layer 2"><g id="Layer_1-2" data-name="Layer 1"><g id="Hero"><g id="logo"><path class="cls-1" d="M118.54,0h-94A24.57,24.57,0,0,0,0,24.57V35.21A24.57,24.57,0,0,0,24.57,59.78H39.33a15.07,15.07,0,0,1,7.27,1.87L79.15,79.59h0a3.45,3.45,0,0,0,1.62.42,3.52,3.52,0,0,0,3.51-3.51s0-.06,0-.1h0V61.79a2,2,0,0,1,2-2h32.23a2,2,0,0,0,2-2V2a2,2,0,0,0-2-2"/><path class="cls-2" d="M12.79,46.78a13.27,13.27,0,0,0,1.69.38,9.21,9.21,0,0,0,1.38.13A2.93,2.93,0,0,0,17.09,47a2.62,2.62,0,0,0,1-.89,13.85,13.85,0,0,0,1.12-2.53,1.59,1.59,0,0,0,0-1.11L10.68,20.9a3.41,3.41,0,0,1,3.17-4.66h2l7.26,20.86L29.6,16.25H36L25.37,46.88A9.6,9.6,0,0,1,22,51.49a9.35,9.35,0,0,1-5.83,1.79,11.17,11.17,0,0,1-1.66-.13,10.66,10.66,0,0,1-1.76-.43Z"/><path class="cls-2" d="M51.23,43.55a14.72,14.72,0,0,1-5.88-1.13,13.2,13.2,0,0,1-4.42-3A13.42,13.42,0,0,1,38.14,35a14.9,14.9,0,0,1,0-10.59A13.42,13.42,0,0,1,40.92,20a13.22,13.22,0,0,1,4.42-3,14.72,14.72,0,0,1,5.88-1.13,14.55,14.55,0,0,1,5.86,1.13,13.29,13.29,0,0,1,4.4,3,13.45,13.45,0,0,1,2.79,4.42,14.9,14.9,0,0,1,0,10.59,13.65,13.65,0,0,1-2.76,4.42,12.93,12.93,0,0,1-4.4,3,14.72,14.72,0,0,1-5.88,1.13m-7-13.86a9.33,9.33,0,0,0,.54,3.25,7.93,7.93,0,0,0,1.48,2.53,6.62,6.62,0,0,0,2.22,1.66,6.77,6.77,0,0,0,5.52,0,6.63,6.63,0,0,0,2.22-1.66,7.89,7.89,0,0,0,1.48-2.56,9.57,9.57,0,0,0,.54-3.27,9.41,9.41,0,0,0-.54-3.22,7.89,7.89,0,0,0-1.48-2.56A6.64,6.64,0,0,0,54,22.2a6.54,6.54,0,0,0-2.76-.59,6.29,6.29,0,0,0-2.76.61,6.93,6.93,0,0,0-2.22,1.69,7.88,7.88,0,0,0-1.48,2.56,9.4,9.4,0,0,0-.54,3.22"/><path class="cls-2" d="M78,43.55a7.61,7.61,0,0,1-6.29-2.66Q69.58,38.24,69.58,33V20.86a4.61,4.61,0,0,1,4.61-4.61h2.24V31.53q0,6.19,4.45,6.19a7,7,0,0,0,3.86-1.2,8.64,8.64,0,0,0,3-3.66V16.25h6.85V35.17A2.41,2.41,0,0,0,95,36.7a1.68,1.68,0,0,0,1.25.51V43a14.7,14.7,0,0,1-1.71.26c-.46,0-.88.05-1.25.05a4.93,4.93,0,0,1-3-.84A3.32,3.32,0,0,1,89,40.18L88.81,38a11.42,11.42,0,0,1-4.6,4.14A13.85,13.85,0,0,1,78,43.55"/><path class="cls-2" d="M117.4,22.18a13.53,13.53,0,0,0-5.57,1.2,7,7,0,0,0-3.53,3.45V43h-6.85V21.44a5.19,5.19,0,0,1,5.19-5.19h1.1V22a12.19,12.19,0,0,1,1.69-2.48,13,13,0,0,1,2.1-1.92,9.71,9.71,0,0,1,2.28-1.25,6.3,6.3,0,0,1,2.22-.43h.84a2.78,2.78,0,0,1,.54.05Z"/><path class="cls-3" d="M131.43,43.28l-7.94-21.56a3.89,3.89,0,0,1,3.65-5.24h1.48l6.8,21.22,6.85-21.22h6.44l-9.87,26.8Z"/><path class="cls-3" d="M207.64,29.89a14.58,14.58,0,0,1,1-5.32,12.94,12.94,0,0,1,2.81-4.4,13.7,13.7,0,0,1,4.45-3A14.72,14.72,0,0,1,221.75,16a14.1,14.1,0,0,1,7.49,1.89,12.08,12.08,0,0,1,4.63,5l-6.7,2a6,6,0,0,0-2.3-2.28,6.44,6.44,0,0,0-3.17-.79,6.53,6.53,0,0,0-2.76.59,6.78,6.78,0,0,0-2.22,1.64,7.57,7.57,0,0,0-1.48,2.53,9.55,9.55,0,0,0-.54,3.27,9.15,9.15,0,0,0,.56,3.27,8.25,8.25,0,0,0,1.51,2.56A6.61,6.61,0,0,0,219,37.38a6.4,6.4,0,0,0,2.71.59,6.58,6.58,0,0,0,3.4-.92,7,7,0,0,0,.59-.38,6,6,0,0,1,5.24-.75l3,.93a11.26,11.26,0,0,1-4.55,5,14.3,14.3,0,0,1-7.62,1.94,14.72,14.72,0,0,1-5.88-1.13,13.33,13.33,0,0,1-7.29-7.49,14.31,14.31,0,0,1-1-5.29"/><path class="cls-3" d="M249,43.8a14.87,14.87,0,0,1-5.83-1.1,13.14,13.14,0,0,1-7.29-7.39,14.1,14.1,0,0,1-1-5.27,14.93,14.93,0,0,1,1-5.4,13.16,13.16,0,0,1,2.81-4.45,13.43,13.43,0,0,1,4.47-3A14.9,14.9,0,0,1,249.08,16a14.54,14.54,0,0,1,5.86,1.13,13.49,13.49,0,0,1,4.4,3,12.84,12.84,0,0,1,2.76,4.4,14.65,14.65,0,0,1,.95,5.22c0,.44,0,.87,0,1.28a5.2,5.2,0,0,1-.13,1H242.18a7.94,7.94,0,0,0,.77,2.81,6.89,6.89,0,0,0,3.78,3.43,7.22,7.22,0,0,0,2.56.46,7.91,7.91,0,0,0,3.86-1,6.67,6.67,0,0,0,1-.69,5.55,5.55,0,0,1,5-1l2.33.65a12,12,0,0,1-4.73,5,14.66,14.66,0,0,1-7.75,2m7-16.16a7.13,7.13,0,0,0-2.22-4.83,7,7,0,0,0-9.48,0,7,7,0,0,0-1.51,2.1,7.38,7.38,0,0,0-.69,2.71Z"/><path class="cls-3" d="M168.2,34.64a7.1,7.1,0,0,1-.76,1.08,6.64,6.64,0,0,1-2.22,1.66,6.78,6.78,0,0,1-5.52,0,6.63,6.63,0,0,1-2.22-1.66A7.92,7.92,0,0,1,156,33.19a10,10,0,0,1,0-6.47,7.87,7.87,0,0,1,1.48-2.56,6.93,6.93,0,0,1,2.22-1.69,6.29,6.29,0,0,1,2.76-.61,6.54,6.54,0,0,1,2.76.59,6.64,6.64,0,0,1,2.22,1.66,6.31,6.31,0,0,1,.52.72l0,0,5.21-4c-.16-.19-.31-.38-.49-.57a13.29,13.29,0,0,0-4.4-3A14.54,14.54,0,0,0,162.45,16a14.72,14.72,0,0,0-5.88,1.13,13.22,13.22,0,0,0-4.42,3,13.44,13.44,0,0,0-2.79,4.42,14.91,14.91,0,0,0,0,10.59,13.43,13.43,0,0,0,2.79,4.42,13.2,13.2,0,0,0,4.42,3,15.93,15.93,0,0,0,11.76,0,12.93,12.93,0,0,0,4.4-3c.27-.28.5-.59.74-.89l-5.26-4.09Z"/><path class="cls-1" d="M168.92,26.67a9.42,9.42,0,0,1,.54,3.22,9.57,9.57,0,0,1-.54,3.27,8.61,8.61,0,0,1-.43.93l5.35,4.16a13.85,13.85,0,0,0,1.65-3,14.9,14.9,0,0,0,0-10.59,13.57,13.57,0,0,0-1.9-3.38l-5.28,4.11a8.59,8.59,0,0,1,.61,1.32"/><path class="cls-4" d="M182.17,29.91h0a22.29,22.29,0,0,1-4,12.73l5.67,4.4a30,30,0,0,0-.24-34.62l-5.67,4.41a22.28,22.28,0,0,1,4.23,13.07"/><path class="cls-5" d="M192.42,16.43a37.38,37.38,0,0,1-4.26,35l5.65,4.39A44.9,44.9,0,0,0,199,13.72Z"/><path class="cls-5" d="M193.58,3.68l-5.65,4.39a37,37,0,0,1,3,5l6.29-3.33a44.42,44.42,0,0,0-3.66-6.05"/><path class="cls-6" d="M215.63,60.9v1.2h-7.33V51.54h1.28V60.9Z"/><path class="cls-6" d="M224.77,59.17H220l-1.12,2.93h-1.34l4.11-10.56h1.52l4.1,10.56h-1.36Zm-.46-1.2-1.42-3.74-.5-1.47h0l-.46,1.42L220.45,58Z"/><path class="cls-6" d="M238.59,56.77V62.1h-1l0-1.42a3,3,0,0,1-1.3,1.18,4.59,4.59,0,0,1-2,.41,4.93,4.93,0,0,1-2.59-.66,4.41,4.41,0,0,1-1.7-1.89,6.49,6.49,0,0,1-.6-2.89,6.36,6.36,0,0,1,.62-2.88,4.48,4.48,0,0,1,1.73-1.9,5,5,0,0,1,2.58-.66,5.07,5.07,0,0,1,2.58.59,4.26,4.26,0,0,1,1.64,1.82l-1.17.64a2.73,2.73,0,0,0-1.14-1.38,3.62,3.62,0,0,0-1.91-.48,3.44,3.44,0,0,0-1.88.51,3.4,3.4,0,0,0-1.26,1.46,5.27,5.27,0,0,0-.45,2.26,4.75,4.75,0,0,0,.93,3.13,3.28,3.28,0,0,0,2.67,1.11,3.47,3.47,0,0,0,2.25-.7,2.44,2.44,0,0,0,.87-2V58h-3.36v-1.2Z"/><path class="cls-6" d="M249.39,52a4.42,4.42,0,0,1,1.7,1.89,7.25,7.25,0,0,1,0,5.78,4.41,4.41,0,0,1-1.7,1.89,5.39,5.39,0,0,1-5.18,0,4.41,4.41,0,0,1-1.7-1.89,7.24,7.24,0,0,1,0-5.78,4.41,4.41,0,0,1,1.7-1.89,5.39,5.39,0,0,1,5.18,0Zm-5.19,1.66a5.56,5.56,0,0,0,0,6.22,3.56,3.56,0,0,0,5.2,0,5.56,5.56,0,0,0,0-6.22,3.56,3.56,0,0,0-5.2,0Z"/><path class="cls-6" d="M262.95,53.62l-1.1.9A3.44,3.44,0,0,0,260.7,53a3.26,3.26,0,0,0-1.82-.44,3.21,3.21,0,0,0-1.91.5,1.53,1.53,0,0,0-.7,1.29,1.3,1.3,0,0,0,.27.85,2.16,2.16,0,0,0,.9.58,9.25,9.25,0,0,0,1.75.44,6.61,6.61,0,0,1,3,1.06,2.37,2.37,0,0,1,.87,2,2.58,2.58,0,0,1-.5,1.58,3.24,3.24,0,0,1-1.43,1.06,5.69,5.69,0,0,1-2.14.38,5.56,5.56,0,0,1-2.73-.62A4.35,4.35,0,0,1,254.51,60l1.1-.9a3.28,3.28,0,0,0,1.27,1.46,3.93,3.93,0,0,0,2.1.52,3.74,3.74,0,0,0,2-.46,1.44,1.44,0,0,0,.74-1.29,1.28,1.28,0,0,0-.64-1.12,6.61,6.61,0,0,0-2.27-.7,7,7,0,0,1-3-1.06,2.3,2.3,0,0,1-.88-1.92,2.77,2.77,0,0,1,.48-1.57,3.3,3.3,0,0,1,1.38-1.14,4.81,4.81,0,0,1,2.08-.42A4.31,4.31,0,0,1,262.95,53.62Z"/></g></g></g></g></svg>