<svg xmlns="http://www.w3.org/2000/svg" viewBox="0 0 128 76.77"><defs><style>.cls-1{fill:#f29429;}</style></defs><title>meetup</title><g id="Layer_2" data-name="Layer 2"><g id="Capa_1" data-name="Capa 1"><path id="Meetup" class="cls-1" d="M58.49,40.26a1.27,1.27,0,0,1-1.18-.5,10.9,10.9,0,0,1,1.18-4.18c.24-.52.45-1.08.68-1.69l.21-.69.22.69a11.9,11.9,0,0,1-.42,6.35ZM112,29.57l-.22.19c-3.65,3.45-5,9.31-6,14.51a10.67,10.67,0,0,0,6.76-6.76,9,9,0,0,0-.44-7.7ZM45.14,38.95a1.86,1.86,0,0,0,.73.18l.14,0,.37-.15a11.66,11.66,0,0,0-.25-5,8.34,8.34,0,0,0-2.06,4.64l0,.29.56,0A1.57,1.57,0,0,1,45.14,38.95ZM128,72.23a4.55,4.55,0,0,1-4.59,4.54H4.56A4.56,4.56,0,0,1,0,72.23V4.57A4.56,4.56,0,0,1,4.56,0H123.4A4.55,4.55,0,0,1,128,4.57ZM38.44,47.36A85.09,85.09,0,0,1,35.56,36c-1-5-2.06-10.05-3.87-14-.2,0-.44.2-.62.2a9.79,9.79,0,0,1-1.74.06c-.51-.07-1,.46-1.64.46H27.5c-.18,0-.31-.62-.37-.68C24.26,25.9,23.3,31.13,22,36.39c-.7-1.24-1.37-2.51-2-3.83A48.27,48.27,0,0,0,16.33,26a7.7,7.7,0,0,0-1.08-.05,15.13,15.13,0,0,0-4.24.65l-.07,3.56c-.13,6.07-.26,11.35,1.25,16.28a3,3,0,0,0,.87.1,9.47,9.47,0,0,0,4.18-1.25,18,18,0,0,0-.3-4A3.85,3.85,0,0,1,17.07,39,45.59,45.59,0,0,1,20,43.4c.61,1,1.19,2,1.66,2.76.31,0,.58.09.88.09a11.87,11.87,0,0,0,2-.2,14,14,0,0,1,2.06-.15L27,46c.86-1.87.89-4.62.93-7.27.06-2.48.08-5,1.19-6.91a107.07,107.07,0,0,0,4.94,16.27,16.73,16.73,0,0,0,2.33-.59,7.44,7.44,0,0,1,1.5-.37A.81.81,0,0,1,38.44,47.36ZM53.17,48.5a2,2,0,0,0-1.86-1.1,9.78,9.78,0,0,0-2.07.37,7.7,7.7,0,0,1-2.13.38,4.43,4.43,0,0,1-.54,0,3.19,3.19,0,0,1-1.9-1.36c-.86-1.26-1.07-3.37-.31-5.9a18.17,18.17,0,0,0,4.49.41h.41a3.07,3.07,0,0,1,1.1.23,25.29,25.29,0,0,0-.3-10.7,9,9,0,0,1-1.44-.45A7.84,7.84,0,0,0,46,29.77h-.55c-3.29.47-5.5,5.05-6,9.35-.49,4,.38,8.75,4.18,10.22a8.57,8.57,0,0,0,2.89.43A20.4,20.4,0,0,0,53.17,48.5Zm13-1c-.2-.67-.8-1-1.69-1.34A3.73,3.73,0,0,1,61.17,48a4.75,4.75,0,0,1-3.79-2,3.9,3.9,0,0,1-.27-4.15,16.52,16.52,0,0,0,3.39.49,15,15,0,0,0,2.37-.24,22.7,22.7,0,0,1,.42-6.37,39.32,39.32,0,0,0,.58-5.31,9.27,9.27,0,0,0-4.82-1.87C54.69,31.9,52.68,37,52.87,44.14c.58,3.15,4.75,5.11,8.26,5.11A7.28,7.28,0,0,0,66.13,47.52Zm15.1-9.77a10.26,10.26,0,0,1-1.48-1.48,6.72,6.72,0,0,0-3-2.25c-.27,0-.35.23-.36.85s-.1,1.25-.84,1.25H75l0-.18a45.5,45.5,0,0,0-.15-7.57c-.24-4-.5-7.75.23-11.13-.87-1.06-2.22-1.62-4.84-1.62h-.11c-.17,0-.39-.67-.43-.8-1.35,4.12-.72,8.63-.09,13.56a28.11,28.11,0,0,1,.32,8,15.74,15.74,0,0,1-1.57-.12c-.42,0-.89-.07-1.27-.07a1.91,1.91,0,0,0-1.48.44,2.55,2.55,0,0,0-.38,1.62c1,.7,2.84.76,4.53.81l1.09.21c.09,1.51.15,3,.28,4.37a61.2,61.2,0,0,1,.33,6.69,7.47,7.47,0,0,1,1.26-.11c.76-.09,1.49-.11,2.29-.22,0-1.66-.06-3.26-.15-4.84a42.91,42.91,0,0,1,.09-6.4,11.87,11.87,0,0,1,2.54-.28C79,38.39,80.52,38.32,81.23,37.75ZM97.1,35.08C96,34.2,94.72,32.7,93.22,32.7h-.36c-.2,0-.33.42-.37.33l0,1.59c-.12,4.32-.26,10.28-4.43,11.76a64.72,64.72,0,0,1-.56-8c-.09-1.36-.11-2.57-.09-3.43-.39-.19-.77-.39-1.15-.62a8.29,8.29,0,0,0-3.52-1.39c-.62,7.43.07,12.34,2.17,14.6A4.27,4.27,0,0,0,88.23,49a9.07,9.07,0,0,0,3-.62l.4-.62A9.57,9.57,0,0,1,94,45c.27-.49.6-1.13.87-1.62A11.68,11.68,0,0,0,97.1,35.08Zm19.93-7a12.13,12.13,0,0,0-6-2,7.65,7.65,0,0,0-6,3.08c-3.29,3.93-4,12.1-4.5,16.2a2,2,0,0,1-.62.23,2.63,2.63,0,0,0-1.34.62c1.74,2,2.1,5.43,2.45,8.77a28.36,28.36,0,0,0,1.25,7,7.81,7.81,0,0,0,1.78.13l1.14,0a5.34,5.34,0,0,1,1.83.22c-1.22-3.09-1.7-7.22-1.33-13.24A17.5,17.5,0,0,0,117.13,40,13.57,13.57,0,0,0,117,28.07Z"/></g></g></svg>