<svg xmlns="http://www.w3.org/2000/svg" viewBox="0 0 128 128.01"><defs><style>.cls-1{fill:#f4d35e;}.cls-2{fill:#70c1b3;}.cls-3{fill:#ebebd3;}.cls-4{fill:#3f3f3f;}.cls-5{fill:#ee964b;}</style></defs><title>Partner With Us</title><g id="Layer_2" data-name="Layer 2"><g id="Layer_1-2" data-name="Layer 1"><path class="cls-1" d="M108.18,84.72,84.72,108.18l-3-3L105.17,81.7,96,72.55h0L72.53,96h0l32,32L128,104.54Zm-10.67,0L93.25,89l-3-3L94.5,81.7Z"/><path class="cls-2" d="M29.87,74.67l-9.16,9.16L44.18,107.3l9.16-9.16h0Zm11.3,25L36.9,95.38l3-3,4.27,4.27ZM17.69,86.85,0,104.54,23.47,128l17.69-17.69Z"/><path class="cls-2" d="M108.18,43.3,128,23.47,104.53,0l-32,32L96,55.47h0l9.16-9.16L81.7,22.85l3-3ZM84.72,30.5,89,34.76l-3,3L81.7,33.51Z"/><polygon class="cls-3" points="61.96 34.31 51.2 23.47 46.85 23.47 23.47 46.94 23.47 59.74 29.87 66.14 61.96 34.31"/><polygon class="cls-4" points="68.27 91.74 61.87 98.14 53.34 98.14 29.87 74.67 29.87 66.14 36.27 59.74 68.27 91.74"/><path class="cls-5" d="M37.78,14.31,14.31,37.78l9.16,9.16,1.34-1.34,0,0h0L46.94,23.47Zm-3,7.65,3,3-4.27,4.27-3-3ZM23.47,0,0,23.47,11.29,34.76,34.76,11.29Z"/><path class="cls-5" d="M57.6,81.07,33.33,56.8A4.52,4.52,0,0,1,32,53.6h0a4.53,4.53,0,0,1,4.53-4.53h0a4.52,4.52,0,0,1,3.2,1.32L55.47,66.14,39.73,50.4a4.52,4.52,0,0,1-1.32-3.2h0a4.53,4.53,0,0,1,4.53-4.53h0A4.52,4.52,0,0,1,46.13,44L61.87,59.74,46.13,44a4.52,4.52,0,0,1-1.32-3.2h0a4.53,4.53,0,0,1,4.53-4.53h0a4.52,4.52,0,0,1,3.2,1.32L68.27,53.34,52.53,37.59a4.52,4.52,0,0,1-1.32-3.2h0a4.53,4.53,0,0,1,4.53-4.53h0a4.52,4.52,0,0,1,3.2,1.32L96,68.27v4.27L72.54,96H64L51.2,83.21V74.67Z"/><polygon class="cls-3" points="61.87 34.14 64.01 32 72.54 32 96.01 55.47 96.01 64.01 93.88 66.14 61.87 34.14"/></g></g></svg>