<svg width="1170" height="270" viewBox="0 0 1170 270" fill="none" xmlns="http://www.w3.org/2000/svg">
<g style="mix-blend-mode:screen" clip-path="url(#clip0_5583_15454)">
<path d="M-36.4814 27.1814C-36.4814 27.1814 85.979 5.80763 117.523 -72.4188C147.598 -147.097 271.96 -166.135 271.96 -166.135" stroke="#004680" stroke-width="2" stroke-miterlimit="10"/>
<path d="M-36.4814 58.4201C-36.4814 58.4201 108.535 34.1041 145.87 -57.362C181.476 -144.847 328.739 -166.135 328.739 -166.135" stroke="#004680" stroke-width="2" stroke-miterlimit="10"/>
<path d="M-36.4814 89.5722C-36.4814 89.5722 131.178 62.4006 174.303 -42.4782C215.353 -142.511 385.519 -166.135 385.519 -166.135" stroke="#004680" stroke-width="2" stroke-miterlimit="10"/>
<path d="M-36.4814 120.724C-36.4814 120.724 153.821 90.6972 202.736 -27.5078C249.231 -140.175 442.212 -166.135 442.212 -166.135" stroke="#004680" stroke-width="2" stroke-miterlimit="10"/>
<path d="M-36.4814 151.963C-36.4814 151.963 176.377 119.08 231.082 -12.5375C283.195 -137.925 498.991 -166.135 498.991 -166.135" stroke="#004680" stroke-width="2" stroke-miterlimit="10"/>
<path d="M-36.4814 183.115C-36.4814 183.115 199.019 147.29 259.515 2.43282C317.072 -135.588 555.771 -166.135 555.771 -166.135" stroke="#004680" stroke-width="2" stroke-miterlimit="10"/>
<path d="M-36.4814 214.267C-36.4814 214.267 221.662 175.587 287.862 17.3166C350.95 -133.252 612.55 -166.135 612.55 -166.135" stroke="#004680" stroke-width="2" stroke-miterlimit="10"/>
<path d="M-36.4814 245.506C-36.4814 245.506 244.218 203.97 316.294 32.3735C384.827 -131.002 669.243 -166.135 669.243 -166.135" stroke="#004680" stroke-width="2" stroke-miterlimit="10"/>
<path d="M-36.4814 276.658C-36.4814 276.658 266.861 232.266 344.641 47.3438C418.705 -128.666 726.023 -166.135 726.023 -166.135" stroke="#004680" stroke-width="2" stroke-miterlimit="10"/>
<path d="M-36.4814 307.897C-36.4814 307.897 289.504 260.563 373.074 62.3141C452.582 -126.329 782.802 -166.135 782.802 -166.135" stroke="#004680" stroke-width="2" stroke-miterlimit="10"/>
<path d="M-36.4814 339.049C-36.4814 339.049 312.06 288.859 401.42 77.2844C486.46 -124.079 839.582 -166.135 839.582 -166.135" stroke="#004680" stroke-width="2" stroke-miterlimit="10"/>
<path d="M-36.4814 370.201C-36.4814 370.201 334.702 317.156 429.853 92.1682C520.338 -121.743 896.361 -166.135 896.361 -166.135" stroke="#004680" stroke-width="2" stroke-miterlimit="10"/>
<path d="M-36.4814 401.44C-36.4814 401.44 357.345 345.452 458.286 107.225C554.215 -119.407 953.054 -166.135 953.054 -166.135" stroke="#004680" stroke-width="2" stroke-miterlimit="10"/>
<path d="M-36.4814 432.592C-36.4814 432.592 379.901 373.749 486.633 122.109C588.093 -117.157 1009.83 -166.135 1009.83 -166.135" stroke="#004680" stroke-width="2" stroke-miterlimit="10"/>
<path d="M-36.4814 463.744C-36.4814 463.744 402.544 402.045 515.066 137.079C621.97 -114.82 1066.61 -166.135 1066.61 -166.135" stroke="#004680" stroke-width="2" stroke-miterlimit="10"/>
<path d="M-36.4814 494.982C-36.4814 494.982 425.187 430.428 543.412 152.05C655.848 -112.484 1123.39 -166.135 1123.39 -166.135" stroke="#004680" stroke-width="2" stroke-miterlimit="10"/>
<path d="M-36.4814 526.135C-36.4814 526.135 447.743 458.638 571.845 167.02C689.725 -110.234 1180.09 -166.135 1180.09 -166.135" stroke="#004680" stroke-width="2" stroke-miterlimit="10"/>
<path d="M1204.8 270.428C1204.8 270.428 1037.14 297.599 994.018 402.478C952.881 502.511 782.802 526.135 782.802 526.135" stroke="#004680" stroke-width="2" stroke-miterlimit="10"/>
<path d="M1204.8 239.188C1204.8 239.188 1014.5 269.216 965.585 387.421C919.003 500.174 726.022 526.134 726.022 526.134" stroke="#004680" stroke-width="2" stroke-miterlimit="10"/>
<path d="M1204.8 208.037C1204.8 208.037 991.944 240.92 937.239 372.538C885.126 497.838 669.243 526.135 669.243 526.135" stroke="#004680" stroke-width="2" stroke-miterlimit="10"/>
<path d="M1204.8 176.885C1204.8 176.885 969.301 212.71 908.806 357.567C851.248 495.588 612.55 526.135 612.55 526.135" stroke="#004680" stroke-width="2" stroke-miterlimit="10"/>
<path d="M1204.8 145.646C1204.8 145.646 946.659 184.327 880.459 342.597C817.371 493.252 555.771 526.135 555.771 526.135" stroke="#004680" stroke-width="2" stroke-miterlimit="10"/>
<path d="M1204.8 114.494C1204.8 114.494 924.103 156.03 852.026 327.627C783.493 491.002 498.991 526.135 498.991 526.135" stroke="#004680" stroke-width="2" stroke-miterlimit="10"/>
<path d="M1204.8 83.3418C1204.8 83.3418 901.459 127.734 823.679 312.656C749.615 488.665 442.211 526.135 442.211 526.135" stroke="#004680" stroke-width="2" stroke-miterlimit="10"/>
<path d="M1204.8 52.1035C1204.8 52.1035 878.817 99.4374 795.247 297.686C715.738 486.329 385.519 526.135 385.519 526.135" stroke="#004680" stroke-width="2" stroke-miterlimit="10"/>
<path d="M1204.8 20.9512C1204.8 20.9512 856.261 71.1407 766.9 282.716C681.861 484.079 328.739 526.135 328.739 526.135" stroke="#004680" stroke-width="2" stroke-miterlimit="10"/>
<path d="M1204.8 -10.2012C1204.8 -10.2012 833.618 42.844 738.467 267.831C647.983 481.743 271.959 526.134 271.959 526.134" stroke="#004680" stroke-width="2" stroke-miterlimit="10"/>
<path d="M1204.8 -41.4395C1204.8 -41.4395 810.975 14.5478 710.034 252.775C614.105 479.407 215.18 526.135 215.18 526.135" stroke="#004680" stroke-width="2" stroke-miterlimit="10"/>
<path d="M1204.8 -72.5918C1204.8 -72.5918 788.419 -13.7489 681.688 237.891C580.228 477.157 158.4 526.135 158.4 526.135" stroke="#004680" stroke-width="2" stroke-miterlimit="10"/>
<path d="M1204.8 -103.744C1204.8 -103.744 765.776 -42.0456 653.254 222.92C546.35 474.82 101.707 526.134 101.707 526.134" stroke="#004680" stroke-width="2" stroke-miterlimit="10"/>
<path d="M1204.8 -134.982C1204.8 -134.982 743.134 -70.4283 624.908 207.95C512.386 472.484 44.9277 526.135 44.9277 526.135" stroke="#004680" stroke-width="2" stroke-miterlimit="10"/>
<path d="M1204.8 -166.135C1204.8 -166.135 720.578 -98.6385 596.475 192.98C478.509 470.234 -11.8516 526.135 -11.8516 526.135" stroke="#004680" stroke-width="2" stroke-miterlimit="10"/>
</g>
<defs>
<clipPath id="clip0_5583_15454">
<rect width="1245" height="694" fill="white" transform="translate(-37 -167)"/>
</clipPath>
</defs>
</svg>
