<svg width="141" height="151" viewBox="0 0 141 151" fill="none" xmlns="http://www.w3.org/2000/svg">
<path d="M29.6924 85.9377L29.4308 85.8705C29.4861 85.5954 29.7496 85.849 29.7465 85.5898C29.3958 85.4171 29.8826 85.1804 29.7029 85.0516C29.7331 85.0593 29.7755 84.9462 29.8862 84.9746C29.693 84.894 29.8709 84.8363 29.8395 84.7559C29.7872 84.7115 29.7737 84.7597 29.7053 84.7732L29.6733 84.5789C29.7526 84.5269 29.8814 84.529 29.8799 84.6113C30.0597 84.1614 30.7724 81.9984 30.7965 81.4878C30.6267 81.5166 30.6969 81.6896 30.4466 81.6977C30.3408 81.5362 30.5408 81.5152 30.4134 81.4308C30.7818 81.4634 30.5647 81.1596 30.9466 81.144L30.7534 81.0634L30.893 81.0269C30.8509 80.4063 30.8275 80.8757 31.0207 80.3776C31.0741 80.0709 30.8401 79.8661 30.9866 79.7281C30.9785 79.757 30.8389 79.7934 30.8102 79.7034C30.9866 79.728 30.746 79.4699 30.9279 79.4752C30.9293 79.3929 31.0168 79.157 30.7611 79.1844C30.8954 79.1672 31.005 78.968 31.0706 79.1192C31.0995 79.0543 31.1513 78.9849 31.1144 78.9238L31.017 79.0021C31.0569 78.7436 31.2758 78.6551 31.1077 78.4466L30.9928 78.5102C31.0131 78.3604 31.0381 78.2324 31.2858 78.234L31.313 78.4064C31.3704 78.1627 31.4035 78.0058 31.3394 77.7723L31.3077 77.8469C31.1491 77.5271 31.3381 76.1184 31.1163 75.7928L30.9056 75.8523L30.8139 75.6015C30.8085 75.6208 31.378 75.86 31.3122 75.8638C31.396 75.4099 31.9901 73.0924 32.2543 72.7262C32.4108 72.5907 32.5515 72.7818 32.5817 72.7896C32.5779 72.5716 32.4174 72.6441 32.4834 72.4853C32.5271 72.4448 32.6189 72.5407 32.6437 72.5678C32.6451 72.4855 32.7344 72.4361 32.6466 72.4032C32.5519 72.4719 32.344 72.3668 32.1822 72.3666L32.2745 72.1526L32.4099 72.2081C32.4335 72.1624 32.0653 71.9749 32.2051 71.7834C32.3854 71.4473 32.4584 71.032 32.6085 70.6881C32.6863 70.7184 32.715 70.8085 32.7437 70.8986C32.7673 70.8529 32.7687 70.7706 32.8399 70.7476C32.6674 70.7859 32.7925 70.57 32.7059 70.6098C32.4446 70.2327 32.8784 69.9927 32.7171 69.6825C32.4132 69.5735 27.5701 67.4929 27.2058 67.3684C27.2375 67.2938 27.2691 67.2192 27.3047 67.2077C27.2114 67.1941 27.118 67.3355 27.1467 67.4255L27.3399 67.5061C27.349 67.7048 27.2083 67.5137 27.1699 67.6898C27.0089 67.6485 27.0245 67.4768 27.0549 67.3296C26.9897 67.4472 26.8339 67.5416 26.9961 67.6556C26.8933 67.7532 26.8002 67.5846 26.692 67.7015C26.7026 67.8179 26.8205 68.0135 26.6902 68.0938L26.66 68.086C26.398 68.3288 26.762 68.6083 26.5081 68.8221L26.4659 68.7803C26.341 68.8412 26.4078 69.0651 26.2486 69.2102C26.2923 69.1698 26.4238 69.1622 26.4143 69.2734C26.2497 69.4379 26.3125 69.5987 26.1312 69.7071L26.2417 69.8905C26 70.5622 25.3101 73.2995 25.179 73.9996L25.1569 73.963C24.9334 75.0321 24.3221 77.1798 24.2314 78.314C24.0219 78.4462 24.0001 78.6783 23.8986 78.8486C23.996 78.7702 24.0986 78.8276 24.0669 78.9022C23.8985 79.4273 24.1595 78.957 24.089 79.5176C24.0875 80.1786 23.3511 82.5423 23.084 83.0731C23.2446 83.4244 22.9785 83.7591 23.0613 84.08L23.009 84.0356C23.0162 84.2028 22.8605 84.7209 22.7021 85.2487C22.5538 85.779 22.4404 86.339 22.4422 86.5255L22.4885 86.4754C22.5834 86.8304 22.3271 86.7439 22.204 86.9914C22.4718 86.9981 22.5801 87.305 22.5807 87.4188L22.5203 87.4033C22.5375 87.5731 22.7047 87.9777 22.695 88.2439L22.5542 88.2078C22.6686 88.4542 22.5325 88.8636 22.5196 89.0257C22.397 89.3869 22.0467 89.9067 22.1515 90.4194L21.6793 90.6805L21.7088 90.7295C21.7088 90.7295 26.6881 91.8219 27.8664 91.3493L28.01 91.3759L28.0095 91.262C28.1103 91.1329 27.9527 91.0408 28.0963 91.0673L28.0423 91.2602C28.113 91.1233 28.1692 91.2307 28.249 91.2925C28.2752 91.2373 28.3014 91.182 28.3552 91.1441C28.3002 91.1093 28.2867 91.1576 28.2585 91.1813C28.217 91.0983 28.1004 90.9754 28.1878 90.8944C28.2282 90.7498 28.43 90.9153 28.4758 90.7513C28.7413 89.879 29.0618 89.0415 29.1837 88.1427C29.2495 88.1389 29.2441 88.1582 29.2689 88.1853C29.2511 87.9017 29.3158 87.6702 29.2927 87.4059C29.3719 87.3539 29.4605 87.3457 29.5262 87.3419C29.3464 87.368 29.6313 85.9634 29.6924 85.9377Z" fill="#FAA017"/>
<path d="M68.0377 18.9236L67.7761 18.8564C67.8415 18.5838 68.0948 18.8349 68.0918 18.5757C67.7411 18.403 68.2279 18.1663 68.0555 18.0497C68.0857 18.0574 68.1308 17.9347 68.2388 17.9727C68.0457 17.8921 68.2236 17.8345 68.1921 17.754C68.1398 17.7096 68.1264 17.7578 68.0579 17.7713L68.0259 17.577C68.1052 17.525 68.224 17.5245 68.2326 17.6094C68.4123 17.1595 69.1223 15.0061 69.1491 14.4859C68.9793 14.5147 69.0496 14.6877 68.7993 14.6958C68.6934 14.5343 68.8934 14.5133 68.7687 14.4193C69.127 14.4493 68.92 14.1481 69.2992 14.1421L69.1087 14.0518L69.2484 14.0153C69.1961 13.3922 69.1828 13.8642 69.376 13.366C69.4267 13.069 69.1955 12.8546 69.3419 12.7165C69.3338 12.7454 69.1969 12.7723 69.1681 12.6822C69.3419 12.7165 69.104 12.4487 69.2859 12.4541C69.2873 12.3718 69.3749 12.1359 69.1091 12.1607C69.2406 12.1531 69.353 11.9442 69.4158 12.1051C69.4475 12.0305 69.4965 11.9707 69.4597 11.9096L69.3623 11.988C69.4022 11.7295 69.6211 11.641 69.4529 11.4325L69.3381 11.496C69.3685 11.3488 69.3834 11.2183 69.631 11.2198L69.6583 11.3922C69.7257 11.1512 69.7487 10.9917 69.6846 10.7582L69.6556 10.8231C69.497 10.5034 69.686 9.09467 69.4643 8.76904L69.2535 8.82859L69.1619 8.5777C69.1565 8.59698 69.7259 8.83621 69.6602 8.83999C69.7439 8.3861 70.338 6.06861 70.5995 5.71203C70.7561 5.57652 70.8968 5.76768 70.9269 5.77543C70.9232 5.55744 70.7627 5.62992 70.8287 5.47117C70.8723 5.43071 70.9669 5.51697 70.989 5.55364C70.9904 5.47134 71.0797 5.42192 70.9918 5.38902C70.8944 5.46736 70.6865 5.36232 70.5275 5.3525L70.6197 5.13846L70.7552 5.19394C70.7787 5.14831 70.4133 4.95109 70.5531 4.75963C70.7333 4.42352 70.8063 4.00823 70.9564 3.66437C71.0342 3.69469 71.0629 3.78473 71.089 3.88444C71.1125 3.83881 71.114 3.75651 71.1879 3.7238C71.0126 3.77183 71.1404 3.54626 71.0538 3.58603C70.7926 3.20891 71.2264 2.96891 71.065 2.65878C70.7612 2.54976 65.918 0.469093 65.5538 0.344569C65.5854 0.270013 65.617 0.19546 65.6526 0.183926C65.5593 0.170316 65.4659 0.311678 65.4946 0.401737L65.6878 0.48234C65.697 0.68105 65.5563 0.489903 65.5178 0.666052C65.3568 0.624712 65.3725 0.453036 65.4028 0.305815C65.3477 0.426 65.1818 0.517781 65.344 0.631785C65.2412 0.729409 65.1509 0.551182 65.04 0.677733C65.0506 0.794136 65.1712 0.980116 65.0281 1.06741L64.9979 1.05965C64.7359 1.30242 65.0999 1.58192 64.846 1.79576L64.8038 1.75392C64.6789 1.81486 64.7457 2.03872 64.5865 2.18386C64.6402 2.14598 64.7718 2.1384 64.7522 2.24706C64.5875 2.41148 64.6477 2.58195 64.4691 2.68077L64.5796 2.86419C64.3378 3.53589 63.6479 6.27316 63.5169 6.97328L63.4947 6.93659C63.2813 8.00829 62.66 10.1534 62.5693 11.2876C62.3625 11.4102 62.338 11.652 62.2364 11.8223C62.3338 11.7439 62.4365 11.8013 62.4048 11.8758C62.2364 12.401 62.4947 11.9402 62.4269 12.4912C62.4254 13.1523 61.6889 15.5159 61.4219 16.0467C61.5825 16.398 61.3163 16.7327 61.3991 17.0537L61.3469 17.0093C61.354 17.1765 61.1984 17.6946 61.04 18.2223C60.8917 18.7527 60.781 19.303 60.78 19.4991L60.8237 19.4587C60.9085 19.8111 60.6623 19.7273 60.5318 19.9625C60.8096 19.9718 60.9079 20.2761 60.9085 20.3899L60.8481 20.3744C60.8653 20.5442 61.0326 20.9488 61.0228 21.215L60.882 21.1789C60.9964 21.4253 60.8603 21.8347 60.8474 21.9968C60.7275 22.3484 60.3745 22.8778 60.4792 23.3904L60.0071 23.6516L60.0467 23.7031C60.0467 23.7031 65.026 24.7956 66.2016 24.3326L66.3452 24.3592L66.3473 24.2357C66.4381 24.104 66.2906 24.0144 66.4341 24.041L66.3802 24.2338C66.4508 24.0969 66.5071 24.2044 66.5842 24.2759C66.6104 24.2206 66.6366 24.1653 66.6904 24.1274C66.6354 24.0926 66.6219 24.1408 66.5863 24.1524C66.5448 24.0694 66.4282 23.9464 66.5155 23.8655C66.556 23.7209 66.7578 23.8863 66.8036 23.7224C67.0691 22.8501 67.3896 22.0126 67.5115 21.1138C67.58 21.1004 67.5719 21.1293 67.5967 21.1563C67.5789 20.8727 67.6436 20.6413 67.6205 20.377C67.6997 20.325 67.7883 20.3168 67.8568 20.3033C67.7044 20.3469 67.9893 18.9422 68.0377 18.9236Z" fill="#FAA017"/>
<path d="M43.807 108.051L43.5534 107.955C43.6235 107.704 43.8715 107.974 43.8758 107.727C43.5405 107.538 44.0313 107.364 43.8644 107.228C43.8945 107.236 43.9343 107.133 44.0523 107.173C43.8619 107.083 44.0444 107.047 44.0157 106.957C43.9735 106.915 43.9499 106.961 43.8841 106.965L43.8596 106.783C43.9462 106.743 44.0622 106.752 44.0635 106.825C44.2599 106.431 45.0804 104.461 45.1166 103.984C44.9495 104.003 45.0124 104.164 44.7574 104.15C44.6616 103.991 44.8562 103.99 44.7315 103.896C45.0945 103.948 44.8949 103.659 45.2787 103.675L45.0882 103.584L45.2252 103.557C45.1796 102.988 45.1569 103.416 45.3541 102.981C45.4067 102.715 45.1728 102.511 45.3239 102.394C45.3185 102.414 45.1715 102.438 45.1501 102.36C45.3239 102.394 45.0806 102.146 45.2699 102.163C45.2686 102.091 45.3608 101.877 45.1004 101.882C45.2293 101.884 45.3335 101.704 45.4018 101.846C45.4307 101.781 45.4871 101.733 45.4402 101.67L45.3455 101.738C45.3774 101.509 45.6009 101.442 45.43 101.243L45.3078 101.295C45.3355 101.157 45.3451 101.046 45.6001 101.06L45.6327 101.213C45.6948 100.991 45.7197 100.863 45.6529 100.639L45.624 100.704C45.46 100.404 45.6514 99.1403 45.4317 98.8461L45.2135 98.8935L45.1165 98.6619C45.1111 98.6812 45.6806 98.9204 45.6148 98.9242C45.7254 98.5288 46.2319 96.4473 46.4652 96.1144C46.6163 95.9982 46.7597 96.1797 46.7899 96.1875C46.7808 95.9888 46.623 96.0516 46.6862 95.9025C46.7272 95.8717 46.8217 95.9579 46.8465 95.985C46.8453 95.9123 46.9319 95.8725 46.844 95.8396C46.752 95.8987 46.5414 95.8032 46.3851 95.7838L46.4692 95.5987L46.6047 95.6541C46.6255 95.6182 46.25 95.4184 46.3918 95.2585C46.5512 94.9584 46.6208 94.5938 46.7527 94.2763C46.8305 94.3066 46.8619 94.387 46.8907 94.4771C46.9115 94.4411 46.913 94.3588 46.9841 94.3357C46.8143 94.3645 46.934 94.1678 46.8474 94.2076C46.5781 93.8594 46.991 93.6554 46.8243 93.3646C46.5204 93.2556 41.6537 91.2205 41.2868 91.1057C41.3157 91.0407 41.3447 90.9758 41.3803 90.9643C41.287 90.9507 41.209 91.0753 41.2303 91.1532L41.4262 91.2241C41.4408 91.4035 41.2974 91.222 41.2616 91.3885C41.1006 91.3472 41.1109 91.1948 41.1385 91.0573C41.0861 91.1678 40.9256 91.2403 41.0905 91.3446C40.9904 91.4326 40.8947 91.2736 40.7892 91.3809C40.8025 91.4877 40.9257 91.664 40.7981 91.7346L40.7679 91.7269C40.5167 91.9311 40.8861 92.1912 40.6504 92.3787L40.6081 92.3369C40.4859 92.3882 40.5582 92.5928 40.4171 92.7116C40.4682 92.6833 40.597 92.6854 40.5828 92.7748C40.4262 92.9103 40.4918 93.0615 40.326 93.1533L40.4418 93.3174C40.2217 93.9119 39.6939 96.3394 39.5341 96.9495L39.5193 96.925C39.3108 97.8636 38.6991 99.7425 38.6234 100.746C38.4219 100.85 38.3955 101.06 38.302 101.201C38.3967 101.132 38.4966 101.199 38.4704 101.255C38.3081 101.719 38.5703 101.322 38.4885 101.807C38.4629 102.4 37.6753 104.368 37.3923 104.802C37.5408 105.119 37.2734 105.381 37.3415 105.677L37.2993 105.636C37.3043 105.926 36.622 107.363 36.6136 107.702L36.6646 107.674C36.7273 107.99 36.4791 107.874 36.342 108.056C36.609 108.104 36.6825 108.381 36.6784 108.473L36.6307 108.451C36.6332 108.596 36.7683 108.961 36.7237 109.198L36.5883 109.143C36.6853 109.374 36.5104 109.691 36.4928 109.831C36.3388 110.112 35.9504 110.498 36.0156 110.959L35.5356 111.094L35.5651 111.143C35.5651 111.143 40.2661 113.115 41.4703 112.897L41.6058 112.953L41.6153 112.841C41.7208 112.734 41.5787 112.625 41.7168 112.671L41.6482 112.839C41.7235 112.724 41.7797 112.832 41.8441 112.91C41.8703 112.855 41.9039 112.812 41.965 112.786C41.9228 112.745 41.8992 112.79 41.8637 112.802C41.8349 112.712 41.7338 112.572 41.8258 112.513C41.8837 112.383 42.0572 112.572 42.1205 112.423C42.4805 111.637 42.8928 110.896 43.1146 110.064C43.1804 110.06 43.1723 110.089 43.187 110.113C43.2068 109.85 43.2889 109.633 43.3033 109.389C43.3899 109.349 43.4758 109.351 43.5416 109.347C43.3772 109.356 43.7714 108.062 43.807 108.051Z" fill="#FAA017"/>
<path d="M70.2405 112.067L69.9843 111.981C70.049 111.749 70.2923 111.998 70.304 111.763C69.9687 111.574 70.4541 111.419 70.2844 111.293C70.3146 111.301 70.3543 111.197 70.4724 111.238C70.292 111.15 70.4618 111.122 70.4304 111.041C70.3881 110.999 70.3646 111.045 70.3015 111.039L70.2742 110.867C70.3608 110.827 70.4742 110.846 70.4755 110.918C70.6665 110.544 71.452 108.699 71.4827 108.242C71.3183 108.251 71.3812 108.412 71.1262 108.398C71.0277 108.249 71.2224 108.247 71.0977 108.153C71.4606 108.205 71.2583 107.926 71.6321 107.939L71.4416 107.849L71.5786 107.822C71.5276 107.272 71.513 107.671 71.692 107.262C71.742 107.006 71.5026 106.821 71.641 106.712C71.6356 106.731 71.4886 106.755 71.4672 106.677C71.641 106.712 71.395 106.473 71.5843 106.49C71.5803 106.427 71.6698 106.223 71.4094 106.229C71.541 106.221 71.6398 106.06 71.7108 106.192C71.737 106.137 71.7935 106.089 71.7466 106.026L71.6546 106.085C71.681 105.875 71.9045 105.808 71.7309 105.619L71.6088 105.67C71.6338 105.542 71.6406 105.44 71.8956 105.454L71.931 105.598C71.9876 105.395 72.0126 105.267 71.9404 105.063L71.9141 105.118C71.7447 104.837 71.9046 103.648 71.6821 103.364L71.4767 103.404L71.3743 103.191C71.3689 103.211 71.9383 103.45 71.8753 103.444C71.9677 103.075 72.4291 101.116 72.6543 100.812C72.7927 100.703 72.9488 100.878 72.979 100.885C72.9672 100.696 72.8094 100.759 72.87 100.62C72.9109 100.589 73.0055 100.675 73.0303 100.702C73.029 100.63 73.1129 100.599 73.0251 100.567C72.933 100.626 72.7251 100.52 72.5661 100.511L72.6375 100.333L72.7757 100.378C72.7965 100.342 72.4183 100.152 72.5574 100.002C72.7114 99.7212 72.7655 99.3734 72.8893 99.0848C72.9772 99.1177 72.9986 99.1955 73.03 99.2759C73.0509 99.2399 73.0496 99.1673 73.1208 99.1442C72.951 99.173 73.0579 98.9834 72.9813 99.0257C72.7066 98.6968 73.1068 98.4999 72.9347 98.2283C72.6335 98.1096 67.7479 96.1422 67.3891 95.9984C67.4153 95.9431 67.4443 95.8781 67.4798 95.8666C67.3866 95.853 67.3113 95.968 67.3427 96.0485L67.5386 96.1194C67.5659 96.2917 67.4098 96.1173 67.3794 96.2645C67.2184 96.2232 67.2259 96.0805 67.2409 95.9499C67.1911 96.0508 67.0407 96.1259 67.1983 96.218C67.1008 96.2963 67.0024 96.1471 66.8996 96.2447C66.9156 96.3418 67.0415 96.5085 66.9139 96.5791L66.8837 96.5714C66.6352 96.7659 67.0073 97.0165 66.7769 97.1847L66.7347 97.1428C66.6125 97.1941 66.7002 97.382 66.5491 97.4982C66.5901 97.4674 66.7189 97.4695 66.7147 97.5614C66.5609 97.6873 66.6265 97.8385 66.466 97.9109L66.5919 98.0776C66.3826 98.6336 65.9126 100.931 65.7636 101.503L65.7388 101.476C65.5538 102.369 64.9846 104.135 64.9223 105.09C64.7236 105.184 64.6998 105.384 64.6091 105.516C64.7011 105.457 64.8037 105.514 64.7774 105.57C64.6286 105.986 64.88 105.627 64.809 106.074C64.7996 106.609 64.0444 108.461 63.7694 108.866C63.9234 109.164 63.6587 109.416 63.7348 109.684L63.6926 109.642C63.703 109.913 63.045 111.264 63.0446 111.574L63.0856 111.543C63.1537 111.839 62.9055 111.724 62.7684 111.906C63.0354 111.954 63.1116 112.221 63.1102 112.303L63.0525 112.278C63.0577 112.414 63.1954 112.77 63.169 112.98L63.0335 112.925C63.1333 113.147 62.9738 113.447 62.9488 113.575C62.8002 113.836 62.4199 114.193 62.4905 114.635L62.0159 114.751L62.0454 114.8C62.0454 114.8 66.7545 116.743 67.9479 116.563L68.0834 116.619L68.103 116.51C68.2058 116.413 68.0636 116.304 68.1991 116.359L68.1332 116.518C68.2085 116.403 68.262 116.52 68.329 116.589C68.3626 116.546 68.3862 116.5 68.4473 116.475C68.4051 116.433 68.3842 116.469 68.3487 116.48C68.3172 116.4 68.2133 116.27 68.3054 116.211C68.3605 116.091 68.5368 116.27 68.5974 116.131C68.9439 115.393 69.3427 114.7 69.5537 113.906C69.6195 113.902 69.6114 113.931 69.6262 113.956C69.6332 113.699 69.7227 113.495 69.7317 113.27C69.8183 113.23 69.9015 113.241 69.9673 113.237C69.8424 113.298 70.2049 112.079 70.2405 112.067Z" fill="#FAA017"/>
<path d="M8.60547 102.103L8.34921 102.016C8.41392 101.785 8.65721 102.033 8.66891 101.799C8.33361 101.609 8.81899 101.455 8.64937 101.329C8.67956 101.336 8.71929 101.233 8.83735 101.274C8.65694 101.186 8.82673 101.157 8.79529 101.077C8.75306 101.035 8.72952 101.081 8.66644 101.075L8.64922 100.905C8.73584 100.865 8.84924 100.884 8.85049 100.957C9.04154 100.582 9.82696 98.7373 9.85773 98.2801C9.6933 98.2896 9.75618 98.4504 9.50119 98.4366C9.40273 98.2873 9.59736 98.2855 9.47265 98.1915C9.83564 98.2434 9.63332 97.9641 10.0071 97.9774L9.81663 97.8872L9.95357 97.8603C9.90258 97.3098 9.88797 97.7091 10.067 97.3003C10.1143 97.0541 9.87763 96.859 10.016 96.7498C10.0106 96.7691 9.86363 96.7934 9.84225 96.7156C10.016 96.7498 9.77004 96.511 9.95926 96.5285C9.95531 96.4655 10.0448 96.2611 9.78443 96.2666C9.91597 96.259 10.0148 96.0984 10.0858 96.2303C10.112 96.175 10.1685 96.1275 10.1216 96.0638L10.0295 96.1229C10.0587 95.903 10.2795 95.846 10.1059 95.6567L9.98376 95.7081C10.0088 95.5801 10.0183 95.4689 10.2706 95.4923L10.306 95.6358C10.3626 95.4333 10.3876 95.3054 10.3153 95.1008L10.2891 95.1561C10.1197 94.8749 10.2795 93.6861 10.0571 93.4016L9.8517 93.4418L9.74929 93.2295C9.7439 93.2488 10.3133 93.488 10.2503 93.4821C10.3427 93.1131 10.8041 91.1543 11.0293 90.8504C11.1777 90.7439 11.3238 90.9157 11.354 90.9235C11.3422 90.7344 11.1844 90.7973 11.245 90.6578C11.2859 90.627 11.3805 90.7132 11.4053 90.7403C11.404 90.6676 11.4879 90.6375 11.4 90.6046C11.308 90.6637 11.1001 90.5586 10.9411 90.5488L11.0124 90.3708L11.1506 90.4165C11.1715 90.3805 10.7933 90.1904 10.9324 90.0401C11.0864 89.7593 11.1405 89.4115 11.2643 89.1229C11.3421 89.1532 11.3736 89.2336 11.405 89.3141C11.4259 89.2781 11.4246 89.2054 11.4958 89.1823C11.3259 89.2111 11.4329 89.0215 11.3563 89.0638C11.0816 88.7349 11.4818 88.538 11.3097 88.2664C11.0085 88.1477 6.12293 86.1802 5.76409 86.0364C5.79033 85.9812 5.81929 85.9162 5.85487 85.9047C5.76161 85.8911 5.68629 86.0061 5.71773 86.0865L5.91359 86.1575C5.94089 86.3299 5.78474 86.1554 5.75436 86.3027C5.59335 86.2613 5.60093 86.1186 5.61585 85.988C5.56607 86.0889 5.41565 86.164 5.57323 86.2561C5.47583 86.3345 5.37739 86.1852 5.2746 86.2828C5.30064 86.3825 5.4165 86.5466 5.28891 86.6172L5.25873 86.6094C5.01019 86.804 5.39238 87.0571 5.15193 87.2228L5.10971 87.181C4.98751 87.2323 5.07252 87.4297 4.92408 87.5363C4.96505 87.5055 5.09387 87.5076 5.08973 87.5995C4.9359 87.7254 5.00148 87.8766 4.84101 87.9491L4.96696 88.1158C4.75757 88.6718 4.28764 90.9694 4.13862 91.5409L4.12386 91.5165C3.92881 92.4069 3.36965 94.1752 3.30739 95.1307C3.10864 95.2243 3.08488 95.4249 2.99412 95.5566C3.08613 95.4976 3.18874 95.5549 3.1625 95.6102C3.01368 96.0267 3.2651 95.6676 3.19408 96.1144C3.18468 96.6494 2.42943 98.5017 2.15445 98.9065C2.30843 99.2044 2.04374 99.4568 2.11991 99.7244L2.07765 99.6826C2.08805 99.954 1.43007 101.304 1.42968 101.614L1.48072 101.586C1.5488 101.882 1.30067 101.767 1.16354 101.949C1.43057 101.997 1.50941 102.255 1.50527 102.347L1.44758 102.322C1.45278 102.457 1.59059 102.813 1.56416 103.023L1.42865 102.968C1.52836 103.19 1.35889 103.487 1.34396 103.618C1.19533 103.879 0.81506 104.236 0.885641 104.678L0.411055 104.794L0.440519 104.843C0.440519 104.843 5.14964 106.786 6.34302 106.607L6.47853 106.662L6.49811 106.553C6.60091 106.456 6.45879 106.347 6.59428 106.402L6.5283 106.561C6.6036 106.446 6.65714 106.563 6.7141 106.63C6.7477 106.586 6.77127 106.541 6.83237 106.515C6.79014 106.473 6.76926 106.509 6.73368 106.521C6.70224 106.44 6.5984 106.31 6.69041 106.251C6.74559 106.131 6.92186 106.311 6.98243 106.171C7.32895 105.434 7.72776 104.74 7.93879 103.947C8.00456 103.943 7.99645 103.972 8.01119 103.997C8.02828 103.743 8.1178 103.538 8.11674 103.311C8.20336 103.271 8.28656 103.282 8.35233 103.278C8.20731 103.334 8.56989 102.114 8.60547 102.103Z" fill="#FAA017"/>
<path d="M102.204 35.4772L101.958 35.3933C102.022 35.1619 102.266 35.4104 102.277 35.1757C101.942 34.9862 102.428 34.8318 102.258 34.7056C102.288 34.7133 102.328 34.6098 102.446 34.6505C102.255 34.5602 102.435 34.5341 102.404 34.4537C102.362 34.4118 102.338 34.4575 102.275 34.4516L102.258 34.2818C102.334 34.2395 102.458 34.2608 102.459 34.3335C102.65 33.9588 103.435 32.1142 103.466 31.657C103.302 31.6665 103.365 31.8273 103.11 31.8135C103.011 31.6642 103.206 31.6625 103.081 31.5685C103.444 31.6204 103.242 31.3411 103.626 31.3569L103.435 31.2667L103.572 31.2398C103.521 30.6893 103.507 31.0886 103.686 30.6799C103.733 30.4336 103.496 30.2385 103.635 30.1294C103.629 30.1487 103.482 30.1729 103.461 30.0951C103.635 30.1294 103.389 29.8905 103.578 29.9081C103.574 29.8451 103.663 29.6407 103.403 29.6462C103.535 29.6386 103.633 29.478 103.704 29.6099C103.731 29.5546 103.787 29.5071 103.75 29.446L103.658 29.505C103.687 29.2851 103.908 29.2281 103.735 29.0389L103.612 29.0902C103.637 28.9623 103.647 28.851 103.899 28.8745L103.935 29.0179C103.991 28.8154 104.016 28.6875 103.944 28.4829L103.918 28.5382C103.748 28.257 103.908 27.0682 103.686 26.7837L103.48 26.824L103.378 26.6117C103.373 26.631 103.942 26.8702 103.879 26.8643C103.971 26.4953 104.433 24.5365 104.658 24.2326C104.806 24.1261 104.952 24.2979 104.983 24.3056C104.971 24.1166 104.813 24.1794 104.874 24.0399C104.915 24.0091 105.009 24.0954 105.034 24.1224C105.033 24.0498 105.117 24.0196 105.029 23.9868C104.937 24.0458 104.729 23.9408 104.57 23.9309L104.651 23.7555L104.789 23.8013C104.81 23.7653 104.432 23.5752 104.571 23.4249C104.725 23.144 104.779 22.7962 104.903 22.5076C104.981 22.5379 105.012 22.6183 105.044 22.6988C105.065 22.6628 105.063 22.5901 105.134 22.567C104.965 22.5958 105.072 22.4062 104.995 22.4486C104.72 22.1197 105.121 21.9227 104.948 21.6512C104.647 21.5325 99.7616 19.565 99.4028 19.4212C99.429 19.3659 99.458 19.301 99.4935 19.2895C99.4003 19.2759 99.325 19.3909 99.3464 19.4687L99.5422 19.5396C99.5695 19.712 99.4134 19.5376 99.383 19.6848C99.222 19.6434 99.2295 19.5007 99.2545 19.3728C99.2047 19.4737 99.0543 19.5487 99.2119 19.6409C99.1145 19.7192 99.0161 19.5699 98.9133 19.6675C98.9393 19.7672 99.0552 19.9313 98.9276 20.0019L98.8974 19.9942C98.6489 20.1887 99.0311 20.4419 98.7906 20.6075L98.7484 20.5657C98.6262 20.617 98.7139 20.8048 98.5627 20.9211C98.6138 20.8928 98.7326 20.8923 98.7284 20.9843C98.5746 21.1101 98.6402 21.2613 98.4797 21.3338L98.6056 21.5005C98.3963 22.0565 97.9263 24.3541 97.7773 24.9256L97.7626 24.9012C97.5675 25.7916 97.0083 27.5599 96.946 28.5154C96.7473 28.6091 96.7236 28.8097 96.6328 28.9414C96.7248 28.8823 96.8274 28.9397 96.8012 28.9949C96.6496 29.4211 96.9038 29.0523 96.8328 29.4991C96.8234 30.0341 96.0681 31.8865 95.7931 32.2913C95.9471 32.5892 95.6824 32.8416 95.7586 33.1092L95.7163 33.0673C95.7267 33.3387 95.0687 34.689 95.0684 34.9989L95.1093 34.9681C95.1774 35.2646 94.9292 35.1492 94.7921 35.3311C95.0591 35.379 95.138 35.6369 95.1339 35.7288L95.0762 35.7037C95.0814 35.8394 95.2192 36.1951 95.1928 36.4054L95.0573 36.3499C95.157 36.5719 94.9875 36.8694 94.9726 36.9999C94.8239 37.2615 94.4437 37.6186 94.5143 38.0604L94.0397 38.1763L94.0691 38.2252C94.0691 38.2252 98.7783 40.168 99.9717 39.9887L100.107 40.0442L100.117 39.9329C100.219 39.8353 100.077 39.7265 100.213 39.7819L100.147 39.9407C100.232 39.8282 100.276 39.9428 100.343 40.0117C100.366 39.966 100.4 39.923 100.461 39.8973C100.419 39.8555 100.398 39.8915 100.362 39.903C100.331 39.8226 100.227 39.6926 100.319 39.6335C100.374 39.5133 100.551 39.6929 100.611 39.5535C100.958 38.8157 101.356 38.1223 101.567 37.329C101.633 37.3253 101.625 37.3542 101.64 37.3786C101.657 37.1246 101.736 36.9177 101.745 36.6926C101.822 36.6503 101.915 36.6639 101.981 36.6601C101.796 36.7056 102.168 35.4887 102.204 35.4772Z" fill="#FAA017"/>
<path d="M79.1804 41.1L78.9269 41.0039C78.9916 40.7725 79.2349 41.0209 79.2439 40.7959C78.9086 40.6065 79.394 40.452 79.2243 40.3258C79.2545 40.3336 79.2943 40.2301 79.4123 40.2707C79.2319 40.1831 79.4044 40.1447 79.373 40.0643C79.3308 40.0224 79.3072 40.068 79.2414 40.0718L79.2141 39.8995C79.3008 39.8597 79.4141 39.8785 79.4154 39.9511C79.6064 39.5765 80.3919 37.7319 80.42 37.2843C80.2555 37.2938 80.3184 37.4546 80.0634 37.4408C79.965 37.2915 80.1596 37.2898 80.0349 37.1958C80.3979 37.2476 80.1955 36.9683 80.5794 36.9842L80.3889 36.894L80.5258 36.8671C80.4748 36.3166 80.4602 36.7159 80.6393 36.3072C80.6892 36.0513 80.4499 35.8658 80.5883 35.7566C80.5829 35.7759 80.4359 35.8002 80.4145 35.7224C80.5883 35.7567 80.3423 35.5178 80.5315 35.5354C80.5303 35.4627 80.6171 35.268 80.3567 35.2735C80.4855 35.2756 80.5871 35.1052 80.658 35.2372C80.6843 35.1819 80.7407 35.1344 80.6938 35.0707L80.6018 35.1297C80.6309 34.9098 80.8518 34.8528 80.6782 34.6636L80.556 34.7149C80.581 34.5869 80.5905 34.4757 80.8428 34.4991L80.8782 34.6426C80.9349 34.4401 80.9598 34.3122 80.8876 34.1076L80.8614 34.1629C80.6919 33.8817 80.8518 32.6929 80.6294 32.4084L80.424 32.4487L80.3216 32.2363C80.3162 32.2556 80.8856 32.4948 80.8225 32.489C80.9149 32.12 81.3764 30.1612 81.6016 29.8573C81.7399 29.7481 81.8961 29.9226 81.9263 29.9303C81.9144 29.7412 81.7566 29.8041 81.8172 29.6646C81.8582 29.6338 81.9554 29.7105 81.9775 29.7471C81.9736 29.6841 82.0602 29.6443 81.9723 29.6114C81.8803 29.6705 81.6724 29.5654 81.5134 29.5556L81.5847 29.3776L81.7202 29.433C81.731 29.3944 81.3628 29.2069 81.5019 29.0566C81.6559 28.7758 81.71 28.428 81.8366 28.1297C81.9244 28.1626 81.9458 28.2405 81.9773 28.3209C81.9981 28.2849 81.9969 28.2122 82.068 28.1892C81.8982 28.2179 82.0051 28.0283 81.9286 28.0707C81.6539 27.7418 82.0541 27.5448 81.8819 27.2732C81.5808 27.1546 76.6952 25.1871 76.3364 25.0432C76.3653 24.9783 76.3916 24.9231 76.4271 24.9115C76.3339 24.8979 76.2586 25.0129 76.29 25.0933L76.4859 25.1643C76.5132 25.3367 76.357 25.1622 76.3266 25.3095C76.1656 25.2681 76.1732 25.1254 76.1881 24.9949C76.1383 25.0958 75.9879 25.1708 76.1455 25.263C76.0481 25.3413 75.9497 25.192 75.8469 25.2896C75.8628 25.3867 75.9888 25.5534 75.8612 25.624L75.831 25.6163C75.5852 25.8012 75.9546 26.0614 75.7242 26.2296L75.682 26.1878C75.5598 26.2391 75.6448 26.4366 75.4963 26.5431C75.5373 26.5123 75.6661 26.5144 75.662 26.6064C75.5055 26.7419 75.5738 26.8834 75.4133 26.9559L75.5392 27.1226C75.3298 27.6786 74.8599 29.9763 74.7082 30.5574L74.6834 30.5303C74.5011 31.4137 73.9291 33.1891 73.8669 34.1446C73.6681 34.2382 73.6444 34.4388 73.5536 34.5705C73.6457 34.5115 73.7482 34.5688 73.722 34.6241C73.5732 35.0406 73.8246 34.6815 73.7536 35.1283C73.7442 35.6633 72.989 37.5157 72.714 37.9205C72.868 38.2184 72.6032 38.4708 72.6794 38.7383L72.6372 38.6965C72.6476 38.9679 71.9896 40.3181 71.9892 40.6281L72.0402 40.5999C72.1083 40.8964 71.8602 40.781 71.723 40.9628C71.9874 41.0204 72.0662 41.2783 72.0648 41.3606L72.0071 41.3354C72.0123 41.4711 72.1501 41.8269 72.1237 42.0372L71.9882 41.9817C72.0879 42.2036 71.9285 42.5038 71.9035 42.6317C71.7549 42.8933 71.3746 43.2503 71.4452 43.6922L70.9706 43.808L71.0001 43.8569C71.0001 43.8569 75.7092 45.7998 76.9025 45.6205L77.038 45.6759L77.0576 45.5673C77.1604 45.4697 77.0183 45.3608 77.1565 45.4066L77.0905 45.5654C77.1658 45.4504 77.2193 45.5675 77.2864 45.6364C77.32 45.5933 77.3435 45.5477 77.4046 45.5221C77.3624 45.4802 77.3416 45.5162 77.306 45.5277C77.2745 45.4473 77.1707 45.3173 77.2654 45.2486C77.3206 45.1284 77.4941 45.3177 77.5574 45.1685C77.9039 44.4307 78.3027 43.7373 78.5138 42.9441C78.5795 42.9403 78.5715 42.9692 78.5862 42.9937C78.5932 42.7371 78.6827 42.5327 78.6917 42.3077C78.7783 42.2679 78.8615 42.2789 78.9273 42.2751C78.7722 42.3283 79.1348 41.1089 79.1804 41.1Z" fill="#FAA017"/>
<path d="M52.6097 140.477L52.3534 140.391C52.4181 140.16 52.6614 140.408 52.6731 140.173C52.3378 139.984 52.8232 139.83 52.6536 139.703C52.6838 139.711 52.7235 139.608 52.8416 139.648C52.6612 139.561 52.8309 139.532 52.7995 139.451C52.7573 139.41 52.7337 139.455 52.6707 139.449L52.6434 139.277C52.73 139.237 52.8434 139.256 52.8446 139.329C53.0357 138.954 53.8211 137.109 53.8519 136.652C53.6875 136.662 53.7503 136.823 53.4954 136.809C53.3969 136.659 53.5915 136.658 53.4668 136.564C53.8298 136.615 53.6275 136.336 54.0012 136.349L53.8108 136.259L53.9477 136.232C53.8967 135.682 53.8821 136.081 54.0611 135.672C54.1111 135.417 53.8718 135.231 54.0101 135.122C54.0047 135.141 53.8678 135.168 53.8364 135.088C54.0102 135.122 53.7642 134.883 53.9534 134.901C53.9494 134.838 54.0389 134.633 53.7786 134.639C53.9101 134.631 54.009 134.471 54.0799 134.602C54.1062 134.547 54.1626 134.5 54.1157 134.436L54.0237 134.495C54.0501 134.285 54.2737 134.218 54.1001 134.029L53.9779 134.08C54.0029 133.952 54.0124 133.841 54.2647 133.864L54.3001 134.008C54.3567 133.805 54.3817 133.677 54.3095 133.473L54.2833 133.528C54.1139 133.247 54.2737 132.058 54.0512 131.774L53.8459 131.814L53.7435 131.602C53.7381 131.621 54.3075 131.86 54.2444 131.854C54.3368 131.485 54.7983 129.526 55.0234 129.223C55.1618 129.113 55.318 129.288 55.3482 129.296C55.3363 129.107 55.1785 129.169 55.2391 129.03C55.2801 128.999 55.3746 129.085 55.3994 129.112C55.3981 129.04 55.4821 129.01 55.3942 128.977C55.3022 129.036 55.0943 128.931 54.9352 128.921L55.0066 128.743L55.1448 128.789C55.1656 128.753 54.7874 128.563 54.9265 128.412C55.0805 128.131 55.1346 127.784 55.2585 127.495C55.3463 127.528 55.3677 127.606 55.3992 127.686C55.42 127.65 55.4187 127.577 55.4899 127.554C55.3201 127.583 55.427 127.394 55.3505 127.436C55.0757 127.107 55.4759 126.91 55.3038 126.638C55.0027 126.52 50.1171 124.552 49.7582 124.409C49.7845 124.353 49.8134 124.288 49.849 124.277C49.7558 124.263 49.6804 124.378 49.7119 124.459L49.9078 124.53C49.9351 124.702 49.7789 124.528 49.7485 124.675C49.5875 124.633 49.5951 124.491 49.61 124.36C49.5602 124.461 49.4098 124.536 49.5674 124.628C49.47 124.707 49.3715 124.557 49.2687 124.655C49.2847 124.752 49.4107 124.919 49.2831 124.989L49.2529 124.982C49.0044 125.176 49.3765 125.427 49.1461 125.595L49.1039 125.553C48.9817 125.604 49.0694 125.792 48.9182 125.908C48.9592 125.878 49.088 125.88 49.0839 125.972C48.93 126.097 48.9956 126.249 48.8352 126.321L48.9611 126.488C48.7517 127.044 48.2818 129.341 48.1328 129.913L48.108 129.886C47.923 130.779 47.3537 132.545 47.2915 133.5C47.0927 133.594 47.069 133.794 46.9782 133.926C47.0702 133.867 47.1728 133.924 47.1466 133.98C46.9978 134.396 47.2492 134.037 47.1782 134.484C47.1688 135.019 46.4135 136.871 46.1386 137.276C46.2925 137.574 46.0278 137.826 46.104 138.094L46.0618 138.052C46.0721 138.324 45.4142 139.674 45.4138 139.984L45.4648 139.956C45.5329 140.252 45.2847 140.137 45.1476 140.318C45.4146 140.366 45.4935 140.624 45.4894 140.716L45.4317 140.691C45.4369 140.827 45.5747 141.183 45.5455 141.402L45.4101 141.347C45.5098 141.569 45.3503 141.869 45.3254 141.997C45.1767 142.259 44.7965 142.616 44.867 143.058L44.3925 143.173L44.4219 143.222C44.4219 143.222 49.1311 145.165 50.3244 144.986L50.4599 145.041L50.4795 144.933C50.5823 144.835 50.4402 144.726 50.5756 144.782L50.5097 144.94C50.585 144.825 50.6385 144.942 50.7056 145.011C50.7392 144.968 50.7627 144.923 50.8238 144.897C50.7816 144.855 50.7607 144.891 50.7252 144.903C50.6937 144.822 50.5899 144.692 50.6819 144.633C50.737 144.513 50.9133 144.693 50.9739 144.553C51.3204 143.815 51.7192 143.122 51.9302 142.329C51.996 142.325 51.9879 142.354 52.0027 142.378C52.0097 142.122 52.0992 141.917 52.1082 141.692C52.1948 141.652 52.278 141.664 52.3438 141.66C52.2015 141.706 52.5741 140.489 52.6097 140.477Z" fill="#FAA017"/>
<path d="M64.4124 82.4202L64.1588 82.3241C64.2343 82.0541 64.4796 82.3342 64.4893 82.068C64.1567 81.8689 64.6556 81.6662 64.4887 81.5304C64.5188 81.5381 64.5613 81.425 64.6793 81.4656C64.4915 81.3658 64.6741 81.3299 64.6454 81.2399C64.6032 81.198 64.5796 81.2437 64.5139 81.2474L64.502 81.0584C64.5913 81.009 64.7047 81.0277 64.7032 81.1101C64.9205 80.6801 65.7896 78.5366 65.8493 78.0145C65.6822 78.0336 65.7269 78.2208 65.4819 78.2096C65.3889 78.041 65.5862 78.0296 65.4716 77.9382C65.8345 77.99 65.6403 77.6818 66.0268 77.688L65.8364 77.5978L65.9733 77.5709C65.9412 76.9529 65.9178 77.4223 66.1184 76.9364C66.1791 76.642 65.9479 76.4276 66.1044 76.2921C66.099 76.3114 65.9493 76.3453 65.9306 76.2578C66.1044 76.2921 65.8665 76.0243 66.0557 76.0419C66.0572 75.9596 66.1521 75.7359 65.8917 75.7414C66.0233 75.7338 66.1429 75.5372 66.1958 75.6954C66.2247 75.6305 66.2865 75.5637 66.2497 75.5026L66.155 75.5713C66.1922 75.3225 66.4184 75.2462 66.253 75.028L66.1281 75.089C66.1584 74.9418 66.1807 74.8235 66.4284 74.825L66.4584 74.9877C66.5258 74.7467 66.5561 74.5995 66.492 74.366L66.4631 74.4309C66.3145 74.1137 66.5383 72.7346 66.324 72.4212L66.1031 72.4782L66.0115 72.2273C66.0061 72.2466 66.5702 72.5051 66.5071 72.4992C66.6284 72.0653 67.199 69.7935 67.4477 69.444C67.6016 69.3181 67.7449 69.4996 67.7724 69.517C67.7687 69.299 67.6082 69.3715 67.6742 69.2127C67.7279 69.1748 67.8096 69.2682 67.8317 69.3048C67.8332 69.2225 67.9225 69.1731 67.8346 69.1402C67.7399 69.2089 67.532 69.1039 67.373 69.0941L67.4625 68.8897L67.598 68.9451C67.6215 68.8995 67.2561 68.7023 67.3932 68.5205C67.5634 68.1818 67.641 67.7884 67.7911 67.4445C67.8689 67.4748 67.8977 67.5649 67.9264 67.6549C67.9499 67.6093 67.9514 67.527 68.0226 67.5039C67.8501 67.5423 67.9651 67.3238 67.8885 67.3662C67.6246 66.9987 68.0456 66.7657 67.8843 66.4556C67.5831 66.3369 62.7245 64.273 62.3603 64.1485C62.3892 64.0835 62.4209 64.009 62.4564 63.9975C62.3632 63.9839 62.2825 64.1182 62.3012 64.2056L62.497 64.2766C62.5062 64.4753 62.3655 64.2842 62.3297 64.4507C62.1687 64.4093 62.1816 64.2473 62.212 64.1001C62.1568 64.2203 61.9937 64.3024 62.1559 64.4164C62.0531 64.514 61.9628 64.3358 61.8519 64.4623C61.8625 64.5787 61.9857 64.7551 61.8528 64.845L61.8226 64.8372C61.566 65.0607 61.93 65.3402 61.6888 65.547L61.6466 65.5051C61.5217 65.5661 61.5912 65.7803 61.4448 65.9183C61.4985 65.8805 61.6173 65.88 61.6104 65.9816C61.4485 66.1364 61.5114 66.2972 61.3428 66.3986L61.456 66.5723C61.2223 67.2151 60.6252 69.8522 60.4391 70.5175L60.4271 70.4834C60.1869 71.4966 59.5267 73.549 59.4166 74.6369C59.2125 74.7499 59.1807 74.9794 59.0845 75.1304C59.1792 75.0617 59.2818 75.1191 59.2502 75.1936C59.067 75.6943 59.3501 75.2606 59.2575 75.7846C59.2212 76.416 58.3595 78.5718 58.0629 79.0537C58.2061 79.3902 57.9279 79.6908 57.9806 80.004L57.9384 79.9622C57.9353 80.2818 57.2052 81.8512 57.1786 82.2164L57.2323 82.1786C57.2795 82.5111 57.0414 82.3983 56.8962 82.609C57.1632 82.6569 57.2313 82.9535 57.2245 83.0551L57.1668 83.0299C57.1666 83.1849 57.2809 83.5863 57.2436 83.8351L57.1082 83.7796C57.2025 84.0209 57.0168 84.3763 56.9837 84.5331C56.8216 84.8429 56.4198 85.2771 56.4641 85.7742L55.9788 85.9286L56.0055 85.9872C56.0055 85.9872 60.6958 87.9976 61.9134 87.7315L62.0489 87.7869L62.0712 87.6686C62.1794 87.5517 62.0399 87.4332 62.1754 87.4887L62.1014 87.6763C62.1922 87.5446 62.2329 87.6688 62.2973 87.7473C62.3336 87.6946 62.3598 87.6394 62.4236 87.6041C62.3814 87.5622 62.3578 87.6078 62.3222 87.6194C62.2935 87.5293 62.195 87.38 62.2897 87.3113C62.3503 87.1719 62.5212 87.3708 62.5871 87.212C62.9761 86.3611 63.4099 85.5424 63.6634 84.636C63.7292 84.6322 63.7211 84.6611 63.7331 84.6952C63.761 84.4026 63.8586 84.1693 63.8683 83.9031C63.9576 83.8537 64.0408 83.8647 64.1066 83.8609C63.9402 83.8389 64.364 82.4388 64.4124 82.4202Z" fill="#FAA017"/>
<path d="M31.8167 34.4466L31.5631 34.3505C31.6386 34.0805 31.8839 34.3605 31.8936 34.0943C31.561 33.8952 32.0599 33.6925 31.8929 33.5567C31.9231 33.5644 31.9656 33.4513 32.0836 33.492C31.8958 33.3921 32.0784 33.3563 32.0497 33.2662C32.0074 33.2244 31.9839 33.27 31.9181 33.2738L31.9063 33.0847C31.9856 33.0327 32.109 33.0541 32.1075 33.1364C32.3148 32.7039 33.1939 30.5629 33.2536 30.0408C33.0864 30.0599 33.1412 30.2497 32.8862 30.2359C32.7932 30.0673 32.9905 30.0559 32.8759 29.9645C33.2388 30.0164 33.0446 29.7082 33.4311 29.7144L33.2407 29.6241L33.3776 29.5973C33.3555 28.9819 33.312 29.4461 33.5227 28.9628C33.5834 28.6683 33.3522 28.4539 33.5087 28.3184C33.5033 28.3377 33.3536 28.3716 33.3349 28.2841C33.5087 28.3184 33.2708 28.0506 33.46 28.0682C33.4615 27.9859 33.5564 27.7623 33.296 27.7677C33.4275 27.7602 33.5372 27.561 33.6 27.7218C33.629 27.6569 33.6908 27.5901 33.654 27.5289L33.5593 27.5976C33.5965 27.3488 33.8227 27.2726 33.6572 27.0544L33.5323 27.1153C33.5627 26.9681 33.5877 26.8402 33.8326 26.8514L33.8626 27.0141C33.93 26.7731 33.9604 26.6258 33.9064 26.3949L33.8774 26.4598C33.7288 26.1426 33.9527 24.7636 33.7383 24.4502L33.5276 24.5097L33.4359 24.2589C33.4305 24.2781 33.9845 24.534 33.9315 24.5308C34.0529 24.0969 34.6234 21.825 34.8721 21.4755C35.026 21.3496 35.1693 21.5311 35.1968 21.5485C35.1931 21.3305 35.0326 21.403 35.0986 21.2442C35.1422 21.2038 35.2341 21.2997 35.2562 21.3364C35.2576 21.2541 35.3469 21.2047 35.259 21.1718C35.1643 21.2405 34.9564 21.1354 34.7974 21.1256L34.8869 20.9212L35.0224 20.9767C35.0459 20.931 34.6805 20.7338 34.8176 20.552C34.9878 20.2133 35.0655 19.8199 35.2055 19.4735C35.2833 19.5038 35.312 19.5938 35.3408 19.6839C35.3643 19.6382 35.3657 19.5559 35.4369 19.5329C35.2644 19.5713 35.3895 19.3553 35.3029 19.3951C35.0389 19.0276 35.46 18.7947 35.2986 18.4846C34.9975 18.3659 30.1489 16.3045 29.7746 16.1774C29.8036 16.1125 29.8352 16.038 29.8708 16.0264C29.7775 16.0128 29.6868 16.1445 29.7155 16.2346L29.9114 16.3056C29.9205 16.5043 29.7799 16.3131 29.7441 16.4796C29.5831 16.4383 29.596 16.2763 29.6264 16.129C29.5712 16.2492 29.408 16.3313 29.5703 16.4453C29.4675 16.543 29.3771 16.3647 29.2663 16.4913C29.2769 16.6077 29.4001 16.784 29.2671 16.8739L29.2369 16.8662C28.9803 17.0896 29.3443 17.3691 29.0931 17.5733L29.0509 17.5315C28.926 17.5924 28.9955 17.8067 28.849 17.9447C28.8927 17.9043 29.0216 17.9063 29.0147 18.0079C28.8528 18.1627 28.9157 18.3236 28.7471 18.425L28.8603 18.5987C28.6166 19.2389 28.0295 21.8785 27.8434 22.5439L27.8314 22.5098C27.5912 23.5229 26.931 25.5754 26.8209 26.6633C26.6168 26.7762 26.585 27.0058 26.4888 27.1568C26.5835 27.0881 26.6861 27.1454 26.6545 27.22C26.4713 27.7207 26.7544 27.287 26.6618 27.8109C26.6154 28.4398 25.7638 30.5981 25.4673 31.08C25.6104 31.4165 25.3323 31.7172 25.3949 32.033L25.3527 31.9911C25.3496 32.3107 24.6196 33.8802 24.5929 34.2454L24.6366 34.2049C24.6939 34.54 24.4458 34.4246 24.3006 34.6354C24.5676 34.6833 24.6356 34.9798 24.6288 35.0813L24.5711 35.0562C24.5709 35.2112 24.6852 35.6126 24.648 35.8614L24.5125 35.8059C24.6068 36.0472 24.4211 36.4026 24.3881 36.5594C24.2259 36.8692 23.8241 37.3034 23.8684 37.8005L23.3831 37.955L23.4098 38.0135C23.4098 38.0135 28.1001 40.0239 29.3177 39.7578L29.4532 39.8132L29.4654 39.6923C29.5736 39.5754 29.4342 39.457 29.5697 39.5124L29.4956 39.7001C29.5864 39.5684 29.6272 39.6925 29.6915 39.771C29.7177 39.7158 29.754 39.6631 29.8178 39.6278C29.7756 39.586 29.752 39.6316 29.7165 39.6431C29.6877 39.5531 29.5893 39.4038 29.684 39.3351C29.7446 39.1956 29.9154 39.3945 29.9814 39.2357C30.3703 38.3848 30.8042 37.5661 31.0576 36.6597C31.1234 36.6559 31.1153 36.6848 31.1274 36.7189C31.1552 36.4264 31.2528 36.1931 31.2625 35.9268C31.3519 35.8774 31.4351 35.8885 31.5008 35.8847C31.3546 35.8678 31.7811 34.4581 31.8167 34.4466Z" fill="#FAA017"/>
<path d="M135.548 64.4201L135.305 64.3266C135.38 64.0566 135.625 64.3366 135.635 64.0704C135.302 63.8713 135.801 63.6687 135.634 63.5328C135.665 63.5406 135.717 63.43 135.825 63.4681C135.635 63.3779 135.82 63.3324 135.791 63.2423C135.749 63.2005 135.725 63.2461 135.66 63.2499L135.648 63.0609C135.737 63.0115 135.85 63.0302 135.852 63.1029C136.069 62.6729 136.938 60.5294 136.998 60.0073C136.831 60.0264 136.888 60.2066 136.63 60.2024C136.537 60.0338 136.735 60.0225 136.62 59.931C136.983 59.9829 136.789 59.6747 137.175 59.6809L136.985 59.5906L137.122 59.5638C137.1 58.9484 137.069 59.4055 137.267 58.9293C137.328 58.6348 137.096 58.4204 137.25 58.2946C137.245 58.3139 137.095 58.3478 137.076 58.2603C137.25 58.2946 137.012 58.0268 137.201 58.0444C137.203 57.9621 137.298 57.7384 137.035 57.7535C137.166 57.746 137.286 57.5493 137.339 57.7076C137.368 57.6427 137.427 57.5855 137.393 57.5147L137.298 57.5834C137.335 57.3346 137.561 57.2584 137.396 57.0402L137.271 57.1011C137.301 56.9539 137.326 56.826 137.571 56.8372L137.599 57.0095C137.666 56.7685 137.696 56.6213 137.632 56.3878L137.603 56.4527C137.455 56.1355 137.679 54.7564 137.464 54.443L137.256 54.4929L137.162 54.2517C137.157 54.271 137.723 54.5198 137.657 54.5236C137.779 54.0897 138.349 51.8179 138.601 51.4587C138.755 51.3328 138.898 51.5144 138.925 51.5317C138.919 51.3234 138.761 51.3862 138.827 51.2275C138.871 51.187 138.963 51.2829 138.985 51.3196C138.986 51.2373 139.073 51.1975 138.985 51.1647C138.89 51.2333 138.682 51.1283 138.523 51.1184L138.613 50.9141L138.748 50.9695C138.772 50.9239 138.396 50.7241 138.544 50.5449C138.711 50.2158 138.791 49.8128 138.942 49.4689C139.019 49.4992 139.048 49.5893 139.077 49.6793C139.1 49.6337 139.102 49.5514 139.173 49.5283C139 49.5667 139.126 49.3508 139.039 49.3906C138.775 49.0231 139.199 48.7805 139.035 48.48C138.734 48.3614 133.875 46.2974 133.511 46.1729C133.54 46.108 133.571 46.0334 133.607 46.0219C133.514 46.0083 133.423 46.14 133.452 46.23L133.645 46.3106C133.657 46.4997 133.513 46.3182 133.477 46.4847C133.316 46.4434 133.332 46.2717 133.36 46.1341C133.305 46.2543 133.141 46.3364 133.306 46.4408C133.204 46.5384 133.11 46.3698 133.002 46.4868C133.013 46.6032 133.133 46.7891 133.003 46.8694L132.973 46.8616C132.716 47.0851 133.08 47.3646 132.839 47.5714L132.797 47.5295C132.672 47.5905 132.742 47.8047 132.595 47.9428C132.649 47.9049 132.768 47.9044 132.761 48.006C132.599 48.1608 132.662 48.3216 132.493 48.423L132.606 48.5967C132.363 49.2369 131.776 51.8766 131.59 52.5419L131.577 52.5078C131.335 53.5306 130.677 55.5734 130.567 56.6613C130.363 56.7743 130.331 57.0038 130.232 57.1644C130.33 57.0861 130.43 57.1531 130.398 57.2276C130.215 57.7284 130.498 57.2946 130.403 57.8282C130.356 58.4571 129.504 60.6154 129.208 61.0973C129.348 61.4435 129.073 61.7344 129.136 62.0502L129.093 62.0084C129.09 62.328 128.358 63.9071 128.334 64.2627L128.387 64.2248C128.435 64.5573 128.196 64.4445 128.051 64.6552C128.318 64.7031 128.386 64.9997 128.38 65.1012L128.322 65.0761C128.322 65.2311 128.436 65.6325 128.399 65.8813L128.263 65.8258C128.355 66.0767 128.169 66.4321 128.139 66.5793C127.977 66.8891 127.575 67.3233 127.619 67.8204L127.134 67.9748L127.163 68.0237C127.163 68.0237 131.854 70.0341 133.068 69.7776L133.204 69.8331L133.226 69.7148C133.334 69.5979 133.195 69.4794 133.33 69.5349L133.256 69.7225C133.347 69.5908 133.388 69.715 133.452 69.7935C133.489 69.7408 133.515 69.6855 133.579 69.6502C133.536 69.6084 133.513 69.654 133.477 69.6656C133.449 69.5755 133.35 69.4262 133.445 69.3575C133.505 69.218 133.676 69.417 133.742 69.2582C134.131 68.4073 134.565 67.5885 134.818 66.6821C134.884 66.6784 134.876 66.7073 134.888 66.7414C134.916 66.4488 135.014 66.2155 135.023 65.9493C135.113 65.8999 135.199 65.9013 135.264 65.8975C135.086 65.8414 135.512 64.4317 135.548 64.4201Z" fill="#FAA017"/>
<path d="M51.441 55.0188L51.1848 54.9324C51.2495 54.701 51.4927 54.9495 51.5018 54.7244C51.1638 54.5446 51.6391 54.3876 51.4695 54.2614C51.4996 54.2691 51.5367 54.1753 51.6574 54.2063C51.4643 54.1257 51.6468 54.0899 51.6154 54.0095C51.5604 53.9747 51.5496 54.0133 51.4838 54.0171L51.4538 53.8543C51.5405 53.8145 51.6538 53.8333 51.6578 53.8964C51.8462 53.5313 52.5933 51.7079 52.6187 51.27C52.4516 51.2891 52.5172 51.4403 52.2622 51.4265C52.161 51.2868 52.3583 51.2755 52.2309 51.1911C52.5966 51.2333 52.3916 50.9636 52.768 50.9673L52.5749 50.8867L52.7118 50.8598C52.6252 50.3209 52.6408 50.7279 52.7897 50.3114C52.8195 50.0504 52.5775 49.8745 52.7085 49.7532C52.7031 49.7724 52.5662 49.7993 52.5347 49.7189C52.7085 49.7532 52.4498 49.5214 52.6417 49.5293C52.6377 49.4663 52.7071 49.2567 52.4541 49.2745C52.5856 49.2669 52.6771 49.094 52.7581 49.2285C52.7844 49.1732 52.8307 49.1231 52.7939 49.062L52.712 49.1236C52.7283 48.9108 52.9418 48.8416 52.7582 48.6498L52.6461 48.7036C52.661 48.5731 52.6678 48.4716 52.9154 48.4731L52.9508 48.6166C52.9974 48.4115 53.0123 48.281 52.9273 48.0835L52.9112 48.1413C52.729 47.8672 52.8231 46.6822 52.5751 46.4118L52.367 46.4617L52.2518 46.2564C52.2465 46.2757 52.8267 46.4764 52.7609 46.4802C52.8332 46.106 53.1758 44.1477 53.3809 43.8386C53.5193 43.7295 53.6808 43.8846 53.711 43.8924C53.6864 43.7104 53.5286 43.7732 53.5865 43.6434C53.6275 43.6126 53.7274 43.6796 53.7495 43.7162C53.7455 43.6532 53.8248 43.6012 53.7342 43.578C53.6523 43.6396 53.4262 43.5609 53.2773 43.5536L53.3386 43.373L53.4794 43.4092C53.4902 43.3706 53.1112 43.2216 53.2329 43.0565C53.3695 42.7609 53.3981 42.4272 53.5146 42.1264C53.6052 42.1496 53.6366 42.23 53.6707 42.3008C53.6815 42.2622 53.6775 42.1992 53.7514 42.1665C53.5789 42.2049 53.6858 42.0153 53.5992 42.0551C53.3064 41.7525 53.6992 41.5433 53.5015 41.2859C53.1923 41.1962 48.1498 39.6741 47.7721 39.5978C47.7983 39.5425 47.8145 39.4847 47.8501 39.4731C47.7541 39.4692 47.6815 39.5745 47.723 39.6575L47.9243 39.7092C47.9543 39.8719 47.7927 39.7168 47.7751 39.8569C47.6087 39.8349 47.6062 39.6895 47.6184 39.5687C47.5687 39.6696 47.4283 39.7472 47.6013 39.8226C47.5039 39.901 47.4001 39.771 47.2973 39.8686C47.326 39.9586 47.4574 40.1061 47.3398 40.1792L47.3097 40.1715C47.0812 40.3712 47.4742 40.5858 47.2539 40.7566L47.1989 40.7218C47.0868 40.7757 47.1772 40.9539 47.0388 41.0631C47.0798 41.0322 47.2113 41.0247 47.2098 41.107C47.0661 41.2354 47.1471 41.3699 46.9839 41.452L47.1153 41.5994C46.9442 42.1343 46.6428 44.3305 46.5348 44.8712L46.51 44.8442C46.3814 45.6896 45.9471 47.397 45.9513 48.3076C45.7626 48.4038 45.7544 48.5877 45.6737 48.722C45.7556 48.6604 45.8683 48.7203 45.842 48.7756C45.716 49.1876 45.9446 48.8329 45.9065 49.2779C45.9126 49.7962 45.1963 51.5862 44.9368 51.9743C45.1035 52.2652 44.8442 52.4983 44.9204 52.7659L44.8781 52.724C44.8912 52.9858 44.2796 54.2859 44.2692 54.5933L44.3101 54.5625C44.3809 54.8494 44.1428 54.7366 44.0084 54.9087C44.2754 54.9566 44.3543 55.2146 44.3528 55.2969L44.2951 55.2717C44.3003 55.4074 44.4435 55.7439 44.4171 55.9541L44.2789 55.9083C44.3813 56.1206 44.2246 56.4111 44.1996 56.5391C44.0637 56.7935 43.6889 57.1313 43.7648 57.5539L43.2929 57.6601L43.3224 57.709C43.3224 57.709 48.0443 59.6448 49.2249 59.4726L49.3604 59.528L49.3699 59.4168C49.4727 59.3192 49.3306 59.2103 49.4661 59.2658L49.4001 59.4245C49.4727 59.3192 49.529 59.4266 49.596 59.4955C49.6196 59.4499 49.6531 59.4068 49.7142 59.3812C49.672 59.3393 49.6485 59.385 49.6156 59.3869C49.5841 59.3064 49.4803 59.1764 49.5723 59.1174C49.6275 58.9972 49.8038 59.1768 49.8643 59.0373C50.1954 58.3162 50.5815 57.6299 50.777 56.8533C50.8428 56.8495 50.8347 56.8785 50.8494 56.9029C50.8538 56.656 50.9406 56.4613 50.9422 56.224C51.0188 56.1816 51.112 56.1952 51.1778 56.1914C51.0583 56.2331 51.4054 55.0304 51.441 55.0188Z" fill="#FAA017"/>
<path d="M88.0299 78.0653L87.7737 77.9788C87.8546 77.6896 88.087 77.9766 88.1022 77.6911C87.7696 77.4921 88.2665 77.2579 88.0995 77.122C88.1297 77.1298 88.1748 77.007 88.2828 77.0451C88.0923 76.9548 88.2703 76.8972 88.2415 76.8071C88.1993 76.7653 88.1757 76.8109 88.11 76.8147L88.0908 76.6134C88.1727 76.5517 88.2962 76.5731 88.2947 76.6554C88.5027 76.1817 89.3618 73.8806 89.4095 73.3245C89.2397 73.3532 89.2945 73.543 89.0442 73.551C88.9511 73.3824 89.1511 73.3615 89.0291 73.2578C89.3975 73.2904 89.1959 72.9699 89.5777 72.9543L89.3873 72.864L89.5296 72.8179C89.4781 72.1536 89.4667 72.6571 89.6506 72.1152C89.6993 71.7867 89.458 71.5697 89.6072 71.4219C89.5991 71.4509 89.4594 71.4874 89.4307 71.3973C89.6072 71.4219 89.3592 71.1516 89.5437 71.1473C89.5452 71.065 89.6281 70.8072 89.3697 70.8442C89.5039 70.827 89.6088 70.6059 89.6818 70.7693C89.7034 70.6922 89.7652 70.6254 89.721 70.552L89.6309 70.6426C89.6635 70.3719 89.8878 70.2641 89.7122 70.0434L89.5947 70.1165C89.6177 69.9571 89.6353 69.8169 89.8857 69.8089L89.9203 69.9935C89.983 69.7305 90.0061 69.5711 89.9245 69.3228L89.9029 69.3999C89.7369 69.0679 89.8972 67.5692 89.6627 67.2506L89.4465 67.3294L89.3448 67.076C89.3395 67.0953 89.917 67.3056 89.8485 67.319C89.9779 66.8562 90.3307 64.3217 90.5453 63.9014C90.6871 63.7414 90.8506 63.9281 90.8707 63.9333C90.8495 63.7005 90.6911 63.8044 90.7423 63.6212C90.7887 63.5711 90.8831 63.6574 90.9052 63.6941C90.8966 63.6092 90.9786 63.5476 90.888 63.5243C90.798 63.6149 90.5847 63.5291 90.4203 63.5386L90.485 63.3071L90.6259 63.3433C90.6421 63.2855 90.253 63.1339 90.3781 62.918C90.5188 62.5304 90.5543 62.0951 90.6648 61.6998C90.7554 61.723 90.7841 61.8131 90.8229 61.9057C90.8391 61.8479 90.8278 61.7726 90.9044 61.7303C90.7338 61.8001 90.8368 61.5476 90.7549 61.6092C90.4526 61.2629 90.8577 60.9328 90.6682 60.6465C90.3562 60.5664 85.247 59.2442 84.874 59.1898C84.8956 59.1126 84.9144 59.0451 84.9527 59.024C84.854 59.0296 84.7807 59.1761 84.8222 59.2591L85.0262 59.3012C85.0581 59.4954 84.8892 59.328 84.8736 59.4997C84.7045 59.4873 84.7 59.3104 84.7176 59.1703C84.6698 59.3027 84.5214 59.4093 84.6944 59.4847C84.599 59.5946 84.4905 59.4427 84.3897 59.5718C84.4231 59.6837 84.5517 59.8408 84.4335 59.9551L84.4033 59.9474C84.1687 60.2075 84.5691 60.4343 84.34 60.6752L84.285 60.6404C84.1675 60.7136 84.2598 60.9233 84.1308 61.0762C84.1744 61.0358 84.2986 61.016 84.3018 61.1202C84.1546 61.2994 84.233 61.4435 84.0791 61.5694L84.2152 61.7387C84.0264 62.4136 83.7841 65.1315 83.6 65.8283L83.5752 65.8013C83.3974 66.8615 82.8546 68.9957 82.8169 70.1332C82.6201 70.2584 82.5957 70.5001 82.5069 70.6634C82.5942 70.5824 82.6968 70.6398 82.6752 70.7169C82.5269 71.2473 82.7752 70.7839 82.7074 71.3349C82.6857 71.9908 81.8467 74.2971 81.5622 74.8131C81.7101 75.1714 81.4292 75.4817 81.4992 75.8097L81.4469 75.7653C81.4512 76.0971 80.7418 77.7856 80.6924 78.1552L80.736 78.1148C80.7805 78.4569 80.5425 78.3441 80.3845 78.5619C80.6542 78.6002 80.7169 78.916 80.7 79.015L80.6423 78.9899C80.6394 79.1545 80.751 79.5655 80.701 79.8214L80.5655 79.7659C80.6471 80.0142 80.4561 80.3889 80.423 80.5458C80.2555 80.8748 79.8382 81.3258 79.8771 81.8422L79.3763 82.0133L79.403 82.0718C79.403 82.0718 84.0852 84.1111 85.3136 83.8064L85.4491 83.8619L85.4741 83.734C85.585 83.6074 85.4483 83.4793 85.5938 83.5373L85.507 83.7321C85.6004 83.5907 85.6385 83.7245 85.6928 83.8004C85.7291 83.7477 85.7681 83.6854 85.8218 83.6475C85.7796 83.6057 85.7561 83.6513 85.7205 83.6629C85.6944 83.5632 85.596 83.4139 85.6934 83.3355C85.7566 83.1864 85.9248 83.395 85.9962 83.2169C86.4141 82.3011 86.8769 81.4174 87.1492 80.4435C87.215 80.4397 87.2068 80.4687 87.2189 80.5028C87.2522 80.1909 87.3551 79.9383 87.3803 79.6554C87.4623 79.5938 87.5583 79.5978 87.624 79.594C87.5838 79.5836 87.9943 78.0768 88.0299 78.0653Z" fill="#FAA017"/>
<path d="M72.845 143.597L72.5887 143.51C72.6696 143.221 72.9021 143.508 72.9172 143.223C72.5846 143.024 73.0788 142.799 72.9146 142.654C72.9448 142.661 72.9899 142.539 73.0979 142.577C72.9074 142.486 73.0853 142.429 73.0566 142.339C73.0143 142.297 72.9908 142.342 72.9223 142.356L72.9059 142.145C72.9979 142.086 73.1112 142.105 73.1098 142.187C73.3177 141.713 74.1769 139.412 74.2246 138.856C74.0548 138.885 74.1096 139.074 73.8619 139.073C73.7689 138.904 73.9689 138.883 73.8442 138.789C74.2125 138.822 74.0109 138.501 74.3928 138.486L74.2023 138.396L74.342 138.359C74.2831 137.683 74.2791 138.198 74.4529 137.654C74.5016 137.325 74.2603 137.108 74.4095 136.961C74.4014 136.989 74.2617 137.026 74.233 136.936C74.4095 136.961 74.1615 136.69 74.3461 136.686C74.3374 136.601 74.4304 136.346 74.1747 136.373C74.3089 136.356 74.4138 136.135 74.4767 136.296C74.5084 136.221 74.5601 136.152 74.5159 136.078L74.4286 136.159C74.4611 135.889 74.6854 135.781 74.5099 135.56L74.3923 135.633C74.4153 135.474 74.433 135.334 74.6833 135.326L74.718 135.51C74.7807 135.247 74.8037 135.088 74.7248 134.83L74.7033 134.907C74.5373 134.575 74.6975 133.076 74.463 132.758L74.2468 132.837L74.1452 132.583C74.1371 132.612 74.7173 132.813 74.6488 132.826C74.7783 132.363 75.1311 129.829 75.3457 129.408C75.4875 129.249 75.6409 129.433 75.6711 129.44C75.6499 129.208 75.4914 129.312 75.5426 129.128C75.5863 129.088 75.6835 129.165 75.7056 129.201C75.697 129.116 75.7789 129.055 75.6884 129.031C75.5983 129.122 75.375 129.034 75.2179 129.055L75.2826 128.824L75.4235 128.86C75.4397 128.802 75.0507 128.651 75.1758 128.435C75.3138 128.057 75.3519 127.612 75.4598 127.226C75.5504 127.249 75.5791 127.339 75.6179 127.432C75.6341 127.374 75.6254 127.289 75.6993 127.257C75.5288 127.327 75.6318 127.074 75.5498 127.136C75.2503 126.78 75.6526 126.459 75.4631 126.173C75.1511 126.093 70.042 124.771 69.6689 124.716C69.6905 124.639 69.712 124.562 69.7476 124.55C69.649 124.556 69.5783 124.693 69.6171 124.786L69.8211 124.828C69.8531 125.022 69.6942 124.857 69.6658 125.036C69.4967 125.023 69.4923 124.847 69.5099 124.706C69.4648 124.829 69.3163 124.936 69.4867 125.021C69.3912 125.131 69.2827 124.979 69.1819 125.108C69.2153 125.22 69.344 125.377 69.2284 125.481L69.1982 125.474C68.9637 125.734 69.364 125.961 69.1376 126.192L69.0826 126.157C68.9651 126.23 69.0574 126.44 68.9284 126.593C68.9721 126.553 69.0989 126.523 69.0995 126.637C68.9523 126.816 69.0279 126.97 68.8768 127.086L69.0128 127.255C68.8241 127.93 68.5818 130.648 68.3977 131.345L68.3756 131.308C68.1978 132.369 67.6549 134.503 67.6172 135.64C67.4177 135.775 67.396 136.007 67.3072 136.17C67.3945 136.09 67.4972 136.147 67.4756 136.224C67.33 136.745 67.5782 136.281 67.5077 136.842C67.4888 137.488 66.647 139.804 66.3652 140.311C66.5131 140.669 66.2322 140.979 66.3022 141.307L66.26 141.265C66.2542 141.595 65.5549 143.286 65.5055 143.655L65.5491 143.615C65.591 143.967 65.3528 143.854 65.1976 144.062C65.4646 144.11 65.5327 144.406 65.5131 144.515L65.4554 144.49C65.4525 144.655 65.5641 145.066 65.5241 145.324L65.386 145.278C65.4675 145.527 65.2865 145.904 65.2535 146.061C65.086 146.39 64.6687 146.841 64.7076 147.357L64.2068 147.528L64.2336 147.587C64.2336 147.587 68.9157 149.626 70.1442 149.321L70.2796 149.377L70.3046 149.249C70.4256 149.125 70.2788 148.994 70.4243 149.052L70.3375 149.247C70.431 149.106 70.469 149.239 70.5334 149.318C70.5724 149.256 70.6087 149.203 70.6624 149.165C70.6229 149.114 70.5967 149.169 70.5611 149.18C70.535 149.081 70.4366 148.931 70.5367 148.843C70.5999 148.694 70.7681 148.903 70.8395 148.725C71.26 147.799 71.7201 146.925 71.9925 145.951C72.0582 145.948 72.0501 145.976 72.0622 146.011C72.0954 145.699 72.1984 145.446 72.2236 145.163C72.3129 145.114 72.3988 145.115 72.4673 145.102C72.3961 145.125 72.8067 143.618 72.845 143.597Z" fill="#FAA017"/>
<path d="M113.496 143.823L113.24 143.736C113.32 143.447 113.553 143.734 113.568 143.449C113.235 143.25 113.73 143.025 113.565 142.88C113.596 142.887 113.641 142.765 113.749 142.803C113.558 142.712 113.736 142.655 113.707 142.565C113.665 142.523 113.642 142.568 113.573 142.582L113.554 142.381C113.636 142.319 113.759 142.34 113.758 142.423C113.966 141.949 114.825 139.648 114.873 139.092C114.703 139.12 114.758 139.31 114.51 139.309C114.417 139.14 114.617 139.119 114.492 139.025C114.861 139.058 114.659 138.737 115.041 138.722L114.85 138.631L114.99 138.595C114.941 137.921 114.927 138.434 115.111 137.892C115.16 137.564 114.919 137.347 115.068 137.199C115.06 137.228 114.92 137.264 114.891 137.174C115.068 137.199 114.82 136.928 115.004 136.924C115.006 136.842 115.089 136.584 114.833 136.611C114.967 136.594 115.072 136.373 115.145 136.537C115.177 136.462 115.228 136.393 115.184 136.319L115.097 136.4C115.129 136.13 115.354 136.022 115.178 135.801L115.061 135.874C115.084 135.715 115.101 135.575 115.352 135.566L115.386 135.751C115.449 135.488 115.472 135.329 115.393 135.071L115.372 135.148C115.206 134.816 115.366 133.317 115.131 132.999L114.915 133.077L114.813 132.824C114.805 132.853 115.386 133.053 115.327 133.069C115.457 132.607 115.809 130.072 116.014 129.649C116.156 129.489 116.319 129.676 116.339 129.681C116.318 129.448 116.16 129.552 116.211 129.369C116.255 129.329 116.352 129.405 116.374 129.442C116.365 129.357 116.447 129.296 116.357 129.272C116.267 129.363 116.053 129.277 115.886 129.296L115.951 129.065L116.092 129.101C116.108 129.043 115.719 128.891 115.844 128.676C115.982 128.298 116.02 127.853 116.128 127.467C116.219 127.49 116.247 127.58 116.286 127.673C116.302 127.615 116.294 127.53 116.368 127.498C116.197 127.567 116.3 127.315 116.218 127.376C115.919 127.02 116.321 126.7 116.131 126.414C115.819 126.334 110.71 125.011 110.327 124.954C110.349 124.877 110.37 124.8 110.406 124.789C110.317 124.797 110.237 124.931 110.275 125.024L110.479 125.066C110.511 125.26 110.352 125.095 110.324 125.274C110.155 125.262 110.15 125.085 110.168 124.945C110.123 125.067 109.975 125.174 110.145 125.259C110.049 125.369 109.941 125.217 109.84 125.346C109.874 125.458 110.002 125.615 109.887 125.72L109.856 125.712C109.622 125.972 110.022 126.199 109.796 126.43L109.741 126.395C109.623 126.469 109.716 126.678 109.577 126.829C109.62 126.788 109.747 126.759 109.748 126.873C109.6 127.052 109.676 127.206 109.525 127.322L109.661 127.491C109.472 128.166 109.23 130.884 109.046 131.581L109.024 131.544C108.846 132.604 108.303 134.739 108.265 135.876C108.066 136.011 108.044 136.243 107.955 136.406C108.043 136.325 108.145 136.383 108.124 136.46C107.978 136.98 108.226 136.517 108.156 137.078C108.137 137.724 107.295 140.04 107.013 140.546C107.161 140.905 106.88 141.215 106.95 141.543L106.908 141.501C106.912 141.833 106.203 143.521 106.154 143.891L106.207 143.853C106.249 144.205 106.011 144.092 105.856 144.3C106.123 144.348 106.188 144.654 106.171 144.753L106.114 144.728C106.111 144.893 106.222 145.304 106.172 145.56L106.034 145.514C106.116 145.762 105.935 146.139 105.892 146.294C105.724 146.623 105.307 147.074 105.346 147.59L104.845 147.761L104.872 147.82C104.872 147.82 109.554 149.859 110.782 149.554L110.918 149.61L110.943 149.482C111.064 149.358 110.927 149.23 111.062 149.285L110.976 149.48C111.069 149.339 111.107 149.472 111.171 149.551C111.21 149.489 111.247 149.436 111.3 149.398C111.261 149.347 111.235 149.402 111.199 149.413C111.173 149.314 111.075 149.164 111.175 149.076C111.238 148.927 111.406 149.136 111.478 148.958C111.898 148.032 112.358 147.158 112.631 146.184C112.696 146.181 112.688 146.21 112.7 146.244C112.734 145.932 112.836 145.679 112.862 145.396C112.951 145.347 113.047 145.351 113.105 145.335C113.047 145.351 113.46 143.834 113.496 143.823Z" fill="#FAA017"/>
<path d="M95.1552 115.262L94.8963 115.185C94.9718 114.915 95.2124 115.173 95.2194 114.916C94.8841 114.727 95.3756 114.512 95.2087 114.376C95.2389 114.384 95.284 114.261 95.392 114.299C95.2015 114.209 95.3868 114.164 95.358 114.073C95.3158 114.032 95.2923 114.077 95.2265 114.081L95.2046 113.889C95.2838 113.837 95.41 113.849 95.4086 113.931C95.6185 113.489 96.4473 111.335 96.4868 110.808C96.3197 110.827 96.3772 111.007 96.1195 111.003C96.0264 110.835 96.2237 110.823 96.099 110.729C96.462 110.781 96.2705 110.463 96.647 110.467L96.4592 110.367L96.5961 110.34C96.5694 109.703 96.5332 110.179 96.7567 109.689C96.8302 109.387 96.6117 109.166 96.7682 109.03C96.7628 109.05 96.6131 109.084 96.5971 108.987C96.7682 109.03 96.5458 108.746 96.735 108.764C96.7364 108.681 96.8441 108.451 96.5837 108.456C96.7152 108.448 96.835 108.252 96.8978 108.413C96.9295 108.338 96.9886 108.281 96.9545 108.21L96.8571 108.288C96.907 108.033 97.1433 107.959 96.9806 107.731L96.8557 107.792C96.8988 107.638 96.9238 107.51 97.166 107.531L97.1833 107.7C97.2634 107.452 97.3039 107.308 97.2552 107.057L97.2235 107.132C97.0904 106.798 97.3808 105.374 97.1846 105.034L96.9664 105.082L96.8876 104.824C96.8795 104.853 97.428 105.128 97.365 105.122C97.4716 104.664 98.2804 102.35 98.562 101.998C98.7259 101.875 98.8539 102.073 98.884 102.081C98.9031 101.859 98.7326 101.928 98.8214 101.765C98.8751 101.727 98.9541 101.83 98.9662 101.864C98.9777 101.785 99.067 101.735 98.9791 101.702C98.8744 101.768 98.6719 101.644 98.5128 101.634L98.6252 101.425L98.758 101.49C98.7815 101.445 98.4341 101.221 98.5941 101.035C98.8072 100.697 98.9105 100.29 99.0934 99.9438C99.1685 99.9837 99.1872 100.071 99.2032 100.168C99.2267 100.123 99.2382 100.043 99.3195 100.022C99.1396 100.049 99.2875 99.8282 99.1982 99.8776C98.9752 99.4793 99.4237 99.2638 99.2879 98.9395C98.9922 98.8016 94.3346 96.3655 93.9758 96.2217C94.0175 96.1498 94.0491 96.0752 94.0847 96.0637C93.9914 96.0501 93.8906 96.1792 93.9066 96.2763L94.0971 96.3666C94.0935 96.5723 93.9682 96.3645 93.9069 96.5451C93.7486 96.4941 93.777 96.3154 93.8302 96.1637C93.7522 96.2883 93.5891 96.3705 93.7386 96.4916C93.6257 96.5866 93.5582 96.4039 93.4271 96.5253C93.435 96.6513 93.5328 96.8418 93.3897 96.9291L93.3622 96.9117C93.0828 97.1396 93.4159 97.4525 93.1446 97.6515L93.105 97.6001C92.9801 97.661 93.0241 97.8894 92.8576 98.0223C92.9113 97.9844 93.0401 97.9864 93.0205 98.0951C92.8358 98.2544 92.8859 98.4222 92.6972 98.5185L92.795 98.709C92.4975 99.387 91.5599 102.123 91.3778 102.851L91.3658 102.817C91.0611 103.907 90.2699 106.08 90.0953 107.245C89.8784 107.365 89.8311 107.611 89.7195 107.779C89.8169 107.7 89.9168 107.767 89.8852 107.842C89.6812 108.379 89.975 107.906 89.879 108.481C89.8392 109.163 88.9605 111.573 88.6605 112.106C88.8057 112.474 88.5167 112.813 88.574 113.148L88.5318 113.106C88.5363 113.283 88.3276 113.798 88.1638 114.345C88.0101 114.895 87.8638 115.456 87.8629 115.653L87.9066 115.612C87.9887 115.974 87.7351 115.878 87.6019 116.123C87.8771 116.142 87.9626 116.453 87.9631 116.567L87.9027 116.552C87.9072 116.728 88.0617 117.14 88.0493 117.416L87.9084 117.38C88.0202 117.636 87.8613 118.05 87.8483 118.212C87.7157 118.57 87.3399 119.104 87.4291 119.634L86.947 119.892L86.9737 119.951C86.9737 119.951 91.9072 121.207 93.1103 120.762L93.2539 120.788L93.2561 120.665C93.3569 120.536 93.1993 120.444 93.3429 120.47L93.2889 120.663C93.3596 120.526 93.4158 120.633 93.4929 120.705C93.5192 120.65 93.5454 120.594 93.6018 120.547C93.5468 120.512 93.5334 120.56 93.4978 120.572C93.4563 120.489 93.3424 120.356 93.4297 120.275C93.4701 120.131 93.6692 120.306 93.7178 120.132C94.0215 119.239 94.3749 118.399 94.5351 117.479C94.6035 117.466 94.5955 117.495 94.6176 117.532C94.6126 117.241 94.69 117.002 94.6769 116.741C94.7562 116.689 94.8521 116.693 94.9105 116.677C94.7964 116.699 95.0868 115.275 95.1552 115.262Z" fill="#FAA017"/>
<path d="M112.754 65.3668L112.515 65.254C112.613 65.0207 112.828 65.2929 112.863 65.0538C112.546 64.838 113.046 64.708 112.891 64.5651C112.922 64.5728 112.971 64.4719 113.077 64.5196C112.902 64.4127 113.079 64.3962 113.06 64.3087C113.018 64.2669 112.997 64.3029 112.931 64.3067L112.927 64.1298C113.014 64.09 113.134 64.121 113.125 64.1911C113.367 63.8294 114.33 61.9271 114.419 61.4539C114.258 61.4537 114.295 61.6287 114.045 61.5956C113.962 61.4296 114.154 61.4375 114.042 61.3364C114.397 61.4172 114.223 61.1142 114.602 61.1493L114.424 61.052L114.568 61.0374C114.571 60.449 114.515 60.8791 114.735 60.4396C114.803 60.1573 114.585 59.9359 114.746 59.8222C114.741 59.8415 114.594 59.8658 114.575 59.7783C114.746 59.8223 114.518 59.557 114.708 59.5746C114.706 59.502 114.819 59.2931 114.554 59.2767C114.682 59.2788 114.807 59.104 114.862 59.2526C114.891 59.1877 114.948 59.1402 114.924 59.072L114.832 59.1311C114.886 58.8971 115.107 58.8401 114.954 58.6149L114.832 58.6662C114.87 58.5312 114.892 58.4129 115.145 58.4363L115.164 58.5964C115.239 58.3676 115.277 58.2326 115.22 58.0114L115.191 58.0762C115.06 57.7739 115.283 56.436 115.076 56.1348L114.858 56.1821L114.774 55.9435C114.768 55.9627 115.322 56.2187 115.259 56.2128C115.316 56.0103 115.499 55.3546 115.687 54.7208C115.853 54.0503 116.027 53.3921 116.141 53.2147C116.287 53.0766 116.443 53.251 116.471 53.2684C116.457 53.0479 116.301 53.1422 116.36 52.9712C116.404 52.9308 116.498 53.0171 116.523 53.0441C116.522 52.9714 116.604 52.9098 116.523 52.8891C116.426 52.9675 116.215 52.872 116.053 52.8718L116.133 52.6649L116.271 52.7107C116.284 52.6625 115.908 52.5039 116.048 52.3124C116.213 51.993 116.221 51.5403 116.326 51.1643C116.417 51.1875 116.455 51.2802 116.484 51.3702C116.498 51.322 116.489 51.2371 116.555 51.1922C116.385 51.2621 116.478 51.0069 116.406 51.0711C116.091 50.7319 116.481 50.4185 116.278 50.1392C115.962 50.0373 110.788 49.1015 110.398 49.1049C110.414 49.047 110.428 48.9988 110.464 48.9873C110.375 48.9955 110.305 49.0913 110.352 49.155L110.561 49.1777C110.609 49.3141 110.437 49.1975 110.422 49.328C110.253 49.3156 110.232 49.1967 110.237 49.1047C110.202 49.1889 110.062 49.2665 110.24 49.3227C110.156 49.394 110.034 49.2903 109.944 49.3809C109.978 49.4516 110.127 49.5727 110.012 49.6363L109.982 49.6285C109.772 49.8019 110.189 49.9708 109.981 50.1346L109.923 50.1094C109.814 50.1537 109.922 50.3055 109.809 50.4006C109.85 50.3698 109.969 50.3692 109.981 50.4445C109.852 50.5562 109.951 50.6644 109.786 50.7562L109.92 50.8939C109.754 51.4094 109.405 53.5831 109.185 54.1777L109.17 54.1533C108.983 55.0147 108.318 56.7765 108.187 57.7454C107.981 57.8269 107.947 58.0249 107.846 58.154C107.938 58.095 108.038 58.162 108.009 58.2269C107.825 58.6549 108.109 58.2938 108 58.7619C107.929 59.3225 106.986 61.23 106.658 61.6315C106.781 61.9628 106.486 62.2075 106.524 62.4962L106.482 62.4544C106.454 62.7469 105.646 64.1311 105.592 64.4789L105.643 64.4507C105.673 64.7684 105.438 64.6459 105.281 64.8226C105.542 64.8898 105.593 65.1715 105.576 65.2705L105.518 65.2453C105.511 65.3881 105.608 65.7747 105.546 65.9964L105.41 65.941C105.484 66.177 105.287 66.4983 105.246 66.643C105.067 66.9379 104.643 67.3355 104.67 67.8178L104.167 67.9574L104.196 68.0063C104.196 68.0063 105.36 68.5118 106.686 68.9763C108.012 69.4408 109.485 69.881 110.101 69.8014L110.236 69.8568L110.256 69.7482C110.369 69.6531 110.226 69.5443 110.362 69.5997L110.286 69.7559C110.369 69.6531 110.415 69.758 110.482 69.8269C110.515 69.7838 110.549 69.7408 110.61 69.7151C110.568 69.6733 110.547 69.7093 110.511 69.7208C110.49 69.643 110.386 69.513 110.478 69.4539C110.541 69.346 110.707 69.523 110.775 69.3957C111.148 68.7165 111.607 68.0386 111.894 67.2441C111.957 67.25 111.952 67.2693 111.967 67.2937C112.007 67.0353 112.103 66.8431 112.138 66.6039C112.222 66.5738 112.315 66.5874 112.378 66.5933C112.211 66.6124 112.708 65.3757 112.754 65.3668Z" fill="#FAA017"/>
<path d="M19.6525 131.137L19.4144 131.024C19.512 130.791 19.7271 131.063 19.7515 130.821C19.4344 130.606 19.9345 130.476 19.7803 130.333C19.8078 130.35 19.8576 130.249 19.9656 130.287C19.7906 130.18 19.9678 130.164 19.9491 130.076C19.9069 130.035 19.886 130.071 19.8202 130.074L19.8157 129.897C19.9023 129.858 20.0231 129.889 20.0143 129.959C20.2557 129.597 21.2291 127.697 21.3082 127.222C21.1438 127.231 21.1838 127.396 20.9342 127.363C20.8512 127.197 21.0431 127.205 20.9312 127.104C21.2861 127.185 21.112 126.882 21.4904 126.917L21.3154 126.81L21.4597 126.795C21.4624 126.207 21.4042 126.647 21.6269 126.198C21.695 125.915 21.4866 125.697 21.6377 125.58C21.6323 125.6 21.4853 125.624 21.4667 125.536C21.6377 125.58 21.4126 125.305 21.5991 125.333C21.5978 125.26 21.7102 125.051 21.4552 125.037C21.584 125.039 21.7084 124.865 21.7639 125.013C21.7928 124.948 21.8493 124.901 21.8252 124.833L21.7305 124.901C21.7851 124.667 22.0087 124.601 21.8533 124.385L21.7311 124.436C21.7688 124.301 21.7911 124.183 22.0434 124.207L22.0634 124.367C22.1381 124.138 22.1759 124.003 22.1191 123.782L22.0902 123.847C21.959 123.544 22.1922 122.209 21.9779 121.895L21.7597 121.943L21.6754 121.704C21.67 121.723 22.224 121.979 22.1609 121.973C22.2203 121.761 22.411 121.118 22.5889 120.481C22.7549 119.811 22.9281 119.153 23.0424 118.975C23.1889 118.837 23.3451 119.012 23.3726 119.029C23.356 118.818 23.2029 118.903 23.2615 118.732C23.3052 118.691 23.3997 118.778 23.4245 118.805C23.4259 118.722 23.5052 118.67 23.4247 118.65C23.3374 118.731 23.1167 118.633 22.955 118.633L23.0344 118.426L23.1726 118.471C23.1861 118.423 22.8098 118.264 22.9396 118.07C23.1145 117.754 23.1123 117.298 23.2175 116.922C23.308 116.946 23.3368 117.036 23.3756 117.128C23.3891 117.08 23.3805 116.995 23.457 116.953C23.2865 117.023 23.3794 116.768 23.3075 116.832C22.9925 116.493 23.3849 116.17 23.1825 115.89C22.8659 115.788 17.6918 114.852 17.3026 114.856C17.3161 114.808 17.3323 114.75 17.3678 114.738C17.2793 114.747 17.2093 114.842 17.2562 114.906L17.4629 114.938C17.511 115.075 17.3387 114.958 17.3265 115.079C17.1574 115.067 17.1367 114.948 17.1409 114.856C17.1065 114.94 16.9662 115.018 17.1446 115.074C17.0573 115.155 16.938 115.041 16.848 115.132C16.8794 115.212 17.0316 115.324 16.9168 115.387L16.8866 115.379C16.6763 115.553 17.0928 115.722 16.888 115.876L16.833 115.841C16.7235 115.885 16.8321 116.037 16.7192 116.132C16.7575 116.111 16.879 116.101 16.8903 116.176C16.762 116.288 16.8611 116.396 16.6953 116.488L16.8293 116.626C16.6636 117.141 16.3018 119.322 16.0944 119.909L16.0797 119.885C15.8927 120.746 15.2302 122.499 15.0894 123.465C14.8833 123.546 14.8468 123.754 14.7487 123.873C14.8407 123.814 14.9406 123.881 14.9117 123.946C14.7272 124.374 15.0116 124.013 14.9023 124.481C14.8318 125.042 13.8913 126.94 13.5606 127.351C13.6836 127.682 13.3887 127.927 13.4266 128.216L13.3844 128.174C13.3565 128.466 12.5488 129.851 12.4947 130.198L12.5458 130.17C12.5756 130.488 12.3429 130.356 12.1829 130.542C12.4445 130.609 12.4952 130.891 12.4783 130.99L12.4307 130.967C12.4204 131.12 12.52 131.497 12.4552 131.728L12.3224 131.663C12.3966 131.899 12.1989 132.22 12.1585 132.365C11.9789 132.66 11.555 133.058 11.5819 133.54L11.0791 133.679L11.1086 133.728C11.1086 133.728 12.2749 134.224 13.5984 134.698C14.9245 135.163 16.3976 135.603 17.0131 135.523L17.1485 135.579L17.1655 135.48C17.2783 135.385 17.1362 135.276 17.2717 135.331L17.1956 135.488C17.2783 135.385 17.3245 135.49 17.3915 135.559C17.4251 135.515 17.4587 135.472 17.5198 135.447C17.4776 135.405 17.4567 135.441 17.4212 135.452C17.3998 135.375 17.2959 135.245 17.3879 135.186C17.4431 135.065 17.6167 135.255 17.6873 135.118C18.0606 134.438 18.5198 133.761 18.8067 132.966C18.8697 132.972 18.8543 132.989 18.8764 133.025C18.9163 132.767 19.0159 132.565 19.0477 132.336C19.1343 132.296 19.2249 132.319 19.2879 132.325C19.11 132.383 19.6196 131.139 19.6525 131.137Z" fill="#FAA017"/>
<path d="M117.702 101.744L117.443 101.667C117.509 101.395 117.759 101.655 117.759 101.387C117.421 101.207 117.908 100.97 117.728 100.841C117.758 100.849 117.803 100.726 117.911 100.764C117.718 100.684 117.896 100.626 117.867 100.536C117.815 100.492 117.802 100.54 117.733 100.553L117.711 100.362C117.79 100.31 117.917 100.321 117.918 100.394C118.11 99.937 118.879 97.7265 118.909 97.1967C118.739 97.2254 118.807 97.4081 118.546 97.4136C118.453 97.245 118.64 97.2311 118.516 97.1371C118.884 97.1696 118.68 96.8588 119.062 96.8432L118.869 96.7626L119.008 96.7261C118.949 96.0907 118.945 96.5652 119.121 96.0523C119.164 95.743 118.93 95.5383 119.07 95.388C119.061 95.4169 118.922 95.4534 118.893 95.3634C119.07 95.388 118.819 95.1273 119.014 95.1256C119.015 95.0433 119.095 94.7951 118.837 94.8321C118.971 94.8149 119.073 94.6035 119.146 94.7669C119.168 94.6898 119.227 94.6326 119.193 94.5619L119.105 94.6428C119.135 94.3817 119.357 94.2836 119.179 94.0725L119.061 94.1456C119.084 93.9862 119.099 93.8557 119.347 93.8573L119.384 94.0322C119.444 93.7789 119.464 93.6291 119.393 93.3834L119.371 93.4605C119.203 93.1382 119.367 91.7024 119.132 91.3838L118.919 91.4531L118.814 91.2092C118.809 91.2285 119.384 91.4484 119.315 91.4619C119.412 91.0009 119.873 88.6184 120.11 88.2347C120.256 88.0967 120.413 88.2711 120.443 88.2788C120.429 88.0583 120.266 88.1404 120.334 87.972C120.378 87.9315 120.473 88.0178 120.495 88.0545C120.496 87.9722 120.575 87.9202 120.488 87.8873C120.4 87.9682 120.177 87.8799 120.025 87.8823L120.097 87.663L120.235 87.7089C120.249 87.6607 119.875 87.4924 120.008 87.2887C120.163 86.9256 120.223 86.5173 120.349 86.1464C120.437 86.1793 120.468 86.2597 120.497 86.3498C120.51 86.3016 120.512 86.2193 120.586 86.1866C120.408 86.2442 120.528 86.0064 120.436 86.0655C120.157 85.7147 120.571 85.4284 120.394 85.135C120.088 85.0356 115.091 83.3496 114.716 83.2636C114.738 83.1865 114.769 83.112 114.805 83.1004C114.709 83.0964 114.628 83.2307 114.667 83.3234L114.866 83.3847C114.885 83.586 114.731 83.4019 114.703 83.5806C114.539 83.5489 114.542 83.3843 114.562 83.2345C114.507 83.3547 114.359 83.4613 114.526 83.556C114.431 83.6658 114.328 83.4947 114.227 83.6238C114.248 83.7428 114.374 83.9095 114.248 84.0116L114.218 84.0038C113.976 84.2518 114.358 84.5049 114.122 84.7336L114.079 84.6917C113.962 84.7649 114.042 84.9817 113.895 85.1198C113.939 85.0793 114.073 85.0621 114.063 85.1733C113.909 85.3404 113.982 85.5038 113.813 85.6052L113.937 85.7815C113.728 86.4513 113.281 89.1683 113.132 89.8536L113.11 89.8169C112.925 90.8649 112.365 92.9843 112.322 94.1C112.126 94.2251 112.101 94.4669 112.012 94.6301C112.1 94.5492 112.212 94.6091 112.181 94.6837C112.025 95.2018 112.283 94.7411 112.215 95.2921C112.209 95.9312 111.436 98.2337 111.164 98.7427C111.325 99.0939 111.054 99.4068 111.127 99.7252L111.074 99.6808C111.081 100.003 110.425 101.695 110.419 102.065L110.462 102.025C110.527 102.372 110.286 102.269 110.138 102.489C110.411 102.518 110.489 102.817 110.479 102.928L110.419 102.913C110.426 103.08 110.563 103.477 110.533 103.738L110.395 103.692C110.497 103.945 110.329 104.316 110.305 104.475C110.158 104.809 109.768 105.278 109.84 105.792L109.351 105.997L109.378 106.056C109.378 106.056 114.204 107.698 115.418 107.328L115.556 107.373L115.569 107.253C115.679 107.126 115.527 107.015 115.665 107.06L115.599 107.26C115.679 107.126 115.733 107.243 115.797 107.322C115.824 107.266 115.86 107.214 115.916 107.166C115.864 107.122 115.85 107.17 115.812 107.191C115.783 107.101 115.672 106.959 115.77 106.88C115.823 106.729 116.004 106.93 116.062 106.759C116.409 105.866 116.808 105.018 117.017 104.08C117.082 104.076 117.077 104.095 117.089 104.129C117.097 103.831 117.184 103.596 117.187 103.317C117.266 103.265 117.365 103.259 117.43 103.256C117.302 103.212 117.664 101.765 117.702 101.744Z" fill="#FAA017"/>
</svg>
