<svg width="165" height="148" viewBox="0 0 165 148" fill="none" xmlns="http://www.w3.org/2000/svg">
<path fill-rule="evenodd" clip-rule="evenodd" d="M37.1989 96.7887C39.6266 97.3584 41.9255 97.0022 44.1025 95.7492C41.7133 95.4599 39.4807 96.3043 37.1989 96.7887ZM56.4964 73.2393C56.6613 81.1604 54.2771 86.9903 51.0486 92.4647C48.7857 96.302 45.0898 98.222 40.6322 98.4493C36.8359 98.6432 33.0977 98.3477 29.477 96.9709C26.7474 95.9338 24.938 93.9299 23.4279 91.6171C20.6206 87.3162 17.3239 83.1744 17.2108 77.7057C17.0687 70.8773 18.4752 64.4543 22.9852 59.0627C24.895 56.7802 27.1617 55.248 30.454 55.7615C33.7217 56.2712 35.0404 60.2506 35.0158 62.6348C35.0044 63.7381 34.0836 64.2939 33.5404 64.9412C31.0666 67.8906 30.562 71.5821 29.3955 75.0241C29.1549 75.7327 29.6431 75.9279 30.1862 76.046C33.7103 76.8114 36.9105 76.586 39.3072 73.3726C40.5779 71.6699 41.9522 70.0556 42.7922 68.0706C43.192 67.1271 43.2109 66.2618 42.8598 65.257C42.4448 64.0659 41.6049 62.6007 43.6985 61.9489C44.1267 61.8156 44.0389 61.4512 43.8387 61.1026C42.9602 59.578 43.4673 58.0926 45.122 57.2886C48.4731 55.6598 53.6809 58.6364 54.0043 62.3556C54.0384 62.7466 54.063 63.2007 54.2708 63.5038C56.5969 66.8915 56.1409 70.8425 56.4964 73.2393Z" fill="#004680"/>
<path fill-rule="evenodd" clip-rule="evenodd" d="M102.539 74.1028C100.625 73.8041 98.7621 73.9399 97.002 74.7647C98.9036 75.0034 100.798 75.2157 102.539 74.1028ZM91.9863 36.0298C91.1855 36.7226 90.0727 36.3796 89.5997 37.3718C90.2243 37.8493 90.7984 37.1849 91.3428 37.303C92.1019 37.4685 93.6593 37.2007 92.4278 38.8276C92.3368 38.9482 92.1246 39.0688 92.3823 39.1958C94.5151 40.2492 92.9185 41.6039 92.5831 42.7502C92.2345 43.9483 91.6983 45.0958 91.6699 46.3659C91.6308 48.1425 91.6131 49.9197 91.6371 51.695C91.6661 53.8745 92.0046 54.1543 94.1652 53.949C97.8921 53.5947 100.507 50.9087 100.417 47.1743C100.343 44.1125 100.951 41.1827 101.64 38.2604C101.996 36.7548 102.941 35.5479 104.614 35.2605C106.584 34.9214 109.441 36.1333 110.175 37.8821C111.411 40.8252 112.523 43.8668 112.961 47.0284C113.824 53.2701 113.647 59.496 111.898 65.6146C111.214 68.0038 110.282 70.3324 108.839 72.3041C106.941 74.8967 104.091 76.0632 100.912 76.3954C96.8948 76.8147 93.0246 76.684 89.6666 73.9436C88.9308 73.343 88.4666 72.5586 87.9658 71.8658C84.6678 67.3015 80.7167 63.0138 79.9349 57.1315C79.0343 50.3574 80.0776 43.8599 83.5676 37.8922C84.7783 35.8213 86.4349 34.2664 89.1159 34.569C90.2104 34.6927 91.2297 35.0174 91.9863 36.0298Z" fill="#004680"/>
<path fill-rule="evenodd" clip-rule="evenodd" d="M77.9565 128.434C79.7583 129.35 82.8252 129.25 84.2847 128.297C82.1816 128.18 80.1745 128.028 77.9565 128.434ZM97.6272 109.291C97.8009 115.109 96.1291 120.948 92.2198 126.08C90.5948 128.212 88.383 129.548 85.7955 130.126C81.3506 131.118 77.0257 130.702 72.8871 128.701C70.4795 127.538 68.9423 125.556 67.3704 123.463C64.4494 119.571 63.0069 115.075 61.7937 110.529C60.4055 105.33 61.3863 100.317 63.7831 95.4812C64.6067 93.8189 65.1706 92.1459 66.8796 91.1506C68.1807 90.3927 69.4217 90.7211 70.6709 91.1765C70.9703 91.2857 71.4364 91.6419 71.4117 91.8301C71.0631 94.4953 73.3342 96.7216 72.6439 99.4398C72.3768 100.493 72.2309 101.578 72.0629 102.654C71.5961 105.642 73.2224 107.847 76.2912 108.18C79.2797 108.505 81.902 107.593 83.7449 105.147C85.2638 103.132 86.3532 100.856 86.9355 98.3725C87.4186 96.3111 89.0449 95.2021 91.1467 95.5166C94.6386 96.0389 95.5064 96.9748 95.8816 100.614C95.9043 100.84 95.8929 101.122 96.0218 101.275C97.8615 103.477 97.2982 106.172 97.6272 109.291Z" fill="#004680"/>
<path fill-rule="evenodd" clip-rule="evenodd" d="M145.715 47.4324C146.913 47.7273 148.11 48.2086 149.215 47.3162C148.033 47.1975 146.853 46.8956 145.715 47.4324ZM143.3 21.4698C145.874 22.2712 143.834 23.7832 143.843 24.9333C143.847 25.4979 143.194 26.1364 143.811 26.7345C144.413 27.3168 145.173 27.2732 145.908 26.9782C149.19 25.6627 150.964 23.0127 151.657 19.7582C152.166 17.3671 153.003 15.0822 153.512 12.6987C153.969 10.5602 156.15 9.4278 158.302 9.91473C160.872 10.4964 162.48 11.8991 162.836 14.6066C163.259 17.825 164.168 20.9329 164.071 24.2752C163.848 32.0478 161.647 39.0284 156.822 45.1502C152.321 50.8601 143.693 51.1083 139.06 45.4647C137.558 43.6338 136.165 41.5332 135.893 38.9823C135.848 38.5617 135.566 38.1455 135.329 37.7678C131.37 31.4876 131.779 25.0097 134.713 18.5696C136.721 14.1626 140.174 14.3754 142.981 16.4748C143.332 16.7375 143.817 17.0507 143.736 17.5528C143.633 18.1977 142.988 17.8775 142.594 18.0113C142.219 18.1389 141.701 18.1553 141.765 18.6871C141.831 19.2429 142.359 19.0774 142.738 19.1172C143.427 19.1892 144.151 19.2347 144.416 20.0469C144.701 20.9222 143.708 20.9247 143.3 21.4698Z" fill="#004680"/>
<path fill-rule="evenodd" clip-rule="evenodd" d="M23.2655 137.636C22.8891 138.193 23.1266 138.686 23.6874 138.742C24.5684 138.829 24.0221 138.174 24.0518 137.8C24.0941 137.268 24.343 137.606 24.6076 137.655C25.1893 137.764 25.1419 137.222 24.9038 137.066C24.5084 136.806 23.9615 136.593 23.5112 136.645C22.9807 136.706 23.1247 137.228 23.2655 137.636ZM21.0558 144.604C19.7106 144.188 18.1765 145.805 17.3542 143.701C17.3504 144.611 16.8167 145.957 17.874 145.903C18.8396 145.854 20.2922 145.938 21.0558 144.604ZM29.16 139.704C30.1573 140.298 30.3556 139.069 31.409 139.121C29.9823 140.233 29.1645 141.446 28.6093 142.971C28.2424 143.978 26.7134 144.592 25.7382 145.07C22.283 146.762 18.5599 147.888 14.66 147.998C13.4796 148.032 12.3403 147.291 11.1005 147.206C10.7166 147.18 10.3553 146.868 10.3825 146.385C10.3888 146.265 10.6016 146.044 10.6894 146.058C11.4024 146.172 11.9026 146.113 11.5508 145.194C11.3936 144.784 11.4511 144.215 10.9041 144.062C9.94352 143.792 10.6976 145.156 9.95805 145.092C9.25196 145.691 10.174 142.747 8.89387 144.631C8.81303 144.567 8.6924 144.518 8.65766 144.435C7.89726 142.601 6.11374 141.581 5.12218 139.864C4.17737 138.228 2.96414 136.748 2.25111 134.951C0.106957 129.553 -0.571971 123.996 0.502315 118.284C1.06061 115.314 2.94646 114.104 5.66722 114.632C6.59877 114.813 7.31939 115.279 7.69011 116.073C9.09155 119.078 11.206 121.876 10.1077 125.586C9.76795 126.734 10.4197 127.96 11.2363 128.898C11.7409 129.477 12.3573 129.822 13.21 129.387C14.8406 128.554 16.4612 127.757 17.6145 126.235C18.438 125.148 19.4195 124.181 20.2967 123.132C21.508 121.684 21.839 119.846 21.9741 118.105C22.1806 115.451 23.8897 114.207 26.3673 115.326C27.3746 115.78 28.3554 116.459 28.7798 117.453C29.9034 120.079 31.1804 122.603 31.7867 125.496C32.3791 128.323 32.5477 131.067 32.4037 133.892C32.3412 135.121 31.5524 136.191 31.6616 137.477C31.6819 137.715 31.1305 138.207 30.8172 138.23C29.803 138.306 29.7404 139.209 29.16 139.704Z" fill="#004680"/>
<path fill-rule="evenodd" clip-rule="evenodd" d="M130.125 87.8644C129.082 88.94 128.773 89.0435 128.422 88.3589C127.947 87.4318 126.589 87.116 125.888 87.788C125.458 88.1998 125.465 88.7366 125.838 89.1206C126.417 89.718 129.807 88.7518 130.125 87.8644ZM132.835 100.742C132.179 100.124 131.099 100.557 130.763 100.134C129.59 98.6564 128.802 100.475 127.813 100.36C127.639 100.34 126.974 100.982 127.165 101.428C127.36 101.882 128.205 102.234 128.45 102.024C129.713 100.941 131.428 101.582 132.835 100.742ZM129.17 93.7661C128.472 93.7566 127.66 93.7787 127.548 94.7311C127.415 95.8521 128.448 95.3463 128.959 95.5901C129.593 95.8938 130.156 95.2945 130.682 95.477C131.255 95.6753 131.603 95.5079 131.811 95.0854C132.113 94.4716 131.548 94.0288 131.295 93.5684C131.027 93.0828 130.581 93.4459 130.258 93.6171C129.928 93.7933 129.682 94.2234 129.17 93.7661ZM143.104 75.9816C144 76.3617 144.755 76.8291 144.894 77.7373C145.001 78.4427 144.178 78.0809 143.781 78.5413C145.679 78.5855 145.303 80.2541 145.102 80.9469C144.572 82.7721 145.244 84.5171 145.031 86.3006C144.89 87.4728 144.62 88.6595 144.523 89.8449C144.423 91.0746 143.599 89.3801 142.96 89.4692C142.624 89.8348 142.649 90.2188 143.079 90.4367C143.519 90.6609 144.302 90.6154 144.24 91.2369C144.165 91.9916 143.946 93.1493 143.454 93.364C142.129 93.9425 142.436 95.2574 142.517 95.8663C142.693 97.1799 142.093 97.0188 141.395 96.8218C140.386 96.5357 139.781 96.8578 139.578 97.8367C139.32 99.0859 137.916 98.8801 137.288 99.7598C136.673 100.622 135.71 101.231 135.794 102.521C134.06 102.313 134.862 100.786 134.174 99.859C133.929 102.887 131.692 102.835 129.665 103.06C128.992 103.136 128.229 102.877 127.638 103.107C126.397 103.588 126.487 102.988 126.801 101.857C126.11 103.205 125.471 103.664 124.498 102.544C124.145 102.138 123.561 102.2 123.061 102.088C122.14 101.881 122.027 101.667 122.052 100.481C122.059 100.147 121.847 100.181 121.642 100.087C119.53 99.1194 118.612 97.3504 118.596 95.0332C118.589 93.9299 119.039 92.171 116.862 92.2859C116.562 92.3011 116.502 92.0731 116.405 91.8678C114.406 87.613 115.057 83.5218 117.306 79.6073C118.344 77.8011 121.001 76.9024 123.021 77.6122C123.681 77.8447 124.391 78.4737 124.671 79.1027C124.95 79.7273 124.248 79.9768 123.608 80.0589C123.109 80.1227 123.263 80.5503 123.369 80.878C123.548 81.4269 123.918 81.569 124.442 81.3751C125.718 80.902 126.006 81.1136 125.856 82.6256C125.747 83.7333 127.325 84.1742 128.208 84.7741C128.807 85.1809 129.126 84.3093 129.302 83.8085C129.431 83.4472 129.628 83.1769 129.917 83.0298C132.712 81.598 133.02 78.857 133.453 76.2272C133.656 74.9938 133.687 73.6644 133.926 72.4979C134.168 71.3149 134.542 70.0752 134.851 68.8556C135.347 66.901 136.957 66.8384 138.5 66.9256C139.497 66.9818 140.484 67.3254 141.458 67.6045C141.694 67.6721 142.047 68.0131 142.025 68.19C141.838 69.7278 143.639 70.8261 142.901 72.5528C142.715 72.9886 143.312 73.8576 143.701 74.4229C144.441 75.4952 144.469 75.5294 143.104 75.9816Z" fill="#004680"/>
<path fill-rule="evenodd" clip-rule="evenodd" d="M68.2307 43.9893C66.833 44.6215 65.8491 45.3371 65.2624 46.5086C66.2211 45.7653 67.8252 45.7653 68.2307 43.9893ZM62.7776 23.2151C64.0773 22.9732 64.7121 22.2001 65.4415 21.6065C66.8556 20.4545 68.0113 20.8221 68.4301 22.6757C68.6119 23.4797 68.6568 23.9275 69.75 24.1504C70.8287 24.3708 71.07 25.9118 71.5594 26.9141C73.0682 30.0062 73.648 33.3289 73.4522 36.7444C73.1914 41.3004 70.9247 44.7178 67.1972 47.2586C65.4889 48.4232 63.7325 49.1091 61.5789 48.8558C60.5539 48.7352 59.9633 48.0809 59.1733 47.6881C56.4563 46.339 53.6503 45.1707 51.1139 43.4534C48.3849 41.6068 45.2088 34.6905 46.5395 31.0237C47.3921 28.6736 48.8302 27.2571 51.2187 26.76C52.5924 26.4739 53.2208 27.0442 53.3212 28.7248C54.0601 28.2057 54.4176 27.6025 54.6216 26.7947C55.1003 24.9032 55.8039 23.0938 56.6931 21.3444C57.7478 19.2672 59.4998 18.2529 61.6566 17.7445C62.5035 17.5449 63.3479 17.6504 63.8626 18.3268C64.3628 18.9836 64.3199 19.7775 63.8658 20.572C63.4464 21.3052 63.2083 22.142 62.7776 23.2151Z" fill="#004680"/>
<path fill-rule="evenodd" clip-rule="evenodd" d="M102.27 8.14374C103.337 5.7236 103.821 3.22514 105.705 1.46056C105.993 1.19025 106.245 0.837841 106.586 0.673004C107.397 0.280805 108.428 -0.355809 109.13 0.249858C109.739 0.775317 109.639 1.8856 109.329 2.78873C109.18 3.22262 108.625 3.81818 109.261 4.13838C109.799 4.40806 110.107 3.71144 110.45 3.35335C110.649 3.1462 110.796 2.88915 111.004 2.69526C111.392 2.33338 111.58 1.54961 112.31 1.83887C112.893 2.06875 113.407 2.48874 113.493 3.2043C113.572 3.86807 113.567 4.48574 114.599 4.03607C115.125 3.80744 115.493 4.48953 115.778 4.87478C118.925 9.13024 119.576 13.5328 115.486 17.8698C114.235 19.1954 112.949 20.4882 111.682 21.7981C110.985 22.5181 110.139 22.5086 109.294 22.2086C108.34 21.8701 109.369 21.0964 108.943 20.4769C107.973 22.0362 107.039 21.829 105.798 20.7042C105.029 20.0076 104.107 19.1367 102.659 19.7196C102.126 19.9344 101.112 19.3419 100.49 18.8841C97.372 16.5896 95.495 13.5524 95.4211 9.60012C95.3914 8.03259 95.9062 6.64252 97.4914 5.93643C97.7952 5.80128 98.4084 5.64592 98.4318 5.69834C99.1587 7.33345 101.278 6.68041 102.27 8.14374Z" fill="#004680"/>
</svg>
