<svg width="212" height="183" viewBox="0 0 212 183" fill="none" xmlns="http://www.w3.org/2000/svg">
<path fill-rule="evenodd" clip-rule="evenodd" d="M191.259 145.524C189.9 146.588 189.262 148.13 188.989 149.864C188.839 150.82 187.966 150.951 187.309 151.119C186.741 151.265 186.216 151.284 185.757 151.753C185.567 151.947 184.973 151.989 184.724 151.838C183.927 151.352 183.074 150.997 182.338 150.349C179.748 148.07 177.85 145.25 176.072 142.374C174.259 139.44 172.361 136.537 170.972 133.354C170.541 132.364 170.523 132.372 171.61 131.602C172.494 133.283 173.318 134.99 174.272 136.62C175.029 137.914 175.944 139.113 176.866 140.467C177.083 139.922 177.078 139.573 176.741 139.087C174.908 136.438 173.167 133.73 171.786 130.628C172.007 130.484 172.274 130.309 172.539 130.137C172.6 130.19 172.737 130.308 172.97 130.51V129.406C173.626 129.275 174.22 129.157 174.992 129.004C175.595 129.285 175.882 130.352 176.874 130.484C176.841 131.563 177.784 132.101 178.259 132.889C178.847 133.866 179.644 134.717 180.208 135.44C180.845 135.355 181.321 135.266 181.802 135.232C183.489 135.114 183.448 135.167 184.499 136.094C185.667 137.124 186.467 138.566 187.973 139.22C188.07 139.262 188.178 139.409 188.183 139.512C188.23 140.596 188.837 140.99 189.855 141.253C190.709 141.474 190.951 142.374 190.991 143.26C191.022 143.938 191.147 144.613 191.259 145.524Z" fill="#004680"/>
<path fill-rule="evenodd" clip-rule="evenodd" d="M40.6168 19.6115C41.8251 20.2164 41.8251 20.2164 42.4752 18.9504C43.3014 18.667 44.3 19.2375 45.0474 18.4785C45.8882 18.6882 46.718 18.9731 47.5713 19.0907C48.949 19.2799 49.6605 20.3457 50.4385 21.2428C50.9667 21.852 51.5197 22.4635 52.0026 23.1253C52.5673 23.8996 53.2422 24.5922 53.8091 25.3643C54.3227 26.0642 54.7617 26.8202 55.2176 27.561C55.3439 27.767 55.5061 28.0175 55.4878 28.2338C55.4389 28.8094 55.6383 29.1973 56.0474 29.6101C56.8342 30.4034 56.7728 31.5678 57.046 32.5584C57.2995 33.4818 57.1541 34.5344 57.0723 35.5214C57.0416 35.8983 56.992 36.7026 56.1621 36.1094C56.1037 36.0671 55.8137 36.3761 55.6142 36.4929C55.4038 36.6157 55.0444 36.8502 54.9699 36.7852C54.0948 36.0167 53.8814 36.566 53.4811 37.3257C52.8923 38.4441 52.5329 38.3616 50.9521 38.0796C49.99 37.9072 48.9702 37.8773 48.407 37.0423C46.8839 34.785 45.3235 32.5431 45.1124 29.6575C45.0284 28.5011 44.7055 27.2943 43.7514 26.463C42.9296 25.7464 42.3839 24.7222 41.2618 24.3226C40.9236 24.2021 40.676 23.7988 40.413 23.5015C39.8542 22.8674 39.5539 22.1625 39.5393 21.2705C39.524 20.3442 40.2559 20.1368 40.6168 19.6115Z" fill="#004680"/>
<path fill-rule="evenodd" clip-rule="evenodd" d="M169.742 95.0598C168.755 94.0736 167.928 93.1079 166.963 92.3072C164.195 90.0105 162.881 86.7612 161.225 83.7368C160.482 82.3788 160.694 80.8535 160.726 79.3845C160.732 79.1295 161.084 78.8819 161.29 78.6145C161.572 79.1711 161.835 79.6927 162.22 80.4539V77.7342C162.8 77.4471 163.372 77.2908 163.762 76.9358C164.246 76.4953 164.793 76.5822 165.237 76.694C165.754 76.824 166.196 77.2557 166.716 77.5859C166.411 79.0134 166.973 80.2085 167.669 81.454C168.292 81.2852 169.028 81.7279 169.652 81.088C169.784 80.9521 170.218 80.9412 170.405 81.0537C171.933 81.9734 173.808 82.4614 174.581 84.349C174.72 84.6894 174.874 85.1292 175.153 85.2804C175.574 85.5083 175.196 86.2199 175.919 86.2476C176.513 86.2703 176.134 86.8766 176.24 87.2068C176.372 87.6159 176.553 88.0162 176.624 88.4355C176.69 88.8198 176.638 89.2245 176.638 89.6233C175.109 90.9353 174.125 92.6067 173.372 94.4688C172.148 94.6675 170.906 94.8699 169.742 95.0598Z" fill="#004680"/>
<path fill-rule="evenodd" clip-rule="evenodd" d="M3.81614 2.17771C4.1792 1.68315 4.46191 1.27115 4.7753 0.882513C4.88999 0.741524 5.06677 0.642174 5.23114 0.55013C5.6994 0.287876 6.03397 1.02935 6.55775 0.706459C6.9683 0.453702 7.44897 0.226513 7.91723 0.181221C8.30586 0.143965 8.88224 0.612223 9.09117 0.461738C9.5565 0.126433 9.83483 0.025622 10.2395 0.47927C10.3148 0.562548 10.5902 0.499724 10.7618 0.458085C12.0315 0.152001 12.0307 0.148348 12.7101 1.38218C12.8029 1.11482 12.8833 0.883974 13.0294 0.462468C13.2302 1.00597 13.4275 1.39241 13.5108 1.8015C13.613 2.30117 13.6379 2.8191 13.6613 3.33046C13.6854 3.84474 13.6664 4.36121 13.9549 4.89083L14.1478 2.97543C14.2157 2.97251 14.2844 2.96959 14.353 2.96739C14.3903 3.30635 14.456 3.64531 14.4582 3.985C14.4692 5.70755 14.3881 7.43448 14.486 9.15118C14.5729 10.6655 14.3136 12.0367 13.4582 13.2888C13.1375 12.982 12.8336 12.5167 12.4683 13.2589C12.0687 14.0697 11.4288 14.0084 10.6019 13.6365C10.4645 14.5183 10.4024 15.5578 8.94214 15.2254V13.0171C8.84498 12.9981 8.74709 12.9783 8.64994 12.9586C8.41836 13.7118 8.18752 14.4649 7.94937 15.24C7.29703 14.8032 6.76229 14.3385 6.86822 13.4196C6.89744 13.1617 6.59647 12.8797 6.49931 12.5919C6.07926 11.3398 6.08584 11.3369 5.04632 11.3069C4.84762 11.3011 4.64892 11.3062 4.45022 11.3062H3.90453C3.40048 10.8021 2.9461 10.3178 2.46031 9.86781C1.42517 8.91157 1.09571 7.6456 0.929883 6.32994C0.848065 5.6776 0.989054 4.99603 0.896279 4.3466C0.794007 3.6307 1.16292 3.10181 1.48872 2.59776C2.13815 1.5933 2.49245 1.56408 3.81614 2.17771Z" fill="#004680"/>
<path fill-rule="evenodd" clip-rule="evenodd" d="M120 17.946C119.15 18.5231 118.332 19.1016 117.48 19.6225C117.397 19.6729 117.1 19.3727 116.78 19.1491C116.585 19.5005 116.452 19.8227 116.244 20.0856C116 20.3961 115.687 20.6518 115.41 20.9374C114.849 21.5153 114.308 22.1588 113.479 21.2808C113.416 21.2143 113.223 21.28 113.092 21.2662C112.161 21.1653 111.273 21.3976 110.336 20.6481C109.581 20.0447 108.621 19.6276 107.911 18.8869C107.247 18.1914 106.558 17.5384 106.094 16.6559C105.383 15.3008 104.68 13.961 104.934 12.3707C104.997 11.9718 105.271 11.6059 105.519 11.0719C106.02 11.4824 106.359 11.76 106.755 12.0851C107.079 11.009 107.013 9.7584 108.01 8.81019C108.401 9.1024 108.778 9.38437 109.25 9.73648V8.28349C110.559 8.05996 111.748 7.60996 113.06 7.68886C113.812 7.73415 114.463 7.97229 114.939 8.42886C115.551 9.01474 116.3 9.43405 116.8 10.185C117.252 10.8644 117.869 11.4327 118.343 12.1326C119.121 13.2831 119.384 14.628 119.953 15.8523C120.225 16.436 120 17.2513 120 17.946Z" fill="#004680"/>
<path fill-rule="evenodd" clip-rule="evenodd" d="M35.6255 56.0331V60.308C36.0222 59.2276 35.9535 58.1362 35.9871 57.0507C36.0003 56.6138 35.7935 56.0703 36.3232 55.8095C36.8703 55.5392 37.4481 55.2719 38.0384 55.1849C38.2415 55.155 38.6279 55.6357 38.7433 55.9505C38.8675 56.2887 38.7718 56.7073 38.7718 57.1339C39.102 56.9959 39.2985 56.8359 39.4746 56.8556C39.8384 56.8965 40.338 57.2333 40.5243 57.0974C41.5595 56.3355 42.6939 56.8359 43.7642 56.776C44.2485 56.749 44.9812 57.0726 45.2135 57.4656C45.7833 58.4335 46.9331 58.7294 47.5358 59.8682C47.5555 60.3548 47.6198 60.956 48.1253 61.6032C48.7879 62.4513 49.3533 63.5047 49.148 64.7459C49.0523 65.323 49.1312 65.9286 49.1312 66.6321C47.7732 67.4378 46.3604 68.2209 45.006 69.0946C43.5888 70.0092 42.2995 69.3949 41.0934 68.763C40.2131 68.3013 39.0319 68.085 38.7346 66.8556C36.7666 65.9702 36.4167 63.8963 35.3662 62.3293C34.6598 61.2759 34.6817 60.0501 34.4815 58.9354C34.3164 58.0142 34.9666 56.9469 35.2559 55.9447C35.3793 55.9739 35.5028 56.0038 35.6255 56.0331Z" fill="#004680"/>
<path fill-rule="evenodd" clip-rule="evenodd" d="M74.1726 77.5884C73.334 76.7498 72.445 75.8607 71.4442 74.8599C71.4442 74.1974 71.3755 73.4077 71.4792 72.6414C71.5187 72.3565 71.93 72.0687 72.236 71.9014C72.3522 71.8371 72.651 72.1074 72.8687 72.2264C73.1579 71.6537 73.3274 70.8787 74.3056 71.0671C74.4875 71.1029 74.7453 71.1139 74.8695 71.0138C75.3568 70.6193 75.8871 70.2168 76.5103 70.3899C77.6272 70.7011 78.872 70.883 79.7428 71.6537C81.4639 73.1783 83.1002 74.8351 83.9571 77.0369C84.4677 78.3496 84.9287 79.7054 85.1756 81.0846C85.283 81.688 85.1201 82.5164 84.4327 82.9971C83.3011 83.7897 82.2119 84.6459 81.0555 85.3998C80.6618 85.6562 80.1066 85.8337 79.6471 85.7935C76.7521 85.543 74.6891 84.1806 73.8337 80.9108C73.7087 80.4345 73.41 79.9385 73.4743 79.4929C73.5678 78.8478 73.9199 78.2393 74.1726 77.5884Z" fill="#004680"/>
<path fill-rule="evenodd" clip-rule="evenodd" d="M79.1424 149.567C79.0635 149.167 78.9846 148.768 78.9057 148.369C78.9006 149.954 77.227 150.547 76.8624 151.895C76.7324 152.377 76.0194 152.592 75.7243 152.324C75.2429 151.888 74.9149 152.206 74.6431 152.383C73.9207 152.853 73.307 152.808 72.5692 152.377C70.4427 151.134 68.249 149.991 66.9954 147.712C65.4847 146.894 65.0427 145.234 64.104 143.972C63.6475 143.358 63.5021 142.513 63.1836 141.689C63.7388 140.88 64.5453 141.094 65.5205 141.581C65.4263 141.121 65.4518 140.698 65.259 140.437C64.9923 140.079 65.2772 139.938 65.4285 139.874C66.1151 139.587 66.8252 139.377 67.3906 138.835C67.5287 138.702 67.9195 138.754 68.162 138.827C68.5952 138.959 68.9663 139.236 69.4477 138.844C69.5843 138.734 70.0285 138.955 70.3075 139.077C72.7058 140.131 74.8762 141.451 76.2963 143.789C76.4877 144.105 76.9187 144.439 77.2408 144.739C78.1649 145.598 78.3381 146.848 79.0532 147.774C79.5281 148.39 79.4243 148.93 79.1424 149.567Z" fill="#004680"/>
<path fill-rule="evenodd" clip-rule="evenodd" d="M200.069 56.6822C200.121 56.3147 200.174 55.9465 200.232 55.5418C200.377 55.647 200.506 55.6887 200.539 55.7698C201.05 57.0189 201.686 58.2162 201.986 59.5524C202.175 60.3924 202.415 61.1967 201.602 61.8513C201.048 62.2969 201.61 63.5767 200.365 63.5052C199.777 64.4482 198.836 64.354 197.936 64.2897C197.733 64.9209 197.607 65.536 197.342 66.0846C197.043 66.7026 196.088 66.8772 195.065 66.585C194.831 66.5185 194.605 66.2913 194.391 66.3103C192.733 66.455 192.736 66.4674 192.038 65.1598C191.69 64.5074 191.269 63.8843 190.999 63.2013C190.67 62.3685 190.159 61.8484 189.318 61.4889C188.069 60.9549 187.259 59.8723 187.043 58.5844C186.848 57.4185 187.394 56.3491 188.435 55.509C188.95 56.1825 189.465 56.8538 190.186 57.7947C190.186 56.8319 190.175 56.184 190.189 55.5367C190.202 54.8931 190.272 55.0246 191.29 54.5659C192.018 54.2379 193.072 54.6353 193.491 53.6257C194.209 53.598 194.927 53.5717 195.646 53.5439C196.974 53.4913 198.151 53.6359 198.77 55.1116C199.015 55.696 199.603 56.1372 200.069 56.6822Z" fill="#004680"/>
<path fill-rule="evenodd" clip-rule="evenodd" d="M3.65837 66.362C2.08631 66.0216 1.53404 64.9068 1.39086 63.9272C1.2075 62.6744 0.783077 61.4464 0.884618 60.122C1.01611 58.4075 1.00661 56.6681 0.878043 54.9536C0.81595 54.1215 1.34995 53.5057 1.33754 52.7277C1.33461 52.5254 1.61586 52.1338 1.74881 52.1418C2.77445 52.2003 3.2617 51.0899 4.33702 51.0833C5.04927 51.0797 5.75787 50.412 6.55705 49.9941C7.34454 50.7816 9.0196 49.8079 9.65807 51.5443C9.24022 52.7642 10.2812 53.8359 10.634 55.0858C10.683 55.2604 10.8663 55.416 10.8678 55.5811C10.8846 57.5498 10.878 59.5178 10.878 61.656C10.5595 61.3733 10.4215 61.2513 10.0788 60.9467C10.1862 61.4091 10.1658 61.7634 10.3236 61.8832C10.4916 62.0118 10.8459 61.8693 11.084 61.949C11.1921 61.9848 11.2499 62.2704 11.2615 62.4472C11.2674 62.5283 11.0913 62.7072 11.0271 62.6941C10.5449 62.5999 10.0693 62.4684 9.54849 62.3383C9.19273 63.1083 8.81287 63.9301 8.52943 64.5445C7.98666 64.5043 7.66231 64.4795 7.33869 64.4554C7.9063 65.0281 7.25395 65.2341 7.018 65.5862C6.77766 65.9434 6.60161 66.3437 6.41094 66.6995C5.15738 66.5636 4.68986 65.7557 4.35455 64.6855C4.11713 65.2582 3.90309 65.7717 3.65837 66.362Z" fill="#004680"/>
<path fill-rule="evenodd" clip-rule="evenodd" d="M150.308 157.978C149.277 157.948 148.302 157.67 147.804 158.813C146.962 157.704 146.863 156.917 147.72 156.036C148.312 155.428 148.702 154.669 149.456 154.144C150.115 153.684 150.358 152.666 150.926 152.018C151.363 151.52 152.019 151.213 152.578 150.822C152.752 150.992 152.941 151.178 153.238 151.469C152.923 151.694 152.613 151.914 152.302 152.134C152.337 152.214 152.372 152.294 152.406 152.373C152.86 152.302 153.314 152.23 153.825 152.15C153.961 152.353 154.118 152.876 154.457 153.053C156.488 154.11 157.785 155.876 159.019 157.688C159.425 158.283 159.564 159.052 159.89 159.71C160.694 161.337 160.902 161.637 160.657 163.116C160.48 164.185 160.285 165.324 159.446 166.195C159.114 166.539 158.761 167.035 158.743 167.474C158.699 168.585 158.089 168.762 157.192 168.705C156.942 168.689 156.677 168.721 156.433 168.787C154.868 169.208 154.706 169.164 153.926 167.964C152.771 166.189 152.218 164.158 151.546 162.184C151.071 160.789 150.709 159.355 150.308 157.978Z" fill="#004680"/>
<path fill-rule="evenodd" clip-rule="evenodd" d="M124.975 136.12C123.868 135.492 122.748 134.942 121.846 134.032C120.165 132.335 118.36 130.744 116.809 128.936C115.179 127.034 113.453 125.16 112.469 122.93C112.572 122.05 113.719 122.985 113.741 121.946C113.748 121.65 114.475 121.363 114.878 121.082C115.879 120.384 116.438 120.267 117.167 121.042C117.886 121.809 118.718 122.083 119.66 122.283C121.114 122.591 122.118 123.708 123.363 124.396C124.695 125.13 125.644 126.314 126.725 127.342C127.286 127.873 127.982 128.282 128.463 128.871C128.948 129.463 129.393 130.175 129.564 130.904C129.668 131.347 129.335 132.016 128.996 132.411C128.577 132.899 128.379 133.602 127.647 133.838C127.223 133.974 127.283 134.447 127.2 134.837C127.105 135.285 126.98 135.83 126.203 135.268C125.66 134.875 125.202 135.432 124.975 136.12Z" fill="#004680"/>
<path fill-rule="evenodd" clip-rule="evenodd" d="M205.182 124.599C202.911 123.664 201.935 121.925 200.965 120.235C200.113 118.75 199.335 117.204 198.701 115.613C198.069 114.025 196.967 112.52 197.459 110.522C198.895 111.523 198.776 113.436 200.155 114.715C199.902 112.691 198.852 111.128 198.329 108.996C199.053 109.394 199.316 109.538 199.638 109.714C199.7 109.367 199.765 109.003 199.829 108.641C200.43 108.527 201.022 108.414 201.722 108.281C201.907 108.578 202.151 109.016 202.44 109.422C203.568 111.002 203.575 110.995 205.623 111.723C205.852 111.805 206.066 111.938 206.273 112.07C207.86 113.072 209.304 114.201 210.177 115.944C210.5 116.588 210.94 117.771 210.92 118.457C210.915 118.618 211.05 118.806 211.167 118.942C211.465 119.288 211.33 119.582 211.022 119.757C210.127 120.262 209.739 121.255 208.945 121.85C208.606 122.103 208.545 122.441 208.484 122.859C208.399 123.429 207.281 124.168 206.761 124.048C206.439 123.973 206.231 123.382 205.792 123.818C205.562 124.047 205.386 124.332 205.182 124.599Z" fill="#004680"/>
<path fill-rule="evenodd" clip-rule="evenodd" d="M140.664 78.1696C140.316 78.2274 139.951 78.2873 139.448 78.3705C139.647 78.7431 139.788 79.0075 139.937 79.2851C138.991 80.2311 138.006 81.2159 136.991 82.232C136.827 82.232 136.627 82.2021 136.438 82.2364C134.204 82.6499 132.716 81.3817 131.474 79.8527C130.505 78.6584 129.672 77.3427 129.023 75.9072C128.618 75.0109 128.257 74.1854 128.546 72.9677C129.224 74.4579 129.828 75.7845 130.432 77.1119C130.539 77.0768 130.647 77.0425 130.755 77.0074C130.706 76.7546 130.699 76.4836 130.601 76.2513C130.197 75.2914 129.737 74.3534 129.357 73.3855C129.188 72.9567 128.826 72.4227 129.748 72.2233C130.032 72.1619 130.198 71.549 130.415 71.1859C130.605 70.8674 130.789 70.5453 130.94 70.2881C131.871 70.2027 131.88 71.0172 132.461 71.3532C132.325 70.8404 132.19 70.3276 132.012 69.6526C132.31 69.4166 132.708 69.1011 133.106 68.7848C133.358 69.0346 133.691 69.4327 134 68.6986C134.335 67.9052 134.83 67.5962 135.633 68.1171C135.706 68.1645 135.858 68.2011 135.906 68.1616C136.836 67.3953 137.384 68.1587 137.814 68.7446C138.841 70.145 139.325 71.8266 139.94 73.4264C140.084 73.8019 140.399 74.6836 139.34 74.726C139.28 74.7282 139.234 75.0577 139.182 75.2344C139.403 75.2878 139.742 75.4587 139.826 75.374C140.42 74.7786 140.74 75.5559 140.681 75.6925C140.324 76.5318 141.152 77.3427 140.664 78.1696Z" fill="#004680"/>
<path fill-rule="evenodd" clip-rule="evenodd" d="M133.449 35.6567C133.683 35.8904 133.918 36.1249 134.273 36.4799C134.338 35.9167 134.392 35.4521 134.452 34.9451C135.271 34.7735 136.116 34.5572 136.975 34.4301C137.493 34.3534 138.041 34.3556 138.559 34.4352C138.953 34.4966 138.643 35.2315 139.379 35.2958C139.855 35.3374 140.22 36.1454 140.558 36.7079C140.833 37.1644 140.421 38.1528 141.465 38.0936C141.5 38.7401 141.536 39.3874 141.573 40.0339C141.576 40.0967 141.591 40.1588 141.6 40.2216L144.56 43.1817C144.878 43.1817 145.214 43.1408 145.534 43.1912C146.029 43.2708 146.561 43.761 146.308 44.0648C145.744 44.7406 146.755 45.2074 146.354 45.7589C144.813 46.2206 144.327 46.2717 143.074 46.0526C143.388 46.7312 143.661 47.3229 144.005 48.0666C143.804 48.2587 143.541 48.727 143.281 48.7255C141.639 48.7131 139.911 49.1295 138.448 47.9643C138.052 47.648 137.572 47.4004 137.264 47.0139C136.561 46.1329 135.931 45.1928 135.289 44.2635C134.972 43.8055 134.702 43.3146 134.398 42.8471C133.928 42.1231 134.067 41.08 133.205 40.562C133.335 39.684 132.84 39.0199 132.524 38.2624C132.094 37.2331 132.36 36.2484 133.449 35.6567Z" fill="#004680"/>
<path fill-rule="evenodd" clip-rule="evenodd" d="M71.9663 6.12612C72.7428 6.12612 73.2739 6.12539 73.8043 6.12612C74.5151 6.12758 75.2843 6.00851 75.4472 7.03561C75.4647 7.14957 75.7306 7.32416 75.8577 7.3059C76.6993 7.18098 76.9177 7.97651 77.4327 8.32643C78.8302 9.27609 79.0362 10.8401 79.3854 12.2865C79.5848 13.1113 79.3182 13.703 78.3795 14.2648C77.3261 14.8952 76.0075 15.2867 75.2843 16.4322C74.6458 16.4446 74.1235 17.4432 73.3776 16.644C73.2695 16.5286 73.0299 16.4899 72.8524 16.4928C70.338 16.541 68.7645 15.0975 67.4503 13.1726C66.7833 12.1967 65.9483 11.3244 65.6868 10.1228C65.5794 9.62966 65.5166 9.12414 65.4815 8.62082C65.4691 8.45573 65.5663 8.16937 65.6817 8.12773C66.6935 7.76612 67.4291 6.90339 68.4102 6.55201C69.6199 6.11955 70.9136 5.98952 71.9663 6.12612Z" fill="#004680"/>
<path fill-rule="evenodd" clip-rule="evenodd" d="M68.7703 102.762C69.0618 103.22 69.2758 103.557 69.6922 104.213C69.7857 103.519 69.8215 103.281 69.8485 103.043C69.9362 102.253 69.9347 102.255 70.9326 102.153C71.0575 102.14 71.2497 102.157 71.2942 102.086C71.7493 101.369 72.4601 101.168 73.1775 101.384C73.9905 101.629 74.8635 101.936 75.4961 102.469C77.9645 104.549 79.4168 107.338 80.5447 110.296C80.7361 110.801 80.5717 111.441 80.5717 112.011C80.2759 111.978 80.0436 111.952 79.8105 111.926C79.8609 112.641 79.6995 113.17 78.8638 113.339C78.6132 113.39 78.2706 113.764 78.2458 114.016C78.1618 114.877 77.2778 114.457 76.9696 114.905C76.4772 114.121 75.6298 115.07 75.0761 114.51C74.5457 113.974 73.8196 113.56 73.469 112.931C72.6968 111.543 71.9575 110.1 71.5053 108.589C71.2745 107.816 70.9319 107.303 70.3365 106.952C69.3701 106.385 68.6191 105.665 68.1472 104.642C67.7534 103.788 67.7366 103.796 68.7703 102.762Z" fill="#004680"/>
<path fill-rule="evenodd" clip-rule="evenodd" d="M106.112 79.5914C106.112 79.3935 106.065 79.1181 106.129 78.8711C106.172 78.706 106.455 78.5936 106.479 78.435C106.507 78.2619 106.303 78.0632 106.301 77.8747C106.3 77.7074 106.535 77.5022 106.489 77.3787C106.405 77.1515 106.216 76.9411 106.023 76.7833C105.894 76.6781 105.68 76.6767 105.416 76.6051C105.54 77.0368 105.64 77.3846 105.741 77.733C105.037 77.3042 104.256 76.9623 104.6 75.9286C104.891 76.0528 105.176 76.1763 105.531 76.3282C105.645 75.0842 104.491 75.7314 104.047 75.1426C104.697 75.2193 105.13 74.7715 105.784 74.8584C106.087 74.8986 106.482 74.2543 106.946 73.8145C107.591 74.3412 108.315 74.9308 109.16 75.6211C109.243 75.1163 109.302 74.7569 109.374 74.3193C110.33 74.1345 111.31 73.9453 112.302 73.7539C112.811 74.4041 113.209 74.9972 113.694 75.5079C114.115 75.9491 114.693 76.2435 115.099 76.6957C116.243 77.9726 116.761 79.5849 117.232 81.1796C117.401 81.7501 117.586 82.653 116.496 82.8057C116.501 83.8532 115.396 84.0096 114.898 84.6736C114.273 85.5049 113.169 85.6481 111.977 85.1667C110.191 84.4457 109.018 83.0519 107.878 81.6946C107.307 81.0145 106.666 80.3731 106.112 79.5914Z" fill="#004680"/>
<path fill-rule="evenodd" clip-rule="evenodd" d="M138.943 105.427C139.265 105.536 139.575 105.641 139.931 105.763C140.003 104.087 138.271 103.617 138.03 102.074C138.381 102.229 138.666 102.295 138.873 102.459C139.205 102.724 139.484 103.052 139.897 103.466C139.756 102.626 139.663 102.433 139.184 101.858C140.231 100.591 140.231 100.591 141.468 100.587C142.148 101.353 142.729 102.363 143.6 102.895C144.562 103.483 144.846 104.486 145.555 105.206C146.233 105.895 146.683 106.833 147.132 107.713C147.379 108.195 147.589 108.811 147.509 109.318C147.406 109.959 147.133 110.9 146.68 111.082C145.935 111.382 146.102 111.909 145.867 112.362C145.546 112.981 145.106 113.583 144.299 113.716C143.828 113.793 143.267 114.153 142.922 113.997C142.081 113.618 141.212 113.135 140.591 112.472C139.417 111.222 138.368 109.846 137.365 108.452C137.113 108.103 137.229 107.49 137.154 106.799C137.489 107.069 137.622 107.176 137.904 107.403C137.758 106.387 138.646 106.039 138.943 105.427Z" fill="#004680"/>
<path fill-rule="evenodd" clip-rule="evenodd" d="M128.47 178.495C127.926 178.196 127.664 178.052 127.41 177.912C126.962 179.53 126.851 179.614 125.528 179.031C125.877 179.844 126.157 180.494 126.461 181.201C126.116 181.401 125.762 181.607 125.405 181.815C124.759 181.17 124.104 180.515 123.388 179.798C122.957 180.769 124.144 181.217 124.027 182.155C122.962 182.303 122.345 181.579 121.732 180.913C121.398 180.549 121.216 180.041 120.872 179.691C119.335 178.13 117.954 176.443 116.667 174.676C116.551 174.517 116.391 174.39 116.248 174.253C115.472 173.513 114.659 172.797 114.602 171.591C115.376 171.117 115.787 171.848 116.314 172.3C116.849 171.414 115.61 171.296 115.666 170.642C115.713 169.855 117.212 170.859 116.831 169.572H118.988C119.606 170.007 120.232 170.437 120.845 170.884C121.461 171.331 121.868 171.975 122.622 172.339C123.354 172.694 123.839 173.532 124.483 174.099C124.903 174.47 125.17 174.979 125.841 175.145C126.327 175.265 126.586 176.002 127.324 175.907C127.529 175.88 127.9 176.251 128.004 176.515C128.204 177.018 128.265 177.574 128.47 178.495Z" fill="#004680"/>
<path fill-rule="evenodd" clip-rule="evenodd" d="M114.78 45.2498C115.465 45.2951 115.939 44.9408 116.565 45.393C116.247 45.5026 116.016 45.5822 115.764 45.6691C115.999 46.4676 116.261 47.2609 116.453 48.0703C116.502 48.2778 116.393 48.6876 116.249 48.7482C115.45 49.0857 115.208 49.9455 114.586 50.4167C114.31 50.6256 113.898 50.6936 113.537 50.7345C113.357 50.7542 113.144 50.4817 112.964 50.5007C112.744 50.5241 112.542 50.7162 112.311 50.8477C111.969 49.6395 111.987 49.5905 110.64 49.1317C109.834 48.8571 109.667 48.0652 109.096 47.567C108.968 47.8395 108.845 48.1025 108.707 48.3976C108.506 48.1872 108.167 47.9958 108.168 47.8059C108.178 45.4324 108.176 45.3791 107.093 43.9568C106.482 45.0299 107.652 45.6509 107.716 46.7006C107.426 46.6553 106.993 46.6889 106.942 46.5655C106.433 45.328 105.657 44.1592 106.453 42.6748C106.7 42.2138 106.744 41.972 107.299 41.9625C107.641 41.9574 108.008 41.7565 108.313 41.5636C109.102 41.0647 109.863 40.5212 110.707 39.9463C110.9 40.2341 111.078 40.5007 111.035 40.4357C111.7 40.8996 112.394 39.6504 112.505 40.9529C112.537 41.3226 113.364 40.4408 113.364 41.4088C113.364 41.7828 114.051 42.1575 114.397 42.5031C114.273 42.823 114.156 43.1284 114.039 43.4338C114.136 43.5017 114.234 43.5696 114.333 43.6376C114.506 43.3081 114.679 42.9786 114.898 42.5644C115.253 43.1693 115.46 43.5192 115.731 43.9787C115.437 44.3717 115.109 44.8108 114.78 45.2498Z" fill="#004680"/>
<path fill-rule="evenodd" clip-rule="evenodd" d="M47.8144 104.756C47.3557 104.178 46.9926 103.72 46.5894 103.21C46.3841 103.63 46.2533 103.897 46.0831 104.244C45.3168 103.885 44.8011 103.292 44.362 102.673C43.3919 101.305 42.6417 99.7956 41.6584 98.4251C41.0535 97.5829 41.0177 96.5243 41.2566 95.4286C42.1646 95.2445 42.3612 96.3118 43.118 96.5813V94.6418C44.5483 94.4402 45.9268 94.2459 47.1906 94.0684C48.5164 95.2591 49.3894 96.5455 50.0082 98.0314C50.3617 98.8781 51.09 99.5136 51.3114 100.482C51.399 100.865 50.9081 101.38 51.5123 101.665C51.5225 101.669 51.3326 102.135 51.3267 102.133C50.3405 101.777 50.0089 103.208 49.0599 102.978C48.9986 102.963 48.8306 103.33 48.7363 103.531C48.6319 103.751 48.5851 104.004 48.4565 104.207C48.3616 104.359 48.1775 104.454 47.8144 104.756Z" fill="#004680"/>
<path fill-rule="evenodd" clip-rule="evenodd" d="M91.9398 128.852C92.2247 129.511 92.4322 129.991 92.7288 130.675C92.9173 130.176 93.0042 129.947 93.0962 129.705C93.1854 129.76 93.3315 129.798 93.3505 129.869C93.5302 130.552 93.8545 131.136 94.3476 131.655C94.6427 131.965 94.856 132.365 95.0569 132.75C95.4112 133.431 95.9138 133.897 96.7276 134.041C96.8555 133.783 96.9869 133.515 97.0483 133.391C97.4253 133.673 97.8351 133.981 98.1404 134.209C98.1404 134.458 98.1667 134.564 98.1368 134.584C97.7759 134.819 97.407 135.04 97.0702 135.246C97.1681 135.79 97.2558 136.283 97.388 137.022C96.7912 136.732 96.4646 136.573 95.9942 136.343C95.7334 136.868 95.4719 137.395 95.1906 137.962C94.9232 137.992 94.6099 138.028 94.2263 138.072V138.957C93.2255 139.706 92.4066 139.606 91.5388 138.814C90.5935 137.952 89.5277 137.224 88.5634 136.198C88.9688 135.93 89.3604 135.671 89.7899 135.388C89.5708 134.584 89.177 133.867 88.6094 133.165C88.0418 132.463 87.7306 131.553 87.3223 130.763C87.9059 130.043 88.3669 130.576 88.9024 130.801C88.925 130.6 89.0178 130.386 88.9542 130.241C88.5546 129.343 88.7278 128.898 89.5744 128.86C90.3692 128.822 91.167 128.852 91.9398 128.852Z" fill="#004680"/>
<path fill-rule="evenodd" clip-rule="evenodd" d="M35.2389 136.729C35.5728 137.223 35.8452 137.627 36.1857 138.13C36.274 137.855 36.3953 137.677 36.3675 137.529C36.2317 136.809 36.0556 136.098 35.8715 135.286H37.0294C37.1295 135.494 37.2522 135.749 37.4947 136.254V134.627C37.7212 134.547 37.914 134.523 38.0492 134.423C38.3582 134.193 38.8476 133.67 38.898 133.711C39.4043 134.128 40.0296 133.876 40.5205 134.065C41.2525 134.345 41.9479 134.835 41.9384 135.768C41.9355 136.047 41.5659 136.358 41.6214 136.592C41.6667 136.783 42.178 136.825 42.3307 137.041C42.4556 137.217 42.4659 137.689 42.3373 137.792C41.8208 138.204 41.9348 138.737 41.9698 139.237C42.0144 139.861 41.7412 140.24 41.1875 140.397C40.5958 140.565 40.4577 140.944 40.3335 141.51C40.1574 142.31 39.6088 142.842 38.6811 142.802C38.3604 142.789 38.028 142.797 37.7168 142.865C36.9249 143.038 35.927 142.848 35.6801 142.267C35.0775 140.85 34.2052 139.511 34.3674 137.843C34.431 137.193 34.8225 137.008 35.2389 136.729Z" fill="#004680"/>
<path fill-rule="evenodd" clip-rule="evenodd" d="M99.1274 100.888C99.6227 101.034 100.14 101.185 100.775 101.371C101.045 100.729 101.125 100.112 100.556 99.5389C101.255 98.9041 101.719 99.861 102.404 99.7573C102.467 99.4118 102.535 99.048 102.601 98.6915C103.137 98.1173 103.621 99.1765 104.269 98.6769C104.931 98.1655 105.099 99.2693 105.662 99.3957C105.978 99.4666 106.274 99.796 106.5 100.074C107.248 100.991 107.365 102.289 108.372 103.091C108.613 103.282 108.485 103.94 108.539 104.525C107.422 103.977 107.354 105.749 106.278 105.329C105.947 105.864 106.259 106.835 105.049 106.951C104.921 106.734 104.721 106.393 104.436 105.906C104.194 106.412 104.076 106.658 103.955 106.91C103.277 107.071 102.967 106.487 102.744 106.115C102.004 104.877 101.046 103.929 99.806 103.189C99.0434 102.733 98.6248 101.99 99.1274 100.888Z" fill="#004680"/>
<path fill-rule="evenodd" clip-rule="evenodd" d="M89.4341 47.9585C88.4939 48.6949 87.8007 49.2384 86.9058 49.9404H85.2322C84.5806 48.998 84.3687 47.7584 83.4081 46.9804C83.3073 45.6684 82.4 44.8553 81.6118 43.9407C81.3612 43.6492 81.4152 43.0955 81.3086 42.5535C81.5964 42.4731 81.8813 42.4789 82.0303 42.3394C83.5593 40.9098 84.9999 41.7134 86.2184 42.6886C87.2586 43.5207 88.1367 44.6215 88.8738 45.7421C89.2916 46.377 89.2807 47.2937 89.4341 47.9585Z" fill="#004680"/>
</svg>
