<svg width="160" height="200" viewBox="0 0 160 200" fill="none" xmlns="http://www.w3.org/2000/svg">
<path fill-rule="evenodd" clip-rule="evenodd" d="M24.0803 37.7788C30.6938 24.5427 38.8007 12.2728 47.3685 0.330956C48.3477 0.582604 47.4875 1.19244 47.8365 1.57743C48.3915 1.83365 49.0091 0.496325 49.7229 1.68593C50.3792 2.7788 49.9902 3.60042 49.5281 4.44818C47.096 8.91051 43.5834 12.6793 41.4636 17.3855C40.7381 18.9947 40.4211 20.9654 38.6321 22.2191C37.5307 22.9904 37.7902 24.9408 36.817 26.2252C36.2078 27.0298 35.8692 28.1554 35.1914 29.0633C32.4906 32.6778 30.9343 36.7663 30.4905 41.26C30.4107 42.0692 30.0735 42.8019 29.3231 42.8268C27.2772 42.8954 25.2451 43.7431 23.2398 41.9529C21.7841 40.6528 21.6488 39.4756 22.0606 37.9082C23.0535 34.1322 25.0229 30.8 26.9556 27.4704C29.2166 23.576 31.784 19.8654 34.1789 16.0573C37.4 10.9355 41.0061 6.09859 44.4265 1.12643C44.752 0.65385 45.0638 -0.323328 45.7776 0.106761C46.3149 0.430308 45.7488 1.20421 45.4423 1.67482C43.5088 4.6423 41.4388 7.50913 39.3184 10.3511C37.2863 13.0748 35.5829 16.0586 33.8861 19.0143C31.1441 23.7924 28.123 28.4103 25.6418 33.3373C24.9346 34.742 24.2346 36.165 24.0803 37.7788" fill="#004680"/>
<path fill-rule="evenodd" clip-rule="evenodd" d="M13.6281 94.9003C12.3856 95.8991 11.4868 94.3447 11.094 94.029C10.0312 93.1754 8.36511 94.0558 7.95005 93.0453C7.32191 91.5152 5.96693 90.2203 6.52906 88.1705C7.61539 84.2056 9.26189 80.4734 10.7927 76.6882C11.9026 73.9443 12.9601 71.1735 14.5811 68.6649C15.304 67.5465 16.1348 66.5602 17.3617 65.9981C18.6199 65.4209 19.7246 65.3798 20.9364 66.4171C21.8332 67.1844 22.9894 67.6884 23.8196 68.5904C24.6098 69.4479 25.2373 70.3454 24.3052 71.5141C23.6509 72.3337 23.7692 73.4083 23.4398 74.343C22.1155 78.0988 21.6116 82.1434 19.4873 85.6162C17.912 88.1921 16.7479 90.9642 15.5335 93.7146C15.1857 94.5023 14.8491 95.454 13.6281 94.9003" fill="#004680"/>
<path fill-rule="evenodd" clip-rule="evenodd" d="M91.966 66.7715C91.6739 67.4303 91.4856 67.8539 91.3039 68.2631C91.5196 68.5448 91.719 68.3768 91.9334 68.3167C92.3732 68.1925 92.5242 67.3499 93.0569 67.6866C93.7014 68.0938 92.8726 68.5814 92.9223 69.0638C93.6276 69.2278 93.8152 68.3565 94.3903 68.3324C95.2819 69.7037 94.8139 70.8077 93.9838 72.0378C91.7281 75.3805 89.7731 78.8937 88.4567 82.7384C87.9599 84.1901 86.1003 84.8993 86.0644 86.5843C86.0186 88.7217 85.0212 90.5774 83.9002 92.1056C81.9642 94.7449 81.5504 97.8503 80.3981 100.719C80.0739 101.526 80.5183 102.521 79.7209 103.182C79.4634 103.396 79.0588 103.883 78.8908 103.472C78.3143 102.07 77.1907 102.745 76.2606 102.513C74.5344 102.081 74.1945 100.388 74.0258 98.8987C73.7605 96.5522 74.4376 94.2828 75.39 92.1912C79.0346 84.1822 83.2734 76.4988 88.5175 69.4115C89.3162 68.3317 90.0326 66.9767 91.966 66.7715" fill="#004680"/>
<path fill-rule="evenodd" clip-rule="evenodd" d="M67.816 34.9709C67.416 36.2174 67.0297 37.522 66.58 38.8051C63.7321 46.9389 60.0378 54.6916 56.0363 62.3103C54.5022 65.2307 52.7341 68.0335 51.5733 71.15C51.2412 72.0429 50.6445 72.7475 49.5797 71.7978C49.3287 71.5736 48.9561 71.4723 48.6241 71.3546C46.4155 70.5729 45.5527 68.88 46.2455 66.5825C46.9554 64.2255 48.2685 62.1613 49.5411 60.0919C54.9257 51.3391 59.9907 42.4216 63.857 32.8708C64.3472 31.6603 64.489 31.6616 65.3485 32.5832C65.442 32.6832 65.6316 32.7558 65.7675 32.7433C67.3709 32.6002 67.5166 33.7754 67.816 34.9709" fill="#004680"/>
<path fill-rule="evenodd" clip-rule="evenodd" d="M13.824 126.324C12.356 129.937 9.95583 132.702 8.55706 135.973C7.14326 139.28 5.4314 142.468 4.54377 145.997C5.83077 143.168 7.11058 140.334 8.40607 137.508C9.89374 134.265 11.7801 131.253 13.6345 128.212C14.5652 126.686 15.6104 126.764 16.6582 127.604C17.6811 128.425 17.8935 129.807 16.9301 130.771C14.9672 132.734 13.8632 135.242 13.1462 137.705C11.8978 141.996 9.70288 145.972 9.0414 150.453C8.88911 151.486 8.14201 152.366 7.9884 153.517C7.81585 154.811 7.74852 155.919 8.39039 157.125C8.7623 157.826 9.68 158.748 8.86492 159.529C8.19822 160.169 7.2217 160.639 6.11052 160.055C5.68632 159.833 5.06798 159.979 4.53789 159.961C1.43837 159.856 -0.391142 157.836 0.0709751 154.71C0.690617 150.518 2.26521 146.597 3.92805 142.724C6.1066 137.65 8.47536 132.674 11.6997 128.155C12.1756 127.488 12.5743 126.752 13.824 126.324" fill="#004680"/>
<path fill-rule="evenodd" clip-rule="evenodd" d="M98.3344 165.861C94.1368 165.853 92.872 164.015 94.2924 160.534C95.4029 157.812 97.2919 155.569 99.1155 153.322C103.373 148.077 107.804 142.983 112.521 138.136C113.674 136.951 115.075 136.526 116.513 136.086C117.015 135.934 118.134 135.632 118.092 136.069C118.003 136.963 118.9 137.775 118.092 138.732C114.484 143.005 111.265 147.579 107.928 152.063C106.458 154.04 104.83 155.905 103.414 157.918C102.456 159.281 101.477 160.753 102.448 162.587C102.565 162.806 102.505 163.38 102.401 163.414C100.744 163.967 99.7417 165.733 98.3344 165.861" fill="#004680"/>
<path fill-rule="evenodd" clip-rule="evenodd" d="M141.244 70.812C143.399 68.3903 144.741 65.445 146.866 63.0383C147.492 62.3298 148.243 61.7147 148.778 60.9461C149.662 59.6761 150.571 60.6441 151.155 61.0441C151.723 61.4317 151.989 62.3324 151.38 63.1848C148.895 66.6653 146.896 70.4754 145.218 74.3527C144.022 77.1169 142.036 79.5379 141.622 82.7545C141.464 83.9722 140.632 85.3775 140.17 86.741C139.553 88.5639 138.286 87.0547 137.308 86.988C137.154 86.9776 137.017 86.524 136.876 86.5266C136.274 86.5351 135.92 88.0678 135.215 87.0044C134.258 85.5612 133.236 84.1996 133.905 82.0662C134.969 78.6797 136.602 75.6247 138.39 72.6265C140.814 68.5615 143.049 64.3535 146.498 60.999C146.753 60.7519 146.986 60.4807 147.258 60.2545C147.538 60.0212 147.915 59.8218 148.216 60.1088C148.598 60.4742 148.396 60.916 148.061 61.1905C145.136 63.5854 143.679 67.0399 141.629 70.0649C141.474 70.295 141.371 70.5623 141.244 70.812" fill="#004680"/>
<path fill-rule="evenodd" clip-rule="evenodd" d="M69.0924 130.972C69.9944 130.121 71.0128 129.361 71.7677 128.396C72.6488 127.27 73.6299 127.022 74.8711 127.513C75.6091 127.806 75.4522 128.58 75.381 129.074C75.1973 130.344 74.4456 131.322 73.2181 131.774C72.9246 131.882 72.4828 131.66 72.4834 132.191C72.49 134.784 70.216 136.164 69.2388 138.241C68.9388 138.878 68.3799 139.483 67.9865 140.136C66.8374 142.042 65.8975 144.114 63.462 144.844C62.8947 145.014 61.9953 145.522 62.3018 146.384C63.2372 149.013 61.3952 150.77 60.3501 152.719C58.6323 155.923 56.4531 158.865 54.8602 162.147C54.6805 162.517 54.5694 163.043 54.053 162.915C53.4079 162.755 54.2628 162.182 53.8151 161.845C53.0111 162.273 52.3052 163.429 51.1842 162.065C50.7842 161.578 50.1966 162.401 49.909 162.918C49.69 163.311 49.4495 163.681 48.956 163.392C48.3592 163.042 48.8736 162.677 49.0312 162.356C51.9019 156.505 55.4479 151.064 59.1278 145.705C62.3685 140.984 65.6085 136.263 68.8486 131.544C68.929 131.354 69.0107 131.163 69.0924 130.972" fill="#004680"/>
<path fill-rule="evenodd" clip-rule="evenodd" d="M100.469 110.208C102.456 107.134 104.458 104.063 106.67 101.132C104.147 103.024 101.107 107.413 100.469 110.208M104.357 114.874C103.739 115.054 105.315 112.905 103.63 114.225C103.585 114.26 103.496 114.314 103.476 114.299C102.366 113.437 101.388 113.485 100.371 114.539C100.105 114.815 98.0352 112.496 97.9908 111.811C97.9241 110.777 98.1856 109.798 98.6405 108.893C101.208 103.78 104.82 99.5319 109.384 96.0945C111.619 94.4101 113.964 94.5938 116.305 95.8481C117.562 96.522 117.556 97.3318 116.511 98.3404C115.411 99.4012 114.364 100.526 113.379 101.695C112.243 103.043 111.291 104.524 110.04 105.807C108.397 107.491 107.831 109.88 106.636 111.88C105.975 112.984 105.393 114.105 104.357 114.874" fill="#004680"/>
<path fill-rule="evenodd" clip-rule="evenodd" d="M156.437 117.947C156.176 118.839 156.018 119.376 155.779 120.194C156.177 119.886 156.42 119.792 156.494 119.624C157.088 118.265 158.181 118.617 159.042 119.056C159.964 119.527 160.203 120.59 159.834 121.506C159.233 123.002 158.538 124.483 157.689 125.851C156.518 127.739 155.194 129.563 154.397 131.624C153.563 133.778 152.348 135.872 152.868 138.404C153.114 139.599 152.116 140.301 151.024 139.812C150.431 139.545 149.898 139.575 149.312 139.605C145.596 139.79 143.678 137.156 145.121 133.608C147.156 128.609 150.44 124.382 153.86 120.272C154.513 119.486 154.963 118.441 156.437 117.947" fill="#004680"/>
<path fill-rule="evenodd" clip-rule="evenodd" d="M21.0035 196.028C20.9813 197.363 22.1075 198.011 22.263 199.077C20.6172 199.302 19.5799 198.409 19.2197 196.571C18.8289 194.575 19.4531 192.736 20.4244 191.145C22.4912 187.759 24.2161 184.178 27.1032 181.253C28.2326 180.11 29.0137 178.259 30.1125 176.875C33.244 172.928 36.5128 169.09 39.7418 165.221C40.3902 164.444 41.1595 163.791 42.0471 163.285C42.5014 163.025 42.9491 162.966 43.372 163.306C43.8263 163.671 43.776 164.138 43.5224 164.589C43.1452 165.258 42.8067 165.966 42.3354 166.565C37.9724 172.109 33.4911 177.562 29.251 183.197C27.5993 185.393 26.3097 187.916 25.4207 190.551C25.0102 191.769 25.4501 193.105 25.5894 194.386C25.6266 194.735 26.1136 195.209 25.4965 195.471C24.3115 195.974 23.3187 196.471 24.3612 198.015C24.5985 198.366 24.0592 198.552 23.684 198.56C23.0134 198.576 22.2415 198.566 22.1624 197.732C22.0905 196.967 21.6571 196.579 21.0035 196.028" fill="#004680"/>
<path fill-rule="evenodd" clip-rule="evenodd" d="M49.4136 104.987C49.0293 104.714 48.8136 104.662 48.6456 105.07C48.0338 106.559 47.5239 108.11 46.7252 109.492C46.2422 110.328 46.3461 112.051 44.4963 111.548C44.2022 111.468 44.2623 111.839 44.3957 112.049C44.7075 112.539 44.514 112.898 44.1761 113.311C43.5996 114.013 43.4407 114.793 43.5904 115.757C43.8682 117.536 42.6302 118.403 41.0027 117.673C40.8072 117.585 40.4602 117.288 40.4425 117.411C40.0268 120.31 38.4555 116.466 37.8143 117.87C37.3332 117.47 37.107 116.961 37.0521 116.332C36.9266 114.891 37.5162 113.672 38.1849 112.475C40.7183 107.941 44.3473 104.322 48.0691 100.8C48.9652 99.9505 50.3156 99.9048 51.4771 99.5629C52.1588 99.3623 52.5608 99.927 52.819 100.467C53.1726 101.207 52.7831 101.284 52.1778 101.087C52.0974 102.414 51.2294 103.333 50.5169 104.341C50.2032 104.785 49.9999 105.321 49.4136 104.987" fill="#004680"/>
<path fill-rule="evenodd" clip-rule="evenodd" d="M102.395 32.1041C102.249 31.9956 102.103 31.8871 101.957 31.7786C101.117 33.11 100.268 34.4363 99.4478 35.7801C99.3524 35.937 99.1654 36.22 99.4491 36.3913C99.6465 36.5102 99.9851 36.5442 100.052 36.2945C100.479 34.7029 101.973 33.6905 102.395 32.1041M96.2011 48.2652C95.6815 49.0163 96.0521 50.3 94.4148 50.4033C93.231 50.4784 93.4448 49.9065 93.4441 49.2973C92.4264 49.3888 92.8336 50.598 91.9323 50.8379C91.561 49.2019 92.1643 47.6358 92.0911 46.0638C92.1022 46.0174 92.1094 45.9664 92.114 45.9115C93.3781 44.8265 93.6696 43.2029 94.3703 41.808C94.6592 41.2315 94.7605 40.5439 95.1155 40.0216C97.9718 35.8195 100.296 31.282 103.373 27.2105C105.784 24.0195 107.919 20.6219 110.495 17.5479C111.087 16.8413 111.61 16.0667 112.881 15.3262C111.901 17.1014 111.154 18.4518 110.408 19.8022C110.427 19.7486 110.443 19.6937 110.457 19.6369C108.492 21.1932 107.691 23.5959 106.008 25.3895C106.583 25.8764 106.756 25.3686 107.032 25.311C107.506 25.2136 107.798 25.5104 107.981 25.9176C108.071 26.117 108.251 26.4111 107.933 26.4928C106.521 26.8556 106.859 28.0269 106.818 28.9557C106.772 29.9825 106.214 30.5466 105.411 31.0055C104.175 31.712 103.439 32.7141 103.572 34.2102C103.355 34.5311 103.139 34.8527 102.922 35.1737C101.57 35.8365 99.6366 39.0647 99.7739 40.4289C99.0026 40.4687 98.698 41.9302 97.6483 41.1289C97.3372 40.2648 97.1607 39.8556 96.3528 40.9315C95.3318 42.2897 95.4959 44.1395 94.2644 45.3533C94.0814 45.5331 94.0938 45.7984 94.3448 45.952C94.671 46.1521 94.9736 46.0056 95.0233 45.6854C95.2403 44.301 96.3456 43.3277 96.6803 42.0106C96.8221 41.4551 96.9718 40.9688 97.698 41.0786C98.1392 43.6441 96.1639 45.3965 95.4867 47.5868C95.3972 47.877 94.3089 47.0952 94.7037 48.0718C94.8958 48.5483 95.6207 48.7849 96.2011 48.2652" fill="#004680"/>
<path fill-rule="evenodd" clip-rule="evenodd" d="M136.63 166.764C136.268 167.761 136.548 168.662 136.867 169.527C137.035 169.982 137.162 170.327 136.617 170.516C136.119 170.688 135.813 170.339 135.637 169.959C135.187 168.991 135.298 167.913 135.566 166.991C136.585 163.47 138.495 160.415 140.852 157.628C141.551 156.802 142.38 156.054 142.928 155.136C143.923 153.47 145.617 152.995 147.232 152.468C147.987 152.221 148.131 153.233 148.286 153.778C148.374 154.089 148.145 154.694 147.867 154.876C145.183 156.631 144.751 159.903 142.93 162.255C142.33 163.03 142.605 164.602 141.829 165.631C141.217 166.444 140.887 167.461 139.748 167.848C139.091 168.071 139.589 168.917 139.292 169.42C139.14 169.678 139.046 169.988 138.722 170.03C138.399 170.072 137.992 169.796 138.05 169.59C138.442 168.202 136.803 167.848 136.63 166.764" fill="#004680"/>
<path fill-rule="evenodd" clip-rule="evenodd" d="M69.0917 130.97C69.01 131.162 68.9283 131.353 68.8479 131.542C66.4903 133.62 64.5882 136.126 62.7424 138.619C60.203 142.049 57.9068 145.672 55.6956 149.328C53.8242 152.421 51.4372 155.201 50.1247 158.647C49.592 160.046 48.7083 161.322 47.1657 162.277C46.8023 160.171 48.1435 158.822 48.9168 157.338C50.9535 153.426 53.5262 149.841 56.0564 146.244C60.6213 139.754 64.9098 133.044 70.599 127.419C70.9245 127.098 71.1847 126.655 71.9677 126.894C71.4566 128.598 69.8225 129.492 69.0917 130.97" fill="#004680"/>
<path fill-rule="evenodd" clip-rule="evenodd" d="M138.182 106.121C137.482 106.634 138.307 108.02 137.235 107.794C136.321 107.601 136.651 106.487 136.881 105.78C138.305 101.4 141.112 98.1597 145.177 96.0373C145.793 95.7158 146.686 95.2249 147.256 96.1354C147.762 96.9426 146.979 97.4335 146.533 97.9388C144.661 100.059 142.886 102.224 142.419 105.146C142.302 105.88 141.706 106.145 141.1 106.393C140.888 106.48 140.675 106.622 140.525 106.793C139.337 108.143 138.441 108.286 138.182 106.121" fill="#004680"/>
<path fill-rule="evenodd" clip-rule="evenodd" d="M101.532 27.541C101.336 29.7222 99.4712 30.9262 98.4574 32.6243C97.7064 33.8819 97.094 35.3088 95.8939 36.3075C95.5952 36.5559 95.4756 37.1036 94.9827 36.8265C94.5906 36.6056 94.5108 36.1585 94.7755 35.7382C96.3697 33.2106 97.9202 30.6523 99.8248 28.3378C100.275 27.7914 100.984 27.8064 101.583 27.5842L101.532 27.541Z" fill="#004680"/>
<path fill-rule="evenodd" clip-rule="evenodd" d="M101.583 27.5835C101.36 27.1005 101.101 26.6515 101.507 26.1004C103.803 22.9754 106.051 19.8138 108.713 16.9777C108.919 16.7581 109.033 16.2378 109.498 16.5633C109.793 16.7699 109.72 17.0895 109.518 17.3451C106.915 20.6348 104.39 23.9807 102.027 27.4476C101.96 27.545 101.701 27.5123 101.532 27.5404L101.583 27.5835Z" fill="#004680"/>
<path fill-rule="evenodd" clip-rule="evenodd" d="M92.1141 45.9116C92.1102 45.9665 92.1024 46.0182 92.0919 46.0646C91.7775 46.8601 91.0912 47.5039 91.15 48.4543C91.171 48.7928 91.2161 49.2739 90.7003 49.2295C90.2395 49.1896 90.3016 48.7615 90.3422 48.3967C90.7036 45.1541 91.8056 42.1219 93.0338 39.1354C93.2449 38.623 93.8626 38.0726 94.4267 38.3354C95.0947 38.6465 94.5901 39.3067 94.3535 39.6936C93.1763 41.6186 92.6632 43.7684 92.1141 45.9116" fill="#004680"/>
<path fill-rule="evenodd" clip-rule="evenodd" d="M110.459 19.6355C110.444 19.6917 110.428 19.7466 110.409 19.8002C111.161 19.0361 112.469 18.81 112.596 17.4008C112.616 17.1681 113.209 16.317 113.807 16.8419C114.377 17.3406 113.769 17.8674 113.439 18.1792C111.95 19.5891 110.769 21.182 110.092 23.3207C109.52 22.6527 108.666 22.2167 109.803 21.4056C110.414 20.9696 110.17 20.2003 110.459 19.6355" fill="#004680"/>
<path fill-rule="evenodd" clip-rule="evenodd" d="M102.922 35.1742C103.139 34.8533 103.356 34.5317 103.572 34.2108C103.833 34.0055 104.094 33.8009 104.354 33.5957C104.446 33.6591 104.537 33.7225 104.628 33.7859C104.029 34.8559 103.429 35.9252 102.83 36.9952C102.702 36.9534 102.573 36.9109 102.445 36.8684C102.604 36.3043 102.763 35.739 102.922 35.1742" fill="#004680"/>
<path fill-rule="evenodd" clip-rule="evenodd" d="M96.8963 47.3404C96.5472 46.1122 97.442 45.2971 97.9113 44.35C98.3715 43.4212 98.9075 42.5296 99.4108 41.6211C99.5886 42.0832 99.5467 42.4924 99.2892 42.9447C98.4637 44.3944 97.6898 45.873 96.8963 47.3404" fill="#004680"/>
</svg>
