<svg width="171" height="155" viewBox="0 0 171 155" fill="none" xmlns="http://www.w3.org/2000/svg">
<path fill-rule="evenodd" clip-rule="evenodd" d="M170.219 80.6661C170.158 80.837 170.005 81.2661 169.811 81.806C169.982 81.8891 170.167 81.9777 170.425 82.102C170.556 82.579 171.28 83.0838 170.84 83.7291C170.443 84.3096 171.49 84.9231 170.69 85.3941C170.826 86.6118 169.971 87.4902 169.408 88.3409C168.897 89.1126 168.773 90.0762 168 90.7465C167.328 91.3297 166.95 92.2547 166.441 93.0318C165.998 93.0521 165.586 93.0697 165.016 93.0953C165.119 93.4251 165.195 93.6724 165.317 94.0623C165.164 94.2353 164.912 94.5211 164.638 94.8306C164.807 95.3509 164.966 95.8401 165.152 96.4145C164.887 96.7179 164.624 97.0193 164.336 97.3483C164.562 97.4294 164.774 97.5051 165.136 97.6342C164.723 97.9281 164.383 98.17 164.026 98.4241C164.095 98.5059 164.203 98.6322 164.372 98.8302C163.156 99.2843 162.073 98.191 160.732 98.7194C159.903 99.3188 159.288 100.542 158.057 100.994C157.582 101.169 157.988 102.042 157.175 101.939C156.885 101.903 157.099 102.838 156.42 102.656C156.167 103.504 155.413 103.844 154.818 104.378C154.324 104.82 153.874 105.396 153.476 105.973C153.145 106.452 152.791 106.917 152.44 107.384C152.123 107.806 151.75 108.194 151.489 108.648C151.266 109.036 151.285 109.697 150.985 109.872C150.581 110.107 150.304 110.361 150.218 110.908C149.821 110.67 149.578 110.526 149.334 110.38C148.575 110.752 147.814 111.106 147.059 110.175V108.24C145.605 107.419 144.086 106.702 143.406 104.846C143.459 104.234 143.163 103.366 143.75 102.65C142.897 100.942 143.638 99.4958 144.459 98.0714C145.447 96.3571 146.744 94.8934 148.264 93.5454C147.37 92.2 146.436 90.9465 145.674 89.5958C145.15 88.6666 144.571 87.6531 144.542 86.5901C144.512 85.4887 144.166 84.3393 144.821 83.2223C145.114 82.7223 144.833 81.9979 145.161 81.3391C145.357 80.9431 145.479 80.5032 145.783 80.1235C145.946 79.9187 145.939 79.5761 146.074 79.0329C146.376 78.7511 147.135 78.3713 147.293 77.8199C147.522 77.0185 148.545 77.3239 148.53 76.3867C148.794 76.5874 148.911 76.6766 149.094 76.8151C149.517 76.6894 149.995 76.5475 150.494 76.4002C150.676 76.7462 150.829 77.0361 151.014 77.3888C150.649 78.0531 150.249 78.7788 149.79 79.6126C150.698 79.5228 151.399 79.4525 151.998 79.393C152.243 79.6383 152.373 79.768 152.517 79.9126C152.272 80.3951 152.024 80.883 151.698 81.5269C152.274 81.5864 152.722 81.6324 153.276 81.6891C153.139 82.3405 153.003 82.9939 152.869 83.6366C152.635 83.846 152.381 84.0731 152.121 84.3069C152.286 84.4724 152.354 84.5609 152.369 84.5522C152.608 84.419 152.842 84.2738 153.127 84.1008C153.223 84.3589 153.283 84.5177 153.361 84.7231C152.841 84.9873 152.346 85.2387 151.782 85.5245C152.044 85.6124 152.251 85.682 152.635 85.8104C152.197 86.2503 151.809 86.6408 151.302 87.151C151.948 87.6625 152.521 88.1166 153.134 88.6031C154.039 88.7754 154.765 88.393 155.476 87.7767C157.12 86.353 158.928 85.1103 160.548 83.6791C162.206 82.2135 163.971 80.7776 165.152 78.8139C165.428 78.3544 165.913 78.022 166.33 77.6044H168.263C168.369 77.7388 168.551 77.9706 168.74 78.2085C168.528 78.8132 168.311 79.4363 168.028 80.2458C168.614 80.0843 169.09 79.9532 169.709 79.7822C169.807 79.9512 169.958 80.214 170.219 80.6661Z" fill="#D5D5D5"/>
<path fill-rule="evenodd" clip-rule="evenodd" d="M53.6242 119.476C53.028 119.662 52.5382 119.814 51.905 120.011C52.0592 119.679 52.161 119.46 52.2896 119.183C51.8679 118.545 51.391 117.975 50.5185 118.101C50.4512 117.843 50.408 117.677 50.3474 117.446H48.8296C48.678 117.294 48.5467 117.222 48.5123 117.118C48.2799 116.415 48.2307 115.58 47.809 115.028C47.266 114.319 47.5361 113.624 47.5112 112.938C47.4903 112.38 47.7147 111.809 47.8514 111.25C48.3419 109.249 49.1004 107.347 50.0665 105.538C50.6614 104.426 51.3276 103.343 52.0579 102.315C52.7713 101.311 53.6074 100.394 54.4138 99.4082C54.1948 99.2676 53.955 99.1041 53.7057 98.9561C51.296 97.5263 49.1853 95.7262 47.2283 93.7301C46.3046 92.7881 46.2992 91.5238 46.0298 90.3602C45.9213 89.8947 46.0123 89.3818 46.0123 88.8905C46.5061 87.9459 47.5011 87.8661 48.4665 87.481C48.7919 88.0553 49.126 88.6459 49.5033 89.3102C49.5693 89.2615 49.6838 89.177 49.8893 89.025C50.0153 89.1507 50.2369 89.2716 50.2989 89.4494C50.6829 90.5447 51.5749 91.1022 52.5227 91.5765C54.4515 92.5435 56.3978 93.4726 58.4687 94.4815C58.9531 93.9679 59.4374 93.18 60.1408 92.7861C60.7889 92.4225 60.8225 91.3826 61.8331 91.4826C61.6889 91.3049 61.5885 91.1812 61.439 90.9974C61.7489 90.7799 62.0628 90.5596 62.5 90.2528C62.6381 89.9474 62.849 89.4818 63.0551 89.0257C63.3677 89.0074 63.6581 88.9905 64.0764 88.9662C63.8986 88.7365 63.8056 88.6169 63.6614 88.4304C64.4416 88.3162 64.4934 87.506 64.9846 87.0708C65.5033 86.6106 65.8705 85.9788 66.3622 85.3464C66.4714 85.4268 66.5852 85.5106 66.8022 85.6707C66.8978 85.445 66.9874 85.2322 67.0999 84.9653C67.2326 85.0727 67.3553 85.1714 67.5762 85.3511C67.8167 84.0571 68.5484 83.0192 69.3258 82.086C70.1268 81.1238 70.847 80.019 72.158 79.375C72.3223 79.5108 72.5426 79.6926 72.7919 79.898C72.2738 80.8961 71.7719 81.8853 70.7102 82.4063V83.88C70.9615 83.8186 71.2168 83.83 71.27 83.7314C71.4829 83.3334 71.6332 82.9016 71.7174 82.6982C72.5905 81.9765 73.3039 81.3873 74.2039 80.644C74.2551 81.3326 74.2875 81.7819 74.3198 82.213C74.0456 82.3259 73.8368 82.4117 73.6172 82.5022C73.6737 82.5813 73.7445 82.734 73.7822 82.7259C74.2282 82.634 74.6695 82.5178 75.2118 82.3833C75.3654 82.655 75.5527 82.9854 75.7413 83.3178C75.6402 83.4307 75.5196 83.5645 75.3896 83.7091C75.4664 84.2429 76.1064 84.7139 75.6113 85.3254C75.4671 85.195 75.3391 85.0788 75.2084 84.9592C75.1478 85.0734 75.0299 85.1943 75.0541 85.2707C75.1215 85.4869 75.2475 85.6849 75.3889 85.9647C75.2879 86.9005 74.5421 87.5222 73.8503 88.154C73.1954 88.752 72.4753 89.2771 71.6332 89.9548C71.9794 90.1541 72.2806 90.3285 72.6194 90.5244C72.4079 90.9319 72.2799 91.1779 72.1452 91.436C72.2233 91.5232 72.3405 91.6515 72.5224 91.8529C72.1229 91.9171 71.7861 91.9718 71.3031 92.0509C71.4344 92.3867 71.5469 92.6726 71.6769 93.0043H70.4535C70.2265 93.4713 70.0284 93.8787 69.8398 94.2666C70.015 94.4558 70.1376 94.5882 70.3141 94.7788C69.9388 94.8484 69.6027 94.9112 69.1136 95.0031C69.2321 95.3167 69.3406 95.5991 69.4679 95.935C69.154 95.9816 68.8158 96.0316 68.3752 96.0965C68.5046 96.4465 68.6097 96.7303 68.7835 97.2006C68.3052 97.0141 67.9569 96.8783 67.5365 96.7147C67.3384 97.0931 67.1363 97.4797 66.9396 97.8554C67.0097 97.9892 67.0373 98.1358 67.1201 98.1811C67.2663 98.2608 67.4637 98.2459 67.6086 98.327C68.1711 98.6419 68.3025 99.3717 68.8556 99.6845C69.4518 100.022 69.7111 100.602 70.0911 101.118C70.4333 101.583 70.6873 101.975 70.6489 102.564C70.6354 102.765 70.8146 102.979 70.9258 103.231C70.8288 103.396 70.69 103.632 70.5007 103.955C70.0042 104.013 69.6431 104.679 68.737 104.327C67.1545 103.712 65.5073 103.16 63.7888 102.953C63.6931 102.942 63.6143 102.789 63.458 102.632C62.9554 103.2 62.4562 103.765 61.8297 104.473C61.8216 104.54 61.7879 104.83 61.7509 105.143C61.3992 105.198 61.0624 105.252 60.5389 105.334C60.8845 105.821 61.1425 106.184 61.5272 106.726C61.0927 106.599 60.803 106.514 60.4352 106.406C60.359 106.497 60.2048 106.68 60.037 106.878C60.2499 107.468 60.0788 107.829 59.3896 108.222C59.1835 108.965 58.9854 109.679 58.8203 110.275C58.5091 110.39 58.3353 110.454 58.111 110.537L58.5131 110.941C57.9641 111.362 57.3342 111.704 56.9084 112.216C56.5238 112.677 56.3634 113.326 56.0643 113.98C56.0933 114.025 56.2139 114.206 56.4052 114.493C56.0003 114.911 55.6028 115.322 55.2202 115.717C55.3691 115.903 55.4789 116.04 55.6688 116.278C55.3987 116.588 55.1333 116.892 54.8375 117.23V118.305C54.4037 118.724 53.9638 119.149 53.6242 119.476Z" fill="#D5D5D5"/>
<path fill-rule="evenodd" clip-rule="evenodd" d="M98.8056 126.821C99.6545 127.851 99.6552 127.853 100.685 127.282C100.714 127.612 100.704 127.899 100.775 128.164C100.825 128.352 100.984 128.51 101.087 128.67C100.956 128.802 100.869 128.888 100.759 128.999C101.015 129.119 101.261 129.235 101.662 129.423C101.244 130.02 100.85 130.582 100.457 131.145C100.964 132.06 99.8909 132.222 99.7367 132.712C99.4989 133.469 98.5813 133.632 98.555 134.44C98.5247 135.384 97.56 135.5 97.141 136.049C96.7772 136.527 96.1304 136.839 96.0469 137.449C96.1917 137.697 96.3063 137.894 96.4942 138.218C95.9506 138.526 95.477 138.796 95.002 139.065L93.8561 139.608C93.5078 140.021 93.1595 140.433 92.694 140.983V141.344C91.5211 142.209 90.4257 143.017 89.1538 143.955C89.5175 144.141 89.7378 144.254 90.103 144.441C89.5977 145.15 89.0864 145.868 88.5367 146.639C89.948 147.121 91.2759 147.576 92.6455 148.045C92.5101 148.318 92.3955 148.548 92.2406 148.86C92.8509 149.079 93.4216 149.283 94.073 149.516V150.317C94.4826 150.695 94.8417 151.025 95.2136 151.369C95.2365 151.802 95.2573 152.215 95.2782 152.611L95.9445 153.278L94.2542 154.689C93.8561 155.134 93.4411 155.051 92.9951 154.755C92.8597 154.665 92.6697 154.614 92.5053 154.617C90.6082 154.659 88.8937 153.934 87.1677 153.301C85.8945 152.835 84.669 152.238 83.3486 151.668C82.9882 152.028 82.427 152.301 82.3549 153.044C81.5923 153.226 80.8102 153.412 80.0786 153.586C79.7013 153.203 79.4002 152.897 79.0983 152.59C79.2129 152.463 79.3314 152.332 79.5066 152.138C79.3247 151.759 79.1287 151.35 79.0114 151.107C78.4435 151.194 77.941 151.273 77.4505 151.348C77.179 150.811 76.9351 150.325 76.6852 149.828C76.5633 149.95 76.477 150.037 76.4454 150.069C76.0391 149.654 75.6295 149.237 75.0636 148.662C75.2395 147.383 74.4236 145.915 74.6426 144.328C74.6891 143.995 74.4351 143.514 74.1676 143.263C73.0837 142.242 73.0372 140.768 72.5279 139.513C72.3332 139.034 72.1257 138.426 72.1089 137.847C72.0806 136.927 71.9735 135.982 72.1304 135.089C72.3783 133.676 72.6451 132.169 74.2855 131.613C74.8279 131.429 75.4247 131.409 76.1395 131.29V134.164C76.7613 133.763 77.1777 133.494 77.7988 133.092C77.885 133.346 77.9888 133.649 78.0912 133.952C78.1835 133.882 78.2758 133.811 78.3681 133.741V135.436C78.684 135.276 78.9124 135.159 79.128 135.049C79.9074 135.733 79.8872 136.609 79.7794 137.51C80.0402 137.602 80.2524 137.677 80.5926 137.798C80.4477 138.193 80.3029 138.585 80.1277 139.058C80.3399 139.02 80.4464 139.031 80.5057 138.983C80.6485 138.87 80.7469 138.667 80.9031 138.608C82.4722 138.01 83.2617 136.337 84.8368 135.755C85.1534 134.611 86.3559 134.367 87.0586 133.596C87.7895 132.794 88.821 132.273 89.7028 131.604C90.5564 130.957 91.0374 129.866 92.151 129.524C92.8826 128.188 93.9356 127.176 95.2459 126.42C95.2001 125.516 96.441 125.403 96.412 124.449H98.0686C98.1872 124.567 98.3603 124.741 98.5335 124.915C97.7405 125.311 97.4509 126.079 96.9436 126.891C98.041 127.119 98.6729 125.779 99.707 126.397C99.4079 126.538 99.1634 126.653 98.8056 126.821Z" fill="#D5D5D5"/>
<path fill-rule="evenodd" clip-rule="evenodd" d="M94.5478 107.344C94.4623 106.483 95.6709 106.388 95.0982 105.586C94.952 105.717 94.822 105.832 94.692 105.948C94.6489 105.904 94.5741 105.865 94.5667 105.817C94.4306 104.914 94.4852 104.058 95.1238 103.322C95.8265 102.514 96.5231 101.699 97.1968 100.866C97.4096 100.603 97.541 100.274 97.7505 99.9041C97.4177 99.0344 96.9616 98.133 96.5655 97.237C96.1404 96.2747 96.1499 95.2314 95.6877 94.2793C95.4418 93.7739 96.0832 92.8867 95.9329 92.2677C95.7638 91.5751 95.3563 90.9859 95.9518 90.3331C95.9639 88.5073 97.2015 87.3694 98.2841 86.1017H101.345C101.524 86.272 101.701 86.4409 101.988 86.7133C101.522 87.3086 101.056 87.9039 100.541 88.5627C100.598 88.6857 100.736 88.9796 100.921 89.3736C101.093 89.3736 101.423 89.4729 101.541 89.356C102.053 88.8526 102.644 89.056 103.182 88.9965C103.381 89.4283 103.546 89.7892 103.731 90.1899C103.455 90.5358 103.17 90.8933 102.737 91.4345C103.391 91.5183 103.83 91.5744 104.407 91.6481V93.4144C105.647 93.455 105.784 91.9474 106.828 91.9535C107.303 91.2291 107.995 90.725 108.618 90.1473C109.337 89.4817 110.02 88.7762 110.698 88.0674C111.322 87.414 111.955 86.7633 112.516 86.0578C113.092 85.3307 113.588 84.5388 113.922 84.059C114.681 83.786 115.109 83.632 115.64 83.4414C115.813 83.6894 116.098 83.9414 116.171 84.2448C116.227 84.478 116.042 84.7881 115.917 85.0402C115.775 85.3267 115.58 85.5862 115.582 86.0902C116.118 85.8639 116.653 85.6368 117.243 85.3875C117.558 86.0024 117.894 86.6606 118.405 87.6586C118.405 87.6376 118.375 88.0005 118.415 88.3553C118.446 88.631 118.563 88.8972 118.666 89.2506C118.593 89.3776 118.46 89.6128 118.336 89.8304C118.522 90.0311 118.645 90.1642 118.755 90.2824C117.69 91.992 116.732 93.7617 115.565 95.4166C114.585 96.8059 114.722 96.9032 114.004 97.2964C114.118 97.4242 114.234 97.5525 114.327 97.6559C112.873 99.2898 111.432 100.911 109.968 102.556V103.168C111.118 103.902 112.23 104.613 113.393 105.355C113.224 105.686 113.121 105.889 112.962 106.203C113.402 106.582 113.698 107.311 114.55 107.042C114.736 107.414 114.888 107.717 115.038 108.016C114.931 108.166 114.797 108.352 114.615 108.607C115.076 109.07 115.489 109.485 115.937 109.934C115.766 110.374 115.621 110.749 115.46 111.165C115.578 111.368 115.72 111.612 115.85 111.837C115.786 111.977 115.766 112.122 115.685 112.175C115.505 112.293 115.239 112.316 115.107 112.466C114.317 113.361 114.176 113.411 113.182 113.071C111.895 112.629 110.511 112.37 109.336 111.726C107.761 110.864 106.345 109.708 104.718 108.579C104.035 109.086 103.269 109.781 102.53 110.572C101.816 111.338 100.875 111.945 99.5668 112.335C99.7972 111.954 99.8915 111.797 100.096 111.457C99.2758 111.61 98.5879 111.739 97.9008 111.867L97.7829 111.63C98.1965 111.306 98.6095 110.983 99.0231 110.66L98.3838 110.019H97.1294C96.9623 109.598 96.7764 109.126 96.5568 108.572H95.0342C94.8247 108.043 94.6368 107.569 94.5478 107.344Z" fill="#D5D5D5"/>
<path fill-rule="evenodd" clip-rule="evenodd" d="M102.514 71.1814C101.884 71.3327 101.328 71.4665 100.544 71.655C99.7388 71.0584 98.7761 70.3151 97.7824 69.6177C96.5974 68.7859 95.568 67.7264 94.2153 67.1405C93.902 67.0047 93.5732 66.9067 93.138 66.75C92.6106 65.9573 92.5492 64.4856 91.0018 64.6478C90.3018 64.0059 90.2163 62.8909 89.1929 62.7828C88.8581 62.2105 88.6466 61.5557 88.2067 61.1469C86.1984 59.2785 84.7453 57.0344 83.4956 54.3268C83.3871 53.4909 83.3865 52.3767 83.2066 51.259C82.9236 49.4987 83.8587 47.9872 85.3785 47.0114C85.7983 46.7425 86.0145 46.1512 86.7118 46.2141C87.1968 46.258 87.7088 45.9992 88.3529 45.8404C88.5435 46.0107 88.7961 46.2357 89.1148 46.5195C88.5967 47.3918 87.6172 47.9426 87.5431 49.1143C88.6958 49.5001 89.2125 48.2155 90.3726 48.0676C90.514 48.1946 90.7653 48.4189 91.0011 48.6311C90.5902 49.2494 90.3133 49.6657 89.8033 50.4326C90.5962 50.1812 91.1601 50.1772 91.3683 49.9022C91.8944 49.2062 92.7453 48.9271 93.2391 48.1527C93.6992 47.4317 94.4538 46.8945 95.2251 46.3918C96.3158 45.6816 97.1997 44.6606 98.2223 43.8348C99.7253 42.6212 101.134 41.2914 102.808 40.2826C103.47 39.8846 103.96 39.1913 104.51 38.6135C105.01 38.0878 105.804 37.8581 105.961 37.0742H108.432V38.673C108.363 38.7419 108.126 38.9798 107.841 39.2669C108.168 39.2082 108.495 39.1615 108.815 39.0886C109.141 39.0142 109.462 38.9142 109.957 38.7784C109.881 39.9683 109.938 41.0218 110.795 41.7894C110.615 42.0334 110.512 42.1726 110.304 42.4543C110.566 42.5989 110.869 42.7652 111.433 43.0753C110.852 43.2348 110.655 43.2888 110.385 43.3632C110.487 43.5983 110.625 43.8179 110.675 44.0565C110.725 44.2916 110.686 44.545 110.686 44.7863C110.005 45.7242 109.323 46.6621 108.575 47.6919C108.437 47.7074 108.148 47.7392 107.722 47.7858C107.851 47.9642 107.931 48.0757 108.035 48.2203C107.925 48.4838 107.803 48.7764 107.667 49.1021C106.05 49.0237 106.038 50.6948 105.039 51.3455C105.25 51.6246 105.355 51.7631 105.403 51.8266C104.738 52.4942 104.067 53.1673 103.39 53.8464C103.444 53.8964 103.357 53.8173 103.395 53.8511C103.093 54.1531 102.782 54.4653 102.471 54.7782C102.37 54.6991 102.269 54.6207 102.168 54.5417V55.512C101.955 55.3356 101.831 55.2329 101.552 55.0039C101.614 55.4174 101.655 55.6924 101.712 56.0789C101.253 56.6749 100.702 57.3919 100.104 58.169C99.8351 57.9716 99.6519 57.8358 99.4889 57.7155C98.8273 58.4913 98.1489 59.2866 97.4644 60.0894C97.7279 60.2211 97.9711 60.3421 98.3254 60.5184C97.9953 60.9381 97.7117 61.2989 97.4456 61.6374C97.4887 61.7868 97.4887 61.9246 97.5567 62.0017C98.6757 63.2599 100.003 64.3849 100.875 65.7945C101.858 67.3818 103.086 69.0204 102.514 71.1814Z" fill="#D5D5D5"/>
<path fill-rule="evenodd" clip-rule="evenodd" d="M128.006 44.5413C128.12 44.4278 128.207 44.3406 128.296 44.2507C128.23 44.1656 128.174 44.0676 128.095 43.9953C127.619 43.5595 127.018 43.1858 126.632 42.7587C126.254 42.3411 125.831 42.0229 125.449 41.6404C124.94 41.1316 124.373 40.4032 124.346 39.7484C124.298 38.5767 124.227 37.4016 124.505 36.1738C124.984 34.0541 126.091 32.4492 127.556 30.9849C129.417 29.126 131.272 27.261 133.224 25.3028C132.483 24.6629 132.445 23.4547 131.272 23.2195C130.779 22.258 130.288 21.2964 129.794 20.3348C129.34 19.4476 129.421 18.4901 129.426 17.5421C129.43 16.867 129.427 16.192 129.427 15.5169C130.046 14.7243 130.666 13.9317 131.275 13.1533H134.335C133.845 13.9932 133.425 14.7115 133.013 15.4169C134.145 16.2413 134.561 14.4554 135.555 15C136.176 15.8521 135.021 16.2535 134.655 17.0779C135.361 16.9083 135.771 16.8089 136.273 16.688C136.571 17.5637 136.422 18.33 135.953 19.153C136.203 19.251 136.401 19.328 136.698 19.4436C136.911 19.672 136.47 19.7051 136.395 20.0416C136.69 20.4943 137.049 21.0457 137.493 21.7275C140.525 18.5367 144.39 16.3981 146.754 12.7539H148.598C148.456 13.3621 148.332 13.8932 148.162 14.6196C148.674 14.4385 149.068 14.2993 149.608 14.1081V15.5379C149.903 15.6156 150.069 15.6588 150.235 15.7028C150.281 15.8061 150.354 15.9068 150.367 16.0143C150.389 16.1954 150.342 16.3873 150.378 16.565C150.751 18.4786 149.802 19.997 148.804 21.4309C147.727 22.9823 146.475 24.4128 145.21 26.0082C146.112 27.0955 147.556 27.6239 148.827 28.6388C148.85 28.8064 148.889 29.0889 148.934 29.4139C149.271 29.8362 149.815 30.245 149.969 30.7694C150.307 31.9188 151.144 32.9891 150.576 34.473C150.437 34.5365 150.131 34.6872 149.818 34.821C149.505 34.9541 149.186 35.069 148.831 35.2075C148.345 34.7115 147.246 34.869 147.394 33.9034C146.272 33.5784 145.285 33.2918 144.329 33.0141C144.11 32.6323 143.911 32.2864 143.686 31.8951H141.657C141.606 31.6755 141.566 31.5093 141.518 31.3039C140.767 30.7248 140.137 31.4066 139.698 31.5242C139.099 32.2215 138.64 32.7553 138.133 33.3439C137.987 33.2331 137.871 33.1439 137.668 32.9905C137.452 33.2979 137.218 33.629 136.933 34.0324C136.895 33.9831 136.987 34.1027 137.124 34.2798C136.273 34.494 136.198 35.3521 135.824 36.0583C135.53 35.8765 135.336 35.7569 135.04 35.5738C134.989 35.8914 134.94 36.2022 134.881 36.5698C134.754 36.6042 134.589 36.6488 134.294 36.7293C134.215 37.4759 134.109 38.3855 133.006 38.1375C132.635 38.6193 132.014 39.0673 132.057 39.4403C132.183 40.5613 131.248 41.0971 130.992 41.9735C130.872 43.0811 130.889 43.0804 131.231 43.8203C130.432 44.4595 129.529 44.89 128.492 45.1555C128.357 44.9839 128.205 44.7933 128.006 44.5413Z" fill="#D5D5D5"/>
<path fill-rule="evenodd" clip-rule="evenodd" d="M20.5598 23.7202C20.1024 23.7769 19.8269 23.8114 19.4793 23.8547C19.6908 24.0898 19.8114 24.2229 20.0041 24.4371C19.548 25.2879 18.6836 25.798 18.0975 26.542L18.3845 26.8299C17.9177 27.1975 17.4501 27.5651 17.0526 27.8779C16.833 28.4584 17.3019 29.1131 16.5292 29.4726C17.2137 29.9328 17.8395 30.3436 18.4546 30.7693C20.3833 32.1059 22.4462 33.2526 24.0361 35.0527C24.9469 36.0832 25.8045 37.0792 25.8207 38.5591C25.8233 38.8084 26.076 39.0544 26.2774 39.4199C25.723 39.772 25.2036 40.1011 24.5528 40.5139C20.8859 38.3591 17.0951 36.4387 13.6182 33.6243C13.3689 33.7668 12.8246 33.8871 12.7242 34.1675C12.3261 35.2784 11.5459 36.0582 10.7517 36.8535C10.6547 36.9509 10.691 37.1813 10.6648 37.3516C10.3246 37.3894 10.0355 37.4205 9.59428 37.4691C9.67917 37.7604 9.75125 38.0077 9.87723 38.4408C9.16986 39.0348 8.64169 39.9186 8.36346 41.016C8.20178 41.6532 7.59276 42.1755 7.04708 42.9452V46.9495C6.69946 46.9718 6.40978 46.9901 6.08169 47.011C6.01095 47.2104 5.9355 47.4239 5.84523 47.68H4.5787C4.38064 47.1043 4.17786 46.5137 3.94342 45.8332C3.59108 45.9887 3.23941 46.1434 2.82038 46.3279C2.73415 46.0603 2.66611 45.8508 2.59807 45.6413C2.49432 45.5981 2.37979 45.5021 2.28615 45.5197C1.50872 45.6677 0.976508 45.0082 0.880845 44.5886C0.490782 42.8803 -0.611366 41.191 0.446992 39.3571C0.466529 37.5408 1.59091 36.1549 2.22821 34.575C2.43638 34.0594 3.33104 34.15 3.08851 33.2594C2.9888 32.8931 3.65171 32.3127 3.97777 31.8363C4.27352 31.4045 4.55175 30.9565 4.89196 30.5626C5.29146 30.0997 5.77786 29.7118 6.17399 29.2469C6.50342 28.8591 6.7574 28.407 7.08009 27.9313C4.8475 26.2494 3.48194 23.8601 1.91697 21.6322C1.41508 19.4766 0.548045 17.3833 0.886234 14.8594C1.40295 14.2641 2.06384 13.5019 2.77457 12.6836C3.56144 12.8458 4.44598 12.3565 5.16481 13.1789C4.6939 13.8154 4.22636 14.4472 3.75411 15.0858C3.88413 15.2236 4.00472 15.3534 4.12396 15.4804C5.12102 15.6872 5.48615 14.2317 6.52767 14.5689C6.68262 14.8702 6.83689 15.1723 6.99858 15.4858C6.6779 15.6919 6.31074 15.9284 5.9254 16.1757C6.16051 16.4122 6.33365 16.5859 6.50679 16.7596C7.02687 16.2197 7.53213 16.2129 8.14317 16.9515C8.08792 17.363 8.4059 17.9576 7.79218 18.4367C8.04683 18.5597 8.29609 18.68 8.65247 18.8509C8.35942 19.2462 8.09938 19.5962 7.83327 19.9551C8.08119 20.0436 8.29407 20.1186 8.73938 20.2774C8.32978 20.3882 8.13575 20.4402 7.79622 20.5321C7.83192 20.8315 7.76051 21.241 7.93028 21.47C8.63361 22.4187 9.40969 23.3127 10.2417 24.327C10.6998 23.9148 11.0515 23.608 11.3917 23.2898C13.4019 21.4099 15.0841 19.1557 17.5774 17.8245C17.564 17.1319 18.2868 17.1805 18.5981 16.8096C18.9504 16.3899 19.3418 16.0034 19.5945 15.7325H20.8293C20.2695 16.5589 19.3156 17.0258 19.6268 18.2164C20.4244 17.7394 21.2052 17.2724 22.1565 16.7041C22.0716 17.2495 22.0056 17.6698 21.9315 18.1475C22.2643 18.3157 22.7588 18.5678 23.2896 18.8367C23.1529 19.1212 23.0383 19.3584 22.9049 19.6361C23.0969 19.6767 23.264 19.7111 23.4385 19.7476C23.4567 19.8192 23.5268 19.9415 23.4931 19.9868C23.0457 20.5923 22.4468 21.1274 22.1619 21.7984C21.8048 22.6404 21.0173 23.0195 20.5598 23.7202Z" fill="#D5D5D5"/>
<path fill-rule="evenodd" clip-rule="evenodd" d="M54.0981 42.5296C55.562 40.7282 56.7982 39.2307 58.0088 37.7124C59.1554 36.2745 60.1357 34.7216 61.0269 33.1303C60.9131 32.9891 60.8026 32.8526 60.6133 32.6188C60.9245 32.2647 61.2324 31.9133 61.5592 31.541H62.7698C63.2225 31.9951 63.5869 32.6431 64.105 32.8087C64.7376 33.01 64.8272 33.5175 65.0825 33.8966C65.9677 35.2095 66.5835 36.542 65.9031 38.253C65.4847 39.3051 65.061 40.3579 64.6258 41.4052C64.4951 41.7208 64.3994 42.0512 64.233 42.5317L63.3053 43.4628V44.6223C62.5791 45.942 61.9748 47.0421 61.3133 48.2449C62.2274 48.8679 63.0696 49.4686 63.9373 50.0295C65.6565 51.1411 67.0786 52.5216 67.9282 54.4183C68.1107 54.8265 68.1943 55.2799 68.3842 55.9171C68.3189 56.0623 68.1592 56.4198 67.9827 56.8117C67.6041 56.9888 67.1952 57.18 66.8759 57.3287C66.0122 57.0293 65.2482 56.8056 64.518 56.5009C63.787 56.1968 63.0898 55.8117 62.3777 55.4623C62.2564 54.3953 61.0438 54.8265 60.5446 54.1007C60.135 53.5047 59.2242 53.2567 58.4252 52.7898C56.0309 55.24 53.9223 57.9165 51.9874 60.7357C51.8386 60.9519 51.8864 61.3039 51.8433 61.5925C50.9998 62.2439 50.1658 62.1445 49.3291 61.5526V60.9667C48.2418 60.3133 47.2225 59.7011 46.1075 59.0308C45.574 58.4037 45.8455 57.4185 45.4978 56.6563C45.1105 55.8076 45.4379 54.9859 45.291 54.3616C46.5063 51.6445 47.9447 49.2646 50.0041 47.211V45.9569C48.8137 45.1251 48.074 43.8284 47.3249 42.5567C47.0736 42.1303 47.0345 41.5735 46.9193 41.0721C46.6855 40.0518 46.3359 39.0645 46.3669 37.9807C46.4268 35.9075 47.6004 34.4284 49.5736 33.6844C50.8179 33.2155 52.0265 33.4513 53.3645 33.3195C52.6443 34.8149 50.919 34.6872 49.9105 35.9407C51.6499 35.8636 52.7096 34.2203 54.4834 34.5338C54.4147 34.9527 54.346 35.3724 54.2733 35.8143C54.5986 35.9292 55.0763 36.0988 55.5357 36.2623V38.6023C55.0628 39.4301 54.5434 40.2558 54.1197 41.1289C53.9829 41.4093 54.0981 41.8134 54.0981 42.5296Z" fill="#D5D5D5"/>
<path fill-rule="evenodd" clip-rule="evenodd" d="M85.1439 19.5906C84.4561 20.4555 83.8282 21.2461 83.1337 22.1191V24.4835C82.4876 24.7436 81.859 24.9977 81.149 25.2836C80.3096 24.4659 79.9694 23.3814 79.7006 22.3563C79.3408 22.4908 79.0228 22.609 78.5506 22.7847C78.1801 22.2502 77.7294 21.7779 77.4862 21.2157C76.7586 19.5311 76.8165 17.7323 76.896 16.0397C77.2012 15.3423 77.4734 14.7193 77.8129 13.9415C77.3049 13.8652 76.8549 13.9361 76.6683 13.7469C75.4813 12.5435 74.3097 11.319 73.2217 10.0264C72.6356 9.32904 72.0172 8.54047 71.7834 7.69109C71.4425 6.44775 71.4344 5.11252 71.2734 3.72391C71.8326 2.93534 72.2873 2.01163 72.9974 1.3751C73.6502 0.789921 74.5785 0.514226 75.585 0C75.8195 0.254748 76.0478 0.501387 76.2789 0.75208C76.1442 0.881819 74.3502 2.61505 74.3502 2.61505C74.4795 2.74547 74.6095 2.87588 74.8009 3.06711C75.6221 2.46639 76.4399 1.68052 77.7752 2.1988C77.4437 2.65424 77.1857 3.00832 76.7323 3.63066C77.3454 3.39078 77.6876 3.25766 78.1619 3.07252C78.3855 3.41038 78.6254 3.77324 78.9164 4.21381C78.4098 4.72263 78.0116 5.12198 77.5313 5.60445C77.8412 5.66797 78.0083 5.70311 78.2858 5.76054C77.8695 6.46465 78.1046 7.43836 77.0314 7.79785C78.0965 9.11213 79.2822 9.83651 80.4854 10.6379C84.5356 7.26943 88.4975 3.97393 92.5127 0.634504H94.2852C93.9746 1.25887 93.728 1.75688 93.4781 2.26097C94.0103 2.66843 94.4313 2.21097 94.9029 2.00555C96.2651 3.28064 96.5858 4.87264 96.3055 6.64844C95.7396 7.37687 95.1583 8.1249 94.5647 8.88847C94.6031 8.92361 94.6914 9.00604 94.9339 9.23106C94.6072 9.27295 94.2926 9.3135 93.9773 9.35404C94.1006 9.48648 94.2239 9.6196 94.3471 9.75272H93.6633C92.4042 12.1292 90.2761 13.7462 88.7178 15.9113C90.8534 17.1046 93.243 17.9925 95.5025 19.3433C95.5712 19.6838 95.6487 20.0703 95.7396 20.5271C96.0172 20.2325 96.2254 20.0116 96.4261 19.7987C97.3356 19.9217 97.3167 20.9704 98.08 21.3542C98.7483 21.6907 99.1384 22.584 99.6585 23.2395V25.4275C99.482 25.6045 99.3088 25.7782 99.0663 26.0214C97.1746 25.8187 95.6103 24.7376 93.8877 23.8632C93.8526 23.8949 93.7247 24.0112 93.6687 24.0618C92.4635 23.7632 91.7447 22.4658 90.3542 22.6597C89.7061 21.8238 88.6404 21.759 87.809 21.2664C86.9689 20.769 86.1551 20.2291 85.1439 19.5906Z" fill="#D5D5D5"/>
<path fill-rule="evenodd" clip-rule="evenodd" d="M138.645 49.0339C139.024 49.2488 139.322 49.4177 139.76 49.6657C139.661 50.2657 139.56 50.8705 139.436 51.6152C139.744 52.1517 140.002 52.9686 140.937 53.2984C141.355 52.7132 141.612 52.0436 142.417 51.7165C142.982 51.4861 143.314 50.6786 143.747 50.1265C144.224 49.5191 144.885 49.1042 145.26 48.3643C145.576 47.7419 146.253 47.3162 146.681 46.7364C147.122 46.1371 147.457 45.458 147.837 44.8147H149.908C150.017 45.3971 150.196 45.9729 149.513 46.5743C150.103 46.6013 150.56 46.6222 150.977 46.6412C151.164 47.5007 151.332 48.2791 151.498 49.04C151.2 49.1569 150.989 49.2393 150.741 49.3366C150.767 49.5055 150.763 49.6819 150.823 49.8319C151.335 51.1003 151.251 51.5354 150.267 52.5145C149.856 52.9227 149.684 53.5579 149.851 53.9545C150.114 54.5775 149.325 54.3376 149.698 54.9127C149.303 54.5863 149.179 54.4836 148.965 54.3066V55.333C148.577 55.408 148.241 55.4722 147.843 55.5485V56.556C147.372 57.0473 147.041 57.3946 146.765 57.6838C147.405 58.3129 147.996 58.8927 148.487 59.3758V60.7638C148.883 61.1611 149.298 61.5767 149.722 62.0037C149.59 62.2389 149.506 62.3869 149.358 62.647C149.551 63.0389 149.787 63.5214 150.093 64.1437C149.738 64.8857 149.347 65.7053 148.975 66.4838H147.444C145.66 65.4601 143.93 64.4661 142.206 63.4755C141.9 63.9491 141.657 64.3262 141.451 64.6458C141.133 64.4904 140.887 64.3701 140.466 64.164V65.879C139.907 65.6702 139.516 65.5243 138.784 65.2513C139.086 65.6648 139.169 65.7776 139.328 65.9952C138.991 66.3128 138.635 66.6487 138.071 67.1798C137.958 66.4939 137.887 66.0642 137.809 65.5912C138.067 65.502 138.276 65.4297 138.542 65.3371C138.568 65.1986 138.6 65.031 138.638 64.8262C138.406 64.7451 138.192 64.6722 137.978 64.5978C138.057 64.2721 138.137 63.9437 138.273 63.3869C137.933 63.6998 137.801 63.8208 137.723 63.8924C136.941 63.7451 136.201 63.6065 135.422 63.4606C135.302 63.2295 135.146 62.9281 134.962 62.5754C135.101 62.0362 135.259 61.424 135.418 60.7996C135.778 60.8591 136.234 60.9354 136.69 61.0111C136.709 60.9435 136.727 60.8759 136.746 60.8077C136.27 60.5678 135.794 60.3279 135.375 60.1164C135.621 59.6069 135.865 59.0995 136.12 58.5711C134.911 56.5121 133.594 54.5687 132.85 52.3321C132.403 50.7915 132.932 49.269 133.153 47.7527C133.325 46.5736 134.297 45.7397 135.361 45.1431C135.512 45.0579 135.656 44.96 135.898 44.8086H137.725C138.013 45.0978 138.273 45.3586 138.455 45.5418C138.096 45.9026 137.73 46.2688 137.513 46.4857V47.6196C137.918 47.5142 138.307 47.4135 138.751 47.298C138.984 47.5162 139.198 47.7169 139.494 47.9946C139.183 48.3757 138.926 48.6899 138.645 49.0339Z" fill="#D5D5D5"/>
<path fill-rule="evenodd" clip-rule="evenodd" d="M28.1567 67.9585C28.3642 68.1666 28.5373 68.3403 28.7825 68.5862C27.6568 69.5519 26.5371 70.5114 25.4181 71.4716C25.4431 71.5365 25.4687 71.6013 25.4943 71.6655C25.7321 71.5959 26.0224 71.5898 26.1956 71.4439C26.5189 71.1722 26.7736 70.8202 27.2175 70.7323C28.0024 70.2884 28.7872 69.8438 29.5505 69.4113C30.2161 69.9512 29.7304 70.3776 29.4441 71.0324C29.8799 70.8668 30.1622 70.7594 30.466 70.6432C30.5988 70.7763 30.7719 70.9499 30.9457 71.1243C30.9464 71.8601 30.9464 72.5967 30.9464 73.342C30.7322 73.5515 30.5139 73.7663 30.2828 73.992C30.3165 74.0772 30.3252 74.1948 30.3879 74.2407C30.8056 74.5549 31.2226 74.8732 31.6632 75.1529C32.1368 75.453 32.7997 75.5394 32.8179 76.3077C32.8199 76.3963 32.9695 76.4963 33.0678 76.5659C33.4458 76.8328 33.8884 77.0348 34.1962 77.3653C34.5034 77.6943 34.6779 78.1477 34.9885 78.6802C34.9885 78.9917 34.9885 79.483 34.9878 79.9735C34.684 80.2776 34.3815 80.5817 34.1282 80.8358C31.8114 80.0053 29.5215 79.185 27.2324 78.3646C26.7237 78.637 26.176 78.9296 25.6276 79.2221C25.6047 79.185 25.5818 79.1478 25.5589 79.1106C25.0826 79.5877 24.6063 80.0654 23.998 80.6756C23.9892 80.8209 23.9717 81.1061 23.9495 81.4696C22.9848 82.4001 21.9749 83.3751 21.1604 84.1617C20.7515 85.4341 20.959 86.7409 19.2687 87.0092C18.9191 86.4483 17.6633 86.3585 17.9497 85.0509C17.602 84.9502 17.1749 84.8252 16.7094 84.6901C16.6043 84.761 16.415 84.8881 16.2675 84.9867C15.7945 84.4853 15.3816 84.0461 14.7813 83.4089C14.6473 82.2595 14.4755 80.7885 14.2949 79.2404C15.8208 77.5855 17.3245 75.955 18.9198 74.2245C18.2959 73.8326 17.6526 73.5048 17.1015 73.0622C16.5316 72.6041 16.0512 72.0338 15.517 71.4979C15.6645 71.0202 15.8148 70.533 15.9764 70.0066C15.6773 69.9039 15.4638 69.8303 15.1983 69.7384V68.4937C15.3007 68.3903 15.4308 68.2606 15.581 68.1092C16.1065 68.0045 16.6582 67.8943 17.34 67.7578C19.1549 68.7795 21.1396 69.8965 23.0703 70.9824C25.0065 70.2438 26.2616 68.5403 28.1567 67.9585Z" fill="#D5D5D5"/>
</svg>
