<svg width="383" height="415" viewBox="0 0 383 415" fill="none" xmlns="http://www.w3.org/2000/svg">
<g style="mix-blend-mode:screen" opacity="0.2">
<mask id="mask0_5583_15354" style="mask-type:alpha" maskUnits="userSpaceOnUse" x="-32" y="0" width="415" height="415">
<circle r="207.5" transform="matrix(-1 0 0 1 175.5 207.5)" fill="#C4C4C4"/>
</mask>
<g mask="url(#mask0_5583_15354)">
<path d="M438.54 100.316C438.54 100.316 352.578 84.392 330.399 28.6595C309.187 -24.7664 221.81 -39.127 221.81 -39.127" stroke="#F7A43F" stroke-width="5" stroke-miterlimit="10"/>
<path d="M438.54 127.102C438.54 127.102 333.078 108.724 305.912 41.4579C280.012 -22.7573 172.913 -39.127 172.913 -39.127" stroke="#F7A43F" stroke-width="5" stroke-miterlimit="10"/>
<path d="M438.54 153.964C438.54 153.964 313.653 133.056 281.501 54.4052C250.837 -20.8223 124.014 -39.127 124.014 -39.127" stroke="#F7A43F" stroke-width="5" stroke-miterlimit="10"/>
<path d="M438.54 180.752C438.54 180.752 294.153 157.387 257.014 67.2036C221.662 -18.8133 75.1162 -39.127 75.1162 -39.127" stroke="#F7A43F" stroke-width="5" stroke-miterlimit="10"/>
<path d="M438.54 207.539C438.54 207.539 274.653 181.719 232.528 80.0762C192.487 -16.8042 26.2924 -39.127 26.2924 -39.127" stroke="#F7A43F" stroke-width="5" stroke-miterlimit="10"/>
<path d="M438.54 234.401C438.54 234.401 255.228 206.125 208.116 92.9488C163.237 -14.8698 -22.6055 -39.127 -22.6055 -39.127" stroke="#F7A43F" stroke-width="5" stroke-miterlimit="10"/>
<path d="M438.54 261.188C438.54 261.188 235.728 230.382 183.63 105.822C134.062 -12.8607 -71.5036 -39.127 -71.5036 -39.127" stroke="#F7A43F" stroke-width="5" stroke-miterlimit="10"/>
<path d="M438.54 287.975C438.54 287.975 216.228 254.714 159.218 118.62C104.887 -10.8516 -120.402 -39.127 -120.402 -39.127" stroke="#F7A43F" stroke-width="5" stroke-miterlimit="10"/>
<path d="M438.54 314.837C438.54 314.837 196.804 279.121 134.732 131.567C75.7114 -8.91722 -169.226 -39.127 -169.226 -39.127" stroke="#F7A43F" stroke-width="5" stroke-miterlimit="10"/>
<path d="M438.54 341.622C438.54 341.622 177.303 303.453 110.32 144.44C46.5365 -6.90814 -218.124 -39.127 -218.124 -39.127" stroke="#F7A43F" stroke-width="5" stroke-miterlimit="10"/>
<path d="M438.54 368.484C438.54 368.484 157.804 327.784 85.8334 157.313C17.3612 -4.8991 -267.022 -39.127 -267.022 -39.127" stroke="#F7A43F" stroke-width="5" stroke-miterlimit="10"/>
<path d="M438.54 395.274C438.54 395.274 138.379 352.116 61.4217 170.186C-11.8137 -2.96413 -315.919 -39.127 -315.919 -39.127" stroke="#F7A43F" stroke-width="5" stroke-miterlimit="10"/>
<path d="M438.54 422.058C438.54 422.058 118.879 376.448 36.9354 182.984C-40.9891 -0.955072 -364.816 -39.127 -364.816 -39.127" stroke="#F7A43F" stroke-width="5" stroke-miterlimit="10"/>
<path d="M438.54 448.92C438.54 448.92 99.3789 400.78 12.4491 195.931C-70.164 1.05402 -413.642 -39.127 -413.642 -39.127" stroke="#F7A43F" stroke-width="5" stroke-miterlimit="10"/>
<path d="M438.54 475.709C438.54 475.709 79.954 425.112 -11.9626 208.73C-99.3396 2.98841 -462.54 -39.127 -462.54 -39.127" stroke="#F7A43F" stroke-width="5" stroke-miterlimit="10"/>
<path d="M438.54 502.499C438.54 502.499 60.454 449.444 -36.4489 221.602C-128.514 4.99752 -511.438 -39.127 -511.438 -39.127" stroke="#F7A43F" stroke-width="5" stroke-miterlimit="10"/>
<path d="M438.54 529.361C438.54 529.361 40.9544 473.848 -60.8605 234.475C-157.689 7.00658 -560.336 -39.127 -560.336 -39.127" stroke="#F7A43F" stroke-width="5" stroke-miterlimit="10"/>
<path d="M438.54 556.145C438.54 556.145 21.5291 498.107 -85.3468 247.348C-186.865 8.94096 -609.161 -39.127 -609.161 -39.127" stroke="#F7A43F" stroke-width="5" stroke-miterlimit="10"/>
</g>
</g>
</svg>
