<svg width="182" height="141" viewBox="0 0 182 141" fill="none" xmlns="http://www.w3.org/2000/svg">
<path d="M89.2949 64.5133C91.695 66.1024 94.1898 67.7671 96.5268 69.3108C97.9005 70.2037 99.1638 71.021 100.143 71.6415C100.601 72.0501 101.311 72.5041 101.817 72.8825C101.548 72.6554 101.69 72.6706 101.911 72.8219C103.506 73.9116 102.053 72.8371 103.711 73.8964C104.627 74.4564 106.711 75.8639 108.812 77.3016C111.78 79.3447 114.78 81.4029 116.201 82.3867C116.296 82.0688 116.359 81.8721 116.407 81.7056C116.612 80.6916 116.88 79.6928 117.165 78.6939C117.307 78.1945 117.433 77.6951 117.575 77.2108C117.622 77.0141 117.67 76.8173 117.717 76.6357C117.749 76.4995 117.765 76.3784 117.796 76.2422V76.3482C118.033 75.2736 119.833 69.2805 120.133 68.0395L120.07 68.206C120.291 67.1012 120.386 67.298 120.67 66.4505C120.481 66.5261 120.654 65.5727 120.749 65.2246L120.781 65.2397C120.907 64.6949 121.112 63.469 121.333 62.5761L121.412 62.6367C121.523 61.88 121.949 60.5179 122.075 59.9882C122.438 58.7926 123.102 56.9765 123.433 55.342L123.954 54.3583L123.97 54.207L124.507 50.5748C124.618 49.7424 121.017 51.6645 120.97 51.5737C121.223 51.4677 121.491 51.3769 121.57 51.3618C121.491 51.3466 120.97 51.5282 120.702 51.6645V51.7855C120.102 52.0731 120.528 51.7855 119.928 52.0277C119.865 51.952 120.402 51.7099 120.891 51.498C120.449 51.6645 119.975 51.7855 119.833 51.952C119.407 52.0882 119.833 51.8309 119.312 51.9974C118.965 52.1639 118.538 52.4363 118.096 52.5574V52.5422C117.054 52.8601 116.628 53.2989 115.68 53.5713L115.759 53.4957C115.412 53.5713 114.812 53.9043 114.212 54.0859C114.385 54.0405 114.559 54.0405 114.212 54.1918C113.517 54.4037 113.091 54.6459 112.57 54.7821L112.143 55.0545C109.806 55.9777 100.664 59.8217 98.3427 60.7903L98.4216 60.7449C96.132 61.7135 92.8477 63.0604 89.2949 64.5133Z" fill="#D5D5D5"/>
<path d="M82.3162 36.4839C84.7006 34.8646 87.1797 33.1696 89.485 31.6107C90.8272 30.6876 92.0588 29.8249 93.0062 29.1439C93.5589 28.8715 94.2536 28.3872 94.7905 28.0542C94.4747 28.2207 94.5379 28.0996 94.7747 27.9483C96.3853 26.8738 94.8379 27.8272 96.4485 26.6922C97.3169 26.0565 99.4013 24.6491 101.533 23.2416C104.549 21.259 107.596 19.2613 109.033 18.3079C108.749 18.1111 108.575 18.0052 108.433 17.8993C107.517 17.3696 106.617 16.7945 105.733 16.1891C105.291 15.9016 104.849 15.5989 104.407 15.3265C104.233 15.2205 104.059 15.0995 103.886 14.9935C103.759 14.9179 103.649 14.8573 103.522 14.7816L103.633 14.8119C102.654 14.2217 97.3959 10.5744 96.2748 9.87821L96.4168 9.99928C95.4063 9.42418 95.6274 9.39392 94.9011 8.86422C94.9168 9.04583 94.0484 8.57667 93.7168 8.37992L93.7484 8.3648C93.2589 8.07725 92.122 7.47189 91.3325 6.97246L91.4114 6.92705C90.7166 6.56383 89.5166 5.73146 89.0429 5.42878C88.0007 4.68721 86.4375 3.47648 84.9533 2.61384L84.1795 1.81174L84.0374 1.73606L80.6583 0.0259147C79.8846 -0.352437 80.5477 3.53702 80.4372 3.55216C80.4214 3.27975 80.4215 3.02246 80.4215 2.93166C80.3741 3.00733 80.3741 3.53702 80.4215 3.80944L80.5477 3.85484C80.6267 4.5056 80.4846 4.00618 80.5319 4.64181C80.4372 4.68722 80.3898 4.09698 80.3425 3.58242C80.3583 4.03644 80.311 4.50561 80.4215 4.68721C80.4057 5.1261 80.2951 4.64181 80.2793 5.1715C80.3267 5.53472 80.4531 6.01901 80.4215 6.4579H80.4057C80.3583 7.50215 80.6425 8.03184 80.5952 8.98529L80.5635 8.87935C80.532 9.2123 80.6425 9.87821 80.611 10.4836C80.6268 10.302 80.6899 10.1506 80.7215 10.5138C80.7057 11.21 80.7846 11.6792 80.7372 12.1937L80.8636 12.678C80.9741 15.0995 81.6373 24.6491 81.7952 27.0705L81.7794 26.9797C81.89 29.3709 82.0952 32.7912 82.3162 36.4839Z" fill="#D5D5D5"/>
<path d="M79.6953 133.009C82.506 133.721 85.4588 134.462 88.1905 135.158C89.8011 135.552 91.2696 135.9 92.4223 136.157C92.9907 136.399 93.8276 136.596 94.4434 136.778C94.1118 136.657 94.2382 136.611 94.5066 136.687C96.4014 137.186 94.6487 136.657 96.5751 137.111C97.6331 137.338 100.096 137.973 102.591 138.639C106.097 139.593 109.665 140.546 111.355 141C111.323 140.667 111.323 140.47 111.307 140.304C111.15 139.29 111.039 138.261 110.944 137.217C110.897 136.702 110.85 136.187 110.802 135.688C110.786 135.491 110.755 135.295 110.739 135.098C110.723 134.962 110.692 134.841 110.676 134.704L110.723 134.81C110.565 133.721 110.123 127.5 109.949 126.229V126.396C109.76 125.291 109.934 125.427 109.886 124.549C109.744 124.686 109.571 123.732 109.523 123.369L109.555 123.384C109.476 122.839 109.223 121.613 109.128 120.705L109.223 120.736C109.065 119.994 108.97 118.571 108.907 118.027C108.828 116.786 108.797 114.863 108.528 113.214L108.67 112.124L108.639 111.973L107.849 108.386C107.66 107.569 104.96 110.55 104.881 110.475C105.086 110.293 105.291 110.111 105.37 110.066C105.276 110.081 104.865 110.414 104.66 110.626L104.707 110.747C104.233 111.216 104.549 110.792 104.06 111.231C103.965 111.186 104.391 110.777 104.786 110.414C104.423 110.717 104.028 110.989 103.949 111.186C103.586 111.443 103.902 111.065 103.475 111.398C103.207 111.67 102.907 112.064 102.544 112.321V112.306C101.675 112.941 101.423 113.486 100.633 114.061L100.696 113.971C100.396 114.152 99.9543 114.667 99.449 115.03C99.5911 114.924 99.7647 114.879 99.4805 115.121C98.912 115.545 98.5805 115.923 98.1383 116.21L97.8225 116.604C95.9593 118.238 88.7273 124.837 86.8799 126.502L86.943 126.426C85.1271 128.136 82.506 130.482 79.6953 133.009Z" fill="#D5D5D5"/>
<path d="M143.645 71.0506C145.603 73.124 147.639 75.3033 149.518 77.3161C150.64 78.4814 151.666 79.556 152.487 80.3732C152.834 80.8726 153.419 81.478 153.813 81.9471C153.608 81.6596 153.735 81.705 153.924 81.9169C155.219 83.3243 154.066 81.9623 155.408 83.3697C156.166 84.1264 157.856 85.9425 159.561 87.804C161.961 90.4374 164.393 93.1161 165.546 94.3722C165.719 94.0847 165.814 93.903 165.909 93.7668C166.351 92.8285 166.856 91.9205 167.362 90.9973C167.614 90.5433 167.867 90.0893 168.119 89.6352C168.214 89.4536 168.309 89.2871 168.404 89.1055C168.467 88.9845 168.514 88.8634 168.577 88.7423L168.562 88.8483C169.051 87.8494 172.241 82.4163 172.825 81.2661L172.714 81.4023C173.188 80.3732 173.251 80.5851 173.725 79.8284C173.535 79.8586 173.914 78.9809 174.088 78.6479L174.104 78.6782C174.357 78.1787 174.846 77.0286 175.272 76.2113L175.336 76.287C175.62 75.5757 176.362 74.3347 176.615 73.8504C177.262 72.7759 178.336 71.1414 179.046 69.628L179.788 68.7956L179.836 68.6443L181.225 65.2391C181.525 64.4522 177.562 65.5267 177.546 65.4359C177.83 65.3905 178.099 65.3602 178.194 65.3602C178.115 65.3299 177.562 65.3905 177.278 65.4661L177.246 65.5872C176.583 65.7386 177.073 65.5418 176.425 65.6629C176.378 65.5721 176.962 65.451 177.499 65.3602C177.025 65.4208 176.536 65.4359 176.362 65.5721C175.904 65.6024 176.394 65.451 175.841 65.4964C175.462 65.5872 174.972 65.7537 174.53 65.7688V65.7537C173.441 65.8294 172.92 66.1623 171.925 66.2228L172.02 66.1774C171.672 66.1774 170.993 66.359 170.362 66.4044C170.551 66.3893 170.709 66.4347 170.346 66.5104C169.619 66.5709 169.146 66.7071 168.609 66.7223L168.119 66.8887C165.625 67.2671 155.803 69.0075 153.308 69.4313L153.403 69.401C150.971 69.8248 147.434 70.415 143.645 71.0506Z" fill="#D5D5D5"/>
<path d="M129.592 34.2137C132.434 34.819 135.418 35.4395 138.182 36.0298C139.808 36.3627 141.292 36.6503 142.445 36.8773C143.029 37.0891 143.866 37.2556 144.482 37.4221C144.135 37.301 144.277 37.2708 144.545 37.3313C146.456 37.7551 144.687 37.301 146.63 37.6794C147.703 37.8761 150.182 38.4058 152.709 38.9809C156.262 39.783 159.862 40.6154 161.567 40.9937C161.535 40.6608 161.504 40.464 161.488 40.2976C161.283 39.2836 161.125 38.2696 160.999 37.2405C160.92 36.7259 160.856 36.2114 160.793 35.7119C160.762 35.5152 160.73 35.3185 160.699 35.1217C160.667 34.9855 160.651 34.8644 160.62 34.7282L160.667 34.8342C160.462 33.7445 159.767 27.5547 159.53 26.2985V26.4801C159.293 25.3905 159.467 25.5116 159.404 24.6338C159.262 24.77 159.041 23.8317 158.993 23.4685L159.025 23.4836C158.93 22.9388 158.614 21.728 158.472 20.82L158.567 20.8503C158.377 20.1087 158.22 18.7012 158.141 18.1564C158.014 16.9154 157.904 14.9934 157.556 13.3589L157.651 12.2692L157.604 12.1179L156.656 8.5765C156.435 7.77439 153.861 10.8617 153.782 10.7861C153.988 10.5893 154.177 10.4077 154.256 10.3623C154.161 10.3775 153.767 10.7407 153.577 10.9526L153.625 11.0736C153.182 11.5579 153.467 11.1342 153.009 11.5882C152.914 11.5428 153.325 11.119 153.704 10.7558C153.356 11.0736 152.961 11.346 152.898 11.5579C152.551 11.8455 152.851 11.4368 152.44 11.7849C152.188 12.0725 151.903 12.4811 151.54 12.7384V12.7232C150.703 13.3891 150.482 13.9491 149.709 14.5545L149.756 14.4637C149.472 14.6604 149.03 15.1901 148.556 15.5684C148.698 15.4625 148.856 15.402 148.603 15.6744C148.051 16.1284 147.751 16.5068 147.308 16.8095L147.024 17.2181C145.224 18.9282 138.292 25.7991 136.508 27.5395L136.571 27.4639C134.803 29.1286 132.292 31.5803 129.592 34.2137Z" fill="#D5D5D5"/>
<path d="M47.8145 99.7284C50.7199 99.9857 53.7515 100.258 56.5622 100.5C58.2044 100.636 59.736 100.758 60.9045 100.818C61.5045 100.969 62.3572 101.03 63.0046 101.106C62.6573 101.03 62.7836 100.985 63.0521 101.015C65.0101 101.212 63.1941 100.969 65.1679 101.106C66.2574 101.166 68.7838 101.408 71.3576 101.666C74.9894 102.044 78.6686 102.422 80.4055 102.604C80.3266 102.286 80.2791 102.089 80.2317 101.923C79.9002 100.954 79.6159 99.9554 79.3475 98.9414C79.2054 98.442 79.0634 97.9426 78.937 97.4583C78.8739 97.2616 78.8264 97.08 78.7633 96.8832C78.7159 96.7621 78.6844 96.6259 78.637 96.5049L78.7001 96.5957C78.3528 95.5363 76.8527 89.4826 76.4738 88.2568L76.5053 88.4233C76.1263 87.3639 76.3158 87.4698 76.1263 86.6072C76 86.7585 75.6684 85.8505 75.5579 85.5024H75.5895C75.4158 84.9727 74.9578 83.8074 74.7052 82.9296L74.8 82.9447C74.5158 82.2334 74.1683 80.8411 74.0262 80.3265C73.742 79.1158 73.3789 77.224 72.8262 75.635L72.7788 74.5302L72.7157 74.3788L71.3103 70.9737C70.9787 70.2018 68.8313 73.5616 68.7523 73.501C68.926 73.2892 69.0997 73.0773 69.1629 73.0319C69.0839 73.0622 68.7207 73.4556 68.5628 73.6978L68.626 73.8037C68.247 74.3486 68.4681 73.8794 68.0733 74.394C67.9786 74.3637 68.326 73.8945 68.6418 73.4859C68.3418 73.8491 67.9944 74.1669 67.947 74.3788C67.647 74.6966 67.8838 74.2729 67.5206 74.6512C67.3154 74.9691 67.0785 75.4079 66.7469 75.7106L66.7311 75.6955C65.989 76.4522 65.8311 77.0424 65.1521 77.7386L65.1837 77.6327C64.9311 77.8597 64.5679 78.4348 64.1258 78.8736C64.2521 78.7526 64.41 78.6769 64.1889 78.9644C63.6994 79.479 63.4468 79.8876 63.0521 80.2509L62.8152 80.6897C61.2519 82.5966 55.2674 90.2545 53.7358 92.1765L53.7831 92.1008C52.3304 94.0683 50.1672 96.7924 47.8145 99.7284Z" fill="#D5D5D5"/>
<path d="M18.4285 136.642C19.818 134.19 21.2707 131.617 22.6287 129.241C23.4024 127.849 24.113 126.547 24.6499 125.549C25.0288 125.079 25.4235 124.353 25.7551 123.823C25.5498 124.111 25.5499 123.975 25.692 123.733C26.6552 122.083 25.692 123.596 26.6236 121.901C27.1131 120.963 28.3447 118.829 29.6079 116.665C31.408 113.623 33.2239 110.536 34.0766 109.068C33.7292 109.007 33.524 108.977 33.3503 108.947C32.2766 108.856 31.2186 108.72 30.1448 108.553C29.608 108.477 29.0711 108.402 28.5658 108.326C28.3605 108.296 28.1552 108.281 27.95 108.25C27.8078 108.235 27.6657 108.22 27.5394 108.22L27.6499 108.205C26.4973 108.084 20.1022 107.025 18.7758 106.873L18.9495 106.919C17.781 106.828 17.9705 106.707 17.0704 106.54C17.1652 106.707 16.1704 106.646 15.7914 106.601L15.8072 106.571C15.2388 106.51 13.9283 106.449 12.9966 106.344L13.0439 106.268C12.2544 106.238 10.786 105.995 10.2175 105.92C8.93851 105.693 6.98049 105.269 5.25936 105.118L4.18563 104.724H4.01196L0.190741 104.618C-0.677724 104.603 1.70655 107.827 1.61181 107.872C1.46969 107.63 1.34338 107.403 1.32759 107.327C1.3118 107.403 1.56446 107.887 1.73816 108.114L1.86451 108.099C2.22768 108.644 1.88025 108.266 2.21184 108.81C2.14868 108.886 1.83292 108.387 1.56449 107.948C1.78555 108.356 1.95924 108.795 2.14872 108.901C2.3382 109.295 2.02239 108.916 2.24346 109.385C2.46452 109.703 2.79614 110.082 2.95404 110.475H2.93823C3.38036 111.429 3.8698 111.792 4.26456 112.67L4.18563 112.594C4.31195 112.912 4.70669 113.457 4.95934 114.016C4.88038 113.85 4.8804 113.699 5.06988 114.001C5.36989 114.637 5.66991 115.03 5.85939 115.5L6.19102 115.878C7.40687 117.997 12.3807 126.29 13.6282 128.409L13.5651 128.333C14.7967 130.422 16.5494 133.418 18.4285 136.642Z" fill="#D5D5D5"/>
<path d="M47.5764 65.9198C46.0132 63.5588 44.371 61.092 42.8551 58.8067C41.9551 57.4749 41.1183 56.2491 40.4551 55.3107C40.2024 54.7659 39.7287 54.0849 39.4129 53.54C39.5708 53.8579 39.4444 53.7822 39.3023 53.5552C38.2602 51.951 39.1761 53.4795 38.0865 51.8904C37.4707 51.0278 36.1127 48.9695 34.7547 46.8508C32.8441 43.8693 30.902 40.8577 29.9861 39.4199C29.7651 39.6772 29.6387 39.8285 29.5282 39.9648C28.9281 40.8274 28.2808 41.6446 27.6176 42.4619C27.286 42.8705 26.9702 43.2791 26.6386 43.6877C26.5123 43.8542 26.3859 44.0055 26.2754 44.1569C26.1964 44.2628 26.1175 44.3839 26.0386 44.4898L26.0859 44.3839C25.4227 45.292 21.3488 50.15 20.5751 51.1791L20.7015 51.058C20.0541 51.9964 20.0382 51.7845 19.4382 52.4504C19.6277 52.4504 19.0908 53.2525 18.8698 53.5552L18.8539 53.5249C18.5223 53.9789 17.8434 55.0383 17.2749 55.7648L17.2276 55.6891C16.8171 56.3399 15.8854 57.4447 15.538 57.8835C14.7169 58.8521 13.3748 60.2747 12.4116 61.6671L11.5273 62.3784L11.4483 62.5146L9.49034 65.6625C9.04821 66.3889 13.1537 65.95 13.1537 66.0408C12.8695 66.0408 12.5853 66.0408 12.5063 66.0257C12.5695 66.0711 13.1221 66.1014 13.4221 66.0711L13.4695 65.95C14.1485 65.9046 13.6274 66.0257 14.2906 66.0106C14.3222 66.1014 13.7222 66.1316 13.1853 66.1316C13.659 66.1316 14.1485 66.2073 14.338 66.1014C14.7959 66.1316 14.2906 66.2224 14.8275 66.2527C15.2064 66.2224 15.7276 66.1316 16.1697 66.1922L16.1539 66.2073C17.2434 66.2981 17.8118 66.056 18.8066 66.1468L18.6961 66.177C19.0435 66.2376 19.7382 66.1619 20.3698 66.2073C20.1961 66.1922 20.0383 66.1165 20.4173 66.1014C21.1436 66.1619 21.6331 66.1014 22.17 66.1619L22.6753 66.0711C25.2017 66.0862 35.1811 65.9349 37.7233 65.9046L37.6286 65.9198C40.1392 65.9652 43.7236 65.95 47.5764 65.9198Z" fill="#D5D5D5"/>
</svg>
