<svg width="211" height="182" viewBox="0 0 211 182" fill="none" xmlns="http://www.w3.org/2000/svg">
<path fill-rule="evenodd" clip-rule="evenodd" d="M190.39 145.35C189.031 146.414 188.394 147.956 188.12 149.69C187.97 150.646 187.097 150.777 186.44 150.945C185.872 151.091 185.347 151.11 184.888 151.579C184.698 151.773 184.105 151.816 183.856 151.664C183.059 151.178 182.205 150.823 181.47 150.175C178.879 147.896 176.981 145.077 175.203 142.201C173.39 139.266 171.492 136.363 170.104 133.18C169.672 132.19 169.654 132.198 170.741 131.429C171.625 133.109 172.449 134.816 173.403 136.446C174.16 137.74 175.076 138.94 175.998 140.293C176.214 139.748 176.209 139.399 175.873 138.913C174.039 136.265 172.298 133.556 170.918 130.454C171.138 130.31 171.405 130.136 171.67 129.963C171.731 130.016 171.868 130.134 172.102 130.336V129.232C172.757 129.101 173.351 128.983 174.124 128.83C174.726 129.111 175.013 130.178 176.005 130.31C175.973 131.389 176.916 131.927 177.39 132.715C177.978 133.692 178.775 134.543 179.339 135.266C179.976 135.181 180.452 135.092 180.933 135.058C182.62 134.94 182.579 134.993 183.631 135.92C184.799 136.95 185.598 138.392 187.104 139.046C187.201 139.088 187.31 139.235 187.315 139.338C187.361 140.423 187.968 140.816 188.986 141.079C189.84 141.301 190.083 142.201 190.123 143.086C190.153 143.765 190.278 144.439 190.39 145.35Z" fill="#11BDCF"/>
<path fill-rule="evenodd" clip-rule="evenodd" d="M39.7475 19.4377C40.9557 20.0426 40.9557 20.0426 41.6059 18.7766C42.4321 18.4932 43.4307 19.0637 44.178 18.3047C45.0189 18.5143 45.8487 18.7992 46.702 18.9169C48.0797 19.1061 48.7912 20.1719 49.5692 21.0689C50.0974 21.6782 50.6504 22.2896 51.1332 22.9515C51.6979 23.7258 52.3729 24.4183 52.9398 25.1905C53.4534 25.8903 53.8924 26.6464 54.3482 27.3871C54.4746 27.5932 54.6368 27.8437 54.6185 28.0599C54.5696 28.6356 54.769 29.0235 55.1781 29.4362C55.9649 30.2296 55.9035 31.394 56.1767 32.3846C56.4302 33.3079 56.2848 34.3606 56.203 35.3475C56.1723 35.7245 56.1226 36.5288 55.2928 35.9356C55.2343 35.8932 54.9443 36.2022 54.7449 36.3191C54.5345 36.4418 54.1751 36.6763 54.1006 36.6113C53.2254 35.8428 53.0121 36.3922 52.6118 37.1519C52.023 38.2703 51.6636 38.1878 50.0828 37.9058C49.1207 37.7334 48.1009 37.7034 47.5377 36.8685C46.0145 34.6112 44.4542 32.3692 44.2431 29.4837C44.159 28.3273 43.8362 27.1205 42.8821 26.2892C42.0603 25.5726 41.5146 24.5484 40.3925 24.1488C40.0543 24.0283 39.8067 23.625 39.5437 23.3277C38.9848 22.6936 38.6846 21.9887 38.67 21.0967C38.6546 20.1704 39.3866 19.963 39.7475 19.4377Z" fill="#11BDCF"/>
<path fill-rule="evenodd" clip-rule="evenodd" d="M168.872 94.886C167.886 93.8998 167.059 92.934 166.094 92.1334C163.326 89.8367 162.011 86.5873 160.356 83.563C159.612 82.205 159.825 80.6797 159.857 79.2106C159.863 78.9557 160.215 78.708 160.421 78.4407C160.702 78.9973 160.966 79.5189 161.351 80.2801V77.5604C161.93 77.2733 162.502 77.117 162.892 76.762C163.377 76.3215 163.924 76.4084 164.368 76.5202C164.885 76.6502 165.326 77.0819 165.847 77.4121C165.542 78.8395 166.104 80.0346 166.8 81.2802C167.423 81.1114 168.159 81.5541 168.783 80.9142C168.915 80.7783 169.349 80.7673 169.536 80.8798C171.064 81.7996 172.939 82.2875 173.712 84.1752C173.851 84.5156 174.005 84.9554 174.284 85.1066C174.705 85.3345 174.327 86.046 175.05 86.0738C175.644 86.0964 175.264 86.7028 175.371 87.033C175.503 87.442 175.684 87.8424 175.755 88.2617C175.821 88.6459 175.769 89.0506 175.769 89.4495C174.239 90.7615 173.256 92.4329 172.502 94.295C171.279 94.4937 170.037 94.696 168.872 94.886Z" fill="#11BDCF"/>
<path fill-rule="evenodd" clip-rule="evenodd" d="M2.94758 2.00388C3.31064 1.50933 3.59335 1.09732 3.90674 0.708685C4.02143 0.567696 4.19821 0.468346 4.36258 0.376302C4.83084 0.114048 5.16541 0.855518 5.68919 0.532631C6.09974 0.279874 6.58041 0.0526847 7.04867 0.00739293C7.4373 -0.0298632 8.01368 0.438395 8.2226 0.28791C8.68794 -0.0473955 8.96627 -0.148206 9.37097 0.305442C9.44621 0.38872 9.72162 0.325896 9.89329 0.284257C11.1629 -0.0218276 11.1622 -0.0254802 11.8416 1.20836C11.9343 0.940988 12.0147 0.710146 12.1608 0.28864C12.3617 0.832141 12.5589 1.21858 12.6422 1.62767C12.7445 2.12734 12.7693 2.64527 12.7927 3.15663C12.8168 3.67091 12.7978 4.18738 13.0864 4.71701L13.2792 2.8016C13.3471 2.79868 13.4158 2.79576 13.4845 2.79357C13.5217 3.13252 13.5875 3.47148 13.5897 3.81117C13.6006 5.53372 13.5195 7.26065 13.6174 8.97735C13.7044 10.4917 13.445 11.8629 12.5896 13.115C12.2689 12.8082 11.965 12.3428 11.5998 13.085C11.2002 13.8959 10.5602 13.8345 9.7333 13.4627C9.59597 14.3444 9.53387 15.3839 8.07358 15.0516V12.8432C7.97642 12.8242 7.87853 12.8045 7.78138 12.7848C7.5498 13.5379 7.31896 14.2911 7.08081 15.0662C6.42847 14.6293 5.89373 14.1647 5.99966 13.2457C6.02888 12.9879 5.72791 12.7059 5.63075 12.4181C5.2107 11.166 5.21728 11.163 4.17776 11.1331C3.97906 11.1273 3.78036 11.1324 3.58166 11.1324H3.03597C2.53191 10.6283 2.07754 10.144 1.59174 9.69399C0.556609 8.73775 0.227148 7.47177 0.0613217 6.15611C-0.0204956 5.50377 0.120493 4.8222 0.0277182 4.17277C-0.0745535 3.45687 0.294355 2.92798 0.620164 2.42393C1.26959 1.41947 1.62389 1.39025 2.94758 2.00388Z" fill="#11BDCF"/>
<path fill-rule="evenodd" clip-rule="evenodd" d="M119.13 17.7722C118.281 18.3493 117.463 18.9278 116.61 19.4487C116.528 19.4991 116.231 19.1988 115.911 18.9753C115.715 19.3267 115.582 19.6488 115.375 19.9118C115.131 20.2223 114.817 20.478 114.541 20.7636C113.98 21.3414 113.439 21.985 112.61 21.1069C112.546 21.0405 112.353 21.1062 112.223 21.0923C111.291 20.9915 110.404 21.2238 109.466 20.4743C108.712 19.8709 107.751 19.4538 107.042 18.713C106.377 18.0176 105.689 17.3645 105.225 16.4821C104.514 15.127 103.811 13.7872 104.064 12.1969C104.128 11.798 104.402 11.432 104.649 10.898C105.151 11.3086 105.49 11.5862 105.885 11.9113C106.21 10.8352 106.143 9.58457 107.141 8.63636C107.531 8.92857 107.909 9.21055 108.38 9.56265V8.10966C109.689 7.88613 110.879 7.43613 112.191 7.51503C112.943 7.56032 113.593 7.79847 114.069 8.25504C114.682 8.84091 115.431 9.26022 115.931 10.0112C116.382 10.6906 117 11.2589 117.474 11.9587C118.252 13.1093 118.515 14.4542 119.084 15.6785C119.355 16.2622 119.13 17.0774 119.13 17.7722Z" fill="#11BDCF"/>
<path fill-rule="evenodd" clip-rule="evenodd" d="M34.7559 55.8592V60.1342C35.1525 59.0538 35.0839 57.9624 35.1175 56.8768C35.1306 56.44 34.9239 55.8965 35.4535 55.6357C36.0006 55.3654 36.5785 55.098 37.1687 55.0111C37.3718 54.9811 37.7583 55.4618 37.8737 55.7767C37.9979 56.1149 37.9022 56.5335 37.9022 56.9601C38.2324 56.822 38.4289 56.6621 38.6049 56.6818C38.9687 56.7227 39.4684 57.0595 39.6547 56.9236C40.6898 56.1617 41.8243 56.6621 42.8945 56.6022C43.3788 56.5751 44.1115 56.8987 44.3438 57.2918C44.9136 58.2597 46.0635 58.5555 46.6661 59.6944C46.6858 60.1809 46.7501 60.7821 47.2556 61.4294C47.9182 62.2775 48.4836 63.3309 48.2784 64.572C48.1827 65.1491 48.2616 65.7547 48.2616 66.4582C46.9035 67.264 45.4907 68.0471 44.1364 68.9208C42.7192 69.8354 41.4298 69.221 40.2237 68.5891C39.3435 68.1274 38.1622 67.9112 37.8649 66.6818C35.8969 65.7964 35.547 63.7225 34.4965 62.1555C33.7901 61.1021 33.812 59.8763 33.6119 58.7616C33.4468 57.8404 34.0969 56.7731 34.3862 55.7708C34.5097 55.8001 34.6331 55.83 34.7559 55.8592Z" fill="#11BDCF"/>
<path fill-rule="evenodd" clip-rule="evenodd" d="M73.3042 77.4146C72.4656 76.576 71.5766 75.6869 70.5758 74.6861C70.5758 74.0235 70.5071 73.2339 70.6108 72.4676C70.6503 72.1827 71.0616 71.8948 71.3677 71.7275C71.4838 71.6633 71.7826 71.9335 72.0003 72.0526C72.2896 71.4799 72.459 70.7048 73.4372 70.8933C73.6191 70.9291 73.877 70.9401 74.0012 70.84C74.4884 70.4455 75.0188 70.043 75.6419 70.2161C76.7588 70.5273 78.0036 70.7092 78.8744 71.4799C80.5955 73.0045 82.2318 74.6613 83.0887 76.863C83.5994 78.1758 84.0603 79.5316 84.3072 80.9108C84.4146 81.5142 84.2517 82.3426 83.5643 82.8233C82.4327 83.6159 81.3435 84.4721 80.1871 85.2259C79.7934 85.4824 79.2382 85.6599 78.7787 85.6197C75.8837 85.3691 73.8207 84.0067 72.9653 80.7369C72.8404 80.2607 72.5416 79.7646 72.6059 79.319C72.6994 78.674 73.0515 78.0655 73.3042 77.4146Z" fill="#11BDCF"/>
<path fill-rule="evenodd" clip-rule="evenodd" d="M78.2726 149.393C78.1937 148.993 78.1149 148.594 78.036 148.195C78.0308 149.78 76.3572 150.373 75.9927 151.721C75.8627 152.203 75.1497 152.418 74.8546 152.15C74.3732 151.714 74.0452 152.032 73.7734 152.209C73.0509 152.679 72.4373 152.634 71.6995 152.203C69.573 150.96 67.3792 149.817 66.1257 147.538C64.615 146.721 64.173 145.06 63.2343 143.798C62.7777 143.184 62.6324 142.339 62.3139 141.515C62.8691 140.706 63.6755 140.92 64.6508 141.407C64.5565 140.947 64.5821 140.524 64.3893 140.264C64.1226 139.905 64.4075 139.764 64.5587 139.7C65.2454 139.413 65.9555 139.203 66.5209 138.661C66.659 138.528 67.0498 138.581 67.2923 138.654C67.7255 138.785 68.0966 139.062 68.578 138.67C68.7146 138.56 69.1588 138.781 69.4378 138.903C71.8361 139.957 74.0065 141.278 75.4266 143.615C75.618 143.931 76.049 144.265 76.3711 144.566C77.2952 145.424 77.4684 146.675 78.1835 147.6C78.6584 148.216 78.5546 148.757 78.2726 149.393Z" fill="#11BDCF"/>
<path fill-rule="evenodd" clip-rule="evenodd" d="M199.2 56.5083C199.253 56.1409 199.306 55.7727 199.364 55.368C199.509 55.4732 199.637 55.5148 199.671 55.5959C200.182 56.8451 200.818 58.0424 201.118 59.3785C201.307 60.2186 201.547 61.0229 200.734 61.6774C200.18 62.1231 200.742 63.4029 199.496 63.3313C198.909 64.2744 197.968 64.1802 197.068 64.1159C196.865 64.7471 196.739 65.3622 196.473 65.9108C196.175 66.5288 195.22 66.7034 194.196 66.4112C193.963 66.3447 193.737 66.1175 193.523 66.1365C191.865 66.2811 191.868 66.2936 191.17 64.9859C190.821 64.3336 190.401 63.7105 190.13 63.0274C189.802 62.1947 189.29 61.6745 188.45 61.3151C187.201 60.7811 186.39 59.6985 186.175 58.4106C185.98 57.2447 186.525 56.1752 187.566 55.3351C188.082 56.0087 188.596 56.68 189.317 57.6209C189.317 56.6581 189.307 56.0101 189.32 55.3629C189.333 54.7193 189.404 54.8508 190.422 54.3921C191.149 54.0641 192.204 54.4614 192.622 53.4519C193.341 53.4241 194.059 53.3978 194.778 53.3701C196.105 53.3175 197.283 53.4621 197.902 54.9377C198.147 55.5222 198.735 55.9634 199.2 56.5083Z" fill="#11BDCF"/>
<path fill-rule="evenodd" clip-rule="evenodd" d="M2.78923 66.1882C1.21717 65.8478 0.664903 64.733 0.521722 63.7534C0.338364 62.5005 -0.0860638 61.2726 0.0154774 59.9481C0.14697 58.2336 0.137473 56.4943 0.00890274 54.7798C-0.0531908 53.9477 0.480814 53.3319 0.468395 52.5539C0.465473 52.3515 0.74672 51.96 0.879673 51.968C1.90531 52.0265 2.39256 50.9161 3.46788 50.9095C4.18013 50.9059 4.88872 50.2382 5.6879 49.8203C6.4754 50.6078 8.15046 49.634 8.78893 51.3705C8.37108 52.5904 9.41206 53.6621 9.76489 54.912C9.81384 55.0866 9.9972 55.2422 9.99866 55.4073C10.0155 57.376 10.0089 59.344 10.0089 61.4822C9.69038 61.1995 9.55231 61.0775 9.20971 60.7729C9.31709 61.2353 9.29664 61.5896 9.45443 61.7094C9.62244 61.838 9.97674 61.6955 10.2149 61.7751C10.323 61.8109 10.3807 62.0966 10.3924 62.2734C10.3982 62.3544 10.2222 62.5334 10.1579 62.5203C9.67577 62.426 9.20021 62.2945 8.67935 62.1645C8.32359 62.9345 7.94373 63.7563 7.66029 64.3707C7.11752 64.3305 6.79317 64.3056 6.46955 64.2815C7.03716 64.8543 6.38481 65.0603 6.14886 65.4124C5.90852 65.7696 5.73247 66.1699 5.5418 66.5257C4.28824 66.3898 3.82072 65.5818 3.48541 64.5116C3.24799 65.0844 3.03395 65.5979 2.78923 66.1882Z" fill="#11BDCF"/>
<path fill-rule="evenodd" clip-rule="evenodd" d="M149.438 157.804C148.408 157.775 147.432 157.496 146.934 158.639C146.093 157.53 145.993 156.743 146.85 155.862C147.442 155.254 147.832 154.495 148.586 153.97C149.245 153.51 149.488 152.492 150.056 151.844C150.493 151.346 151.149 151.039 151.708 150.648C151.883 150.819 152.071 151.004 152.368 151.296C152.053 151.52 151.743 151.741 151.433 151.96C151.467 152.04 151.502 152.12 151.536 152.199C151.991 152.128 152.444 152.056 152.955 151.976C153.091 152.18 153.249 152.703 153.587 152.879C155.618 153.936 156.915 155.702 158.15 157.515C158.555 158.109 158.695 158.878 159.02 159.537C159.825 161.163 160.032 161.464 159.787 162.942C159.611 164.011 159.416 165.151 158.576 166.021C158.245 166.365 157.891 166.861 157.874 167.3C157.83 168.411 157.22 168.588 156.323 168.531C156.072 168.515 155.807 168.547 155.563 168.613C153.998 169.034 153.837 168.99 153.057 167.791C151.901 166.015 151.349 163.984 150.677 162.01C150.202 160.616 149.839 159.182 149.438 157.804Z" fill="#11BDCF"/>
<path fill-rule="evenodd" clip-rule="evenodd" d="M124.106 135.946C123 135.318 121.879 134.768 120.977 133.859C119.296 132.161 117.492 130.571 115.941 128.762C114.31 126.86 112.584 124.986 111.6 122.756C111.704 121.876 112.851 122.811 112.873 121.772C112.879 121.476 113.606 121.189 114.009 120.908C115.01 120.21 115.569 120.093 116.298 120.869C117.018 121.635 117.85 121.91 118.791 122.109C120.246 122.417 121.249 123.534 122.494 124.222C123.826 124.957 124.775 126.14 125.857 127.168C126.417 127.7 127.113 128.108 127.595 128.697C128.079 129.289 128.524 130.001 128.696 130.73C128.799 131.173 128.466 131.842 128.127 132.238C127.709 132.725 127.511 133.428 126.778 133.664C126.354 133.8 126.414 134.274 126.332 134.664C126.237 135.111 126.112 135.656 125.334 135.094C124.791 134.702 124.334 135.258 124.106 135.946Z" fill="#11BDCF"/>
<path fill-rule="evenodd" clip-rule="evenodd" d="M204.312 124.425C202.041 123.49 201.065 121.751 200.095 120.062C199.243 118.576 198.466 117.03 197.831 115.44C197.2 113.851 196.097 112.347 196.589 110.348C198.025 111.349 197.906 113.262 199.285 114.541C199.032 112.518 197.983 110.954 197.459 108.823C198.184 109.22 198.447 109.364 198.768 109.54C198.83 109.193 198.895 108.829 198.959 108.467C199.56 108.353 200.152 108.24 200.852 108.107C201.038 108.404 201.281 108.842 201.57 109.248C202.698 110.829 202.705 110.821 204.753 111.55C204.982 111.631 205.196 111.764 205.403 111.896C206.99 112.898 208.434 114.027 209.307 115.77C209.63 116.414 210.07 117.598 210.05 118.283C210.046 118.444 210.18 118.633 210.297 118.769C210.595 119.114 210.461 119.408 210.152 119.583C209.257 120.088 208.869 121.081 208.075 121.676C207.736 121.929 207.675 122.267 207.614 122.686C207.529 123.255 206.411 123.994 205.891 123.874C205.569 123.8 205.361 123.208 204.922 123.644C204.692 123.873 204.516 124.158 204.312 124.425Z" fill="#11BDCF"/>
<path fill-rule="evenodd" clip-rule="evenodd" d="M139.795 77.9958C139.447 78.0535 139.083 78.1134 138.58 78.1967C138.778 78.5693 138.92 78.8337 139.068 79.1113C138.122 80.0573 137.137 81.0421 136.122 82.0582C135.958 82.0582 135.758 82.0282 135.57 82.0626C133.335 82.476 131.847 81.2079 130.606 79.6789C129.637 78.4845 128.803 77.1689 128.154 75.7334C127.75 74.8371 127.388 74.0116 127.677 72.7938C128.355 74.2841 128.959 75.6107 129.564 76.938C129.671 76.903 129.778 76.8686 129.886 76.8336C129.837 76.5808 129.83 76.3098 129.732 76.0775C129.328 75.1176 128.869 74.1796 128.488 73.2117C128.319 72.7829 127.958 72.2489 128.879 72.0494C129.163 71.9881 129.33 71.3752 129.547 71.0121C129.737 70.6936 129.921 70.3715 130.071 70.1143C131.003 70.0288 131.011 70.8434 131.592 71.1794C131.457 70.6666 131.322 70.1538 131.144 69.4788C131.442 69.2428 131.84 68.9272 132.238 68.6109C132.489 68.8608 132.822 69.2589 133.131 68.5247C133.467 67.7314 133.962 67.4224 134.765 67.9432C134.838 67.9907 134.989 68.0272 135.037 67.9878C135.967 67.2215 136.515 67.9849 136.945 68.5707C137.972 69.9711 138.456 71.6528 139.071 73.2526C139.216 73.6281 139.531 74.5098 138.471 74.5522C138.412 74.5544 138.365 74.8838 138.314 75.0606C138.534 75.1139 138.873 75.2849 138.957 75.2001C139.551 74.6048 139.871 75.382 139.813 75.5186C139.455 76.358 140.283 77.1689 139.795 77.9958Z" fill="#11BDCF"/>
<path fill-rule="evenodd" clip-rule="evenodd" d="M132.58 35.4828C132.814 35.7166 133.048 35.9511 133.404 36.3061C133.469 35.7429 133.523 35.2783 133.582 34.7713C134.402 34.5996 135.247 34.3834 136.105 34.2563C136.624 34.1796 137.172 34.1818 137.689 34.2614C138.083 34.3228 137.774 35.0577 138.509 35.122C138.985 35.1636 139.35 35.9715 139.688 36.534C139.963 36.9906 139.552 37.979 140.595 37.9198C140.631 38.5663 140.667 39.2136 140.704 39.8601C140.707 39.9229 140.721 39.985 140.731 40.0478L143.691 43.0078C144.008 43.0078 144.344 42.9669 144.665 43.0173C145.159 43.097 145.692 43.5871 145.438 43.891C144.874 44.5667 145.885 45.0335 145.484 45.5851C143.944 46.0468 143.458 46.0979 142.204 45.8787C142.518 46.5574 142.792 47.1491 143.135 47.8928C142.935 48.0849 142.671 48.5531 142.411 48.5517C140.77 48.5393 139.042 48.9557 137.579 47.7905C137.182 47.4742 136.703 47.2265 136.394 46.8401C135.691 45.9591 135.061 45.0189 134.419 44.0897C134.103 43.6317 133.833 43.1408 133.529 42.6733C133.058 41.9493 133.198 40.9061 132.335 40.3882C132.466 39.5101 131.971 38.8461 131.654 38.0886C131.224 37.0593 131.491 36.0745 132.58 35.4828Z" fill="#11BDCF"/>
<path fill-rule="evenodd" clip-rule="evenodd" d="M71.0973 5.95229C71.8738 5.95229 72.4049 5.95156 72.9353 5.95229C73.6461 5.95376 74.4153 5.83468 74.5782 6.86178C74.5957 6.97574 74.8616 7.15033 74.9887 7.13207C75.8303 7.00715 76.0487 7.80268 76.5637 8.1526C77.9612 9.10226 78.1672 10.6663 78.5164 12.1127C78.7158 12.9375 78.4492 13.5292 77.5105 14.0909C76.4571 14.7214 75.1385 15.1129 74.4153 16.2584C73.7768 16.2708 73.2545 17.2694 72.5086 16.4702C72.4005 16.3548 72.1609 16.3161 71.9834 16.319C69.469 16.3672 67.8955 14.9237 66.5813 12.9988C65.9143 12.0229 65.0793 11.1506 64.8178 9.94893C64.7104 9.45583 64.6476 8.95032 64.6125 8.44699C64.6001 8.2819 64.6973 7.99554 64.8127 7.9539C65.8245 7.59229 66.5601 6.72956 67.5412 6.37818C68.7509 5.94572 70.0446 5.81569 71.0973 5.95229Z" fill="#11BDCF"/>
<path fill-rule="evenodd" clip-rule="evenodd" d="M67.9015 102.588C68.193 103.046 68.407 103.384 68.8234 104.039C68.9169 103.345 68.9527 103.107 68.9797 102.869C69.0674 102.08 69.0659 102.081 70.0638 101.98C70.1887 101.966 70.3808 101.983 70.4254 101.912C70.8805 101.195 71.5913 100.994 72.3087 101.21C73.1217 101.455 73.9947 101.762 74.6273 102.295C77.0957 104.376 78.548 107.164 79.6759 110.123C79.8673 110.627 79.7029 111.267 79.7029 111.837C79.4071 111.804 79.1747 111.779 78.9417 111.752C78.9921 112.467 78.8307 112.996 77.995 113.165C77.7444 113.216 77.4018 113.59 77.377 113.842C77.2929 114.703 76.409 114.284 76.1008 114.731C75.6084 113.948 74.761 114.896 74.2073 114.336C73.6769 113.8 72.9508 113.387 72.6001 112.757C71.828 111.37 71.0887 109.926 70.6365 108.415C70.4057 107.643 70.0631 107.129 69.4677 106.778C68.5012 106.211 67.7503 105.491 67.2784 104.468C66.8846 103.614 66.8678 103.622 67.9015 102.588Z" fill="#11BDCF"/>
<path fill-rule="evenodd" clip-rule="evenodd" d="M105.243 79.4176C105.243 79.2196 105.196 78.9442 105.26 78.6973C105.303 78.5322 105.586 78.4197 105.61 78.2612C105.637 78.0881 105.434 77.8894 105.432 77.7009C105.431 77.5336 105.666 77.3283 105.62 77.2049C105.536 76.9777 105.347 76.7673 105.154 76.6095C105.025 76.5043 104.811 76.5029 104.547 76.4313C104.671 76.863 104.771 77.2107 104.872 77.5592C104.168 77.1304 103.387 76.7885 103.731 75.7548C104.022 75.879 104.307 76.0025 104.662 76.1544C104.775 74.9103 103.622 75.5576 103.178 74.9688C103.828 75.0455 104.261 74.5977 104.915 74.6846C105.218 74.7248 105.613 74.0805 106.077 73.6407C106.722 74.1674 107.446 74.7569 108.291 75.4473C108.374 74.9425 108.433 74.5831 108.505 74.1455C109.461 73.9607 110.441 73.7715 111.433 73.5801C111.942 74.2302 112.34 74.8234 112.825 75.334C113.246 75.7753 113.824 76.0697 114.23 76.5219C115.374 77.7988 115.892 79.411 116.363 81.0057C116.532 81.5763 116.717 82.4792 115.627 82.6319C115.632 83.6794 114.527 83.8357 114.029 84.4998C113.404 85.3311 112.3 85.4743 111.108 84.9929C109.322 84.2719 108.149 82.878 107.009 81.5207C106.438 80.8406 105.797 80.1992 105.243 79.4176Z" fill="#11BDCF"/>
<path fill-rule="evenodd" clip-rule="evenodd" d="M138.074 105.253C138.395 105.362 138.705 105.468 139.061 105.589C139.133 103.913 137.401 103.443 137.16 101.9C137.511 102.055 137.797 102.121 138.003 102.285C138.335 102.55 138.614 102.879 139.028 103.292C138.887 102.452 138.793 102.259 138.314 101.684C139.361 100.417 139.361 100.417 140.598 100.413C141.278 101.179 141.859 102.189 142.731 102.721C143.693 103.309 143.976 104.313 144.685 105.032C145.363 105.721 145.813 106.659 146.263 107.539C146.509 108.021 146.719 108.637 146.639 109.144C146.536 109.785 146.263 110.726 145.81 110.908C145.065 111.209 145.232 111.735 144.997 112.188C144.676 112.807 144.236 113.409 143.43 113.542C142.958 113.619 142.397 113.979 142.052 113.823C141.211 113.444 140.342 112.961 139.721 112.299C138.548 111.048 137.499 109.672 136.495 108.279C136.243 107.929 136.359 107.316 136.284 106.625C136.619 106.896 136.752 107.002 137.034 107.229C136.888 106.213 137.776 105.865 138.074 105.253Z" fill="#11BDCF"/>
<path fill-rule="evenodd" clip-rule="evenodd" d="M127.601 178.321C127.057 178.022 126.795 177.878 126.54 177.738C126.093 179.356 125.982 179.44 124.659 178.857C125.008 179.67 125.288 180.32 125.592 181.027C125.247 181.228 124.893 181.434 124.536 181.641C123.89 180.996 123.235 180.341 122.519 179.624C122.088 180.595 123.274 181.044 123.157 181.981C122.093 182.129 121.476 181.405 120.863 180.739C120.528 180.375 120.347 179.867 120.002 179.517C118.465 177.956 117.085 176.27 115.797 174.502C115.682 174.343 115.522 174.216 115.379 174.079C114.603 173.339 113.79 172.624 113.732 171.418C114.507 170.943 114.918 171.674 115.445 172.126C115.98 171.24 114.741 171.122 114.797 170.469C114.844 169.681 116.342 170.686 115.962 169.398H118.119C118.736 169.833 119.362 170.263 119.976 170.71C120.592 171.158 120.999 171.801 121.753 172.166C122.485 172.521 122.97 173.358 123.614 173.925C124.034 174.296 124.301 174.805 124.972 174.972C125.458 175.091 125.717 175.828 126.455 175.733C126.66 175.706 127.031 176.078 127.135 176.341C127.334 176.844 127.396 177.4 127.601 178.321Z" fill="#11BDCF"/>
<path fill-rule="evenodd" clip-rule="evenodd" d="M113.91 45.076C114.595 45.1213 115.068 44.767 115.695 45.2192C115.377 45.3287 115.146 45.4084 114.894 45.4953C115.129 46.2937 115.391 47.0871 115.583 47.8965C115.632 48.104 115.523 48.5138 115.379 48.5744C114.58 48.9119 114.338 49.7717 113.716 50.2429C113.44 50.4518 113.027 50.5198 112.667 50.5607C112.487 50.5804 112.274 50.3079 112.094 50.3269C111.874 50.3503 111.672 50.5424 111.441 50.6739C111.099 49.4656 111.116 49.4167 109.77 48.9579C108.964 48.6832 108.797 47.8914 108.226 47.3932C108.098 47.6656 107.974 47.9286 107.836 48.2238C107.636 48.0134 107.297 47.822 107.298 47.632C107.308 45.2586 107.306 45.2053 106.223 43.783C105.612 44.8561 106.782 45.477 106.846 46.5268C106.556 46.4815 106.123 46.5151 106.072 46.3916C105.563 45.1541 104.787 43.9853 105.583 42.5009C105.83 42.04 105.874 41.7982 106.429 41.7887C106.771 41.7836 107.138 41.5827 107.443 41.3898C108.232 40.8909 108.993 40.3474 109.837 39.7725C110.029 40.0603 110.208 40.3269 110.165 40.2619C110.83 40.7258 111.524 39.4766 111.635 40.7791C111.667 41.1487 112.493 40.267 112.493 41.2349C112.493 41.609 113.181 41.9837 113.526 42.3293C113.403 42.6492 113.286 42.9546 113.168 43.2599C113.266 43.3279 113.364 43.3958 113.463 43.4637C113.636 43.1343 113.809 42.8048 114.028 42.3906C114.383 42.9955 114.59 43.3454 114.861 43.8049C114.567 44.1979 114.239 44.6369 113.91 45.076Z" fill="#11BDCF"/>
<path fill-rule="evenodd" clip-rule="evenodd" d="M46.9461 104.583C46.4874 104.004 46.1243 103.546 45.7211 103.036C45.5158 103.456 45.385 103.723 45.2148 104.071C44.4485 103.711 43.9328 103.118 43.4937 102.499C42.5236 101.131 41.7734 99.6217 40.7901 98.2513C40.1852 97.409 40.1494 96.3505 40.3883 95.2547C41.2963 95.0707 41.4929 96.1379 42.2497 96.4075V94.468C43.68 94.2664 45.0585 94.072 46.3223 93.8945C47.6481 95.0853 48.5211 96.3717 49.1399 97.8576C49.4934 98.7042 50.2217 99.3398 50.4431 100.308C50.5307 100.691 50.0398 101.206 50.644 101.491C50.6542 101.496 50.4643 101.962 50.4584 101.959C49.4722 101.604 49.1406 103.034 48.1916 102.805C48.1303 102.789 47.9623 103.156 47.868 103.357C47.7636 103.577 47.7168 103.83 47.5882 104.033C47.4933 104.185 47.3092 104.28 46.9461 104.583Z" fill="#11BDCF"/>
<path fill-rule="evenodd" clip-rule="evenodd" d="M91.0716 128.678C91.3565 129.337 91.564 129.817 91.8606 130.501C92.049 130.002 92.136 129.774 92.228 129.531C92.3171 129.586 92.4632 129.624 92.4822 129.695C92.6619 130.379 92.9863 130.962 93.4794 131.481C93.7745 131.791 93.9878 132.191 94.1887 132.576C94.543 133.257 95.0456 133.723 95.8594 133.867C95.9872 133.609 96.1187 133.341 96.1801 133.217C96.557 133.499 96.9668 133.807 97.2722 134.035C97.2722 134.284 97.2985 134.39 97.2685 134.41C96.9077 134.645 96.5388 134.866 96.202 135.072C96.2999 135.616 96.3875 136.109 96.5198 136.848C95.9229 136.558 95.5964 136.399 95.126 136.169C94.8652 136.694 94.6036 137.221 94.3224 137.788C94.055 137.818 93.7416 137.855 93.3581 137.898V138.783C92.3573 139.533 91.5384 139.432 90.6706 138.641C89.7253 137.779 88.6595 137.05 87.6952 136.024C88.1006 135.756 88.4922 135.497 88.9217 135.214C88.7026 134.41 88.3088 133.693 87.7412 132.992C87.1736 132.29 86.8624 131.379 86.454 130.589C87.0377 129.869 87.4987 130.402 88.0341 130.627C88.0568 130.426 88.1496 130.212 88.086 130.067C87.6864 129.169 87.8595 128.725 88.7062 128.686C89.501 128.649 90.2987 128.678 91.0716 128.678Z" fill="#11BDCF"/>
<path fill-rule="evenodd" clip-rule="evenodd" d="M34.3699 136.555C34.7037 137.049 34.9762 137.453 35.3166 137.956C35.405 137.681 35.5263 137.503 35.4985 137.355C35.3627 136.636 35.1866 135.924 35.0025 135.112H36.1604C36.2605 135.321 36.3832 135.576 36.6257 136.08V134.453C36.8522 134.373 37.045 134.349 37.1802 134.249C37.4892 134.019 37.9786 133.497 38.029 133.537C38.5353 133.954 39.1606 133.703 39.6515 133.891C40.3835 134.172 41.0789 134.661 41.0694 135.595C41.0665 135.874 40.6969 136.184 40.7524 136.419C40.7977 136.609 41.309 136.652 41.4617 136.867C41.5866 137.043 41.5968 137.515 41.4683 137.618C40.9518 138.03 41.0658 138.563 41.1008 139.063C41.1454 139.687 40.8722 140.066 40.3184 140.223C39.7267 140.391 39.5887 140.77 39.4645 141.336C39.2884 142.136 38.7398 142.668 37.8121 142.629C37.4914 142.616 37.159 142.623 36.8478 142.691C36.0559 142.864 35.058 142.674 34.8111 142.093C34.2084 140.676 33.3362 139.337 33.4984 137.669C33.5619 137.019 33.9535 136.834 34.3699 136.555Z" fill="#11BDCF"/>
<path fill-rule="evenodd" clip-rule="evenodd" d="M98.2576 100.714C98.7529 100.86 99.2701 101.011 99.9057 101.197C100.175 100.555 100.255 99.9385 99.6865 99.3651C100.385 98.7302 100.849 99.6872 101.534 99.5835C101.598 99.2379 101.665 98.8741 101.731 98.5177C102.267 97.9435 102.751 99.0027 103.399 98.503C104.062 97.9917 104.229 99.0955 104.792 99.2219C105.108 99.2927 105.404 99.6222 105.63 99.8998C106.378 100.817 106.495 102.115 107.502 102.917C107.743 103.108 107.615 103.766 107.669 104.352C106.552 103.803 106.484 105.575 105.408 105.155C105.077 105.691 105.39 106.661 104.179 106.778C104.051 106.56 103.851 106.219 103.566 105.732C103.324 106.238 103.206 106.484 103.086 106.737C102.408 106.897 102.097 106.313 101.874 105.941C101.134 104.703 100.176 103.755 98.9363 103.015C98.1736 102.559 97.755 101.816 98.2576 100.714Z" fill="#11BDCF"/>
<path fill-rule="evenodd" clip-rule="evenodd" d="M88.5652 47.7847C87.625 48.521 86.9317 49.0645 86.0369 49.7666H84.3632C83.7116 48.8242 83.4998 47.5845 82.5392 46.8065C82.4383 45.4945 81.5311 44.6815 80.7428 43.7669C80.4923 43.4754 80.5463 42.9217 80.4397 42.3796C80.7275 42.2993 81.0124 42.3051 81.1614 42.1656C82.6904 40.736 84.1309 41.5395 85.3494 42.5148C86.3897 43.3468 87.2678 44.4477 88.0049 45.5683C88.4227 46.2031 88.4117 47.1199 88.5652 47.7847Z" fill="#11BDCF"/>
</svg>
