<svg width="500" height="375" viewBox="0 0 500 375" fill="none" xmlns="http://www.w3.org/2000/svg">
<path d="M301.51 40.785C293.36 45.6084 291.032 53.9244 290.067 57.3507C289.834 58.1823 287.106 68.3944 291.83 79.039C293.227 82.1992 294.724 85.4591 298.117 87.0225C300.08 87.9539 301.843 87.8874 308.762 87.2886C311.988 87.0225 315.481 86.6898 319.207 86.2907C321.834 82.931 326.358 76.2116 327.689 66.7645C327.922 65.0015 330.649 43.9784 319.207 38.39C311.722 34.6976 302.707 40.0532 301.51 40.785Z" fill="#EC615B"/>
<path d="M151.023 90.3822C155.175 90.3822 158.54 86.659 158.54 82.0661C158.54 77.4732 155.175 73.75 151.023 73.75C146.871 73.75 143.505 77.4732 143.505 82.0661C143.505 86.659 146.871 90.3822 151.023 90.3822Z" fill="#EC615B"/>
<path d="M321.503 223.639C324.589 223.639 327.091 221.226 327.091 218.25C327.091 215.274 324.589 212.861 321.503 212.861C318.416 212.861 315.914 215.274 315.914 218.25C315.914 221.226 318.416 223.639 321.503 223.639Z" fill="#EC615B"/>
<path d="M151.09 191.107C153.386 191.107 155.248 189.245 155.248 186.949C155.248 184.653 153.386 182.791 151.09 182.791C148.793 182.791 146.932 184.653 146.932 186.949C146.932 189.245 148.793 191.107 151.09 191.107Z" fill="#EC615B"/>
<path d="M143.338 87.6213C146.994 87.6213 149.958 84.5087 149.958 80.669C149.958 76.8294 146.994 73.7168 143.338 73.7168C139.682 73.7168 136.719 76.8294 136.719 80.669C136.719 84.5087 139.682 87.6213 143.338 87.6213Z" fill="#5222D0"/>
<path d="M319.972 215.123C322.232 215.123 324.064 213.217 324.064 210.865C324.064 208.514 322.232 206.607 319.972 206.607C317.713 206.607 315.881 208.514 315.881 210.865C315.881 213.217 317.713 215.123 319.972 215.123Z" fill="#5222D0"/>
<path d="M374.659 97.7012C377.139 97.7012 379.149 95.5566 379.149 92.9112C379.149 90.2657 377.139 88.1211 374.659 88.1211C372.179 88.1211 370.168 90.2657 370.168 92.9112C370.168 95.5566 372.179 97.7012 374.659 97.7012Z" fill="#5222D0"/>
<path d="M277.127 127.306C276.396 126.142 275.198 127.239 274.699 128.038C273.668 129.701 273.003 131.763 273.768 133.659C274.333 135.09 275.73 136.287 277.36 136.054C278.857 135.855 279.988 134.624 279.955 133.127C279.955 132.728 279.389 132.429 279.09 132.761C277.327 134.99 275.165 138.15 276.928 141.011C278.159 142.973 281.186 143.239 282.383 141.111C282.084 141.077 281.784 141.044 281.485 140.977C281.651 141.909 281.818 142.84 281.951 143.772C282.05 144.404 283.015 144.138 282.915 143.506C282.749 142.574 282.583 141.643 282.45 140.711C282.383 140.279 281.718 140.246 281.552 140.578C281.019 141.51 279.822 141.842 278.857 141.377C277.793 140.844 277.327 139.647 277.327 138.483C277.327 136.553 278.691 134.857 279.822 133.426C279.522 133.293 279.256 133.194 278.957 133.061C278.99 134.325 277.759 135.256 276.529 134.99C275.597 134.79 274.998 133.992 274.666 133.127C274.333 132.229 274.366 131.331 274.633 130.433C274.666 130.366 276.03 127.406 276.229 127.738C276.595 128.337 277.46 127.838 277.127 127.306Z" fill="#EC615B"/>
<path d="M141.309 130.299C142.041 128.303 144.469 129.168 145.234 130.565C145.5 131.03 145.633 131.563 145.7 132.095C145.833 133.093 145.733 133.492 144.868 134.091C143.937 135.022 143.704 134.656 144.203 132.993C144.436 132.893 144.702 132.793 144.935 132.694C145.567 132.527 146.299 132.561 146.931 132.76C148.528 133.292 149.326 134.989 149.093 136.552C149.026 136.951 149.426 137.351 149.825 137.118C151.987 135.887 154.848 137.251 155.347 139.679C155.48 140.311 156.444 140.045 156.311 139.413C155.679 136.353 152.054 134.756 149.326 136.286C149.559 136.486 149.825 136.652 150.058 136.852C150.49 133.924 148.261 131.197 145.168 131.662C144.103 131.829 142.507 132.494 142.374 133.758C142.274 134.789 143.238 135.554 144.203 135.654C147.064 135.92 146.997 131.762 146.066 130.099C144.802 127.837 141.309 127.272 140.311 130.066C140.112 130.631 141.076 130.897 141.309 130.299Z" fill="#EC615B"/>
<path d="M316.446 255.507C319.008 257.203 321.17 259.366 322.9 261.894C323.265 262.426 324.13 261.927 323.764 261.395C321.935 258.733 319.673 256.472 316.979 254.675C316.413 254.276 315.914 255.141 316.446 255.507Z" fill="#5222D0"/>
<path d="M322.933 257.337C323.465 257.969 323.964 258.634 324.496 259.266C324.895 259.765 325.594 259.066 325.195 258.567C324.662 257.935 324.164 257.27 323.631 256.638C323.232 256.139 322.533 256.871 322.933 257.337Z" fill="#5222D0"/>
<path d="M319.873 248.022C322.169 250.151 324.065 252.579 325.528 255.34C325.828 255.906 326.693 255.407 326.393 254.841C324.896 252.014 322.934 249.486 320.572 247.323C320.106 246.858 319.408 247.589 319.873 248.022Z" fill="#5222D0"/>
<path d="M47.8134 307.96C48.6921 316.627 50.2098 325.174 52.3267 333.642C52.5264 334.401 53.6847 334.081 53.485 333.322C51.408 324.975 49.8903 316.507 49.0116 307.96C48.9317 307.201 47.7335 307.201 47.8134 307.96Z" fill="#D5D5D5"/>
<path d="M52.5664 334.043C60.4347 336.08 68.6226 336.08 76.4909 334.043C77.2498 333.843 76.9303 332.685 76.1714 332.884C68.5028 334.881 60.5545 334.881 52.8859 332.884C52.167 332.685 51.8474 333.843 52.5664 334.043Z" fill="#D5D5D5"/>
<path d="M77.4082 332.843C77.9274 324.336 78.6064 315.829 79.4052 307.321C79.4851 306.562 78.2869 306.562 78.207 307.321C77.4082 315.829 76.7292 324.336 76.21 332.843C76.17 333.602 77.3682 333.602 77.4082 332.843Z" fill="#D5D5D5"/>
<path d="M48.4906 308.599C58.4358 310.636 68.6606 310.556 78.6059 308.32C79.3647 308.16 79.0452 307.002 78.2864 307.162C68.5808 309.318 58.5556 309.438 48.8101 307.441C48.0512 307.281 47.7317 308.44 48.4906 308.599Z" fill="#D5D5D5"/>
<path d="M48.3722 311.476C48.6918 313.113 50.7687 313.033 52.0468 313.153C55.282 313.433 58.5571 313.513 61.7923 313.433C64.9077 313.353 68.0231 313.113 71.1385 312.754C73.6148 312.434 76.0112 312.115 78.2079 310.877C78.8869 310.517 78.2878 309.479 77.6088 309.838C73.6547 312.035 68.1828 311.955 63.7494 312.155C61.5527 312.235 59.316 312.275 57.1193 312.235C55.961 312.195 49.7702 312.474 49.5305 311.156C49.3708 310.397 48.2524 310.717 48.3722 311.476Z" fill="#D5D5D5"/>
<path d="M50.6478 325.335C52.5649 328.73 55.0013 331.726 57.917 334.322C58.4762 334.841 59.3549 334.002 58.7558 333.483C55.88 330.967 53.5235 328.051 51.6862 324.736C51.3268 324.057 50.2883 324.656 50.6478 325.335Z" fill="#D5D5D5"/>
<path d="M49.0898 316.109C53.1638 322.978 58.1164 329.289 63.788 334.961C64.3472 335.52 65.1859 334.641 64.6268 334.122C59.0351 328.53 54.1623 322.299 50.1283 315.51C49.7289 314.87 48.6904 315.47 49.0898 316.109Z" fill="#D5D5D5"/>
<path d="M55.7611 313.234C59.9948 320.783 64.9075 327.932 70.4592 334.602C70.9385 335.201 71.7773 334.362 71.298 333.763C65.8261 327.173 60.9533 320.104 56.7995 312.635C56.44 311.956 55.4016 312.555 55.7611 313.234Z" fill="#D5D5D5"/>
<path d="M63.3884 313.513C67.5023 319.664 71.6561 325.775 75.8499 331.886C76.2892 332.525 77.3277 331.926 76.8883 331.287C72.6946 325.176 68.5407 319.065 64.4268 312.914C63.9875 312.275 62.949 312.874 63.3884 313.513Z" fill="#D5D5D5"/>
<path d="M69.7803 313.154C71.8572 316.509 74.0938 319.784 76.4104 322.979C76.8497 323.578 77.8882 322.979 77.4489 322.38C75.1323 319.185 72.8956 315.909 70.8187 312.554C70.4193 311.915 69.3809 312.515 69.7803 313.154Z" fill="#D5D5D5"/>
<path d="M35.23 272.813C35.7092 275.569 36.1885 278.365 36.7078 281.121C36.8675 281.88 36.9873 282.679 37.6264 283.158C38.0657 283.517 39.5036 283.478 39.7832 283.877C39.8231 283.637 39.8631 283.398 39.8631 283.158C39.264 283.757 38.6649 284.356 38.0258 284.915C37.866 285.075 37.8261 285.315 37.866 285.515C38.2255 286.593 38.4652 288.191 39.1841 289.109C39.5436 289.589 40.1826 289.509 40.4622 289.788C40.7018 290.028 40.6219 289.868 40.5021 290.587C40.4222 291.186 40.4222 291.825 40.5021 292.464C40.6219 293.423 40.9015 294.341 41.261 295.22C43.3379 300.253 47.3719 304.327 51.2462 308.081C51.8054 308.6 52.6441 307.762 52.0849 307.242C49.6086 304.846 47.1323 302.37 45.0953 299.574C43.0983 296.818 40.7418 293.103 41.9799 289.589C42.0598 289.389 41.9799 289.109 41.8202 288.989C41.0613 288.39 40.3024 288.63 39.7832 287.671C38.7847 285.874 39.3438 285.275 40.622 284.037C40.8217 283.877 40.8616 283.517 40.7018 283.318C40.3823 282.838 40.1427 282.679 39.6234 282.519C39.3039 282.399 38.8246 282.519 38.5051 282.359C37.8261 282 37.8261 281.121 37.7063 280.482C37.227 277.846 36.7477 275.17 36.3083 272.534C36.2285 271.735 35.0702 272.054 35.23 272.813Z" fill="#D5D5D5"/>
<path d="M36.1103 272.654C51.6872 277.846 62.3513 292.384 62.6709 308.84C62.6709 309.599 63.8691 309.599 63.8691 308.84C63.5496 291.865 52.5259 276.887 36.4299 271.495C35.7109 271.256 35.3914 272.414 36.1103 272.654Z" fill="#D5D5D5"/>
<path d="M60.0345 292.464C63.9087 281.719 69.6202 271.335 78.7667 264.265C79.3658 263.786 78.7667 262.748 78.1675 263.227C68.7415 270.536 62.8703 281.08 58.8762 292.144C58.6366 292.863 59.7948 293.182 60.0345 292.464Z" fill="#D5D5D5"/>
<path d="M77.7285 264.026C78.0081 267.701 78.3276 271.375 78.6072 275.09C78.6871 275.849 79.8853 275.849 79.8054 275.09C79.5258 271.415 79.2063 267.741 78.9267 264.026C78.8868 263.267 77.6886 263.267 77.7285 264.026Z" fill="#D5D5D5"/>
<path d="M79.1265 274.689C78.6072 274.809 78.088 274.929 77.6087 275.089C76.8498 275.288 77.1694 276.447 77.9282 276.247C78.4475 276.127 78.9667 276.007 79.446 275.848C80.2048 275.648 79.8853 274.53 79.1265 274.689Z" fill="#D5D5D5"/>
<path d="M77.0086 276.168C77.1684 276.927 77.8075 277.406 78.5264 277.486C78.8459 277.526 79.1255 277.207 79.1255 276.887C79.1255 276.528 78.8459 276.328 78.5264 276.288C78.6462 276.288 78.5264 276.288 78.4865 276.288C78.4465 276.288 78.3666 276.248 78.4465 276.288C78.4066 276.248 78.3666 276.248 78.3267 276.208C78.2468 276.168 78.4066 276.288 78.2868 276.168C78.2468 276.128 78.2468 276.128 78.2069 276.088C78.2867 276.168 78.2069 276.088 78.2069 276.048C78.1669 276.008 78.1669 275.928 78.1669 276.008C78.1669 275.968 78.127 275.889 78.127 275.849C78.0471 275.529 77.6876 275.329 77.408 275.449C77.0885 275.529 76.9288 275.849 77.0086 276.168Z" fill="#D5D5D5"/>
<path d="M77.9267 277.047C77.9666 279.324 77.8867 281.56 77.6471 283.797C77.5672 284.516 77.687 286.193 77.2077 286.753C77.1678 286.793 76.4489 286.912 76.2891 287.032C75.69 287.511 76.5288 288.35 77.1279 287.871C77.3276 287.711 77.8069 287.871 78.1264 287.511C78.6057 287.032 78.5258 285.914 78.6057 285.355C78.9651 282.599 79.1249 279.803 79.085 277.007C79.1249 276.288 77.9267 276.288 77.9267 277.047Z" fill="#D5D5D5"/>
<path d="M75.8102 288.07C77.0883 289.588 76.7288 292.104 76.609 293.941C76.4492 296.058 76.0898 298.015 75.0513 299.853C73.5735 302.568 71.4966 304.845 70.4182 307.801C70.1386 308.52 71.2969 308.839 71.5765 308.12C73.0144 304.246 76.3294 301.37 77.3279 297.296C78.0469 294.381 78.7259 289.708 76.6489 287.231C76.1697 286.672 75.3309 287.511 75.8102 288.07Z" fill="#D5D5D5"/>
<path d="M66.3847 308.361C67.503 297.018 70.4986 285.955 75.2914 275.65C75.611 274.971 74.5725 274.332 74.253 275.051C69.3802 285.595 66.3048 296.818 65.1864 308.401C65.1066 309.16 66.3048 309.12 66.3847 308.361Z" fill="#D5D5D5"/>
<path d="M42.8189 279.324C49.8085 288.111 54.921 298.216 57.9165 309C58.1162 309.759 59.2745 309.44 59.0748 308.681C55.9994 297.657 50.7671 287.432 43.6576 278.485C43.1784 277.886 42.3396 278.725 42.8189 279.324Z" fill="#D5D5D5"/>
<path d="M43.5786 294.062C46.9336 293.862 50.049 294.661 52.8848 296.418C53.5238 296.818 54.1629 295.779 53.4839 295.38C50.4883 293.543 47.0934 292.664 43.5786 292.864C42.7798 292.904 42.7798 294.102 43.5786 294.062Z" fill="#D5D5D5"/>
<path d="M50.8876 288.709C50.648 286.512 50.9276 284.395 51.7664 282.319C52.0459 281.6 50.8877 281.28 50.6081 281.999C49.7294 284.156 49.4498 286.392 49.6894 288.709C49.7693 289.468 50.9675 289.468 50.8876 288.709Z" fill="#D5D5D5"/>
<path d="M63.8284 282.08C65.1464 285.315 67.0636 288.75 67.5429 292.185C67.6627 292.944 68.821 292.625 68.7012 291.866C68.1819 288.391 66.2648 284.956 64.9867 281.761C64.7071 281.042 63.5488 281.361 63.8284 282.08Z" fill="#D5D5D5"/>
<path d="M71.1769 285.874C72.3352 284.556 73.4536 282.998 74.9314 281.999C76.1695 281.161 77.5275 280.602 78.4861 279.443C78.9654 278.844 78.1266 278.005 77.6473 278.605C76.6089 279.843 75.0911 280.362 73.853 281.32C72.495 282.359 71.4565 283.757 70.3382 285.035C69.819 285.634 70.6577 286.473 71.1769 285.874Z" fill="#D5D5D5"/>
<path d="M71.578 307.962C73.4951 307.442 75.4522 307.243 77.4492 307.363C78.2081 307.402 78.2081 306.204 77.4492 306.164C75.3324 306.044 73.2954 306.244 71.2585 306.803C70.5395 307.003 70.8191 308.161 71.578 307.962Z" fill="#D5D5D5"/>
<path d="M71.4168 308.44C73.6535 308.64 75.8103 308.36 77.9671 307.681C78.686 307.441 78.3665 306.283 77.6476 306.523C75.6106 307.162 73.5337 307.401 71.4168 307.242C70.6579 307.202 70.6579 308.4 71.4168 308.44Z" fill="#D5D5D5"/>
<path d="M49.0096 308.241C49.5288 308.241 50.0081 308.241 50.5273 308.241C51.2862 308.241 51.2862 307.043 50.5273 307.043C50.0081 307.043 49.5288 307.043 49.0096 307.043C48.2507 307.043 48.2507 308.241 49.0096 308.241Z" fill="#D5D5D5"/>
<path d="M78.2869 317.907C90.9481 317.907 103.649 317.907 116.311 317.907C117.069 317.907 117.069 316.709 116.311 316.709C103.649 316.709 90.9481 316.709 78.2869 316.709C77.5281 316.709 77.5281 317.907 78.2869 317.907Z" fill="#D5D5D5"/>
<path d="M292.609 309.999C300.158 309.999 307.667 309.999 315.216 309.999C315.975 309.999 315.975 308.801 315.216 308.801C307.667 308.801 300.158 308.801 292.609 308.801C291.85 308.801 291.85 309.999 292.609 309.999Z" fill="#D5D5D5"/>
<path d="M361.147 310.718C393.699 310.718 426.251 310.718 458.802 310.718C468.069 310.718 477.335 310.718 486.601 310.718C487.36 310.718 487.36 309.52 486.601 309.52C454.049 309.52 421.498 309.52 388.946 309.52C379.68 309.52 370.414 309.52 361.147 309.52C360.388 309.52 360.388 310.718 361.147 310.718Z" fill="#D5D5D5"/>
<path d="M312.939 179.592C309.903 185.862 306.628 192.013 303.153 198.044C302.994 198.364 303.113 198.883 303.513 198.923C320.647 201.519 335.985 210.027 350.763 218.614C351.442 219.013 352.041 217.975 351.362 217.575C336.464 208.948 321.047 200.401 303.792 197.765C303.912 198.044 304.032 198.364 304.152 198.643C307.667 192.612 310.902 186.462 313.937 180.191C314.297 179.512 313.298 178.873 312.939 179.592Z" fill="#D5D5D5"/>
<path d="M315.575 201.359C316.773 197.924 317.971 194.449 319.169 191.014C319.688 189.576 320.048 187.978 320.727 186.581C320.887 185.742 321.406 185.103 322.205 184.623C322.684 184.743 323.163 184.863 323.643 184.983C324.361 185.183 325.08 185.342 325.759 185.542C327.397 185.942 330.033 185.942 329.753 188.138C329.554 189.696 328.635 191.373 328.116 192.891C326.918 196.286 325.759 199.681 324.561 203.076C324.322 203.795 325.48 204.115 325.719 203.396C327.277 198.922 328.835 194.409 330.393 189.936C330.752 188.897 331.751 187.14 330.952 186.021C330.073 184.823 327.437 184.743 326.079 184.384C324.761 184.064 322.444 182.866 321.086 183.505C319.928 184.024 319.688 186.021 319.329 187.02C317.691 191.693 316.054 196.406 314.416 201.079C314.177 201.758 315.335 202.078 315.575 201.359Z" fill="#D5D5D5"/>
<path d="M330.992 205.633C333.548 200.241 336.144 194.809 338.7 189.417C339.979 186.701 341.257 184.025 342.575 181.309C343.174 180.071 343.653 178.593 344.412 177.435C345.051 176.437 345.211 176.197 346.329 176.636C346.928 176.876 347.647 177.475 348.166 177.834C348.845 178.314 349.924 178.833 350.403 179.472C351.002 180.231 350.763 181.03 350.403 181.988C349.924 183.266 349.205 184.505 348.606 185.743C347.288 188.459 345.97 191.175 344.572 193.891C341.936 199.043 339.18 204.155 336.344 209.228C335.945 209.907 336.983 210.506 337.382 209.827C340.857 203.676 344.172 197.445 347.288 191.135C348.845 188.019 350.563 184.824 351.881 181.589C352.8 179.232 350.803 178.274 349.045 177.036C347.647 176.077 345.45 173.88 343.933 175.678C342.974 176.796 342.455 178.673 341.816 180.031C341.017 181.669 340.258 183.306 339.459 184.984C336.264 191.694 333.069 198.404 329.913 205.114C329.634 205.713 330.672 206.352 330.992 205.633Z" fill="#D5D5D5"/>
<path d="M344.252 213.942C347.687 208.55 351.561 203.437 355.835 198.724C355.595 198.764 355.356 198.804 355.116 198.804C356.634 199.843 358.112 200.841 359.629 201.88C359.55 201.6 359.47 201.32 359.43 201.041C356.035 206.353 352.64 211.625 349.245 216.937C348.845 217.576 349.844 218.175 350.283 217.536C353.678 212.224 357.073 206.952 360.468 201.64C360.668 201.36 360.508 201.001 360.268 200.801C358.751 199.763 357.273 198.764 355.755 197.726C355.555 197.566 355.196 197.646 355.036 197.806C350.683 202.638 346.729 207.791 343.254 213.263C342.814 214.022 343.853 214.621 344.252 213.942Z" fill="#D5D5D5"/>
<path d="M391.902 175.958C387.907 174.44 385.391 170.446 386.11 166.172C386.829 161.819 391.103 157.944 395.496 160.541C398.532 162.338 400.089 166.412 398.931 169.727C397.733 173.282 393.819 175.399 390.184 174.839C389.425 174.72 389.106 175.878 389.865 175.998C394.138 176.637 398.651 174.28 400.089 170.047C401.527 165.813 399.211 160.7 395.057 158.983C390.184 156.986 385.751 161.18 384.912 165.853C384.033 170.805 386.949 175.359 391.542 177.116C392.301 177.396 392.62 176.237 391.902 175.958Z" fill="#D5D5D5"/>
<path d="M400.09 175.198C392.141 174.958 395.137 162.217 402.167 162.696C409.196 163.216 406.32 177.554 398.612 174.918C397.893 174.679 397.573 175.837 398.292 176.077C407.199 179.112 411.193 162.896 402.686 161.538C398.532 160.859 394.778 164.773 394.139 168.648C393.499 172.482 396.096 176.236 400.09 176.356C400.848 176.436 400.848 175.238 400.09 175.198Z" fill="#D5D5D5"/>
<path d="M394.139 139.051C393.46 138.332 393.14 137.174 393.66 136.295C394.179 135.457 395.457 135.057 396.256 135.696C396.975 136.256 397.134 137.454 396.455 138.053C395.657 138.772 394.379 138.412 393.62 137.813C393.021 137.334 392.182 138.173 392.781 138.652C394.019 139.611 395.936 140.09 397.254 138.932C398.452 137.853 398.333 135.856 397.134 134.818C395.896 133.739 393.939 134.059 392.901 135.257C391.743 136.615 392.062 138.652 393.26 139.89C393.819 140.449 394.658 139.611 394.139 139.051Z" fill="#D5D5D5"/>
<path d="M278.231 169.127C277.112 162.338 281.066 154.15 288.735 154.23C292.649 154.27 296.443 155.867 300.398 155.308C303.193 154.909 305.59 153.311 307.267 151.114C308.945 148.917 309.903 146.162 310.063 143.406C310.263 139.332 308.705 135.178 309.824 131.144C310.383 129.107 311.581 127.23 313.618 126.471C315.575 125.792 317.692 126.191 319.729 126.111C322.684 125.992 325.001 124.713 326.479 122.117C328.556 118.483 328.076 114.129 329.514 110.295C331.232 105.662 336.065 101.708 341.177 103.984C341.856 104.304 342.495 103.265 341.776 102.946C334.826 99.8304 329.035 106.101 327.677 112.412C326.798 116.526 326.958 122.916 322.045 124.554C318.611 125.712 314.736 123.915 311.581 126.271C308.985 128.188 308.226 131.703 308.266 134.778C308.386 139.292 309.784 143.685 307.787 147.999C305.949 152.073 302.315 154.509 297.801 154.23C293.807 153.99 289.853 152.352 285.819 153.391C278.989 155.108 276.074 163.176 277.152 169.487C277.232 170.166 278.39 169.846 278.231 169.127Z" fill="#D5D5D5"/>
<path d="M328.716 140.65C327.238 137.295 329.275 134.1 332.51 133.022C334.867 132.223 337.463 132.183 339.5 130.585C341.098 129.347 341.617 127.789 341.417 125.792C341.217 123.915 341.217 122.437 342.695 121.159C343.933 120.081 345.571 119.681 347.169 119.601C351.562 119.442 357.593 121.678 360.788 117.405C362.266 115.408 361.827 112.931 362.506 110.695C363.424 107.579 366.42 105.662 369.615 105.822C370.374 105.862 370.374 104.664 369.615 104.624C367.179 104.504 364.822 105.423 363.145 107.18C361.068 109.377 361.347 111.853 360.708 114.609C358.991 122.158 348.487 116.846 343.534 119.202C341.697 120.081 340.219 121.638 340.059 123.715C339.859 126.152 340.978 128.149 338.501 129.826C337.183 130.705 335.666 130.985 334.148 131.344C331.632 131.943 329.155 132.702 327.877 135.138C326.839 137.056 326.839 139.252 327.717 141.209C327.997 141.968 328.996 141.329 328.716 140.65Z" fill="#D5D5D5"/>
<path d="M399.89 87.4481C399.73 87.0886 399.57 86.6892 399.45 86.2898C399.97 85.6907 400.449 85.0916 400.968 84.4925C401.128 84.4525 401.847 84.9318 402.086 84.9318C402.685 85.0117 403.205 84.8519 403.684 84.4925C405.162 83.3342 404.643 81.4969 405.082 79.9392C405.801 77.2632 408.956 79.1005 410.394 77.1034C411.832 75.1463 411.313 70.9925 415.147 72.1109C415.906 72.3106 416.225 71.1523 415.466 70.9526C413.27 70.3135 411.273 71.352 410.474 73.4688C410.234 74.0679 410.154 74.7469 409.915 75.3461C409.396 76.744 408.836 76.9437 407.319 77.0236C406.2 77.1034 405.322 77.0236 404.563 77.9821C403.924 78.8209 403.924 79.8993 403.804 80.8978C403.684 82.3756 403.804 83.6138 401.607 83.454C401.168 83.4141 400.808 83.0147 400.329 83.0147C397.693 82.9747 398.132 86.2099 398.771 87.7676C399.011 88.4865 400.209 88.167 399.89 87.4481Z" fill="#D5D5D5"/>
<path d="M407.399 90.7626C406.76 89.9239 405.682 87.4875 407.559 86.8484C408.238 86.6088 409.116 86.8884 409.835 86.8884C410.474 86.8884 411.034 86.8884 411.553 86.449C413.15 85.1709 411.992 82.8943 412.831 81.2967C414.189 78.7005 416.905 80.7375 418.822 79.3795C420.18 78.421 420.54 76.5837 420.779 75.0659C420.899 74.3071 419.741 73.9875 419.621 74.7464C419.341 76.5437 419.022 78.5408 416.785 78.7405C415.627 78.8603 414.748 78.4609 413.67 78.9801C411.912 79.8189 411.353 81.3766 411.313 83.1739C411.273 84.6916 411.633 85.4505 409.077 85.5703C408.757 85.5703 408.437 85.4904 408.118 85.4904C407.199 85.5703 406.4 86.0496 405.881 86.8085C404.763 88.4061 405.402 90.2434 406.52 91.6413C407.04 92.2404 407.878 91.3617 407.399 90.7626Z" fill="#D5D5D5"/>
<path d="M67.8229 112.412C71.138 108.418 75.851 105.143 81.283 105.702C87.1942 106.301 90.1099 111.014 90.6691 116.526C91.6276 125.672 89.3909 136.616 95.5818 144.404C98.0181 147.48 101.653 149.117 105.567 148.159C110.28 147.041 113.954 143.326 118.148 141.129C123.101 138.533 129.931 137.135 134.404 141.489C137.679 144.684 138.398 149.557 139.477 153.79C140.475 157.625 142.193 161.858 145.627 164.135C147.704 165.493 149.981 165.613 152.377 165.453C155.053 165.253 160.525 165.094 159.966 169.287C159.886 170.046 161.085 170.046 161.164 169.287C161.364 167.65 160.605 166.332 159.287 165.373C157.21 163.856 154.814 164.095 152.377 164.255C149.622 164.455 147.265 164.215 145.148 162.258C143.231 160.501 142.073 158.024 141.234 155.588C139.836 151.394 139.437 146.801 137.04 142.967C134.684 139.172 130.61 137.335 126.216 137.495C120.665 137.694 115.991 140.89 111.558 143.845C109.441 145.243 107.165 146.721 104.568 147.16C101.453 147.68 98.6971 146.322 96.7001 144.005C92.9457 139.612 92.3466 133.341 92.1469 127.829C91.9472 122.677 92.6261 117.085 90.9087 112.092C89.351 107.539 85.3969 104.703 80.6439 104.464C75.1321 104.184 70.2993 107.499 66.9043 111.573C66.465 112.172 67.3037 113.011 67.8229 112.412Z" fill="#D5D5D5"/>
<path d="M47.6523 174.04C53.8831 184.425 59.4348 195.169 64.3475 206.233C64.6671 206.952 65.7055 206.313 65.386 205.634C60.4733 194.57 54.8816 183.826 48.6908 173.441C48.2914 172.762 47.2529 173.361 47.6523 174.04Z" fill="#D5D5D5"/>
<path d="M48.4115 173.562C58.1171 167.531 68.1022 161.899 78.367 156.787C79.046 156.427 78.4469 155.389 77.7679 155.748C67.5431 160.861 57.5579 166.492 47.8124 172.523C47.1334 172.963 47.7325 174.001 48.4115 173.562Z" fill="#D5D5D5"/>
<path d="M77.6481 156.267C82.7206 166.932 88.0726 177.436 93.7442 187.781C94.1037 188.46 95.1422 187.86 94.7827 187.181C89.1111 176.837 83.7191 166.332 78.6866 155.668C78.3271 154.949 77.3286 155.548 77.6481 156.267Z" fill="#D5D5D5"/>
<path d="M65.7053 206.471C75.2512 200.72 84.6772 194.809 94.0233 188.738C94.6623 188.338 94.0632 187.3 93.4242 187.699C84.078 193.77 74.652 199.681 65.1062 205.433C64.4672 205.832 65.0663 206.871 65.7053 206.471Z" fill="#D5D5D5"/>
<path d="M64.9482 170.046C64.7086 177.714 65.1479 185.343 66.2663 192.932C66.3861 193.691 67.5444 193.371 67.4245 192.612C66.3062 185.143 65.9068 177.594 66.1464 170.046C66.1864 169.287 64.9881 169.287 64.9482 170.046Z" fill="#D5D5D5"/>
<path d="M64.9864 169.646C70.5381 173.999 76.0899 178.273 81.7215 182.507C82.3206 182.986 82.9198 181.948 82.3206 181.468C76.7689 177.315 71.2571 173.081 65.8251 168.807C65.226 168.328 64.3873 169.167 64.9864 169.646Z" fill="#D5D5D5"/>
<path d="M67.5035 193.172C72.0967 189.058 78.0878 186.861 82.4413 182.427C83.0005 181.868 82.1218 181.03 81.6026 181.589C77.249 185.982 71.2979 188.219 66.6647 192.333C66.0656 192.812 66.9443 193.651 67.5035 193.172Z" fill="#D5D5D5"/>
<path d="M49.2513 180.31C50.5294 179.671 51.8075 179.072 53.0856 178.433C53.7646 178.113 53.1655 177.075 52.4865 177.394C51.2084 178.033 49.9303 178.632 48.6522 179.272C47.9732 179.631 48.5723 180.629 49.2513 180.31Z" fill="#D5D5D5"/>
<path d="M53.3638 187.101C54.4421 186.382 55.6004 185.783 56.7986 185.264C57.5176 184.984 57.198 183.826 56.4791 184.106C55.1611 184.665 53.9229 185.304 52.7247 186.063C52.1256 186.502 52.7247 187.541 53.3638 187.101Z" fill="#D5D5D5"/>
<path d="M57.8773 194.93C58.9956 194.37 60.114 193.811 61.2323 193.292C61.9113 192.933 61.3122 191.934 60.6332 192.254C59.5149 192.813 58.3965 193.372 57.2782 193.891C56.5992 194.211 57.1983 195.249 57.8773 194.93Z" fill="#D5D5D5"/>
<path d="M60.1933 202.757C61.4315 201.678 62.7096 200.76 64.1474 199.961C64.8264 199.561 64.2273 198.563 63.5483 198.922C62.0705 199.761 60.6726 200.76 59.3545 201.918C58.7554 202.437 59.5942 203.276 60.1933 202.757Z" fill="#D5D5D5"/>
<path d="M79.9243 164.135C80.8429 163.496 81.8015 163.057 82.8799 162.777C83.6387 162.578 83.3192 161.459 82.5604 161.619C81.4021 161.899 80.2838 162.378 79.2852 163.097C78.6861 163.536 79.2853 164.575 79.9243 164.135Z" fill="#D5D5D5"/>
<path d="M83.4789 170.965C84.757 170.166 86.0351 169.367 87.2732 168.529C87.9123 168.129 87.3132 167.091 86.6741 167.49C85.396 168.289 84.1179 169.088 82.8797 169.927C82.2007 170.366 82.7999 171.405 83.4789 170.965Z" fill="#D5D5D5"/>
<path d="M87.5542 179.152C88.9121 178.553 90.31 177.954 91.668 177.355C92.3869 177.035 91.7479 175.997 91.0689 176.316C89.7109 176.915 88.313 177.514 86.955 178.114C86.2361 178.433 86.8752 179.472 87.5542 179.152Z" fill="#D5D5D5"/>
<path d="M90.4694 184.504C91.5478 183.465 92.746 182.587 94.0641 181.828C94.7431 181.468 94.144 180.43 93.465 180.789C92.0671 181.588 90.789 182.507 89.6307 183.625C89.0715 184.184 89.9103 185.023 90.4694 184.504Z" fill="#D5D5D5"/>
<path d="M69.1013 201.199C70.0998 202.677 70.9385 204.234 71.5776 205.872C71.8572 206.591 73.0155 206.271 72.7359 205.552C72.0569 203.795 71.2181 202.117 70.1397 200.56C69.7004 199.961 68.6619 200.56 69.1013 201.199Z" fill="#D5D5D5"/>
<path d="M75.2122 197.884C75.9711 199.242 76.69 200.56 77.4489 201.918C77.8084 202.597 78.8468 201.998 78.4874 201.319C77.7285 199.961 77.0096 198.643 76.2507 197.285C75.8912 196.606 74.8528 197.205 75.2122 197.884Z" fill="#D5D5D5"/>
<path d="M82.2816 192.812C83.0804 194.25 83.8792 195.688 84.678 197.125C85.0375 197.804 86.0759 197.205 85.7165 196.526C84.9176 195.088 84.1188 193.651 83.32 192.213C82.9606 191.534 81.9221 192.133 82.2816 192.812Z" fill="#D5D5D5"/>
<path d="M88.6316 189.017C89.2707 190.535 89.9097 192.052 90.5887 193.53C90.9082 194.249 91.9067 193.61 91.6272 192.931C90.9881 191.413 90.3491 189.896 89.6701 188.418C89.3506 187.739 88.3121 188.338 88.6316 189.017Z" fill="#D5D5D5"/>
<path d="M52.4053 167.409C53.1641 168.648 53.8831 169.886 54.6419 171.084C55.0414 171.763 56.0798 171.124 55.6804 170.485C54.9215 169.247 54.2026 168.009 53.4437 166.81C53.0443 166.171 52.0059 166.77 52.4053 167.409Z" fill="#D5D5D5"/>
<path d="M59.2751 163.416C59.994 165.013 60.7129 166.611 61.4319 168.209C61.7514 168.928 62.7898 168.289 62.4703 167.61C61.7514 166.012 61.0324 164.414 60.3135 162.817C59.954 162.098 58.9555 162.697 59.2751 163.416Z" fill="#D5D5D5"/>
<path d="M65.4655 159.581C66.5439 161.019 67.3827 162.577 67.9419 164.254C68.1815 164.973 69.3398 164.654 69.1002 163.935C68.501 162.137 67.6623 160.46 66.504 158.982C66.0646 158.383 65.0262 158.942 65.4655 159.581Z" fill="#D5D5D5"/>
<path d="M72.1374 156.505C72.9762 157.783 73.775 159.021 74.6137 160.3C75.0131 160.939 76.0516 160.339 75.6522 159.7C74.8134 158.422 74.0146 157.184 73.1759 155.906C72.7365 155.267 71.6981 155.866 72.1374 156.505Z" fill="#D5D5D5"/>
<path d="M134.244 77.3029C130.369 76.1047 130.17 71.9908 132.007 68.9153C133.804 65.9198 137.279 65.121 139.995 67.5973C142.232 69.6742 142.432 73.2289 140.355 75.5055C138.278 77.8221 134.883 77.7822 132.486 76.0248C131.887 75.5455 131.288 76.5839 131.887 77.0632C134.923 79.2999 139.356 78.9404 141.633 75.7851C143.989 72.5899 143.15 68.1165 139.835 65.9597C131.847 60.8074 124.977 75.6653 133.924 78.4612C134.683 78.7008 135.003 77.5425 134.244 77.3029Z" fill="#D5D5D5"/>
<path d="M140.674 78.343C137.678 79.2616 136.959 75.667 138.277 73.7498C139.356 72.1921 141.473 71.2735 143.39 71.7927C145.227 72.272 146.545 74.1492 146.066 76.0264C145.467 78.3829 142.99 79.2217 140.794 78.8622C140.035 78.7424 139.715 79.9007 140.474 80.0205C143.43 80.5397 146.625 79.2616 147.264 76.0664C147.823 73.3105 145.666 70.7942 142.99 70.4747C140.035 70.1152 136.8 72.272 136.4 75.3075C136.041 77.9436 138.437 80.3001 141.073 79.4613C141.752 79.2616 141.433 78.1033 140.674 78.343Z" fill="#D5D5D5"/>
<path d="M115.192 104.344C114.234 106.301 115.592 108.258 117.589 108.777C119.106 109.176 120.704 108.817 122.262 108.897C123.939 108.977 125.617 109.376 127.135 110.055C130.49 111.573 132.646 114.329 132.766 118.043C132.886 121.159 131.967 124.394 133.325 127.35C136.201 133.58 144.109 128.827 148.183 132.861C151.578 136.256 150.18 142.447 154.734 145.043C155.413 145.443 156.012 144.404 155.333 144.005C151.259 141.688 152.217 135.657 149.342 132.302C147.824 130.545 145.627 130.065 143.39 129.906C140.674 129.746 137.16 130.305 135.163 127.989C132.846 125.273 134.084 121.199 133.964 118.003C133.885 115.487 133.046 113.21 131.288 111.413C129.731 109.855 127.694 108.777 125.577 108.218C124.498 107.938 123.38 107.739 122.262 107.699C120.824 107.619 114.593 108.338 116.271 104.943C116.59 104.264 115.552 103.665 115.192 104.344Z" fill="#D5D5D5"/>
<path d="M21.811 319.944C29.0403 319.944 36.2296 319.944 43.4588 319.944C44.2177 319.944 44.2177 318.746 43.4588 318.746C36.2296 318.746 29.0403 318.746 21.811 318.746C21.0122 318.746 21.0122 319.944 21.811 319.944Z" fill="#D5D5D5"/>
<path d="M33.4741 347.022C47.3735 347.022 61.2329 347.022 75.1322 347.022C75.8911 347.022 75.8911 345.824 75.1322 345.824C61.2329 345.824 47.3735 345.824 33.4741 345.824C32.6753 345.824 32.6753 347.022 33.4741 347.022Z" fill="#D5D5D5"/>
<path d="M73.4536 339.515C86.3544 339.515 99.2952 339.515 112.196 339.515C112.955 339.515 112.955 338.316 112.196 338.316C99.2952 338.316 86.3544 338.316 73.4536 338.316C72.6548 338.316 72.6548 339.515 73.4536 339.515Z" fill="#D5D5D5"/>
<path d="M288.295 337.439C294.806 335.841 301.356 335.681 307.986 336.72C310.782 337.159 313.618 337.598 316.454 337.359C319.209 337.119 321.886 336.28 324.562 335.561C327.597 334.723 330.633 334.084 333.828 334.323C337.103 334.563 340.258 335.482 343.454 336.2C346.209 336.839 349.005 337.279 351.841 337.239C354.837 337.159 357.792 336.64 360.708 336.2C368.696 334.922 376.205 335.721 384.113 337.039C384.872 337.159 385.192 336.001 384.433 335.881C378.042 334.842 371.612 333.764 365.101 334.403C358.311 335.082 352.001 336.76 345.131 335.362C339.38 334.203 333.908 332.406 327.996 333.524C324.841 334.124 321.846 335.242 318.69 335.841C315.175 336.52 311.781 336.121 308.266 335.561C301.436 334.523 294.686 334.603 287.936 336.28C287.257 336.48 287.576 337.638 288.295 337.439Z" fill="#D5D5D5"/>
<path d="M349.645 325.295C362.186 324.616 374.727 323.937 387.269 323.298C393.459 322.978 399.451 323.098 405.601 323.937C408.357 324.296 410.993 324.376 413.749 324.057C416.825 323.697 420.02 323.218 422.896 324.696C423.575 325.055 424.174 324.017 423.495 323.657C418.622 321.181 412.991 323.497 407.758 323.018C404.643 322.739 401.607 322.139 398.492 321.98C395.257 321.82 392.022 321.9 388.786 322.06C375.726 322.659 362.665 323.457 349.605 324.136C348.886 324.136 348.886 325.335 349.645 325.295Z" fill="#D5D5D5"/>
<path d="M104.048 359.605C109.959 360.164 115.911 360.723 121.822 360.044C124.578 359.725 127.214 359.126 129.89 358.327C133.365 357.288 136.48 357.009 140.075 357.648C142.831 358.127 145.547 358.806 148.302 359.046C151.218 359.285 154.134 359.126 157.049 358.846C163.16 358.247 169.271 357.208 175.342 358.566C176.101 358.726 176.421 357.568 175.662 357.408C169.831 356.13 163.999 356.969 158.128 357.568C155.212 357.847 152.297 358.127 149.381 357.967C146.066 357.807 142.87 356.929 139.635 356.41C136.919 355.97 134.323 355.97 131.647 356.609C128.771 357.328 126.055 358.287 123.1 358.726C116.789 359.645 110.359 359.006 104.048 358.447C103.249 358.327 103.289 359.525 104.048 359.605Z" fill="#D5D5D5"/>
<path d="M167.235 37.323C165.677 36.2446 163.56 34.5271 164.199 32.3703C164.878 30.1336 166.556 31.212 168.113 30.6928C170.19 30.0138 170.07 27.4976 169.471 25.86C168.872 24.2624 167.594 20.3881 170.909 21.7062C171.668 22.0257 172.227 22.5449 173.106 22.2653C173.905 22.0257 174.304 21.3068 174.504 20.5479C174.664 19.8689 174.544 19.15 174.504 18.431C174.424 17.9517 174.384 17.4325 174.384 16.9532C174.224 15.7949 174.943 15.3157 176.461 15.5154C176.501 16.2742 177.699 16.2742 177.659 15.5154C177.579 14.397 176.741 13.5982 175.542 13.6382C174.144 13.6781 173.385 15.0361 173.226 16.3142C173.106 17.1929 173.825 19.2298 173.425 19.9488C172.946 20.2683 172.467 20.6278 171.948 20.9473C171.748 20.8275 171.548 20.7076 171.348 20.5878C170.989 20.468 170.709 20.2284 170.35 20.1485C169.112 19.8689 168.113 20.6278 167.674 21.7461C166.915 23.6633 168.273 25.2609 168.672 27.0582C169.192 29.5345 167.314 29.2549 165.677 29.5345C164.958 29.6544 164.359 30.0138 163.88 30.5331C161.363 33.4487 164.279 36.6839 166.675 38.3614C167.274 38.8008 167.874 37.7623 167.235 37.323Z" fill="#D5D5D5"/>
<path d="M175.104 36.2053C173.786 34.6876 172.787 32.6107 175.344 31.8119C175.983 31.6122 176.702 31.692 177.301 31.2926C178.619 30.374 178.06 29.1358 177.82 27.8577C177.7 27.1388 177.421 26.1802 177.86 25.4613C178.179 24.9421 179.338 24.7424 179.937 24.6225C180.776 24.4228 181.654 24.303 182.373 23.8237C183.452 23.0649 183.851 21.7069 183.132 20.5486C182.733 19.9095 181.694 20.5087 182.094 21.1477C183.292 23.0649 177.7 23.5841 176.742 24.982C175.623 26.6196 177.98 29.4953 176.023 30.5338C175.264 30.9332 174.305 30.6536 173.586 31.1728C173.067 31.5323 172.708 32.0915 172.548 32.6906C172.108 34.408 173.267 35.8858 174.305 37.084C174.784 37.6432 175.623 36.8045 175.104 36.2053Z" fill="#D5D5D5"/>
<path d="M127.934 26.7379C126.895 26.019 126.775 24.7409 127.095 23.6226C127.295 22.8637 128.253 20.7868 129.172 20.7069C130.689 20.5471 131.448 22.4643 131.848 23.5826C132.207 24.661 132.327 25.7394 132.367 26.8578C132.367 27.6166 133.565 27.6166 133.565 26.8578C133.525 24.6211 132.047 17.7513 128.373 19.7483C126.975 20.5072 125.937 22.7039 125.777 24.2217C125.617 25.6595 126.176 26.9376 127.334 27.7764C127.934 28.2157 128.533 27.1773 127.934 26.7379Z" fill="#D5D5D5"/>
<path d="M127.454 27.3784C126.016 27.7378 124.578 28.0973 123.1 28.4568C122.262 28.6565 120.824 28.7364 120.145 29.3754C118.986 30.4538 119.306 33.7689 119.306 35.1668C119.306 35.5662 119.705 35.8458 120.065 35.726C120.265 35.6861 120.464 35.6062 120.704 35.5662C121.742 35.0071 122.262 35.3665 122.302 36.5648C123.1 37.3636 123.1 37.8429 122.302 37.9227C121.822 38.1224 121.343 38.2023 120.824 38.2023C120.504 38.2423 120.225 38.442 120.225 38.8014C120.305 41.3576 120.504 43.8739 120.784 46.4301C120.864 47.189 122.062 47.189 121.982 46.4301C121.702 43.8739 121.503 41.3576 121.423 38.8014C121.223 39.0011 121.023 39.2008 120.824 39.4005C122.501 39.2008 125.177 38.5219 124.818 36.2452C124.418 33.8088 121.463 34.0884 119.785 34.5677C120.025 34.7674 120.305 34.9671 120.544 35.1269C120.544 34.2083 120.544 33.3296 120.624 32.4109C120.744 30.973 120.664 30.4538 121.982 29.9346C123.779 29.2157 125.896 28.976 127.773 28.4967C128.532 28.3769 128.213 27.2186 127.454 27.3784Z" fill="#D5D5D5"/>
<path d="M133.206 27.7379C134.883 27.658 136.601 27.658 138.278 27.8577C139.876 28.0574 139.796 28.297 140.036 29.6949C140.196 30.5736 140.236 31.4923 140.315 32.371C140.635 35.8059 140.875 39.2408 141.074 42.6757C141.114 43.4346 142.312 43.4346 142.273 42.6757C142.033 38.0026 141.873 33.2097 141.114 28.5766C140.915 27.4183 140.715 27.0589 139.517 26.8592C137.44 26.4597 135.283 26.4597 133.206 26.5796C132.447 26.5796 132.447 27.7778 133.206 27.7379Z" fill="#D5D5D5"/>
<path d="M121.664 47.2683C124.02 46.8689 126.377 46.4695 128.693 46.0701C131.369 45.6307 133.925 45.8304 136.601 45.6307C137.84 45.5109 143.711 44.9118 141.554 42.4754C141.035 41.9162 140.196 42.755 140.715 43.3142C141.035 43.6736 135.603 44.4725 135.483 44.4725C133.806 44.5124 132.128 44.4325 130.451 44.6322C127.415 44.9917 124.38 45.6307 121.344 46.15C120.585 46.2299 120.905 47.3881 121.664 47.2683Z" fill="#D5D5D5"/>
<path d="M319.828 258.199C319.7 262.674 319.572 267.148 319.444 271.665C325.112 272.049 330.737 272.39 336.405 272.773C336.405 268.171 336.405 263.569 336.405 258.966C330.865 258.711 325.368 258.455 319.828 258.199Z" fill="white" stroke="#161616" stroke-width="2" stroke-miterlimit="10"/>
<path d="M327.2 307.93C327.967 312.873 328.308 316.964 328.478 319.905C329.032 329.663 328.606 331.922 327.754 333.712C325.666 338.101 321.873 339.934 322.214 340.53C322.47 340.914 324.345 340.488 332.697 336.098C332.186 326.382 331.717 316.708 331.206 306.992C329.885 307.333 328.564 307.631 327.2 307.93Z" fill="white" stroke="#161616" stroke-width="2" stroke-miterlimit="10"/>
<path d="M316.163 276.609C323.408 276.652 330.652 276.737 337.897 276.78C337.087 286.496 336.32 296.17 335.51 305.886C329.203 305.374 322.854 304.906 316.547 304.394C316.376 295.147 316.248 285.899 316.163 276.609Z" fill="white" stroke="#161616" stroke-width="2" stroke-miterlimit="10"/>
<path d="M319.103 307.59C321.404 313.173 322.171 317.988 322.427 321.227C322.81 326 323.066 329.665 320.765 332.094C319.913 333.031 318.506 333.926 315.779 335.759C313.35 337.378 312.199 337.974 312.285 338.145C312.413 338.401 314.756 337.889 324.984 334.267C325.666 330.815 326.22 326.383 326.092 321.184C325.921 315.644 325.026 310.914 324.046 307.377C322.427 307.462 320.765 307.505 319.103 307.59Z" fill="white" stroke="#161616" stroke-width="2" stroke-miterlimit="10"/>
<path d="M322.811 340.914C324.089 339.849 325.282 338.699 326.433 337.463C327.754 336.014 329.714 333.798 331.76 335.716C331.802 335.375 331.845 335.034 331.888 334.693C328.862 336.184 325.879 337.676 322.853 339.125C322.257 339.423 322.555 340.318 323.194 340.318C326.049 340.36 327.839 335.375 330.78 336.312C331.547 336.568 331.888 335.332 331.121 335.076C329.842 334.693 328.862 335.034 327.797 335.801C326.561 336.696 324.814 339.039 323.237 339.039C323.365 339.423 323.45 339.849 323.578 340.233C326.603 338.741 329.586 337.25 332.612 335.801C332.996 335.63 333.038 335.076 332.74 334.778C331.589 333.713 329.544 333.329 328.095 334.011C327.03 334.48 326.348 335.716 325.581 336.525C324.43 337.761 323.237 338.869 321.958 339.977C321.276 340.531 322.171 341.468 322.811 340.914Z" fill="#161616"/>
<path d="M328.052 334.266C329.33 334.309 330.566 334.565 331.759 335.076C332.483 335.417 333.165 334.309 332.398 333.968C330.992 333.329 329.586 332.988 328.052 332.945C327.242 332.988 327.242 334.266 328.052 334.266Z" fill="#161616"/>
<path d="M321.064 332.775C322.044 333.03 322.896 333.542 323.578 334.309C324.132 334.906 325.027 334.011 324.473 333.414C323.621 332.519 322.555 331.88 321.362 331.582C320.638 331.326 320.297 332.562 321.064 332.775Z" fill="#161616"/>
<path d="M314.16 337.931C315.481 336.951 316.845 336.056 318.251 335.204C318.89 334.82 319.572 334.309 320.254 334.096C321.319 333.712 321.958 333.968 322.939 334.394C322.939 334.01 322.939 333.669 322.939 333.286C321.575 333.883 320.041 333.84 318.634 334.437C317.271 334.991 315.992 336.354 314.586 336.61C314.757 336.993 314.927 337.377 315.097 337.76C317.612 336.525 320.424 336.312 322.939 335.076C323.663 334.692 323.024 333.627 322.299 333.968C319.785 335.204 316.972 335.417 314.458 336.653C313.776 336.993 314.288 337.931 314.97 337.803C316.504 337.547 317.74 336.141 319.188 335.587C320.637 335.033 322.214 334.991 323.62 334.394C324.047 334.223 324.047 333.456 323.62 333.286C322.001 332.561 321.277 332.135 319.657 332.988C317.526 334.096 315.524 335.417 313.606 336.823C312.839 337.292 313.478 338.4 314.16 337.931Z" fill="#161616"/>
<path d="M321.446 314.109C322.512 313.725 323.577 313.768 324.557 314.279C325.282 314.663 325.921 313.555 325.196 313.171C323.918 312.49 322.469 312.362 321.105 312.873C320.338 313.171 320.679 314.407 321.446 314.109Z" fill="#161616"/>
<path d="M322.513 318.371C323.408 318.286 324.26 318.499 324.942 319.096C325.581 319.607 326.476 318.712 325.837 318.201C324.899 317.434 323.748 317.008 322.513 317.093C321.703 317.135 321.703 318.414 322.513 318.371Z" fill="#161616"/>
<path d="M322.982 323.698C323.791 323.613 324.558 323.911 325.027 324.593C325.453 325.275 326.561 324.636 326.135 323.954C325.496 322.889 324.26 322.25 323.024 322.42C322.683 322.463 322.385 322.676 322.385 323.059C322.342 323.357 322.641 323.741 322.982 323.698Z" fill="#161616"/>
<path d="M328.478 313.81C329.246 313.384 330.226 313.427 330.95 314.023C331.589 314.535 332.484 313.64 331.845 313.129C330.695 312.191 329.16 311.978 327.839 312.703C327.115 313.129 327.754 314.237 328.478 313.81Z" fill="#161616"/>
<path d="M329.203 321.867C329.885 321.568 330.652 321.696 331.206 322.208C331.802 322.762 332.74 321.867 332.101 321.313C331.12 320.418 329.757 320.205 328.521 320.801C327.797 321.1 328.478 322.208 329.203 321.867Z" fill="#161616"/>
<path d="M329.373 328.684C330.055 328.258 330.907 328.258 331.547 328.769C332.186 329.281 333.081 328.386 332.441 327.875C331.376 326.98 329.884 326.852 328.734 327.619C328.052 328.045 328.691 329.153 329.373 328.684Z" fill="#161616"/>
<path d="M338.919 276.736C338.067 286.538 337.215 296.339 336.362 306.141" stroke="#161616" stroke-width="6" stroke-miterlimit="10"/>
<path d="M316.418 304.777C323.535 305.289 330.651 305.758 337.768 306.269" stroke="#161616" stroke-width="6" stroke-miterlimit="10"/>
<path d="M337.811 258.584C337.64 263.442 337.427 268.258 337.257 273.116" stroke="#161616" stroke-width="6" stroke-miterlimit="10"/>
<path d="M338.706 282.489C342.669 281.765 346.888 284.876 347.186 288.967C347.612 294.081 341.774 294.975 337.939 294.421C337.129 294.294 336.788 295.529 337.598 295.657C342.285 296.339 348.891 295.018 348.465 288.967C348.124 283.981 343.138 280.358 338.365 281.253C337.555 281.381 337.896 282.617 338.706 282.489Z" fill="#161616"/>
<path d="M337.768 296.681C339.43 297.022 340.751 298.215 341.22 299.834C341.433 300.644 342.669 300.303 342.456 299.493C341.902 297.448 340.24 295.829 338.151 295.445C337.299 295.317 336.958 296.51 337.768 296.681Z" fill="#161616"/>
<path d="M337.129 296.255C338.152 297.746 338.621 299.408 338.45 301.241C338.407 302.051 339.686 302.051 339.729 301.241C339.856 299.238 339.345 297.278 338.194 295.616C337.768 294.934 336.66 295.573 337.129 296.255Z" fill="#161616"/>
<path d="M316.12 281.893C313.308 280.103 308.151 285.26 307.512 287.774C306.233 292.888 312.796 292.291 315.524 293.996C316.205 294.422 316.845 293.314 316.163 292.888C314.203 291.652 311.305 292.121 309.6 290.587C307.512 288.711 309.43 286.453 310.879 285.132C311.646 284.45 314.245 282.191 315.481 282.959C316.163 283.47 316.845 282.362 316.12 281.893Z" fill="#161616"/>
<path d="M315.438 293.4C314.33 293.826 313.307 294.465 312.455 295.36C311.816 296.042 311.006 297.107 311.645 298.044C312.114 298.726 313.222 298.087 312.753 297.405C312.455 296.979 313.563 296.042 313.861 295.786C314.415 295.275 315.055 294.891 315.779 294.635C316.546 294.337 316.248 293.101 315.438 293.4Z" fill="#161616"/>
<path d="M314.927 294.293C314.117 295.572 313.861 297.021 314.16 298.47C314.33 299.279 315.566 298.939 315.395 298.129C315.14 296.978 315.395 295.913 316.035 294.933C316.504 294.251 315.395 293.612 314.927 294.293Z" fill="#161616"/>
<path d="M318.975 281.084C318.762 284.195 318.805 287.348 319.018 290.459C319.103 291.269 320.381 291.269 320.296 290.459C320.04 287.348 320.04 284.195 320.254 281.084C320.339 280.274 319.06 280.274 318.975 281.084Z" fill="#161616"/>
<path d="M319.913 281.424C324.43 281.68 328.905 281.85 333.422 281.935C333.209 281.722 332.996 281.509 332.783 281.296C332.655 284.492 332.527 287.731 332.357 290.927C332.314 291.737 333.592 291.737 333.635 290.927C333.763 287.731 333.891 284.492 334.061 281.296C334.061 280.955 333.763 280.657 333.422 280.657C328.905 280.572 324.43 280.401 319.913 280.146C319.103 280.103 319.103 281.381 319.913 281.424Z" fill="#161616"/>
<path d="M319.402 291.012C321.277 291.524 323.365 291.396 325.24 291.524C327.541 291.652 329.885 291.822 332.186 291.95C332.996 291.993 332.996 290.714 332.186 290.671C330.141 290.544 328.095 290.416 326.05 290.288C324.004 290.16 321.703 290.288 319.7 289.777C318.976 289.563 318.635 290.799 319.402 291.012Z" fill="#161616"/>
<path d="M320.851 297.619C321.618 299.281 323.28 297.832 324.558 298.429C325.155 298.684 325.027 299.068 325.837 299.11C326.774 299.153 329.075 297.278 329.544 299.025C329.672 299.494 330.269 299.622 330.61 299.324C331.036 299.196 331.504 299.068 331.931 298.983C332.442 299.622 333.38 298.684 332.826 298.088C331.845 296.937 330.61 297.576 329.672 298.429C330.013 298.514 330.396 298.599 330.737 298.727C330.354 297.235 328.777 296.255 327.286 296.937C326.561 297.278 326.476 297.917 325.368 297.491C325.155 297.406 325.07 297.065 324.856 296.98C324.388 296.809 321.916 297.065 321.916 297.022C321.618 296.212 320.51 296.852 320.851 297.619Z" fill="#161616"/>
<path d="M323.109 264.08C323.195 263.611 323.749 263.483 324.132 263.654C324.686 263.867 324.984 264.506 325.24 264.975C325.581 265.699 326.689 265.06 326.348 264.335C325.879 263.398 325.155 262.418 324.004 262.29C323.067 262.205 322.087 262.759 321.916 263.696C321.703 264.548 322.939 264.889 323.109 264.08Z" fill="#161616"/>
<path d="M330.95 264.676C331.035 264.25 331.419 263.994 331.845 264.164C332.356 264.335 332.57 264.974 332.655 265.443C332.783 266.253 334.018 265.912 333.891 265.102C333.72 264.079 333.038 263.014 331.93 262.843C330.95 262.715 329.885 263.312 329.714 264.335C329.586 265.145 330.822 265.485 330.95 264.676Z" fill="#161616"/>
<path d="M323.748 266.765C325.197 269.321 328.649 269.705 330.524 267.404C331.036 266.765 330.141 265.87 329.629 266.509C328.266 268.171 325.922 268.043 324.856 266.125C324.473 265.401 323.365 266.04 323.748 266.765Z" fill="#161616"/>
<path d="M286.594 82.9063C282.656 81.3126 280.281 77.5001 278.844 73.6876C277.312 69.7188 276.656 65.4063 276.875 61.1563C277.25 53.3125 280.594 45.375 286.781 40.375C292.625 35.625 301.281 34.2813 307.781 38.5938C314.562 43.0938 315.781 52.375 315.844 59.8438C315.906 68.1563 313.969 76.8751 307.812 82.8438C307.375 83.2501 308.031 83.9376 308.469 83.5001C314.312 77.8126 316.531 69.6876 316.75 61.75C316.969 53.9688 316.031 44.125 309.625 38.7813C303.625 33.7813 294.719 34.0313 288.312 38.0938C281.219 42.5938 277.031 50.75 276.125 58.9688C275.562 64.0625 276.187 69.3438 278.062 74.1563C279.656 78.2188 282.187 82.0938 286.375 83.7813C286.906 84.0313 287.125 83.1251 286.594 82.9063Z" fill="#161616"/>
<path d="M286.156 83.4993C285.094 84.9993 285.313 87.2181 286.875 88.3431C288.063 89.1868 289.813 89.3118 291.219 89.4993C292.906 89.7493 294.625 89.8431 296.344 89.8431C299.406 89.8118 302.906 89.5931 305.75 88.4056C307.813 87.5306 309.375 85.4681 308.281 83.2493C308.031 82.7181 307.219 83.1868 307.469 83.7181C309.813 88.4993 298.719 88.9056 296.313 88.9056C294.094 88.9056 291.875 88.7181 289.719 88.3118C288.688 88.1243 287.531 87.9368 286.875 87.0306C286.219 86.0931 286.344 84.8743 286.969 83.9993C287.313 83.4681 286.5 82.9993 286.156 83.4993Z" fill="#161616"/>
<path d="M287.156 88.5622C287.156 90.1246 287.187 91.7184 287.375 93.2809C287.469 93.9996 287.625 94.6246 288.219 95.0621C289.062 95.6871 290.469 95.6559 291.469 95.7496C293.156 95.8746 294.875 95.8746 296.562 95.8121C298.156 95.7496 299.75 95.6246 301.344 95.4684C302.281 95.3746 303.344 95.4059 304.062 94.6871C305.656 93.1246 305.687 90.1559 305.281 88.1872C305.156 87.5934 304.25 87.8434 304.375 88.4372C304.594 89.4996 304.656 90.5621 304.437 91.6559C304.125 93.1871 303.687 94.1871 301.969 94.4996C299.969 94.8746 297.719 94.8746 295.687 94.9059C293.687 94.9371 291.437 95.0309 289.469 94.5621C287.656 94.1246 288.125 90.0621 288.125 88.5622C288.094 87.9684 287.156 87.9684 287.156 88.5622Z" fill="#161616"/>
<path d="M287.469 54.9073C291.219 57.251 294.063 60.6885 295.656 64.8135C295.875 65.376 296.781 65.126 296.563 64.5635C294.875 60.1885 291.906 56.5635 287.969 54.0948C287.438 53.751 286.969 54.5635 287.469 54.9073Z" fill="#161616"/>
<path d="M296.407 64.8129C298.25 60.9379 300.938 57.6254 304.375 55.0629C304.844 54.7191 304.375 53.8754 303.907 54.2504C300.344 56.9066 297.532 60.3441 295.594 64.3441C295.344 64.8754 296.157 65.3441 296.407 64.8129Z" fill="#161616"/>
<path d="M295.656 63.7188C296.125 70.1563 296.344 76.5938 296.25 83.0313C296.25 83.625 297.187 83.625 297.187 83.0313C297.281 76.5938 297.062 70.125 296.594 63.7188C296.531 63.0937 295.594 63.0937 295.656 63.7188Z" fill="#161616"/>
<path d="M259.062 79.4687C263.218 78.0625 267.343 76.6562 271.5 75.25C272.062 75.0625 271.812 74.1563 271.25 74.3438C267.093 75.75 262.968 77.1562 258.812 78.5625C258.218 78.75 258.468 79.6562 259.062 79.4687Z" fill="#161616"/>
<path d="M263.812 73.2192C265.25 72.813 266.687 72.3755 268.125 71.9692C268.687 71.813 268.469 70.9067 267.875 71.063C266.437 71.4692 265 71.9067 263.562 72.313C263 72.5005 263.219 73.4067 263.812 73.2192Z" fill="#161616"/>
<path d="M253.406 62.8132C258.906 62.7507 264.375 62.907 269.844 63.2507C270.438 63.282 270.438 62.3445 269.844 62.3132C264.375 61.9695 258.875 61.8445 253.406 61.8757C252.812 61.8757 252.812 62.8132 253.406 62.8132Z" fill="#161616"/>
<path d="M265.031 58.5629C266.343 58.9067 267.687 59.0629 269.031 59.0942C269.625 59.0942 269.625 58.1567 269.031 58.1567C267.75 58.1255 266.5 57.9692 265.281 57.6567C264.687 57.5005 264.437 58.4067 265.031 58.5629Z" fill="#161616"/>
<path d="M263 29.4696C267.906 33.6884 272.375 38.3134 276.406 43.3759C276.781 43.8446 277.437 43.1884 277.062 42.7196C273.031 37.6571 268.562 33.0009 263.656 28.8134C263.219 28.4071 262.531 29.0634 263 29.4696Z" fill="#161616"/>
<path d="M276.719 38.3435C277.562 39.2185 278.375 40.0935 279.219 40.9997C279.625 41.4372 280.281 40.781 279.875 40.3435C279.031 39.4685 278.219 38.5935 277.375 37.6872C276.969 37.2497 276.312 37.906 276.719 38.3435Z" fill="#161616"/>
<path d="M257.688 40.0937C259.219 41 260.782 41.8437 262.375 42.625C262.907 42.9062 263.375 42.0937 262.844 41.8125C261.25 41 259.688 40.1562 258.157 39.2812C257.625 38.9687 257.157 39.7812 257.688 40.0937Z" fill="#161616"/>
<path d="M312.062 32.9685C316.687 28.3435 321.312 23.7185 325.937 19.0935C326.375 18.656 325.687 17.9997 325.281 18.4372C320.656 23.0622 316.031 27.6872 311.406 32.3122C310.969 32.7497 311.625 33.406 312.062 32.9685Z" fill="#161616"/>
<path d="M316.719 35.1241C317.906 34.2491 319.094 33.4053 320.281 32.5303C320.75 32.1866 320.313 31.3741 319.813 31.7178C318.625 32.5928 317.437 33.4366 316.25 34.3116C315.75 34.6553 316.219 35.4678 316.719 35.1241Z" fill="#161616"/>
<path d="M297.625 26.8438C298.563 22.3125 299.281 17.75 299.719 13.1563C299.781 12.5625 298.844 12.5625 298.781 13.1563C298.344 17.6563 297.656 22.1563 296.719 26.5938C296.594 27.1875 297.5 27.4375 297.625 26.8438Z" fill="#161616"/>
<path d="M323.906 55.5948C332.406 54.8135 340.875 54.0323 349.375 53.251C349.969 53.1885 349.969 52.251 349.375 52.3135C340.875 53.0948 332.406 53.876 323.906 54.6573C323.313 54.6885 323.281 55.626 323.906 55.5948Z" fill="#161616"/>
<path d="M288.187 84.6251C293.468 85.7813 298.843 85.7501 304.093 84.5626C304.687 84.4376 304.437 83.5313 303.843 83.6563C298.75 84.8126 293.531 84.8438 288.437 83.7188C287.843 83.5938 287.593 84.5001 288.187 84.6251Z" fill="#161616"/>
<path d="M288.969 92.5636C293 93.0948 297.031 93.2198 301.094 92.9386C301.688 92.9073 301.688 91.9698 301.094 92.001C297.031 92.2823 293 92.1573 288.969 91.626C288.375 91.5635 288.375 92.5011 288.969 92.5636Z" fill="#161616"/>
<path d="M318 81.4698C324.344 85.9385 330.812 90.2511 337.375 94.4073C337.875 94.7198 338.344 93.9073 337.844 93.5948C331.281 89.4386 324.812 85.126 318.469 80.6573C317.969 80.3135 317.5 81.126 318 81.4698Z" fill="#161616"/>
<path d="M238.156 301.281C232.219 308.562 226.313 315.813 220.375 323.094C227.344 347.594 231.281 354.031 233.625 353.688C235.312 353.438 236.125 349.781 237.031 345.687C239.281 335.469 237.938 326.688 236.563 321.219C240.313 317.031 244.031 312.812 247.781 308.625C244.563 306.187 241.375 303.75 238.156 301.281Z" fill="#161616" stroke="#161616" stroke-width="2" stroke-miterlimit="10"/>
<path d="M216.25 263.782C219.969 266.657 223.531 265.625 230.906 266.875C237.187 267.938 244.25 270.282 251.75 274.969C243.75 284.344 235.75 294.25 227.812 304.688C225.906 307.219 224 309.75 222.156 312.282C225.219 313 228.906 314.125 232.906 315.938C236.812 317.688 240 319.657 242.531 321.438C254.437 311.063 265.062 301.032 274.531 291.563C278.906 287.188 285.094 280.5 286.062 271.032C286.125 270.5 286.125 270.032 286.125 269.563C285.906 253.844 266.125 242.469 254.094 238.282C240.937 233.719 218.312 231.25 212 242.157C208.281 248.594 210.469 259.313 216.25 263.782Z" fill="#113255"/>
<path opacity="0.26" d="M239.344 248.062C239.125 251.031 238.594 254.562 237.5 258.469C236.719 261.25 235.781 263.719 234.844 265.812C233.812 266.219 232.813 266.625 231.781 267.031C238.5 269.688 245.25 272.344 251.969 275C246.969 280.719 241.937 286.719 236.875 292.969C231.656 299.406 226.687 305.719 221.969 311.938C225.312 313.031 228.625 314.125 231.969 315.188C243.937 302 255.906 288.781 267.875 275.594C269.125 272 269.062 269.188 268.687 267.219C266.969 257.594 255.187 249.75 239.344 248.062Z" fill="#6D6C6C" fill-opacity="0.3"/>
<path opacity="0.23" d="M251.906 274.938C253 276.594 254.063 278.281 255.156 279.937C245.844 291.156 236.531 302.344 227.219 313.562C225.562 313.125 223.875 312.656 222.219 312.219C228.188 304.031 234.625 295.625 241.594 287.156C245.062 282.937 248.5 278.875 251.906 274.938Z" fill="#6D6C6C"/>
<path d="M220.813 289.406C230.031 291.094 239.281 292.75 248.5 294.438C259.156 317.688 260.344 325.188 258.344 326.469C256.906 327.375 253.906 325.125 250.563 322.594C242.188 316.25 237.531 308.688 235 303.594C229.438 302.844 223.875 302.063 218.312 301.313C219.125 297.344 219.969 293.375 220.813 289.406Z" fill="#161616" stroke="#161616" stroke-width="2" stroke-miterlimit="10"/>
<path d="M201.812 237.625C185 242.562 174.75 252.812 168.156 259.562C159.25 268.719 148.312 279.937 151.468 288.219C153.093 292.437 158.031 295.031 181.031 299.031C198.406 302.062 213.468 303.687 225.218 304.594C226.687 299.219 228.156 293.875 229.593 288.5C217.781 284.687 206 280.906 194.187 277.094C201.437 275.562 209.062 273.75 217 271.531C223.031 269.844 228.781 268.094 234.25 266.25C239.312 256.031 240.406 245 235.125 238.75C227.75 230 211.218 234.844 201.812 237.625Z" fill="#113255"/>
<path opacity="0.29" d="M239.218 248.438C239.062 251.531 238.531 255.5 237.093 259.875C236.218 262.531 235.218 264.844 234.218 266.75C233.374 266.812 232.531 266.906 231.687 266.969C224.562 269.312 216.968 271.531 208.937 273.594C203.749 274.937 198.687 276.094 193.781 277.156C205.624 280.875 217.468 284.562 229.312 288.281C229.062 289.562 228.749 290.906 228.374 292.312C227.937 293.937 227.437 295.437 226.968 296.812C210.624 292.781 194.281 288.75 177.937 284.719C177.187 283.812 174.718 280.531 175.093 276.187C175.499 271.469 179.999 268.125 185.749 265.062C202.374 256.25 230.249 250.281 239.218 248.438Z" fill="#6D6C6C" fill-opacity="0.3"/>
<path opacity="0.24" d="M185.375 277.813C188.344 277.594 191.344 277.375 194.312 277.125C205.969 281 217.625 284.906 229.281 288.781C228.781 290.625 228.281 292.5 227.781 294.344C213.656 288.813 199.5 283.313 185.375 277.813Z" fill="#6D6C6C"/>
<path d="M197.406 166.812C202.031 164.093 210.063 160.218 220.75 159.093C237.125 157.374 249.688 163.249 254.656 165.905C253.75 178.187 252.344 187.999 251.219 194.749C249.875 202.812 248.781 207.28 248.281 214.687C247.656 223.968 248.438 231.593 249.156 236.593C243.719 238.28 235.5 240.124 225.375 239.905C215.625 239.687 207.75 237.562 202.469 235.718C203.875 224.53 203.406 215.655 202.719 209.624C201.938 202.905 200.875 199.624 199.594 191.499C197.938 180.999 197.5 172.405 197.406 166.812Z" fill="#F6515B"/>
<path opacity="0.14" d="M231.219 162.813C231.875 165.188 232.625 168.469 233.125 172.406C233.469 175.063 234.875 187.094 230.5 202.969C227.812 212.75 224.969 223.094 215.656 231.594C212.656 234.344 209.75 236.187 207.625 237.344C212.344 238.562 218.5 239.719 225.781 239.781C235.312 239.875 243.188 238.156 248.656 236.469C248.344 234.125 247.938 230.594 247.781 226.344C247.656 222.625 247.656 216.687 250.219 199.969C252.25 186.812 253.687 181.156 254.406 169.25C254.5 167.875 254.531 166.719 254.594 165.938C252.312 164.594 249.344 163.125 245.688 161.938C242.312 160.844 239.281 160.281 236.781 160.031C234.969 160.937 233.094 161.875 231.219 162.813Z" fill="#6D6C6C"/>
<path opacity="0.17" d="M253.687 171.031C251.937 180.938 249.625 188.938 247.812 194.5C242.5 210.75 238.781 221.688 228.75 229.688C222.531 234.656 216.062 236.75 211.906 237.75C216.125 238.938 222.094 240.094 229.312 239.938C237.625 239.75 244.344 237.875 248.75 236.281C248.156 232.469 247.469 226.75 247.656 219.781C247.875 210.75 249.344 205.313 250.969 195.406C251.875 189.594 253.031 181.281 253.687 171.031Z" fill="#6D6C6C"/>
<path d="M197.219 166.656C193.156 169.469 187.938 173.906 183.375 180.5C173.094 195.438 173.375 211.281 173.781 217.125C175.656 222.156 178.875 228.75 184.5 235.219C187.781 239 192.594 244.438 200.813 247.938C203.563 249.125 205.969 249.781 207.719 250.156C209.219 248.813 210.688 247.469 212.188 246.125C207.375 240.5 202.531 234.594 197.688 228.5C193.969 223.844 190.406 219.219 186.969 214.656C187.094 210.813 187.906 203.844 192.094 196.563C194.469 192.438 197.25 189.438 199.469 187.406C198.719 180.5 197.969 173.594 197.219 166.656Z" fill="#D7AF7D"/>
<path opacity="0.13" d="M197.812 173.625C188.812 183.781 184.531 193.406 182.406 199.469C178.687 209.969 179.468 215.469 180.031 218.094C180.5 220.156 181.531 223.688 185.312 229.063C188.593 233.719 195.5 242.063 208.656 248.938C209.812 247.813 210.968 246.719 212.125 245.594C208.406 241.406 204.656 237 200.875 232.406C195.906 226.375 191.281 220.438 187 214.625C187.125 211.469 187.656 207.063 189.5 202.125C192.281 194.719 196.656 189.844 199.375 187.25C198.812 182.719 198.312 178.188 197.812 173.625Z" fill="#6D6C6C"/>
<path opacity="0.16" d="M186.969 215.031C187.531 218.688 188.687 223.344 191.125 228.375C196.5 239.313 204.906 245.344 209.188 247.969C210.031 247.219 210.844 246.5 211.688 245.75C203.438 235.5 195.219 225.25 186.969 215.031Z" fill="#6D6C6C"/>
<path d="M255.125 166.094C259.688 168.875 265.563 173.219 270.656 179.688C282.219 194.344 281.875 209.906 281.438 215.656C279.313 220.594 275.719 227.063 269.406 233.438C265.719 237.125 260.313 242.469 251.094 245.938C248 247.094 245.281 247.75 243.313 248.125C241.656 246.813 239.969 245.5 238.312 244.188C243.688 238.656 249.156 232.875 254.594 226.875C258.75 222.281 262.75 217.75 266.625 213.281C266.469 209.531 265.594 202.688 260.875 195.5C258.188 191.438 255.094 188.5 252.594 186.5C253.469 179.688 254.313 172.906 255.125 166.094Z" fill="#D7AF7D"/>
<path opacity="0.16" d="M254.906 173.688C258.875 177.844 264.281 184.5 268.5 193.781C270.5 198.188 273.75 205.344 273.812 212.094C274.031 232.625 244.969 246.75 243.281 247.563C241.625 246.5 240 245.469 238.344 244.406C247.75 234.094 257.125 223.781 266.531 213.469C266.344 210.094 265.562 203.813 261.812 197.125C258.719 191.625 254.875 188.063 252.344 186.094C253.219 181.969 254.062 177.844 254.906 173.688Z" fill="#6D6C6C"/>
<path opacity="0.12" d="M266.844 213.562C266.375 216.281 265.594 219.25 264.375 222.313C258.875 236.188 247.75 243.781 242.125 247.031C240.781 246.156 239.469 245.281 238.125 244.406C247.688 234.125 257.25 223.844 266.844 213.562Z" fill="#6D6C6C"/>
<path d="M261.313 215.875H186.469C185.916 215.875 185.469 216.323 185.469 216.875V263.531C185.469 264.084 185.916 264.531 186.469 264.531H261.313C261.865 264.531 262.313 264.084 262.313 263.531V216.875C262.313 216.323 261.865 215.875 261.313 215.875Z" fill="white" stroke="#D5D5D5" stroke-width="2" stroke-miterlimit="10"/>
<path d="M222.781 244.844C218.718 245.344 216.75 240.407 217.812 237.125C218.843 233.876 222.687 232.344 225.812 233.469C228.906 234.594 230.406 238.376 229.312 241.407C228.093 244.782 223.843 246.157 220.718 244.657C220.187 244.407 219.687 245.219 220.25 245.469C223.031 246.813 226.437 246.313 228.656 244.125C230.812 241.969 231.125 238.563 229.781 235.907C226.718 229.844 217.25 231.782 216.593 238.438C216.25 242 218.812 246.282 222.781 245.813C223.375 245.719 223.375 244.782 222.781 244.844Z" fill="#161616"/>
<path opacity="0.14" d="M214.312 215.75C224.719 219.375 231.812 228.656 232.031 238.625C232.312 251.125 221.812 262.875 207.5 264.063C225.719 264.219 243.937 264.375 262.187 264.531C262.125 248.219 262.094 231.906 262.031 215.625C246.125 215.625 230.219 215.688 214.312 215.75Z" fill="#6D6C6C"/>
<path opacity="0.26" d="M262.187 215.594C261.906 225.531 259.937 233.281 258.281 238.375C255.844 245.781 254.094 251.188 249.062 255.969C242.219 262.531 233.687 263.75 229.938 264.063C240.594 264.156 251.25 264.25 261.906 264.375C261.937 255.094 262 245.813 262.062 236.5C262.062 229.531 262.125 222.563 262.187 215.594Z" fill="#6D6C6C"/>
<path d="M221.625 141.595C219.906 143.688 221.563 146.251 221.25 153.095C221.094 156.501 220.531 159.251 220.094 161.095C221.562 161.782 224.156 162.751 227.5 162.845C231.625 162.938 234.75 161.657 236.281 160.907C235.594 159.532 234.688 157.407 234.125 154.657C232.719 147.657 235.219 144.376 233.156 141.782C230.75 138.782 223.938 138.751 221.625 141.595Z" fill="white" stroke="#161616" stroke-width="2" stroke-miterlimit="10"/>
<path d="M210.718 111.532C208.75 116.594 209.5 121.157 209.937 123.126C209.75 123.157 206.093 123.938 205.093 126.751C204.093 129.594 206.156 133.626 210.468 134.938C212.031 138.751 215.812 146.126 223.781 150.157C225.125 150.813 226.406 151.344 227.687 151.719C228.843 151.282 230.406 150.594 232.187 149.563C237.75 146.344 240.843 142.344 241.562 141.376C242.875 139.626 244.656 136.813 245.906 132.938C246.593 133.063 247.812 133.126 249 132.532C251.687 131.157 253.031 126.876 251.156 124.094C249.593 121.782 246.562 121.688 246.187 121.688C246.593 120.063 247.843 114.219 244.687 108.438C241.062 101.782 233.281 98.2818 225.968 99.2818C215.156 100.688 210.906 111.032 210.718 111.532Z" fill="#D7AF7D"/>
<path d="M221.219 149.875C223.125 151 225.219 152.75 227.562 152.563C229.5 152.406 231.656 151.281 233.125 150.094C233.593 149.719 232.937 149.062 232.469 149.437C231.094 150.531 228.875 151.688 227.062 151.656C225.156 151.625 223.219 150.031 221.656 149.062C221.187 148.75 220.719 149.562 221.219 149.875Z" fill="#161616"/>
<path d="M221.094 150.281C222.875 151.812 224.906 153.531 227.406 153.406C229.844 153.281 232.125 151.656 233.719 149.906C234.125 149.468 233.469 148.812 233.062 149.25C231.687 150.75 229.75 152.218 227.625 152.437C225.281 152.656 223.406 151.062 221.75 149.625C221.312 149.218 220.656 149.875 221.094 150.281Z" fill="#161616"/>
<path d="M222.281 150.468C222.281 150.437 222.281 150.437 222.281 150.468C222.094 150.187 221.75 150.124 221.531 150.343C221.531 150.343 221.531 150.343 221.5 150.374C221.313 150.531 221.313 150.874 221.5 151.031C224.937 154.312 231.25 155.375 233.719 150.343C233.969 149.812 233.187 149.312 232.906 149.874C230.719 154.375 225.187 153.281 222.188 150.374C222.188 150.593 222.188 150.812 222.188 151.031C222.188 151.031 222.187 151.031 222.219 151C221.969 150.968 221.719 150.937 221.469 150.906V150.937C221.781 151.437 222.594 150.968 222.281 150.468Z" fill="#161616"/>
<path d="M226.031 121.563C225.625 126.625 225.844 131.656 226.656 136.656C226.687 136.906 227 137.063 227.219 136.969C228.437 136.563 229.312 135.844 229.969 134.75C230.281 134.219 229.469 133.75 229.156 134.281C228.625 135.188 227.969 135.719 226.969 136.063C227.156 136.156 227.344 136.281 227.531 136.375C226.719 131.469 226.531 126.5 226.937 121.531C227.031 120.938 226.094 120.938 226.031 121.563Z" fill="#161616"/>
<path d="M220.468 126.531C220.531 126.813 221 128.563 220.468 128.844C219.937 129.125 218.437 128 217.969 126.531C217.594 125.281 217.906 123.719 218.5 123.594C219.125 123.438 220.093 125.156 220.468 126.531Z" fill="#161616" stroke="#161616" stroke-miterlimit="10"/>
<path d="M236.593 126.531C236.656 126.813 237.125 128.563 236.593 128.844C236.062 129.125 234.562 128 234.094 126.531C233.719 125.281 234.031 123.719 234.625 123.594C235.25 123.438 236.218 125.156 236.593 126.531Z" fill="#161616" stroke="#161616" stroke-miterlimit="10"/>
<path d="M224.906 140.782C228.719 142.407 232.187 140.126 235 137.657C235.469 137.251 234.781 136.595 234.344 137.001C231.906 139.126 228.781 141.407 225.406 139.97C224.812 139.751 224.344 140.563 224.906 140.782Z" fill="#161616"/>
<path d="M235.906 131.5C236.5 131.5 236.5 130.562 235.906 130.562C235.313 130.562 235.313 131.5 235.906 131.5Z" fill="#161616"/>
<path d="M239.375 129.75C239.406 129.719 239.438 129.688 239.469 129.656C239.656 129.469 239.656 129.188 239.469 129C239.281 128.812 239 128.812 238.813 129C238.781 129.031 238.75 129.063 238.719 129.094C238.531 129.281 238.531 129.563 238.719 129.75C238.906 129.938 239.188 129.938 239.375 129.75Z" fill="#161616"/>
<path d="M238.344 132.031C238.375 132.031 238.406 132.031 238.438 132.031C238.688 132.031 238.906 131.812 238.906 131.562C238.906 131.312 238.688 131.094 238.438 131.094C238.406 131.094 238.375 131.094 238.344 131.094C238.094 131.094 237.875 131.312 237.875 131.562C237.875 131.812 238.063 132.031 238.344 132.031Z" fill="#161616"/>
<path d="M216.781 120.938C217.968 119.938 219.718 119.906 220.906 120.875C221.374 121.25 222.031 120.594 221.562 120.219C219.937 118.906 217.687 118.906 216.093 120.281C215.656 120.656 216.343 121.313 216.781 120.938Z" fill="#161616"/>
<path d="M232.03 120.595C233.374 119.408 235.28 119.189 236.874 120.033C237.405 120.314 237.874 119.501 237.343 119.22C235.374 118.158 233.03 118.439 231.374 119.939C230.905 120.345 231.562 121.001 232.03 120.595Z" fill="#161616"/>
<path d="M217.031 131.406C217.625 131.406 217.625 130.469 217.031 130.469C216.437 130.469 216.437 131.406 217.031 131.406Z" fill="#161616"/>
<path d="M220.344 130.969C220.938 130.969 220.938 130.031 220.344 130.031C219.75 130.031 219.75 130.969 220.344 130.969Z" fill="#161616"/>
<path d="M218.688 131.688C218.656 131.719 218.625 131.75 218.594 131.781C218.406 131.969 218.406 132.25 218.594 132.438C218.781 132.625 219.063 132.625 219.25 132.438C219.281 132.406 219.313 132.375 219.344 132.344C219.531 132.156 219.531 131.875 219.344 131.688C219.156 131.5 218.875 131.5 218.688 131.688Z" fill="#161616"/>
<path d="M215.812 101.375C213.937 102.532 209.843 105.063 207.062 110.25C204.281 115.407 204.312 120.282 204.437 122.375C199.875 130.594 197.812 137.844 196.812 142.782C195.187 150.625 196.062 153.5 197.187 155.407C199.937 160.094 205.468 161.25 206.812 161.532C213.718 163 219.218 159.469 220.468 158.657C220.812 157.625 221.156 156.344 221.343 154.907C221.687 152.438 221.5 150.313 221.218 148.782C219.656 147.5 217.843 145.782 216.093 143.532C213.437 140.094 211.937 136.719 211.093 134.282C208.343 134 206.281 132.125 206.093 130.032C205.906 128.063 207.281 125.532 209.093 125.532C210.437 125.532 211.406 126.907 211.593 127.157C212.625 126.563 214.062 125.532 215.343 123.907C217.187 121.563 217.5 119.469 218.343 117.282C219.156 115.157 220.718 112.219 224.093 109.157C227.343 110.313 229.937 111.438 231.718 112.282C237.437 114.938 240.687 116.5 243.218 119.907C244.625 121.782 245.343 123.625 245.718 124.782C248.625 122.563 249.812 123.157 250.062 123.282C251.906 124.313 251.843 129.969 248.968 131.532C247.875 132.125 246.625 131.969 245.843 131.782C244.937 134.938 242.937 140.094 238.343 144.657C236.812 146.188 235.25 147.375 233.843 148.282C233.718 149.438 233.656 151.032 233.968 152.907C234.25 154.625 234.75 156.032 235.218 157.032C242.812 162.032 252.25 161.125 257.375 155.75C261.937 150.938 261.937 143.657 260.218 138.688C258.656 134.157 255.625 131.438 254.125 130.25C254.531 128.5 256.781 118.125 250.25 108.594C248.562 106.125 243.843 100.157 235.343 98.094C226.343 95.9065 218.937 99.469 215.812 101.375Z" fill="#353535"/>
<path opacity="0.17" d="M235.625 114.219C239.156 118.656 240.094 122.75 240.406 124.875C241.688 133.812 236.5 141.062 233.875 144.781C231.719 147.812 229.5 149.969 227.906 151.375C229.281 155.062 230.625 158.719 232 162.406C233.406 161.938 234.813 161.469 236.219 161C235.563 159.844 234.875 158.406 234.344 156.656C233.375 153.531 233.313 150.781 233.406 148.906C235.125 147.687 237.125 146.031 239.063 143.844C242.938 139.469 244.875 134.969 245.875 131.938C246.5 132.063 247.844 132.219 249.125 131.5C251.813 129.969 251.375 126.156 251.344 125.906C251.25 125.094 251.063 123.781 250.125 123.25C249.031 122.656 247.219 123.219 245.781 124.906C245.344 123.375 244.094 119.844 240.719 117.031C238.844 115.469 236.938 114.656 235.625 114.219Z" fill="#6D6C6C"/>
<path opacity="0.19" d="M226.469 121.844C226.281 121.813 225.656 124.532 223.75 136.532C224.844 136.532 225.937 136.532 227.031 136.532C226.812 134.938 226.562 132.625 226.437 129.813C226.281 125 226.656 121.875 226.469 121.844Z" fill="#6D6C6C"/>
<path opacity="0.54" d="M253.937 130.563C253.406 130.876 255.406 133.563 255.124 137.563C255.031 138.813 254.843 141.657 252.593 143.563C252.437 143.688 249.093 146.438 245.781 144.688C243.812 143.657 242.624 141.47 242.687 139.095C241.749 140.845 240.218 143.157 237.812 145.407C236.312 146.813 234.843 147.845 233.562 148.626C233.468 150.001 233.468 151.876 233.968 154.001C234.249 155.157 234.593 156.157 234.937 156.97C235.906 157.595 237.343 158.438 239.218 159.095C240.406 159.501 246.937 161.782 253.312 158.626C254.437 158.063 256.937 156.782 258.749 154.032C258.968 153.688 259.781 152.47 260.374 150.407C262.499 143.345 259.374 136.97 259.093 136.438C257.374 132.97 254.593 130.188 253.937 130.563Z" fill="#161616"/>
<path opacity="0.35" d="M211.062 134.407C210.781 134.438 211.406 137.001 210.718 139.532C210.218 141.407 208.625 144.469 205.906 145.094C203.062 145.719 199.531 143.626 197.906 139.719C197.156 141.438 196.156 144.188 196 147.688C195.906 149.969 195.781 152.407 196.906 154.813C199.437 160.188 206.875 162.282 212.406 161.782C216.093 161.438 218.875 160.001 220.375 159.032C220.75 157.969 221.125 156.688 221.375 155.219C221.781 152.688 221.687 150.469 221.468 148.844C219 147.063 217.312 145.219 216.25 143.876C214.75 141.969 212.718 139.407 211.687 135.844C211.531 135.438 211.25 134.376 211.062 134.407Z" fill="#161616"/>
</svg>
