<svg xmlns="http://www.w3.org/2000/svg" viewBox="0 0 76.74 64"><defs><style>.cls-1{fill:#af7e57;}</style></defs><title>Pledge</title><g id="Layer_2" data-name="Layer 2"><g id="Layer_1-2" data-name="Layer 1"><g id="OurStory"><g id="Promises"><g id="Pledge"><path class="cls-1" d="M63.39,11.84V8.46a2.17,2.17,0,1,1,4.34,0v2.73a2.17,2.17,0,0,1,4.34,0v13a2.34,2.34,0,1,1,4.67,0v7.57a8,8,0,0,1-3.5,6.59l0,0a6.14,6.14,0,0,0-2.79,5.12L70.58,64H57.9l-.16-20.2A15.27,15.27,0,0,0,56.12,37v0a13.55,13.55,0,0,1-1.38-6V16.23a2.17,2.17,0,1,1,4.34,0V11.84a2.17,2.17,0,1,1,4.34,0Z"/><path class="cls-1" d="M44.7,17.86a2.34,2.34,0,1,1,4.67,0v7.57A8,8,0,0,1,45.88,32l0,0a6.15,6.15,0,0,0-2.79,5.12L43.22,64H30.54l-.16-26.49a15.3,15.3,0,0,0-1.63-6.81v0a13.53,13.53,0,0,1-1.38-6V9.94a2.17,2.17,0,0,1,4.34,0V5.55a2.17,2.17,0,1,1,4.34,0V2.17a2.17,2.17,0,1,1,4.34,0V4.9a2.17,2.17,0,1,1,4.34,0v13Z"/><path class="cls-1" d="M13,14.42a2.17,2.17,0,0,1,4.34,0v13a2.34,2.34,0,0,1,4.67,0V35a8,8,0,0,1-3.5,6.59l0,0a6.14,6.14,0,0,0-2.79,5.12L15.86,64H3.18L3,47A15.27,15.27,0,0,0,1.4,40.22v0a13.53,13.53,0,0,1-1.38-6V19.46a2.17,2.17,0,1,1,4.34,0V15.08a2.17,2.17,0,1,1,4.34,0V11.69a2.17,2.17,0,1,1,4.34,0Z"/></g></g></g></g></g></svg>