<svg xmlns="http://www.w3.org/2000/svg" viewBox="0 0 43.61 65"><defs><style>.cls-1{fill:#af7e57;}</style></defs><title>soul</title><g id="Layer_2" data-name="Layer 2"><g id="Layer_1-2" data-name="Layer 1"><g id="OurStory"><g id="Promises"><g id="SOulSTate"><path class="cls-1" d="M21.4,30a4.58,4.58,0,0,0-2.07.39L23.08,20l3.63,10Z"/><path class="cls-1" d="M3.73,26.09h.33a3.73,3.73,0,0,1,3.73,3.73v8.11a3.73,3.73,0,0,1-3.73,3.73H3.73A3.73,3.73,0,0,1,0,37.92V29.82a3.73,3.73,0,0,1,3.73-3.73"/><path class="cls-1" d="M17.19,31.85l-.11.12a5.73,5.73,0,0,0-1.51,3.85c0,.12,0,.24,0,.36A5.8,5.8,0,0,0,17,39.63a4,4,0,0,1-.5.69,3.83,3.83,0,0,1-2.89,1.34,3.89,3.89,0,0,1-3.89-3.89V26.09a3.89,3.89,0,0,1,7.78,0v5.41c-.12.11-.21.24-.32.35"/><path class="cls-1" d="M4,43.6A5.7,5.7,0,0,0,8.77,41a5.91,5.91,0,0,0,.84,1c.1.09.2.17.3.25a6,6,0,0,0,.73.52L11,43a5.83,5.83,0,0,0,.85.33l.39.12a5.73,5.73,0,0,0,1.34.17,5.61,5.61,0,0,0,1.32-.17c.15,0,.29-.08.43-.13a5.89,5.89,0,0,0,.77-.31c.16-.08.32-.15.47-.24a6,6,0,0,0,.9-.66c.08-.08.14-.18.22-.25a5.75,5.75,0,0,0,.82-.95h0a4.24,4.24,0,0,0,2.87.78h4.94a12.35,12.35,0,0,0-2,1.95,18.28,18.28,0,0,0-3.92,11.67,1,1,0,0,0,1.95,0c0-5,1.86-9.29,4.62-11.67a7.42,7.42,0,0,1,4.86-1.95h.24a1,1,0,1,0,0-1.95H21.4a3.89,3.89,0,1,1,0-7.78H37l.18,0,.42,0,.35.07.36.11.35.15.32.18.31.21.29.24.26.25.15.18.1.12a3.63,3.63,0,0,1,.21.3c.07.11.12.22.18.33a3.9,3.9,0,0,1,.16.37c0,.06.05.12.08.18l2.11,7a19.55,19.55,0,0,1,.8,4.26C43.6,55.27,34.46,65,23.34,65A23.34,23.34,0,0,1,0,42.17l0,0A5.66,5.66,0,0,0,3.77,43.6Z"/><path class="cls-1" d="M29.63,2.18a3.88,3.88,0,0,1,7.13,3h0L33.33,14.6h0L29.11,3.14Z"/><path class="cls-1" d="M37,30,32.32,17.26l-4-11.07a3.81,3.81,0,0,0-.41-.8A3.89,3.89,0,0,0,21,8.85L28.66,30H37Z"/></g></g></g></g></g></svg>