<svg width="64" height="64" viewBox="0 0 64 64" fill="none" xmlns="http://www.w3.org/2000/svg">
<path d="M50 57H54V62H50V57Z" fill="#0F427C"/>
<path d="M42 57H46V62H42V57Z" fill="#0F427C"/>
<path d="M34 57H38V62H34V57Z" fill="#0F427C"/>
<path d="M33 33V55H55.001L55 33H33ZM52 52H36V36H52V52Z" fill="#0F427C"/>
<path d="M34 28V31H38V27.931C37.672 27.972 37.339 28 37 28H34Z" fill="#0F427C"/>
<path d="M42 26.235V31H46V26H42.274C42.183 26.08 42.094 26.16 42 26.235Z" fill="#0F427C"/>
<path d="M50 26H54V31H50V26Z" fill="#0F427C"/>
<path d="M57 34H62V38H57V34Z" fill="#0F427C"/>
<path d="M57.002 42H62.001V46H57.002V42Z" fill="#0F427C"/>
<path d="M57.002 50H62.001V54H57.002V50Z" fill="#0F427C"/>
<path d="M26 50H31V54H26V50Z" fill="#0F427C"/>
<path d="M26 42H31V46H26V42Z" fill="#0F427C"/>
<path d="M26 34H31V38H26V34Z" fill="#0F427C"/>
<path d="M18.2192 13H17.7812L16.5312 18H19.4692L18.2192 13Z" fill="#F61067"/>
<path d="M37 26C40.309 26 43 23.309 43 20C43 17.26 41.144 14.872 38.485 14.194L37.942 14.056L37.776 13.521C37.126 11.415 35.206 10 33 10C32.721 10 32.434 10.027 32.121 10.083L31.071 10.27L30.952 9.21C30.554 5.669 27.565 3 24 3C20.97 3 18.299 4.936 17.353 7.816L17.009 8.861L16.001 8.42C15.365 8.141 14.692 8 14 8C11.243 8 9 10.243 9 13V13.867L8.145 14.069C5.212 14.488 3 17.038 3 20C3 23.309 5.691 26 9 26H37ZM25 22H27V13H25V11H31V13H29V22H31V24H25V22ZM16.219 11H19.781L22.97 23.757L21.03 24.242L19.969 20H16.031L14.97 24.243L13.03 23.758L16.219 11Z" fill="#F61067"/>
<path d="M20 33C18.698 33 17.598 33.839 17.184 35H16C15.449 35 15 34.551 15 34V28H13V34C13 35.654 14.346 37 16 37H17.184C17.598 38.161 18.698 39 20 39C21.654 39 23 37.654 23 36C23 34.346 21.654 33 20 33Z" fill="#FAA017"/>
<path d="M18 41C16.698 41 15.598 41.839 15.184 43H12C11.449 43 11 42.551 11 42V28H9V42C9 43.654 10.346 45 12 45H15.184C15.598 46.161 16.698 47 18 47C19.654 47 21 45.654 21 44C21 42.346 19.654 41 18 41Z" fill="#FAA017"/>
<path d="M16 49C14.698 49 13.598 49.839 13.184 51H8C7.449 51 7 50.551 7 50V28H5V50C5 51.654 6.346 53 8 53H13.184C13.598 54.161 14.698 55 16 55C17.654 55 19 53.654 19 52C19 50.346 17.654 49 16 49Z" fill="#FAA017"/>
<path d="M61 13.184V11C61 9.346 59.654 8 58 8H40V10H58C58.551 10 59 10.449 59 11V13.184C57.839 13.598 57 14.698 57 16C57 17.654 58.346 19 60 19C61.654 19 63 17.654 63 16C63 14.698 62.161 13.598 61 13.184V13.184Z" fill="#FAA017"/>
<path d="M51 15V17.184C49.839 17.598 49 18.698 49 20C49 21.654 50.346 23 52 23C53.654 23 55 21.654 55 20C55 18.698 54.161 17.598 53 17.184V15C53 13.346 51.654 12 50 12H40V14H50C50.551 14 51 14.449 51 15Z" fill="#FAA017"/>
</svg>
