<svg width="64" height="64" viewBox="0 0 64 64" fill="none" xmlns="http://www.w3.org/2000/svg">
<path fill-rule="evenodd" clip-rule="evenodd" d="M37.1192 25.3333H31.7859V17.3333H23.7859V12H31.7859V4H37.1192V12H45.1192V17.3333H37.1192V25.3333ZM15.8121 54.6667C15.8121 51.7333 18.1854 49.3333 21.1187 49.3333C24.0521 49.3333 26.4521 51.7333 26.4521 54.6667C26.4521 57.6 24.0521 60 21.1187 60C18.1854 60 15.8121 57.6 15.8121 54.6667ZM47.7855 49.3333C44.8521 49.3333 42.4788 51.7333 42.4788 54.6667C42.4788 57.6 44.8521 60 47.7855 60C50.7188 60 53.1188 57.6 53.1188 54.6667C53.1188 51.7333 50.7188 49.3333 47.7855 49.3333ZM43.9191 36H24.0525L21.1191 41.3333H53.1191V46.6667H21.1191C17.0658 46.6667 14.5058 42.32 16.4525 38.7467L20.0525 32.24L10.4525 12H5.11914V6.66667H13.8391L25.1991 30.6667H43.9191L54.2391 12L58.8791 14.56L48.5858 33.2533C47.6791 34.9067 45.9191 36 43.9191 36Z" fill="#22244C"/>
</svg>
