<svg width="96" height="96" viewBox="0 0 96 96" fill="none" xmlns="http://www.w3.org/2000/svg">
<path d="M28 0C23.58 0 20 3.584 20 8V82.712C19.992 91.564 34.012 96 48.024 96C62.016 96 76 91.576 76 82.712V8C76 3.584 72.42 0 68 0H28ZM48 88C45.788 88 44 86.208 44 84C44 81.792 45.788 80 48 80C50.212 80 52 81.792 52 84C52 86.208 50.212 88 48 88ZM68 72H28V16H68V72ZM57 53V56H60V53H59V52H58V53H57ZM59 54V55H58V54H59ZM36 56H44V48H36V56ZM37 49H43V55H37V49ZM57 52V51H58V52H57ZM38 50H42V54H38V50ZM46 47V49H45V47H46ZM48 39H49V40H48V39ZM49 38H50V39H49V38ZM50 40V39H51V40H50ZM50 38H51V32H48V33H45V34H48V35H50V38ZM49 34V33H50V34H49ZM42 38H38V34H42V38ZM48 38H47V36H45V35H48V36H49V37H48V38ZM44 32H36V40H44V32ZM43 39H37V33H43V39ZM46 39H45V38H47V40H46V39ZM43 42V43H42V42H43ZM58 48H60V51H59V50H57V51H56V50H55V49H56V48H57V49H58V48ZM54 50H53V51H52V50H51V49H52V48H50V47H49V48H48V49H46V50H45V56H50V55H49V53H48V55H46V54H47V53H46V52H49V51H51V53H50V54H51V56H52V54H53V55H54V54H55V52H56V51H54V50ZM53 53H52V52H53V53ZM59 47V45H60V47H59ZM50 52V53H49V52H50ZM55 55V54H56V56H54V55H55ZM52 32V40H60V32H52ZM59 39H53V33H59V39ZM58 38H54V34H58V38ZM59 42H60V44H59V45H57V41H58V43H59V42ZM55 48V45H56V48H55ZM42 41V42H40V43H41V44H38V43H39V42H37V43H36V41H42ZM41 45V44H42V47H41V46H40V47H39V46H38V47H36V46H37V45H41ZM37 44V45H36V44H37ZM56 42H55V41H56V42ZM43 46H44V47H43V46ZM58 48H57V47H58V48ZM53 49V48H54V49H53ZM52 48H53V45H55V44H56V43H55V42H53V41H52V42H51V41H50V42H49V41H48V42H47V43H46V42H47V41H43V42H45V43H43V44H44V46H45V45H47V47H48V43H49V45H52V46H50V47H52V48ZM53 43H54V44H53V43ZM51 44H50V43H51V44Z" fill="#FEBA15"/>
</svg>
