<svg width="45" height="45" viewBox="0 0 45 45" fill="none" xmlns="http://www.w3.org/2000/svg">
<path d="M42.1875 17.692C42.1875 17.6826 42.1875 17.6826 42.1875 17.6732C42.1875 17.5605 42.1594 17.4572 42.1219 17.3539C42.1125 17.3258 42.0938 17.307 42.0844 17.2788C42.0656 17.2412 42.0563 17.2037 42.0281 17.1661L35.6437 7.69094C34.7719 6.39503 33.3187 5.625 31.7531 5.625H28.9781H28.9688H13.2469C11.6813 5.625 10.2375 6.39503 9.35625 7.69094L2.97188 17.1661C2.94375 17.2037 2.93437 17.2412 2.91562 17.2788C2.90625 17.307 2.8875 17.3258 2.87812 17.3539C2.84062 17.4572 2.82187 17.5605 2.8125 17.6732C2.8125 17.6826 2.8125 17.6826 2.8125 17.692C2.8125 19.9551 4.425 21.852 6.5625 22.2934V38.4359C6.5625 38.9524 6.98438 39.375 7.5 39.375H17.0531C18.0844 39.375 18.9281 38.5392 18.9281 37.5063V31.6371C18.9281 29.6087 20.5781 27.956 22.6031 27.956C24.5156 27.956 26.0812 29.5148 26.0812 31.4399V37.4969C26.0812 38.5298 26.925 39.375 27.9562 39.375H37.5C38.0156 39.375 38.4375 38.9524 38.4375 38.4359V22.284C40.575 21.852 42.1875 19.9551 42.1875 17.692ZM34.0875 8.7427L39.4875 16.7529H34.3687L30.4031 7.50313H31.7531C32.6906 7.50313 33.5625 7.96327 34.0875 8.7427ZM16.8844 7.50313H19.6875L17.9719 16.7529H12.7031L16.8656 7.56886C16.875 7.54069 16.875 7.52191 16.8844 7.50313ZM28.3687 7.50313L32.3344 16.7529H27.0938L26.0531 7.50313H28.3687ZM25.2 16.7529H19.875L21.5437 7.7379C21.5625 7.65338 21.5437 7.57826 21.5437 7.50313H24.1594L25.2 16.7529ZM17.6437 18.6311C17.2594 19.7204 16.2281 20.5092 15 20.5092C13.7719 20.5092 12.75 19.7204 12.3563 18.6311H17.6437ZM25.1437 18.6311C24.7594 19.7204 23.7281 20.5092 22.5 20.5092C21.2719 20.5092 20.25 19.7204 19.8563 18.6311H25.1437ZM32.6437 18.6311C32.2594 19.7204 31.2281 20.5092 30 20.5092C28.7719 20.5092 27.75 19.7204 27.3563 18.6311H32.6437ZM10.9125 8.7427C11.4375 7.96327 12.3094 7.50313 13.2469 7.50313H14.8406L10.65 16.7529H5.5125L10.9125 8.7427ZM4.85625 18.6311H10.1344C9.75 19.7204 8.71875 20.5092 7.49062 20.5092C6.2625 20.5092 5.25 19.7204 4.85625 18.6311ZM27.9469 37.4969V31.4399C27.9469 28.4818 25.5469 26.0778 22.5938 26.0778C19.5375 26.0778 17.0438 28.5664 17.0438 31.6371V37.4969H8.4375V22.284C9.58125 22.0492 10.575 21.4107 11.25 20.5092C12.1031 21.6455 13.4719 22.3873 15 22.3873C16.5375 22.3873 17.8969 21.6267 18.75 20.481C19.6031 21.6361 20.9625 22.3873 22.5 22.3873C24.0375 22.3873 25.3969 21.6267 26.25 20.481C27.1031 21.6361 28.4625 22.3873 30 22.3873C31.5375 22.3873 32.8969 21.6267 33.75 20.481C34.425 21.3919 35.4094 22.0586 36.5625 22.2934V37.4969H27.9469ZM37.5 20.5092C36.2812 20.5092 35.25 19.7204 34.8563 18.6311H40.1344C39.75 19.7204 38.7188 20.5092 37.5 20.5092Z" fill="#0F427C"/>
</svg>
