<svg width="82" height="64" viewBox="0 0 82 64" fill="none" xmlns="http://www.w3.org/2000/svg">
<path d="M29.8858 15.0668C34.0284 15.0668 37.3986 11.6966 37.3986 7.55399C37.3986 3.4113 34.0284 0.0411987 29.8858 0.0411987C25.7431 0.0411987 22.373 3.4113 22.373 7.55399C22.373 11.6967 25.7431 15.0668 29.8858 15.0668ZM29.8858 4.4606C31.5914 4.4606 32.9793 5.84846 32.9793 7.55408C32.9793 9.25961 31.5914 10.6476 29.8858 10.6476C28.1802 10.6476 26.7924 9.25961 26.7924 7.55408C26.7924 5.84846 28.1802 4.4606 29.8858 4.4606Z" fill="#FAA017"/>
<path d="M42.9512 25.0676C42.9512 29.2103 46.3214 32.5804 50.464 32.5804C54.6067 32.5804 57.9768 29.2102 57.9768 25.0676C57.9768 20.925 54.6067 17.5548 50.464 17.5548C46.3214 17.5549 42.9512 20.925 42.9512 25.0676ZM50.464 21.9741C52.1696 21.9741 53.5574 23.3621 53.5574 25.0676C53.5574 26.7732 52.1696 28.1612 50.464 28.1612C48.7584 28.1612 47.3705 26.7732 47.3705 25.0676C47.3705 23.3621 48.7584 21.9741 50.464 21.9741Z" fill="#FAA017"/>
<path d="M45.8571 2.13122e-05L30.5332 30.6478L34.4856 32.624L49.8095 1.97621L45.8571 2.13122e-05Z" fill="#0F427C"/>
<path d="M81.1125 30.9193C80.8064 30.0259 79.9662 29.4256 79.0219 29.4256H67.9897V7.5542H63.5704V31.6353C63.5704 32.8559 64.5596 33.8449 65.78 33.8449H72.5716L40.1901 58.9809L8.54443 33.8449H15.4521C16.6726 33.8449 17.6617 32.8558 17.6617 31.6353V0.986511H13.2424V29.4256H2.20984C1.26991 29.4256 0.433087 30.0199 0.123593 30.9077C-0.186264 31.7949 0.0994292 32.7811 0.835692 33.3655L38.8004 63.5206C39.2027 63.84 39.6881 64 40.1746 64C40.6523 64 41.1305 63.8456 41.5298 63.5356L80.3766 33.3806C81.1228 32.8019 81.4184 31.8126 81.1125 30.9193Z" fill="#0F427C"/>
</svg>
