<svg width="91" height="65" viewBox="0 0 91 65" fill="none" xmlns="http://www.w3.org/2000/svg">
<path d="M53.5434 12.9237C54.9333 12.9237 56.3373 13.3019 57.3662 14.0411L64.9374 20.9787C66.8392 22.3465 69.7951 24.7713 71.5119 26.3634L78.3881 32.7548L90.5153 18.7037L71.6708 0.665796L67.1339 5.11819C67.1339 5.11819 65.6163 4.77524 64.5612 4.26231L57.4537 0.803581C56.5898 0.383183 55.5257 0.18103 54.4415 0.18103C52.8816 0.18103 51.2745 0.600422 50.147 1.39697L39.1523 9.10795C37.2414 10.4597 36.818 13.1027 38.213 14.9835L38.8647 15.8645C39.7588 17.0684 41.2211 17.7261 42.6835 17.7261C43.5061 17.7261 44.3278 17.5189 45.0489 17.0834L50.2657 13.7534C51.188 13.1983 52.3596 12.9237 53.5434 12.9237Z" fill="#FAA017"/>
<path d="M76.273 37.9092L64.7654 27.2152C63.7657 26.4026 61.536 24.6958 61.536 24.6958L54.3238 18.0902C54.171 18.0328 53.8914 17.9654 53.5454 17.9654C53.1854 17.9654 52.948 18.0379 52.8867 18.065L47.6568 21.399C46.1734 22.2951 44.4536 22.7668 42.6875 22.7668C39.5737 22.7668 36.6329 21.3095 34.8186 18.8636L34.1689 17.9876C32.6784 15.9781 32.0749 13.5151 32.4702 11.05C32.8634 8.58695 34.2061 6.43467 36.2628 4.98138L37.4466 4.15165C35.7388 3.94346 33.843 4.12449 32.4571 4.71788C32.4571 4.71788 30.1339 5.7387 29.3896 6.0535C27.6628 6.78668 25.242 6.77562 25.242 6.77562L19.5606 1.48444L0 20.9133L7.35596 28.3115L9.02649 26.5605C10.7694 24.732 13.2224 23.682 15.7569 23.6831C18.1606 23.6831 20.4396 24.5942 22.1745 26.2487L22.966 27.004C23.9848 27.9755 24.7371 29.1221 25.2178 30.3561C26.7375 30.7463 28.1385 31.5187 29.3011 32.6271L30.0886 33.3794C31.8839 35.0871 32.9077 37.3963 32.968 39.8824C33.5131 40.2184 34.0291 40.6146 34.4998 41.0662L35.2963 41.8255C36.4117 42.8896 37.2052 44.1649 37.6719 45.5327C39.0809 45.943 40.3803 46.6853 41.4625 47.7171L42.2681 48.4825C45.5066 51.5721 46.0215 56.459 43.7505 60.1189L44.354 60.6821C46.0678 62.2772 48.7752 62.1786 50.3703 60.4638L51.1156 59.6593C52.6765 57.9787 52.598 55.3597 50.9808 53.7586L56.4983 58.8768C58.215 60.4689 60.9225 60.3683 62.5176 58.6515L63.2628 57.8499C64.8469 56.1452 64.7533 53.4619 63.0667 51.8638L64.4848 53.1833C66.2006 54.7764 68.907 54.6758 70.5001 52.9611L71.2464 52.1585C72.8395 50.4417 72.7389 47.7342 71.0241 46.1391L69.8263 45.0288C71.5481 46.5324 74.1811 46.4167 75.744 44.7311L76.4933 43.9275C78.0894 42.2097 77.9908 39.5023 76.273 37.9092Z" fill="#0F427C"/>
<path d="M38.7878 52.1293L37.9913 51.372C37.1706 50.5895 36.1125 50.2003 35.0545 50.2003C33.9311 50.2003 32.8077 50.6408 31.9739 51.5148L31.9598 51.4917C33.5731 49.798 33.5097 47.0886 31.815 45.4744L31.0205 44.716C30.2028 43.9376 29.1549 43.5524 28.1039 43.5524C27.0408 43.5524 25.9818 43.9456 25.1601 44.7221L26.7552 43.0505C28.3724 41.3559 28.309 38.6464 26.6113 37.0312L25.8178 36.2729C24.9991 35.4924 23.9451 35.1062 22.8921 35.1062C21.7979 35.1062 20.7077 35.5216 19.8799 36.3453C21.2095 34.6456 21.0778 32.1725 19.4847 30.6528L18.6932 29.8975C17.8715 29.1151 16.8114 28.7258 15.7544 28.7258C14.628 28.7248 13.5066 29.1663 12.6728 30.0403L4.67824 38.4221C3.06303 40.1148 3.12639 42.8242 4.82609 44.4385L5.6166 45.1948C6.43325 45.9722 7.48123 46.3544 8.52921 46.3544C9.49572 46.3544 10.4602 46.0295 11.2437 45.3889L9.13667 47.5955C7.52347 49.2911 7.58784 51.9986 9.28049 53.6148L10.078 54.3721C10.8987 55.1546 11.9588 55.5438 13.0138 55.5438C14.1402 55.5438 15.2626 55.1033 16.0954 54.2293L17.7397 52.5045C16.2764 54.2042 16.374 56.7889 18.0153 58.3528L18.8129 59.1111C19.6325 59.8926 20.6916 60.2818 21.7496 60.2818C22.874 60.2818 23.9974 59.8413 24.8302 58.9673L27.4733 56.2327C25.857 57.9284 25.9194 60.6358 27.6161 62.2521L28.4126 63.0094C29.2303 63.7918 30.2893 64.1811 31.3474 64.1811C32.4718 64.1811 33.5952 63.7405 34.4279 62.8666L38.9316 58.1466C40.5468 56.454 40.4815 53.7455 38.7878 52.1293Z" fill="#FAA017"/>
</svg>
