<svg width="54" height="64" viewBox="0 0 54 64" fill="none" xmlns="http://www.w3.org/2000/svg">
<path d="M50.1121 0H3.62513C1.63486 0 0 1.63486 0 3.62513C0 5.61539 1.63486 7.25025 3.62513 7.25025H5.11783V31.4178C5.11783 32.0575 5.61539 32.5551 6.25512 32.5551C6.89485 32.5551 7.39242 32.0575 7.39242 31.4178V2.27459H46.2026V59.4947L45.3496 58.855C44.8521 58.4996 44.2123 58.6418 43.7859 59.0682L42.2221 61.1296L40.0896 58.9972C39.6632 58.5707 38.9523 58.5707 38.5259 58.9972L36.038 61.2718L33.8345 58.9972C33.6213 58.7839 33.2659 58.6418 32.9815 58.6418C32.6972 58.6418 32.3418 58.7839 32.1286 58.9972L30.1383 61.1296L27.6505 58.9972C27.5794 58.9972 27.5794 58.9261 27.5083 58.9261C27.4372 58.855 27.3662 58.855 27.2951 58.7839C27.224 58.7839 27.1529 58.7128 27.0818 58.7128C27.0107 58.7128 26.9397 58.7128 26.8686 58.7128C26.7975 58.7128 26.7264 58.7128 26.6553 58.7128C26.5843 58.7128 26.5132 58.7128 26.4421 58.7839C26.371 58.7839 26.2999 58.855 26.2289 58.9261C26.1578 58.9261 26.1578 58.9972 26.0867 58.9972L23.5278 61.2718L21.5375 59.1393C21.3243 58.9261 21.04 58.7839 20.6845 58.7839C20.4002 58.7839 20.0448 58.9261 19.8316 59.1393L17.6281 61.3428L15.2113 58.9972C14.7848 58.5707 14.074 58.5707 13.6475 58.9972L11.5151 61.1296L9.88025 59.1393C9.52484 58.6418 8.81403 58.5707 8.31647 58.9261L7.39242 59.5658V35.3983C7.39242 34.7586 6.89485 34.261 6.25512 34.261C5.61539 34.261 5.11783 34.7586 5.11783 35.3983V61.6982C5.11783 61.7693 5.11783 61.7693 5.11783 61.8404C5.11783 61.9115 5.11783 61.9826 5.18891 62.0536C5.18891 62.1247 5.25999 62.1958 5.25999 62.2669C5.25999 62.2669 5.25999 62.338 5.33107 62.338L5.40215 62.4091C5.47323 62.4801 5.54431 62.5512 5.54431 62.5512C5.61539 62.6223 5.68647 62.6223 5.68647 62.6934C5.75756 62.6934 5.82864 62.7645 5.89972 62.7645C5.9708 62.7645 6.04188 62.8355 6.11296 62.8355H6.18404C6.25512 62.8355 6.25512 62.8355 6.3262 62.8355C6.39728 62.8355 6.46836 62.8355 6.53944 62.7645C6.61053 62.7645 6.68161 62.6934 6.75269 62.6934C6.75269 62.6934 6.82377 62.6934 6.82377 62.6223L8.67187 61.3428L10.4489 63.5463C10.6621 63.8307 10.9465 63.9728 11.3019 63.9728C11.6573 63.9728 11.9416 63.9017 12.1548 63.6174L14.3583 61.4139L16.8462 63.6885C17.2727 64.115 17.9835 64.115 18.41 63.6174L20.5424 61.485L22.4616 63.6174C22.6748 63.8307 23.0302 63.9728 23.3145 63.9728C23.5989 63.9728 23.8832 63.9017 24.0964 63.6885L26.7975 61.3428L29.4986 63.6885C29.7118 63.9017 29.9961 63.9728 30.2805 63.9728C30.5648 63.9728 30.9202 63.8307 31.1334 63.6174L33.0526 61.485L35.1851 63.6174C35.6115 64.0439 36.3224 64.0439 36.7488 63.6885L39.2367 61.4139L41.4402 63.6174C41.6534 63.8307 42.0088 63.9728 42.2931 63.9728C42.6486 63.9728 42.9329 63.8307 43.1461 63.5463L44.9231 61.3428L46.7712 62.6223C46.7712 62.6223 46.8423 62.6223 46.8423 62.6934C46.9134 62.7645 46.9845 62.7645 47.0556 62.7645C47.1267 62.7645 47.1977 62.8355 47.2688 62.8355C47.3399 62.8355 47.3399 62.8355 47.411 62.8355C47.4821 62.8355 47.4821 62.8355 47.4821 62.8355C47.5531 62.8355 47.6242 62.8355 47.6953 62.7645C47.7664 62.7645 47.8375 62.6934 47.9085 62.6934C47.9796 62.6934 48.0507 62.6223 48.0507 62.5512C48.1218 62.4801 48.1929 62.4801 48.1929 62.4091L48.2639 62.338C48.2639 62.338 48.2639 62.2669 48.335 62.2669C48.4061 62.1958 48.4061 62.1247 48.4061 62.0536C48.4061 61.9826 48.4772 61.9115 48.4772 61.8404C48.4772 61.7693 48.4772 61.7693 48.4772 61.6982V7.25025H49.9699C51.9602 7.25025 53.595 5.61539 53.595 3.62513C53.595 1.63486 52.1023 0 50.1121 0ZM5.18891 4.97566H3.69621C2.9854 4.97566 2.34567 4.40702 2.34567 3.62513C2.34567 2.91432 2.91432 2.27459 3.69621 2.27459H5.18891V4.97566ZM50.1121 4.97566H48.6194V2.27459H50.1121C50.8229 2.27459 51.4626 2.84324 51.4626 3.62513C51.4626 4.33594 50.8229 4.97566 50.1121 4.97566Z" fill="#0F427C"/>
<path d="M16.5629 24.7362C15.2834 24.7362 14.2883 23.8121 14.2883 22.6037C14.2883 21.964 13.7907 21.4664 13.151 21.4664C12.5112 21.4664 12.0137 21.964 12.0137 22.6037C12.0137 24.6651 13.5064 26.371 15.4256 26.8686V28.5035C15.4256 29.1432 15.9231 29.6408 16.5629 29.6408C17.2026 29.6408 17.7001 29.1432 17.7001 28.5035V26.8686C19.6904 26.371 21.112 24.6651 21.112 22.6037C21.112 20.187 19.0507 18.1967 16.5629 18.1967C15.2834 18.1967 14.2883 17.2727 14.2883 16.0643C14.2883 14.8559 15.2834 13.9319 16.5629 13.9319C17.8423 13.9319 18.8374 14.8559 18.8374 16.0643C18.8374 16.704 19.335 17.2016 19.9747 17.2016C20.6145 17.2016 21.112 16.704 21.112 16.0643C21.112 14.0029 19.6193 12.297 17.7001 11.7994V10.1646C17.7001 9.52485 17.2026 9.02728 16.5629 9.02728C15.9231 9.02728 15.4256 9.52485 15.4256 10.1646V11.7994C13.4353 12.297 12.0137 14.0029 12.0137 16.0643C12.0137 18.481 14.075 20.4713 16.5629 20.4713C17.8423 20.4713 18.8374 21.3954 18.8374 22.6037C18.9085 23.741 17.8423 24.7362 16.5629 24.7362Z" fill="#FAA017"/>
<path d="M42.222 10.1645C42.8617 10.1645 43.3592 9.66698 43.3592 9.02725C43.3592 8.38752 42.8617 7.88995 42.222 7.88995H39.4498C38.8101 7.88995 38.3125 8.38752 38.3125 9.02725C38.3125 9.66698 38.8101 10.1645 39.4498 10.1645H42.222Z" fill="#0F427C"/>
<path d="M35.895 7.88995H26.8678C26.228 7.88995 25.7305 8.38752 25.7305 9.02725C25.7305 9.66698 26.228 10.1645 26.8678 10.1645H35.895C36.5348 10.1645 37.0323 9.66698 37.0323 9.02725C37.0323 8.38752 36.5348 7.88995 35.895 7.88995Z" fill="#0F427C"/>
<path d="M34.7598 14.8559C34.7598 15.4957 35.2573 15.9932 35.8971 15.9932H42.1522C42.7919 15.9932 43.2895 15.4957 43.2895 14.8559C43.2895 14.2162 42.7919 13.7186 42.1522 13.7186H35.8971C35.2573 13.7186 34.7598 14.2162 34.7598 14.8559Z" fill="#0F427C"/>
<path d="M30.2799 13.7186C29.6401 13.7186 29.1426 14.2162 29.1426 14.8559C29.1426 15.4957 29.6401 15.9932 30.2799 15.9932H32.4834C33.1231 15.9932 33.6207 15.4957 33.6207 14.8559C33.6207 14.2162 33.1231 13.7186 32.4834 13.7186H30.2799Z" fill="#0F427C"/>
<path d="M26.8678 15.9932H27.2942C27.934 15.9932 28.4315 15.4957 28.4315 14.8559C28.4315 14.2162 27.934 13.7186 27.2942 13.7186H26.8678C26.228 13.7186 25.7305 14.2162 25.7305 14.8559C25.7305 15.4957 26.228 15.9932 26.8678 15.9932Z" fill="#0F427C"/>
<path d="M26.8678 21.8218H42.2212C42.861 21.8218 43.3585 21.3243 43.3585 20.6845C43.3585 20.0448 42.861 19.5472 42.2212 19.5472H26.8678C26.228 19.5472 25.7305 20.0448 25.7305 20.6845C25.7305 21.2532 26.228 21.8218 26.8678 21.8218Z" fill="#0F427C"/>
<path d="M42.221 25.3048H32.1275C31.4878 25.3048 30.9902 25.8024 30.9902 26.4421C30.9902 27.0818 31.4878 27.5794 32.1275 27.5794H42.1499C42.7897 27.5794 43.2872 27.0818 43.2872 26.4421C43.3583 25.8024 42.7897 25.3048 42.221 25.3048Z" fill="#0F427C"/>
<path d="M26.8678 27.5794H28.858C29.4978 27.5794 29.9953 27.0818 29.9953 26.4421C29.9953 25.8024 29.4978 25.3048 28.858 25.3048H26.8678C26.228 25.3048 25.7305 25.8024 25.7305 26.4421C25.7305 27.0818 26.228 27.5794 26.8678 27.5794Z" fill="#0F427C"/>
<path d="M42.2213 31.1334H40.231C39.5913 31.1334 39.0938 31.631 39.0938 32.2707C39.0938 32.9104 39.5913 33.408 40.231 33.408H42.2213C42.861 33.408 43.3586 32.9104 43.3586 32.2707C43.3586 31.631 42.79 31.1334 42.2213 31.1334Z" fill="#0F427C"/>
<path d="M26.8678 33.408H37.1745C37.8142 33.408 38.3118 32.9104 38.3118 32.2707C38.3118 31.631 37.8142 31.1334 37.1745 31.1334H26.8678C26.228 31.1334 25.7305 31.631 25.7305 32.2707C25.7305 32.9104 26.228 33.408 26.8678 33.408Z" fill="#0F427C"/>
<path d="M11.5142 53.8793H42.1501C42.7899 53.8793 43.2874 53.3818 43.2874 52.742C43.2874 52.1023 42.7899 51.6047 42.1501 51.6047H11.5142C10.8745 51.6047 10.377 52.1023 10.377 52.742C10.377 53.3818 10.9456 53.8793 11.5142 53.8793Z" fill="#0F427C"/>
<path d="M42.223 46.0604H41.1568C40.5171 46.0604 40.0195 46.558 40.0195 47.1977C40.0195 47.8374 40.5171 48.335 41.1568 48.335H42.223C42.8628 48.335 43.3603 47.8374 43.3603 47.1977C43.3603 46.558 42.7917 46.0604 42.223 46.0604Z" fill="#0F427C"/>
<path d="M34.8307 46.0604C34.1909 46.0604 33.6934 46.558 33.6934 47.1977C33.6934 47.8374 34.1909 48.335 34.8307 48.335H38.1004C38.7401 48.335 39.2377 47.8374 39.2377 47.1977C39.2377 46.558 38.7401 46.0604 38.1004 46.0604H34.8307Z" fill="#0F427C"/>
<path d="M11.5142 48.335H31.7012C32.341 48.335 32.8385 47.8374 32.8385 47.1977C32.8385 46.558 32.341 46.0604 31.7012 46.0604H11.5142C10.8745 46.0604 10.377 46.558 10.377 47.1977C10.377 47.8374 10.9456 48.335 11.5142 48.335Z" fill="#0F427C"/>
<path d="M17.2734 41.7245C17.2734 42.3642 17.771 42.8618 18.4107 42.8618H42.2228C42.8626 42.8618 43.3601 42.3642 43.3601 41.7245C43.3601 41.0848 42.8626 40.5872 42.2228 40.5872H18.4107C17.771 40.5872 17.2734 41.0848 17.2734 41.7245Z" fill="#0F427C"/>
<path d="M10.377 41.7245C10.377 42.3642 10.8745 42.8618 11.5142 42.8618H14.784C15.4237 42.8618 15.9213 42.3642 15.9213 41.7245C15.9213 41.0848 15.4237 40.5872 14.784 40.5872H11.5853C10.9456 40.5872 10.377 41.0848 10.377 41.7245Z" fill="#0F427C"/>
</svg>
