<svg width="45" height="45" viewBox="0 0 45 45" fill="none" xmlns="http://www.w3.org/2000/svg">
<path d="M6.45607 2.8125C4.44659 2.8125 2.8125 4.44667 2.8125 6.45607V31.9602C2.8125 33.9696 4.44659 35.6036 6.45607 35.6036H21.0299C21.4234 35.6036 21.8032 35.5163 22.175 35.3883C22.9681 36.1242 23.8666 36.684 24.8085 37.2545C26.665 38.3807 28.5854 39.5451 30.2612 42.437C30.424 42.7181 30.7248 42.8906 31.0494 42.8906C39.7169 42.8906 42.7999 35.0976 42.8301 35.0184C42.9449 34.7205 42.8941 34.3834 42.6975 34.1316C42.6708 34.0978 40.0549 30.7327 39.2045 28.0428C39.0026 27.4024 38.7507 26.5003 38.4617 25.4677C37.0785 20.5219 35.8207 16.3154 34.426 14.9207C32.9148 13.4095 27.0742 12.4011 24.6734 12.042V6.45607C24.6734 4.44667 23.0392 2.8125 21.0297 2.8125H6.45607ZM6.45607 4.63429V33.782C5.45184 33.782 4.63429 32.9645 4.63429 31.9602V6.45607C4.63429 5.45184 5.45184 4.63429 6.45607 4.63429ZM8.27769 4.63429H11.4656V33.782H8.27769V4.63429ZM13.2876 4.63429H21.0299C22.0341 4.63429 22.8517 5.45184 22.8517 6.45607V17.3776C21.7148 15.7095 19.798 13.7371 18.0606 13.3836C17.1889 13.2022 16.4186 13.4218 15.8315 14.0097C13.6379 16.2033 14.8941 19.9313 16.6366 22.4575C18.0313 24.4794 19.0658 26.8686 19.2126 28.4031C19.2366 28.6584 19.2473 28.9003 19.259 29.1387C19.3157 30.3551 19.3923 31.6214 20.8397 33.782H13.2876V4.63429ZM9.77509 5.01505C9.30418 5.01505 8.92098 5.39832 8.92098 5.86933C8.92098 6.34031 9.30418 6.72376 9.77509 6.72376C10.2462 6.72376 10.6295 6.34031 10.6295 5.86933C10.6295 5.39832 10.2462 5.01505 9.77509 5.01505ZM9.77509 7.67927C9.30418 7.67927 8.92098 8.0627 8.92098 8.53371C8.92098 9.00469 9.30418 9.38814 9.77509 9.38814C10.2462 9.38814 10.6295 9.00469 10.6295 8.53371C10.6295 8.0627 10.2462 7.67927 9.77509 7.67927ZM9.77509 10.3435C9.30418 10.3435 8.92098 10.7269 8.92098 11.1979C8.92098 11.6689 9.30418 12.0524 9.77509 12.0524C10.2462 12.0524 10.6295 11.6689 10.6295 11.1979C10.6295 10.7269 10.2462 10.3435 9.77509 10.3435ZM9.77509 13.0079C9.30418 13.0079 8.92098 13.3913 8.92098 13.8623C8.92098 14.3333 9.30418 14.7166 9.77509 14.7166C10.2462 14.7166 10.6295 14.3333 10.6295 13.8623C10.6295 13.3913 10.2462 13.0079 9.77509 13.0079ZM24.6733 13.8878C27.9836 14.4002 32.2796 15.3511 33.1379 16.2086C34.3085 17.3792 35.8101 22.7493 36.7076 25.9578C37.0029 27.0146 37.2607 27.9369 37.468 28.5907C38.2312 31.0102 40.1474 33.7533 40.9274 34.8101C40.2097 36.2654 37.4974 40.8109 31.5581 41.0582C29.7053 38.0934 27.5233 36.7707 25.7532 35.697C24.5114 34.9445 23.4395 34.2943 22.6772 33.2465C21.1774 31.1837 21.1339 30.2444 21.0787 29.0542C21.0663 28.7865 21.0529 28.5151 21.0254 28.2304C20.8501 26.3856 19.7159 23.7134 18.1362 21.4238C16.7316 19.3877 15.8156 16.6026 17.1196 15.2976C17.2255 15.1909 17.3669 15.1038 17.6968 15.1679C19.1245 15.4587 21.4275 18.113 22.0066 19.5486C22.704 21.2752 24.5915 25.4017 27.0563 26.4255C27.3365 26.5393 27.6576 26.5101 27.9111 26.3419C28.822 25.7353 29.2373 24.7861 29.5415 24.0932C29.6296 23.894 29.7488 23.6201 29.7462 23.6005C30.1189 23.3425 30.2452 22.8496 30.0424 22.444C29.7649 21.8898 29.3379 20.407 29.1965 19.8822C29.1218 19.6055 28.9216 19.3797 28.6548 19.273L24.6733 17.6805V13.8878ZM9.77509 15.6721C9.30418 15.6721 8.92098 16.0555 8.92098 16.5265C8.92098 16.9975 9.30418 17.381 9.77509 17.381C10.2462 17.381 10.6295 16.9975 10.6295 16.5265C10.6295 16.0555 10.2462 15.6721 9.77509 15.6721ZM9.77509 18.3365C9.30418 18.3365 8.92098 18.7199 8.92098 19.1909C8.92098 19.6619 9.30418 20.0452 9.77509 20.0452C10.2462 20.0452 10.6295 19.6619 10.6295 19.1909C10.6295 18.7199 10.2462 18.3365 9.77509 18.3365ZM24.6733 19.6425L27.5598 20.7977C27.7012 21.2923 27.9404 22.0928 28.1806 22.7172C28.0703 22.9129 27.9752 23.13 27.8737 23.3613C27.7082 23.7385 27.5277 24.1504 27.2751 24.4706C26.3635 23.8209 25.438 22.4432 24.6733 20.9797V19.6425ZM9.77509 21.0007C9.30418 21.0007 8.92098 21.3841 8.92098 21.8551C8.92098 22.3261 9.30418 22.7095 9.77509 22.7095C10.2462 22.7095 10.6295 22.3261 10.6295 21.8551C10.6295 21.3841 10.2462 21.0007 9.77509 21.0007ZM9.77509 23.6649C9.30418 23.6649 8.92098 24.0483 8.92098 24.5193C8.92098 24.9903 9.30418 25.3738 9.77509 25.3738C10.2462 25.3738 10.6295 24.9903 10.6295 24.5193C10.6295 24.0483 10.2462 23.6649 9.77509 23.6649ZM9.77509 26.3293C9.30418 26.3293 8.92098 26.7127 8.92098 27.1837C8.92098 27.6547 9.30418 28.038 9.77509 28.038C10.2462 28.038 10.6295 27.6547 10.6295 27.1837C10.6295 26.7127 10.2462 26.3293 9.77509 26.3293ZM9.77509 28.9935C9.30418 28.9935 8.92098 29.3769 8.92098 29.8479C8.92098 30.3189 9.30418 30.7024 9.77509 30.7024C10.2462 30.7024 10.6295 30.3189 10.6295 29.8479C10.6295 29.3769 10.2462 28.9935 9.77509 28.9935ZM9.77509 31.6579C9.30418 31.6579 8.92098 32.0413 8.92098 32.5123C8.92098 32.9833 9.30418 33.3666 9.77509 33.3666C10.2462 33.3666 10.6295 32.9833 10.6295 32.5123C10.6295 32.0413 10.2462 31.6579 9.77509 31.6579Z" fill="#0F427C"/>
</svg>
