<svg width="77" height="65" viewBox="0 0 77 65" fill="none" xmlns="http://www.w3.org/2000/svg">
<path d="M27.6673 0.463501C19.5812 0.463501 12.9951 7.08545 12.9951 15.215V25.0493C12.9951 29.7192 15.2107 33.8397 18.5927 36.5451C8.10678 40.2404 0.361286 50.0359 0.00409691 61.8513C-0.0790714 63.1887 1.11654 64.466 2.44946 64.4635H50.1341C49.8295 63.9442 49.6212 63.3677 49.5227 62.7732H49.3699C47.4841 63.9538 44.7952 63.6158 43.2565 62.0049L40.8111 59.5463H5.50617C7.12513 48.1424 16.7021 39.5192 28.4315 39.8777C30.7515 39.9465 32.9413 40.3851 35.0034 41.107C35.3829 39.2266 36.9541 37.6465 38.8243 37.2654C38.1696 36.9752 37.4935 36.7244 36.8088 36.4875C40.1513 33.7807 42.3395 29.6874 42.3395 25.0493V15.215C42.3395 7.08545 35.7534 0.463501 27.6673 0.463501ZM27.6673 5.38067C33.1285 5.38067 37.4487 9.72449 37.4487 15.215V25.0493C37.4487 30.5403 33.1285 34.8837 27.6673 34.8837C22.2061 34.8837 17.8858 30.5403 17.8858 25.0493V15.215C17.8858 9.72449 22.2061 5.38067 27.6673 5.38067ZM54.3562 25.1262C53.7946 25.125 53.2498 25.3182 52.8132 25.6732C52.3766 26.0282 52.0748 26.5234 51.9585 27.0757L51.5765 28.9293C50.9656 29.1161 50.3639 29.3671 49.752 29.64L48.1281 28.622C47.6609 28.3278 47.1086 28.2009 46.5607 28.2619C46.0128 28.3229 45.5014 28.5682 45.1096 28.9581L41.346 32.742C40.9537 33.1372 40.7068 33.655 40.646 34.2101C40.5853 34.7651 40.7142 35.3245 41.0117 35.796L42.0625 37.4575C41.7902 38.0161 41.5491 38.5988 41.3365 39.1958L39.4069 39.6568C38.8714 39.7843 38.3943 40.0898 38.0528 40.5238C37.7114 40.9577 37.5254 41.4948 37.5252 42.0481V47.311C37.5254 47.8644 37.7114 48.4015 38.0528 48.8354C38.3943 49.2694 38.8714 49.5748 39.4069 49.7024L41.3365 50.1634C41.5491 50.7603 41.7902 51.334 42.0625 51.8921L41.0117 53.5535C40.7167 54.0212 40.5873 54.5753 40.6445 55.1261C40.7017 55.6768 40.9422 56.1921 41.3269 56.5883L45.0045 60.3723C45.3965 60.7744 45.914 61.0292 46.4703 61.0938C47.0267 61.1585 47.5883 61.0292 48.0612 60.7276L49.7329 59.6616C50.3367 59.9468 50.9443 60.2037 51.5669 60.4107L51.9585 62.2834C52.0748 62.8357 52.3766 63.331 52.8132 63.686C53.2498 64.041 53.7946 64.2342 54.3562 64.233H59.5908C60.1493 64.2324 60.6908 64.0397 61.1253 63.6867C61.5597 63.3338 61.861 62.842 61.9788 62.293L62.3609 60.5067C63.0193 60.2904 63.6563 60.0248 64.2904 59.7288L65.8952 60.7372C66.3595 61.0278 66.9073 61.1535 67.451 61.0943C67.9947 61.0352 68.503 60.7944 68.8946 60.4107L72.5818 56.79C72.9748 56.4026 73.2263 55.8932 73.2956 55.3442C73.3649 54.7952 73.2481 54.2387 72.9639 53.7648L71.9418 52.0745C72.2225 51.485 72.4784 50.8903 72.6868 50.2786L74.5591 49.8849C75.1084 49.7679 75.601 49.4645 75.9541 49.0256C76.3072 48.5866 76.4993 48.0389 76.4982 47.4743V42.0481C76.4976 41.4866 76.3059 40.9421 75.9548 40.5053C75.6038 40.0685 75.1146 39.7657 74.5686 39.6472L72.7824 39.263C72.5699 38.6238 72.3163 38.002 72.0277 37.3903L73.0212 35.796C73.315 35.3244 73.441 34.7664 73.3785 34.2134C73.3161 33.6604 73.0689 33.145 72.6773 32.7516L68.9233 28.9677C68.532 28.574 68.0194 28.3255 67.4694 28.2627C66.9193 28.1999 66.3644 28.3265 65.8952 28.622L64.3 29.6208C63.6956 29.3307 63.0785 29.0841 62.4469 28.8717L62.0552 27.0661C61.9374 26.5172 61.6362 26.0254 61.2017 25.6725C60.7673 25.3195 60.2257 25.1267 59.6672 25.1262H54.3562ZM56.343 30.0433H57.6994L57.9287 31.1478C58.0269 31.6024 58.2513 32.0197 58.5759 32.3512C58.9006 32.6827 59.3121 32.9148 59.7627 33.0205C61.0569 33.3254 62.2511 33.7992 63.2875 34.4419C63.6747 34.6835 64.1213 34.8115 64.577 34.8115C65.0327 34.8115 65.4794 34.6835 65.8666 34.4419L66.8409 33.8368L67.8439 34.8549L67.2421 35.8248C67.0004 36.2132 66.8714 36.6618 66.8697 37.12C66.868 37.5782 66.9937 38.0277 67.2325 38.4179C67.8706 39.4584 68.3512 40.6606 68.6558 41.9617C68.761 42.4147 68.9918 42.8285 69.3215 43.1549C69.6513 43.4813 70.0663 43.7069 70.5185 43.8056L71.6074 44.0457V45.4863L70.4421 45.736C69.9935 45.8325 69.581 46.0539 69.2516 46.3748C68.9223 46.6958 68.6893 47.1034 68.5794 47.5511C68.2588 48.8488 67.796 50.0182 67.1657 51.0277C66.9244 51.4142 66.7948 51.8605 66.7914 52.3167C66.7881 52.773 66.911 53.2212 67.1466 53.6112L67.7675 54.6484L66.8504 55.5511L65.8666 54.9365C65.4794 54.6949 65.0327 54.5669 64.577 54.5669C64.1213 54.5669 63.6747 54.6949 63.2875 54.9365C62.2494 55.5797 61.0362 56.0466 59.6958 56.3579C59.2435 56.462 58.8299 56.6934 58.5035 57.025C58.177 57.3566 57.9512 57.7748 57.8523 58.2306L57.6135 59.335H56.343L56.0946 58.1634C55.9996 57.7094 55.7787 57.2918 55.4575 56.9587C55.1364 56.6256 54.7281 56.3907 54.2797 56.281C52.9472 55.9565 51.7535 55.4954 50.7454 54.8597C50.355 54.6123 49.903 54.481 49.4415 54.481C48.9801 54.481 48.5281 54.6123 48.1377 54.8597L47.1156 55.5127L46.1795 54.5523L46.8577 53.4863C47.1027 53.0977 47.2344 52.6478 47.2378 52.1877C47.2412 51.7276 47.1161 51.2758 46.8768 50.8837C46.2303 49.8181 45.7404 48.6793 45.4535 47.4839C45.3473 47.0423 45.1215 46.6389 44.8011 46.3185C44.4808 45.9981 44.0784 45.7732 43.6386 45.6688L42.4159 45.3711V44.0073L43.6386 43.7C44.0784 43.5956 44.4808 43.3707 44.8011 43.0502C45.1215 42.7298 45.3473 42.3265 45.4535 41.8849C45.7404 40.6895 46.2303 39.5507 46.8768 38.4851C47.1161 38.0929 47.2412 37.6411 47.2378 37.181C47.2344 36.7209 47.1027 36.271 46.8577 35.8825L46.189 34.8356L47.192 33.8272L48.1568 34.4323C48.545 34.6758 48.9935 34.8049 49.4511 34.8049C49.9087 34.8049 50.3571 34.6758 50.7454 34.4323C51.6786 33.8476 52.8878 33.429 54.2797 33.0877C54.7281 32.9781 55.1364 32.7431 55.4575 32.41C55.7787 32.077 55.9996 31.6593 56.0946 31.2054L56.343 30.0433ZM57.0117 37.3038C52.9898 37.3038 49.6758 40.6362 49.6756 44.6796C49.6754 48.7235 52.9895 52.0553 57.0117 52.0553C61.0338 52.0553 64.3479 48.7235 64.3478 44.6796C64.3475 40.6362 61.0336 37.3038 57.0117 37.3038ZM57.0117 42.221C58.3917 42.221 59.4569 43.2944 59.457 44.6796C59.4571 46.0648 58.3918 47.1382 57.0117 47.1382C55.6315 47.1382 54.5662 46.0648 54.5663 44.6796C54.5664 43.2944 55.6316 42.221 57.0117 42.221Z" fill="#0F427C"/>
</svg>
