<svg width="32" height="32" viewBox="0 0 32 32" fill="none" xmlns="http://www.w3.org/2000/svg">
<g id="card_travel_24px">
<path id="icon/action/card_travel_24px" fill-rule="evenodd" clip-rule="evenodd" d="M22.666 9.42858H26.666C28.146 9.42858 29.3327 10.6152 29.3327 12.0952V26.7619C29.3327 28.2419 28.146 29.4286 26.666 29.4286H5.33268C3.85268 29.4286 2.66602 28.2419 2.66602 26.7619V12.0952C2.66602 10.6152 3.85268 9.42858 5.33268 9.42858H9.33268V6.76191C9.33268 5.28191 10.5193 4.09525 11.9993 4.09525H19.9993C21.4793 4.09525 22.666 5.28191 22.666 6.76191V9.42858ZM19.9993 6.76191H11.9993V9.42858H19.9993V6.76191ZM26.666 26.7619H5.33268V24.0952H26.666V26.7619ZM5.33268 20.0952H26.666V12.0952H22.666V14.7619H19.9993V12.0952H11.9993V14.7619H9.33268V12.0952H5.33268V20.0952Z" fill="#22244C"/>
</g>
</svg>
