<svg width="84" height="65" viewBox="0 0 84 65" fill="none" xmlns="http://www.w3.org/2000/svg">
<path d="M23.3821 48.0932H6.46151C4.88343 48.0932 3.56836 49.4083 3.56836 50.9863C3.56836 52.5644 4.88343 53.8795 6.46151 53.8795H23.2944C24.8725 53.8795 26.1875 52.5644 26.1875 50.9863C26.2752 49.4083 24.9601 48.0932 23.3821 48.0932Z" fill="#FAA017"/>
<path d="M23.1192 37.5726C23.1192 35.9945 21.8041 34.6794 20.226 34.6794H3.39315C1.81507 34.6794 0.5 35.9945 0.5 37.5726C0.5 39.1507 1.81507 40.3781 3.39315 40.3781H20.226C21.8041 40.3781 23.1192 39.1507 23.1192 37.5726Z" fill="#FAA017"/>
<path d="M23.3821 21.2657H6.46151C4.88343 21.2657 3.56836 22.5808 3.56836 24.1589C3.56836 25.737 4.88343 27.052 6.46151 27.052H23.2944C24.8725 27.052 26.1875 25.737 26.1875 24.1589C26.1875 22.5808 24.9601 21.2657 23.3821 21.2657Z" fill="#FAA017"/>
<path d="M59.7653 10.7452V6.18633H64.2365C65.8146 6.18633 67.1296 4.87126 67.1296 3.29318C67.1296 1.71509 65.8146 0.400024 64.2365 0.400024H49.5077C47.9296 0.400024 46.6146 1.71509 46.6146 3.29318C46.6146 4.87126 47.9296 6.18633 49.5077 6.18633H53.979V10.7452C40.4776 12.148 29.957 23.6329 29.957 37.485C29.957 52.3014 42.0557 64.4 56.8721 64.4C71.6885 64.4 83.7872 52.3014 83.7872 37.485C83.7872 23.6329 73.2666 12.2356 59.7653 10.7452ZM77.8255 34.6795H74.3187C72.7406 34.6795 71.4255 35.9945 71.4255 37.5726C71.4255 39.1507 72.7406 40.4658 74.3187 40.4658H77.8255C77.2995 44.148 75.8968 47.5671 73.705 50.4603L71.1625 47.9178C70.0228 46.7781 68.1817 46.7781 67.1296 47.9178C66.0776 49.0576 65.9899 50.8987 67.1296 51.9507L69.6721 54.4932C66.779 56.685 63.4474 58.0877 59.6776 58.6137V55.0192C59.6776 53.4411 58.3625 52.1261 56.7844 52.1261C55.2063 52.1261 53.8913 53.4411 53.8913 55.0192V58.526C50.2091 58 46.7899 56.5096 43.9844 54.3178L46.4392 51.863C47.579 50.7233 47.579 48.8822 46.4392 47.8302C45.2995 46.6904 43.4584 46.6904 42.4063 47.8302L39.9516 50.285C37.8474 47.4795 36.357 44.0603 35.9187 40.3781H39.3379C40.9159 40.3781 42.231 39.063 42.231 37.485C42.231 35.9069 40.9159 34.5918 39.3379 34.5918H35.9187C36.4447 30.9096 37.9351 27.5781 40.0392 24.7726L42.494 27.2274C43.02 27.7534 43.8091 28.1041 44.5105 28.1041C45.2118 28.1041 46.0009 27.8411 46.5269 27.2274C47.6666 26.0877 47.6666 24.2466 46.5269 23.1945L44.1598 20.8274C46.9653 18.7233 50.3844 17.2329 54.0666 16.7069V20.1261C54.0666 21.7041 55.3817 23.0192 56.9598 23.0192C58.5379 23.0192 59.8529 21.7041 59.8529 20.1261V16.7069C69.1461 17.8466 76.5105 25.2987 77.8255 34.6795Z" fill="#0F427C"/>
<path d="M57.1348 31.874C55.5567 31.7863 53.9787 32.3123 52.7513 33.5397C50.5595 35.7315 50.5595 39.326 52.7513 41.6055C54.943 43.7973 58.5376 43.7973 60.817 41.6055C62.0444 40.3781 62.5704 38.8 62.4828 37.2219L68.9704 28.2795C70.2855 26.4384 68.0061 24.1589 66.165 25.474L57.1348 31.874Z" fill="#0F427C"/>
</svg>
