<svg width="96" height="96" viewBox="0 0 96 96" fill="none" xmlns="http://www.w3.org/2000/svg">
<g clip-path="url(#clip0)">
<path d="M80.2127 63.984C80.8247 64.224 81.1487 64.848 80.9647 65.444V65.452C80.7206 66.228 79.8007 66.64 78.9967 66.328C71.0327 63.236 65.9607 59.7 63.3247 55.464C60.0367 50.188 61.0767 44.736 62.0807 39.464C62.5687 36.904 63.0287 34.484 63.0287 32.076C63.0287 24.328 57.2927 19.66 51.6127 18.476C45.9127 17.288 37.6367 19.084 33.0727 28.072C29.1127 35.868 23.8927 38.396 13.7367 40.936C12.8447 41.156 11.9727 40.516 12.0007 39.656V39.64C12.0207 39.064 12.4407 38.572 13.0407 38.424C23.3207 35.84 27.1847 33.592 30.5487 26.964C35.8167 16.592 45.5167 14.548 52.2167 15.948C60.3487 17.644 65.8087 24.128 65.8087 32.076C65.8087 34.712 65.3047 37.36 64.8167 39.916C63.8527 44.952 62.9487 49.704 65.7247 54.16C68.0407 57.872 72.8127 61.112 80.2127 63.984ZM49.0567 67.864C45.8287 69.928 39.6247 73.896 23.2047 78.76C22.7927 78.884 22.4607 79.176 22.3127 79.552C21.9207 80.532 22.8807 81.576 23.9727 81.252C40.8487 76.26 47.2927 72.14 50.6367 70.004C52.6447 68.72 52.9247 68.732 54.3327 69.936C56.5727 71.852 61.0447 75.672 72.9687 80.032C73.5887 80.26 74.2967 80.032 74.6327 79.496L74.6367 79.488C75.0687 78.796 74.7407 77.904 73.9327 77.608C62.5487 73.44 58.3367 69.84 56.2167 68.032C53.4567 65.668 52.5207 65.648 49.0567 67.864ZM58.7327 52.456C58.2447 51.2 57.9487 50.12 56.7247 49.892C55.4887 49.664 54.5567 50.516 52.7167 52.216C48.6847 55.932 39.6007 64.296 18.5047 69.836C17.6927 70.048 17.2687 70.868 17.5727 71.584C17.8287 72.188 18.5367 72.52 19.2087 72.344C41.0327 66.624 50.4807 57.916 54.6767 54.056C55.4687 53.328 55.9567 52.948 56.3727 54.004C58.0607 58.264 61.4167 65.088 77.4167 71.012C78.1527 71.284 78.9887 70.94 79.2647 70.248C79.5207 69.6 79.1767 68.88 78.4847 68.624C62.7527 62.808 60.2047 56.252 58.7327 52.456ZM56.9127 60.916C54.8967 58.396 54.0327 57.836 50.5007 60.632C47.2527 63.2 40.0727 68.88 20.6247 74.368C19.7927 74.604 19.3847 75.48 19.7727 76.204C20.0687 76.764 20.7567 77.04 21.3967 76.86C41.4287 71.208 48.9207 65.288 52.3047 62.612C53.3447 61.788 54.0327 61.656 54.6807 62.468C56.8847 65.22 61.0047 70.36 75.3847 75.6C76.0767 75.852 76.8647 75.56 77.1807 74.932C77.5127 74.264 77.1687 73.472 76.4287 73.204C62.7727 68.236 58.9567 63.476 56.9127 60.916ZM70.9487 51.856C68.7647 48.024 69.5127 43.476 70.3047 38.664C71.2687 32.8 72.3647 26.152 68.0087 19.924C64.3207 14.652 57.8567 11.088 50.7167 10.396C43.4327 9.684 36.3047 12.028 31.1527 16.82C28.8207 18.988 27.5127 21.24 26.2487 23.416C23.9247 27.42 21.8727 30.944 13.4567 32.852C12.8847 32.984 12.4607 33.432 12.4047 33.98V33.984C12.3127 34.868 13.1847 35.576 14.1167 35.364C23.7527 33.16 26.2647 28.84 28.7007 24.652C29.8687 22.64 31.0807 20.556 33.1247 18.652C37.6807 14.416 43.9887 12.344 50.4287 12.972C56.7447 13.584 62.4447 16.716 65.6767 21.336C69.4527 26.736 68.4887 32.6 67.5527 38.268C66.1287 46.9 64.6687 55.788 80.4447 61.668C81.2047 61.952 82.0607 61.532 82.2407 60.788C82.3967 60.136 82.0207 59.472 81.3567 59.224C76.0647 57.24 72.6327 54.804 70.9487 51.856ZM81.5167 37.168C82.1927 31.992 82.9647 26.128 80.6887 20.008C76.6487 9.128 65.4727 1.936 53.1167 0.34C51.3367 0.112 49.5727 0 47.8327 0C36.4767 0 26.2407 4.84 19.7607 13.476C18.0047 15.82 16.8207 17.84 15.5527 19.332C15.0207 19.96 15.2167 20.908 16.0047 21.284C16.5927 21.568 17.3167 21.424 17.7247 20.94C19.1487 19.272 20.2927 17.296 22.0447 14.956C28.9007 5.812 40.3767 1.308 52.7327 2.908C64.6407 4.448 74.5807 11.492 78.0607 20.856C80.1207 26.408 79.3967 31.956 78.7567 36.856C78.0167 42.492 77.3127 47.9 81.8447 50.988C82.6967 51.572 83.9087 51.056 83.9967 50.076C84.0407 49.588 83.8167 49.108 83.4047 48.808C80.2887 46.544 80.8047 42.616 81.5167 37.168ZM76.0047 38.504C76.8567 32.72 77.8247 26.168 74.1607 19.208C70.4167 12.096 63.1887 7.096 54.3247 5.484C44.9047 3.772 35.4047 6.204 28.2607 12.152C25.2847 14.628 23.6367 17.24 22.1807 19.544C20.2127 22.656 18.5607 25.268 14.1527 26.912C13.1687 27.276 12.9687 28.5 13.7927 29.12C14.1847 29.416 14.7127 29.488 15.1807 29.316C20.4727 27.352 22.4807 24.176 24.5807 20.856C26.0007 18.612 27.4647 16.292 30.1167 14.084C36.6047 8.68 45.2327 6.476 53.7887 8.028C61.7887 9.48 68.3047 13.972 71.6567 20.348C74.9447 26.596 74.0407 32.736 73.2447 38.156C72.1647 45.476 71.1367 52.46 81.4327 56.656C82.2247 56.98 83.1327 56.516 83.2647 55.72C83.3687 55.108 83.0127 54.508 82.4047 54.256C74.1767 50.9 74.9447 45.692 76.0047 38.504ZM48.3047 74.3C45.3167 75.98 39.7887 79.088 26.4367 83.092C25.5087 83.368 25.1607 84.428 25.7687 85.144L25.7767 85.152C26.1247 85.564 26.7167 85.732 27.2527 85.568C40.9447 81.464 46.6647 78.252 49.7487 76.52C52.4727 74.988 52.0727 74.984 54.8327 76.756C57.4887 78.464 61.9447 81.328 69.9207 84.264C70.5287 84.488 71.2287 84.304 71.6127 83.808L71.6167 83.804C72.1407 83.136 71.8447 82.184 71.0167 81.88C63.2767 79.036 58.9767 76.272 56.4127 74.624C52.8367 72.328 52.2127 72.104 48.3047 74.3ZM49.2767 33.132C49.5567 32.464 49.2007 31.716 48.4847 31.456C47.7687 31.196 46.9607 31.528 46.6807 32.192C42.0327 43.28 29.9447 51.66 14.1847 54.796C13.4647 54.94 12.9927 55.58 13.1087 56.256V56.276C13.2367 57 13.9847 57.48 14.7647 57.328C22.1727 55.852 29.0247 53.212 34.6727 49.648C41.6047 45.276 46.5167 39.72 49.2767 33.132ZM59.6567 36.9C61.1927 33.236 60.7447 29.328 58.4327 26.176C56.0887 22.98 52.0167 20.996 47.8127 20.996C42.6407 20.996 38.2287 23.844 36.3127 28.428C33.1447 35.984 24.5567 41.852 13.0887 44.404C12.4407 44.548 11.9887 45.096 12.0127 45.72V45.724C12.0407 46.536 12.8647 47.116 13.7167 46.928C26.0807 44.176 35.4007 37.724 38.9047 29.368C40.4007 25.8 43.8127 23.584 47.8127 23.584C51.1087 23.584 54.2967 25.136 56.1327 27.636C57.9207 30.068 58.2567 33.104 57.0607 35.956C53.6767 44.036 47.7247 50.804 39.3687 56.08C32.8887 60.172 25.0887 63.196 16.7127 64.888C16.3327 64.964 16.0007 65.184 15.8047 65.5C15.6087 65.816 15.5567 66.188 15.6727 66.536V66.544C15.8847 67.188 16.5847 67.564 17.2847 67.424C26.0087 65.668 34.1447 62.508 40.9247 58.228C49.7607 52.652 56.0607 45.476 59.6567 36.9ZM54.4647 35.016C55.3247 32.972 55.0927 30.816 53.8327 29.1C52.5047 27.296 50.1967 26.176 47.8087 26.176C44.9407 26.176 42.5767 27.72 41.4967 30.308C37.5727 39.664 27.1607 46.808 13.4607 49.636C12.7767 49.776 12.3167 50.368 12.3807 51.012V51.036C12.4647 51.804 13.2447 52.332 14.0567 52.168C28.6687 49.148 39.8207 41.416 44.0807 31.252C44.8167 29.504 46.3007 28.768 47.8007 28.768C50.4407 28.768 53.1327 31.044 51.8647 34.076C48.8927 41.16 43.6327 47.12 36.2287 51.796C30.2687 55.556 23.0487 58.336 15.2687 59.88C14.5007 60.032 14.0207 60.74 14.1927 61.452C14.3607 62.132 15.0887 62.564 15.8247 62.416C23.9607 60.808 31.5287 57.892 37.7887 53.94C45.6807 48.964 51.2887 42.596 54.4647 35.016ZM46.8247 91.648C45.6207 92.108 44.0447 92.712 41.9087 93.46C41.3367 93.66 40.9687 94.184 40.9967 94.752C41.0327 95.464 41.6727 96 42.3527 96C42.8127 96 47.4527 94.208 47.8807 94.044C51.7887 92.548 51.2847 92.552 54.4527 93.996L56.4647 94.904C57.3247 95.288 58.2927 94.604 58.3127 93.728C58.3207 93.204 58.0047 92.724 57.4967 92.496L55.6727 91.672C51.8487 89.928 51.6847 89.788 46.8247 91.648ZM47.7167 80.332C45.0007 81.616 40.2407 83.872 30.1767 86.96C29.7127 87.104 29.3607 87.46 29.2527 87.908C29.0127 88.888 30.0047 89.74 31.0287 89.428C41.3087 86.272 46.1967 83.96 48.9807 82.64C52.0567 81.18 51.5767 81.196 54.7847 82.888C57.1847 84.152 60.8847 86.1 66.3367 88.248C67.3727 88.66 68.4967 87.824 68.2647 86.796C68.1727 86.38 67.8687 86.036 67.4487 85.872C62.1127 83.768 58.4967 81.864 56.1527 80.632C52.2367 78.568 51.9007 78.348 47.7167 80.332ZM47.2647 85.968C45.0047 86.912 41.3727 88.428 34.9127 90.496C34.4087 90.66 34.0447 91.076 33.9807 91.568C33.8527 92.516 34.8327 93.264 35.8007 92.952C42.3887 90.844 46.1007 89.296 48.4047 88.332C51.8967 86.872 51.3927 86.864 54.6127 88.424C56.3407 89.256 58.7407 90.42 62.0087 91.76C63.0087 92.176 64.2007 91.484 64.0687 90.448C64.0127 90.008 63.7087 89.624 63.2727 89.448C60.0007 88.112 57.6087 86.952 55.8967 86.124C51.9927 84.236 51.7687 84.084 47.2647 85.968Z" fill="#FEBA15"/>
</g>
<defs>
<clipPath id="clip0">
<rect width="96" height="96" fill="white"/>
</clipPath>
</defs>
</svg>
