<svg width="45" height="45" viewBox="0 0 45 45" fill="none" xmlns="http://www.w3.org/2000/svg">
<path d="M41.1082 21.3233L28.8902 18.5873V9.12192L40.8975 11.811C40.9334 11.8187 40.9681 11.8226 41.0035 11.8226C41.2239 11.8226 41.4224 11.6701 41.4725 11.4457C41.531 11.1858 41.3678 10.9279 41.1082 10.8694L28.6422 8.07742L23.1821 2.94113C23.1622 2.92248 23.1378 2.91476 23.1159 2.89997C23.0883 2.88132 23.062 2.85945 23.0311 2.84723C23.0035 2.8363 22.9752 2.83372 22.9463 2.82794C22.9142 2.8215 22.8834 2.8125 22.8512 2.8125C22.821 2.8125 22.7934 2.8215 22.7638 2.82665C22.7324 2.83244 22.7015 2.83565 22.672 2.84723C22.6424 2.85945 22.618 2.88003 22.591 2.89804C22.5679 2.91283 22.5428 2.92184 22.5223 2.94049L17.0616 8.07678L4.59554 10.8694C4.33596 10.9273 4.17212 11.1858 4.23059 11.4457C4.2807 11.6701 4.47988 11.8226 4.70091 11.8226C4.7356 11.8226 4.77094 11.8187 4.80628 11.811L16.8135 9.12192V18.5873L4.59554 21.3233C4.33596 21.3812 4.17212 21.6398 4.23059 21.8996C4.2807 22.1241 4.47988 22.2765 4.70026 22.2765C4.73496 22.2765 4.7703 22.2726 4.80564 22.2649L16.7005 19.6009L13.0741 41.2228H10.5028C10.2368 41.2228 10.0209 41.4389 10.0209 41.7051C10.0209 41.9714 10.2368 42.1875 10.5028 42.1875H35.2016C35.4676 42.1875 35.6835 41.9714 35.6835 41.7051C35.6835 41.4389 35.4676 41.2228 35.2016 41.2228H32.629L29.002 19.6009L40.8975 22.2649C40.9334 22.2726 40.9681 22.2765 41.0035 22.2765C41.2239 22.2765 41.4224 22.1241 41.4725 21.8996C41.531 21.6398 41.3678 21.3819 41.1082 21.3233ZM22.8519 3.95476L27.192 8.03755H18.5111L22.8519 3.95476ZM26.5971 19.4562L22.8519 21.6031L19.106 19.4562H26.5971ZM18.5111 18.4915L22.8519 14.4087L27.192 18.4915H18.5111ZM23.5554 13.7469L27.9271 9.63516V17.8586L23.5554 13.7469ZM22.8519 13.0844L18.5111 9.00164H27.192L22.8519 13.0844ZM22.1483 13.7469L17.7767 17.8586V9.63516L22.1483 13.7469ZM21.8823 22.1588L16.7564 25.0968L17.6552 19.736L21.8823 22.1588ZM22.8519 22.7145L28.5754 25.9953L22.8519 28.8959L17.1277 25.9946L22.8519 22.7145ZM16.4801 26.7471L21.7853 29.4362L15.4938 32.625L16.4801 26.7471ZM22.8519 29.9771L29.7467 33.472L22.8519 36.7361L15.9571 33.472L22.8519 29.9771ZM15.231 34.1949L21.7255 37.2692L14.1105 40.8742L15.231 34.1949ZM22.8519 37.8031L30.0763 41.2228H15.6281L22.8519 37.8031ZM23.9788 37.2692L30.4733 34.1943L31.5939 40.8755L23.9788 37.2692ZM23.9184 29.4362L29.2243 26.7471L30.2099 32.625L23.9184 29.4362ZM23.8214 22.1588L28.0485 19.736L28.9474 25.0968L23.8214 22.1588Z" fill="#0F427C"/>
</svg>
