<svg width="153" height="46" viewBox="0 0 153 46" fill="none" xmlns="http://www.w3.org/2000/svg">
<rect x="0.31131" width="152.588" height="45.9782" rx="10" fill="#113255"/>
<path d="M32.6199 22.763C32.6318 21.8431 32.8761 20.9411 33.3302 20.141C33.7843 19.3409 34.4334 18.6687 35.2171 18.1869C34.7193 17.4758 34.0625 16.8907 33.2989 16.4779C32.5353 16.065 31.686 15.836 30.8184 15.8088C28.9676 15.6146 27.1734 16.9163 26.2303 16.9163C25.2689 16.9163 23.8169 15.8281 22.2532 15.8603C21.2419 15.893 20.2562 16.1871 19.3922 16.714C18.5283 17.2408 17.8156 17.9825 17.3235 18.8668C15.192 22.5572 16.7819 27.9808 18.8237 30.9639C19.8453 32.4246 21.0392 34.0562 22.6014 33.9984C24.1301 33.9349 24.7011 33.0235 26.5464 33.0235C28.3746 33.0235 28.9102 33.9984 30.5042 33.9616C32.1445 33.9349 33.1781 32.4944 34.1638 31.0198C34.8978 29.979 35.4626 28.8287 35.8373 27.6115C34.8843 27.2084 34.071 26.5337 33.4988 25.6715C32.9267 24.8093 32.621 23.7978 32.6199 22.763Z" fill="white"/>
<path d="M29.6082 13.8471C30.5026 12.7734 30.9432 11.3934 30.8365 10C29.4701 10.1435 28.2079 10.7966 27.3014 11.8291C26.8582 12.3335 26.5187 12.9203 26.3024 13.556C26.0861 14.1917 25.9972 14.8638 26.0408 15.5338C26.7243 15.5408 27.4005 15.3927 28.0184 15.1005C28.6363 14.8084 29.1799 14.3798 29.6082 13.8471Z" fill="white"/>
<path d="M47.9926 10.2939C48.3822 10.2659 48.7731 10.3248 49.1373 10.4662C49.5014 10.6076 49.8296 10.8281 50.0981 11.1118C50.3667 11.3954 50.569 11.7351 50.6904 12.1063C50.8118 12.4776 50.8493 12.8712 50.8002 13.2587C50.8002 15.165 49.7699 16.2607 47.9926 16.2607H45.8373V10.2939H47.9926ZM46.764 15.4169H47.889C48.1675 15.4335 48.4461 15.3879 48.7046 15.2833C48.9631 15.1786 49.1951 15.0177 49.3836 14.8121C49.5721 14.6066 49.7124 14.3616 49.7942 14.0949C49.8761 13.8283 49.8975 13.5468 49.8568 13.2709C49.8945 12.996 49.871 12.7163 49.7879 12.4516C49.7047 12.1869 49.5641 11.9439 49.376 11.74C49.188 11.5361 48.9571 11.3763 48.7001 11.272C48.443 11.1678 48.166 11.1217 47.889 11.1371H46.764V15.4169Z" fill="white"/>
<path d="M51.8473 14.0073C51.819 13.7114 51.8529 13.4128 51.9467 13.1307C52.0406 12.8487 52.1923 12.5893 52.3923 12.3693C52.5922 12.1493 52.8359 11.9736 53.1078 11.8533C53.3796 11.733 53.6736 11.6709 53.9709 11.6709C54.2681 11.6709 54.5621 11.733 54.834 11.8533C55.1058 11.9736 55.3495 12.1493 55.5495 12.3693C55.7494 12.5893 55.9012 12.8487 55.995 13.1307C56.0889 13.4128 56.1227 13.7114 56.0944 14.0073C56.1233 14.3035 56.0898 14.6025 55.9962 14.885C55.9026 15.1675 55.751 15.4273 55.551 15.6478C55.351 15.8682 55.1071 16.0443 54.835 16.1648C54.5628 16.2854 54.2685 16.3476 53.9709 16.3476C53.6733 16.3476 53.3789 16.2854 53.1068 16.1648C52.8347 16.0443 52.5908 15.8682 52.3908 15.6478C52.1908 15.4273 52.0391 15.1675 51.9455 14.885C51.8519 14.6025 51.8185 14.3035 51.8473 14.0073ZM55.1803 14.0073C55.1803 13.0312 54.7419 12.4604 53.9723 12.4604C53.1999 12.4604 52.7653 13.0312 52.7653 14.0073C52.7653 14.9912 53.1999 15.5576 53.9723 15.5576C54.7419 15.5576 55.1804 14.9873 55.1804 14.0073H55.1803Z" fill="white"/>
<path d="M61.7396 16.2607H60.8178L59.8871 12.9443H59.8168L58.89 16.2607H57.9769L56.7357 11.7578H57.6371L58.4437 15.1938H58.5102L59.4359 11.7578H60.2885L61.2143 15.1938H61.2846L62.0873 11.7578H62.976L61.7396 16.2607Z" fill="white"/>
<path d="M64.0189 11.7574H64.8744V12.4727H64.9408C65.0535 12.2158 65.2435 12.0004 65.4843 11.8566C65.7252 11.7128 66.005 11.6477 66.2846 11.6704C66.5037 11.654 66.7237 11.687 66.9283 11.7671C67.1329 11.8472 67.3168 11.9723 67.4665 12.1332C67.6162 12.294 67.7278 12.4865 67.793 12.6963C67.8582 12.9061 67.8753 13.1279 67.8432 13.3452V16.2602H66.9545V13.5684C66.9545 12.8448 66.64 12.4849 65.9828 12.4849C65.834 12.478 65.6855 12.5033 65.5475 12.5591C65.4094 12.615 65.2851 12.7 65.183 12.8084C65.0808 12.9168 65.0034 13.0459 64.9558 13.1871C64.9083 13.3282 64.8918 13.4779 64.9076 13.626V16.2603H64.0189L64.0189 11.7574Z" fill="white"/>
<path d="M69.2592 10H70.1478V16.2607H69.2592V10Z" fill="white"/>
<path d="M71.3844 14.0074C71.3561 13.7114 71.39 13.4128 71.4839 13.1308C71.5777 12.8487 71.7295 12.5893 71.9295 12.3693C72.1294 12.1494 72.3732 11.9736 72.645 11.8533C72.9169 11.733 73.2109 11.6709 73.5082 11.6709C73.8055 11.6709 74.0995 11.733 74.3714 11.8533C74.6432 11.9736 74.887 12.1494 75.0869 12.3693C75.2869 12.5893 75.4387 12.8487 75.5325 13.1308C75.6264 13.4128 75.6603 13.7114 75.632 14.0074C75.6608 14.3036 75.6273 14.6026 75.5337 14.8851C75.4401 15.1676 75.2884 15.4274 75.0884 15.6478C74.8884 15.8683 74.6444 16.0444 74.3723 16.1649C74.1002 16.2854 73.8058 16.3477 73.5082 16.3477C73.2106 16.3477 72.9162 16.2854 72.6441 16.1649C72.372 16.0444 72.1281 15.8683 71.928 15.6478C71.728 15.4274 71.5763 15.1676 71.4827 14.8851C71.3891 14.6026 71.3556 14.3036 71.3844 14.0074ZM74.7174 14.0074C74.7174 13.0313 74.2789 12.4605 73.5094 12.4605C72.737 12.4605 72.3024 13.0313 72.3024 14.0074C72.3024 14.9913 72.737 15.5577 73.5094 15.5577C74.279 15.5577 74.7174 14.9873 74.7174 14.0074H74.7174Z" fill="white"/>
<path d="M76.5678 14.9873C76.5678 14.1767 77.1713 13.7095 78.2426 13.6431L79.4623 13.5727V13.1841C79.4623 12.7085 79.1478 12.4399 78.5404 12.4399C78.0443 12.4399 77.7006 12.6221 77.6019 12.9404H76.7416C76.8324 12.167 77.56 11.6709 78.5814 11.6709C79.7103 11.6709 80.3471 12.2329 80.3471 13.1841V16.2607H79.4916V15.6279H79.4213C79.2786 15.8549 79.0782 16.04 78.8405 16.1642C78.6029 16.2884 78.3366 16.3473 78.0687 16.3349C77.8797 16.3546 77.6887 16.3344 77.5079 16.2757C77.3271 16.217 77.1607 16.1211 77.0193 15.9941C76.8778 15.8672 76.7646 15.712 76.6868 15.5386C76.6091 15.3651 76.5685 15.1774 76.5678 14.9873ZM79.4623 14.6025V14.2261L78.3627 14.2964C77.7426 14.3379 77.4613 14.5488 77.4613 14.9458C77.4613 15.3511 77.8129 15.5869 78.2963 15.5869C78.438 15.6012 78.581 15.5869 78.717 15.5448C78.853 15.5028 78.9792 15.4337 79.088 15.3419C79.1968 15.2501 79.286 15.1373 79.3503 15.0102C79.4146 14.8832 79.4527 14.7446 79.4623 14.6025Z" fill="white"/>
<path d="M81.515 14.0073C81.515 12.5845 82.2465 11.6831 83.3842 11.6831C83.6656 11.6702 83.9449 11.7376 84.1894 11.8775C84.4339 12.0173 84.6336 12.224 84.765 12.4731H84.8314V10H85.7201V16.2607H84.8686V15.5493H84.7982C84.6566 15.7968 84.45 16.0008 84.2008 16.1393C83.9515 16.2778 83.6691 16.3455 83.3842 16.3349C82.2387 16.335 81.515 15.4336 81.515 14.0073ZM82.433 14.0073C82.433 14.9624 82.8832 15.5371 83.6362 15.5371C84.3852 15.5371 84.8481 14.9541 84.8481 14.0112C84.8481 13.0728 84.3803 12.4815 83.6362 12.4815C82.8881 12.4815 82.433 13.0601 82.433 14.0073H82.433Z" fill="white"/>
<path d="M89.3962 14.0073C89.3679 13.7114 89.4017 13.4128 89.4955 13.1307C89.5894 12.8487 89.7411 12.5893 89.9411 12.3693C90.141 12.1493 90.3847 11.9736 90.6566 11.8533C90.9284 11.733 91.2224 11.6709 91.5197 11.6709C91.817 11.6709 92.111 11.733 92.3828 11.8533C92.6547 11.9736 92.8984 12.1493 93.0983 12.3693C93.2983 12.5893 93.45 12.8487 93.5439 13.1307C93.6377 13.4128 93.6715 13.7114 93.6432 14.0073C93.6721 14.3035 93.6386 14.6025 93.545 14.885C93.4514 15.1675 93.2998 15.4273 93.0998 15.6478C92.8998 15.8682 92.6559 16.0443 92.3838 16.1648C92.1117 16.2854 91.8173 16.3476 91.5197 16.3476C91.2221 16.3476 90.9277 16.2854 90.6556 16.1648C90.3835 16.0443 90.1396 15.8682 89.9396 15.6478C89.7396 15.4273 89.588 15.1675 89.4944 14.885C89.4008 14.6025 89.3673 14.3035 89.3962 14.0073ZM92.7292 14.0073C92.7292 13.0312 92.2907 12.4604 91.5212 12.4604C90.7487 12.4604 90.3142 13.0312 90.3142 14.0073C90.3142 14.9912 90.7487 15.5576 91.5212 15.5576C92.2907 15.5576 92.7292 14.9873 92.7292 14.0073Z" fill="white"/>
<path d="M94.8353 11.7574H95.6908V12.4727H95.7572C95.8699 12.2158 96.0599 12.0004 96.3008 11.8566C96.5416 11.7128 96.8214 11.6477 97.101 11.6704C97.3201 11.654 97.5401 11.687 97.7447 11.7671C97.9493 11.8472 98.1332 11.9723 98.2829 12.1332C98.4326 12.294 98.5442 12.4865 98.6094 12.6963C98.6746 12.9061 98.6917 13.1279 98.6596 13.3452V16.2602H97.7709V13.5684C97.7709 12.8448 97.4564 12.4849 96.7992 12.4849C96.6505 12.478 96.502 12.5033 96.3639 12.5591C96.2258 12.615 96.1015 12.7 95.9994 12.8084C95.8972 12.9168 95.8198 13.0459 95.7722 13.1871C95.7247 13.3282 95.7083 13.4779 95.724 13.626V16.2603H94.8353V11.7574Z" fill="white"/>
<path d="M103.682 10.6367V11.7783H104.658V12.5269H103.682V14.8423C103.682 15.314 103.876 15.5205 104.319 15.5205C104.432 15.5201 104.545 15.5133 104.658 15.5V16.2402C104.498 16.2688 104.336 16.284 104.174 16.2856C103.186 16.2856 102.792 15.938 102.792 15.0698V12.5268H102.078V11.7783H102.792V10.6367H103.682Z" fill="white"/>
<path d="M105.87 10H106.751V12.4815H106.822C106.94 12.2221 107.135 12.0055 107.381 11.8612C107.626 11.7168 107.911 11.6518 108.195 11.6748C108.413 11.6629 108.631 11.6993 108.833 11.7814C109.035 11.8634 109.217 11.9891 109.365 12.1494C109.513 12.3098 109.624 12.5008 109.69 12.709C109.755 12.9171 109.775 13.1372 109.745 13.3535V16.2607H108.856V13.5728C108.856 12.8535 108.521 12.4893 107.893 12.4893C107.74 12.4767 107.587 12.4977 107.443 12.5508C107.299 12.6038 107.169 12.6877 107.061 12.7964C106.953 12.9051 106.87 13.0362 106.818 13.1803C106.766 13.3244 106.746 13.4782 106.759 13.6308V16.2607H105.871L105.87 10Z" fill="white"/>
<path d="M114.927 15.045C114.806 15.4565 114.544 15.8125 114.188 16.0507C113.831 16.2888 113.402 16.394 112.976 16.3477C112.679 16.3556 112.384 16.2987 112.112 16.1812C111.839 16.0637 111.595 15.8883 111.398 15.6671C111.2 15.446 111.052 15.1844 110.966 14.9006C110.879 14.6168 110.855 14.3175 110.896 14.0235C110.856 13.7286 110.88 13.4287 110.967 13.144C111.053 12.8594 111.2 12.5966 111.397 12.3735C111.594 12.1504 111.836 11.9723 112.108 11.8511C112.38 11.7299 112.674 11.6684 112.972 11.671C114.225 11.671 114.981 12.527 114.981 13.941V14.2511H111.801V14.3009C111.787 14.4661 111.808 14.6324 111.862 14.7892C111.916 14.9459 112.002 15.0896 112.115 15.2111C112.228 15.3326 112.365 15.4291 112.517 15.4945C112.67 15.5599 112.834 15.5927 113 15.5909C113.213 15.6164 113.428 15.5781 113.619 15.4809C113.81 15.3837 113.967 15.2319 114.071 15.045L114.927 15.045ZM111.801 13.5938H114.075C114.086 13.4427 114.066 13.2909 114.015 13.1482C113.964 13.0055 113.884 12.875 113.779 12.7651C113.675 12.6553 113.549 12.5685 113.409 12.5103C113.269 12.4521 113.118 12.4239 112.967 12.4273C112.813 12.4254 112.661 12.4543 112.518 12.5122C112.376 12.5701 112.247 12.656 112.138 12.7647C112.029 12.8734 111.943 13.0028 111.886 13.1452C111.828 13.2876 111.799 13.4401 111.801 13.5938H111.801Z" fill="white"/>
<path d="M53.7123 29.627H48.9789L47.8422 32.9834H45.8373L50.3207 20.5654H52.4037L56.8871 32.9834H54.848L53.7123 29.627ZM49.4691 28.0781H53.2211L51.3715 22.6309H51.3198L49.4691 28.0781Z" fill="white"/>
<path d="M66.5688 28.4568C66.5688 31.2702 65.0629 33.0778 62.7905 33.0778C62.2148 33.108 61.6423 32.9754 61.1385 32.6952C60.6347 32.4151 60.22 31.9987 59.9418 31.4938H59.8988V35.9782H58.0404V23.9294H59.8393V25.4353H59.8735C60.1644 24.9328 60.5861 24.5186 61.0938 24.2368C61.6014 23.9549 62.1759 23.816 62.7563 23.8347C65.0541 23.8347 66.5688 25.6511 66.5688 28.4568ZM64.6586 28.4568C64.6586 26.6238 63.7113 25.4187 62.266 25.4187C60.8461 25.4187 59.891 26.6491 59.891 28.4568C59.891 30.281 60.8461 31.5027 62.266 31.5027C63.7113 31.5027 64.6586 30.3064 64.6586 28.4568Z" fill="white"/>
<path d="M76.5336 28.4567C76.5336 31.2702 75.0278 33.0778 72.7553 33.0778C72.1796 33.108 71.6071 32.9753 71.1033 32.6952C70.5996 32.4151 70.1848 31.9987 69.9067 31.4938H69.8637V35.9782H68.0053V23.9294H69.8041V25.4353H69.8383C70.1292 24.9328 70.551 24.5186 71.0586 24.2368C71.5662 23.9549 72.1408 23.816 72.7211 23.8347C75.019 23.8347 76.5336 25.6511 76.5336 28.4567ZM74.6235 28.4567C74.6235 26.6237 73.6762 25.4187 72.2309 25.4187C70.811 25.4187 69.8559 26.6491 69.8559 28.4567C69.8559 30.281 70.811 31.5026 72.2309 31.5026C73.6762 31.5026 74.6235 30.3064 74.6235 28.4567H74.6235Z" fill="white"/>
<path d="M83.1205 29.5235C83.2582 30.7549 84.4545 31.5635 86.0892 31.5635C87.6557 31.5635 88.7826 30.7549 88.7826 29.6445C88.7826 28.6807 88.1029 28.1035 86.4935 27.708L84.8842 27.3203C82.6039 26.7695 81.5453 25.7031 81.5453 23.9727C81.5453 21.8301 83.4125 20.3584 86.0639 20.3584C88.6879 20.3584 90.4867 21.8301 90.5473 23.9727H88.6713C88.559 22.7334 87.5345 21.9854 86.0375 21.9854C84.5404 21.9854 83.516 22.7422 83.516 23.8438C83.516 24.7217 84.1703 25.2383 85.7709 25.6338L87.139 25.9697C89.6869 26.5722 90.7455 27.5957 90.7455 29.4121C90.7455 31.7353 88.8949 33.1904 85.9515 33.1904C83.1976 33.1904 81.3382 31.7695 81.2181 29.5234L83.1205 29.5235Z" fill="white"/>
<path d="M94.7572 21.7871V23.9297H96.4789V25.4014H94.7572V30.3926C94.7572 31.168 95.1019 31.5293 95.8588 31.5293C96.0632 31.5257 96.2672 31.5114 96.4701 31.4863V32.9492C96.1298 33.0128 95.784 33.0416 95.4379 33.0351C93.6049 33.0351 92.89 32.3466 92.89 30.5908V25.4014H91.5736V23.9297H92.89V21.7871H94.7572Z" fill="white"/>
<path d="M97.476 28.457C97.476 25.6084 99.1537 23.8184 101.77 23.8184C104.395 23.8184 106.065 25.6084 106.065 28.457C106.065 31.3135 104.404 33.0957 101.77 33.0957C99.1371 33.0957 97.476 31.3135 97.476 28.457ZM104.171 28.457C104.171 26.5029 103.276 25.3496 101.77 25.3496C100.264 25.3496 99.3695 26.5117 99.3695 28.457C99.3695 30.4189 100.264 31.5635 101.77 31.5635C103.276 31.5635 104.171 30.4189 104.171 28.457H104.171Z" fill="white"/>
<path d="M107.595 23.9293H109.368V25.4703H109.411C109.53 24.989 109.812 24.5637 110.209 24.2658C110.606 23.9679 111.093 23.8157 111.588 23.8346C111.802 23.8338 112.016 23.8571 112.225 23.9039V25.6422C111.955 25.5596 111.673 25.5217 111.39 25.5299C111.12 25.5189 110.851 25.5666 110.601 25.6694C110.351 25.7723 110.127 25.9281 109.943 26.1259C109.759 26.3238 109.62 26.5592 109.535 26.8159C109.451 27.0725 109.423 27.3444 109.454 27.6129V32.983H107.595L107.595 23.9293Z" fill="white"/>
<path d="M120.795 30.3242C120.545 31.9678 118.945 33.0957 116.897 33.0957C114.263 33.0957 112.628 31.331 112.628 28.5C112.628 25.6602 114.272 23.8184 116.819 23.8184C119.324 23.8184 120.899 25.5391 120.899 28.2842V28.9209H114.504V29.0332C114.475 29.3664 114.516 29.7021 114.627 30.0179C114.737 30.3337 114.913 30.6225 115.143 30.8651C115.374 31.1076 115.653 31.2984 115.963 31.4247C116.272 31.551 116.606 31.61 116.94 31.5976C117.379 31.6388 117.82 31.5371 118.196 31.3076C118.573 31.0782 118.866 30.7333 119.031 30.3242L120.795 30.3242ZM114.513 27.6221H119.039C119.056 27.3225 119.011 27.0227 118.906 26.7415C118.801 26.4602 118.64 26.2037 118.431 25.9879C118.223 25.7722 117.972 25.6018 117.694 25.4876C117.417 25.3734 117.119 25.3178 116.819 25.3242C116.516 25.3224 116.216 25.3806 115.936 25.4953C115.656 25.61 115.401 25.7791 115.187 25.9927C114.973 26.2064 114.803 26.4603 114.687 26.74C114.571 27.0196 114.512 27.3194 114.513 27.6221V27.6221Z" fill="white"/>
</svg>
