<svg width="16" height="16" viewBox="0 0 16 16" fill="none" xmlns="http://www.w3.org/2000/svg">
<g clip-path="url(#clip0_5583_15780)">
<path d="M1.33301 14.667C1.33301 13.2525 1.89491 11.896 2.89511 10.8958C3.8953 9.89556 5.25185 9.33366 6.66634 9.33366C8.08083 9.33366 9.43738 9.89556 10.4376 10.8958C11.4378 11.896 11.9997 13.2525 11.9997 14.667H10.6663C10.6663 13.6061 10.2449 12.5887 9.49477 11.8386C8.74462 11.0884 7.72721 10.667 6.66634 10.667C5.60548 10.667 4.58806 11.0884 3.83791 11.8386C3.08777 12.5887 2.66634 13.6061 2.66634 14.667H1.33301ZM6.66634 8.66699C4.45634 8.66699 2.66634 6.87699 2.66634 4.66699C2.66634 2.45699 4.45634 0.666992 6.66634 0.666992C8.87634 0.666992 10.6663 2.45699 10.6663 4.66699C10.6663 6.87699 8.87634 8.66699 6.66634 8.66699ZM6.66634 7.33366C8.13967 7.33366 9.33301 6.14033 9.33301 4.66699C9.33301 3.19366 8.13967 2.00033 6.66634 2.00033C5.19301 2.00033 3.99967 3.19366 3.99967 4.66699C3.99967 6.14033 5.19301 7.33366 6.66634 7.33366ZM12.189 9.80233C13.1259 10.2243 13.921 10.9078 14.4787 11.7708C15.0365 12.6338 15.3331 13.6395 15.333 14.667H13.9997C13.9998 13.8963 13.7774 13.142 13.3591 12.4947C12.9408 11.8474 12.3444 11.3348 11.6417 11.0183L12.1883 9.80233H12.189ZM11.7303 2.27566C12.402 2.55252 12.9763 3.02268 13.3804 3.62648C13.7844 4.23027 13.9999 4.94049 13.9997 5.66699C14 6.58188 13.6581 7.46381 13.0414 8.13954C12.4246 8.81528 11.5775 9.23597 10.6663 9.31899V7.97699C11.1603 7.90625 11.6186 7.67901 11.9739 7.32863C12.3292 6.97826 12.5628 6.52321 12.6404 6.03028C12.7181 5.53736 12.6357 5.03252 12.4053 4.58989C12.1749 4.14727 11.8086 3.79016 11.3603 3.57099L11.7303 2.27566Z" fill="#004680"/>
</g>
<defs>
<clipPath id="clip0_5583_15780">
<rect width="16" height="16" fill="white"/>
</clipPath>
</defs>
</svg>
