<svg width="36" height="36" viewBox="0 0 36 36" fill="none" xmlns="http://www.w3.org/2000/svg">
<path d="M28.0647 10.8148C27.9252 10.6742 27.7593 10.5626 27.5765 10.4865C27.3938 10.4103 27.1977 10.3711 26.9997 10.3711C26.8017 10.3711 26.6056 10.4103 26.4228 10.4865C26.24 10.5626 26.0741 10.6742 25.9347 10.8148L14.7597 22.0048L10.0647 17.2948C9.9199 17.1549 9.74899 17.045 9.5617 16.9712C9.37442 16.8974 9.17443 16.8612 8.97316 16.8646C8.77189 16.8681 8.57328 16.9112 8.38866 16.9915C8.20404 17.0717 8.03704 17.1875 7.89718 17.3323C7.75732 17.4771 7.64735 17.648 7.57355 17.8353C7.49974 18.0226 7.46354 18.2225 7.46703 18.4238C7.47051 18.6251 7.5136 18.8237 7.59384 19.0083C7.67408 19.1929 7.7899 19.3599 7.93468 19.4998L13.6947 25.2598C13.8341 25.4004 14 25.512 14.1828 25.5881C14.3656 25.6643 14.5617 25.7035 14.7597 25.7035C14.9577 25.7035 15.1538 25.6643 15.3365 25.5881C15.5193 25.512 15.6852 25.4004 15.8247 25.2598L28.0647 13.0198C28.2169 12.8793 28.3384 12.7089 28.4216 12.5191C28.5047 12.3294 28.5476 12.1244 28.5476 11.9173C28.5476 11.7101 28.5047 11.5052 28.4216 11.3155C28.3384 11.1257 28.2169 10.9553 28.0647 10.8148V10.8148Z" fill="#113255"/>
</svg>
