<svg width="350" height="11" viewBox="0 0 350 11" fill="none" xmlns="http://www.w3.org/2000/svg">
<mask id="mask0_1_19555" style="mask-type:alpha" maskUnits="userSpaceOnUse" x="0" y="0" width="350" height="11">
<rect width="350" height="10.9091" fill="#C4C4C4"/>
</mask>
<g mask="url(#mask0_1_19555)">
<path d="M52.575 -2.31492L53.4304 -2.45871L51.7658 -2.66487L52.5637 -2.81578C53.3639 -2.8144 54.4006 -2.58828 54.9647 -2.70843C55.0337 -2.82476 54.1624 -2.8621 53.94 -2.95478C53.7433 -3.04978 53.5828 -3.14416 53.4603 -3.23679C53.896 -3.23579 54.3751 -3.21339 54.869 -3.17089C55.5334 -3.10148 56.1851 -3.06774 56.7521 -3.07339C57.9116 -3.05465 59.0318 -3.07335 60.2925 -3.06923L59.8731 -3.3492L61.4977 -3.2837C61.6699 -3.26237 61.8752 -3.29667 62.0444 -3.27029C63.4524 -3.04704 64.0482 -3.16869 64.7241 -3.26956C64.8627 -3.29566 65.0297 -3.31515 65.2206 -3.32752C67.0989 -3.27404 68.7926 -2.96111 70.4842 -2.80047C70.8026 -2.75945 71.108 -2.70681 71.3787 -2.64625C71.967 -2.52855 72.6215 -2.43244 73.2822 -2.36674C73.9429 -2.30103 74.5887 -2.26783 75.1606 -2.27014C76.4253 -2.27275 77.8541 -2.19489 79.3088 -2.04411C79.7414 -1.99445 80.1743 -1.96169 80.5799 -1.94791C80.9855 -1.93414 81.3548 -1.93965 81.6643 -1.96411L82.6479 -1.80429C83.0742 -1.86914 83.6148 -1.90472 84.2368 -1.90887C84.8589 -1.91302 85.5494 -1.88566 86.2665 -1.82844C87.0307 -1.76636 87.8069 -1.72452 88.5998 -1.65889C90.2376 -1.53343 91.8316 -1.4567 93.3322 -1.43109C95.5669 -1.35518 97.7503 -1.2965 100.005 -1.20187C101.415 -1.15619 102.789 -1.13107 104.119 -1.12663C105.712 -1.10877 107.435 -1.02227 109.205 -0.871331C109.121 -0.729714 108.345 -0.771552 107.824 -0.776344C106.143 -0.799883 104.424 -0.860877 102.695 -0.906699C101.916 -0.924583 101.159 -0.931358 100.427 -0.926972C99.2041 -0.932843 97.9148 -0.970577 96.5814 -1.03953C94.4749 -1.1154 92.4357 -1.15187 90.4846 -1.14857C90.3317 -1.14296 90.1915 -1.13302 90.0665 -1.11892C90.0405 -1.1067 90.0353 -1.0913 90.0516 -1.07418C90.0679 -1.05707 90.105 -1.03881 90.1595 -1.02117C90.214 -1.00352 90.2839 -0.987086 90.3627 -0.973418C90.4414 -0.959751 90.5264 -0.949312 90.6094 -0.943108C91.3843 -0.847134 92.2165 -0.744055 92.9473 -0.729553C92.9755 -0.72847 93.0056 -0.725995 93.0354 -0.722306C93.0652 -0.718618 93.0939 -0.713809 93.1195 -0.708226C94.7554 -0.505615 96.1005 -0.539902 97.3748 -0.506937C99.4905 -0.417846 101.53 -0.376231 103.463 -0.382722C103.755 -0.382281 104.07 -0.370699 104.397 -0.348396C106.421 -0.257988 108.314 -0.247876 109.986 -0.318519C110.675 -0.336415 111.315 -0.376592 112.054 -0.377265C112.51 -0.380029 112.907 -0.405667 113.22 -0.452645C113.534 -0.499623 113.758 -0.566968 113.88 -0.650629C114.192 -0.606583 114.509 -0.567328 114.827 -0.533333C115.017 -0.513896 115.199 -0.508733 115.337 -0.518904C115.474 -0.529076 115.557 -0.553819 115.568 -0.588134C115.625 -0.684232 115.192 -0.732491 114.815 -0.773643C115.042 -0.794253 115.298 -0.806376 115.576 -0.809724C117.143 -0.831683 118.824 -0.805766 120.583 -0.732544C121.948 -0.644899 123.038 -0.716236 124.474 -0.592639C124.646 -0.571311 124.788 -0.602614 124.946 -0.610131C125.36 -0.649712 125.874 -0.658607 126.446 -0.636042C127.018 -0.613476 127.629 -0.56013 128.228 -0.480628C128.972 -0.697828 130.581 -0.449695 131.77 -0.427396C132.135 -0.316937 131.716 -0.336357 131.698 -0.30601C131.68 -0.275663 131.698 -0.306017 131.554 -0.323789C130.368 -0.167362 128.742 -0.133252 126.906 -0.226254C126.567 -0.225869 126.243 -0.218742 125.938 -0.204944C125.477 -0.185415 124.957 -0.187366 124.402 -0.210709C123.794 -0.227855 123.236 -0.219711 122.755 -0.186675C122.477 -0.187213 122.243 -0.170663 122.073 -0.138548C121.903 -0.106435 121.804 -0.0597953 121.783 -0.00296888C121.968 0.0408401 122.173 0.0809257 122.391 0.115696C123.525 0.252986 124.656 0.309812 125.562 0.274998C127.138 0.215011 129.013 0.273549 130.689 0.25307C131.821 0.244774 133.027 0.268404 134.282 0.323521C134.282 0.323521 134.249 0.379157 134.246 0.384214C134.394 0.408302 134.551 0.427629 134.705 0.441088C134.705 0.441088 134.705 0.441089 134.72 0.4158C134.651 0.391516 134.558 0.368669 134.451 0.349907L134.078 0.303696C134.332 0.291669 134.569 0.255866 134.833 0.277742C135.39 0.318384 135.922 0.335541 136.397 0.328196C136.873 0.320849 137.282 0.289147 137.6 0.234992C138.164 0.165586 138.864 0.134023 139.657 0.142341C140.265 0.134763 140.851 0.118477 141.411 0.0935652C141.411 0.0935652 141.447 0.0328783 141.713 0.000621372C141.461 -0.0391651 141.199 -0.0716508 140.938 -0.0953487C139.803 -0.154556 138.664 -0.208708 137.548 -0.249188C137.137 -0.25356 136.751 -0.246778 136.396 -0.228973C135.414 -0.208137 134.311 -0.237709 133.151 -0.315965C133.151 -0.315965 132.922 -0.3444 132.807 -0.358618C133.133 -0.492031 134.255 -0.358469 134.709 -0.448819C134.985 -0.447175 135.471 -0.435813 135.455 -0.459599C135.417 -0.491339 135.412 -0.520826 135.441 -0.545943C135.471 -0.571061 135.533 -0.591189 135.623 -0.60488C135.714 -0.618572 135.831 -0.625494 135.965 -0.625141C136.1 -0.62479 136.249 -0.617172 136.402 -0.602844C137.68 -0.525331 138.883 -0.503776 139.938 -0.539498C140.338 -0.538807 140.787 -0.515835 141.184 -0.510086C141.427 -0.503165 141.649 -0.507015 141.838 -0.521424C142.797 -0.627554 144.088 -0.635305 145.517 -0.543513C146.207 -0.510512 146.852 -0.506099 147.419 -0.530498C147.822 -0.534867 147.993 -0.45941 148.28 -0.423865L149.499 -0.348933L147.933 -0.255043C148.268 -0.0398758 148.534 0.0310721 149.081 0.0444774C149.878 0.0647199 150.654 0.0738649 151.406 0.0718551C151.961 0.0700877 152.42 0.0237492 153.172 0.106053C153.305 0.119477 153.433 0.123823 153.535 0.118359C154.415 0.0452913 155.476 0.0285229 156.644 0.0691971C157.249 -0.067629 158.279 0.0654005 159.233 0.172587C159.54 0.0695211 158.983 0.0222103 158.65 -0.0406759C159.448 -0.0342382 160.251 -0.0379148 161.074 -0.0228655C161.321 -0.0283436 161.604 -0.0189711 161.9 0.00451297C162.196 0.0279975 162.497 0.0649526 162.78 0.112488C162.918 0.143202 163.084 0.16632 163.244 0.177038C163.404 0.187754 163.546 0.185256 163.639 0.170054C164.066 0.125224 164.75 0.166514 165.103 0.0907899C165.229 0.0733744 165.408 0.0709435 165.609 0.0839208C165.811 0.0968977 166.02 0.124446 166.201 0.161624C166.003 0.173225 165.827 0.191491 165.676 0.216021C165.136 0.295708 165.334 0.428856 166.021 0.622431C167.074 0.611785 168.151 0.614808 169.128 0.578325C169.672 0.545575 170.339 0.555812 171.054 0.607889C171.768 0.659966 172.502 0.751813 173.173 0.873107C173.416 0.91975 173.693 0.952052 173.949 0.963605C174.204 0.975158 174.42 0.965113 174.553 0.93546C174.636 0.901165 174.662 0.857763 174.628 0.809016L173.94 0.723708C173.94 0.723708 173.967 0.678188 173.973 0.668072L174.963 0.660424C175.487 0.66016 176.033 0.673567 176.529 0.669747C177.256 0.644343 178.086 0.658503 178.968 0.711348C179.782 0.765535 180.582 0.806493 181.36 0.833863C182.114 0.862034 182.66 0.772225 183.377 0.757883C183.919 0.747074 184.516 0.758627 185.144 0.792092C186.228 0.851444 187.224 0.851554 188.039 0.79241C188.99 1.11107 189.452 1.16288 190.335 1.07677L190.75 1.05218L190.864 1.12052L191.181 1.10549C191.774 1.09211 192.367 1.07872 192.986 1.07395C193.847 1.10352 194.776 1.18308 195.684 1.30487C195.856 1.3262 196.09 1.39866 196.241 1.45539C196.393 1.51212 196.722 1.68327 196.965 1.79468C196.701 1.87601 196.408 1.95378 196.199 2.04728C196.178 2.06326 196.18 2.0823 196.205 2.10289C196.23 2.12348 196.277 2.14504 196.342 2.16584C196.408 2.18663 196.49 2.20608 196.582 2.22262C196.674 2.23917 196.774 2.25234 196.873 2.26109C197.066 2.27995 197.256 2.29252 197.436 2.29828C198.323 2.30823 199.172 2.30084 199.975 2.27618C200.269 2.2414 200.67 2.23809 201.117 2.2668C201.563 2.2955 202.028 2.35457 202.438 2.43465C203.49 2.38658 204.711 2.40078 206.018 2.47626C207.401 2.43035 209.071 2.5232 210.363 2.4226C210.333 2.47318 210.466 2.56026 210.652 2.61044C210.946 2.68664 211.279 2.75727 211.637 2.81932L214.369 2.94048C214.471 3.00278 214.599 3.06584 214.75 3.12885C214.854 3.17863 215.035 3.22733 215.254 3.26464C215.474 3.30195 215.715 3.32494 215.926 3.32873C216.469 3.34719 216.925 3.30591 217.573 3.4079C216.575 3.5043 215.229 3.4915 213.775 3.37176C212.408 3.28069 211.094 3.23517 209.88 3.23691C209.48 3.23622 208.953 3.24154 208.828 3.29662C208.551 3.45232 207.826 3.4277 206.981 3.39899C206.317 3.36755 205.71 3.37107 205.211 3.40928C204.711 3.44749 204.334 3.51928 204.109 3.61875C204.052 3.71484 204.188 3.79687 204.771 3.85279L207.195 4.07701C207.553 4.04818 207.892 4.01406 208.211 3.97478C208.749 3.92261 209.413 3.90829 210.152 3.93293C210.891 3.95758 211.684 4.02053 212.47 4.11688C212.872 4.16664 213.274 4.2164 213.565 4.19276C213.821 4.1656 214.056 4.13308 214.27 4.09544C214.313 4.07021 214.33 4.04118 214.321 4.00945C214.475 4.02421 214.63 4.04339 214.78 4.06633C215.977 4.334 216.904 4.32937 217.746 4.25994C217.974 4.2393 218.147 4.2065 218.378 4.1808C218.609 4.15511 218.69 4.12176 218.9 4.13146C220.573 4.21925 221.055 3.92604 222.465 3.93782C222.534 3.92636 222.577 3.90924 222.589 3.88802C222.602 3.86681 222.584 3.8422 222.537 3.81643C222.438 3.79317 222.323 3.77317 222.202 3.75826C222.082 3.74335 221.96 3.73402 221.849 3.73112C221.2 3.6935 220.626 3.70503 220.227 3.76376C219.944 3.78776 219.645 3.80688 219.331 3.82102L217.919 3.39642C219.287 3.43534 220.58 3.43508 221.77 3.39565C222.03 3.37351 222.469 3.41166 222.835 3.41891L225.522 3.4586C226.075 3.46189 226.545 3.39533 227.316 3.55049C227.316 3.55049 227.825 3.57551 227.961 3.55432C228.096 3.53314 228.698 3.40137 229.057 3.31553C229.474 3.34 230.051 3.40604 230.311 3.3839C230.764 3.32952 231.157 3.2598 231.481 3.176L233.105 3.29563C233.103 3.40191 233.044 3.50188 232.928 3.59404C232.801 3.68292 232.806 3.78961 232.94 3.90539C233.075 4.02117 233.337 4.14274 233.704 4.26018L235.307 4.88219C235.568 4.92384 235.847 4.95188 236.105 4.9625C236.364 4.97312 236.589 4.9658 236.75 4.94153C237.44 4.8695 238.213 4.8132 238.902 4.74117C239.792 4.85136 239.563 5.02934 240.21 5.18546L242.305 5.44494C242.625 5.68539 242.95 5.91574 241.978 5.99624C241.785 6.01031 241.916 6.10245 241.739 6.14032C242.495 6.32077 243.325 6.37478 244.091 6.48593C244.393 6.56586 244.646 6.65048 244.837 6.73568C245.046 6.86398 245.471 6.99503 246.02 7.10054C246.568 7.20605 247.196 7.27755 247.768 7.29961C248.727 7.36716 249.71 7.46861 250.671 7.59943C250.999 7.64492 251.337 7.67806 251.66 7.69662C251.984 7.71519 252.287 7.71874 252.548 7.70704C253.478 7.68644 254.265 7.61561 254.858 7.49916C255.445 7.40033 256.235 7.3527 257.159 7.36058C258.737 7.55608 259.055 7.85067 260.011 8.11014L258.361 8.13923C258.301 8.24039 258.41 8.36793 257.734 8.3656C257.057 8.36326 257.4 8.46005 257.62 8.55779C257.697 8.60696 257.848 8.65753 258.047 8.70096C258.245 8.74438 258.48 8.77798 258.711 8.79607L260.115 8.92117C260.613 8.96879 261.095 8.98912 261.509 8.97993C261.922 8.97075 262.25 8.93241 262.457 8.86913C262.694 8.80903 263.023 8.76838 263.421 8.74967C263.929 8.70065 264.346 8.62774 264.658 8.5337L266.641 8.67071C266.725 8.57621 266.998 8.50996 267.412 8.48314C267.827 8.45632 268.358 8.47058 268.915 8.52352L270.252 8.60761C271.738 8.69936 272.064 8.66916 272.499 8.40274L270.717 7.92686C270.976 7.80151 271.226 7.69134 271.476 7.58116C271.032 7.42438 270.44 7.27609 269.759 7.15136C269.124 7.01733 268.471 6.88752 267.803 6.76243C267.077 6.6346 266.311 6.52346 265.411 6.37936C265.254 6.33275 265.025 6.25017 264.734 6.17061C264.442 6.09329 264.137 6.0175 263.821 5.94354C263.881 5.84239 263.935 5.75135 263.82 5.63392C264.374 5.67139 264.947 5.73692 265.487 5.82461C266.026 5.91229 266.516 6.01938 266.911 6.1362C266.977 6.15692 267.058 6.17638 267.149 6.19327C267.24 6.21015 267.339 6.22407 267.438 6.23408C268.412 6.30587 268.878 6.45583 269.354 6.63969C269.675 6.73368 270.088 6.81715 270.537 6.87852C271.398 6.98516 272.241 7.12214 273.064 7.2404C273.316 7.27981 273.578 7.31225 273.839 7.33637C274.7 7.41309 275.566 7.52036 276.394 7.65273C276.664 7.68638 276.923 7.7309 277.15 7.78258C277.376 7.83426 277.564 7.89159 277.696 7.94979C277.491 8.01356 277.381 8.09405 277.371 8.18641C277.335 8.24711 277.94 8.37083 278.225 8.46051C278.511 8.55019 277.951 8.50794 277.761 8.51695C276.98 8.5343 276.835 8.57066 277.303 8.7697C277.459 8.83229 277.563 8.89491 277.607 8.95368C277.652 9.01244 277.637 9.0661 277.563 9.11132C277.452 9.29846 277.114 9.4521 276.882 9.63514C277.242 9.75571 277.844 9.88448 277.909 10.0338C277.941 10.0669 278.007 10.102 278.104 10.1365C278.201 10.171 278.325 10.2041 278.469 10.2333C278.846 10.2965 279.19 10.3721 279.473 10.4541C279.755 10.5362 279.969 10.6226 280.098 10.7066C280.14 10.7414 280.242 10.7782 280.384 10.8098C280.525 10.8414 280.695 10.8654 280.86 10.877C281.057 10.8912 281.233 10.8893 281.353 10.8717C281.472 10.8542 281.525 10.8223 281.501 10.7826C281.506 10.7082 281.48 10.6305 281.423 10.5504C281.456 10.4948 281.489 10.4391 281.359 10.347C281.947 10.3806 282.565 10.448 283.145 10.5418C283.724 10.6357 284.244 10.7524 284.648 10.8792C285.094 11.0104 285.505 11.1482 285.999 11.3018C285.897 11.4737 285.897 11.4737 286.949 11.7778L292.53 11.926L293.674 12.1274C294.74 12.3029 294.994 12.2909 295.664 12.2002L296.115 12.1149C297.062 12.2322 298.153 12.3672 298.745 12.1474C298.937 12.2907 299.063 12.3388 299.019 12.3606C298.736 12.572 298.245 12.7514 297.565 12.8916C297.391 12.9244 297.269 12.9744 297.067 13.0037C296.415 13.1688 296.264 13.4239 296.644 13.7168C296.833 13.8465 297.107 13.9792 297.458 14.1108C296.945 14.2934 296.264 14.4447 295.436 14.5606C294.732 14.6503 294.153 14.7705 293.715 14.9175C293.321 15.0658 292.731 15.1773 291.98 15.2456C291.599 15.2746 291.32 15.3319 291.173 15.4117C291.129 15.6277 291.23 15.859 291.473 16.1004C291.519 16.1738 291.649 16.2532 291.854 16.3322C292.058 16.4112 292.331 16.4877 292.651 16.5557C292.651 16.5557 292.805 16.6074 292.88 16.6383C292.941 16.8999 292.71 17.1304 292.202 17.3144C292.118 17.3666 291.948 17.4043 291.708 17.4234C291.469 17.4426 291.17 17.4424 290.843 17.423C290.153 17.3919 289.509 17.388 288.841 17.3705C288.122 17.3457 287.489 17.3653 287.007 17.427C286.526 17.4888 286.215 17.5904 286.107 17.7214C286.1 17.7585 286.079 17.7939 286.044 17.8276C286.024 17.8449 286.013 17.8636 286.011 17.8832L287.544 18.3119L285.81 18.4826C285.708 18.6546 286.54 18.7577 286.958 18.8854L286.7 18.9566C286.368 18.9969 285.921 18.9198 285.516 18.8751L285.114 18.8253L285.066 18.9062C284.816 19.0164 283.903 18.8926 283.548 18.9733C283.192 19.0541 283.446 19.1453 283.979 19.2331C284.35 19.2983 284.748 19.3503 285.143 19.3852C285.539 19.4201 285.922 19.4369 286.263 19.4345C286.466 19.4258 286.635 19.4061 286.759 19.3765C287.479 19.2505 288.274 19.1422 289.138 19.0523C289.801 18.9716 290.631 18.9373 291.57 18.9517C291.846 18.9457 292.178 18.9648 292.509 19.0057C292.839 19.0467 293.147 19.1068 293.378 19.1757L293.864 19.187C293.864 19.187 294.13 19.258 294.093 19.2696C293.908 19.4798 294.123 19.7368 294.706 20.0025L294.199 20.0265C293.474 20.0019 293.934 20.162 293.825 20.2408C293.31 20.2259 292.641 20.1593 292.397 20.2594L292.032 20.2522L292.175 20.2699L292.349 20.2371L293.03 20.3867C292.707 20.4118 292.473 20.4426 292.188 20.4561C292.031 20.4679 291.905 20.4887 291.819 20.5172C291.734 20.5458 291.689 20.5815 291.689 20.6223C291.69 20.6851 291.605 20.7379 291.442 20.7757C291.28 20.8135 291.045 20.8351 290.76 20.8384C290.42 20.8398 290.226 20.908 290.027 20.9322L290.892 21.3434C290.892 21.3434 290.462 21.2901 290.696 21.3625L290.726 21.312L291.25 21.4149C291.628 21.5051 291.892 21.527 292.115 21.4623C292.339 21.3977 292.288 21.4837 292.395 21.4589C292.356 21.5247 292.113 21.5706 291.905 21.61C291.664 21.6409 291.392 21.6637 291.094 21.6779C291.632 21.967 291.657 21.9756 290.872 22.0522C290.088 22.1287 290.359 22.2437 289.702 22.2601C289.045 22.2765 289.792 22.4721 290.231 22.5102C290.557 22.5353 290.889 22.5744 291.205 22.6247C291.521 22.6751 291.813 22.7356 292.061 22.802L291.929 23.0245C291.736 23.0061 291.542 22.9821 291.355 22.9534C290.719 22.8312 290.14 22.7161 289.574 22.7872L289.844 22.9563L287.869 22.8582C287.92 22.985 288.221 23.1293 288.708 23.2608C288.635 23.3331 288.59 23.4091 288.573 23.4884C288.54 23.5441 288.345 23.5091 288.219 23.5151C287.766 23.5244 287.395 23.5621 287.138 23.6249C286.88 23.6876 286.744 23.7736 286.742 23.8751C286.691 23.9611 287.387 24.1395 287.821 24.1336C288.907 24.1508 290.081 24.2169 291.279 24.3285C292.01 24.343 292.113 24.1169 293.316 24.2712C293.34 24.3756 293.186 24.4602 292.877 24.512C292.568 24.5639 292.122 24.5803 291.605 24.5588C291.899 24.7907 293.527 24.8511 293.599 25.0935C293.193 25.0764 292.76 25.0361 292.341 24.9766C291.923 24.9171 291.533 24.8406 291.212 24.7544C291.142 24.7332 291.055 24.7136 290.959 24.6975C290.862 24.6814 290.758 24.6693 290.658 24.6623C290.558 24.6553 290.464 24.6536 290.385 24.6574C290.306 24.6613 290.244 24.6704 290.206 24.6841C290.431 24.7718 290.679 24.8731 290.962 24.9678C291.245 25.0625 291.313 25.1036 291.517 25.1234C293.038 25.3118 293.761 25.6511 295.077 25.8738C295.421 25.9164 295.464 26.052 295.165 26.0367C294.881 26.0214 294.623 26.0234 294.422 26.0425C294.22 26.0616 294.082 26.0971 294.023 26.145C293.802 26.2008 293.527 26.2452 293.205 26.2771C294.555 26.6253 296.164 26.933 297.882 27.1712C298.207 27.2183 298.546 27.247 298.85 27.2531C299.809 27.2535 300.826 27.2811 301.882 27.3354C302.256 27.3503 302.602 27.3489 302.901 27.3314C303.88 27.2898 304.658 27.3807 305.369 27.6371L306.545 28.0433C306.506 28.1091 306.309 28.1824 306.157 28.283L307.076 28.4999L314.088 28.0003L315.495 28.4841L317.514 28.4572C317.668 28.4711 317.824 28.4904 317.973 28.514C318.381 28.6569 318.7 28.7941 319.143 28.9304C319.586 29.0667 320.377 29.0833 320.929 29.2439C321.481 29.4045 322.033 29.4078 322.716 29.5033C322.78 29.6276 322.714 29.7395 322.521 29.832C322.458 29.9382 322.111 30.0038 322.051 30.105C322.058 30.2072 321.929 30.294 321.676 30.3575C321.423 30.421 321.055 30.4592 320.604 30.4686C319.34 30.6862 317.817 30.8413 316.08 30.9289C315.927 30.9353 315.8 30.95 315.708 30.9721C315.615 30.9943 315.558 31.0234 315.541 31.0577C315.543 31.1569 315.428 31.2426 315.202 31.3086C314.976 31.3746 314.647 31.4192 314.237 31.439C314.128 31.443 314.045 31.4555 314 31.4749C313.845 31.4874 313.731 31.5113 313.671 31.5443C313.611 31.5773 313.606 31.6183 313.657 31.6634C313.708 31.7084 313.813 31.7559 313.961 31.8014C314.109 31.8468 314.297 31.8887 314.505 31.9228C314.806 31.9778 315.114 32.0305 315.428 32.0806C315.41 32.1109 315.099 32.1158 315.144 32.1432C315.267 32.2305 315.295 32.3122 315.227 32.382C315.159 32.4518 314.997 32.5076 314.752 32.5452L316.428 33.2522C317.445 33.3502 318.443 33.5163 319.232 33.719C319.233 33.7522 319.187 33.78 319.1 33.7997C319.013 33.8193 318.887 33.8302 318.734 33.831C318.325 33.8455 317.939 33.8737 317.498 33.8897C317.228 33.9016 317.004 33.9279 316.838 33.967C316.672 34.0061 316.568 34.0572 316.531 34.1174L317.515 34.3804C317.2 34.4445 316.966 34.4753 316.758 34.5146C316.876 34.5973 317.079 34.6828 317.351 34.7645C317.623 34.8462 317.957 34.922 318.327 34.9859C318.426 34.999 318.527 35.0087 318.625 35.0142C318.722 35.0197 318.813 35.021 318.893 35.018C319.655 34.9278 320.547 35.087 321.412 35.2377C322.278 35.3884 322.748 35.4791 323.387 35.5963L324.61 35.612C324.92 35.6675 325.196 35.7327 325.417 35.8025C325.637 35.8723 325.797 35.9446 325.882 36.0138C325.816 36.1251 325.236 36.0641 324.89 36.0756C324.07 36.1448 322.992 36.1301 321.834 36.0337C321.547 35.9982 321.253 36.0269 320.974 36.0303C320.371 36.0441 319.792 36.0667 319.239 36.0978C318.875 36.1267 318.535 36.1626 318.221 36.2051C318.137 36.3467 319.458 36.4561 318.708 36.5261C318.966 36.558 319.063 36.6026 319.196 36.5865C320.047 36.6784 320.885 36.7239 321.614 36.7176C323.012 36.6981 324.599 36.7626 326.246 36.9059C328.024 37.0544 329.729 37.1167 331.222 37.0878C331.79 37.0861 332.425 37.1165 333.079 37.1767C333.851 37.26 334.618 37.3124 335.329 37.3305C335.565 37.3311 335.827 37.3453 336.095 37.3719C336.363 37.3985 336.629 37.4367 336.871 37.4835C336.85 37.5189 336.619 37.5446 336.671 37.5618C337.407 37.8267 337.706 38.1026 338.839 38.3733C339.614 38.4693 340.504 38.5794 341.01 38.4522C341.517 38.3249 341.336 38.2156 340.327 37.8898C340.546 37.8851 340.81 37.9003 341.072 37.9328C341.334 37.9653 341.578 38.013 341.762 38.0675L342.634 38.3113L343.42 38.5444C343.351 38.6607 343.297 38.7517 343.241 38.8478C343.151 38.9499 343.249 39.0741 343.523 39.2031C343.688 39.2735 343.832 39.344 343.953 39.4138C344.444 39.693 344.586 39.9569 344.364 40.1759C343.937 40.4907 343.342 40.7805 342.587 41.0417C341.79 41.2958 341.353 41.6163 340.696 41.8933C340.361 42.0194 339.954 42.1324 339.479 42.2312C338.579 42.4508 337.593 42.6598 336.689 42.8846C335.786 43.1093 334.766 43.2707 333.763 43.4559C332.269 43.6757 330.655 43.8655 328.928 44.0244C327.86 44.1635 326.763 44.2991 325.775 44.459C324.608 44.6393 323.236 44.7687 321.696 44.8442C320.335 44.9344 319.119 45.068 318.071 45.2422C317.961 45.261 317.874 45.285 317.813 45.3134C317.625 45.491 317.096 45.6162 316.308 45.6699C316.356 45.7219 316.417 45.7748 316.491 45.8283C316.601 45.8921 316.623 45.9518 316.557 45.9997C316.49 46.0475 316.337 46.0814 316.117 46.0968C315.486 46.1408 314.963 46.2155 314.569 46.3177C314.424 46.3433 314.334 46.3806 314.307 46.4264C314.28 46.4722 314.316 46.5251 314.413 46.5807C314.498 46.6378 314.505 46.6904 314.431 46.7315C314.357 46.7727 314.206 46.8006 313.999 46.8117C313.465 46.8657 312.894 46.9093 312.289 46.9419C311.001 47.0139 309.503 47.0131 307.885 46.9394C307.713 46.9181 307.539 46.9509 307.338 46.926C306.194 46.8434 305.132 46.8306 304.279 46.8892C303.28 46.912 302.235 46.9075 301.181 46.9181C299.659 46.911 298.255 46.9544 297.008 47.0472C295.582 46.9575 294.781 47.1135 293.578 47.1165C292.467 47.1325 291.414 47.1709 290.429 47.2314C288.841 47.3116 287.259 47.3817 285.694 47.4756C284.226 47.5204 282.874 47.6059 281.661 47.7307C281.196 47.7872 280.355 47.6993 280.039 47.8175C279.722 47.9358 279.083 47.9218 278.567 47.961L276.939 48.0579C276.659 48.081 276.351 48.0956 276.02 48.1015C274.505 48.1094 273.457 48.2673 272.051 48.2995L271.908 48.2817C269.412 48.5164 266.557 48.6453 263.425 48.6644C261.595 48.7364 259.595 48.7329 257.654 48.7857C257.191 48.8912 256.097 48.7612 255.516 48.8575C254.935 48.9539 253.987 48.8907 253.238 48.9066C252.49 48.9224 251.758 48.9621 250.957 48.9607C250.262 48.9611 249.676 49.0042 249.25 49.0859C248.28 49.2209 247.096 49.3003 245.753 49.3205C243.977 49.3556 242.297 49.4353 240.489 49.4178C240.515 49.5162 240.404 49.6 240.168 49.6604C239.932 49.7208 239.579 49.7558 239.146 49.7617C237.213 49.7992 235.461 49.8971 233.503 49.926L232.979 49.9263L227.123 49.9828C225.546 49.9937 224.025 50.0117 222.416 50.0242C221.813 49.9495 221.799 50.078 221.382 50.0535C221.266 49.9902 221.128 49.9623 220.923 49.9967L220.878 50.0725L214.195 50.1732C211.578 50.2468 208.826 50.2688 205.961 50.2392C205.281 50.2466 204.647 50.2718 204.068 50.3142C203.532 50.3297 202.972 50.3366 202.393 50.3347C201.609 50.3156 200.844 50.306 200.099 50.3058C198.141 50.3348 196.086 50.3192 193.942 50.2979C191.799 50.2767 190.174 50.3144 188.266 50.3115C186.974 50.3089 185.687 50.2962 184.35 50.2662C183.711 50.2523 182.924 50.1765 182.263 50.1489C181.601 50.1213 181.385 50.1217 181.298 50.1651C181.01 50.2869 180.287 50.2082 179.708 50.1963C178.58 50.176 178.42 50.1345 178.114 49.8197L179.498 49.7196C179.837 49.6873 180.264 49.6816 180.737 49.7031C181.209 49.7246 181.713 49.7725 182.198 49.8423C182.389 49.8722 182.588 49.8958 182.785 49.9118C182.982 49.9277 183.172 49.9358 183.344 49.9354C184.741 49.9183 186.117 49.8825 187.459 49.8533L187.655 49.8342L187.668 49.5534C187.49 49.5258 187.306 49.503 187.123 49.4858L180.391 49.3037C178.847 49.2589 177.243 49.158 175.727 49.1169C174.211 49.0757 173.394 49.0505 172.218 49.008C171.722 48.9838 171.216 48.9519 170.703 48.9127C170.733 48.8856 170.75 48.8569 170.754 48.8267C170.781 48.7812 170.817 48.7205 170.6 48.6718C170.362 48.6031 170.045 48.5444 169.711 48.5075C169.398 48.4831 169.094 48.4693 168.811 48.4666C167.446 48.4431 165.887 48.2948 164.466 48.0533L163.97 48.2145C161.836 48.1239 159.671 48.0349 157.442 47.9489C156.996 47.9254 156.528 47.8804 156.072 47.8172C155.584 47.7568 155.136 47.6306 154.622 47.5616C154.114 47.5119 153.61 47.4732 153.119 47.4461C153.252 47.4046 153.428 47.3714 153.64 47.3476C153.849 47.3393 154.001 47.3134 154.074 47.2737C154.147 47.234 154.138 47.1825 154.048 47.1267C153.889 47.0311 153.819 46.941 154.165 46.9295C154.484 46.9077 154.713 46.8604 154.823 46.7933C154.934 46.7263 154.922 46.6421 154.79 46.5508C154.731 46.4975 154.69 46.4453 154.667 46.3945L154.523 46.3767C154.05 46.1878 153.104 46.1195 152.426 45.9649C152.106 45.9201 151.774 45.8943 151.484 45.8916C150.733 45.8584 150.002 45.8439 149.226 45.8021C148.855 45.7828 148.468 45.7477 148.086 45.6988C147.541 45.6313 147.483 45.6242 147.167 45.3787C147.658 45.383 148.048 45.3463 148.27 45.2749C148.492 45.2034 148.533 45.1016 148.385 44.9867C147.979 44.7355 147.551 44.4707 145.716 44.2923C146.314 44.2835 146.89 44.2661 147.441 44.24C147.601 44.2344 147.721 44.2159 147.785 44.1871C147.849 44.1583 147.853 44.1205 147.797 44.0788C147.742 44.037 147.629 43.9934 147.473 43.9536C147.318 43.9138 147.128 43.8799 146.929 43.8563C145.96 43.7142 144.95 43.6191 144.011 43.5817C143.22 43.5652 142.506 43.5745 141.582 43.574L140.491 43.439C140.509 43.4086 140.349 43.3671 140.39 43.3504C140.667 43.1947 140.973 43.0425 141.287 42.8752C140.785 42.7849 140.349 42.6758 140.03 42.5605C139.712 42.4452 139.523 42.3284 139.486 42.2233C139.459 42.1916 139.466 42.1627 139.507 42.1387C139.548 42.1147 139.622 42.0961 139.723 42.0843C140.01 42.064 140.232 42.0252 140.371 41.9708C140.51 41.9165 140.562 41.8481 140.525 41.771L139.677 41.4868C137.123 41.284 134.615 41.1391 132.2 41.0548L130.02 40.9911C129.757 40.9151 129.838 40.8817 130.086 40.8798C130.333 40.8779 131.029 40.899 131.516 40.9103C131.935 40.9252 132.308 40.9155 132.598 40.8819C132.888 40.8484 133.085 40.7922 133.169 40.7188L132.437 40.3947C132.473 40.334 132.524 40.248 132.921 40.2538C133.193 40.2468 133.392 40.2162 133.489 40.1671C133.585 40.1179 133.572 40.053 133.452 39.9829C133.433 39.9321 133.461 39.8859 133.532 39.8463C134.12 39.843 134.704 39.8448 135.237 39.8294C135.485 39.8243 135.695 39.8055 135.851 39.7743C136.008 39.7431 136.108 39.7003 136.145 39.6487C136.164 39.5983 136.117 39.541 136.008 39.4813C135.899 39.4215 135.731 39.3611 135.517 39.3049C134.682 39.2353 133.918 39.2344 133.393 39.3024C133.205 39.3557 132.905 39.3848 132.53 39.3859C132.155 39.387 131.725 39.36 131.294 39.3085C130.801 39.2492 130.31 39.2231 129.907 39.2349C129.505 39.2468 129.219 39.2959 129.099 39.3733C128.593 39.3432 128.145 39.3202 127.703 39.2871C127.181 39.2454 126.687 39.2331 126.276 39.2516C125.617 39.2646 124.908 39.257 124.163 39.2288C122.018 39.1585 119.869 39.0933 117.792 39.064C117.242 39.0557 116.767 39.0782 116.223 39.0597C115.679 39.0413 115.249 39.0912 114.57 38.9907C114.44 38.9751 114.31 38.965 114.189 38.9614C114.068 38.9577 113.96 38.9606 113.874 38.9696C112.68 39.0491 111.28 39.0603 109.757 39.0026C107.67 38.9885 105.507 38.9486 103.417 38.9395C102.804 38.9473 102.225 38.9682 101.686 39.002C101.275 39.0224 100.845 39.0362 100.398 39.0434C100.055 39.0498 99.7277 39.0309 99.7855 39.1412C99.8434 39.2515 99.3298 39.1825 99.0338 39.1621C98.0169 39.1087 96.9775 39.0362 95.9274 38.9457C94.8926 38.8473 93.8788 38.7901 92.9465 38.7774C92.2731 38.77 91.5788 38.798 90.713 38.6474C90.746 38.5917 90.7789 38.5361 90.9674 38.478C90.2614 38.3181 89.4559 38.1806 88.6174 38.0768C87.779 37.9729 86.9318 37.9057 86.1458 37.8808L85.062 37.5783C84.7952 37.5428 84.5227 37.5169 84.2613 37.5022C83.9999 37.4876 83.755 37.4845 83.5413 37.4931C83.3763 37.4975 83.1751 37.4862 82.9748 37.4614C82.7744 37.4366 82.5884 37.3999 82.4507 37.358C82.2449 37.3047 81.9936 37.2588 81.7281 37.2259C81.4626 37.193 81.1948 37.1747 80.9583 37.1732C80.2137 37.1403 79.4188 37.0643 78.655 36.9531C78.4568 36.8878 78.3326 36.8205 78.2978 36.7592C78.2629 36.698 78.3189 36.6456 78.4589 36.6084C78.6845 36.5429 78.8111 36.4594 78.8312 36.3629C78.8513 36.2665 78.7644 36.1592 78.5757 36.0474C78.479 35.9788 78.4468 35.9139 78.4808 35.8565C78.5148 35.7992 78.6144 35.7505 78.7735 35.7136C79.3676 35.5429 79.2087 35.4472 78.2367 35.164C78.0788 35.1167 77.8885 35.0726 77.6778 35.0343C77.4671 34.9961 77.2407 34.9646 77.0128 34.9418C76.4783 34.8956 75.951 34.8613 75.4408 34.8394C75.1538 34.8038 74.8595 34.8325 74.5288 34.8187C72.8753 34.7497 72.6333 34.6383 72.0978 34.3982L71.7076 34.225C70.9838 34.0847 70.1922 33.9682 69.3899 33.8838C68.5875 33.7995 67.7944 33.7494 67.0676 33.7372C66.7788 33.7363 66.4466 33.7123 66.1222 33.669C65.0664 33.5364 63.9972 33.4447 62.9854 33.3999C62.3548 33.3747 61.6752 33.3094 61.028 33.2119C60.3808 33.1144 59.7936 32.9889 59.337 32.8503C58.9268 32.7255 58.3901 32.6135 57.8017 32.5299C57.1129 32.4446 57.0491 32.3444 57.4338 32.2671C57.8184 32.1899 58.4626 32.0905 59.0345 32.0094C59.2334 31.9818 59.3567 31.9369 59.3906 31.8797C59.4245 31.8226 59.3676 31.7554 59.2263 31.6857C59.1356 31.5663 59.1198 31.4531 59.1795 31.3487C59.2114 31.3053 59.1894 31.2556 59.115 31.2028C59.0406 31.1501 58.9155 31.0955 58.7481 31.0429C58.5808 30.9903 58.3751 30.9408 58.1449 30.8977C57.9147 30.8547 57.6654 30.8191 57.4138 30.7934C56.3519 30.6619 55.3186 30.5339 54.2357 30.4378C53.7819 30.3925 53.3286 30.3363 52.8868 30.2707C51.9826 30.1084 51.0152 29.9739 50.0408 29.8748C49.5784 29.8305 49.1263 29.7531 48.7823 29.6592C47.6975 29.4064 46.6979 29.1406 45.8016 28.8666C45.5856 28.7816 45.303 28.6987 44.9714 28.6231C44.6398 28.5474 44.2665 28.4807 43.8749 28.4271C43.5592 28.388 43.3022 28.3019 43.0589 28.2446C42.882 28.1119 42.8631 27.9892 43.004 27.888C43.1448 27.7867 43.4408 27.7102 43.864 27.6657C44.2654 27.6122 44.641 27.5502 44.988 27.4846C45.4062 27.4315 45.9034 27.3996 46.4611 27.3901C47.1216 27.3617 47.61 27.2803 47.8626 27.1565C46.0545 26.9326 44.3351 26.6111 42.7502 26.6862L41.546 26.4828C41.5939 26.4019 41.6359 26.3311 41.6749 26.2653C41.9613 26.1456 42.0507 25.9947 41.9357 25.8253C41.8408 25.7433 41.8494 25.6688 41.9604 25.6091C42.0715 25.5495 42.2812 25.5068 42.5683 25.4856C44.2688 25.2673 46.2353 25.12 47.83 24.8723C48.3301 24.8258 48.9154 24.8047 49.5614 24.8099C50.1863 24.795 50.1602 24.6832 49.441 24.5452C49.0373 24.4731 48.6258 24.4041 48.2081 24.3382C46.3662 24.3273 45.6159 24.6578 43.5139 24.5658L42.5397 24.1302C42.2763 24.1235 42.0206 24.1208 41.7743 24.1223L38.2499 24.2993C37.9563 24.3081 37.7278 24.3384 37.5903 24.3866C37.4528 24.4349 37.4118 24.4991 37.472 24.5721C37.4959 24.6614 37.4473 24.7433 37.3281 24.8149C37.2513 24.865 37.3004 24.9316 37.4649 25.0001C37.8354 25.1546 37.36 25.1771 37.0597 25.2159C36.9829 25.2197 36.8944 25.2193 36.7993 25.2148C36.7042 25.2102 36.6043 25.2015 36.5056 25.1893C36.4068 25.1771 36.311 25.1615 36.2239 25.1435C36.1367 25.1255 36.0599 25.1054 35.9978 25.0844C35.4688 24.9375 35.0061 24.7824 34.486 24.6203C34.8552 24.4652 34.4208 24.2105 34.9969 24.0701C35.0614 24.0421 35.0871 24.0079 35.0727 23.9697C35.0582 23.9315 35.0039 23.8901 34.9129 23.848C34.6783 23.7393 34.5666 23.6333 34.589 23.5408C34.6114 23.4482 34.7671 23.3724 35.0405 23.3209L35.0734 23.2652C34.3525 23.0782 34.5435 22.9119 34.2603 22.7139L33.5668 22.5846C31.8414 22.2732 31.8383 22.2782 30.3528 22.2897C30.0534 22.1712 30.4338 22.1531 30.7191 22.1396L33.1084 22.0066C34.6706 21.9178 36.2782 21.8563 38.0233 21.8227C39.7684 21.7891 41.7139 21.6772 43.5177 21.5966C43.6089 21.5903 43.6786 21.578 43.7211 21.5606C43.7636 21.5432 43.7775 21.5212 43.7618 21.4965C43.6901 21.4698 43.5962 21.444 43.4872 21.4211C43.3781 21.3982 43.2566 21.3788 43.1316 21.3642C42.5576 21.2931 41.9687 21.2473 41.357 21.1878L40.2167 21.0846L39.8659 20.9488C39.6375 20.8663 39.4815 20.7655 39.1778 20.7062C38.9275 20.6619 38.6559 20.6283 38.391 20.6089C38.1262 20.5895 37.878 20.5849 37.6722 20.5957C37.1017 20.6228 36.5855 20.662 36.0406 20.6976C35.4958 20.7333 35.1955 20.7721 34.723 20.7896C33.7631 20.7976 32.8354 20.8186 31.9439 20.8526C31.1931 20.933 30.4986 21.0284 29.8648 21.138C29.4694 21.1813 29.0997 21.2333 28.4246 21.1768C28.1043 21.1256 27.8281 21.0583 27.6449 20.9869C27.4616 20.9155 27.3832 20.8446 27.4235 20.7868C27.4597 20.7414 27.5623 20.7056 27.7215 20.6825C27.8807 20.6595 28.0912 20.6501 28.3333 20.6551C29.0109 20.6468 29.6376 20.6188 30.2005 20.5715C30.9841 20.486 31.938 20.4491 33.0066 20.463C33.369 20.4753 33.6119 20.4294 33.9288 20.4144C34.2458 20.3993 34.5143 20.362 34.8677 20.3895C35.9656 20.4603 36.492 20.3518 37.15 20.2813C37.3727 20.25 37.5107 20.1995 37.5488 20.1352C37.5868 20.071 37.5235 19.9955 37.3658 19.9171C37.0621 19.761 36.6907 19.604 36.2572 19.4486C36.0341 19.3723 35.7483 19.2997 35.4221 19.2367C35.096 19.1737 34.7384 19.122 34.3775 19.0855C34.1614 18.9899 34.0462 18.8959 34.0421 18.812C34.0381 18.7281 34.1454 18.6569 34.3543 18.6049C34.8867 18.4863 35.3587 18.3656 36.5517 18.4319C37.1126 18.4572 37.6404 18.4621 38.1143 18.4463C39.1653 18.4246 40.3776 18.472 41.6371 18.584C41.9629 18.6127 42.2832 18.6322 42.5885 18.6421C44.7658 18.7109 46.8403 18.7452 48.9208 18.7695C50.0229 18.7811 51.1341 18.7775 52.2846 18.8115C54.9828 18.8851 57.439 18.8472 60.0433 18.8712C61.4073 18.8835 62.6282 18.834 63.6419 18.7251C63.8393 18.6886 64.0089 18.646 64.1486 18.5979C63.4768 18.4714 62.7389 18.3713 62.0056 18.3071C61.2723 18.2429 60.5681 18.2167 59.9606 18.2312C59.6266 18.2666 59.1948 18.273 58.7136 18.2499C58.2323 18.2267 57.7204 18.1748 57.2349 18.0999L58.6464 18.0575C59.5823 18.0377 60.5409 18.0316 61.4512 18.0032C62.8973 17.9543 64.2375 17.876 65.735 17.8443C66.9441 17.8151 68.026 17.7406 68.9468 17.6231C69.612 17.5374 70.3718 17.4767 71.2106 17.4421C71.8069 17.4236 71.8069 17.4236 72.1881 17.2482C71.8856 17.1348 71.4945 17.1189 71.1262 17.1167C68.9176 17.0453 66.8159 17.0328 64.8637 17.0794C63.8787 17.0836 63.0049 17.1317 62.2842 17.2214C62.1077 17.2593 61.6562 17.2414 61.2938 17.2291C60.1578 17.2103 59.072 17.2158 58.0495 17.2453C56.6358 17.2945 55.0614 17.2828 53.3873 17.2107C53.0699 17.1226 53.4352 17.1298 53.4532 17.0995C54.7498 17.0429 56.0208 16.9777 57.3431 16.9298C57.7045 16.9127 58.0909 16.9042 58.4979 16.9045C60.0172 16.9342 61.2833 16.8518 62.1187 16.6689C62.1607 16.5981 62.7103 16.6064 62.9531 16.5605C63.0726 16.5207 63.1522 16.4739 63.1895 16.4215C62.8357 16.2908 62.4356 16.2901 62.1276 16.29C61.2339 16.3045 60.3741 16.3322 59.5525 16.3728C58.7886 16.4114 57.9431 16.4217 57.0388 16.4035C56.3714 16.386 55.8009 16.413 55.1275 16.4056C54.7623 16.3901 54.3842 16.3651 54.0009 16.3312C54.4277 16.2401 55.0077 16.1841 55.7002 16.1671C56.2254 16.1127 56.882 16.0963 56.966 15.9547C56.7179 15.8534 56.4416 15.8517 56.2197 15.8623C55.7579 15.8619 55.3118 15.8683 54.8837 15.8814C53.9761 15.9102 52.9934 15.9106 51.9563 15.8826C51.4102 15.8721 50.892 15.8753 50.4104 15.892C49.319 15.9142 48.273 15.9638 47.2736 15.9867C45.2266 16.01 43.3595 16.0936 41.3925 16.1378C40.9547 16.1487 40.5623 16.187 39.9853 16.1209C39.4083 16.0549 39.3826 16.0463 39.3145 16.0053C39.153 15.9369 39.1041 15.8705 39.1779 15.82C39.2923 15.7729 39.5153 15.7466 39.807 15.746C41.5654 15.6709 43.2332 15.5656 44.7999 15.4305C45.4894 15.4035 46.0935 15.3483 46.5912 15.2669C46.9859 15.2109 47.4541 15.1738 47.9811 15.1568C48.7477 15.1163 49.5468 15.0866 50.3752 15.0678C50.7607 15.0578 51.0884 15.0277 51.3392 14.9795C51.59 14.9314 51.7587 14.866 51.8354 14.7872L50.8198 14.5257C50.6602 14.5135 50.5019 14.503 50.3456 14.4941L41.9161 14.6825L41.0812 14.6877C40.1663 14.6721 39.9427 14.6335 39.0748 14.3306C41.0555 14.2593 42.6125 14.0516 43.5908 13.7281C43.3557 13.6933 43.1146 13.6634 42.8733 13.6392C41.2904 13.5627 39.7941 13.5424 38.4419 13.579C37.6388 13.5827 36.813 13.5727 35.9841 13.5678C36.2265 13.4186 37.1552 13.4631 37.7604 13.4294C39.2066 13.3768 40.4854 13.2682 41.556 13.1069C41.9251 13.044 42.3869 13.0038 42.9202 12.9881C43.4539 12.9827 43.8998 12.9447 44.2189 12.8773C44.5381 12.8099 44.7208 12.7152 44.7513 12.6014C44.8016 12.4984 44.91 12.4027 45.0747 12.3157C44.7832 12.1923 44.3203 12.0741 43.7728 11.9833C43.2254 11.8925 42.6311 11.8354 42.1015 11.8226C40.9707 11.7718 39.798 11.6886 38.6129 11.5752C38.0226 11.5179 37.4438 11.4851 36.9141 11.4788C36.4469 11.4739 35.9159 11.4326 35.402 11.3611C34.8882 11.2896 34.4197 11.1919 34.068 11.0828C33.5934 10.948 33.1504 10.8117 32.7075 10.6754C32.2645 10.5392 31.7505 10.3669 31.2335 10.1997C30.7776 10.1736 30.3337 10.1568 29.9077 10.1495C29.5763 10.1557 29.1896 10.1374 28.7933 10.097C28.3969 10.0566 28.0074 9.99562 27.6708 9.92135C27.8682 9.84808 28.0914 9.78342 28.3266 9.69854C28.0038 9.58645 27.7698 9.47214 27.6388 9.36257C27.5077 9.25301 27.4824 9.15048 27.5644 9.06124C27.6124 8.98032 27.2615 8.84457 27.1403 8.73726C26.9842 8.64475 26.9549 8.55842 27.0562 8.48958C27.1574 8.42075 27.3846 8.37262 27.7078 8.35151C28.1087 8.31256 28.435 8.25389 28.6733 8.17792C28.7521 8.1582 28.7922 8.13119 28.79 8.09936C28.7877 8.06754 28.7432 8.03191 28.6605 7.99574C28.5777 7.95957 28.4594 7.92401 28.3163 7.89231C28.1732 7.86061 28.0099 7.83379 27.8414 7.81429C27.3251 7.75902 26.8124 7.72319 26.3327 7.70887C25.5062 7.68252 24.7151 7.66597 23.9592 7.65921C23.1232 7.64905 22.1932 7.58631 21.2635 7.47736C20.4312 7.37428 19.685 7.28186 19.2781 7.08487C18.8711 6.88788 18.2204 6.89416 17.7201 6.75076C18.0011 6.62149 18.5007 6.53167 19.1683 6.49037C19.6052 6.47563 19.9699 6.43694 20.239 6.37677C20.508 6.3166 20.6756 6.23629 20.7309 6.141L19.2118 5.74113C17.9987 5.55288 17.3275 5.69777 16.0168 5.62229L17.3673 5.47468C17.3945 5.46009 17.4046 5.44296 17.3973 5.4241C17.2662 5.12555 17.0576 5.06171 15.6769 4.89615L14.9021 4.80018L13.6756 4.68628C13.4792 4.6251 13.3434 4.56129 13.2817 4.50125C13.2199 4.4412 13.2345 4.38702 13.3239 4.34413C13.5036 4.27198 13.5582 4.1798 13.4828 4.07606C13.3638 4.00734 13.354 3.94399 13.455 3.897C13.5561 3.85001 13.7615 3.82234 14.0358 3.81881C14.2547 3.81334 14.2709 3.73392 14.39 3.68895C14.5083 3.62696 14.7108 3.5794 14.9837 3.54949C15.2566 3.51959 15.5934 3.50803 15.9714 3.51563C17.0857 3.52184 18.1325 3.49857 19.0932 3.44624L18.921 3.42491C19.9223 3.47085 20.8585 3.47642 21.6838 3.44136C22.5109 3.39722 23.5724 3.42553 24.451 3.39862C25.1662 3.40479 25.7107 3.3437 25.969 3.22831C26.2191 3.11814 27.1281 3.14385 27.8242 3.16491C28.2365 3.17853 28.635 3.18431 29.0155 3.18216C29.5261 3.15723 30.1646 3.18073 30.8244 3.24876C31.0224 3.26967 31.2174 3.28074 31.3907 3.2809C33.0681 3.30949 34.7425 3.34314 36.3972 3.35807C36.7792 3.34947 37.2271 3.36915 37.6883 3.41481C37.8821 3.43463 38.0708 3.44285 38.2289 3.43834C40.8436 3.393 43.794 3.50868 46.3572 3.44612C46.6679 3.43134 47.0119 3.42827 47.3793 3.43698C48.2051 3.47374 48.9221 3.45008 49.4217 3.36962C49.6912 3.32682 50.0367 3.30323 50.4362 3.30037C50.8358 3.29751 51.2805 3.31542 51.7421 3.35298C52.5102 3.4027 53.2201 3.40809 53.7968 3.36859C54.9214 3.33208 56.1041 3.31707 57.3354 3.32367C57.7128 3.33006 58.0444 3.31587 58.3048 3.28222C58.5651 3.24856 58.7471 3.19633 58.8367 3.12958C58.5343 3.01611 58.2036 3.00231 57.8897 3.01228C56.6727 2.98643 55.4588 2.95551 54.2645 2.94333C53.1956 2.90853 52.1699 2.89789 51.2027 2.91157C50.7224 2.927 50.123 2.89181 49.5355 2.81367C48.8154 2.7147 48.0738 2.66553 47.4605 2.67611C47.0059 2.67874 46.5259 2.67021 46.0277 2.65066C45.7088 2.62709 45.3819 2.5866 45.0806 2.53337C44.961 2.51025 44.8309 2.4908 44.6985 2.47628C44.5661 2.46177 44.4345 2.4525 44.3119 2.44907C44.1893 2.44563 44.0783 2.4481 43.9863 2.45633C43.8943 2.46455 43.8233 2.47836 43.7776 2.49685C43.3163 2.65145 42.2848 2.57255 41.4015 2.55545C40.0779 2.29379 39.0927 2.44867 37.8556 2.30087C37.7578 2.29108 37.6614 2.28514 37.5723 2.28345C37.4833 2.28175 37.4035 2.28433 37.3377 2.29102C34.9437 2.37997 32.1534 2.30584 29.6399 2.33656C29.3627 2.34105 29.0409 2.32565 28.7112 2.29212C26.5564 2.07017 24.4846 2.00716 22.901 2.11541C22.7083 2.12516 22.4891 2.12558 22.2533 2.11664C21.1706 2.02843 20.1351 1.99326 19.2335 2.01407C17.8203 2.00735 16.4616 2.01279 15.0258 1.9924C14.036 1.96339 13.1677 1.99439 12.5079 2.0823C12.4869 2.11771 12.0474 2.07956 11.7107 2.07586C11.5171 1.98673 11.3492 1.90622 11.1496 1.82721C10.9711 1.72946 10.7038 1.63053 10.3658 1.53715C10.0278 1.44378 9.62712 1.35813 9.19066 1.28599C8.44446 1.19357 8.36983 1.05946 8.89198 1.01012C10.2378 0.846884 11.9301 0.780071 13.8446 0.814588C15.4449 0.817347 17.0739 0.823669 18.697 0.840096C19.6436 0.854192 20.6416 0.885499 21.5626 0.890981C21.8733 0.903025 22.1925 0.920775 22.5169 0.94404C22.915 0.977771 23.3014 0.996148 23.6555 0.99819C24.7925 0.969781 26.0613 0.994529 27.4015 1.07125C27.8924 1.08798 28.3637 1.09361 28.8086 1.08808C29.861 1.06726 31.0019 1.08258 32.2011 1.13365C32.9465 1.16245 33.6692 1.17751 34.3618 1.17866C34.6064 1.18181 34.8055 1.15762 35.0411 1.17594C37.1148 1.36762 38.5832 1.22917 40.4495 1.30288C41.3566 1.32343 42.2232 1.32349 43.0372 1.30305C44.6257 1.30404 46.2584 1.32506 47.929 1.36601C50.138 1.4333 52.185 1.40995 54.2942 1.43774C54.7106 1.44357 55.1127 1.44258 55.4975 1.43475C57.3693 1.38305 59.4024 1.39401 61.5471 1.46738C62.0341 1.47798 62.4715 1.46502 62.8319 1.42932C63.1923 1.39362 63.468 1.33594 63.6416 1.2599C63.7151 1.20771 63.6675 1.13993 63.508 1.06962C63.2433 0.979833 62.9443 0.89186 62.6161 0.807148L50.6775 0.522897C50.176 0.508054 49.6871 0.500064 49.213 0.498958C47.8187 0.496488 46.3814 0.474374 44.9085 0.432729C43.4529 0.393611 42.0625 0.400556 40.6523 0.388777C40.237 0.384832 39.8106 0.375524 39.375 0.360878C36.4307 0.244966 33.5597 0.174168 30.7822 0.148994C29.6137 0.145421 28.3513 0.0922257 27.1601 0.0749821C25.9688 0.05774 24.3398 0.0514263 22.9267 0.0447062L18.5516 0.0457384C17.691 0.0423084 16.8531 0.0525444 16.0183 0.0577261C15.0052 -0.312059 14.656 -0.398731 13.3041 -0.56074C12.8416 -0.6205 12.3712 -0.656165 11.948 -0.663554C10.606 -0.634322 8.92209 -0.756007 7.64947 -0.739897C6.88155 -0.747844 6.22994 -0.706766 5.76134 -0.620865C5.35456 -0.553448 4.8894 -0.500105 4.37304 -0.461637C2.95857 -0.777978 2.83391 -0.983432 3.89792 -1.06338C4.1862 -1.08197 4.58328 -1.07622 4.79145 -1.11559C4.91089 -1.13956 5.07406 -1.15327 5.26796 -1.15564C5.46186 -1.15801 5.68111 -1.14898 5.90854 -1.12924C6.6263 -1.07748 7.29906 -1.0653 7.8593 -1.09394C8.38655 -1.13185 9.03283 -1.13034 9.73586 -1.08954C10.2525 -1.02556 10.7065 -1.11591 11.1533 -1.14201C11.6001 -1.16811 11.9667 -1.215 12.6645 -1.14486C12.7923 -1.1309 12.9191 -1.12251 13.0353 -1.12036C13.1515 -1.1182 13.254 -1.12232 13.3349 -1.13241C14.0843 -1.17758 14.9787 -1.17284 15.9452 -1.11856C17.4277 -1.06515 18.8187 -1.06315 20.0698 -1.11262C20.8188 -1.15591 21.4573 -1.23267 21.9605 -1.33992C22.0977 -1.37579 22.3014 -1.3973 22.5521 -1.40238C23.8109 -1.38001 25.1777 -1.29579 26.5645 -1.15517C27.0869 -1.09882 27.6086 -1.05425 28.1186 -1.02241C29.1666 -0.951672 30.1802 -0.912033 31.1295 -0.904667C32.5088 -0.9035 33.9449 -0.876282 35.425 -0.823264C36.3384 -0.793742 37.2186 -0.782846 38.055 -0.790694C38.9147 -0.794394 39.8327 -0.771875 40.788 -0.723662C41.738 -0.684373 42.5752 -0.70701 43.1987 -0.788833C43.404 -0.832927 43.5694 -0.885285 43.6917 -0.944933C42.3007 -1.13903 40.8621 -1.23767 39.6655 -1.22099C39.211 -1.23385 38.8337 -1.22087 38.3548 -1.29647L38.3398 -1.27118C38.2445 -1.25478 38.1007 -1.2509 37.9358 -1.26031C37.771 -1.26971 37.5966 -1.29174 37.4458 -1.32218C37.5028 -1.41828 37.5567 -1.50932 37.5957 -1.57507C38.5074 -1.56347 39.3926 -1.56441 40.2468 -1.57789C40.9669 -1.59729 41.9444 -1.42737 42.5676 -1.49133C43.7833 -1.41134 44.5573 -1.52179 45.6474 -1.48992C46.7376 -1.45805 47.9383 -1.35277 49.0285 -1.3209C49.9797 -1.30342 50.9034 -1.29961 51.7943 -1.30952C52.1018 -1.32342 52.4563 -1.32016 52.836 -1.29993C53.3699 -1.26189 53.8664 -1.25551 54.2686 -1.28154C54.6709 -1.30757 54.9626 -1.36497 55.1105 -1.44713C54.9713 -1.52409 54.7837 -1.62333 54.5674 -1.72613C54.9654 -1.8106 55.5698 -1.84617 56.291 -1.82754L57.3101 -1.83162C57.5801 -1.82939 57.7865 -1.85222 57.8867 -1.8954C57.9868 -1.93858 57.973 -1.99879 57.8481 -2.06359C55.9157 -2.38978 55.8445 -2.42573 54.4263 -2.21592L52.5433 -2.31342L52.575 -2.31492ZM78.0449 -1.41888L77.9014 -1.43665L78.0449 -1.41888ZM312.711 33.2859L312.678 33.3416L312.714 33.2809L313.03 33.32L313.051 33.2846L312.711 33.2859ZM266.874 8.9005C266.428 8.8398 265.978 8.784 265.525 8.73343C265.407 8.72559 265.296 8.72382 265.202 8.72827C265.109 8.73272 265.034 8.74325 264.986 8.75898C264.95 8.81968 265.203 8.86179 265.432 8.89023C265.722 8.9285 266.018 8.95282 266.289 8.96068C266.561 8.96854 266.798 8.95967 266.977 8.93495L267.237 8.91281L266.874 8.9005ZM37.0379 23.6931C37.3317 23.7033 37.6103 23.705 37.8668 23.6981C39.005 23.649 40.0946 23.5777 41.2614 23.5322C42.7336 23.4167 44.4254 23.3696 46.2731 23.3928C46.995 23.4041 47.6049 23.3667 48.0315 23.2848C48.287 23.2409 48.6166 23.2153 49.0004 23.2094L53.8853 23.0761C54.1872 23.0484 54.4483 23.0096 54.6623 22.9606C54.2318 22.9072 53.9448 22.8717 53.7726 22.8504C53.4153 22.8444 53.1082 22.8606 52.8821 22.8975C52.6392 22.96 52.2286 22.9848 51.7319 22.9668C51.2305 22.952 50.7415 22.944 50.2675 22.9429C49.3722 22.946 48.4709 22.9592 47.5726 22.9674C47.2231 23.1413 46.1917 23.0624 45.3084 23.0453L44.626 23.0531C42.3955 23.1432 40.2649 23.2672 38.2445 23.4245C37.854 23.4511 37.5176 23.4936 37.2457 23.5506C37.1432 23.595 37.1104 23.6504 37.1498 23.7124L37.0063 23.6946L37.0379 23.6931ZM136.641 40.3182C137.183 40.3301 137.746 40.3544 138.324 40.3908C138.769 40.4281 139.203 40.4507 139.609 40.4577C141.884 40.4967 144.254 40.5867 146.689 40.7266C147.007 40.7477 147.313 40.7581 147.595 40.7573L149.588 40.7218C150.215 40.7019 150.227 40.6816 149.77 40.4133C149.391 40.3612 149.007 40.3137 148.622 40.2711C148.393 40.2427 148.02 40.1965 147.932 40.2399C147.4 40.3586 146.429 40.2818 145.612 40.2566C143.248 40.1918 140.809 40.096 138.422 40.0175C137.917 39.9983 137.428 39.9886 136.96 39.9885C136.67 39.9845 136.405 39.9921 136.177 40.0109C136.11 40.0129 136.054 40.0185 136.013 40.0274C135.972 40.0363 135.946 40.0484 135.937 40.0627C135.929 40.0771 135.938 40.0934 135.964 40.1106C135.989 40.1279 136.031 40.1456 136.087 40.1627C136.282 40.2224 136.508 40.2796 136.756 40.3324L136.641 40.3182ZM153.963 1.37121L156.292 1.33939C156.571 1.33598 156.808 1.30017 157.107 1.31548C158.702 1.36402 160.179 1.3505 161.475 1.2755C161.916 1.24489 162.432 1.23877 162.995 1.25748C164.718 1.3129 166.344 1.31518 167.828 1.26425C168.787 1.25403 169.684 1.2197 170.507 1.16177C170.57 1.14833 170.61 1.13007 170.623 1.10825C170.636 1.08643 170.622 1.06155 170.582 1.03533C170.571 1.01876 170.543 1.00094 170.499 0.983084C170.455 0.965235 170.396 0.947779 170.327 0.931926C170.257 0.916073 170.178 0.902203 170.096 0.89126C170.013 0.880317 169.929 0.872561 169.849 0.868538C168.809 0.790126 167.823 0.762811 166.97 0.788805C166.178 0.819909 165.326 0.829011 164.427 0.815967C163.567 0.812537 162.983 0.913957 161.92 0.836569C161.47 0.811085 161.073 0.819474 160.797 0.860333C160.24 0.928053 159.462 0.931821 158.603 0.870963C158.089 0.840163 157.597 0.826954 157.147 0.831842C156.056 0.854107 155.013 0.898652 154.002 0.941697C153.683 0.951653 153.342 0.953028 152.983 0.945788L147.919 0.861504C146.702 0.835647 145.488 0.804734 144.293 0.79255C143.317 0.766093 142.408 0.774379 141.599 0.817116C140.736 0.862035 139.795 0.88027 138.794 0.871478C137.239 0.896061 135.693 0.905462 134.001 0.902155C132.921 0.90419 131.816 0.897615 130.688 0.877367C130.118 0.851306 129.633 0.872529 129.328 0.93695C129.143 0.989985 128.706 0.946778 128.344 0.93447C126.411 0.815839 124.598 0.78773 123.032 0.8521C122.832 0.86259 122.613 0.866386 122.379 0.863426C120.87 0.861216 119.308 0.846838 117.86 0.84668C117.479 0.85168 117.12 0.865403 116.788 0.887675C116.824 0.92401 116.925 0.963392 117.071 0.997652C117.217 1.03191 117.397 1.05843 117.573 1.07169C118.942 1.1732 120.264 1.22682 121.483 1.23031C123.513 1.21738 125.639 1.24645 127.84 1.31722C129.547 1.38856 131.104 1.37354 132.394 1.27327C133.403 1.19846 134.715 1.22661 136.106 1.35289C136.701 1.4132 137.278 1.43732 137.759 1.42194C138.222 1.40177 138.753 1.40666 139.322 1.43632C140.52 1.49272 141.673 1.51889 142.757 1.5143C143.816 1.49353 144.805 1.43682 145.894 1.41961C146.982 1.40241 148.64 1.41226 149.982 1.38303C151.324 1.3538 152.651 1.34986 153.963 1.37121ZM57.4425 -1.5872C57.5654 -1.43082 58.0007 -1.33348 58.4689 -1.29178C60.0831 -1.10662 61.6789 -1.02782 62.9884 -1.06862C63.6958 -1.12553 64.6388 -1.10363 65.6322 -1.00721C66.7889 -0.906978 67.87 -0.890356 68.685 -0.960271C68.8847 -0.972486 69.0376 -0.998312 69.1301 -1.03545C69.1481 -1.06579 69.181 -1.12143 69.187 -1.13154C69.1014 -1.1572 68.9964 -1.18097 68.8801 -1.20102C68.7638 -1.22107 68.6393 -1.23687 68.5163 -1.2472L63.1696 -1.42621L62.2378 -1.46561C60.536 -1.56881 58.9144 -1.60993 57.4425 -1.5872ZM67.9594 0.88802C68.7939 1.14339 68.7968 1.13832 69.2243 1.19669C71.2867 1.43917 73.3477 1.57006 75.1621 1.5738C75.5654 1.57306 75.9077 1.54841 76.1598 1.50192C76.2896 1.49562 76.3722 1.4756 76.3896 1.44623C76.407 1.41686 76.3578 1.38051 76.2528 1.34513L75.5892 1.16522C74.3841 1.08734 73.1963 1.02545 72.033 0.979943C70.6786 0.926199 69.4783 0.924125 68.0741 0.902231L67.9594 0.88802ZM136.541 39.1875C137.319 39.5389 137.322 39.5339 138.624 39.6245C139.531 39.6888 140.411 39.7265 141.238 39.7365C142.248 39.7476 143.283 39.7673 144.29 39.7835C144.536 39.7947 144.745 39.7854 144.875 39.7574C145.006 39.7294 145.049 39.6847 144.996 39.632C144.864 39.5748 144.657 39.5195 144.41 39.475C144.162 39.4305 143.888 39.3995 143.632 39.387L143.082 39.3787C142.415 39.3612 141.722 39.335 141.077 39.3312C140.659 39.3458 140.174 39.3345 139.661 39.2983C139.148 39.2621 138.621 39.2019 138.12 39.1224L136.541 39.1875ZM72.1114 -1.12766C72.319 -1.0668 72.5538 -1.0085 72.8096 -0.954329C73.7999 -0.804173 74.8481 -0.718889 75.7486 -0.715198C76.1743 -0.705897 76.5637 -0.739107 76.9972 -0.690847C77.7747 -0.626355 78.5282 -0.592003 79.217 -0.589648C79.217 -0.589648 79.4102 -0.603729 79.4736 -0.606736L79.6054 -0.829277C79.2794 -0.880833 78.9393 -0.92295 78.6009 -0.95369C77.4653 -1.0129 76.3495 -1.05338 75.2366 -1.09891C74.1238 -1.14445 73.7357 -1.16537 73.0079 -1.18493C72.6833 -1.17418 72.383 -1.155 72.1114 -1.12766ZM47.5202 26.5387L49.0063 26.9942C49.4872 27.0337 49.9364 27.0409 50.2857 27.0146C50.6349 26.9883 50.865 26.9299 50.941 26.8483C51.0634 26.8102 51.0757 26.7536 50.9752 26.6906C50.8747 26.6275 50.6693 26.5629 50.4021 26.5101C50.1449 26.4476 49.8514 26.3916 49.5395 26.3455C49.2277 26.2994 48.9043 26.2642 48.5894 26.2422L47.5202 26.5387ZM59.8931 24.2708C58.9211 24.1935 57.9915 24.1619 57.1752 24.1784C56.6609 24.2236 55.9641 24.2092 55.2275 24.1381C53.8881 23.9964 52.5969 23.9572 51.6264 24.0287C51.6264 24.0287 51.5903 24.0894 51.4259 24.107C51.2614 24.1246 51.9138 24.1674 52.0573 24.1852C53.1097 24.2287 54.1682 24.2621 55.0832 24.2776C55.6512 24.277 56.2521 24.2913 56.8754 24.3205C57.733 24.3654 58.5463 24.38 59.2836 24.3636C59.2836 24.3636 59.5688 24.35 59.8901 24.2758L59.8931 24.2708ZM163.694 0.545973C163.23 0.460189 162.726 0.390468 162.221 0.342047C161.716 0.293624 161.223 0.26776 160.779 0.266382C160.438 0.261907 160.163 0.284554 159.996 0.330748C159.829 0.376943 159.781 0.444047 159.858 0.521446C160.202 0.564101 160.661 0.620974 160.919 0.652964C161.815 0.649835 162.578 0.608701 163.694 0.545973ZM250.598 7.77495C250.225 7.70589 249.815 7.6531 249.413 7.62258C249.012 7.59207 248.636 7.58508 248.328 7.60241C248.169 7.60992 248.277 7.68839 248.25 7.73391C248.232 7.74423 248.232 7.75706 248.25 7.77107C248.268 7.78508 248.304 7.79975 248.352 7.81353C248.401 7.82731 248.461 7.8397 248.526 7.84941C248.592 7.85912 248.66 7.86578 248.724 7.8687C249.129 7.89845 249.51 7.9073 249.835 7.89447C250.16 7.88164 250.418 7.84754 250.586 7.79518L250.598 7.77495ZM256.42 8.76213C256.363 8.72138 256.24 8.67892 256.075 8.64251C255.91 8.6061 255.713 8.57819 255.521 8.56391C255.182 8.56199 254.874 8.57329 254.608 8.59739C254.32 8.61597 254.527 8.73395 254.917 8.80395C255.082 8.83204 255.258 8.85396 255.432 8.86795C255.606 8.88194 255.772 8.88762 255.917 8.88455C256.063 8.88147 256.183 8.86971 256.269 8.85022C256.356 8.83073 256.405 8.80403 256.414 8.77225L256.42 8.76213ZM87.2271 -0.69424C86.3584 -0.839836 85.6898 -0.803208 84.9543 -0.861727C84.2188 -0.920244 84.0376 -0.926401 84.1361 -0.832762C84.2346 -0.739123 84.7388 -0.758112 85.0545 -0.719012C85.4811 -0.667129 85.9102 -0.637336 86.2939 -0.632962C86.6776 -0.628586 87.0007 -0.649803 87.2271 -0.69424ZM268.25 23.941C267.79 23.9083 267.339 23.8852 266.904 23.8721C266.847 23.8856 266.812 23.9033 266.799 23.9242C266.787 23.945 266.798 23.9686 266.833 23.9935C266.833 23.9935 267.127 24.068 267.299 24.0893C267.934 24.1624 267.965 24.0577 268.25 23.941ZM333.284 37.5061C333.596 37.6044 333.741 37.6713 333.99 37.7184C334.105 37.7348 334.223 37.7467 334.336 37.7532C334.45 37.7598 334.555 37.7608 334.645 37.7562C334.755 37.7278 334.781 37.6845 334.717 37.6348C334.717 37.6348 334.4 37.5466 334.279 37.5425C333.935 37.5217 333.601 37.5095 333.284 37.5061ZM72.4403 -1.52668C71.7802 -1.60844 71.1488 -1.68665 70.6917 -1.59124C71.7399 -1.48856 71.74 -1.48856 72.4403 -1.52668ZM83.1317 -0.59342C82.4651 -0.768266 82.074 -0.784134 81.754 -0.764044C81.686 -0.758984 81.641 -0.747707 81.6258 -0.731922C81.6107 -0.716141 81.6261 -0.696707 81.6699 -0.676565C81.7136 -0.656424 81.7833 -0.636669 81.8683 -0.620289C81.9534 -0.60391 82.0492 -0.591794 82.1413 -0.585782C82.4889 -0.580749 82.8204 -0.583304 83.1317 -0.59342ZM117.437 -0.519483C117.452 -0.544773 117.47 -0.575119 117.298 -0.596446C117.253 -0.607274 117.2 -0.616583 117.145 -0.623446C117.089 -0.630311 117.033 -0.634481 116.982 -0.635542C116.982 -0.635542 116.965 -0.605194 116.953 -0.584963L117.437 -0.519483ZM141.26 41.4657L140.877 41.4888L141.049 41.5102L141.503 41.523L141.26 41.4657ZM276.247 8.36752C276.104 8.34975 275.96 8.33197 275.939 8.36738C275.909 8.37286 275.89 8.38078 275.885 8.39046C275.879 8.40014 275.886 8.4113 275.906 8.42302C275.906 8.42302 276.107 8.4479 276.193 8.45856L276.247 8.36752ZM253.899 8.65069C253.804 8.64866 253.719 8.65103 253.648 8.65766L253.63 8.68801L253.917 8.72355L253.899 8.65069ZM59.1351 15.8813C59.0243 15.8629 58.9068 15.8483 58.7907 15.8387L58.6472 15.8209C58.6472 15.8209 58.8014 15.8726 58.8875 15.8832C58.9736 15.8939 59.043 15.8808 59.1351 15.8813Z" fill="#11BDCF"/>
</g>
</svg>
