<svg width="20" height="21" viewBox="0 0 20 21" fill="none" xmlns="http://www.w3.org/2000/svg">
<path fill-rule="evenodd" clip-rule="evenodd" d="M0.833252 10.4714C0.833252 15.534 4.93731 19.638 9.99992 19.638C15.0625 19.638 19.1666 15.534 19.1666 10.4714C19.1666 5.40874 15.0625 1.30469 9.99992 1.30469C4.93731 1.30469 0.833252 5.40874 0.833252 10.4714ZM17.4999 10.4714C17.4999 14.6135 14.1421 17.9714 9.99992 17.9714C5.85778 17.9714 2.49992 14.6135 2.49992 10.4714C2.49992 6.32922 5.85778 2.97135 9.99992 2.97135C14.1421 2.97135 17.4999 6.32922 17.4999 10.4714ZM10.0002 14.6367C10.4606 14.6367 10.8338 14.2636 10.8338 13.8034C10.8338 13.3431 10.4606 12.97 10.0002 12.97C9.5398 12.97 9.16659 13.3431 9.16659 13.8034C9.16659 14.2636 9.5398 14.6367 10.0002 14.6367ZM9.16659 12.138H10.8333C10.8333 11.4727 10.9378 11.3508 11.6226 11.0084C12.8128 10.4133 13.3333 9.80606 13.3333 8.38802C13.3333 6.57188 11.9035 5.47135 9.99992 5.47135C8.15897 5.47135 6.66659 6.96374 6.66659 8.80469H8.33325C8.33325 7.88421 9.07944 7.13802 9.99992 7.13802C11.0642 7.13802 11.6666 7.60169 11.6666 8.38802C11.6666 9.05331 11.5621 9.17525 10.8772 9.51766C9.68707 10.1128 9.16659 10.72 9.16659 12.138Z" fill="#DBF5F8"/>
</svg>
