<svg width="48" height="48" viewBox="0 0 48 48" fill="none" xmlns="http://www.w3.org/2000/svg">
<rect width="48" height="48" rx="15" fill="#F5F5F5"/>
<g clip-path="url(#clip0_1_22870)">
<path d="M22 31.748V28.4C22 27.117 22.995 26.108 24.467 25.532C23.5177 25.1789 22.5128 24.9988 21.5 25C19.61 25 17.864 25.617 16.453 26.66C16.8905 27.8973 17.6251 29.0083 18.5923 29.8955C19.5594 30.7826 20.7296 31.4187 22 31.748ZM30.88 28.086C30.485 27.553 29.17 27 27.5 27C25.494 27 24 27.797 24 28.4V32C25.3878 32.0008 26.752 31.6403 27.9583 30.954C29.1646 30.2678 30.1715 29.2794 30.88 28.086ZM21.55 23.5C22.1467 23.5 22.719 23.2629 23.141 22.841C23.5629 22.419 23.8 21.8467 23.8 21.25C23.8 20.6533 23.5629 20.081 23.141 19.659C22.719 19.2371 22.1467 19 21.55 19C20.9533 19 20.381 19.2371 19.959 19.659C19.5371 20.081 19.3 20.6533 19.3 21.25C19.3 21.8467 19.5371 22.419 19.959 22.841C20.381 23.2629 20.9533 23.5 21.55 23.5ZM27.5 24.5C28.0304 24.5 28.5391 24.2893 28.9142 23.9142C29.2893 23.5391 29.5 23.0304 29.5 22.5C29.5 21.9696 29.2893 21.4609 28.9142 21.0858C28.5391 20.7107 28.0304 20.5 27.5 20.5C26.9696 20.5 26.4609 20.7107 26.0858 21.0858C25.7107 21.4609 25.5 21.9696 25.5 22.5C25.5 23.0304 25.7107 23.5391 26.0858 23.9142C26.4609 24.2893 26.9696 24.5 27.5 24.5ZM24 34C18.477 34 14 29.523 14 24C14 18.477 18.477 14 24 14C29.523 14 34 18.477 34 24C34 29.523 29.523 34 24 34Z" fill="#113255"/>
</g>
<defs>
<clipPath id="clip0_1_22870">
<rect width="24" height="24" fill="white" transform="translate(12 12)"/>
</clipPath>
</defs>
</svg>
