<svg width="48" height="48" viewBox="0 0 48 48" fill="none" xmlns="http://www.w3.org/2000/svg">
<rect width="48" height="48" rx="15" fill="#FFDCDE"/>
<g clip-path="url(#clip0_1_22841)">
<path d="M21 31H24V24.942L20 21.454L16 24.942V31H19V27H21V31ZM33 33H15C14.7348 33 14.4804 32.8946 14.2929 32.7071C14.1054 32.5196 14 32.2652 14 32V24.487C14 24.3441 14.0306 24.2029 14.0898 24.0728C14.1489 23.9428 14.2353 23.8269 14.343 23.733L18 20.544V16C18 15.7348 18.1054 15.4804 18.2929 15.2929C18.4804 15.1054 18.7348 15 19 15H33C33.2652 15 33.5196 15.1054 33.7071 15.2929C33.8946 15.4804 34 15.7348 34 16V32C34 32.2652 33.8946 32.5196 33.7071 32.7071C33.5196 32.8946 33.2652 33 33 33ZM28 23V25H30V23H28ZM28 27V29H30V27H28ZM28 19V21H30V19H28ZM24 19V21H26V19H24Z" fill="#113255"/>
</g>
<defs>
<clipPath id="clip0_1_22841">
<rect width="24" height="24" fill="white" transform="translate(12 12)"/>
</clipPath>
</defs>
</svg>
