<svg width="48" height="48" viewBox="0 0 48 48" fill="none" xmlns="http://www.w3.org/2000/svg">
<rect width="48" height="48" rx="15" fill="#FCEACF"/>
<g clip-path="url(#clip0_1_22812)">
<path d="M13 34.0002C13 31.8784 13.8429 29.8436 15.3431 28.3433C16.8434 26.843 18.8783 26.0002 21 26.0002C23.1217 26.0002 25.1566 26.843 26.6569 28.3433C28.1571 29.8436 29 31.8784 29 34.0002H13ZM21 25.0002C17.685 25.0002 15 22.3152 15 19.0002C15 15.6852 17.685 13.0002 21 13.0002C24.315 13.0002 27 15.6852 27 19.0002C27 22.3152 24.315 25.0002 21 25.0002ZM30.246 15.1842C30.7454 16.3943 31.0016 17.691 31 19.0002C31.0016 20.3093 30.7454 21.606 30.246 22.8162L28.569 21.5962C28.8552 20.7606 29.0008 19.8834 29 19.0002C29.0011 18.117 28.8558 17.2398 28.57 16.4042L30.246 15.1842ZM33.548 12.7842C34.5062 14.716 35.0032 16.8438 35 19.0002C35 21.2332 34.477 23.3442 33.548 25.2162L31.903 24.0202C32.6282 22.4461 33.0025 20.7332 33 19.0002C33 17.2082 32.607 15.5072 31.903 13.9802L33.548 12.7842Z" fill="#113255"/>
</g>
<defs>
<clipPath id="clip0_1_22812">
<rect width="24" height="24" fill="white" transform="translate(12 12)"/>
</clipPath>
</defs>
</svg>
