<svg width="20" height="21" viewBox="0 0 20 21" fill="none" xmlns="http://www.w3.org/2000/svg">
<path d="M15.5917 6.50846C15.5142 6.43035 15.4221 6.36836 15.3205 6.32605C15.219 6.28374 15.11 6.26196 15 6.26196C14.89 6.26196 14.7811 6.28374 14.6796 6.32605C14.578 6.36836 14.4858 6.43035 14.4084 6.50846L8.20004 12.7251L5.59171 10.1085C5.51127 10.0308 5.41632 9.96967 5.31227 9.92866C5.20823 9.88766 5.09713 9.86755 4.98531 9.86949C4.87349 9.87142 4.76315 9.89536 4.66058 9.93994C4.55802 9.98452 4.46524 10.0489 4.38754 10.1293C4.30984 10.2097 4.24875 10.3047 4.20774 10.4087C4.16674 10.5128 4.14663 10.6239 4.14856 10.7357C4.1505 10.8475 4.17444 10.9579 4.21902 11.0604C4.2636 11.163 4.32794 11.2558 4.40837 11.3335L7.60837 14.5335C7.68584 14.6116 7.77801 14.6736 7.87956 14.7159C7.98111 14.7582 8.09003 14.78 8.20004 14.78C8.31005 14.78 8.41897 14.7582 8.52052 14.7159C8.62207 14.6736 8.71424 14.6116 8.79171 14.5335L15.5917 7.73346C15.6763 7.65543 15.7438 7.56072 15.79 7.4553C15.8361 7.34988 15.86 7.23605 15.86 7.12096C15.86 7.00588 15.8361 6.89204 15.79 6.78662C15.7438 6.68121 15.6763 6.5865 15.5917 6.50846Z" fill="#11BDCF"/>
</svg>
