<svg width="20" height="20" viewBox="0 0 20 20" fill="none" xmlns="http://www.w3.org/2000/svg">
<path fill-rule="evenodd" clip-rule="evenodd" d="M3.33334 4.16569C2.87691 4.16569 2.50001 4.54259 2.50001 4.99902V14.999C2.50001 15.4555 2.87691 15.8324 3.33334 15.8324H16.6667C17.1231 15.8324 17.5 15.4555 17.5 14.999V4.99902C17.5 4.54259 17.1231 4.16569 16.6667 4.16569H3.33334ZM0.833344 4.99902C0.833344 3.62212 1.95644 2.49902 3.33334 2.49902H16.6667C18.0436 2.49902 19.1667 3.62212 19.1667 4.99902V14.999C19.1667 16.3759 18.0436 17.499 16.6667 17.499H3.33334C1.95644 17.499 0.833344 16.3759 0.833344 14.999V4.99902Z" fill="#004680"/>
<path fill-rule="evenodd" clip-rule="evenodd" d="M0.983964 4.52105C1.24789 4.14401 1.7675 4.05231 2.14454 4.31624L9.99999 9.81505L17.8554 4.31624C18.2325 4.05231 18.7521 4.14401 19.016 4.52105C19.2799 4.89809 19.1882 5.4177 18.8112 5.68163L10.4779 11.515C10.1909 11.7158 9.80904 11.7158 9.52211 11.515L1.18877 5.68163C0.81173 5.4177 0.720035 4.89809 0.983964 4.52105Z" fill="#004680"/>
</svg>
