<svg width="24" height="25" viewBox="0 0 24 25" fill="none" xmlns="http://www.w3.org/2000/svg">
<path d="M11.9999 2.75C10.2567 2.74984 8.54522 3.21707 7.04387 4.10304C5.54252 4.98901 4.30616 6.2613 3.46356 7.78742C2.62097 9.31353 2.20295 11.0376 2.25305 12.7802C2.30315 14.5228 2.81953 16.22 3.74842 17.6952C4.6773 19.1704 5.98471 20.3695 7.53448 21.1678C9.08426 21.966 10.8197 22.3342 12.5601 22.2338C14.3005 22.1335 15.9821 21.5684 17.4299 20.5974C18.8777 19.6264 20.0387 18.2849 20.7919 16.7128C20.2587 16.9104 19.6935 17.0077 19.1249 17C17.4105 17 16.4508 16.2495 15.9476 15.6199C15.8304 15.4729 15.7245 15.3171 15.6309 15.154C15.0948 15.8886 14.3487 16.4434 13.491 16.7456C12.6333 17.0477 11.7041 17.0829 10.826 16.8466C9.94788 16.6102 9.16195 16.1134 8.57175 15.4216C7.98155 14.7297 7.61478 13.8753 7.51974 12.971C7.4247 12.0666 7.60587 11.1546 8.03936 10.3552C8.47285 9.55579 9.13834 8.90645 9.94816 8.49273C10.758 8.07902 11.6741 7.92032 12.5759 8.03755C13.4777 8.15479 14.3228 8.54245 14.9999 9.14947V8.75C14.9999 8.55109 15.0789 8.36032 15.2196 8.21967C15.3602 8.07902 15.551 8 15.7499 8C15.9488 8 16.1396 8.07902 16.2803 8.21967C16.4209 8.36032 16.4999 8.55109 16.4999 8.75V12.5C16.4999 13.8686 16.9553 15.5 19.1249 15.5C21.2198 15.5 21.7164 13.9791 21.7481 12.6423C21.7488 12.5949 21.7499 12.5476 21.7499 12.5C21.747 9.91504 20.7188 7.43679 18.891 5.60894C17.0631 3.78109 14.5849 2.75293 11.9999 2.75Z" fill="#DBF5F8"/>
<path d="M12 15.5C13.6569 15.5 15 14.1569 15 12.5C15 10.8431 13.6569 9.5 12 9.5C10.3431 9.5 9 10.8431 9 12.5C9 14.1569 10.3431 15.5 12 15.5Z" fill="#DBF5F8"/>
</svg>
