<svg width="24" height="25" viewBox="0 0 24 25" fill="none" xmlns="http://www.w3.org/2000/svg">
<path d="M11.9999 2.74951C10.2567 2.74935 8.54522 3.21659 7.04387 4.10255C5.54252 4.98852 4.30616 6.26082 3.46356 7.78693C2.62097 9.31305 2.20295 11.0372 2.25305 12.7797C2.30315 14.5223 2.81953 16.2195 3.74842 17.6947C4.6773 19.1699 5.98471 20.369 7.53448 21.1673C9.08426 21.9655 10.8197 22.3337 12.5601 22.2334C14.3005 22.133 15.9821 21.5679 17.4299 20.5969C18.8777 19.6259 20.0387 18.2844 20.7919 16.7123C20.2587 16.9099 19.6935 17.0072 19.1249 16.9995C17.4105 16.9995 16.4508 16.2491 15.9476 15.6194C15.8304 15.4724 15.7245 15.3167 15.6309 15.1536C15.0948 15.8881 14.3487 16.4429 13.491 16.7451C12.6333 17.0472 11.7041 17.0824 10.826 16.8461C9.94788 16.6097 9.16195 16.1129 8.57175 15.4211C7.98155 14.7292 7.61478 13.8749 7.51974 12.9705C7.4247 12.0661 7.60587 11.1541 8.03936 10.3547C8.47285 9.5553 9.13834 8.90597 9.94816 8.49225C10.758 8.07853 11.6741 7.91983 12.5759 8.03707C13.4777 8.1543 14.3228 8.54196 14.9999 9.14898V8.74951C14.9999 8.5506 15.0789 8.35983 15.2196 8.21918C15.3602 8.07853 15.551 7.99951 15.7499 7.99951C15.9488 7.99951 16.1396 8.07853 16.2803 8.21918C16.4209 8.35983 16.4999 8.5506 16.4999 8.74951V12.4995C16.4999 13.8681 16.9553 15.4995 19.1249 15.4995C21.2198 15.4995 21.7164 13.9786 21.7481 12.6418C21.7488 12.5944 21.7499 12.5471 21.7499 12.4995C21.747 9.91455 20.7188 7.4363 18.891 5.60845C17.0631 3.78061 14.5849 2.75244 11.9999 2.74951Z" fill="#DBF5F8"/>
<path d="M12 15.4995C13.6569 15.4995 15 14.1564 15 12.4995C15 10.8427 13.6569 9.49951 12 9.49951C10.3431 9.49951 9 10.8427 9 12.4995C9 14.1564 10.3431 15.4995 12 15.4995Z" fill="#DBF5F8"/>
</svg>
