<svg width="32" height="32" viewBox="0 0 32 32" fill="none" xmlns="http://www.w3.org/2000/svg">
<path d="M13.3332 26.33V21.866C13.3332 20.1553 14.6598 18.81 16.6225 18.042C15.3568 17.5713 14.0169 17.331 12.6665 17.3327C10.1465 17.3327 7.8185 18.1553 5.93717 19.546C6.52051 21.1958 7.49996 22.6771 8.7895 23.86C10.0791 25.0428 11.6393 25.891 13.3332 26.33ZM25.1732 21.4473C24.6465 20.7367 22.8932 19.9993 20.6665 19.9993C17.9918 19.9993 15.9998 21.062 15.9998 21.866V26.666C17.8503 26.667 19.6692 26.1864 21.2776 25.2714C22.886 24.3564 24.2285 23.0385 25.1732 21.4473ZM12.7332 15.3327C13.5288 15.3327 14.2919 15.0166 14.8545 14.454C15.4171 13.8914 15.7332 13.1283 15.7332 12.3327C15.7332 11.537 15.4171 10.774 14.8545 10.2114C14.2919 9.64875 13.5288 9.33268 12.7332 9.33268C11.9375 9.33268 11.1745 9.64875 10.6119 10.2114C10.0492 10.774 9.73317 11.537 9.73317 12.3327C9.73317 13.1283 10.0492 13.8914 10.6119 14.454C11.1745 15.0166 11.9375 15.3327 12.7332 15.3327ZM20.6665 16.666C21.3737 16.666 22.052 16.3851 22.5521 15.885C23.0522 15.3849 23.3332 14.7066 23.3332 13.9993C23.3332 13.2921 23.0522 12.6138 22.5521 12.1137C22.052 11.6136 21.3737 11.3327 20.6665 11.3327C19.9593 11.3327 19.281 11.6136 18.7809 12.1137C18.2808 12.6138 17.9998 13.2921 17.9998 13.9993C17.9998 14.7066 18.2808 15.3849 18.7809 15.885C19.281 16.3851 19.9593 16.666 20.6665 16.666ZM15.9998 29.3327C8.63584 29.3327 2.6665 23.3633 2.6665 15.9993C2.6665 8.63535 8.63584 2.66602 15.9998 2.66602C23.3638 2.66602 29.3332 8.63535 29.3332 15.9993C29.3332 23.3633 23.3638 29.3327 15.9998 29.3327Z" fill="#113255"/>
</svg>
