<svg width="24" height="24" viewBox="0 0 24 24" fill="none" xmlns="http://www.w3.org/2000/svg">
<path d="M20.8098 14.853L16.4188 12.9711C16.1895 12.8724 15.9392 12.8327 15.6907 12.8555C15.4421 12.8784 15.2032 12.9631 14.9958 13.1019L12.648 14.6669C11.2131 13.969 10.0518 12.8127 9.34753 11.381L9.34771 11.3808L10.9072 8.99783C11.043 8.79096 11.1253 8.55366 11.1469 8.30718C11.1685 8.06069 11.1287 7.81269 11.031 7.58536L9.1474 3.19055C9.01918 2.89223 8.79778 2.64347 8.51635 2.48151C8.23492 2.31956 7.9086 2.25312 7.58624 2.29215C6.31956 2.45501 5.15548 3.07345 4.31148 4.03193C3.46749 4.99041 3.00129 6.22338 3 7.50049C3 14.9445 9.05603 21.0005 16.5 21.0005C17.7771 20.9992 19.0101 20.533 19.9686 19.689C20.9271 18.845 21.5455 17.6809 21.7083 16.4142C21.7473 16.0918 21.6808 15.7655 21.5188 15.4841C21.3568 15.2027 21.1081 14.9813 20.8098 14.853Z" fill="#DBF5F8"/>
</svg>
