<svg width="20" height="20" viewBox="0 0 20 20" fill="none" xmlns="http://www.w3.org/2000/svg">
<path fill-rule="evenodd" clip-rule="evenodd" d="M9.04715 6.94744C9.47891 6.3656 9.63373 5.75239 9.14543 5.21111C8.04963 3.6778 7.31268 2.7296 6.85043 2.27297C5.97163 1.40486 4.52599 1.52228 3.76489 2.27223C3.35609 2.67503 3.2177 2.81335 2.79795 3.23969C0.459908 5.57899 1.88577 10.5242 5.67622 14.3184C9.46581 18.1117 14.4105 19.5383 16.7535 17.1941C17.1408 16.8207 17.4688 16.4925 17.7274 16.2192C18.4733 15.4308 18.5865 14.0489 17.7225 13.1512C17.2795 12.6909 16.3753 11.9896 14.7775 10.8466C14.2881 10.409 13.7079 10.5039 13.1759 10.8529C12.92 11.0208 12.7338 11.1906 12.3822 11.5426L11.7436 12.1815C11.6595 12.2656 10.5175 11.6937 9.40899 10.584C8.29983 9.47379 7.72831 8.33174 7.81202 8.24803L8.45099 7.60871C8.56256 7.49703 8.61589 7.44297 8.68429 7.37108C8.8268 7.2213 8.94479 7.08538 9.04715 6.94744ZM12.9215 13.36L13.5602 12.7209C13.7537 12.5272 13.8791 12.4081 13.9811 12.326C15.3809 13.3312 16.1915 13.9632 16.5226 14.3073C16.7214 14.5138 16.6905 14.8907 16.5177 15.0734C16.2785 15.3262 15.9678 15.6371 15.5865 16.0048C14.0715 17.5205 10.08 16.3689 6.85434 13.1401C3.62768 9.91028 2.47663 5.91817 3.98022 4.41375C4.39828 3.98916 4.53073 3.85678 4.93369 3.45973C5.08478 3.31085 5.49633 3.27742 5.68012 3.45898C6.03601 3.81054 6.69618 4.65584 7.66732 6.00862C7.61704 6.07104 7.55425 6.14157 7.47784 6.22188C7.42175 6.28083 7.37503 6.32819 7.27288 6.43044L6.63453 7.06914C5.54857 8.15501 6.47341 10.0031 8.23087 11.7623C9.98713 13.5203 11.8359 14.4462 12.9215 13.36Z" fill="#004680"/>
</svg>
