<svg width="165" height="48" viewBox="0 0 165 48" fill="none" xmlns="http://www.w3.org/2000/svg">
<rect x="-3.05176e-05" width="164.311" height="47.2999" rx="10" fill="#113255"/>
<path d="M16.4349 10.3792C16.1291 10.7448 15.9747 11.2135 16.0034 11.6892V32.3113C15.9747 32.787 16.1291 33.2557 16.4349 33.6213L16.5039 33.6885L28.056 22.1365V21.864L16.5039 10.3115L16.4349 10.3792Z" fill="url(#paint0_linear_1_19388)"/>
<path d="M31.9071 25.9889L28.0566 22.1366V21.8641L31.908 18.0127L31.9948 18.0622L36.5571 20.6545C37.8603 21.3949 37.8603 22.6063 36.5571 23.3471L31.9948 25.9394L31.9071 25.9889Z" fill="url(#paint1_linear_1_19388)"/>
<path d="M31.9948 25.9386L28.0566 22L16.4355 33.621C16.701 33.8552 17.0401 33.9891 17.394 33.9996C17.7479 34.01 18.0943 33.8963 18.3732 33.6782L31.9948 25.9386Z" fill="url(#paint2_linear_1_19388)"/>
<path d="M31.9948 18.0617L18.3732 10.322C18.0943 10.1039 17.7479 9.99021 17.394 10.0007C17.0401 10.0111 16.701 10.145 16.4355 10.3792L28.0566 22.0003L31.9948 18.0617Z" fill="url(#paint3_linear_1_19388)"/>
<path opacity="0.2" d="M31.908 25.8516L18.3732 33.5417C18.1051 33.7459 17.7778 33.8572 17.4408 33.859C17.1038 33.8608 16.7753 33.753 16.505 33.5517L16.4355 33.6212L16.5045 33.6884L16.505 33.6879C16.7753 33.8893 17.1037 33.9972 17.4408 33.9954C17.7778 33.9936 18.1051 33.8822 18.3732 33.678L31.9948 25.9383L31.908 25.8516Z" fill="white"/>
<path opacity="0.12" d="M16.4349 33.4848C16.1291 33.1192 15.9748 32.6505 16.0033 32.1748V32.311C15.9747 32.7868 16.1291 33.2554 16.4349 33.621L16.5043 33.5516L16.4349 33.4848Z" fill="white"/>
<path opacity="0.12" d="M36.5573 23.2106L31.9082 25.8524L31.995 25.9392L36.5573 23.3469C36.8256 23.2304 37.0579 23.0441 37.2298 22.8074C37.4017 22.5707 37.507 22.2922 37.5347 22.001C37.4771 22.2647 37.3587 22.5114 37.189 22.7214C37.0193 22.9313 36.803 23.0989 36.5573 23.2106Z" fill="white"/>
<path opacity="0.25" d="M18.3731 10.4579L36.5569 20.7894C36.8028 20.9012 37.0192 21.0688 37.1889 21.2788C37.3586 21.4889 37.4769 21.7357 37.5344 21.9996C37.5069 21.7082 37.4017 21.4296 37.2297 21.1928C37.0578 20.9559 36.8254 20.7696 36.5569 20.6532L18.3731 10.3217C17.0699 9.58124 16.0039 10.1963 16.0039 11.6889V11.8252C16.0039 10.3326 17.0699 9.71756 18.3731 10.4579Z" fill="#113255"/>
<path d="M53.6015 13.3776C53.6196 13.7446 53.5629 14.1114 53.4348 14.4557C53.3067 14.8 53.1099 15.1147 52.8563 15.3805C52.572 15.6753 52.2288 15.9067 51.849 16.0597C51.4692 16.2127 51.0613 16.2837 50.6522 16.2682C50.2404 16.2719 49.832 16.1932 49.4511 16.0368C49.0701 15.8805 48.7243 15.6495 48.4339 15.3575C48.1435 15.0656 47.9144 14.7185 47.76 14.3367C47.6057 13.9549 47.5292 13.5462 47.5351 13.1344C47.5292 12.7227 47.6057 12.3139 47.7601 11.9321C47.9145 11.5503 48.1436 11.2032 48.434 10.9112C48.7243 10.6192 49.0702 10.3882 49.4511 10.2318C49.832 10.0753 50.2404 9.99654 50.6522 10.0001C51.0755 9.99884 51.4947 10.0844 51.8837 10.2516C52.2449 10.3981 52.5665 10.6278 52.8222 10.922L52.2948 11.4498C52.0938 11.2133 51.8411 11.0261 51.5563 10.9026C51.2715 10.7792 50.9622 10.7228 50.6522 10.7379C50.3401 10.7363 50.0309 10.7977 49.7431 10.9184C49.4553 11.0391 49.1948 11.2167 48.9773 11.4404C48.7597 11.6642 48.5896 11.9295 48.477 12.2206C48.3644 12.5117 48.3118 12.8225 48.3222 13.1344C48.3147 13.6016 48.4462 14.0605 48.6999 14.4529C48.9536 14.8453 49.3181 15.1535 49.7472 15.3384C50.1763 15.5234 50.6506 15.5767 51.1101 15.4917C51.5695 15.4067 51.9934 15.1872 52.328 14.861C52.6358 14.5293 52.8143 14.0979 52.8309 13.6456H50.6522V12.9249H53.5595C53.5869 13.0743 53.601 13.2258 53.6015 13.3776Z" fill="white" stroke="white" stroke-width="0.2" stroke-miterlimit="10"/>
<path d="M58.2115 10.8721H55.4791V12.7744H57.943V13.4952H55.4791V15.3975H58.2115V16.1348H54.7086V10.1348H58.2115V10.8721Z" fill="white" stroke="white" stroke-width="0.2" stroke-miterlimit="10"/>
<path d="M61.4625 16.1348H60.691V10.8721H59.0152V10.1348H63.1383V10.8721H61.4625V16.1348Z" fill="white" stroke="white" stroke-width="0.2" stroke-miterlimit="10"/>
<path d="M66.1207 16.1348V10.1348H66.8912V16.1348H66.1207Z" fill="white" stroke="white" stroke-width="0.2" stroke-miterlimit="10"/>
<path d="M70.312 16.1348H69.5405V10.8721H67.8648V10.1348H71.9878V10.8721H70.312V16.1348Z" fill="white" stroke="white" stroke-width="0.2" stroke-miterlimit="10"/>
<path d="M79.7933 15.3599C79.2093 15.9421 78.4183 16.2691 77.5936 16.2691C76.769 16.2691 75.9779 15.9421 75.3939 15.3599C75.105 15.0672 74.8779 14.7195 74.7261 14.3373C74.5742 13.9552 74.5008 13.5464 74.5101 13.1353C74.5008 12.7242 74.5742 12.3154 74.7261 11.9332C74.8779 11.551 75.105 11.2033 75.3939 10.9107C75.6826 10.6219 76.0254 10.393 76.4026 10.2369C76.7799 10.0808 77.1842 10.0006 77.5925 10.001C78.0008 10.0013 78.405 10.0822 78.782 10.239C79.1589 10.3958 79.5013 10.6253 79.7894 10.9146C80.0786 11.2064 80.3061 11.5534 80.4586 11.9349C80.6111 12.3163 80.6854 12.7245 80.6771 13.1353C80.6862 13.5464 80.6127 13.9551 80.4608 14.3372C80.309 14.7193 80.082 15.0671 79.7933 15.3599ZM75.9632 14.8575C76.3958 15.2893 76.982 15.5318 77.5931 15.5318C78.2043 15.5318 78.7905 15.2893 79.223 14.8575C79.4448 14.6304 79.6183 14.3607 79.7329 14.0647C79.8476 13.7687 79.901 13.4525 79.89 13.1353C79.901 12.818 79.8476 12.5019 79.7329 12.2059C79.6183 11.9098 79.4448 11.6402 79.223 11.4131C78.7905 10.9813 78.2043 10.7388 77.5931 10.7388C76.982 10.7388 76.3958 10.9813 75.9632 11.4131C75.7418 11.6403 75.5686 11.9101 75.4541 12.2061C75.3396 12.502 75.2863 12.8181 75.2972 13.1353C75.2863 13.4524 75.3396 13.7685 75.4541 14.0645C75.5686 14.3605 75.7418 14.6302 75.9632 14.8575Z" fill="white" stroke="white" stroke-width="0.2" stroke-miterlimit="10"/>
<path d="M81.7574 16.1348V10.1348H82.6959L85.6119 14.8023H85.6451L85.6119 13.646V10.1348H86.3834V16.1348H85.5787L82.5279 11.2412H82.4947L82.5279 12.3975V16.1348H81.7574Z" fill="white" stroke="white" stroke-width="0.2" stroke-miterlimit="10"/>
<path d="M74.6291 24.9756C73.7886 24.9788 72.9679 25.2309 72.2706 25.7002C71.5733 26.1695 71.0306 26.8349 70.7112 27.6123C70.3917 28.3897 70.3098 29.2444 70.4758 30.0684C70.6417 30.8924 71.048 31.6487 71.6435 32.2419C72.239 32.8351 72.9968 33.2386 73.8214 33.4014C74.646 33.5642 75.5004 33.479 76.2766 33.1566C77.0528 32.8342 77.7161 32.289 78.1828 31.59C78.6494 30.8909 78.8984 30.0692 78.8984 29.2287C78.9067 28.6665 78.8018 28.1084 78.5899 27.5876C78.3781 27.0668 78.0637 26.5939 77.6654 26.1971C77.267 25.8003 76.793 25.4877 76.2714 25.2778C75.7497 25.068 75.1913 24.9652 74.6291 24.9756ZM74.6291 31.8064C74.1115 31.8433 73.5947 31.7235 73.1461 31.4626C72.6976 31.2017 72.3379 30.8118 72.114 30.3437C71.8901 29.8755 71.8124 29.3508 71.8909 28.8378C71.9694 28.3249 72.2005 27.8474 72.5541 27.4676C72.9078 27.0879 73.3676 26.8234 73.8737 26.7086C74.3798 26.5938 74.9087 26.634 75.3916 26.824C75.8745 27.014 76.289 27.345 76.5811 27.7739C76.8733 28.2028 77.0295 28.7097 77.0295 29.2287C77.0452 29.5565 76.9952 29.8842 76.8823 30.1924C76.7695 30.5006 76.5961 30.7831 76.3725 31.0233C76.1488 31.2635 75.8793 31.4565 75.5799 31.591C75.2805 31.7255 74.9572 31.7987 74.6291 31.8064ZM65.3157 24.9756C64.4752 24.9787 63.6545 25.2309 62.9571 25.7002C62.2598 26.1694 61.7172 26.8348 61.3977 27.6122C61.0783 28.3897 60.9963 29.2443 61.1622 30.0683C61.3282 30.8923 61.7345 31.6486 62.33 32.2419C62.9254 32.8351 63.6833 33.2386 64.5079 33.4014C65.3325 33.5642 66.1869 33.479 66.9631 33.1566C67.7393 32.8342 68.4026 32.2891 68.8693 31.59C69.3359 30.8909 69.5849 30.0692 69.5849 29.2287C69.5932 28.6665 69.4883 28.1084 69.2764 27.5876C69.0646 27.0668 68.7502 26.594 68.3519 26.1971C67.9536 25.8003 67.4795 25.4877 66.9579 25.2778C66.4363 25.068 65.8778 24.9652 65.3157 24.9756ZM65.3157 31.8064C64.7981 31.8433 64.2813 31.7235 63.8327 31.4626C63.3842 31.2017 63.0245 30.8118 62.8006 30.3437C62.5767 29.8755 62.499 29.3508 62.5775 28.8378C62.656 28.3249 62.8871 27.8474 63.2407 27.4676C63.5944 27.0879 64.0542 26.8234 64.5603 26.7086C65.0664 26.5938 65.5953 26.634 66.0782 26.824C66.5611 27.014 66.9756 27.345 67.2677 27.7739C67.5599 28.2028 67.7161 28.7097 67.7161 29.2287C67.7318 29.5565 67.6818 29.8842 67.569 30.1924C67.4561 30.5006 67.2828 30.7831 67.0591 31.0233C66.8354 31.2635 66.5659 31.4566 66.2665 31.591C65.9671 31.7255 65.6438 31.7987 65.3157 31.8064ZM54.2369 26.2806V28.0849H58.5546C58.4923 28.9312 58.146 29.7316 57.5718 30.3565C57.1391 30.7975 56.6188 31.1429 56.0444 31.3705C55.47 31.598 54.8542 31.7026 54.2369 31.6775C52.9749 31.6604 51.7703 31.1471 50.8839 30.2486C49.9975 29.3501 49.5006 28.1387 49.5006 26.8766C49.5006 25.6144 49.9975 24.4031 50.8839 23.5046C51.7703 22.6061 52.9749 22.0928 54.2369 22.0757C55.4491 22.0598 56.6186 22.523 57.4913 23.3645L58.764 22.0918C58.1686 21.5023 57.4614 21.0376 56.684 20.725C55.9067 20.4124 55.0747 20.2581 54.2369 20.2713C53.3614 20.2585 52.4921 20.42 51.6795 20.7462C50.867 21.0724 50.1274 21.5569 49.5037 22.1716C48.8801 22.7862 48.3849 23.5187 48.0468 24.3264C47.7088 25.1341 47.5347 26.001 47.5347 26.8766C47.5347 27.7522 47.7088 28.6191 48.0468 29.4268C48.3849 30.2345 48.8801 30.967 49.5037 31.5816C50.1274 32.1962 50.867 32.6807 51.6795 33.007C52.4921 33.3332 53.3614 33.4946 54.2369 33.4819C55.0924 33.5174 55.9456 33.3705 56.74 33.0511C57.5344 32.7317 58.2517 32.247 58.8445 31.6292C59.8969 30.4804 60.4579 28.9654 60.4073 27.4083C60.4114 27.0301 60.379 26.6525 60.3105 26.2806H54.2369ZM99.5452 27.6821C99.2896 26.9117 98.8031 26.2387 98.1516 25.7545C97.5002 25.2703 96.7156 24.9983 95.9042 24.9756C95.3577 24.979 94.8176 25.0931 94.3166 25.3112C93.8155 25.5292 93.3638 25.8466 92.9888 26.2442C92.6139 26.6417 92.3234 27.1111 92.135 27.6241C91.9467 28.1371 91.8643 28.683 91.8928 29.2287C91.8805 29.7879 91.981 30.3438 92.1884 30.8633C92.3957 31.3827 92.7056 31.8551 93.0996 32.2521C93.4936 32.6491 93.9636 32.9626 94.4814 33.1739C94.9993 33.3852 95.5545 33.4899 96.1137 33.4819C96.8144 33.4858 97.505 33.3156 98.1236 32.9866C98.7422 32.6576 99.2694 32.1801 99.6579 31.597L98.208 30.6304C97.9908 30.9911 97.6835 31.2892 97.3164 31.4954C96.9492 31.7015 96.5348 31.8087 96.1137 31.8064C95.6804 31.823 95.2521 31.7089 94.8844 31.4791C94.5167 31.2493 94.2265 30.9143 94.0515 30.5176L99.7386 28.1655L99.5452 27.6821ZM93.7455 29.0999C93.7255 28.7903 93.7674 28.4799 93.8688 28.1867C93.9702 27.8936 94.129 27.6236 94.3361 27.3925C94.5431 27.1615 94.7941 26.9741 95.0744 26.8412C95.3547 26.7084 95.6587 26.6328 95.9686 26.6189C96.2913 26.5977 96.6131 26.6719 96.8939 26.8323C97.1746 26.9928 97.402 27.2323 97.5475 27.5211L93.7455 29.0999ZM89.1217 33.2241H90.9905V20.7225H89.1217V33.2241ZM86.0607 25.9261H85.9963C85.7122 25.6174 85.3654 25.3729 84.9793 25.209C84.5931 25.0451 84.1763 24.9655 83.7569 24.9756C82.6602 25.0223 81.6239 25.4908 80.8644 26.2833C80.1049 27.0758 79.6809 28.131 79.6809 29.2287C79.6809 30.3264 80.1049 31.3817 80.8644 32.1742C81.6239 32.9667 82.6602 33.4352 83.7569 33.4819C84.178 33.4931 84.5964 33.4124 84.9832 33.2455C85.3699 33.0786 85.7156 32.8294 85.9963 32.5153H86.0607V33.1275C86.0607 34.7547 85.1908 35.6246 83.7891 35.6246C83.322 35.6134 82.8687 35.4634 82.4872 35.1937C82.1056 34.924 81.8129 34.5468 81.6465 34.1102L80.0193 34.7869C80.326 35.5336 80.8486 36.1716 81.5203 36.6194C82.1919 37.0672 82.9819 37.3042 83.7891 37.3001C85.9802 37.3001 87.8329 36.0113 87.8329 32.8697V25.2333H86.0607V25.9261ZM83.9181 31.8064C83.2722 31.7516 82.6703 31.4563 82.2318 30.979C81.7932 30.5016 81.5498 29.877 81.5498 29.2287C81.5498 28.5805 81.7932 27.9559 82.2318 27.4785C82.6703 27.0011 83.2722 26.7059 83.9181 26.6511C84.2395 26.6668 84.5544 26.747 84.8441 26.887C85.1338 27.027 85.3923 27.2239 85.6043 27.4659C85.8162 27.7079 85.9773 27.9902 86.0779 28.2958C86.1784 28.6014 86.2164 28.9242 86.1896 29.2448C86.2147 29.5634 86.1753 29.8838 86.0738 30.1869C85.9722 30.4899 85.8106 30.7694 85.5985 31.0085C85.3864 31.2477 85.1283 31.4416 84.8396 31.5787C84.5509 31.7158 84.2375 31.7932 83.9181 31.8064ZM108.299 20.7227H103.828V33.2241H105.694V28.4877H108.299C108.827 28.5166 109.355 28.4376 109.851 28.2556C110.347 28.0736 110.801 27.7923 111.185 27.4289C111.569 27.0655 111.875 26.6277 112.084 26.1422C112.293 25.6567 112.4 25.1337 112.4 24.6052C112.4 24.0766 112.293 23.5536 112.084 23.0681C111.875 22.5826 111.569 22.1448 111.185 21.7815C110.801 21.4181 110.347 21.1368 109.851 20.9548C109.355 20.7727 108.827 20.6938 108.299 20.7227ZM108.347 26.7479H105.694V22.4626H108.347C108.632 22.4567 108.916 22.5077 109.181 22.6128C109.446 22.7178 109.688 22.8747 109.891 23.0742C110.095 23.2738 110.257 23.512 110.367 23.7749C110.478 24.0378 110.535 24.3201 110.535 24.6052C110.535 24.8904 110.478 25.1727 110.367 25.4356C110.257 25.6985 110.095 25.9367 109.891 26.1363C109.688 26.3358 109.446 26.4927 109.181 26.5977C108.916 26.7027 108.632 26.7538 108.347 26.7479ZM119.879 24.9526C119.198 24.9128 118.52 25.0727 117.929 25.4127C117.337 25.7527 116.858 26.258 116.55 26.8665L118.206 27.5581C118.371 27.2561 118.619 27.0085 118.922 26.8456C119.225 26.6828 119.569 26.6118 119.911 26.6413C120.384 26.5951 120.857 26.7384 121.225 27.0399C121.592 27.3414 121.826 27.7764 121.873 28.2496V28.3783C121.274 28.06 120.606 27.8942 119.927 27.8958C118.142 27.8958 116.325 28.8769 116.325 30.7104C116.342 31.0968 116.437 31.4758 116.603 31.8249C116.77 32.1739 117.005 32.486 117.294 32.7425C117.584 32.999 117.922 33.1947 118.289 33.3181C118.655 33.4414 119.043 33.4899 119.429 33.4606C119.898 33.4882 120.367 33.3894 120.786 33.1745C121.204 32.9595 121.558 32.6362 121.809 32.2383H121.873V33.2033H123.675V28.4105C123.675 26.191 122.018 24.9526 119.879 24.9526ZM119.654 31.804C119.043 31.804 118.19 31.4985 118.19 30.7425C118.19 29.7776 119.252 29.4076 120.169 29.4076C120.764 29.3917 121.353 29.5362 121.873 29.8258C121.805 30.368 121.542 30.8671 121.134 31.2308C120.726 31.5944 120.2 31.798 119.654 31.804ZM130.237 25.226L128.098 30.646H128.033L125.814 25.226H123.803L127.133 32.8012L125.235 37.015H127.181L132.311 25.226H130.237ZM113.43 33.2241H115.295V20.7227H113.43V33.2241Z" fill="white"/>
<defs>
<linearGradient id="paint0_linear_1_19388" x1="27.0315" y1="11.4718" x2="11.3828" y2="27.1205" gradientUnits="userSpaceOnUse">
<stop stop-color="#00A0FF"/>
<stop offset="0.00657" stop-color="#00A1FF"/>
<stop offset="0.2601" stop-color="#00BEFF"/>
<stop offset="0.5122" stop-color="#00D2FF"/>
<stop offset="0.7604" stop-color="#00DFFF"/>
<stop offset="1" stop-color="#00E3FF"/>
</linearGradient>
<linearGradient id="paint1_linear_1_19388" x1="38.2538" y1="22.0008" x2="15.6915" y2="22.0008" gradientUnits="userSpaceOnUse">
<stop stop-color="#FFE000"/>
<stop offset="0.4087" stop-color="#FFBD00"/>
<stop offset="0.7754" stop-color="#FFA500"/>
<stop offset="1" stop-color="#FF9C00"/>
</linearGradient>
<linearGradient id="paint2_linear_1_19388" x1="29.8549" y1="24.1401" x2="8.63399" y2="45.3609" gradientUnits="userSpaceOnUse">
<stop stop-color="#FF3A44"/>
<stop offset="1" stop-color="#C31162"/>
</linearGradient>
<linearGradient id="paint3_linear_1_19388" x1="13.5094" y1="3.51473" x2="22.9854" y2="12.9907" gradientUnits="userSpaceOnUse">
<stop stop-color="#32A071"/>
<stop offset="0.0685" stop-color="#2DA771"/>
<stop offset="0.4762" stop-color="#15CF74"/>
<stop offset="0.8009" stop-color="#06E775"/>
<stop offset="1" stop-color="#00F076"/>
</linearGradient>
</defs>
</svg>
