<svg width="64" height="64" viewBox="0 0 64 64" fill="none" xmlns="http://www.w3.org/2000/svg">
<path fill-rule="evenodd" clip-rule="evenodd" d="M29.3332 13.3333C21.9694 13.3333 15.9998 19.3029 15.9998 26.6667V29.3333L15.9998 48H7.99984C5.05432 48 2.6665 45.6122 2.6665 42.6667V32C2.6665 29.0545 5.05432 26.6667 7.99984 26.6667H10.6665C10.6665 16.3574 19.0239 8 29.3332 8H34.6665C44.9758 8 53.3332 16.3574 53.3332 26.6667L55.9998 26.6667C58.9454 26.6667 61.3332 29.0545 61.3332 32V42.6667C61.3332 45.6122 58.9454 48 55.9998 48H52.9971C51.813 52.6006 47.6367 56 42.6665 56H39.2863C38.3642 57.5941 36.6406 58.6667 34.6665 58.6667C31.721 58.6667 29.3332 56.2789 29.3332 53.3333C29.3332 50.3878 31.721 48 34.6665 48C36.6406 48 38.3642 49.0725 39.2863 50.6667H42.6665C45.612 50.6667 47.9998 48.2789 47.9998 45.3333V29.3333V26.6667C47.9998 19.3029 42.0303 13.3333 34.6665 13.3333H29.3332ZM10.6665 32H7.99984V42.6667H10.6665V32ZM29.3332 32.6667C29.3332 34.5076 27.8408 36 25.9998 36C24.1589 36 22.6665 34.5076 22.6665 32.6667C22.6665 30.8257 24.1589 29.3333 25.9998 29.3333C27.8408 29.3333 29.3332 30.8257 29.3332 32.6667ZM37.9998 36C39.8408 36 41.3332 34.5076 41.3332 32.6667C41.3332 30.8257 39.8408 29.3333 37.9998 29.3333C36.1589 29.3333 34.6665 30.8257 34.6665 32.6667C34.6665 34.5076 36.1589 36 37.9998 36ZM53.3332 32H55.9998V42.6667H53.3332V32Z" fill="#FCEACF"/>
</svg>
