<svg width="128" height="128" viewBox="0 0 128 128" fill="none" xmlns="http://www.w3.org/2000/svg">
<rect width="128" height="128" rx="25" fill="#F5F5F5"/>
<g clip-path="url(#clip0_1_23055)">
<path d="M73.375 76.5941L90.0312 65.612L73.375 54.6299V76.5941ZM77.125 61.5941L83.2188 65.612L77.125 69.6299V61.5941Z" fill="#113255"/>
<path d="M64.3571 44.8461C63.7547 44.5558 55.0374 37.4863 41.375 37.4863H39.5V43.835C35.5225 44.4273 32.8626 45.1985 32 45.3973V90.5127C33.3114 90.3355 46.4851 85.6655 63.5452 89.9302L64 90.044L64.4548 89.9302C81.5344 85.6603 94.6828 90.3346 96 90.5127V45.3973C95.1312 45.2818 81.5495 40.7888 64.3571 44.8461ZM35.75 85.7565V48.3438C36.9903 48.066 38.2434 47.8271 39.5 47.628V82.4863H41.375C45.4174 82.4863 49.4678 83.1957 53.2759 84.5361C47.416 84.1404 41.5054 84.5466 35.75 85.7565ZM62.125 84.6328C56.5117 81.1502 49.9121 79.1068 43.25 78.7821V41.2868C54.5376 41.894 61.5479 47.5777 62.125 47.8648V84.6328ZM92.25 85.7565C83.5756 83.9329 74.5491 83.9329 65.875 85.7565V48.3438C74.5339 46.4033 83.591 46.4033 92.25 48.3438V85.7565Z" fill="#113255"/>
</g>
<defs>
<clipPath id="clip0_1_23055">
<rect width="64" height="64" fill="white" transform="translate(32 32)"/>
</clipPath>
</defs>
</svg>
