<svg width="24" height="24" viewBox="0 0 24 24" fill="none" xmlns="http://www.w3.org/2000/svg">
<path d="M12 2.24902C10.3066 2.24948 8.64239 2.6909 7.17132 3.52983C5.70024 4.36875 4.47297 5.57628 3.6103 7.03355C2.74762 8.49083 2.27928 10.1476 2.25136 11.8409C2.22344 13.5341 2.6369 15.2054 3.45106 16.6904L2.6498 19.4949C2.57628 19.7521 2.5729 20.0243 2.63999 20.2833C2.70707 20.5422 2.8422 20.7785 3.03135 20.9677C3.2205 21.1568 3.4568 21.292 3.71575 21.3591C3.97471 21.4262 4.2469 21.4228 4.50411 21.3493L7.30874 20.548C8.61207 21.2632 10.0617 21.6709 11.5467 21.7399C13.0318 21.8089 14.513 21.5374 15.877 20.9462C17.2411 20.355 18.4518 19.4597 19.4168 18.3288C20.3818 17.1979 21.0754 15.8613 21.4446 14.4212C21.8138 12.9811 21.8488 11.4756 21.5469 10.02C21.2451 8.56426 20.6144 7.19687 19.703 6.02231C18.7917 4.84776 17.6238 3.89715 16.2887 3.24316C14.9536 2.58917 13.4867 2.24913 12 2.24902ZM14.2617 17.999C14.259 18.0012 14.2538 17.999 14.2499 17.999C13.1655 17.999 12.0918 17.7852 11.0901 17.3699C10.0884 16.9546 9.17842 16.3458 8.4122 15.5785C7.64597 14.8112 7.03853 13.9004 6.62462 12.8981C6.21071 11.8958 5.99845 10.8218 5.99999 9.7374C6.00341 8.84441 6.36045 7.98915 6.99298 7.3588C7.62551 6.72845 8.482 6.37436 9.37499 6.37402C9.62105 6.37434 9.86269 6.43953 10.0755 6.56302C10.2884 6.68652 10.4649 6.86395 10.5872 7.07743L11.6833 8.99564C11.8153 9.22704 11.8834 9.48939 11.8806 9.75579C11.8777 10.0222 11.8041 10.283 11.6671 10.5116L11.0005 11.6227C11.3302 12.1943 11.8048 12.6689 12.3764 12.9986L13.4874 12.3319C13.716 12.195 13.9768 12.1213 14.2432 12.1185C14.5096 12.1156 14.772 12.1837 15.0034 12.3157L16.9215 13.4118C17.135 13.5341 17.3125 13.7106 17.436 13.9235C17.5595 14.1363 17.6247 14.3779 17.625 14.624C17.6246 15.517 17.2706 16.3735 16.6402 17.006C16.0099 17.6385 15.1547 17.9956 14.2617 17.999Z" fill="#004680"/>
<path d="M12.7922 14.4984C12.6885 14.5607 12.5713 14.5969 12.4505 14.604C12.3297 14.6111 12.2091 14.5889 12.0987 14.5393C10.9257 14.0123 9.98678 13.0734 9.45978 11.9004C9.41017 11.7901 9.38798 11.6694 9.3951 11.5486C9.40223 11.4278 9.43846 11.3106 9.50071 11.2069L10.3809 9.73984L9.31531 7.875C8.83019 7.89022 8.36989 8.09305 8.03131 8.44081C7.69272 8.78856 7.50226 9.25412 7.50001 9.73947C7.49875 10.6267 7.67241 11.5055 8.01107 12.3255C8.34972 13.1456 8.84672 13.8908 9.47364 14.5186C10.1006 15.1465 10.8451 15.6445 11.6647 15.9843C12.4843 16.3242 13.3628 16.4991 14.25 16.4991H14.2596C14.745 16.4968 15.2105 16.3064 15.5583 15.9678C15.906 15.6292 16.1089 15.1689 16.1241 14.6838L14.2593 13.6182L12.7922 14.4984Z" fill="#004680"/>
</svg>
