<svg width="15" height="15" viewBox="0 0 15 15" fill="none" xmlns="http://www.w3.org/2000/svg">
<path d="M8.59861 7.50061L7 8.56635V6.43487L8.59861 7.50061Z" fill="#004680"/>
<path fill-rule="evenodd" clip-rule="evenodd" d="M1.5061 1.77367C5.45719 0.927007 9.54281 0.927007 13.4939 1.77367C14.3724 1.96192 15 2.73827 15 3.6367V11.3645C15 12.263 14.3724 13.0393 13.4939 13.2276C9.54281 14.0742 5.45719 14.0742 1.5061 13.2276C0.627614 13.0393 0 12.263 0 11.3645V3.6367C0 2.73827 0.627614 1.96192 1.5061 1.77367ZM6.77735 5.08459C6.62392 4.9823 6.42665 4.97276 6.26407 5.05977C6.10149 5.14678 6 5.31621 6 5.50061V9.50061C6 9.68501 6.10149 9.85444 6.26407 9.94145C6.42665 10.0285 6.62392 10.0189 6.77735 9.91664L9.77735 7.91664C9.91645 7.8239 10 7.66779 10 7.50061C10 7.33343 9.91645 7.17732 9.77735 7.08459L6.77735 5.08459Z" fill="#004680"/>
</svg>
