<svg width="32" height="32" viewBox="0 0 32 32" fill="none" xmlns="http://www.w3.org/2000/svg">
<g clip-path="url(#clip0)">
<path d="M16 32C24.8141 32 31.9594 24.8548 31.9594 16.0406C31.9594 7.22652 24.8141 0.0812683 16 0.0812683C7.18587 0.0812683 0.0406189 7.22652 0.0406189 16.0406C0.0406189 24.8548 7.18587 32 16 32Z" fill="#F2F2F2"/>
<path d="M26.8071 1.71256V23.9876C26.8071 26.1274 25.3128 27.9761 23.2211 28.4243L22.0642 28.6719C19.7191 29.1747 17.5049 27.414 17.4574 25.0292C17.4197 23.1824 18.7609 21.5911 20.5647 21.2015L23.4687 20.5787C24.1207 20.4394 24.5878 19.8629 24.5878 19.1945V8.43774C24.5878 7.97199 24.1605 7.62412 23.7045 7.71793L11.6762 10.1985C11.3349 10.2689 11.0899 10.5698 11.0899 10.9183V27.2296C11.0899 28.5735 10.5004 29.8014 9.54412 30.6397C6.93325 29.4835 4.69044 27.6478 3.04044 25.3561C3.54269 24.9119 4.16219 24.5907 4.84944 24.4435L7.75081 23.8201C8.40481 23.6807 8.87056 23.1022 8.87056 22.4365V4.70449C8.87056 3.89218 9.44119 3.19193 10.2366 3.02774L20.8663 0.836368L24.75 0.0358679C25.8118 -0.183007 26.8071 0.627993 26.8071 1.71256Z" fill="#EF4152"/>
<path d="M11.0899 16.869V27.2297C11.0899 28.5736 10.5004 29.8014 9.54406 30.6398C6.93319 29.4836 4.69037 27.6479 3.04037 25.3562C3.54262 24.9119 4.16212 24.5908 4.84937 24.4436L7.75075 23.8202C8.40475 23.6808 8.8705 23.1023 8.8705 22.4366V17.3269L11.0899 16.869Z" fill="#A479E2"/>
<path d="M26.8073 13.6297V23.9877C26.8073 26.1269 25.3127 27.9756 23.2208 28.4242L22.0639 28.6721C19.7193 29.175 17.5046 27.4137 17.4574 25.029C17.4197 23.1826 18.7608 21.5913 20.5646 21.2017L23.4687 20.5784C24.1204 20.4391 24.5879 19.8631 24.5879 19.1948V14.0878L26.8073 13.6297Z" fill="#34ABE0"/>
</g>
<defs>
<clipPath id="clip0">
<rect width="32" height="32" fill="white"/>
</clipPath>
</defs>
</svg>
