<svg width="19" height="19" viewBox="0 0 19 19" fill="none" xmlns="http://www.w3.org/2000/svg">
<path d="M15.2237 12.0808L13.2128 11.8512C12.9764 11.8234 12.7367 11.8496 12.5119 11.9278C12.287 12.0059 12.0827 12.134 11.9145 12.3025L10.4578 13.7591C8.21044 12.6161 6.38374 10.7894 5.24074 8.54204L6.70533 7.07746C7.04574 6.73704 7.21199 6.26204 7.15658 5.77912L6.92699 3.78412C6.88211 3.39793 6.69677 3.04173 6.40626 2.78334C6.11576 2.52495 5.74037 2.38241 5.35158 2.38287H3.98199C3.08741 2.38287 2.34324 3.12704 2.39866 4.02162C2.81824 10.7825 8.22533 16.1816 14.9782 16.6012C15.8728 16.6566 16.617 15.9125 16.617 15.0179V13.6483C16.6249 12.8487 16.0232 12.1758 15.2237 12.0808Z" fill="#F9A7A7"/>
</svg>
