<svg width="32" height="32" viewBox="0 0 32 32" fill="none" xmlns="http://www.w3.org/2000/svg">
<path d="M16 32C24.8366 32 32 24.8366 32 16C32 7.16344 24.8366 0 16 0C7.16344 0 0 7.16344 0 16C0 24.8366 7.16344 32 16 32Z" fill="#FF6A22"/>
<path d="M4.76509 19.6322C4.75739 19.6841 4.72031 19.7212 4.67211 19.7212C4.6239 19.7212 4.58683 19.6841 4.57941 19.6311L4.41028 18.3653L4.57941 17.0784C4.58654 17.0248 4.62362 16.9877 4.67211 16.9877C4.72002 16.9877 4.7571 17.0248 4.76509 17.0784L4.96645 18.3667L4.76509 19.6322ZM5.62672 20.4012C5.61873 20.4562 5.5788 20.4947 5.52946 20.4947C5.48155 20.4947 5.43962 20.4562 5.43306 20.4012L5.20546 18.365L5.43306 16.2832C5.4399 16.2296 5.48155 16.1897 5.52946 16.1897C5.5788 16.1897 5.61873 16.2287 5.62672 16.2832L5.8857 18.365L5.62672 20.4012ZM6.55652 20.746C6.54996 20.8122 6.50033 20.8592 6.44073 20.8592C6.37912 20.8592 6.33035 20.8122 6.32436 20.746L6.10845 18.3667L6.32436 15.897C6.32978 15.83 6.37912 15.7821 6.44073 15.7821C6.50033 15.7821 6.54968 15.83 6.55652 15.897L6.80152 18.3667L6.55652 20.746ZM7.49545 20.8216C7.48861 20.8974 7.42928 20.9548 7.35883 20.9548C7.28667 20.9548 7.22763 20.8974 7.22164 20.8216L7.01771 18.3667L7.22164 15.8292C7.22763 15.7527 7.28667 15.6954 7.35883 15.6954C7.42928 15.6954 7.48861 15.7527 7.49545 15.8292L7.72676 18.3667L7.49545 20.8216ZM8.43951 20.8412C8.43466 20.9294 8.36593 20.9947 8.28464 20.9947C8.20079 20.9947 8.13433 20.9294 8.12863 20.8412L7.93582 18.3664L8.12863 16.0123C8.13462 15.9247 8.20079 15.8594 8.28464 15.8594C8.36735 15.8594 8.43466 15.9247 8.43951 16.0111L8.65799 18.3664L8.43951 20.8412ZM9.3927 20.8427V20.8412C9.387 20.9388 9.3097 21.0158 9.21672 21.0158C9.12346 21.0158 9.04617 20.9385 9.04075 20.8427L8.86078 18.3679L9.04075 14.5377C9.04617 14.4402 9.12346 14.3632 9.21672 14.3632C9.30999 14.3632 9.38728 14.4404 9.3927 14.5363L9.59663 18.3679L9.3927 20.8427ZM10.3388 20.8412V20.8398C10.3331 20.9476 10.2478 21.0335 10.1422 21.0335C10.0387 21.0335 9.95315 20.9476 9.94802 20.8398L9.77803 18.381L9.94802 13.6746C9.95315 13.5668 10.0387 13.4816 10.1422 13.4816C10.2478 13.4816 10.3331 13.5668 10.3388 13.6746L10.5301 18.381L10.3388 20.8412ZM11.3202 20.8033V20.8019C11.3159 20.922 11.2215 21.0152 11.1054 21.0152C10.9893 21.0152 10.8949 20.922 10.8907 20.8033L10.7329 18.3696C10.7329 18.3696 10.8907 13.2711 10.8907 13.2696C10.8952 13.151 10.9893 13.056 11.1054 13.056C11.2215 13.056 11.3162 13.151 11.3202 13.2696L11.4984 18.3696L11.3202 20.8033ZM12.2959 20.7871C12.2913 20.9177 12.189 21.0201 12.0615 21.0201C11.9337 21.0201 11.8313 20.9177 11.8267 20.7882L11.6796 18.369L11.8267 13.0988C11.8313 12.9676 11.9337 12.8655 12.0615 12.8655C12.189 12.8655 12.2916 12.9676 12.2959 13.0988L12.4593 18.369L12.2959 20.7871ZM13.2779 20.7657V20.7642C13.2733 20.9054 13.163 21.0175 13.0229 21.0175C12.8849 21.0175 12.7722 20.9054 12.7696 20.7657L12.6345 18.3696L12.7682 13.234C12.7722 13.0908 12.8846 12.9801 13.0229 12.9801C13.163 12.9801 13.2733 13.0908 13.2779 13.234L13.4296 18.3696L13.2779 20.7657ZM14.2679 20.7514V20.7494C14.2656 20.9031 14.1441 21.0215 13.9941 21.0215C13.8429 21.0215 13.7231 20.9031 13.7186 20.7514L13.5965 18.3693L13.7188 13.4217C13.7234 13.2682 13.8432 13.1481 13.9944 13.1481C14.1444 13.1481 14.2659 13.2682 14.2682 13.4217L14.4065 18.3707L14.2679 20.7514ZM15.2778 20.5001L15.2656 20.7334C15.2641 20.8147 15.2299 20.8883 15.1777 20.9414C15.1241 20.9935 15.0505 21.0269 14.9726 21.0269C14.882 21.0269 14.8021 20.9853 14.7473 20.9197C14.7068 20.872 14.6817 20.8104 14.6789 20.7457C14.678 20.7428 14.678 20.7391 14.678 20.7351C14.678 20.7351 14.5654 18.3719 14.5654 18.3679L14.6766 12.5372L14.678 12.4813C14.6789 12.3792 14.7331 12.2882 14.8141 12.236C14.8594 12.2058 14.913 12.1881 14.9729 12.1881C15.0317 12.1881 15.0873 12.2064 15.1338 12.2386C15.2128 12.2914 15.2644 12.3801 15.2659 12.4816L15.3896 18.3707L15.2778 20.5001ZM16.2593 20.7029V20.7001C16.2573 20.8723 16.1161 21.0127 15.9455 21.0127C15.7744 21.0127 15.6335 20.8723 15.6318 20.7015L15.567 19.5521L15.5034 18.3719L15.6318 11.9813V11.9491C15.6321 11.8521 15.6777 11.7654 15.7482 11.7069C15.8021 11.6627 15.8714 11.6359 15.9455 11.6359C16.0046 11.6359 16.0593 11.6522 16.1061 11.6796C16.1954 11.7355 16.2578 11.8344 16.2607 11.9477L16.3996 18.3716L16.2593 20.7029ZM24.7396 21.0189C24.7396 21.0189 16.8439 21.0189 16.8357 21.0189C16.6651 21.0015 16.5302 20.8658 16.5274 20.6909V11.6428C16.5302 11.4762 16.5875 11.3904 16.802 11.3079C17.3556 11.0934 17.9825 10.9668 18.6268 10.9668C21.2551 10.9668 23.4087 12.983 23.6372 15.5514C23.9755 15.4102 24.3491 15.3297 24.7396 15.3297C26.3134 15.3297 27.5894 16.6064 27.5894 18.1813C27.5894 19.756 26.3134 21.0189 24.7396 21.0189Z" fill="#F1F2F2"/>
</svg>
