<svg width="64" height="64" viewBox="0 0 64 64" fill="none" xmlns="http://www.w3.org/2000/svg">
<path d="M50.1555 24.9069L29.278 12.7574C27.962 11.9917 26.3362 11.9917 25.0202 12.7574L4.14275 24.9069C3.6465 25.1957 3.34125 25.7267 3.34125 26.3007V27.0664V27.9129L24.748 42.6599C26.1937 43.6559 28.1045 43.6559 29.5502 42.6599L50.957 27.9129V27.0664V26.3007C50.957 25.7267 50.6517 25.1957 50.1555 24.9069V24.9069Z" fill="#AF0404"/>
<path d="M24.748 42.6601L3.34125 27.9131V56.4826C3.34125 57.4176 4.09925 58.1756 5.03425 58.1756H49.264C50.199 58.1756 50.957 57.4176 50.957 56.4826V27.9131L29.5502 42.6601C28.1045 43.6561 26.1937 43.6561 24.748 42.6601Z" fill="#FF0000"/>
<path d="M24.748 42.66C26.1938 43.656 28.1045 43.656 29.5503 42.66L45.2743 31.828V8.19775C45.2743 6.817 44.155 5.69775 42.7743 5.69775H11.5243C10.1435 5.69775 9.02426 6.817 9.02426 8.19775V31.828L24.748 42.66Z" fill="#F2EFEF"/>
<path d="M29.5502 42.6597C28.1045 43.6557 26.1937 43.6557 24.748 42.6597L23.4627 41.7742L3.34125 55.6357V56.4822C3.34125 57.4172 4.09925 58.1752 5.03425 58.1752H49.264C50.199 58.1752 50.957 57.4172 50.957 56.4822V55.6357L30.8355 41.7742L29.5502 42.6597Z" fill="#FF0000"/>
<path d="M49.264 58.6751H5.03425C3.825 58.6751 2.84125 57.6913 2.84125 56.4823V55.6359C2.84125 55.4714 2.92225 55.3176 3.0575 55.2241L23.179 41.3626C23.35 41.2454 23.5755 41.2449 23.7465 41.3626L25.0317 42.2484C26.2982 43.1204 28 43.1206 29.2667 42.2481L30.5517 41.3629C30.7227 41.2451 30.9482 41.2449 31.1192 41.3626L51.2407 55.2241C51.3762 55.3176 51.457 55.4714 51.457 55.6359V56.4823C51.457 57.6916 50.4732 58.6751 49.264 58.6751V58.6751ZM3.84125 55.8986V56.4823C3.84125 57.1401 4.3765 57.6751 5.03425 57.6751H49.2637C49.9215 57.6751 50.4567 57.1398 50.4567 56.4823V55.8986L30.8352 42.3816L29.8337 43.0716V43.0719C28.228 44.1781 26.0702 44.1779 24.4642 43.0719L23.4625 42.3816L3.84125 55.8986ZM29.5502 42.6599H29.5527H29.5502Z" fill="#AF0404"/>
<path d="M40.2743 12.6978H14.0243C13.472 12.6978 13.0243 12.25 13.0243 11.6978C13.0243 11.1455 13.472 10.6978 14.0243 10.6978H40.2743C40.8265 10.6978 41.2743 11.1455 41.2743 11.6978C41.2743 12.25 40.8265 12.6978 40.2743 12.6978Z" fill="#F9A7A7"/>
<path d="M40.2743 18.6978H14.0243C13.472 18.6978 13.0243 18.25 13.0243 17.6978C13.0243 17.1455 13.472 16.6978 14.0243 16.6978H40.2743C40.8265 16.6978 41.2743 17.1455 41.2743 17.6978C41.2743 18.25 40.8265 18.6978 40.2743 18.6978Z" fill="#F9A7A7"/>
<path d="M40.2743 24.6978H14.0243C13.472 24.6978 13.0243 24.25 13.0243 23.6978C13.0243 23.1455 13.472 22.6978 14.0243 22.6978H40.2743C40.8265 22.6978 41.2743 23.1455 41.2743 23.6978C41.2743 24.25 40.8265 24.6978 40.2743 24.6978Z" fill="#F9A7A7"/>
<path d="M40.2743 30.6978H14.0243C13.472 30.6978 13.0243 30.25 13.0243 29.6978C13.0243 29.1455 13.472 28.6978 14.0243 28.6978H40.2743C40.8265 28.6978 41.2743 29.1455 41.2743 29.6978C41.2743 30.25 40.8265 30.6978 40.2743 30.6978Z" fill="#F9A7A7"/>
<path d="M49.264 58.6755H5.03425C3.825 58.6755 2.84125 57.6915 2.84125 56.4825V27.913C2.84125 27.7273 2.94425 27.5568 3.10875 27.4703C3.273 27.3838 3.47175 27.3958 3.625 27.501L25.0317 42.2478C26.2982 43.1203 28.0002 43.1208 29.2665 42.2478L50.673 27.501C50.826 27.396 51.025 27.3838 51.1892 27.4703C51.3537 27.5568 51.4567 27.727 51.4567 27.913V56.4825C51.457 57.6918 50.4732 58.6755 49.264 58.6755V58.6755ZM3.84125 28.8648V56.4825C3.84125 57.1405 4.3765 57.6755 5.03425 57.6755H49.2637C49.9215 57.6755 50.4567 57.1403 50.4567 56.4825V28.8648L29.8337 43.0718C28.228 44.178 26.07 44.1785 24.464 43.0715L3.84125 28.8648Z" fill="#AF0404"/>
<path d="M48.457 55.4834C53.8535 55.4834 58.2282 51.1087 58.2282 45.7122C58.2282 40.3157 53.8535 35.9409 48.457 35.9409C43.0605 35.9409 38.6857 40.3157 38.6857 45.7122C38.6857 51.1087 43.0605 55.4834 48.457 55.4834Z" fill="#F9A7A7"/>
<path d="M48.457 52.9834C44.4475 52.9834 41.1857 49.7214 41.1857 45.7122C41.1857 41.7029 44.4475 38.4409 48.457 38.4409C52.4665 38.4409 55.7282 41.7029 55.7282 45.7122C55.7282 49.7214 52.4662 52.9834 48.457 52.9834Z" fill="#F9CFCF"/>
<path d="M48.0108 46.2182L48.3653 52.5512C48.391 53.0127 48.9507 53.2264 49.2777 52.8994L49.7098 52.4674C49.9188 52.2584 50.2575 52.2584 50.4662 52.4674L56.1442 58.1454C56.3532 58.3544 56.692 58.3544 56.9007 58.1454L60.502 54.5442C60.711 54.3352 60.711 53.9964 60.502 53.7877L54.824 48.1097C54.615 47.9007 54.615 47.5619 54.824 47.3532L55.256 46.9212C55.583 46.5942 55.3692 46.0347 54.9077 46.0087L48.5747 45.6542C48.2563 45.6364 47.993 45.8997 48.0108 46.2182V46.2182Z" fill="#14121A"/>
</svg>
