<svg width="15" height="12" viewBox="0 0 15 12" fill="none" xmlns="http://www.w3.org/2000/svg">
<path d="M10.0225 0.00266371V0H10.7259L10.9829 0.0506104C11.1542 0.0834673 11.3097 0.126526 11.4495 0.1798C11.5893 0.233074 11.7245 0.295232 11.8553 0.36626C11.986 0.437287 12.1046 0.50966 12.211 0.583352C12.3165 0.656164 12.4112 0.733412 12.4951 0.815094C12.578 0.897669 12.7074 0.918979 12.8832 0.879023C13.0591 0.839068 13.2484 0.783569 13.4513 0.712542C13.6542 0.641514 13.8548 0.561603 14.0532 0.472808C14.2516 0.384013 14.3724 0.327636 14.4157 0.303663C14.4581 0.27881 14.4806 0.265492 14.4833 0.263707L14.486 0.259711L14.4995 0.253052L14.5131 0.246393L14.5266 0.239734L14.5401 0.233074L14.5428 0.229079L14.5469 0.226415L14.551 0.223751L14.5537 0.219756L14.5672 0.21576L14.5807 0.213097L14.578 0.233074L14.5739 0.253052L14.5672 0.27303L14.5604 0.293008L14.5537 0.306326L14.5469 0.319645L14.5401 0.339623C14.5356 0.352941 14.5311 0.370695 14.5266 0.392897C14.5221 0.415099 14.4793 0.50388 14.3981 0.659267C14.317 0.814655 14.2155 0.972253 14.0938 1.13208C13.972 1.2919 13.8629 1.41264 13.7665 1.49434C13.6691 1.57691 13.6046 1.63462 13.573 1.66748C13.5415 1.70122 13.5032 1.73229 13.4581 1.76071L13.3904 1.80466L13.3769 1.81132L13.3634 1.81798L13.3607 1.82198L13.3566 1.82464L13.3526 1.8273L13.3499 1.8313L13.3363 1.83796L13.3228 1.84462L13.3201 1.84861L13.3161 1.85128L13.312 1.85394L13.3093 1.85794L13.3066 1.86193L13.3025 1.86459L13.2985 1.86726L13.2958 1.87125H13.3634L13.7421 1.79134C13.9946 1.73807 14.2358 1.6737 14.4657 1.59822L14.8309 1.47836L14.8715 1.46504L14.8918 1.45838L14.9053 1.45172L14.9188 1.44506L14.9324 1.4384L14.9459 1.43174L14.9729 1.42775L15 1.42508V1.45172L14.9932 1.45438L14.9865 1.45838L14.9838 1.46238L14.9797 1.46504L14.9757 1.4677L14.9729 1.4717L14.9703 1.47569L14.9662 1.47836L14.9621 1.48102L14.9594 1.48502L14.9567 1.48901L14.9527 1.49168L14.9459 1.50499L14.9391 1.51831L14.9351 1.52098C14.9333 1.52364 14.876 1.5991 14.7633 1.74739C14.6506 1.89656 14.5897 1.97202 14.5807 1.97381C14.5717 1.97647 14.5591 1.98979 14.5428 2.01376C14.5275 2.03861 14.4319 2.13762 14.2561 2.31077C14.0803 2.48391 13.908 2.63795 13.7394 2.77292C13.5699 2.90877 13.4842 3.07569 13.4824 3.2737C13.4797 3.47081 13.4694 3.69368 13.4513 3.94229C13.4333 4.1909 13.3995 4.45949 13.3499 4.74806C13.3003 5.03663 13.2236 5.36293 13.1199 5.72697C13.0162 6.09101 12.89 6.44617 12.7412 6.79245C12.5924 7.13873 12.4369 7.4495 12.2746 7.72475C12.1123 8 11.9635 8.23308 11.8282 8.42397C11.693 8.61487 11.5555 8.79467 11.4157 8.96337C11.2759 9.13208 11.0992 9.3221 10.8855 9.53341C10.6709 9.74384 10.5537 9.85927 10.5338 9.87969C10.5131 9.89923 10.4247 9.97204 10.2687 10.0981C10.1136 10.2251 9.9468 10.352 9.76826 10.479C9.59063 10.6051 9.42741 10.7103 9.27863 10.7947C9.12985 10.879 8.95042 10.9754 8.74031 11.0837C8.53112 11.1929 8.30478 11.2941 8.06132 11.3873C7.81785 11.4806 7.56087 11.5671 7.29035 11.6471C7.01984 11.727 6.75835 11.7891 6.50586 11.8335C6.25339 11.8779 5.96709 11.9157 5.64698 11.9467L5.16682 11.9933V12H4.28765V11.9933L4.17268 11.9867C4.09604 11.9822 4.03292 11.9778 3.98332 11.9734C3.93373 11.9689 3.74662 11.9445 3.422 11.9001C3.09739 11.8557 2.84266 11.8113 2.6578 11.7669C2.47296 11.7225 2.19793 11.6382 1.83273 11.5139C1.46754 11.3896 1.15509 11.2639 0.895401 11.137C0.636614 11.0109 0.474306 10.931 0.408476 10.8972C0.343553 10.8644 0.270514 10.8235 0.18936 10.7747L0.0676285 10.7014L0.0649369 10.6974L0.0608656 10.6948L0.0568079 10.6921L0.0541028 10.6881L0.0405771 10.6815L0.0270514 10.6748L0.0243598 10.6708L0.0202885 10.6681L0.0162308 10.6655L0.0135257 10.6615L0.0108341 10.6575L0.00676285 10.6548H0V10.6282L0.0135257 10.6309L0.0270514 10.6349L0.087917 10.6415C0.128494 10.6459 0.238959 10.6526 0.419297 10.6615C0.599648 10.6704 0.791253 10.6704 0.994139 10.6615C1.19702 10.6526 1.40443 10.6326 1.61632 10.6016C1.82823 10.5705 2.07845 10.5172 2.367 10.4417C2.65555 10.3663 2.92066 10.2766 3.16232 10.1727C3.40308 10.0679 3.5744 9.98979 3.6763 9.93829C3.77728 9.88768 3.93147 9.79356 4.13886 9.65594L4.44995 9.4495L4.45266 9.44551L4.45672 9.44284L4.46079 9.44018L4.46348 9.43618L4.46619 9.43219L4.47024 9.42952L4.47431 9.42686L4.47701 9.42286L4.49053 9.41887L4.50406 9.4162L4.50676 9.40289L4.51082 9.38957L4.51489 9.3869L4.51758 9.38291L4.40938 9.37625C4.33725 9.37181 4.26736 9.36737 4.19973 9.36293C4.1321 9.3585 4.02615 9.33852 3.88188 9.303C3.73761 9.26748 3.58207 9.2142 3.41524 9.14317C3.24843 9.07215 3.08612 8.98779 2.92831 8.89012C2.77052 8.79246 2.65645 8.7112 2.58611 8.64639C2.51669 8.58245 2.42651 8.4919 2.3156 8.37469C2.2056 8.25661 2.11001 8.1354 2.02885 8.0111C1.9477 7.8868 1.87016 7.74338 1.79623 7.58091L1.68395 7.33851L1.67719 7.31853L1.67042 7.29856L1.66637 7.28524L1.66366 7.27192L1.68395 7.27458L1.70424 7.27858L1.85302 7.29856C1.95222 7.31188 2.10776 7.31631 2.31966 7.31188C2.53156 7.30744 2.67809 7.29856 2.75924 7.28524C2.8404 7.27192 2.89 7.26304 2.90803 7.2586L2.93508 7.25194L2.96889 7.24528L3.00271 7.23862L3.00541 7.23463L3.00947 7.23196L3.01354 7.2293L3.01623 7.22531L2.98918 7.21865L2.96213 7.21199L2.93508 7.20533L2.90803 7.19867L2.88097 7.19201C2.86294 7.18757 2.83139 7.17869 2.78629 7.16537C2.74121 7.15205 2.61948 7.10321 2.4211 7.01887C2.22273 6.93452 2.06493 6.85239 1.9477 6.77248C1.83018 6.69233 1.71813 6.60469 1.61226 6.5101C1.50676 6.41421 1.3909 6.29078 1.26465 6.13984C1.13842 5.98891 1.02571 5.81354 0.92651 5.61376C0.827326 5.41398 0.752935 5.22309 0.703336 5.04107C0.653937 4.86011 0.621346 4.67511 0.605965 4.48835L0.581605 4.20866L0.595131 4.21132L0.608656 4.21532L0.622182 4.22198L0.635708 4.22863L0.649234 4.23529L0.662759 4.24195L0.872408 4.33518C1.01218 4.39734 1.18576 4.45061 1.39315 4.49501C1.60055 4.5394 1.72453 4.56382 1.7651 4.56826L1.82597 4.57492H1.9477L1.94501 4.57092L1.94094 4.56826L1.93688 4.56559L1.93418 4.5616L1.93148 4.5576L1.92741 4.55494L1.92335 4.55228L1.92065 4.54828L1.90712 4.54162L1.8936 4.53496L1.89091 4.53097L1.88684 4.5283L1.88278 4.52564L1.88007 4.52164L1.86655 4.51498L1.85302 4.50832L1.85033 4.50433C1.84762 4.50254 1.80885 4.47414 1.73399 4.41909C1.66005 4.36315 1.58251 4.29079 1.50135 4.202C1.4202 4.1132 1.33904 4.01997 1.25789 3.92231C1.17659 3.82442 1.10417 3.71969 1.04148 3.60932C0.978368 3.49834 0.911632 3.35715 0.841299 3.18579C0.771871 3.01532 0.719121 2.84351 0.683048 2.67037C0.646988 2.49723 0.6267 2.32631 0.622182 2.1576C0.617678 1.9889 0.622182 1.84462 0.635708 1.72475C0.649234 1.60488 0.676285 1.46947 0.716862 1.31853C0.757439 1.1676 0.81606 1.00777 0.892696 0.839068L1.00766 0.586016L1.01443 0.566038L1.02119 0.54606L1.02526 0.543396L1.02795 0.539401L1.03066 0.535405L1.03472 0.532741L1.03879 0.535405L1.04148 0.539401L1.04418 0.543396L1.04824 0.54606L1.05231 0.548724L1.055 0.552719L1.05771 0.556715L1.06177 0.559378L1.06853 0.572697L1.07529 0.586016L1.07936 0.588679L1.08206 0.592675L1.26465 0.792453C1.38638 0.925638 1.53066 1.07437 1.69748 1.23862C1.8643 1.40288 1.95672 1.48812 1.97475 1.49434C1.9928 1.50144 2.01533 1.52186 2.04238 1.5556C2.06943 1.58846 2.15961 1.66704 2.31289 1.79134C2.46619 1.91564 2.66682 2.05994 2.91479 2.2242C3.16277 2.38845 3.43779 2.5505 3.73986 2.71032C4.04194 2.87014 4.36656 3.01442 4.71371 3.14317C5.06087 3.27192 5.30433 3.35627 5.44409 3.39623C5.58387 3.43618 5.82281 3.48723 6.16096 3.54939C6.4991 3.61155 6.75384 3.6515 6.92516 3.66926C7.09649 3.68701 7.21372 3.69723 7.27683 3.69989L7.37151 3.70255L7.36881 3.68257L7.36474 3.6626L7.33769 3.49612C7.31966 3.38513 7.31064 3.22974 7.31064 3.02997C7.31064 2.83019 7.32642 2.64595 7.35798 2.47725C7.38955 2.30854 7.43689 2.13762 7.5 1.96448C7.56312 1.79134 7.6249 1.65238 7.6853 1.54761C7.74663 1.44373 7.82688 1.32519 7.92606 1.19201C8.02526 1.05882 8.15375 0.921203 8.31154 0.779134C8.46935 0.637065 8.64969 0.510539 8.85257 0.399556C9.05546 0.288573 9.24257 0.204213 9.41389 0.146504C9.58522 0.0887947 9.7295 0.0510499 9.84671 0.0332963C9.96394 0.0155427 10.0225 0.00532741 10.0225 0.00266371Z" fill="#F9A7A7"/>
</svg>
