<svg xmlns="http://www.w3.org/2000/svg" xmlns:xlink="http://www.w3.org/1999/xlink" viewBox="0 0 527.48 243.79"><defs><style>.cls-1{fill:none;}.cls-2{clip-path:url(#clip-path);}.cls-3{fill:#ee6d11;}.cls-10,.cls-3,.cls-4,.cls-5,.cls-6,.cls-7,.cls-8,.cls-9{fill-rule:evenodd;}.cls-4{fill:#f70600;}.cls-10,.cls-4,.cls-9{opacity:0.8;}.cls-5{fill:#702976;}.cls-6,.cls-7{fill:#fff500;}.cls-6{opacity:0.9;}.cls-7{opacity:0.85;}.cls-8{fill:#84ce36;}.cls-9{fill:#00ace0;}.cls-10{fill:#88c254;}</style><clipPath id="clip-path" transform="translate(-16.11)"><rect class="cls-1" y="24.28" width="520" height="231"/></clipPath></defs><title>insign</title><g id="Layer_2" data-name="Layer 2"><g id="Layer_1-2" data-name="Layer 1"><g id="Home"><g id="About"><g class="cls-2"><path class="cls-3" d="M161.85,231.5s-23.15-38.21-17.16-56.79,25.24-28.76,43-22.71,27.35,26,21.38,44.61-47.26,34.89-47.26,34.89Zm7-21.61s-11.23-19.63-8.38-28.57a16.62,16.62,0,0,1,21.3-10.69,17.34,17.34,0,0,1,10.91,21.64c-2.89,9-23.83,17.62-23.83,17.62Z" transform="translate(-16.11)"/><path class="cls-4" d="M16.11,108S33.25,59.63,54.28,51.53s44.31,1.74,52,22-3.12,43.26-24.17,51.4-66-17-66-17Zm24.46-9.43S49.86,74.31,60,70.39a19.44,19.44,0,0,1,25.25,11.3,19.75,19.75,0,0,1-11.32,25.41c-10.14,3.9-33.31-8.55-33.31-8.55Z" transform="translate(-16.11)"/><path class="cls-5" d="M348.61,232.63S329.67,221.43,328,211.9s4.39-18.51,13.57-20.08,18,4.89,19.65,14.42-12.6,26.39-12.6,26.39Zm-1.95-11.08s-9.44-5.91-10.26-10.49a8.34,8.34,0,0,1,6.84-9.7,8.48,8.48,0,0,1,9.77,6.87c.8,4.59-6.35,13.32-6.35,13.32Z" transform="translate(-16.11)"/><path class="cls-6" d="M108.37,158.67s-9.43-19.89-5.49-28.72,14-12.89,22.48-9.05,12.15,14.1,8.22,22.94-25.21,14.83-25.21,14.83ZM113,148.4s-4.52-10.18-2.64-14.43a8.34,8.34,0,0,1,11.1-4.21,8.48,8.48,0,0,1,4.25,11.15c-1.9,4.26-12.72,7.49-12.72,7.49Z" transform="translate(-16.11)"/><path class="cls-7" d="M469,243.79s-44.84-36.92-45.32-62.51,19.15-46.73,43.76-47.21,45,20,45.44,45.6S469,243.79,469,243.79ZM468.48,214S446.27,194.74,446,182.41a22.31,22.31,0,0,1,44.62-.77C490.79,194,468.48,214,468.48,214Z" transform="translate(-16.11)"/><path class="cls-8" d="M399.38,163.6s-73-2.08-93.24-27.17-17-61.24,7.16-80.66S373.43,41,393.64,66.06s5.74,97.54,5.74,97.54Zm-23.43-29.19s-37-2-46.68-14.06A28,28,0,1,1,373,85.24c9.68,12,2.94,49.18,2.94,49.18Z" transform="translate(-16.11)"/><path class="cls-4" d="M272.07,214.57S212.52,170.69,211,138.92a57.9,57.9,0,0,1,115.66-5.8c1.51,31.78-54.6,81.45-54.6,81.45Zm-1.69-36.93s-29.6-22.95-30.35-38.21,11.64-28.33,27.59-29.14,29.53,11,30.27,26.21-27.51,41.14-27.51,41.14Z" transform="translate(-16.11)"/><path class="cls-9" d="M139,138.56s1.06-71.25,25.27-91.24S223.71,30,243,53.26s15.22,58.34-9,78.38-95,6.91-95,6.91Zm28.15-23.26s1.45-36,13.06-45.68a27.35,27.35,0,0,1,34.86,42.16c-11.68,9.63-47.92,3.52-47.92,3.52Z" transform="translate(-16.11)"/><path class="cls-4" d="M84.85,0l39.89,3.34c5.34,6.54,24.83,29.27,38.75,30.29A29.62,29.62,0,0,0,194.75,9.21L228.64,12c-4,30.84-32.49,53.56-65.18,51.22C132.32,61,91.24,8.43,84.85,0Z" transform="translate(-16.11)"/><path class="cls-10" d="M543.59,182.71s-43.12,29.81-65.45,23.86S442.28,178.36,448,156.83s28.47-34,50.85-28.08,44.71,54,44.71,54Zm-25.94-6.91s-22.24,14.54-33,11.7A20.14,20.14,0,1,1,495,148.56c10.75,2.84,22.63,27.23,22.63,27.23Z" transform="translate(-16.11)"/><path class="cls-5" d="M477,100.5S457.9,118.35,446.41,117s-19.83-11.45-18.62-22.53,11.5-18.91,23-17.55S477,100.5,477,100.5Zm-13.36-1.6s-9.89,8.79-15.42,8.14a10.16,10.16,0,0,1-8.9-11.21A10,10,0,0,1,450.4,87c5.54.67,13.22,11.9,13.22,11.9Z" transform="translate(-16.11)"/><path class="cls-4" d="M479.8,33.09,439.9,29.75c-6.35,5.56-29.35,24.73-43.25,23.42a29.62,29.62,0,0,1-26.77-29.28L336,21c-1.18,31.07,23.12,58.22,55.75,61.35C422.83,85.37,472.09,40.34,479.8,33.09Z" transform="translate(-16.11)"/></g></g></g></g></g></svg>