<svg xmlns="http://www.w3.org/2000/svg" viewBox="0 0 244.8 354.4">
<style type="text/css">
   .st0{fill:#8CC64D;}
   .st1{fill:#3E5763;}
   .st2{fill:#E7583D;}
   .st3{fill:#377C96;}
   .st4{fill:#BCBEC0;}
</style>

   <g>
      <g>
         
            <rect x="138.1" y="154.6" transform="matrix(0.9948 -0.1021 0.1021 0.9948 -15.2515 15.1644)" class="st0" width="4.8" height="3.9"/>
         
            <rect x="125.7" y="155.8" transform="matrix(0.9948 -0.1021 0.1021 0.9948 -15.438 13.9088)" class="st0" width="4.8" height="3.9"/>
         
            <rect x="131.7" y="148.5" transform="matrix(0.9948 -0.102 0.102 0.9948 -14.7046 14.4252)" class="st0" width="3.9" height="4.8"/>
         
            <rect x="133" y="161" transform="matrix(0.9947 -0.1024 0.1024 0.9947 -16.0235 14.6798)" class="st0" width="3.9" height="4.8"/>
      </g>
      <g>
         
            <rect x="151.2" y="105.5" transform="matrix(0.9948 -0.1023 0.1023 0.9948 -10.1883 16.2701)" class="st1" width="4.8" height="3.9"/>
         
            <rect x="138.9" y="106.9" transform="matrix(0.9948 -0.1021 0.1021 0.9948 -10.3758 14.9959)" class="st1" width="4.8" height="3.9"/>
         
            <rect x="144.9" y="99.6" transform="matrix(0.9948 -0.1014 0.1014 0.9948 -9.584 15.4167)" class="st1" width="3.9" height="4.8"/>
         
            <rect x="146.1" y="111.9" transform="matrix(0.9948 -0.102 0.102 0.9948 -10.8928 15.7052)" class="st1" width="3.9" height="4.8"/>
      </g>
      <g>
         
            <rect x="91.5" y="105.8" transform="matrix(0.9947 -0.1028 0.1028 0.9947 -10.4987 10.1119)" class="st0" width="2.7" height="2.2"/>
         
            <rect x="84.4" y="106.5" transform="matrix(0.9947 -0.1025 0.1025 0.9947 -10.5842 9.363)" class="st0" width="2.7" height="2.2"/>
         
            <rect x="87.8" y="102.2" transform="matrix(0.9949 -0.1013 0.1013 0.9949 -10.0378 9.5385)" class="st0" width="2.2" height="2.8"/>
         
            <rect x="88.6" y="109.5" transform="matrix(0.9948 -0.1023 0.1023 0.9948 -10.8646 9.7502)" class="st0" width="2.2" height="2.8"/>
      </g>
      <path class="st1" d="M118.7,67.2l3.9-0.5l0.6,5.2l5.3-0.6l0.5,4.3l-5.3,0.6l0.6,5.3l-3.9,0.5l-0.6-5.3l-5.3,0.6
         l-0.5-4.3l5.3-0.6L118.7,67.2z"/>
      <path class="st1" d="M70.5,162.3l5.3-0.6l0.9,7.1l7.2-0.9l0.7,5.8l-7.2,0.9l0.9,7.2l-5.3,0.6l-0.9-7.2l-7.2,0.9
         l-0.7-5.8l7.2-0.9L70.5,162.3z"/>
      <g>
         <g>
            
               <rect x="215.8" y="45.6" transform="matrix(0.3861 -0.9224 0.9224 0.3861 88.2404 229.989)" class="st2" width="2.2" height="6.1"/>
            
               <rect x="213.8" y="47.6" transform="matrix(0.3869 -0.9221 0.9221 0.3869 88.1305 229.8503)" class="st2" width="6.2" height="2.2"/>
         </g>
         <path class="st2" d="M210,32.5l-1-0.4l-1.7,4.1l2,0.8l1.4-3.4l3,1.3l0.9-2l-4-1.7L210,32.5z M217.8,36.5l4,1.7
            l0.9-2l-4-1.7L217.8,36.5z M225.9,39.8l4,1.7l0.9-2l-4-1.7L225.9,39.8z M230.4,46.4l2,0.8l1.7-4.1l-2-0.8L230.4,46.4z
             M203.9,44.3l2,0.8l1.7-4.1l-2-0.8L203.9,44.3z M227,54.5l2,0.8l1.7-4.1l-2-0.8L227,54.5z M200.5,52.4l2,0.8l1.7-4.1l-2-0.8
            L200.5,52.4z M223.6,62.7l2,0.8l1.7-4.1l-2-0.8L223.6,62.7z M201.2,57.1l4,1.7l0.9-2l-4-1.7L201.2,57.1z M209.3,60.5l4,1.7l0.9-2
            l-4-1.7L209.3,60.5z M217.3,63.9l4,1.7l0.9-2l-4-1.7L217.3,63.9z"/>
      </g>
      <g>
         
            <rect x="141.8" y="19.3" transform="matrix(0.5775 -0.8164 0.8164 0.5775 43.5488 125.3522)" class="st1" width="2.1" height="2.5"/>
         
            <rect x="136.5" y="15.5" transform="matrix(0.5769 -0.8168 0.8168 0.5769 44.4518 119.4365)" class="st1" width="2.1" height="2.5"/>
         
            <rect x="140.8" y="15" transform="matrix(0.5771 -0.8166 0.8166 0.5771 47.0309 122.8344)" class="st1" width="2.6" height="2.1"/>
         
            <rect x="137" y="20.4" transform="matrix(0.5771 -0.8166 0.8166 0.5771 40.9847 121.9739)" class="st1" width="2.6" height="2.1"/>
      </g>
      <g>
         
            <rect x="178" y="49.3" transform="matrix(0.3865 -0.9223 0.9223 0.3865 62.6876 197.4867)" class="st3" width="3.6" height="4.7"/>
         
            <rect x="166.8" y="44.6" transform="matrix(0.3859 -0.9225 0.9225 0.3859 60.2268 184.3475)" class="st3" width="3.6" height="4.7"/>
         
            <rect x="174.2" y="41.8" transform="matrix(0.3867 -0.9222 0.9222 0.3867 68.0586 189.5592)" class="st3" width="4.7" height="3.6"/>
         
            <rect x="169.5" y="53.2" transform="matrix(0.3865 -0.9223 0.9223 0.3865 54.7501 192.1919)" class="st3" width="4.7" height="3.6"/>
      </g>
      <path class="st1" d="M193.2,10.6l3.7,2.5l-3.3,4.9l5,3.4l-2.7,4l-5-3.4l-3.4,5l-3.7-2.5l3.4-5l-5-3.4l2.7-4l5,3.4
         L193.2,10.6z"/>
      <path class="st0" d="M132.6,47.2l1.9,0.8l-1,2.6l2.6,1l-0.8,2.1l-2.6-1l-1,2.6l-1.9-0.8l1-2.6l-2.6-1l0.8-2.1
         l2.6,1L132.6,47.2z"/>
      <path class="st1" d="M76.5,83.5l0.4-0.9c0.3-0.8,1.2-1.2,2-0.9l0,0c0.8,0.3,1.2,1.2,0.9,2l-0.4,0.9
         c-0.3,0.8,0.1,1.7,0.9,2l1,0.4c0.8,0.3,1.2,1.2,0.9,2l-0.1,0.3c-0.3,0.8-1.2,1.2-2,0.9l-1-0.4c-0.8-0.3-1.7,0.1-2,0.9l-0.4,1
         c-0.3,0.8-1.2,1.2-2,0.9l0,0c-0.8-0.3-1.2-1.2-0.9-2l0.4-1c0.3-0.8-0.1-1.7-0.9-2l-1-0.4c-0.8-0.3-1.2-1.2-0.9-2l0.1-0.3
         c0.3-0.8,1.2-1.2,2-0.9l1,0.4C75.2,84.7,76.1,84.3,76.5,83.5z"/>
      <g>
         
            <rect x="126.1" y="185.9" transform="matrix(0.9951 -9.903373e-02 9.903373e-02 0.9951 -17.9685 13.6478)" class="st0" width="4.8" height="3.9"/>
         
            <rect x="138.5" y="184.7" transform="matrix(0.9951 -9.903373e-02 9.903373e-02 0.9951 -17.7933 14.8662)" class="st0" width="4.8" height="3.9"/>
         
            <rect x="133.4" y="191" transform="matrix(0.9951 -9.896337e-02 9.896337e-02 0.9951 -18.4801 14.3411)" class="st0" width="3.9" height="4.8"/>
         
            <rect x="132.1" y="178.6" transform="matrix(0.9951 -9.931514e-02 9.931514e-02 0.9951 -17.3102 14.2052)" class="st0" width="3.9" height="4.8"/>
      </g>
      <g>
         
            <rect x="94.8" y="238.6" transform="matrix(0.9951 -9.917444e-02 9.917444e-02 0.9951 -23.382 10.8202)" class="st1" width="4.8" height="3.9"/>
         
            <rect x="107.1" y="237.3" transform="matrix(0.9951 -9.903373e-02 9.903373e-02 0.9951 -23.1607 12.0172)" class="st1" width="4.8" height="3.9"/>
         
            <rect x="102" y="243.7" transform="matrix(0.9952 -9.833004e-02 9.833004e-02 0.9952 -23.7009 11.4083)" class="st1" width="3.9" height="4.8"/>
         
            <rect x="100.8" y="231.4" transform="matrix(0.9951 -9.896337e-02 9.896337e-02 0.9951 -22.6337 11.3121)" class="st1" width="3.9" height="4.8"/>
      </g>
      <g>
         
            <rect x="156.5" y="240.3" transform="matrix(0.995 -9.973729e-02 9.973729e-02 0.995 -23.2891 16.9524)" class="st0" width="2.7" height="2.2"/>
         
            <rect x="163.6" y="239.6" transform="matrix(0.995 -9.945589e-02 9.945589e-02 0.995 -23.1194 17.5996)" class="st0" width="2.7" height="2.2"/>
         
            <rect x="160.7" y="243.3" transform="matrix(0.9952 -9.818932e-02 9.818932e-02 0.9952 -23.2423 17.0695)" class="st0" width="2.2" height="2.8"/>
         
            <rect x="160" y="236.1" transform="matrix(0.9951 -9.917444e-02 9.917444e-02 0.9951 -22.7555 17.1459)" class="st0" width="2.2" height="2.8"/>
      </g>
      <path class="st4" d="M131.9,281l-3.9,0.5l-0.6-5.2l-5.3,0.6l-0.5-4.3l5.3-0.6l-0.6-5.3l3.9-0.5l0.6,5.3l5.3-0.6
         l0.5,4.3l-5.3,0.6L131.9,281z"/>
      <path  class="st3" d="M198,181.1l-4.7,0.6l-0.7-6.2l-6.3,0.7l-0.6-5.1l6.3-0.7l-0.7-6.3l4.7-0.5l0.7,6.3l6.3-0.7
         l0.6,5.1l-6.3,0.7L198,181.1z"/>
      <g>
         <g>
            
               <rect x="32.5" y="296.2" transform="matrix(0.389 -0.9212 0.9212 0.389 -255.0915 213.7992)" class="st2" width="2.2" height="6.1"/>
            
               <rect x="30.6" y="298.2" transform="matrix(0.3897 -0.9209 0.9209 0.3897 -255.0562 213.613)" class="st2" width="6.2" height="2.2"/>
         </g>
         <path class="st2" d="M40.5,315.5l1,0.4l1.7-4.1l-2-0.9l-1.5,3.4l-3-1.3l-0.9,2l4,1.7L40.5,315.5z M32.7,311.4
            l-4-1.7l-0.9,2l4,1.7L32.7,311.4z M24.6,308l-4-1.7l-0.9,2l4,1.7L24.6,308z M20.2,301.5l-2-0.8l-1.7,4.1l2,0.9L20.2,301.5z
             M46.6,303.7l-2-0.9l-1.7,4.1l2,0.9L46.6,303.7z M23.6,293.3l-2-0.9l-1.7,4.1l2,0.9L23.6,293.3z M50.1,295.6l-2-0.8l-1.7,4.1
            l2,0.8L50.1,295.6z M27,285.2l-2-0.9l-1.7,4.1l2,0.8L27,285.2z M49.4,290.8l-4-1.7l-0.9,2l4,1.7L49.4,290.8z M41.3,287.4l-4-1.7
            l-0.9,2l4,1.7L41.3,287.4z M33.3,284l-4-1.7l-0.9,2l4,1.7L33.3,284z"/>
      </g>
      <g>
         
            <rect x="137.6" y="322.3" transform="matrix(0.3896 -0.921 0.921 0.3896 -213.4926 325.4058)" class="st1" width="2.4" height="2.9"/>
         
            <rect x="144.4" y="325.2" transform="matrix(0.3889 -0.9213 0.9213 0.3889 -211.9763 333.7234)" class="st1" width="2.3" height="2.9"/>
         
            <rect x="139.2" y="327.5" transform="matrix(0.3892 -0.9212 0.9212 0.3892 -216.8158 330.3364)" class="st1" width="2.9" height="2.3"/>
         
            <rect x="142.2" y="320.6" transform="matrix(0.3892 -0.9212 0.9212 0.3892 -208.6554 328.8361)" class="st1" width="2.9" height="2.3"/>
      </g>
      <g>
         
            <rect x="69" y="294.1" transform="matrix(0.3894 -0.9211 0.9211 0.3894 -229.7896 246.1666)" class="st3" width="3.6" height="4.7"/>
         
            <rect x="80.2" y="298.8" transform="matrix(0.3887 -0.9213 0.9213 0.3887 -227.3285 259.582)" class="st3" width="3.6" height="4.7"/>
         
            <rect x="71.6" y="302.6" transform="matrix(0.3896 -0.921 0.921 0.3896 -235.2049 253.9619)" class="st3" width="4.7" height="3.6"/>
         
            <rect x="76.4" y="291.3" transform="matrix(0.3893 -0.9211 0.9211 0.3893 -221.8887 251.5154)" class="st3" width="4.7" height="3.6"/>
      </g>
      <path class="st1" d="M85.5,346.9l-4.7-1.9l2.5-6.2l-6.4-2.5l2.1-5.1l6.4,2.5l2.5-6.3l4.7,1.9l-2.5,6.3l6.3,2.5
         l-2.1,5.1l-6.3-2.5L85.5,346.9z"/>
      <path class="st0" d="M118,300.9l-1.9-0.8l1-2.6l-2.6-1.1l0.9-2.1l2.6,1.1l1-2.6l1.9,0.8l-1,2.6l2.6,1l-0.9,2.1
         l-2.6-1L118,300.9z"/>
      <path class="st1" d="M174.2,264.9l-0.4,0.9c-0.3,0.8-1.2,1.2-2,0.9l0,0c-0.8-0.3-1.2-1.2-0.9-2l0.4-0.9
         c0.3-0.8-0.1-1.7-0.9-2l-1-0.4c-0.8-0.3-1.2-1.2-0.9-2l0.1-0.3c0.3-0.8,1.2-1.2,2-0.9l1,0.4c0.8,0.3,1.7-0.1,2-0.9l0.4-1
         c0.3-0.8,1.2-1.2,2-0.9l0,0c0.8,0.3,1.2,1.2,0.9,2l-0.4,1c-0.3,0.8,0.1,1.7,0.9,2l1,0.4c0.8,0.3,1.2,1.2,0.9,2l-0.1,0.3
         c-0.3,0.8-1.2,1.2-2,0.9l-1-0.4C175.4,263.7,174.5,264.1,174.2,264.9z"/>
   </g>
</svg>