<svg xmlns="http://www.w3.org/2000/svg" viewBox="0 0 205.72 53.94"><defs><style>.cls-1{fill:#03283f;}</style></defs><title>logo_full</title><g id="Layer_2" data-name="Layer 2"><g id="Layer_1-2" data-name="Layer 1"><g id="_Group_" data-name="&lt;Group&gt;"><path id="_Compound_Path_" data-name="&lt;Compound Path&gt;" class="cls-1" d="M0,47.36H2v2.27H4.22V47.36h2v6.48h-2V51.22H2v2.62H0Z"/><path id="_Compound_Path_2" data-name="&lt;Compound Path&gt;" class="cls-1" d="M22.49,52.77H20.2l-.32,1.07H17.82l2.45-6.48h2.2l2.45,6.48H22.82Zm-.42-1.4L21.35,49l-.71,2.33Z"/><path id="_Compound_Path_3" data-name="&lt;Compound Path&gt;" class="cls-1" d="M36.73,47.35h2v4.89H41.9v1.6H36.73Z"/><path id="_Compound_Path_4" data-name="&lt;Compound Path&gt;" class="cls-1" d="M53.66,47.35h2v4.89h3.15v1.6H53.66Z"/><path id="_Compound_Path_5" data-name="&lt;Compound Path&gt;" class="cls-1" d="M70.59,47.35H76v1.38H72.61v1h3.14v1.32H72.61v1.28H76.1v1.47H70.59Z"/><path id="_Compound_Path_6" data-name="&lt;Compound Path&gt;" class="cls-1" d="M99.44,47.31h2.65l1,3.94,1-3.94h2.65V53.8h-1.65V48.85l-1.27,4.94h-1.5l-1.27-4.94V53.8H99.44Z"/><path id="_Compound_Path_7" data-name="&lt;Compound Path&gt;" class="cls-1" d="M121.5,51.87l1.72.19a2.39,2.39,0,0,1-.47.93,2.17,2.17,0,0,1-.83.61,3.29,3.29,0,0,1-1.29.22,4.77,4.77,0,0,1-1.25-.14,2.2,2.2,0,0,1-.86-.45,2.28,2.28,0,0,1-.57-.73,2.56,2.56,0,0,1-.21-1.11,2.61,2.61,0,0,1,.25-1.21,2.19,2.19,0,0,1,.5-.63,2.31,2.31,0,0,1,.65-.42,3.63,3.63,0,0,1,1.36-.22,3.15,3.15,0,0,1,1.77.41,2.17,2.17,0,0,1,.85,1.2l-1.71.23a.79.79,0,0,0-.29-.45,1,1,0,0,0-.57-.15.92.92,0,0,0-.73.32,1.44,1.44,0,0,0-.28,1,1.25,1.25,0,0,0,.28.88.91.91,0,0,0,.7.3,1,1,0,0,0,.6-.18A1.08,1.08,0,0,0,121.5,51.87Z"/><path id="_Compound_Path_8" data-name="&lt;Compound Path&gt;" class="cls-1" d="M136,51.48V50.13h3.12v2.76a6.41,6.41,0,0,1-1.58.82,5.41,5.41,0,0,1-1.63.22,4,4,0,0,1-1.9-.39,2.7,2.7,0,0,1-1.14-1.17,3.83,3.83,0,0,1-.4-1.79,3.71,3.71,0,0,1,.44-1.85,2.85,2.85,0,0,1,1.29-1.19,4.23,4.23,0,0,1,1.79-.31,5.06,5.06,0,0,1,1.62.19,2.11,2.11,0,0,1,.89.6,2.68,2.68,0,0,1,.53,1l-1.95.35a1,1,0,0,0-.41-.56,1.28,1.28,0,0,0-.73-.19,1.33,1.33,0,0,0-1.06.46,2.19,2.19,0,0,0-.39,1.45,2.26,2.26,0,0,0,.4,1.5,1.41,1.41,0,0,0,1.11.45,2.12,2.12,0,0,0,.65-.1,3.49,3.49,0,0,0,.7-.33v-.61Z"/><path id="_Compound_Path_9" data-name="&lt;Compound Path&gt;" class="cls-1" d="M151.22,53.83V47.34h3.36a4.92,4.92,0,0,1,1.43.16,1.52,1.52,0,0,1,.8.59,2,2,0,0,1,.07,2,1.81,1.81,0,0,1-.64.63,2.45,2.45,0,0,1-.71.26,1.37,1.37,0,0,1,.85.58,2.55,2.55,0,0,1,.28.4l1,1.88h-2.28l-1.08-2a1.51,1.51,0,0,0-.37-.5.85.85,0,0,0-.49-.15h-.18v2.63Zm2-3.86h.85a3.07,3.07,0,0,0,.53-.09.53.53,0,0,0,.33-.2.65.65,0,0,0-.07-.86,1.22,1.22,0,0,0-.75-.17h-.89Z"/><path id="_Compound_Path_10" data-name="&lt;Compound Path&gt;" class="cls-1" d="M167.05,47.34h5.41v1.38h-3.39v1h3.14v1.32h-3.14v1.28h3.48v1.47h-5.51Z"/><path id="_Compound_Path_11" data-name="&lt;Compound Path&gt;" class="cls-1" d="M182.9,47.36h5.41v1.38h-3.39v1h3.14v1.32h-3.14v1.28h3.48v1.47H182.9Z"/><path id="_Compound_Path_12" data-name="&lt;Compound Path&gt;" class="cls-1" d="M199.48,47.34h1.88l2.46,3.59V47.34h1.9v6.48h-1.9l-2.45-3.56v3.56h-1.9Z"/></g><polygon class="cls-1" points="89.29 17.06 101.95 25.17 100.35 27.67 98.5 26.48 97.95 27.33 99.78 28.5 98.54 30.44 99.49 30.97 106.67 19.76 105.83 19.22 104.8 20.83 103.13 19.76 102.54 20.68 104.19 21.73 102.62 24.17 88.99 15.38 90.63 12.91 92.66 14.26 93.27 13.34 91.27 12.01 92.38 10.26 91.51 9.71 84.03 20.96 84.89 21.45 85.99 19.79 88 21.12 88.67 20.11 86.71 18.81 88.3 16.42 89.29 17.06"/><polygon class="cls-1" points="120.22 16.43 119.19 18.04 117.52 16.97 116.93 17.89 118.58 18.95 117.02 21.39 103.38 12.6 105.03 10.13 107.05 11.47 107.66 10.55 105.66 9.22 106.77 7.47 105.9 6.93 98.42 18.18 99.28 18.67 100.39 17 102.39 18.33 103.06 17.33 101.1 16.03 102.69 13.63 103.68 14.28 116.34 22.38 114.74 24.88 112.89 23.7 112.35 24.55 114.17 25.72 112.93 27.65 113.88 28.18 121.06 16.97 120.22 16.43"/><polygon class="cls-1" points="90.83 15.46 102.05 22.64 102.58 21.8 100.98 20.77 102.05 19.1 101.13 18.51 100.07 20.16 97.63 18.59 106.42 4.96 108.89 6.6 107.55 8.63 108.47 9.24 109.79 7.24 111.54 8.35 112.09 7.48 100.84 0 100.35 0.86 102.02 1.96 100.68 3.97 101.69 4.64 102.99 2.68 105.38 4.27 104.74 5.26 96.64 17.92 94.14 16.32 95.32 14.47 94.47 13.92 93.3 15.75 91.36 14.51 90.83 15.46"/><polygon class="cls-1" points="114.44 23.11 114.99 22.24 103.74 14.76 103.25 15.62 104.91 16.72 103.58 18.73 104.58 19.4 105.88 17.44 108.28 19.03 107.64 20.02 99.53 32.68 97.03 31.08 98.22 29.23 97.37 28.68 96.2 30.51 94.26 29.27 93.73 30.22 104.94 37.4 105.48 36.56 103.87 35.53 104.94 33.86 104.02 33.27 102.97 34.91 100.53 33.35 109.31 19.72 111.78 21.36 110.44 23.39 111.36 24 112.69 22 114.44 23.11"/></g></g></svg>