<svg xmlns="http://www.w3.org/2000/svg" viewBox="0 0 53.53 54.05"><defs><style>.cls-1{fill:#03283f;}</style></defs><title>logo_mark</title><g id="Layer_2" data-name="Layer 2"><g id="Layer_1-2" data-name="Layer 1"><polygon class="cls-1" points="7.6 24.66 25.9 36.37 23.59 39.99 20.91 38.27 20.13 39.5 22.77 41.2 20.97 43.99 22.35 44.76 32.72 28.55 31.51 27.78 30.02 30.1 27.61 28.56 26.76 29.89 29.13 31.41 26.87 34.94 7.17 22.24 9.54 18.66 12.47 20.61 13.36 19.28 10.47 17.36 12.06 14.83 10.81 14.04 0 30.29 1.24 31 2.84 28.6 5.74 30.52 6.71 29.07 3.88 27.19 6.18 23.73 7.6 24.66"/><polygon class="cls-1" points="52.31 23.75 50.83 26.08 48.41 24.53 47.56 25.86 49.94 27.38 47.68 30.91 27.97 18.21 30.35 14.64 33.27 16.58 34.16 15.25 31.27 13.33 32.87 10.8 31.61 10.01 20.8 26.27 22.04 26.98 23.64 24.57 26.55 26.5 27.51 25.05 24.68 23.17 26.98 19.71 28.41 20.64 46.71 32.35 44.39 35.96 41.72 34.25 40.93 35.48 43.57 37.17 41.78 39.97 43.15 40.74 53.53 24.53 52.31 23.75"/><polygon class="cls-1" points="9.84 22.35 26.04 32.72 26.82 31.51 24.5 30.02 26.04 27.61 24.71 26.76 23.19 29.13 19.66 26.87 32.36 7.17 35.93 9.54 33.99 12.47 35.32 13.36 37.24 10.47 39.77 12.06 40.56 10.81 24.3 0 23.59 1.24 26 2.84 24.07 5.74 25.52 6.71 27.4 3.88 30.86 6.18 29.94 7.6 18.22 25.9 14.61 23.59 16.32 20.91 15.09 20.13 13.4 22.77 10.6 20.97 9.84 22.35"/><polygon class="cls-1" points="43.95 33.4 44.74 32.14 28.49 21.33 27.78 22.57 30.18 24.17 28.26 27.07 29.71 28.04 31.59 25.21 35.05 27.51 34.12 28.94 22.41 47.23 18.79 44.92 20.51 42.24 19.28 41.46 17.59 44.1 14.79 42.31 14.02 43.68 30.23 54.05 31 52.84 28.68 51.35 30.23 48.94 28.89 48.09 27.37 50.47 23.84 48.2 36.55 28.5 40.12 30.88 38.17 33.8 39.51 34.69 41.42 31.8 43.95 33.4"/></g></g></svg>