<svg width="335" height="80" viewBox="0 0 335 80" fill="none" xmlns="http://www.w3.org/2000/svg">
<path fill-rule="evenodd" clip-rule="evenodd" d="M33.8546 47.0858H31.2648L30.9516 47.2111H30.7009L30.3355 47.3468L30.2519 47.5348L30.6801 48.1718L30.8576 48.8401L31.1186 49.8008L30.8471 50.1976V50.396L31.056 51.0017L31.2753 51.6074L31.5363 51.9624V52.5263L31.4319 53.2677L31.15 53.7063L30.6383 54.3642L30.4294 54.7714L30.1266 55.6695L30.0744 56.0976L29.7611 57.0061L29.6254 57.8938L29.6985 58.5203L30.1266 58.3219L30.6383 58.1548H31.2022L31.7139 58.6038L31.8496 58.5307H35.3687L35.964 59.0111L38.0525 59.1573L39.6606 58.7396L39.1176 58.1235L38.5537 57.309L38.6686 54.1762H40.496L40.4229 53.8421L40.5587 53.4661L40.4229 52.9962L40.5273 52.5159L40.4438 52.2026L40.047 52.1399L39.4935 52.2861H39.1176L38.8983 52.3801L38.9714 51.1166L38.6895 50.7511L38.6372 50.0723L38.773 49.4666L38.6372 49.1325V48.5059H37.593L37.6765 48.1509H37.2275V48.318H36.6845L36.4652 48.9028L36.319 49.1429L35.7133 49.0281L35.4314 49.1638L34.8466 49.2474L34.5125 48.7252L34.314 48.4015L34.0634 47.8063L33.8546 47.0544V47.0858ZM30.4399 46.9396V46.501L30.5861 46.2504L30.9098 46.0415L30.5756 45.6969L30.3041 45.864L29.9491 46.2921L30.1893 47.044L30.4086 46.9396H30.4399Z" fill="#00F400" stroke="#474746" stroke-width="0.25" stroke-miterlimit="10"/>
<path fill-rule="evenodd" clip-rule="evenodd" d="M46.3751 44.0261V43.6397L45.9052 43.5771L45.6337 44.141L45.1011 44.0679L45.31 44.5169V44.6944L45.6233 45.6447H45.7068L46.0305 45.2896L46.3856 44.7675L46.6049 44.5587V44.2349L46.4169 44.0052L46.3751 44.0261Z" fill="#00F400" stroke="#474746" stroke-width="0.25" stroke-miterlimit="10"/>
<path fill-rule="evenodd" clip-rule="evenodd" d="M22.6602 29.605L21.9919 29.0307H21.6786L21.3863 29.3126L21.1983 29.6155L20.7701 29.699L20.5926 30.148L20.2898 30.2629L20.1749 30.7746L20.4464 31.0774L20.7493 31.422V31.9128L20.9268 32.1217L20.885 34.4086L21.1043 35.0978L21.8248 34.9829L21.9293 33.3643V32.7273L22.0963 32.1008L22.3678 31.7875L22.796 31.1818L22.702 30.9103L22.8691 30.5031L22.6707 29.9183V29.5841L22.6602 29.605Z" fill="#00F400" stroke="#474746" stroke-width="0.25" stroke-miterlimit="10"/>
<path fill-rule="evenodd" clip-rule="evenodd" d="M19.8408 26.347H19.2769L19.068 26.159L18.5772 26.2947L17.7627 26.7124L17.5956 27.0257L16.9273 27.4748L16.802 27.7358L16.4365 27.9342L16.0188 27.7985L15.7682 28.0386L15.6429 28.7279L14.9432 29.5528V29.887L14.6926 30.3151L14.7553 30.8895L15.1521 31.1087L15.2983 31.4325L15.6951 31.6413L15.9979 31.4011H16.4156L17.0109 31.6622L16.896 30.9103V30.336H18.4206L18.807 30.4091L19.0889 30.2525L19.4857 30.336H20.2585L20.5613 30.2211L20.7388 29.7721L21.167 29.6886L21.3549 29.3857V28.707L20.3107 28.4772V27.9969L19.8408 27.2868L19.7259 26.8273L19.799 26.347H19.8408Z" fill="#00F400" stroke="#474746" stroke-width="0.25" stroke-miterlimit="10"/>
<path fill-rule="evenodd" clip-rule="evenodd" d="M41.4463 58.9171L41.2896 58.844L40.7884 59.0737H40.5273L39.9634 59.4601L39.6397 59.0424L38.2926 59.3974H37.6452L37.5094 62.9479H36.6636L36.5487 65.9344L36.7785 66.0702L37.2484 67.0205L37.144 67.6261L37.3215 67.9812L37.9271 67.8872L38.3762 67.4382L38.7939 67.1353L39.0236 66.655L39.4622 66.4252L39.8172 66.5505L40.2141 66.8325H40.9033L41.4672 66.6028L41.5611 66.2895L41.7387 65.8196L42.2086 65.736L42.4905 65.3601L42.8142 64.6918L43.6183 63.9504L44.8714 63.2194L44.3388 62.7704L43.681 62.6137L43.4512 61.9872V61.6321L43.1066 61.559L42.1668 60.5148L41.9162 59.9405L41.77 59.7212L41.4672 58.9171H41.4463Z" fill="#00F400" stroke="#474746" stroke-width="0.25" stroke-miterlimit="10"/>
<path fill-rule="evenodd" clip-rule="evenodd" d="M40.4647 32.6438H40.3916L40.0888 32.3201L40.0261 32.0172L40.1619 31.5995V31.1714L39.6815 30.5553L39.5666 30.1271L39.0132 30.2942L38.5851 30.691L37.9585 31.7353L37.144 32.1948L36.2981 32.1321L36.058 32.2156L36.1415 32.5707L35.682 32.9153L35.3165 33.3121L34.2201 33.688L34.0008 33.4687H33.8442L33.6875 33.7298L32.967 33.8029L32.5284 34.8471L32.3196 35.0351L32.2569 35.8079L32.3509 36.2256L32.2882 36.5179L32.7059 37.0505L32.7686 37.3951L33.1027 37.9172L33.51 38.241V38.69L33.604 38.9824L34.053 38.053L34.5856 37.5204L35.1704 37.698H35.7447L35.8178 36.9983L36.1519 36.4866L36.6219 36.1733L37.3528 36.5075L37.9167 36.8834L38.5642 36.9774L39.222 37.1758L39.4831 36.5702L39.598 36.4866L39.9948 36.591L40.9659 36.0898L41.321 36.3091H41.6029L41.77 36.0794L42.0937 35.9958L42.7516 36.0898H43.3259L43.6079 35.9854L43.4617 35.6617L42.8143 35.2962L42.5845 34.701L42.2086 34.2728L41.6134 33.7507V33.427L41.1226 33.0302L40.4647 32.6438Z" fill="#00F400" stroke="#474746" stroke-width="0.25" stroke-miterlimit="10"/>
<path fill-rule="evenodd" clip-rule="evenodd" d="M14.7657 30.8894L14.4002 31.0356L14.1913 31.1609L14.066 30.7328L13.8154 30.8581H13.6588L13.4917 31.1505H12.8234L12.5832 31.0043L12.4683 31.0983L12.2803 31.1714L12.2177 31.516L12.4161 31.9232L12.6354 32.7273L12.3012 32.8422L12.2177 32.9779L12.2803 33.1763V33.6149H12.1446V33.8969L12.2281 34.3877L12.0297 34.8263L12.2908 35.0978L12.5623 35.1604L12.9382 35.5781V35.9749L12.8651 36.1002L12.792 36.9148H12.9591L13.8258 36.5493L14.4419 36.2569L15.4862 36.0898H16.0501L16.6662 36.2882H17.063V35.8914L16.708 34.9933L16.9377 33.876L17.3032 33.0406L17.0735 31.6204L16.4782 31.3593H16.0605L15.7577 31.5995L15.3609 31.3907L15.2147 31.0669L14.8179 30.8477L14.7657 30.8894Z" fill="#00F400" stroke="#474746" stroke-width="0.25" stroke-miterlimit="10"/>
<path fill-rule="evenodd" clip-rule="evenodd" d="M32.5702 30.3673V29.7094L32.4971 29.0515L32.142 28.4146H31.9018V28.7278L32.2569 29.1246L32.1629 29.3126V29.6363L31.4215 30.4091L31.2022 31.0461L31.0873 31.5682L30.8994 31.7875L30.7218 32.4871L30.2833 32.9466L30.1475 33.4583L29.9491 33.8551L29.876 34.2728L29.2703 34.607L28.7795 34.1997H28.4454L27.9233 34.7845H27.6622L27.2549 35.7452L27.0356 36.4553V36.7268L27.2549 36.873L27.4429 37.322L27.8397 37.4891L28.1843 38.147L28.059 38.9302H29.4896L29.9073 38.8675L30.4503 39.0033L30.9725 38.8779H31.0769H32.1942L32.9043 39.139L33.604 39.3687L33.6666 38.8362L33.5727 38.5438V38.0948L33.1654 37.771L32.8312 37.2489L32.7686 36.9043L32.3509 36.3717L32.4135 36.0793L32.3196 35.6617L32.3822 34.8889L32.5911 34.7009L33.0296 33.6567L33.1654 33.3852L32.8834 32.696L32.7477 32.2783L32.2673 32.32L31.7452 31.7353L31.9227 31.2654L32.33 31.3593L32.5702 31.2967H33.061L32.5702 30.3882V30.3673Z" fill="#00F400" stroke="#474746" stroke-width="0.25" stroke-miterlimit="10"/>
<path fill-rule="evenodd" clip-rule="evenodd" d="M42.7203 36.0898L42.0624 35.9958L41.77 36.0794L41.6343 36.3196H41.3523L40.9973 36.1003L40.0261 36.6015L39.6293 36.4971L39.5144 36.5806L39.2534 37.1863L38.5955 36.9879L37.9481 36.8939L37.3842 36.518L36.6532 36.1838L36.1833 36.4971L35.8491 37.0088L35.776 37.7084V38.3141L35.515 38.8466L35.3479 39.4628L35.233 40.3504L35.2852 40.9143L35.139 41.2589V41.6244L35.045 41.9376L34.4603 42.4284L34.053 42.9401L33.6771 43.9008V44.7258L33.4473 45.039L32.9357 45.5298L32.4135 46.1564L32.0898 45.9789L32.0272 45.6969H31.5573L31.2544 46.0833L31.0247 45.9789L30.701 46.1877L30.5548 46.4383V46.8769L30.3355 46.9814L30.4503 47.2946L30.8158 47.1589H31.0665L31.3797 47.0336H33.9695L34.1783 47.7854L34.4289 48.3806L34.6273 48.7044L34.9615 49.2265L35.5463 49.1429L35.7134 49.0281L36.1937 49.1638L36.3399 48.9237L36.5592 48.3389H37.1022V48.1718H37.593L37.5095 48.5268H38.5537V49.1534L38.7312 49.5293L38.6373 50.0723V50.6884L38.9192 51.0539L38.8566 52.2444L39.0759 52.1504H39.4518L40.0052 52.0042L40.402 52.0668L40.7258 52.1608V52.4741H41.133L41.6865 52.5681L41.9684 53.0067L42.6681 53.1529L43.2111 52.8396L43.399 53.3617L44.0569 53.4975L44.3702 53.9256L44.7148 54.4686H45.3831V53.4244L45.1429 53.6123L44.5686 53.2051L44.3389 53.038L44.4746 51.9937L44.6521 50.8137L44.4642 50.3647L44.7252 49.7382L44.9654 49.6129L46.1454 49.4458H46.2916L46.3438 49.2787L46.0932 49.0281L45.947 48.506L45.4562 47.9838L45.1638 47.2737L45.3309 46.856L45.1012 46.2921L45.2683 44.6944V44.5378L45.0594 44.0888L45.1429 43.5353L45.2683 43.4622V42.867L45.5189 42.5955V41.8332L45.7277 41.4573V40.6532L45.9157 40.1937L46.2499 39.6716L46.584 39.4105L46.866 39.0555L46.5109 38.9197L46.5631 37.7606L45.7695 37.0923L45.5606 36.6642L45.0698 36.873L44.6626 36.8104L44.4329 36.9774L44.036 36.8521L43.493 36.0376L43.2111 36.142H42.6367L42.7203 36.0898Z" fill="#00F400" stroke="#474746" stroke-width="0.25" stroke-miterlimit="10"/>
<path fill-rule="evenodd" clip-rule="evenodd" d="M35.7447 37.7397H35.1703L34.5856 37.5413L34.053 38.0739L33.604 39.0033L33.5413 39.5358L32.8417 39.3061L32.1316 39.045H31.0142L30.9516 39.4836L31.1917 39.9953L31.8496 39.9118L32.0794 40.1102L31.693 41.2693L32.1107 41.8541L32.2047 42.6373L32.0898 43.3056L31.8287 43.765H31.0456L30.5756 43.2951L30.5025 43.7337L29.9073 43.859L29.6045 44.1097L29.9386 44.7571L29.2703 45.321L29.9804 46.3652L30.3355 45.9371L30.607 45.77L30.9411 46.1146L31.1709 46.219L31.4737 45.8327H31.9436L32.0063 46.1146L32.33 46.2921L32.8521 45.6656L33.3638 45.1748L33.5935 44.8615V44.0366L33.9695 43.0758L34.3767 42.5642L34.9615 42.0734L35.0555 41.7601V41.3946L35.2017 41.05L35.1495 40.4861L35.2643 39.5985L35.4314 38.9824L35.6925 38.4498V37.8442L35.7447 37.7397Z" fill="#00F400" stroke="#474746" stroke-width="0.25" stroke-miterlimit="10"/>
<path fill-rule="evenodd" clip-rule="evenodd" d="M57.2771 29.8034L56.9012 29.5319L57.4337 29.2917V28.874L57.2249 28.5712L56.9638 28.8114L56.5879 28.7278L56.2955 29.1664L56.0135 29.6363L56.0971 29.9078V30.2107H56.5879L56.7967 30.148L56.9952 30.3255L57.298 29.793L57.2771 29.8034Z" fill="#00F400" stroke="#474746" stroke-width="0.25" stroke-miterlimit="10"/>
<path fill-rule="evenodd" clip-rule="evenodd" d="M26.4404 4.35507L25.8765 4.41772L25.5319 4.18799H24.6547L23.8924 4.5848L23.4747 4.42817L22.1068 4.51171L20.7075 4.69967L19.9138 5.0025L19.4022 5.4202L18.5041 5.59773L17.7522 6.21383L18.0551 6.86127L18.1073 7.46693L18.3892 8.51118L18.619 8.72003L18.4519 9.10641L17.4076 9.27349L17.0108 9.63897L16.5305 9.72251V10.4639L15.5384 10.8503L15.2043 11.3515L14.5151 11.623L13.6588 11.7692L12.1446 12.4793V13.6489V13.722V13.9204L15.3296 16.3326L18.2117 18.5047L21.1147 20.6871L21.334 21.1466L21.8666 21.4286L22.2634 21.5956V22.2222L23.2137 22.1282L24.4354 21.6896L26.8999 19.7891L29.8238 17.8781L29.427 17.2516L28.7378 16.7921L28.3409 16.9696L28.0381 16.4162L27.9859 15.9985L27.4742 15.2675L27.7979 14.8498L27.7039 14.2232L27.8084 13.6698L27.7353 13.2208L27.871 12.4062L27.8084 11.9468L27.516 11.0592L27.1505 9.23172L26.6284 8.82446V8.59472L25.9287 7.98906L25.7721 7.25808L26.2733 6.69419L26.4508 5.85879L26.2838 4.88764L26.4404 4.36551V4.35507Z" fill="#00F400" stroke="#474746" stroke-width="0.25" stroke-miterlimit="10"/>
<path fill-rule="evenodd" clip-rule="evenodd" d="M43.4826 10.2968L42.6158 10.0149L41.77 9.74335H40.6631L40.402 10.2237L40.5587 10.6519L40.3811 11.2575L40.684 12.072L40.8928 15.612L41.0599 19.2774H51.2831L51.1682 19.0894L50.124 18.2018L50.0613 17.5439L50.218 17.3768L49.3826 16.2699L49.0693 15.706L48.7143 15.163L47.9624 13.6071L47.3567 12.5628L46.9181 11.5186L46.9912 11.4246L47.7222 12.8552L48.1399 13.2938L48.4532 13.6175L48.6307 13.44L48.8187 12.9179L48.9335 12.1765L49.1424 11.7692L49.0275 11.5186L48.4219 10.0671L48.0355 10.3177L47.3672 10.255L46.678 10.0253L46.5109 10.349L46.2394 9.85822L45.6233 9.73291L44.8923 9.81645L44.5686 10.0984L43.942 10.4117L43.5452 10.255L43.4826 10.2968Z" fill="#00F400" stroke="#474746" stroke-width="0.25" stroke-miterlimit="10"/>
<path fill-rule="evenodd" clip-rule="evenodd" d="M54.207 25.8457L53.6954 25.3549L53.4134 24.436L52.8495 23.2873L52.4318 23.8512L51.8053 24.0183L51.5442 24.3211V24.9894L51.2309 26.4514L51.3458 26.8482L52.39 27.057L52.6302 26.3156L53.1837 26.7646L53.6849 26.5349L53.9042 26.7438H54.4994L55.2722 27.1406L55.5228 27.4956L55.9196 27.8089L56.306 28.3937L56.6193 28.7174L56.9952 28.8009L57.2563 28.5607L56.8072 28.2579L56.5148 27.9133L56.024 27.339L55.5124 26.7751L54.2801 25.8353L54.207 25.8457Z" fill="#00F400" stroke="#474746" stroke-width="0.25" stroke-miterlimit="10"/>
<path fill-rule="evenodd" clip-rule="evenodd" d="M52.5571 26.3156L52.3169 27.0988L51.2727 26.8899L51.1683 27.7567L50.8445 28.7278L50.3329 29.2186L49.9883 29.9914L49.9047 30.3986L49.5079 30.6701L49.2677 31.7144V31.8397V32.6124L49.1424 32.9153H48.683L48.3906 33.4792L48.9336 33.5523L49.3826 34.0326L49.5497 34.4399L49.9569 34.6696L50.4895 35.7139L50.949 35.8914V36.497L51.2518 36.8312H51.8575L52.9957 37.6771H53.2672H53.4761L53.6745 37.7919L54.2592 37.8755L54.5099 37.4578L55.3139 37.0401L55.669 37.3742H56.3895L56.6297 37.0609H57.1831L57.9559 36.3509H59.1046L61.5168 33.3539H60.7754L57.8723 32.1739L57.4338 31.7144L57.1414 31.2758L56.7968 30.7223L56.9743 30.3673L56.7759 30.1898L56.567 30.2524H56.0762V29.9496L55.9927 29.6781L56.2746 29.2082L56.567 28.7696L56.2538 28.4459L55.8674 27.8611L55.4706 27.5478L55.22 27.1928L54.4472 26.796H53.852L53.6327 26.5871L53.1315 26.8169L52.578 26.3678L52.5571 26.3156Z" fill="#00F400" stroke="#474746" stroke-width="0.25" stroke-miterlimit="10"/>
<path fill-rule="evenodd" clip-rule="evenodd" d="M31.0142 38.972H30.9098L30.3877 39.0973L29.8447 38.9615L29.427 39.0242V40.2355H28.153L27.8502 40.2982L27.6726 41.0396L27.4638 41.7705L27.2654 42.0838V42.418L27.7875 43.4622L28.3723 44.2872L29.2808 45.3314L29.9491 44.7675L29.6149 44.1201L29.9178 43.8695L30.513 43.7442L30.5861 43.3056L31.056 43.7755H31.8392L32.1003 43.316L32.2151 42.6477L32.1211 41.8645L31.7034 41.2797L32.0898 40.1206L31.8601 39.9222L31.2022 40.0058L30.962 39.4941L31.0247 39.0555L31.0142 38.972Z" fill="#00F400" stroke="#474746" stroke-width="0.25" stroke-miterlimit="10"/>
<path fill-rule="evenodd" clip-rule="evenodd" d="M19.517 30.2316L19.1202 30.148L18.8383 30.3047L18.4519 30.2316H16.9273V30.8059L17.0422 31.5578L17.2719 32.978L16.9064 33.8134L16.708 34.9934L17.0839 35.8496V36.2465L17.7523 36.4971L18.5459 36.2151L19.0367 35.8705L20.4151 35.2857L20.2167 34.9411L19.987 34.3042L19.9139 33.8134L20.1018 32.9153L19.893 32.5498L19.8408 31.798V31.067L19.4753 30.5553L19.5379 30.2525L19.517 30.2316Z" fill="#00F400" stroke="#474746" stroke-width="0.25" stroke-miterlimit="10"/>
<path fill-rule="evenodd" clip-rule="evenodd" d="M9.39825 28.8323H9.27294L8.79259 28.7592L8.72993 28.874H8.53153L7.90498 28.6234H7.5186V28.9576L7.42462 29.062L7.48728 29.3962L7.30975 29.5841H7.14267L6.91294 29.7512H6.64143L6.2655 30.2316L6.52657 30.3986L6.65188 30.6179L6.74586 31.0565L6.95471 31.2549L7.18444 31.3802L7.5186 31.7666L7.90498 32.3618L8.354 31.9128L8.45843 31.6413L8.60462 31.422H8.8448L9.05365 31.234H9.7533L9.99348 31.5995L10.1814 32.0172V32.2992L10.3172 32.5602V32.9257H10.5469H10.7349L10.9646 32.8109L11.3406 33.4165L11.2675 33.8238L11.445 34.0326H11.6852L11.8731 33.6254H12.1237H12.2595V33.1868L12.1968 32.9884L12.2804 32.8526L12.6145 32.7378L12.3953 31.9337L12.1968 31.5264L12.2595 31.1818L12.4475 31.1087L12.176 30.8163L12.2282 30.524L12.1133 30.4091L11.9253 30.5031V30.1794L12.1029 29.9287L11.7478 29.511L11.6434 29.2291L11.4868 28.9576H11.3092L11.1004 29.0933L10.808 29.2186L10.5783 29.4379L10.2023 29.3648L9.96215 29.1038H9.81595L9.61755 29.1873H9.47135V28.8323H9.39825Z" fill="#00F400" stroke="#474746" stroke-width="0.25" stroke-miterlimit="10"/>
<path fill-rule="evenodd" clip-rule="evenodd" d="M4.78265 28.143H5.57628L5.79558 28.0073H5.95221L6.26549 27.7567L6.64142 27.9655H7.01735L7.39328 27.7358L7.2262 27.4538L6.93381 27.6105H6.67275L6.32814 27.3599H6.05664L5.85823 27.5896H4.90796L4.78265 28.143Z" fill="#00F400" stroke="#474746" stroke-width="0.25" stroke-miterlimit="10"/>
<path fill-rule="evenodd" clip-rule="evenodd" d="M7.51858 28.6861H5.91044L5.67026 28.8009H5.37787L4.90796 28.968V29.1769L5.17946 29.3962V29.5423L5.37787 29.8243L5.74336 29.887L6.26548 30.2316L6.6623 29.7512H6.9338L7.16354 29.5841H7.30973L7.44549 29.4588L7.38283 29.1246L7.47681 29.0202V28.6861H7.51858Z" fill="#00F400" stroke="#474746" stroke-width="0.25" stroke-miterlimit="10"/>
<path fill-rule="evenodd" clip-rule="evenodd" d="M29.427 38.9719H27.9963L27.7039 40.0893L27.8606 40.2459L28.1634 40.1833H29.4374V38.9719H29.427Z" fill="#00F400" stroke="#474746" stroke-width="0.25" stroke-miterlimit="10"/>
<path fill-rule="evenodd" clip-rule="evenodd" d="M56.3895 37.322H55.7838L55.3452 36.9879L54.5412 37.4056L54.2906 37.8233L53.7058 37.7397L53.5074 37.6249H53.2985H53.027L51.8888 36.779H51.2831L51.0116 36.4971V35.9436L50.5521 35.7661L49.9674 36.424L49.4348 37.0296L49.8629 37.7188L49.9674 38.2201L50.3642 39.3583L50.0509 40.0893L49.6228 40.7472L49.3721 41.1544L49.581 41.5303L49.5183 42.2718L52.7033 44.2976V44.8824L53.9564 45.9266L54.3114 45.5925L54.4994 44.9346L54.7813 44.5378L54.9171 43.8277L55.2513 43.7546L55.4706 43.3369L56.0971 42.9401L55.575 42.1151V38.4916L56.3895 37.322Z" fill="#00F400" stroke="#474746" stroke-width="0.25" stroke-miterlimit="10"/>
<path fill-rule="evenodd" clip-rule="evenodd" d="M12.0924 33.5732H11.8418L11.6538 33.9804H11.4136L11.2361 33.7716L11.3092 33.3643L10.9333 32.7587L10.7035 32.8735H10.5156L10.1083 33.3643L9.7115 33.8969L9.65929 34.1893L9.45044 34.5026L10.0352 35.15L10.7871 35.693L11.5807 36.4553L12.4892 36.9252H12.7189L12.792 36.1107L12.8651 35.9854V35.5886L12.4892 35.1709L12.2177 35.1082L11.9566 34.8367L12.155 34.3981L12.0715 33.9073V33.6254L12.0924 33.5732Z" fill="#00F400" stroke="#474746" stroke-width="0.25" stroke-miterlimit="10"/>
<path fill-rule="evenodd" clip-rule="evenodd" d="M40.6631 9.75381L40.4438 9.43009L39.5979 9.34655L39.316 9.17947H39.0027L38.6895 8.73044L37.593 8.50071L37.0187 8.62602L36.4548 9.09593L36.2146 9.57629L36.4548 10.3386L36.0788 10.7981L35.682 11.0591L34.7526 10.5579L33.5517 10.1506L32.779 9.95222L32.3404 9.0646L31.2126 8.62602L30.5025 8.45894L30.1579 8.54248L29.1659 8.19788V8.96018L28.7586 9.25257L28.5185 9.56584L27.9441 9.95222L28.059 10.3595L27.9859 10.7772L27.5891 11.0069L27.8815 11.8945L27.9441 12.354L27.8084 13.1685L27.8815 13.6175L27.777 14.171L27.871 14.7975L27.5473 15.2152L28.059 15.9462L28.1112 16.3639L28.414 16.9174L28.8108 16.7398L29.5001 17.1993L29.8969 17.8259L31.2648 18.2645L31.7556 18.8075L32.3613 18.4315L33.2176 17.8885L36.6323 19.7891L40.141 21.7V21.2823H41.1852L41.1121 19.2774L40.8928 15.6121L40.7257 12.0825L40.4229 11.268L40.6004 10.6623L40.4438 10.2342L40.7049 9.75381H40.6631Z" fill="#00F400" stroke="#474746" stroke-width="0.25" stroke-miterlimit="10"/>
<path fill-rule="evenodd" clip-rule="evenodd" d="M43.2215 71.6883L43.4095 71.375L43.8898 71.2079L44.0569 70.8842L44.3597 70.4039L44.0882 70.101L43.7332 69.7982L43.3259 70.007L42.8351 70.3934L42.3339 71.02L42.9187 71.7823L43.2215 71.6883Z" fill="#00F400" stroke="#474746" stroke-width="0.25" stroke-miterlimit="10"/>
<path fill-rule="evenodd" clip-rule="evenodd" d="M17.7522 6.21381H17.3972L16.5409 5.99452H15.6637L15.1729 5.56638H14.6195L14.3166 6.21381L13.7423 7.25806L13.1158 7.66532L12.2595 8.13523L11.706 8.80355L11.5807 9.32567L11.2361 10.182L11.4136 11.4351L10.6826 12.2705L10.2545 12.4793L9.5653 13.1581L8.77167 13.2729L8.35397 13.6593L7.79008 14.7036L7.2053 15.0795L6.88158 15.6852V16.2177L6.6414 16.8025L6.26547 16.9383L5.77467 17.5752L5.45096 18.2853V18.6195L5.15857 19.1416L4.81396 19.4131V19.8726L6.76671 19.7891L6.89202 19.4236L7.24707 18.9745L7.56034 17.6066L8.78211 16.5623L9.21026 15.3092L9.48176 15.2257L9.78459 14.4529L10.5051 14.3485L10.808 14.4843H11.1943L11.4763 14.2545H12.0088V13.7115H12.1342V12.542L13.5752 11.7379L14.4315 11.5917L15.1207 11.3202L15.4549 10.819L16.3947 10.3908V9.64939L16.875 9.56585L17.2719 9.20036L18.3161 9.03328L18.4832 8.64691L18.2535 8.43806L17.9715 7.39381L17.9193 6.78815L17.7522 6.21381Z" fill="#00F400" stroke="#474746" stroke-width="0.25" stroke-miterlimit="10"/>
<path fill-rule="evenodd" clip-rule="evenodd" d="M63.2293 54.7401L63.0518 54.0927L62.8325 53.6645L62.5506 53.2051L62.2477 53.6541V54.2493L61.736 54.949L61.3706 54.8237L61.4645 55.2518L61.1722 55.753L60.4203 56.3587L59.8982 56.933H59.5118L59.1776 57.121L58.6764 57.3194H58.2483L58.0916 57.946L57.747 58.5099V59.4288L57.8619 60.0554L58.0394 60.5253L57.9141 61.1623L57.4546 61.9141V62.2483L57.0474 62.4258L56.8385 63.1463V63.8564L57.0891 64.6501V65.5377L57.2771 66.0598L57.935 66.4253L58.3945 66.6759L59.1881 66.2582L59.8982 66.018L60.389 64.8589L60.8275 63.4805L61.4959 61.5904L62.0284 60.212L62.4461 59.0529L62.561 58.207L62.8221 57.9773L62.9265 57.5492L62.8012 56.8182L62.9891 56.5153L63.2398 57.1001L63.4173 56.8077L63.5426 56.3378L63.3337 55.8679L63.2293 54.7401Z" fill="#00F400" stroke="#474746" stroke-width="0.25" stroke-miterlimit="10"/>
<path fill-rule="evenodd" clip-rule="evenodd" d="M23.1928 22.1282L22.2425 22.2222V21.5956L21.8457 21.4285L21.3132 21.1466L21.0939 20.6871L18.17 18.5046L15.2878 16.3326H13.9721L14.3376 20.6349L14.724 24.9372L14.8701 25.073L14.6822 25.7622H11.1839L11.0482 25.9919L10.714 25.9188L10.2128 26.1172L9.60713 25.8457H9.33562L9.17899 26.4409L8.8866 26.6184V27.2346L9.05368 27.8089L9.39828 28.1431L9.47138 28.519V28.8427V29.1977H9.61757L9.84731 29.0724H9.9935L10.2337 29.3335L10.6096 29.4066L10.8393 29.1873L11.1317 29.062L11.3406 28.9262H11.5181L11.7061 29.1455L11.8105 29.4275L12.1655 29.8452L11.988 30.0958V30.4195L12.176 30.3255L12.2908 30.4404L12.2386 30.7328L12.5101 31.0252L12.625 30.9312L12.8652 31.0774H13.5335L13.7006 30.785H13.8572L14.1078 30.6597L14.2332 31.0878L14.442 30.9625L14.8075 30.8163L14.7448 30.242L14.9955 29.8139V29.4797L15.6951 28.6547L15.8204 27.9655L16.071 27.7254L16.4887 27.8611L16.8542 27.6627L16.9795 27.4016L17.6478 26.9526L17.8149 26.6393L18.6294 26.2216L19.1202 26.0859L19.3291 26.2738H19.8408H20.3942L20.7179 25.9188L21.9293 25.8666L22.702 25.7099L22.7751 25.0938L23.245 24.436V22.1282H23.1928Z" fill="#00F400" stroke="#474746" stroke-width="0.25" stroke-miterlimit="10"/>
<path fill-rule="evenodd" clip-rule="evenodd" d="M54.9693 51.9624L54.844 51.5134L54.1235 52.0981L53.1523 52.4845H52.6302L52.3065 52.7873H51.7008L51.4606 52.9231L50.4164 52.6412H50.0718L49.8421 53.5914L49.936 54.7297H49.9883L50.2911 55.0429L50.6252 55.7635V57.0479L50.2389 57.2672L49.936 57.9564L49.4348 57.3821V56.6824L49.6437 56.2125V55.8157L49.2991 55.5651L49.0693 55.6486L48.5785 55.1682L45.9052 55.9932V56.7033V57.0792H46.6258L47.0226 57.2881L47.2001 57.5387L47.6178 57.6118L48.0564 57.9251L48.0355 59.1573L47.8371 59.8465L47.764 60.5983L47.8893 60.8907L47.764 61.4755L47.6283 61.5695L47.3672 62.2796L46.4065 63.4178L46.7406 64.8171L46.9182 65.5376L46.7093 66.6445V66.9996L46.7929 67.4486V67.8872H47.4403L47.5447 67.3651L47.3359 67.292V66.8743L47.7327 66.4984L48.7769 65.9658L49.5079 65.6316L49.8838 65.2661L50.0405 64.8589L49.9047 64.6918L50.0822 64.2219L50.1553 63.2507H49.9987V62.9583L49.8629 62.3736L49.487 61.6217L49.6019 60.9012L49.9674 60.6714L50.6148 59.9718L50.949 59.7838L51.9932 58.7396L53.0375 58.2488L53.852 57.8728L54.4368 57.2567L54.8127 56.5675L55.1051 55.847L54.9798 55.3666V53.8003L54.9067 52.9231L54.9798 51.9311L54.9693 51.9624Z" fill="#00F400" stroke="#474746" stroke-width="0.25" stroke-miterlimit="10"/>
<path fill-rule="evenodd" clip-rule="evenodd" d="M15.2878 16.3326L12.1029 13.9204V15.4241L9.29382 15.3719V17.9199L8.4793 18.0138L8.26001 18.5255L8.35399 19.9666H4.96018L4.77222 20.2903L5.22124 20.7289L5.43009 21.1988L5.33611 21.6896L5.43009 22.1908L5.50319 23.1724L5.36744 24.1123L5.11682 24.6031L5.17947 25.1461L5.48231 24.8224L5.92089 24.9059L6.33859 24.6866H6.82939L7.24709 24.9685L7.81098 25.2401L8.33311 25.971L8.897 26.6602L9.18939 26.4827L9.34603 25.8875H9.61754L10.2232 26.159L10.7244 25.9606L11.0586 26.0337L11.1944 25.804H14.6926L14.8806 25.1147L14.7344 24.979L14.348 20.6767L13.9825 16.3744L15.2878 16.3326Z" fill="#00F400" stroke="#474746" stroke-width="0.25" stroke-miterlimit="10"/>
<path fill-rule="evenodd" clip-rule="evenodd" d="M49.6646 55.2936V54.9176L49.4661 54.6252V54.1867L49.226 53.4557L49.4975 52.9022V51.7013L49.2051 51.0539V50.9495L49.0798 50.6258L48.2235 50.4378L48.6203 50.8764L48.8291 51.7222L48.6725 51.9937L48.4741 52.8082L48.6203 53.6332L48.3279 53.9778L48.0355 54.9072L48.4845 55.1578L48.9753 55.6382L49.2051 55.5546L49.5497 55.8052V56.2021L49.3408 56.672V57.3716L49.8734 57.9877L50.1762 57.2985L50.5626 57.0792V55.7948L50.2284 55.0743L49.9256 54.761H49.8734V54.8967H50.0405L50.1971 55.4293V55.5546L49.9047 55.1787L49.7481 55.4189L49.6123 55.21L49.6646 55.2936Z" fill="#00F400" stroke="#474746" stroke-width="0.25" stroke-miterlimit="10"/>
<path fill-rule="evenodd" clip-rule="evenodd" d="M39.6815 58.6978L38.0734 59.1155L35.9849 58.9693L35.3896 58.489H31.8705L31.7348 58.5621L31.2231 58.113H30.6592L30.1475 58.2801L29.7194 58.4785V59.2408L30.4086 60.212L30.5861 60.8385L31.0142 62.0394L31.4424 62.8539L31.7765 63.2716L31.8705 63.8146V65.0051L32.1211 66.5401L32.2987 67.2711L32.4657 68.2318L32.7686 68.9628L33.3742 69.7147L33.8024 69.2239L34.1261 69.4954L34.2514 69.9235L34.6273 69.9966L35.1495 70.1846L35.6089 70.1115L36.3921 69.5998L36.5488 65.9345L36.6532 63.021H37.499L37.6348 59.4706H38.2822L39.6815 59.0424L40.0052 59.4601L40.5691 59.0737H40.8302L41.3314 58.844V58.7605L40.9868 58.5307L40.4229 58.4785L39.7128 58.6978H39.6815Z" fill="#00F400" stroke="#474746" stroke-width="0.25" stroke-miterlimit="10"/>
<path fill-rule="evenodd" clip-rule="evenodd" d="M31.1917 18.2645L29.8238 17.8259L26.8999 19.7891L24.4146 21.7418L23.1928 22.1804V24.4882L22.7229 25.1461L22.6498 25.7622L21.877 25.9188L20.6866 26.0023L20.3629 26.3574H19.8094L19.7363 26.8377L19.8512 27.2972L20.3524 27.9447V28.425L21.3967 28.6547V29.3335L21.6891 29.0516H22.0024L22.6707 29.6259L22.7333 28.7383L22.9839 28.3415L23.0988 27.7567L23.3285 27.5478L24.2684 27.433L25.1455 27.7985L25.4797 28.1744H25.9183L26.336 27.9238L27.3802 28.4355H27.8293L28.3409 28.0177H28.8526L29.1032 27.882L29.5732 27.9447L30.2519 28.2266L30.9307 27.6731H31.1395L31.7452 28.7174H31.9018V28.4041H32.142L32.2256 27.9342H31.6617V27.2868L31.3275 26.9004L31.6825 25.5951L32.779 24.6553V23.3604L33.0714 21.3345L33.2489 20.896L32.8834 20.5618V20.2485L32.5493 19.9875L32.3091 18.4315L31.7034 18.8075L31.2126 18.2645H31.1917Z" fill="#00F400" stroke="#474746" stroke-width="0.25" stroke-miterlimit="10"/>
<path fill-rule="evenodd" clip-rule="evenodd" d="M31.9018 28.7801H31.7452L31.1395 27.7358H30.9307L30.2519 28.2893L29.5732 28.0073L29.1032 27.9447L28.8526 28.0804H28.3409L27.8293 28.4981H27.3802L26.336 27.9864L25.9183 28.2371H25.4797L25.1455 27.8611L24.2684 27.4956L23.3285 27.6105L23.0988 27.8194L22.9839 28.4041L22.7333 28.8009L22.6706 29.6886V30.0227L22.8691 30.6075L22.702 31.0148L22.796 31.2863L22.3678 31.8919L22.0963 32.2052L21.9292 32.8318V33.3643V34.9725H23.3703L23.9864 35.6303L24.2788 36.3509L24.7487 36.967H25.4588L25.793 36.7477H26.1271L27.0461 36.3926L27.2654 35.6826L27.6726 34.7218H27.9337L28.4558 34.1371H28.79L29.2808 34.5443L29.8864 34.2102L29.9595 33.7925L30.1579 33.3956L30.2832 32.9466L30.7427 32.5394L30.9202 31.8397L31.1082 31.6204L31.2231 31.0983L31.4424 30.4613L32.1838 29.6886V29.3648L32.2778 29.1769L31.9227 28.7801H31.9018Z" fill="#00F400" stroke="#474746" stroke-width="0.25" stroke-miterlimit="10"/>
<path fill-rule="evenodd" clip-rule="evenodd" d="M46.2916 42.3657L45.759 42.6686L45.5502 42.5746L45.2996 42.8461V43.4413L45.1743 43.5144L45.0907 44.0678L45.6233 44.1409L45.8948 43.5771L46.3647 43.6397L46.6153 43.504L46.678 42.9296L46.3229 42.3657H46.2916Z" fill="#00F400" stroke="#474746" stroke-width="0.25" stroke-miterlimit="10"/>
<path fill-rule="evenodd" clip-rule="evenodd" d="M12.1238 13.6489H11.9985V14.1919H11.4659L11.1839 14.4216H10.7976L10.4947 14.2859L9.77421 14.3903L9.47138 15.163L9.19987 15.2466L8.77173 16.4997L7.54996 17.5439L7.23668 18.9119L6.88164 19.3609L6.76677 19.7891L4.82446 19.8622V20.2799L5.01243 19.9561H8.35403L8.21828 18.5151L8.43757 18.0034L9.25208 17.9094V15.3614L12.0611 15.4137V13.9099V13.7115V13.6384L12.1238 13.6489Z" fill="#00F400" stroke="#474746" stroke-width="0.25" stroke-miterlimit="10"/>
<path fill-rule="evenodd" clip-rule="evenodd" d="M51.492 25.0103V24.342L51.753 24.0392L52.3796 23.8721L52.7973 23.3082L52.3482 22.9218L52.0036 22.6712L51.6173 21.4807L51.4397 20.4365L51.6173 20.2485L51.2831 19.2669H41.0599L41.133 21.2719H40.0887V21.6896L40.2663 25.6473L39.504 25.5742L39.128 26.3156L38.9087 26.9213L39.0967 27.1615L38.8252 27.4643L38.9401 27.882L38.7208 28.2997L38.6372 28.6547L38.9401 28.6025L39.128 28.9889V29.5632L39.4622 29.8556V30.1063L39.5771 30.5344L40.0887 31.1505V31.5578L39.953 31.9755L40.0156 32.2783L40.3185 32.5707H40.3916L40.7257 32.5289L41.039 32.3201L41.2479 31.4324L41.4776 30.973L42.1041 30.8372L42.2608 31.1087L42.7307 31.6831L42.9709 31.7666L43.2841 31.5995H43.9107L44.036 31.8084H44.9027V31.5995L45.3518 31.4116L45.4353 31.1296L45.7695 30.9208L46.5213 31.4951L46.9599 31.4011L47.3776 30.6806L47.8475 30.1271L47.7535 29.5319L47.5447 29.2395L48.0668 29.1873V28.968L48.4741 29.0307L48.3905 29.7721L48.5158 30.4926L48.9753 30.8894L49.0902 31.2236V31.7248H49.2155V31.5995L49.4557 30.5553L49.8525 30.2838L49.936 29.8765L50.2806 29.1038L50.7923 28.613L51.116 27.6418L51.2204 26.7751L51.1682 26.4514L51.4815 24.9894L51.492 25.0103Z" fill="#00F400" stroke="#474746" stroke-width="0.25" stroke-miterlimit="10"/>
<path fill-rule="evenodd" clip-rule="evenodd" d="M49.1737 31.2758L49.0798 30.9417L48.6203 30.5448L48.495 29.8243L48.5785 29.0829L48.1713 29.0202V29.2395L47.6491 29.2917L47.858 29.5841L47.952 30.1794L47.4821 30.7328L47.0644 31.4533L46.6258 31.5473L45.8739 30.973L45.5398 31.1818L45.4562 31.4638L45.0072 31.6517V31.8606H44.13L44.0047 31.6517H43.3782L43.0649 31.8188L42.8247 31.7353L42.3548 31.1609L42.1982 30.8894L41.5716 31.0252L41.3419 31.4847L41.133 32.3723L40.7258 32.5289L40.4543 32.6438L41.0599 33.0302L41.5507 33.427V33.7507L42.1459 34.2728L42.5219 34.701L42.7516 35.2962L43.4095 35.693L43.5557 36.0167L44.0987 36.8312L44.4955 36.9565L44.7252 36.7895L45.1325 36.8521L45.6233 36.6433L45.8321 37.0714L46.6258 37.7397L46.9808 37.4578L47.5447 37.6875L48.2548 37.4473H48.8709L49.4035 36.9879L49.936 36.3822L50.5208 35.7243L49.9883 34.6801L49.6019 34.4086L49.4348 34.0013L48.9858 33.521L48.4428 33.4479L48.7352 32.884H49.1946L49.3199 32.5811V31.8084H49.1946V31.2758H49.1737Z" fill="#00F400" stroke="#474746" stroke-width="0.25" stroke-miterlimit="10"/>
<path fill-rule="evenodd" clip-rule="evenodd" d="M8.88657 26.6602L8.354 25.971L7.83188 25.24L7.23665 25.0103L6.81895 24.7284H6.32816L5.91046 24.9477L5.47187 24.8641L5.22125 25.1461L5.0124 25.6577L4.56337 26.3574L4.177 26.5454L4.61559 26.9004L4.96019 27.6731H5.91046L6.10886 27.4434H6.38037L6.72497 27.694H6.99648L7.28887 27.5374L7.45595 27.8193L7.08002 28.0491H6.70409L6.2655 27.7567L5.94178 27.9969H5.79559L5.5763 28.1431H4.78267L4.90798 28.9054L5.37789 28.7383H5.67028L5.91046 28.6234H7.5186H7.9363L8.56285 28.874H8.76126L8.82391 28.7592L9.30427 28.8323H9.42958V28.5085L9.39825 28.1431L9.07453 27.8611L8.90745 27.2868V26.6707L8.88657 26.6602Z" fill="#00F400" stroke="#474746" stroke-width="0.25" stroke-miterlimit="10"/>
<path fill-rule="evenodd" clip-rule="evenodd" d="M10.5156 32.8526H10.2859V32.4871L10.1501 32.32V32.0381L9.96215 31.6204L9.72197 31.2549H9.05365L8.8448 31.4429H8.60463L8.45843 31.6622L8.35401 31.9337L7.88409 32.32L7.97808 33.0615L8.13471 33.427L8.58374 33.9595L9.21029 34.3563L9.45047 34.4294L9.65932 34.1162L9.71153 33.8238L10.1083 33.3643L10.5156 32.8944V32.8526Z" fill="#00F400" stroke="#474746" stroke-width="0.25" stroke-miterlimit="10"/>
<path fill-rule="evenodd" clip-rule="evenodd" d="M46.7406 66.9996L46.3125 66.7803L46.0619 66.8534L45.9679 67.1458L45.7068 67.5217V67.8663L46.1872 68.4093L46.6884 68.2945L46.8973 67.8559V67.4173L46.8137 66.9683L46.7406 66.9996Z" fill="#00F400" stroke="#474746" stroke-width="0.25" stroke-miterlimit="10"/>
<path fill-rule="evenodd" clip-rule="evenodd" d="M40.141 21.7105L36.6323 19.7891L33.1445 17.8781L32.2882 18.4211L32.5284 19.977L32.8626 20.2381V20.5514L33.228 20.8855L33.0505 21.3241L32.7581 23.35V24.6448L31.6617 25.5847L31.3275 26.9004L31.693 27.2763V27.9238H32.2569L32.1734 28.3937L32.5284 29.0307L32.6015 29.6886V30.3464L33.0923 31.2549H32.6015L32.3613 31.3176L31.9227 31.2758L31.7452 31.7457L32.2673 32.3305L32.6433 32.4871L32.779 32.9048L33.061 33.5941L32.9252 33.8656L33.6458 33.7925L33.8024 33.5314H33.959L34.1783 33.7507L35.2748 33.3643L35.6403 32.9675L36.0997 32.6229L36.0162 32.3201L36.2564 32.2365L37.1022 32.2992L37.9167 31.8397L38.5433 30.7955L38.9714 30.3986L39.5249 30.2316V29.9809L39.1907 29.6886V29.1142L39.0028 28.7278L38.6999 28.7801L38.7835 28.425L39.0028 28.0073L38.8879 27.5896L39.1594 27.2868L38.9714 27.0466L39.1907 26.4409L39.5666 25.6995L40.3289 25.7726L40.1514 21.8149L40.141 21.7105Z" fill="#00F400" stroke="#474746" stroke-width="0.25" stroke-miterlimit="10"/>
<path fill-rule="evenodd" clip-rule="evenodd" d="M20.2898 30.2316H19.517L19.4544 30.5344L19.8199 31.0461V31.7771L19.9138 32.5603L20.1227 32.9257L19.9347 33.8238L20.0078 34.3146L20.2376 34.9516L20.436 35.2962L21.1461 35.0873L20.885 34.4086V32.1217L20.7075 31.9128V31.422L20.4046 31.0774L20.1331 30.7746L20.2898 30.2316Z" fill="#00F400" stroke="#474746" stroke-width="0.25" stroke-miterlimit="10"/>
<path fill-rule="evenodd" clip-rule="evenodd" d="M29.1137 8.19789L28.79 8.04125L28.5602 7.57134H28.1217L27.9546 7.02833L28.4767 6.51664L28.5602 5.64992L28.2679 5.39929V4.92938L28.6647 4.42814L28.602 4.22973L27.9128 4.60566V4.12531L27.328 4L26.4509 4.40726L26.2942 4.92938L26.4613 5.90053L26.2838 6.73594L25.7721 7.25806L25.8661 7.99948L26.5657 8.60514V8.82444L27.0879 9.23169L27.5056 11.0069L27.9024 10.7772L27.9755 10.3595L27.8606 9.95223L28.4349 9.56585L28.6751 9.25258L29.0824 8.96019V8.19789H29.1137Z" fill="#00F400" stroke="#474746" stroke-width="0.25" stroke-miterlimit="10"/>
<path fill-rule="evenodd" clip-rule="evenodd" d="M46.6049 42.2404L46.2916 42.3658L46.6466 42.9297L46.584 43.504L46.3334 43.6397V44.0261L46.5213 44.2558V44.5796L46.302 44.7884L45.947 45.3105L45.6233 45.6656H45.5397V46.0937L45.7068 46.2295V46.6576L45.8739 47.0544L45.665 47.4408L46.3647 48.1196L46.4273 48.7252L46.845 49.7695L47.1896 49.9366L47.7431 50.1036L48.2339 50.4065L49.0902 50.5944L49.2573 50.8659V50.6675L49.7063 51.2001V52.2444L49.9882 52.6307H50.3328L51.3771 52.9127L51.6173 52.7769H52.2229L52.5466 52.4741H53.0688L54.0399 52.0877L54.7605 51.5029L54.4472 51.2941L54.1026 50.3125L53.8206 49.6859L53.8833 49.2056V48.9028L54.1339 48.2971V48.036L53.5805 47.681V47.1171L53.9877 45.8953L52.7346 44.8511V44.2663L49.5497 42.2404L49.0797 42.7626L48.7873 43.2116L49.1319 43.5562L48.6203 43.7964L48.5158 43.6815L48.0042 43.7442L47.6073 43.9739L47.3672 43.5875L47.5342 42.8879V42.2822H46.5631L46.6049 42.2404Z" fill="#00F400" stroke="#474746" stroke-width="0.25" stroke-miterlimit="10"/>
<path fill-rule="evenodd" clip-rule="evenodd" d="M49.4244 36.9983L48.8918 37.4578H48.2757L47.5656 37.6979L46.9912 37.4578L46.6362 37.7397L46.584 38.8988L46.939 39.0346L46.6571 39.3896L46.3229 39.6507L45.9888 40.1728L45.8008 40.6323V41.4364L45.5919 41.8123V42.5746L45.8008 42.6686L46.3334 42.3657L46.6466 42.2404H47.6178L47.5656 41.8645L47.9728 41.2797L48.5263 41.1335L48.9022 40.8933L49.3617 41.0918V41.1648L49.6123 40.7576L50.0405 40.0997L50.3537 39.3687L49.9569 38.2305L49.8525 37.7293L49.4244 37.0401V36.9983Z" fill="#00F400" stroke="#474746" stroke-width="0.25" stroke-miterlimit="10"/>
<path fill-rule="evenodd" clip-rule="evenodd" d="M35.8073 75.9488H36.1833L36.7263 75.5625L37.4468 75.4058L38.3344 75.009H38.6686L39.1907 74.8837L40.0783 75.0821L40.5065 74.8941L40.9973 75.0403L41.133 74.7584H41.5612L42.4697 74.372L43.138 73.923L43.7854 73.3278L44.8297 72.2835L45.3727 71.563L45.6546 71.0513L46.0514 70.5501L46.229 70.4039L46.8451 69.9026L47.0957 69.4536L47.2628 68.6286L47.5343 67.8977H46.8868L46.678 68.3363L46.1767 68.4511L45.6964 67.9081V67.5635L45.9574 67.1876L46.0514 66.8952L46.3021 66.8221L46.7302 67.0101V66.655L46.939 65.5481L46.7615 64.8276L46.4274 63.4283L45.947 63.3238L45.6546 63.4387L45.2474 63.2716H44.9028L43.6497 64.0026L42.8143 64.6918L42.501 65.3601L42.219 65.7361L41.7491 65.8196L41.5716 66.2895L41.4776 66.6028L40.9137 66.8325H40.2245L39.8277 66.5506L39.4727 66.4253L39.0341 66.655L38.8043 67.1354L38.3866 67.4382L37.9376 67.8872L37.3319 67.9812L37.1544 67.6262L37.2588 67.0205L36.7889 66.0702L36.5488 65.9345L36.3921 69.6102L35.6089 70.1219L35.1495 70.195L34.6273 70.007L34.2618 69.9131L34.1365 69.4849L33.8128 69.2134L33.3847 69.7042L33.9381 70.9991L34.3245 71.8345L34.8257 72.7639V73.5262L34.5438 73.7037L34.7735 74.372V74.9568L34.8675 75.2283V75.0926L35.2017 75.5416H35.5045L35.8387 75.9071L35.8073 75.9488ZM43.2215 71.6883L42.9187 71.7823L42.3339 71.02L42.8351 70.3934L43.3259 70.007L43.7332 69.7982L44.0882 70.101L44.3597 70.4039L44.0569 70.8842L43.8898 71.2079L43.4095 71.375L43.2215 71.6883Z" fill="#00F400" stroke="#474746" stroke-width="0.25" stroke-miterlimit="10"/>
<path fill-rule="evenodd" clip-rule="evenodd" d="M46.5422 49.7904L46.2498 49.7068V49.4875H46.1037L44.9237 49.6546L44.6835 49.7799L44.4224 50.4065L44.6104 50.8555L44.4329 52.0355L44.2971 53.0798L44.5268 53.2469L45.1325 53.6437L45.3727 53.4557V54.5H44.7044L44.3598 53.957L44.0465 53.5288L43.3886 53.3931L43.2006 52.8709L42.6576 53.1842L41.958 53.038L41.77 52.5368L41.2166 52.4428H40.8093V52.1295H40.5065L40.59 52.4428L40.4856 52.9231L40.6213 53.3931L40.4856 53.769L40.5587 54.1031H38.6373L38.5224 57.2359L39.0863 58.0504L39.6293 58.6665L40.3394 58.4472L40.9033 58.4994L41.2479 58.7292V58.8127L41.4045 58.8858L42.3652 58.9902L42.6472 59.1051H42.9396L43.4408 58.4577L44.224 57.6432L44.5477 57.5701L44.673 57.2255L45.1743 56.8286L45.8426 56.6824V55.9724L48.5159 55.1474L48.0355 54.9072L48.3279 53.9778L48.6203 53.6332L48.4741 52.8083L48.6725 51.9938L48.8291 51.7223L48.6203 50.8764L48.2235 50.4378L47.7327 50.135L47.1792 49.9679L46.8346 49.8008L46.9077 49.9679L46.7615 50.0306L46.5736 49.8217L46.5422 49.7904Z" fill="#00F400" stroke="#474746" stroke-width="0.25" stroke-miterlimit="10"/>
<path fill-rule="evenodd" clip-rule="evenodd" d="M46.3856 63.4178L47.3463 62.2796L47.6074 61.5695L47.7431 61.4755L47.8684 60.8908L47.7431 60.5984L47.8162 59.8465L48.0355 59.1573V57.8938L47.5969 57.5805L47.1792 57.5074L47.0017 57.2568L46.6049 57.0479H45.8844V56.672L45.216 56.8182L44.7148 57.215L44.5895 57.5596L44.2658 57.6327L43.4826 58.4472L42.9813 59.0947H42.689L42.407 58.9798L41.4463 58.8754L41.7491 59.6794L41.9162 59.8465L42.1668 60.4209L43.1066 61.4651L43.4721 61.58V61.935L43.7019 62.5616L44.3598 62.7182L44.8923 63.1672H45.2474L45.6546 63.3343L45.947 63.2194L46.4065 63.3134L46.3856 63.4178Z" fill="#00F400" stroke="#474746" stroke-width="0.25" stroke-miterlimit="10"/>
<path fill-rule="evenodd" clip-rule="evenodd" d="M58.1647 30.8164L57.7574 30.3987L57.5799 29.9914L57.2771 29.8034L56.9743 30.336L56.7967 30.691L57.1413 31.2445L57.4755 31.7144L57.8201 32.0799L60.7231 33.2599H61.4645L59.0523 36.2569H57.9036L57.1309 36.967H56.5774L56.3373 37.2803L55.575 38.4185V42.042L56.0971 42.867L56.285 42.6268L56.4939 42.1047L57.465 40.9038L58.29 40.1415L59.5953 39.0973L60.4621 38.2932L61.5063 36.9252L62.2373 35.8079L62.9578 34.4086L63.4591 33.1346L63.8559 32.0172L64.0647 30.973L64.2318 30.6075V30.0854L64.2945 29.511V29.2291H63.9603L63.5635 29.5633L63.104 29.6677L62.7072 29.8139H62.4252H61.924L61.6212 30.0018L61.193 30.0645L60.4307 30.3778L59.4805 30.4926L58.6659 30.7433L58.1647 30.8164Z" fill="#00F400" stroke="#474746" stroke-width="0.25" stroke-miterlimit="10"/>
<path d="M102.33 33.6618H97.4151L96.4165 36.5951H94.2945L98.9052 24.0425H100.887L105.451 36.5951H103.321L102.33 33.6618ZM98.0158 31.9142H101.729L99.9116 26.5546H99.8648L98.0158 31.9142Z" fill="#353535"/>
<path d="M107.315 36.5951V28.7936H105.895V27.2333H107.315V26.1801C107.294 25.7536 107.357 25.3271 107.501 24.9253C107.646 24.5235 107.869 24.1545 108.158 23.8397C108.473 23.5518 108.842 23.3297 109.244 23.1863C109.646 23.043 110.072 22.9813 110.498 23.0049C110.702 23.005 110.905 23.0206 111.107 23.0517C111.317 23.0517 111.551 23.1297 111.809 23.1843L111.59 24.8071L111.208 24.7446C111.057 24.7363 110.906 24.7363 110.756 24.7446C110.567 24.7312 110.378 24.7591 110.201 24.8265C110.025 24.8939 109.865 24.9991 109.734 25.1347C109.509 25.4357 109.396 25.8051 109.414 26.1801V27.2723H111.31V28.8326H109.414V36.6341L107.315 36.5951Z" fill="#353535"/>
<path d="M117.48 29.1526H116.583C116.225 29.1387 115.87 29.2281 115.561 29.41C115.284 29.5884 115.065 29.8431 114.929 30.1433V36.6264H112.831V27.2646H114.742L114.883 28.6143C115.09 28.1706 115.404 27.7848 115.795 27.4908C116.167 27.2217 116.616 27.0795 117.075 27.0852C117.192 27.0768 117.309 27.0768 117.426 27.0852L117.73 27.1632L117.48 29.1526Z" fill="#353535"/>
<path d="M121.171 24.9865H119.08V23.1453H121.171V24.9865ZM121.171 36.5951H119.08V27.2333H121.171V36.5951Z" fill="#353535"/>
<path d="M127.373 35.0972C127.843 35.1077 128.3 34.9469 128.66 34.6448C128.828 34.5084 128.963 34.3358 129.055 34.1399C129.147 33.944 129.193 33.7299 129.191 33.5135H131.086V33.5681C131.099 34.0009 131.01 34.4306 130.825 34.8223C130.641 35.2141 130.367 35.5568 130.025 35.8228C129.283 36.4566 128.333 36.7954 127.357 36.7746C126.771 36.8026 126.186 36.6979 125.645 36.4683C125.105 36.2386 124.623 35.89 124.237 35.4483C123.481 34.4946 123.091 33.302 123.137 32.0859V31.7816C123.092 30.568 123.482 29.3783 124.237 28.4269C124.623 27.9839 125.104 27.6338 125.644 27.4028C126.185 27.1717 126.77 27.0658 127.357 27.0929C128.359 27.0501 129.337 27.4032 130.08 28.0759C130.423 28.3881 130.692 28.7728 130.867 29.2019C131.042 29.631 131.12 30.0939 131.094 30.5568V30.6114H129.191C129.199 30.1275 129.017 29.6597 128.683 29.3085C128.515 29.1329 128.311 28.9948 128.085 28.9034C127.859 28.812 127.616 28.7693 127.373 28.778C127.041 28.7478 126.707 28.8124 126.41 28.9643C126.113 29.1162 125.865 29.3491 125.696 29.6362C125.35 30.2972 125.181 31.0361 125.204 31.7816V32.0781C125.178 32.8313 125.348 33.5783 125.696 34.2469C125.868 34.5306 126.117 34.7604 126.413 34.9106C126.71 35.0608 127.042 35.1255 127.373 35.0972Z" fill="#353535"/>
<path d="M138.396 36.5951C138.321 36.3675 138.258 36.1357 138.209 35.9008C138.16 35.6798 138.126 35.4556 138.108 35.2299C137.813 35.6703 137.427 36.0427 136.977 36.3221C136.51 36.6168 135.968 36.7712 135.416 36.7668C134.599 36.8093 133.798 36.5292 133.185 35.9866C132.918 35.7171 132.71 35.3945 132.576 35.0397C132.442 34.6849 132.383 34.3058 132.405 33.927C132.387 33.5137 132.476 33.1028 132.664 32.7339C132.851 32.365 133.13 32.0505 133.474 31.8206C134.37 31.255 135.419 30.9823 136.477 31.0404H138.108V30.2603C138.117 30.0501 138.084 29.8401 138.01 29.643C137.937 29.4459 137.824 29.2658 137.679 29.1135C137.337 28.8208 136.895 28.6725 136.446 28.7C136.038 28.6797 135.636 28.8009 135.307 29.0433C135.173 29.149 135.065 29.2843 134.992 29.4386C134.919 29.5929 134.883 29.7619 134.886 29.9326H132.865V29.8858C132.858 29.5033 132.944 29.1248 133.117 28.7834C133.29 28.442 133.543 28.1482 133.856 27.9276C134.634 27.3298 135.598 27.0259 136.579 27.0695C137.525 27.0265 138.456 27.3194 139.208 27.8964C139.546 28.1895 139.812 28.5567 139.985 28.9694C140.158 29.3821 140.234 29.8292 140.206 30.2759V34.4497C140.208 34.8203 140.234 35.1903 140.284 35.5575C140.341 35.9093 140.424 36.2562 140.534 36.5951H138.396ZM135.822 35.0972C136.326 35.1047 136.822 34.9665 137.25 34.6993C137.617 34.4919 137.911 34.1758 138.092 33.7944V32.4213H136.43C135.912 32.3895 135.401 32.5507 134.995 32.8738C134.836 33.0017 134.708 33.1631 134.619 33.3466C134.53 33.53 134.482 33.7309 134.48 33.9348C134.473 34.0936 134.5 34.2521 134.561 34.3991C134.622 34.546 134.714 34.6778 134.831 34.7852C135.111 35.0099 135.464 35.1213 135.822 35.0972Z" fill="#353535"/>
<path d="M144.279 27.2722L144.404 28.6141C144.69 28.1546 145.083 27.7717 145.551 27.4985C146.026 27.2289 146.564 27.089 147.111 27.0928C147.532 27.069 147.954 27.136 148.347 27.2895C148.74 27.443 149.095 27.6792 149.389 27.9822C149.982 28.7716 150.26 29.7531 150.169 30.7361V36.595H148.078V30.7517C148.13 30.2149 147.973 29.6788 147.641 29.2538C147.462 29.0939 147.252 28.9721 147.024 28.8956C146.796 28.8192 146.555 28.7898 146.315 28.8091C145.933 28.8039 145.557 28.898 145.223 29.0822C144.903 29.2744 144.635 29.5423 144.443 29.8623V36.6262H142.352V27.2644L144.279 27.2722Z" fill="#353535"/>
<path d="M166.575 24.0425V32.4603C166.611 33.0627 166.506 33.6652 166.269 34.2202C166.032 34.7752 165.67 35.2677 165.21 35.6589C164.184 36.4437 162.912 36.839 161.621 36.7746C160.362 36.8324 159.123 36.4334 158.134 35.6511C157.68 35.2584 157.323 34.7662 157.09 34.2127C156.857 33.6593 156.755 33.0596 156.792 32.4603V24.0425H158.891V32.4213C158.87 32.7884 158.929 33.1556 159.064 33.4977C159.198 33.8398 159.406 34.1486 159.671 34.4029C160.228 34.8655 160.938 35.1022 161.661 35.066C162.405 35.1026 163.137 34.8669 163.72 34.4029C163.99 34.1516 164.199 33.8432 164.334 33.5004C164.469 33.1575 164.526 32.7889 164.5 32.4213V24.0425H166.575Z" fill="#353535"/>
<path d="M173.449 29.1525H172.559C172.201 29.1387 171.846 29.2281 171.537 29.41C171.258 29.5883 171.036 29.8428 170.897 30.1433V36.6264H168.807V27.2646H170.718L170.858 28.6142C171.067 28.1756 171.377 27.7931 171.763 27.4986C172.136 27.2315 172.584 27.0895 173.043 27.0929C173.162 27.0842 173.282 27.0842 173.402 27.0929C173.502 27.1124 173.601 27.1385 173.698 27.1709L173.449 29.1525Z" fill="#353535"/>
<path d="M183.107 32.2419C183.166 33.4172 182.831 34.5787 182.155 35.5419C181.842 35.9529 181.433 36.2813 180.964 36.4988C180.495 36.7163 179.98 36.8163 179.464 36.7902C178.94 36.8037 178.422 36.6828 177.958 36.4391C177.518 36.1884 177.148 35.8317 176.881 35.4015L176.678 36.6107H174.884V23.1453H176.983V28.3255C177.254 27.9484 177.606 27.6366 178.012 27.4128C178.448 27.1938 178.93 27.084 179.417 27.0929C179.947 27.0716 180.474 27.1858 180.947 27.4247C181.421 27.6635 181.826 28.0192 182.124 28.4582C182.805 29.5329 183.137 30.7917 183.076 32.0625L183.107 32.2419ZM181.008 32.0625C181.042 31.2527 180.87 30.4475 180.509 29.722C180.36 29.4409 180.134 29.2076 179.858 29.0489C179.582 28.8902 179.267 28.8125 178.949 28.8248C178.536 28.812 178.13 28.9206 177.778 29.1369C177.445 29.3462 177.175 29.643 176.998 29.9951V33.8958C177.165 34.2564 177.437 34.5582 177.778 34.7618C178.136 34.9762 178.548 35.0819 178.964 35.066C179.27 35.0865 179.576 35.025 179.85 34.8879C180.125 34.7507 180.357 34.5429 180.525 34.2859C180.882 33.6606 181.053 32.9457 181.016 32.2263L181.008 32.0625Z" fill="#353535"/>
<path d="M190.526 36.5952C190.45 36.3676 190.388 36.1357 190.339 35.9008C190.293 35.6792 190.259 35.4552 190.238 35.2299C189.943 35.6704 189.557 36.0428 189.106 36.3221C188.64 36.6169 188.098 36.7712 187.546 36.7668C186.729 36.8094 185.927 36.5292 185.315 35.9866C185.048 35.7172 184.84 35.3946 184.706 35.0398C184.571 34.685 184.513 34.3058 184.535 33.927C184.517 33.5137 184.606 33.1029 184.793 32.734C184.981 32.3651 185.26 32.0505 185.603 31.8206C186.5 31.256 187.549 30.9834 188.607 31.0405H190.238V30.2603C190.247 30.0501 190.214 29.8402 190.14 29.6431C190.066 29.446 189.954 29.2658 189.808 29.1135C189.467 28.8208 189.025 28.6725 188.576 28.7C188.168 28.6797 187.766 28.801 187.437 29.0433C187.303 29.1491 187.195 29.2844 187.122 29.4386C187.049 29.5929 187.012 29.762 187.015 29.9327H184.995V29.8859C184.987 29.5033 185.074 29.1248 185.247 28.7834C185.419 28.4421 185.673 28.1482 185.986 27.9277C186.764 27.3299 187.728 27.026 188.708 27.0695C189.655 27.0252 190.587 27.3182 191.338 27.8965C191.677 28.1888 191.945 28.5557 192.119 28.9684C192.294 29.3811 192.371 29.8286 192.344 30.2759V34.4497C192.343 34.8201 192.367 35.1902 192.414 35.5576C192.471 35.9093 192.554 36.2562 192.664 36.5952H190.526ZM187.959 35.0973C188.461 35.1037 188.954 34.9656 189.379 34.6994C189.749 34.4945 190.044 34.1776 190.222 33.7944V32.4213H188.56C188.042 32.391 187.532 32.552 187.125 32.8738C186.966 33.0017 186.837 33.1632 186.748 33.3466C186.659 33.5301 186.612 33.7309 186.61 33.9348C186.602 34.0937 186.63 34.2521 186.691 34.3991C186.751 34.5461 186.844 34.6779 186.961 34.7852C187.243 35.0111 187.599 35.1226 187.959 35.0973Z" fill="#353535"/>
<path d="M196.408 27.2724L196.533 28.6142C196.819 28.1547 197.213 27.7718 197.68 27.4986C198.156 27.2291 198.694 27.0892 199.24 27.0929C199.66 27.0697 200.081 27.1371 200.472 27.2906C200.864 27.444 201.218 27.6799 201.511 27.9823C202.103 28.7717 202.381 29.7533 202.291 30.7363V36.5952H200.239V30.7519C200.29 30.215 200.134 29.6789 199.802 29.254C199.623 29.0941 199.412 28.9722 199.185 28.8958C198.957 28.8193 198.715 28.7899 198.476 28.8093C198.094 28.804 197.718 28.8981 197.384 29.0823C197.064 29.2745 196.796 29.5424 196.603 29.8625V36.6264H194.513V27.2646L196.408 27.2724Z" fill="#353535"/>
<path d="M215.975 33.3575C215.983 33.1146 215.934 32.8732 215.833 32.6524C215.731 32.4316 215.579 32.2376 215.39 32.0859C214.776 31.6461 214.077 31.3404 213.338 31.1887C212.169 30.9317 211.067 30.435 210.1 29.7298C209.737 29.4494 209.445 29.0869 209.248 28.672C209.051 28.2571 208.956 27.8015 208.969 27.3426C208.963 26.857 209.073 26.3771 209.29 25.9427C209.507 25.5084 209.825 25.1324 210.217 24.8461C211.15 24.1519 212.293 23.7969 213.455 23.8397C214.663 23.7814 215.85 24.1796 216.778 24.9553C217.171 25.2793 217.484 25.689 217.694 26.1528C217.903 26.6167 218.004 27.1224 217.988 27.6312V27.6858H215.983C215.992 27.3939 215.938 27.1034 215.825 26.8341C215.712 26.5648 215.542 26.3231 215.327 26.1255C214.8 25.6984 214.131 25.4866 213.455 25.5326C212.828 25.4925 212.207 25.6658 211.692 26.0241C211.493 26.175 211.333 26.3713 211.226 26.5966C211.119 26.822 211.067 27.0697 211.075 27.3192C211.078 27.5574 211.141 27.791 211.258 27.9983C211.376 28.2057 211.544 28.38 211.746 28.505C212.429 28.9208 213.175 29.2238 213.954 29.4022C215.079 29.6561 216.128 30.175 217.012 30.9157C217.356 31.2191 217.628 31.5946 217.81 32.0152C217.992 32.4359 218.08 32.8916 218.066 33.3497C218.081 33.8367 217.974 34.3197 217.756 34.7555C217.539 35.1912 217.216 35.566 216.817 35.8462C215.845 36.5019 214.688 36.8274 213.517 36.7746C212.286 36.7975 211.08 36.4317 210.069 35.7292C209.601 35.4203 209.222 34.9941 208.97 34.4931C208.718 33.9921 208.602 33.4337 208.634 32.8738V32.8192H210.646C210.622 33.1467 210.681 33.4749 210.817 33.7736C210.954 34.0723 211.163 34.3317 211.426 34.5278C212.037 34.928 212.757 35.1271 213.486 35.0973C214.124 35.1351 214.757 34.9713 215.296 34.6292C215.507 34.4919 215.681 34.3033 215.799 34.0809C215.918 33.8585 215.978 33.6096 215.975 33.3575Z" fill="#353535"/>
<path d="M219.618 31.8441C219.57 30.6069 219.975 29.3947 220.757 28.4348C221.162 28.0158 221.646 27.6825 222.183 27.4549C222.719 27.2273 223.295 27.11 223.878 27.11C224.46 27.11 225.037 27.2273 225.573 27.4549C226.109 27.6825 226.594 28.0158 226.998 28.4348C227.788 29.3907 228.197 30.6051 228.145 31.8441V32.0235C228.2 33.27 227.791 34.4927 226.998 35.4562C226.591 35.8704 226.105 36.1993 225.57 36.4239C225.034 36.6485 224.459 36.7641 223.878 36.7641C223.297 36.7641 222.722 36.6485 222.186 36.4239C221.65 36.1993 221.164 35.8704 220.757 35.4562C219.972 34.4918 219.567 33.2737 219.618 32.0313V31.8441ZM221.717 32.0235C221.681 32.7973 221.865 33.5655 222.247 34.2391C222.432 34.5047 222.678 34.7216 222.965 34.8714C223.251 35.0212 223.57 35.0994 223.893 35.0994C224.217 35.0994 224.535 35.0212 224.822 34.8714C225.109 34.7216 225.355 34.5047 225.539 34.2391C225.934 33.5694 226.126 32.8 226.093 32.0235V31.8441C226.123 31.0728 225.931 30.3093 225.539 29.644C225.356 29.3769 225.11 29.1585 224.823 29.0076C224.537 28.8567 224.217 28.7778 223.893 28.7778C223.569 28.7778 223.25 28.8567 222.963 29.0076C222.676 29.1585 222.431 29.3769 222.247 29.644C221.868 30.3135 221.685 31.0756 221.717 31.8441V32.0235Z" fill="#353535"/>
<path d="M232.233 36.5951H230.142V23.1453H232.233V36.5951Z" fill="#353535"/>
<path d="M240.417 35.2299C240.151 35.6998 239.769 36.0943 239.309 36.3767C238.685 36.7139 237.968 36.8413 237.266 36.7402C236.564 36.639 235.912 36.3147 235.408 35.815C234.777 34.9589 234.477 33.9028 234.566 32.8426V27.2723H236.657V32.8582C236.598 33.4574 236.735 34.0594 237.047 34.5746C237.195 34.7441 237.381 34.8768 237.589 34.9621C237.798 35.0475 238.023 35.083 238.248 35.0661C238.688 35.0833 239.126 34.9894 239.52 34.793C239.851 34.6153 240.122 34.3439 240.3 34.0129V27.2723H242.399V36.6342H240.565L240.417 35.2299Z" fill="#353535"/>
<path d="M247.181 25.002V27.2722H248.85V28.8325H247.181V33.9815C247.163 34.265 247.255 34.5446 247.438 34.7616C247.526 34.8457 247.63 34.9112 247.744 34.9541C247.858 34.997 247.98 35.0164 248.101 35.0113C248.213 35.0234 248.325 35.0234 248.437 35.0113C248.543 34.9936 248.647 34.9675 248.749 34.9333L248.967 36.4936C248.769 36.6005 248.556 36.6768 248.335 36.7198C248.079 36.7767 247.818 36.8055 247.555 36.8056C247.223 36.824 246.891 36.7731 246.579 36.6563C246.267 36.5395 245.984 36.3592 245.745 36.1269C245.256 35.5244 245.024 34.7539 245.098 33.9815V28.8169H243.678V27.2566H245.098V25.002H247.181Z" fill="#353535"/>
<path d="M252.946 24.9865H250.848V23.1453H252.946V24.9865ZM252.946 36.5951H250.848V27.2333H252.946V36.5951Z" fill="#353535"/>
<path d="M254.904 31.844C254.849 30.6097 255.246 29.3977 256.02 28.4348C256.425 28.0107 256.913 27.6731 257.453 27.4426C257.992 27.212 258.573 27.0931 259.16 27.0931C259.747 27.0931 260.328 27.212 260.867 27.4426C261.407 27.6731 261.894 28.0107 262.3 28.4348C263.084 29.3933 263.49 30.6064 263.439 31.844V32.0235C263.492 33.2685 263.087 34.4897 262.3 35.4561C261.912 35.8964 261.431 36.2435 260.89 36.4718C260.35 36.7001 259.765 36.8036 259.179 36.7746C258.594 36.7981 258.01 36.6914 257.47 36.462C256.93 36.2327 256.448 35.8865 256.059 35.4483C255.277 34.4829 254.874 33.2648 254.928 32.0235L254.904 31.844ZM256.995 32.0235C256.963 32.7969 257.147 33.564 257.525 34.2391C257.71 34.5046 257.956 34.7215 258.243 34.8714C258.53 35.0212 258.848 35.0994 259.172 35.0994C259.495 35.0994 259.814 35.0212 260.1 34.8714C260.387 34.7215 260.633 34.5046 260.818 34.2391C261.215 33.5707 261.408 32.8003 261.372 32.0235V31.844C261.405 31.0724 261.212 30.3079 260.818 29.644C260.634 29.3769 260.388 29.1585 260.102 29.0075C259.815 28.8566 259.496 28.7778 259.172 28.7778C258.848 28.7778 258.528 28.8566 258.242 29.0075C257.955 29.1585 257.709 29.3769 257.525 29.644C257.151 30.3149 256.967 31.0759 256.995 31.844V32.0235Z" fill="#353535"/>
<path d="M267.184 27.2723L267.301 28.6141C267.588 28.1525 267.984 27.7692 268.456 27.4985C268.931 27.229 269.469 27.0891 270.016 27.0928C270.436 27.0681 270.857 27.1347 271.249 27.2883C271.641 27.4418 271.995 27.6786 272.286 27.9822C272.886 28.7682 273.165 29.7525 273.066 30.7362V36.5951H270.968V30.7518C271.022 30.2146 270.866 29.6773 270.531 29.2539C270.353 29.0942 270.144 28.9724 269.917 28.896C269.691 28.8195 269.451 28.79 269.212 28.8092C268.828 28.805 268.45 28.899 268.112 29.0822C267.79 29.2715 267.521 29.5401 267.332 29.8624V36.6263H265.233V27.2645L267.184 27.2723Z" fill="#353535"/>
<path d="M280.524 34.0597C280.52 33.9067 280.48 33.7567 280.409 33.6215C280.337 33.4862 280.235 33.3692 280.111 33.2796C279.632 32.9926 279.102 32.8018 278.551 32.7179C277.647 32.5689 276.785 32.2285 276.023 31.7193C275.746 31.5167 275.523 31.2494 275.373 30.9406C275.224 30.6319 275.152 30.2912 275.165 29.9483C275.165 29.5605 275.255 29.178 275.426 28.8303C275.598 28.4826 275.848 28.1791 276.156 27.9433C276.901 27.3662 277.827 27.0731 278.769 27.1164C279.743 27.0653 280.703 27.3641 281.476 27.9589C281.792 28.2033 282.044 28.5202 282.211 28.8829C282.378 29.2455 282.455 29.6431 282.436 30.0419V30.0965H280.431C280.432 29.908 280.394 29.7213 280.317 29.549C280.24 29.3767 280.127 29.2229 279.986 29.0979C279.655 28.8086 279.224 28.6602 278.785 28.6845C278.371 28.6556 277.961 28.7776 277.63 29.0277C277.505 29.1278 277.404 29.2549 277.335 29.3995C277.266 29.5441 277.231 29.7023 277.232 29.8625C277.227 30.0131 277.259 30.1626 277.324 30.2984C277.389 30.4343 277.486 30.5523 277.607 30.6426C278.076 30.9097 278.593 31.082 279.128 31.1497C280.07 31.2851 280.97 31.626 281.765 32.1483C282.039 32.3657 282.256 32.6458 282.399 32.9649C282.541 33.284 282.605 33.6328 282.584 33.9817C282.59 34.3799 282.498 34.7734 282.317 35.1282C282.136 35.483 281.872 35.7884 281.546 36.0179C280.744 36.5716 279.782 36.8457 278.808 36.798C277.769 36.8559 276.746 36.525 275.937 35.8697C275.615 35.6162 275.357 35.2908 275.184 34.9196C275.01 34.5483 274.926 34.1416 274.939 33.7321V33.6774H276.889C276.881 33.9069 276.931 34.1345 277.033 34.3401C277.135 34.5457 277.287 34.7228 277.474 34.8555C277.873 35.1136 278.341 35.2442 278.816 35.2299C279.254 35.2587 279.691 35.1495 280.064 34.9179C280.21 34.8289 280.33 34.7024 280.411 34.5515C280.492 34.4006 280.531 34.2308 280.524 34.0597Z" fill="#353535"/>
<path d="M153.383 51.925H147.282V57.7762H146.253V45.2235H154.257V46.1051H147.282V51.0044H153.383V51.925Z" fill="#353535"/>
<path d="M155.38 52.9705C155.329 51.74 155.735 50.5342 156.519 49.5846C156.899 49.1696 157.362 48.8382 157.877 48.6114C158.392 48.3847 158.948 48.2676 159.511 48.2676C160.074 48.2676 160.631 48.3847 161.146 48.6114C161.661 48.8382 162.123 49.1696 162.503 49.5846C163.283 50.5332 163.685 51.7359 163.634 52.9627V53.2513C163.68 54.4689 163.28 55.6613 162.511 56.606C162.13 57.0212 161.667 57.3528 161.151 57.5796C160.636 57.8064 160.078 57.9236 159.515 57.9236C158.952 57.9236 158.394 57.8064 157.879 57.5796C157.363 57.3528 156.9 57.0212 156.519 56.606C155.744 55.667 155.338 54.4764 155.38 53.2591V52.9705ZM156.418 53.2513C156.374 54.2198 156.648 55.176 157.198 55.9741C157.469 56.3167 157.814 56.5936 158.207 56.7839C158.6 56.9742 159.031 57.0731 159.468 57.0731C159.905 57.0731 160.336 56.9742 160.729 56.7839C161.123 56.5936 161.468 56.3167 161.738 55.9741C162.309 55.1834 162.6 54.2255 162.565 53.2513V52.9705C162.592 52.0021 162.302 51.0516 161.738 50.2634C161.479 49.9054 161.136 49.617 160.738 49.4238C160.341 49.2305 159.902 49.1384 159.46 49.1555C159.021 49.1375 158.584 49.2293 158.189 49.4228C157.794 49.6162 157.453 49.9051 157.198 50.2634C156.651 51.0571 156.377 52.0073 156.418 52.9705V53.2513Z" fill="#353535"/>
<path d="M171.904 56.2472C171.624 56.7709 171.206 57.208 170.695 57.511C170.148 57.8183 169.528 57.972 168.9 57.9557C168.46 57.9809 168.019 57.9039 167.613 57.7307C167.207 57.5574 166.847 57.2927 166.56 56.9571C165.93 56.0444 165.635 54.9418 165.725 53.8365V48.4456H166.763V53.9067C166.687 54.7641 166.89 55.6229 167.34 56.3564C167.533 56.6092 167.784 56.812 168.072 56.9477C168.36 57.0835 168.676 57.1482 168.994 57.1365C169.656 57.1729 170.312 56.9891 170.859 56.6138C171.336 56.2517 171.679 55.7412 171.834 55.1627V48.4456H172.871V57.8075H171.959L171.904 56.2472Z" fill="#353535"/>
<path d="M176.53 48.4457L176.624 50.0762C176.896 49.5137 177.327 49.0433 177.864 48.723C178.4 48.4028 179.019 48.2467 179.643 48.274C180.078 48.2419 180.515 48.3088 180.92 48.4696C181.325 48.6304 181.689 48.8809 181.984 49.2024C182.573 50.047 182.849 51.0706 182.764 52.0968V57.7763H181.734V52.089C181.807 51.284 181.592 50.4791 181.125 49.8187C180.908 49.5908 180.642 49.4133 180.349 49.2988C180.055 49.1842 179.739 49.1354 179.425 49.1556C178.784 49.124 178.153 49.3295 177.654 49.7329C177.176 50.1436 176.832 50.6866 176.663 51.2932V57.7763H175.633V48.4145L176.53 48.4457Z" fill="#353535"/>
<path d="M185.026 53.1888C184.957 51.9173 185.29 50.6562 185.978 49.5845C186.266 49.1545 186.66 48.8054 187.122 48.5705C187.583 48.3356 188.097 48.2228 188.615 48.2427C189.203 48.2292 189.785 48.3719 190.3 48.6562C190.785 48.9459 191.194 49.347 191.493 49.8264V44.3263H192.516V57.7761H191.603L191.517 56.4187C191.224 56.8981 190.81 57.2912 190.315 57.5577C189.784 57.834 189.19 57.9709 188.591 57.9556C188.087 57.9742 187.586 57.8704 187.131 57.653C186.676 57.4356 186.28 57.1111 185.978 56.7073C185.299 55.7305 184.965 54.556 185.026 53.3683V53.1888ZM186.064 53.3683C186.016 54.3146 186.249 55.2538 186.735 56.0676C186.958 56.3989 187.264 56.666 187.623 56.8425C187.981 57.0191 188.38 57.0988 188.779 57.074C189.383 57.102 189.981 56.9381 190.487 56.6059C190.944 56.297 191.305 55.8677 191.533 55.3655V50.981C191.304 50.4584 190.944 50.0041 190.487 49.6626C189.999 49.3073 189.405 49.1284 188.802 49.1555C188.39 49.1371 187.981 49.2322 187.619 49.4303C187.257 49.6283 186.957 49.9219 186.75 50.2789C186.262 51.1684 186.027 52.175 186.071 53.1888L186.064 53.3683Z" fill="#353535"/>
<path d="M201.168 57.7763C201.097 57.4565 201.051 57.1834 201.019 56.9962C200.988 56.8089 200.98 56.5281 200.98 56.294C200.62 56.8007 200.147 57.2173 199.599 57.5111C199.005 57.8386 198.335 58.0053 197.657 57.9948C196.884 58.0414 196.124 57.7806 195.543 57.2692C195.284 57.0178 195.081 56.7151 194.947 56.3805C194.813 56.046 194.75 55.687 194.762 55.3267C194.756 54.9021 194.863 54.4835 195.071 54.1135C195.28 53.7435 195.582 53.4353 195.948 53.2202C196.849 52.6592 197.9 52.387 198.96 52.4401H201.019V51.2933C201.034 51.0015 200.983 50.7102 200.871 50.4403C200.759 50.1705 200.588 49.9289 200.372 49.733C199.867 49.3241 199.226 49.1208 198.577 49.1635C197.937 49.1382 197.307 49.3307 196.791 49.7096C196.573 49.8559 196.395 50.0533 196.271 50.2845C196.147 50.5157 196.082 50.7736 196.081 51.0358H195.09V50.9812C195.084 50.6163 195.168 50.2555 195.334 49.9304C195.5 49.6053 195.743 49.3259 196.042 49.1167C196.77 48.5464 197.677 48.2533 198.601 48.2897C199.494 48.2457 200.374 48.5224 201.082 49.0698C201.399 49.3483 201.648 49.6955 201.81 50.0849C201.972 50.4743 202.043 50.8956 202.018 51.3167V55.904C202.02 56.222 202.038 56.5396 202.073 56.8558C202.112 57.1695 202.174 57.4798 202.26 57.7841L201.168 57.7763ZM197.782 57.043C198.473 57.0539 199.153 56.873 199.748 56.5203C200.282 56.2077 200.711 55.7433 200.98 55.1862V53.2437H198.905C198.113 53.2028 197.327 53.4101 196.658 53.8366C196.404 53.994 196.193 54.2131 196.046 54.4736C195.899 54.7341 195.819 55.0275 195.816 55.3267C195.806 55.558 195.848 55.7887 195.938 56.0019C196.029 56.2151 196.165 56.4055 196.338 56.5593C196.74 56.8996 197.256 57.0728 197.782 57.043Z" fill="#353535"/>
<path d="M206.371 46.0584V48.4456H208.431V49.296H206.379V55.3656C206.335 55.8257 206.454 56.2866 206.714 56.6684C206.824 56.7934 206.96 56.8925 207.112 56.9586C207.265 57.0247 207.43 57.0562 207.596 57.0507C207.76 57.0507 207.924 57.0507 208.08 57.0507L208.633 56.9805L208.782 57.7607C208.582 57.8449 208.372 57.9026 208.158 57.9323C207.912 57.9721 207.665 57.993 207.416 57.9947C207.126 58.0147 206.835 57.9689 206.565 57.8609C206.295 57.7528 206.053 57.5852 205.856 57.3706C205.443 56.8023 205.249 56.1043 205.31 55.4046V49.296H203.75V48.4456H205.31V46.0584H206.371Z" fill="#353535"/>
<path d="M211.77 45.7774H210.771V44.3263H211.801L211.77 45.7774ZM211.77 57.7761H210.771V48.4143H211.801L211.77 57.7761Z" fill="#353535"/>
<path d="M214.048 52.9705C213.996 51.7426 214.396 50.5382 215.171 49.5847C215.552 49.1694 216.015 48.8379 216.53 48.6111C217.046 48.3842 217.603 48.2671 218.167 48.2671C218.73 48.2671 219.287 48.3842 219.803 48.6111C220.319 48.8379 220.782 49.1694 221.163 49.5847C221.939 50.5351 222.341 51.7364 222.294 52.9627V53.2514C222.34 54.4703 221.937 55.6639 221.163 56.606C220.799 57.0384 220.342 57.3819 219.825 57.6104C219.309 57.8389 218.747 57.9464 218.182 57.9245C217.613 57.9471 217.047 57.8402 216.525 57.6118C216.003 57.3834 215.54 57.0395 215.171 56.606C214.396 55.6552 213.997 54.4535 214.048 53.228V52.9705ZM215.077 53.2514C215.033 54.2198 215.307 55.1761 215.858 55.9741C216.129 56.3169 216.475 56.5937 216.869 56.7841C217.263 56.9744 217.694 57.0733 218.132 57.0733C218.569 57.0733 219.001 56.9744 219.395 56.7841C219.788 56.5937 220.134 56.3169 220.406 55.9741C220.956 55.1761 221.23 54.2198 221.186 53.2514V52.9705C221.216 52.0017 220.925 51.0501 220.359 50.2634C220.1 49.9055 219.756 49.6171 219.359 49.4238C218.962 49.2306 218.523 49.1384 218.081 49.1556C217.642 49.1382 217.205 49.2304 216.81 49.4238C216.415 49.6172 216.074 49.9057 215.819 50.2634C215.271 51.0571 214.998 52.0074 215.038 52.9705L215.077 53.2514Z" fill="#353535"/>
<path d="M225.36 48.4457L225.453 50.0762C225.726 49.5137 226.157 49.0433 226.693 48.723C227.23 48.4028 227.848 48.2467 228.473 48.274C228.908 48.2419 229.344 48.3088 229.749 48.4696C230.155 48.6304 230.518 48.8809 230.813 49.2024C231.402 50.047 231.678 51.0706 231.593 52.0968V57.7763H230.563V52.089C230.639 51.2849 230.426 50.4802 229.963 49.8187C229.745 49.5908 229.48 49.4133 229.186 49.2988C228.892 49.1842 228.577 49.1354 228.262 49.1556C227.621 49.124 226.99 49.3295 226.491 49.7329C226.014 50.1436 225.669 50.6866 225.5 51.2932V57.7763H224.47V48.4145L225.36 48.4457Z" fill="#353535"/>
</svg>
