<svg xmlns="http://www.w3.org/2000/svg" viewBox="0 0 200 55"><defs><style>.cls-1{fill:#d8d6d7;}.cls-2{fill:none;stroke:#e76024;stroke-miterlimit:10;stroke-width:3px;}.cls-3{font-size:12px;font-family:Roboto-Regular, Roboto;}.cls-3,.cls-4{fill:#353535;}.cls-4{font-size:21px;font-family:Roboto-Bold, Roboto;font-weight:700;}.cls-5{letter-spacing:-0.02em;}.cls-6{letter-spacing:0em;}.cls-7{letter-spacing:-0.01em;}.cls-8{letter-spacing:-0.01em;}</style></defs><title>app_store</title><g id="Layer_2" data-name="Layer 2"><g id="Content"><g id="Hero"><g id="App_btns"><g id="AppStoreWhite"><rect class="cls-1" width="200" height="55" rx="15" ry="15"/><path class="cls-2" d="M42.48,30.94a8.08,8.08,0,0,1-1.54-4.82,7.56,7.56,0,0,1,1.45-4.48,14.2,14.2,0,0,1,2.54-2.55,11.34,11.34,0,0,0-2.31-2.16,8.3,8.3,0,0,0-4.74-1.41,12.88,12.88,0,0,0-3.85.74,11.41,11.41,0,0,1-3.18.74,14.67,14.67,0,0,1-3.07-.65,15.19,15.19,0,0,0-3.94-.65,7.76,7.76,0,0,0-6.32,3.12A12.59,12.59,0,0,0,15,26.9a21.72,21.72,0,0,0,3.27,10.88q3.32,5.6,6.7,5.6a8.23,8.23,0,0,0,2.94-.74,8.78,8.78,0,0,1,3.16-.71,10.08,10.08,0,0,1,3.36.69,10.54,10.54,0,0,0,3.12.69q2.85,0,5.72-4.24A20.65,20.65,0,0,0,46,33.67,6.74,6.74,0,0,1,42.48,30.94Z"/><path class="cls-2" d="M34.92,14.22a8.87,8.87,0,0,0,2.07-3,8.06,8.06,0,0,0,.64-2.94c0-.06,0-.13,0-.22s0-.16,0-.22a2,2,0,0,1-.06-.24,2,2,0,0,0-.06-.24,8.91,8.91,0,0,0-5.56,3.2,9.67,9.67,0,0,0-1.74,5.56,12.76,12.76,0,0,0,2.31-.37A6.32,6.32,0,0,0,34.92,14.22Z"/><text class="cls-3" transform="translate(53.76 19.58) scale(1.18 1)">COMING SOON ON</text><text class="cls-4" transform="translate(53.76 39.29) scale(1.18 1)"><tspan class="cls-5">A</tspan><tspan class="cls-6" x="13.64" y="0">pp S</tspan><tspan class="cls-7" x="55.42" y="0">t</tspan><tspan class="cls-6" x="62.21" y="0">o</tspan><tspan class="cls-8" x="74.08" y="0">r</tspan><tspan x="81.55" y="0">e</tspan></text></g></g></g></g></g></svg>