<svg xmlns="http://www.w3.org/2000/svg" viewBox="0 0 471.2 436.7">
	<style>
		path {
			fill: #414241;
		}
	</style>
	<path d="M457.7,212.9a13.44,13.44,0,0,0-13.5,13.5V349.2a60.58,60.58,0,0,1-60.5,60.5H87.5A60.58,60.58,0,0,1,27,349.2V224.4a13.5,13.5,0,0,0-27,0V349.2a87.6,87.6,0,0,0,87.5,87.5H383.7a87.6,87.6,0,0,0,87.5-87.5V226.4A13.51,13.51,0,0,0,457.7,212.9Z"/>
	<path d="M226.1,328.5a13.59,13.59,0,0,0,9.5,4,13.17,13.17,0,0,0,9.5-4l85.8-85.8a13.51,13.51,0,1,0-19.1-19.1l-62.7,62.8V13.5a13.5,13.5,0,0,0-27,0V287.4l-62.8-62.8a13.51,13.51,0,1,0-19.1,19.1Z"/>
</svg>