<svg xmlns="http://www.w3.org/2000/svg" viewBox="0 0 54 33.75"><defs><style>.cls-1{fill:#232323;}</style></defs><title>g_plus</title><g id="Layer_2" data-name="Layer 2"><g id="Layer_1-2" data-name="Layer 1"><polygon class="cls-1" points="54 13.5 47.25 13.5 47.25 6.75 43.87 6.75 43.87 13.5 37.12 13.5 37.12 16.87 43.87 16.87 43.87 23.62 47.25 23.62 47.25 16.87 54 16.87 54 13.5"/><path class="cls-1" d="M16.87,20.25h9.55a10.13,10.13,0,1,1-9.55-13.5,10,10,0,0,1,6.56,2.44L27.87,4.1a16.72,16.72,0,0,0-11-4.1A16.87,16.87,0,1,0,33.75,16.87V13.5H16.87Z"/></g></g></svg>