<svg xmlns="http://www.w3.org/2000/svg" viewBox="0 0 58.47 55.88"><defs><style>.cls-1{fill:#232323;}</style></defs><title>linkedin</title><g id="Layer_2" data-name="Layer 2"><g id="Layer_1-2" data-name="Layer 1"><path id="LinkedIn" class="cls-1" d="M58.47,34.26V55.88H45.94V35.7c0-5.07-1.81-8.52-6.35-8.52a6.86,6.86,0,0,0-6.43,4.58,8.58,8.58,0,0,0-.42,3.06V55.88H20.21s.17-34.16,0-37.7H32.74v5.34l-.08.12h.08v-.12A12.45,12.45,0,0,1,44,17.29C52.29,17.29,58.47,22.68,58.47,34.26ZM7.09,0C2.81,0,0,2.81,0,6.51S2.72,13,6.93,13H7c4.37,0,7.09-2.9,7.09-6.52S11.38,0,7.09,0ZM.74,55.88H13.28V18.17H.74Z"/></g></g></svg>