<svg xmlns="http://www.w3.org/2000/svg" viewBox="0 0 64 64"><defs><style>.cls-1{fill:#414241;}.cls-2{fill:#193651;}.cls-3{fill:#fdbf5e;}.cls-4{fill:#f5f5f5;}</style></defs><title>mission</title><g id="Layer_2" data-name="Layer 2"><g id="Layer_1-2" data-name="Layer 1"><g id="OurStory"><g id="Promises"><g id="Mission"><path class="cls-1" d="M23.84,62H13.42l1-1.6,2.7-4.34,1.17-1.88.56,1,.6-1-.56-1L12.8,42.3,1.1,63H24.4Z"/><path class="cls-1" d="M51.4,42.3l-3.86,6.82-.56,1L45.36,53l1.78,2.86L49.32,52l5.26,8.44,1,1.6H40.27l-.57,1H63Z"/><path class="cls-1" d="M48.16,50.11l-.61-1L34.5,28.2l-15.59,25-.6,1,.56,1,.6-1L21.06,57,27.8,46.3,31.3,48l3.2-1.7L37.6,48l3.6-1.7L45.36,53l1.78,2.86L49.32,52ZM55.58,62H40.27l1.41-2.5H22.44l1.4,2.5H13.42l-.62,1H56.2Z"/><path class="cls-2" d="M63.7,62.5,52.1,41.8a1,1,0,0,0-1.7,0l-3,5.32L35.5,28V22.6h9.1a1,1,0,0,0,1-1.1.9.9,0,0,0-.3-.7l-2-2.9,2.1-3a.91.91,0,0,0,.11-1,1.05,1.05,0,0,0-.9-.51H34.5a1,1,0,0,0-.84.42,1,1,0,0,0-.16.59V27.86L18.85,51.35,13.5,41.8a1,1,0,0,0-1.71,0L.2,62.5a.93.93,0,0,0,0,1,1.06,1.06,0,0,0,.91.5H63c.4,0,.69-.2.69-.5A.9.9,0,0,0,63.7,62.5Zm-28.2-47h7.2l-1.4,2a1.11,1.11,0,0,0,0,1.1l1.4,2H35.5ZM2.8,62l10-17.6,4.92,8.76.58,1,.56,1,.6-1,.52-.83L34.5,30.1l11.83,19,.66,1,.61,1,.56-1,.53-.93L51.4,44.4,61.3,62Z"/><path class="cls-3" d="M13.6,5.84a7.76,7.76,0,1,0,7.76,7.76A7.76,7.76,0,0,0,13.6,5.84Zm0,12.76a5,5,0,1,1,5-5A5,5,0,0,1,13.6,18.6Z"/><path class="cls-2" d="M13.6,4.2a9.5,9.5,0,1,0,9.5,9.49A9.49,9.49,0,0,0,13.6,4.2Zm0,16.9a7.5,7.5,0,1,1,7.5-7.5A7.49,7.49,0,0,1,13.6,21.1Z"/><rect class="cls-2" y="12.6" width="2" height="2"/><rect class="cls-2" x="25.3" y="12.6" width="2" height="2"/><rect class="cls-2" x="1.71" y="18.99" width="2" height="2" transform="translate(-9.63 4.03) rotate(-29.99)"/><rect class="cls-2" x="23.59" y="6.31" width="2" height="2" transform="translate(-0.36 13.27) rotate(-29.99)"/><rect class="cls-2" x="6.31" y="23.62" width="2" height="2" transform="translate(-17.67 18.64) rotate(-60.01)"/><rect class="cls-2" x="18.99" y="1.67" width="2" height="2" transform="translate(7.68 18.65) rotate(-59.99)"/><rect class="cls-2" x="12.6" y="25.3" width="2" height="2"/><rect class="cls-2" x="12.6" width="2" height="2"/><rect class="cls-2" x="19" y="23.59" width="2" height="2" transform="translate(-9.61 13.29) rotate(-29.99)"/><rect class="cls-2" x="6.31" y="1.71" width="2" height="2" transform="translate(-0.38 4.02) rotate(-30.01)"/><rect class="cls-2" x="23.62" y="18.99" width="2" height="2" transform="translate(-5 31.32) rotate(-60)"/><rect class="cls-2" x="1.68" y="6.31" width="2" height="2" transform="translate(-4.99 5.97) rotate(-60)"/><path class="cls-4" d="M60.6,4.1a2.82,2.82,0,0,0-1.5.4,3.13,3.13,0,0,0-2.7-1.7,4.31,4.31,0,0,0-8.3,1.4h-.2a3.4,3.4,0,1,0,0,6.8H60.6A3.37,3.37,0,0,0,64,7.6,3.4,3.4,0,0,0,60.6,4.1Z"/><path class="cls-4" d="M20.3,32a2.66,2.66,0,0,0-1.2.3,2.65,2.65,0,0,0-2.2-1.4,3.38,3.38,0,0,0-3.2-2.2A3.41,3.41,0,0,0,10.3,32h-.1a2.7,2.7,0,0,0,0,5.4h10a2.69,2.69,0,0,0,2.7-2.7A2.55,2.55,0,0,0,20.3,32Z"/><path class="cls-4" d="M61.2,30.5a2.66,2.66,0,0,0-1.2.3,2.65,2.65,0,0,0-2.2-1.4,3.38,3.38,0,0,0-3.2-2.2,3.41,3.41,0,0,0-3.4,3.3h-.1a2.7,2.7,0,1,0,0,5.4h10a2.69,2.69,0,0,0,2.7-2.7A2.6,2.6,0,0,0,61.2,30.5Z"/></g></g></g></g></g></svg>