<svg xmlns="http://www.w3.org/2000/svg" viewBox="0 0 58.4 58.41"><defs><style>.cls-1{fill:#ffd335;}.cls-2{fill:#002a5f;}.cls-3{fill:#af003f;}.cls-4{fill:#005543;}.cls-5{fill:#ebebd3;}.cls-6{fill:#3f3f3f;}.cls-7{fill:#744400;}.cls-8{fill:#8f4d00;}</style></defs><title>Partner With Us</title><g id="Layer_2" data-name="Layer 2"><g id="Layer_1-2" data-name="Layer 1"><path class="cls-1" d="M49.36,38.65,38.65,49.36,37.28,48,48,37.28,43.8,33.1h0L33.09,43.8h0l14.6,14.6L58.4,47.7Zm-4.87,0L42.55,40.6l-1.38-1.38,1.95-1.95Z"/><path class="cls-2" d="M13.63,34.07,9.45,38.25,20.16,49l4.18-4.18h0Zm5.15,11.4-1.95-1.95,1.38-1.38,1.95,1.95ZM0,47.7,10.71,58.41l8.07-8.07L8.07,39.63Z"/><path class="cls-3" d="M49.36,19.76l9-9L47.69,0,33.1,14.6,43.8,25.31h0L48,21.13,37.28,10.43,38.65,9Zm-10.7-5.84,1.95,1.95-1.38,1.38-1.95-1.95Z"/><path class="cls-4" d="M17.24,6.53,6.53,17.24l4.18,4.18.61-.61,0,0h0L21.41,10.71ZM15.86,10l1.38,1.38-1.95,1.95L13.91,12ZM10.71,0,0,10.71l5.15,5.15L15.86,5.15Z"/><polygon class="cls-5" points="28.27 15.66 23.36 10.71 21.38 10.71 10.71 21.42 10.71 27.26 13.63 30.18 28.27 15.66"/><polygon class="cls-6" points="31.15 41.86 28.23 44.78 24.34 44.78 13.63 34.07 13.63 30.18 16.55 27.26 31.15 41.86"/><path class="cls-7" d="M26.28,37,15.21,25.91a2.06,2.06,0,0,1-.6-1.46h0a2.07,2.07,0,0,1,2.06-2.06h0a2.06,2.06,0,0,1,1.46.6l7.18,7.18L18.13,23a2.06,2.06,0,0,1-.6-1.46h0a2.07,2.07,0,0,1,2.06-2.06h0a2.06,2.06,0,0,1,1.46.6l7.18,7.18L21,20.07a2.06,2.06,0,0,1-.6-1.46h0a2.07,2.07,0,0,1,2.06-2.06h0a2.06,2.06,0,0,1,1.46.6l7.18,7.18L24,17.15a2.06,2.06,0,0,1-.6-1.46h0a2.07,2.07,0,0,1,2.06-2.06h0a2.06,2.06,0,0,1,1.46.6L43.81,31.15V33.1L33.1,43.81H29.2L23.36,38V34.07Z"/><polygon class="cls-8" points="28.23 15.57 29.2 14.6 33.1 14.6 43.8 25.31 43.8 29.2 42.83 30.18 28.23 15.57"/></g></g></svg>