<svg xmlns="http://www.w3.org/2000/svg" viewBox="0 0 238 441">
	<style>
		path {
			fill: #414241;
		}
	</style>
	<path d="M238,441H0V113H37V73h70V0h23V73h70v40h38ZM8,433H230V121H192V81H122V8h-7V81H45v40H8Zm191-44H176V341h23Zm-15-8h7V349h-7Zm-31,8H130V341h23Zm-15-8h7V349h-7Zm-31,8H84V341h23Zm-15-8h7V349H92Zm-31,8H38V341H61Zm-15-8h7V349H46Zm153-80H176V253h23Zm-15-8h7V261h-7Zm-31,8H130V253h23Zm-15-8h7V261h-7Zm-31,8H84V253h23Zm-15-8h7V261H92Zm-31,8H38V253H61Zm-15-8h7V261H46Zm153-80H176V165h23Zm-15-8h7V173h-7Zm-31,8H130V165h23Zm-15-8h7V173h-7Zm-31,8H84V165h23Zm-15-8h7V173H92Zm-31,8H38V165H61Zm-15-8h7V173H46Z"/>
</svg>