<svg xmlns="http://www.w3.org/2000/svg" viewBox="0 0 58.24 47.33"><defs><style>.cls-1{fill:#232323;}</style></defs><title>twitter</title><g id="Layer_2" data-name="Layer 2"><g id="Layer_1-2" data-name="Layer 1"><path class="cls-1" d="M58.24,5.6a23.87,23.87,0,0,1-6.86,1.88A12,12,0,0,0,56.63.87,24,24,0,0,1,49,3.77a12,12,0,0,0-20.36,10.9A33.92,33.92,0,0,1,4.06,2.18a12,12,0,0,0,3.69,16,11.88,11.88,0,0,1-5.41-1.5v.15a12,12,0,0,0,9.58,11.71,11.94,11.94,0,0,1-5.4.21A12,12,0,0,0,17.69,37,24,24,0,0,1,2.85,42.12,23.77,23.77,0,0,1,0,42a33.81,33.81,0,0,0,18.31,5.37c22,0,34-18.21,34-34,0-.52,0-1,0-1.54a24.25,24.25,0,0,0,6-6.18Zm0,0"/></g></g></svg>