<svg xmlns="http://www.w3.org/2000/svg" viewBox="0 0 48.36 54.82"><defs><style>.cls-1{fill:#232323;}</style></defs><title>Attach</title><g id="Layer_2" data-name="Layer 2"><g id="Layer_1-2" data-name="Layer 1"><path class="cls-1" d="M5.85,50.84a17,17,0,0,1-.66-25.05l22-22a12.5,12.5,0,0,1,17.45-.44,12.21,12.21,0,0,1,.13,17.41L26.61,38.92a7.79,7.79,0,0,1-9.67,1.24A7.65,7.65,0,0,1,15.63,28.3l14-14a3.05,3.05,0,0,1,4.32,0h0a3.05,3.05,0,0,1,0,4.32L19.75,32.81c-1.19,1.19,1,3.35,2.16,2.16L40.28,16.61A6.29,6.29,0,0,0,41,8.38a6.12,6.12,0,0,0-9.16-.59L9.4,30.22a10.92,10.92,0,0,0-.92,14.62,10.7,10.7,0,0,0,15.79.74L42.62,27.22a3.05,3.05,0,0,1,4.32,0h0a3.05,3.05,0,0,1,0,4.32L28.59,49.9A16.79,16.79,0,0,1,5.85,50.84Z"/></g></g></svg>