<svg xmlns="http://www.w3.org/2000/svg" viewBox="0 0 60.94 61.01">
	<path class="cls-1" d="M30.45,61a30.64,30.64,0,0,1-13.39-3.08A19.86,19.86,0,0,1,7,60.73a16.29,16.29,0,0,1-2.62-.19A4.68,4.68,0,0,1,3,51.72a7.53,7.53,0,0,0,3-3A30.71,30.71,0,0,1,8.87,8.94,30.51,30.51,0,1,1,52,52.08,30.31,30.31,0,0,1,30.45,61Zm-13.7-8.92,1.38.76a25.53,25.53,0,1,0-7.23-6l1,1.23-.7,1.45A14.18,14.18,0,0,1,6.15,55.7l.84,0A14.77,14.77,0,0,0,15.47,53ZM5.15,55.6h0Z"/>
	<path class="cls-1" d="M42.68,23.42H18.26c-.74,0-1.34-.81-1.34-1.8s.6-1.8,1.34-1.8H42.68c.74,0,1.34.81,1.34,1.8S43.42,23.42,42.68,23.42Z"/>
	<path class="cls-1" d="M42.68,32.31H18.26c-.74,0-1.34-.81-1.34-1.8s.6-1.8,1.34-1.8H42.68c.74,0,1.34.81,1.34,1.8S43.42,32.31,42.68,32.31Z"/>
	<path class="cls-1" d="M42.68,41.2H18.26c-.74,0-1.34-.81-1.34-1.8s.6-1.8,1.34-1.8H42.68c.74,0,1.34.81,1.34,1.8S43.42,41.2,42.68,41.2Z"/>
</svg>