<svg xmlns="http://www.w3.org/2000/svg" viewBox="0 0 46.35 54">
	<path d="M44.54,48.36h-2V7.09A1.89,1.89,0,0,0,40.7,5.2H35.58V1.89A1.89,1.89,0,0,0,33.69,0h-21a1.89,1.89,0,0,0-1.89,1.89V5.2H5.65A1.89,1.89,0,0,0,3.76,7.09V48.36h-2A1.81,1.81,0,0,0,0,50.16v2A1.81,1.81,0,0,0,1.8,54H44.54a1.81,1.81,0,0,0,1.8-1.8v-2A1.81,1.81,0,0,0,44.54,48.36ZM16,40.59a.53.53,0,0,1-.52.52H8.61a.53.53,0,0,1-.52-.52V33.73a.53.53,0,0,1,.52-.52h6.85a.53.53,0,0,1,.52.52Zm0-10.94a.53.53,0,0,1-.52.52H8.61a.53.53,0,0,1-.52-.52V22.79a.53.53,0,0,1,.52-.52h6.85a.53.53,0,0,1,.52.52Zm0-11.06a.53.53,0,0,1-.52.52H8.61a.53.53,0,0,1-.52-.52V11.74a.53.53,0,0,1,.52-.52h6.85a.53.53,0,0,1,.52.52ZM27.12,49.84a.53.53,0,0,1-.52.52H19.75a.53.53,0,0,1-.52-.52V33.73a.53.53,0,0,1,.52-.52H26.6a.53.53,0,0,1,.52.52Zm0-20.19a.53.53,0,0,1-.52.52H19.75a.53.53,0,0,1-.52-.52V22.79a.53.53,0,0,1,.52-.52H26.6a.53.53,0,0,1,.52.52Zm0-11.06a.53.53,0,0,1-.52.52H19.75a.53.53,0,0,1-.52-.52V11.74a.53.53,0,0,1,.52-.52H26.6a.53.53,0,0,1,.52.52Zm11.17,22a.53.53,0,0,1-.52.52H30.92a.53.53,0,0,1-.52-.52V33.73a.53.53,0,0,1,.52-.52h6.85a.53.53,0,0,1,.52.52Zm0-10.94a.53.53,0,0,1-.52.52H30.92a.53.53,0,0,1-.52-.52V22.79a.53.53,0,0,1,.52-.52h6.85a.53.53,0,0,1,.52.52Zm0-11.06a.53.53,0,0,1-.52.52H30.92a.53.53,0,0,1-.52-.52V11.74a.53.53,0,0,1,.52-.52h6.85a.53.53,0,0,1,.52.52Z"/>
</svg>