<svg xmlns="http://www.w3.org/2000/svg" viewBox="0 0 61 53.75">
	<path d="M30.51,53.75l-1.33-.83c-1-.65-25.27-16-28.31-29A18.09,18.09,0,0,1,0,18.32,18.32,18.32,0,0,1,30.5,4.64a18.31,18.31,0,0,1,21-2.36h0a18.36,18.36,0,0,1,9.47,16,18.09,18.09,0,0,1-.87,5.54c-3,13-27.26,28.4-28.29,29ZM18.31,5a13.21,13.21,0,0,0-6.43,1.66A13.35,13.35,0,0,0,5,18.32a13.11,13.11,0,0,0,.66,4.1l.07.24C7.63,31.26,23.17,43,30.5,47.82,37.84,43,53.36,31.26,55.28,22.66l.06-.24a13.11,13.11,0,0,0,.66-4.1,13.31,13.31,0,0,0-23.57-8.5l-1.92,2.32L28.58,9.83A13.32,13.32,0,0,0,18.31,5Z"/>
</svg>