<svg width="48" height="60" viewBox="0 0 48 60" fill="none" xmlns="http://www.w3.org/2000/svg">
<g clip-path="url(#clip0)">
<path d="M28.4889 8.06122C28.4889 7.8985 28.4789 7.73818 28.4587 7.58074L20.9486 7.57642C20.9285 7.7353 20.9179 7.89706 20.9179 8.06122C20.9179 10.1521 22.6128 11.847 24.7037 11.847C26.7945 11.847 28.4889 10.1521 28.4889 8.06122Z" fill="#73C795"/>
<path d="M18.4877 7.22413H30.911C31.1722 7.22413 31.3838 7.01245 31.3838 6.75133C31.3838 6.49021 31.1722 6.27853 30.911 6.27853H28.6051V5.16781C28.6051 3.67261 27.4474 2.45581 26.0237 2.45581H23.375C21.9514 2.45581 20.7936 3.67261 20.7936 5.16781V6.27853H18.4872C18.2261 6.27853 18.0144 6.49021 18.0144 6.75133C18.0149 7.01245 18.2261 7.22413 18.4877 7.22413ZM21.6538 5.16781C21.6538 4.14637 22.4261 3.31501 23.3755 3.31501H26.0242C26.9736 3.31501 27.7459 4.14589 27.7459 5.16781V6.27853H21.6538V5.16781Z" fill="#73C795"/>
<path d="M38.4331 7.83617C38.2373 7.83617 38.0784 7.99505 38.0784 8.19089V12.5642C38.0784 13.1507 37.6008 13.6279 37.0147 13.6279H36.1872V8.19041C36.1872 7.99457 36.0283 7.83569 35.8325 7.83569C35.6367 7.83569 35.4778 7.99457 35.4778 8.19041V13.6279H34.6503C34.0637 13.6279 33.5866 13.1507 33.5866 12.5642V8.19089C33.5866 7.99505 33.4277 7.83617 33.2319 7.83617C33.036 7.83617 32.8771 7.99505 32.8771 8.19089V12.5642C32.8771 13.5419 33.6725 14.3373 34.6503 14.3373H35.3597V45.1279C35.3597 45.389 35.5714 45.6007 35.8325 45.6007C36.0936 45.6007 36.3053 45.389 36.3053 45.1279V14.3368H37.0147C37.992 14.3368 38.7879 13.5415 38.7879 12.5637V8.19041C38.7879 7.99457 38.629 7.83617 38.4331 7.83617Z" fill="#73C795"/>
<path d="M19.943 18.3908C20.2584 18.0903 20.6179 17.6679 20.76 17.1956C20.8747 16.8164 21.2198 16.562 21.6197 16.562H21.649V13.022H21.227C18.876 13.022 16.9526 14.9453 16.9526 17.2964V29.8383C16.955 29.8383 16.957 29.8383 16.9594 29.8383C16.9594 30.4877 17.4854 31.0143 18.1349 31.0143C18.7838 31.0143 19.3104 30.4877 19.3104 29.8383C19.3114 29.8383 19.3118 29.8383 19.3123 29.8383V18.2429C19.3123 18.0697 19.4539 17.9276 19.6277 17.9276C19.801 17.9276 19.943 18.0692 19.943 18.2429V18.3908Z" fill="#73C795"/>
<path d="M26.9366 13.022H22.4673V16.562H26.9366V13.022Z" fill="#73C795"/>
<path d="M23.7951 23.9882H25.6479C26.0194 23.9882 26.3218 23.6858 26.3218 23.3142V21.0232H23.1216V23.3142C23.1216 23.6858 23.4235 23.9882 23.7951 23.9882Z" fill="#73C795"/>
<path d="M28.248 17.332C28.1947 17.1573 28.0277 17.0349 27.8409 17.0349H21.6192C21.432 17.0349 21.2649 17.1568 21.2121 17.332C20.9832 18.0924 20.3275 18.7096 19.943 19.0207V29.6412V30.0981V31.71V32.4808V43.9332C19.943 44.8495 20.6928 45.5988 21.6086 45.5988H22.2614C23.1902 45.5988 23.9429 44.8461 23.9429 43.9173V33.676V31.9178V28.866C23.9429 28.4781 24.204 28.1104 24.5875 28.0533C25.056 27.9832 25.463 28.349 25.463 28.805V32.2668V33.9525V43.973C25.463 44.8711 26.1912 45.5997 27.0897 45.5997H27.7973C28.7136 45.5997 29.4629 44.85 29.4629 43.9341V33.4394V31.661V25.2621C29.4629 25.2602 29.4633 25.2583 29.4633 25.2564V18.9765C29.0736 18.653 28.4669 18.0583 28.248 17.332ZM26.7264 23.3143C26.7264 23.909 26.2425 24.3924 25.6483 24.3924H23.7955C23.2013 24.3924 22.7174 23.9085 22.7174 23.3143V20.6191H26.7264V23.3143Z" fill="#73C795"/>
<path d="M32.4538 20.7121V17.2954C32.4538 14.9449 30.5309 13.022 28.1803 13.022H27.7555V16.562H27.8405C28.2403 16.562 28.5859 16.8164 28.7002 17.1951C28.8346 17.6415 29.1619 18.0433 29.4634 18.3394V18.1201C29.5114 18.0073 29.6237 17.9276 29.7533 17.9276C29.9266 17.9276 30.0686 18.0692 30.0686 18.2429V18.8468L30.0701 18.8477L30.0686 18.8501V22.1957C30.0686 22.849 30.5981 23.3785 31.2514 23.3785H32.4538C32.4538 23.3698 32.4538 23.3607 32.4538 23.3516H34.8475V20.9665H32.7082C32.568 20.9665 32.4538 20.8527 32.4538 20.7121Z" fill="#73C795"/>
<path d="M36.7387 21.0017V23.3273C37.3339 23.2227 37.7789 22.6822 37.7198 22.0452C37.6709 21.5153 37.248 21.114 36.7387 21.0017Z" fill="#73C795"/>
</g>
<defs>
<clipPath id="clip0">
<rect width="48" height="60" fill="white"/>
</clipPath>
</defs>
</svg>
