<svg width="40" height="40" viewBox="0 0 40 40" fill="none" xmlns="http://www.w3.org/2000/svg">
<path d="M34.3655 8.36264H38.6475C38.9526 8.36264 39.2 8.11524 39.2 7.81012C39.2 7.50499 38.9526 7.2576 38.6475 7.2576H34.3655C34.3532 7.2576 34.343 7.2638 34.3309 7.26458V6.73961C34.3309 6.1293 33.8362 5.63458 33.2259 5.63458H32.7424V1.35257C32.7424 1.04744 32.495 0.800049 32.1899 0.800049C31.8848 0.800049 31.6374 1.04744 31.6374 1.35257V5.63458H28.6792V1.35257C28.6792 1.04744 28.4318 0.800049 28.1267 0.800049C27.8216 0.800049 27.5742 1.04744 27.5742 1.35257V5.63458H24.6157V1.35257C24.6157 1.04744 24.3683 0.800049 24.0632 0.800049C23.7581 0.800049 23.5107 1.04744 23.5107 1.35257V5.63458H20.5525V1.35257C20.5525 1.04744 20.3051 0.800049 20 0.800049C19.6949 0.800049 19.4475 1.04744 19.4475 1.35257V5.63458H16.4893V1.35257C16.4893 1.04744 16.2419 0.800049 15.9368 0.800049C15.6316 0.800049 15.3842 1.04744 15.3842 1.35257V5.63458H12.4258V1.35257C12.4258 1.04744 12.1784 0.800049 11.8733 0.800049C11.5682 0.800049 11.3208 1.04744 11.3208 1.35257V5.63458H8.36258V1.35257C8.36258 1.04744 8.11519 0.800049 7.81006 0.800049C7.50493 0.800049 7.25754 1.04744 7.25754 1.35257V5.63458H6.70502C6.09474 5.63458 5.59999 6.1293 5.59999 6.73961V7.2576H1.35251C1.04738 7.2576 0.799988 7.50499 0.799988 7.81012C0.799988 8.11524 1.04738 8.36264 1.35251 8.36264H5.59999V11.3208H1.35251C1.04738 11.3208 0.799988 11.5682 0.799988 11.8733C0.799988 12.1785 1.04738 12.4259 1.35251 12.4259H5.59999V15.3843H1.35251C1.04738 15.3843 0.799988 15.6317 0.799988 15.9368C0.799988 16.2419 1.04738 16.4893 1.35251 16.4893H5.59999V19.4475H1.35251C1.04738 19.4475 0.799988 19.6949 0.799988 20C0.799988 20.3052 1.04738 20.5526 1.35251 20.5526H5.59999V23.5107H1.35251C1.04738 23.5107 0.799988 23.7581 0.799988 24.0633C0.799988 24.3684 1.04738 24.6158 1.35251 24.6158H5.59999V27.5742H1.35251C1.04738 27.5742 0.799988 27.8216 0.799988 28.1267C0.799988 28.4319 1.04738 28.6793 1.35251 28.6793H5.59999V31.6374H1.35251C1.04738 31.6374 0.799988 31.8848 0.799988 32.19C0.799988 32.4951 1.04738 32.7425 1.35251 32.7425H5.59999V33.2605C5.59999 33.8708 6.09474 34.3655 6.70502 34.3655H7.25754V38.6475C7.25754 38.9526 7.50493 39.2 7.81006 39.2C8.11519 39.2 8.36258 38.9526 8.36258 38.6475V34.3655H11.3208V38.6475C11.3208 38.9526 11.5682 39.2 11.8733 39.2C12.1784 39.2 12.4258 38.9526 12.4258 38.6475V34.3655H15.3842V38.6475C15.3842 38.9526 15.6316 39.2 15.9368 39.2C16.2419 39.2 16.4893 38.9526 16.4893 38.6475V34.3655H19.4475V38.6475C19.4475 38.9526 19.6949 39.2 20 39.2C20.3051 39.2 20.5525 38.9526 20.5525 38.6475V34.3655H23.5107V38.6475C23.5107 38.9526 23.7581 39.2 24.0632 39.2C24.3683 39.2 24.6157 38.9526 24.6157 38.6475V34.3655H27.5742V38.6475C27.5742 38.9526 27.8216 39.2 28.1267 39.2C28.4318 39.2 28.6792 38.9526 28.6792 38.6475V34.3655H31.6374V38.6475C31.6374 38.9526 31.8848 39.2 32.1899 39.2C32.495 39.2 32.7424 38.9526 32.7424 38.6475V34.3655H33.2259C33.8362 34.3655 34.3309 33.8708 34.3309 33.2605V32.7355C34.343 32.7363 34.3532 32.7425 34.3655 32.7425H38.6475C38.9526 32.7425 39.2 32.4951 39.2 32.19C39.2 31.8848 38.9526 31.6374 38.6475 31.6374H34.3655C34.3532 31.6374 34.343 31.6437 34.3309 31.6444V28.6723C34.343 28.6731 34.3532 28.6793 34.3655 28.6793H38.6475C38.9526 28.6793 39.2 28.4319 39.2 28.1267C39.2 27.8216 38.9526 27.5742 38.6475 27.5742H34.3655C34.3532 27.5742 34.343 27.5804 34.3309 27.5812V24.6088C34.343 24.6096 34.3532 24.6158 34.3655 24.6158H38.6475C38.9526 24.6158 39.2 24.3684 39.2 24.0633C39.2 23.7581 38.9526 23.5107 38.6475 23.5107H34.3655C34.3532 23.5107 34.343 23.5169 34.3309 23.5177V20.5456C34.343 20.5464 34.3532 20.5526 34.3655 20.5526H38.6475C38.9526 20.5526 39.2 20.3052 39.2 20C39.2 19.6949 38.9526 19.4475 38.6475 19.4475H34.3655C34.3532 19.4475 34.343 19.4537 34.3309 19.4545V16.4824C34.343 16.4831 34.3532 16.4893 34.3655 16.4893H38.6475C38.9526 16.4893 39.2 16.2419 39.2 15.9368C39.2 15.6317 38.9526 15.3843 38.6475 15.3843H34.3655C34.3532 15.3843 34.343 15.3905 34.3309 15.3913V12.4189C34.343 12.4196 34.3532 12.4259 34.3655 12.4259H38.6475C38.9526 12.4259 39.2 12.1785 39.2 11.8733C39.2 11.5682 38.9526 11.3208 38.6475 11.3208H34.3655C34.3532 11.3208 34.343 11.327 34.3309 11.3278V8.35565C34.343 8.35643 34.3532 8.36264 34.3655 8.36264ZM27.4888 29.9559C25.4469 25.8948 22.1769 20.3875 22.0164 20.1176C21.8259 19.7969 21.4115 19.6917 21.091 19.8826C20.7706 20.0732 20.6654 20.4875 20.8559 20.808C20.8964 20.8761 24.4816 26.914 26.4905 30.9813C19.9828 28.7414 15.602 25.3379 13.4707 20.8443C11.2852 16.2363 12.0531 11.5966 12.6422 9.39071C13.8923 10.8354 15.9753 11.7354 18.1529 12.6763C21.0293 13.9192 24.0038 15.2044 25.5223 17.8197C28.2487 22.5154 28.2636 25.536 27.4888 29.9559Z" fill="#73C795"/>
</svg>
