<svg width="50" height="50" viewBox="0 0 50 50" fill="none" xmlns="http://www.w3.org/2000/svg">
<path d="M30.987 25.398L33.1108 25.2555L33.688 25.2168C33.9884 25.1965 34.2203 24.9543 34.2276 24.6533C34.2344 24.3615 34.0218 24.1095 33.7328 24.0674L33.1144 23.9769L31.0377 23.6731C31.0183 23.6705 30.9988 23.6689 30.9797 23.6689C30.8016 23.6689 30.6421 23.7883 30.603 23.96C30.5367 24.2503 30.4804 24.6892 30.5887 25.1307C30.5887 25.1307 30.5887 25.1307 30.5887 25.1309C30.6292 25.2957 30.8025 25.409 30.987 25.398Z" fill="#73C795"/>
<path d="M16.4062 17.0632C16.4404 17.0632 16.4749 17.0586 16.5087 17.0495C17.0756 16.8956 17.5761 16.7158 17.9688 16.5593V18.0241C17.9688 18.1517 18.0311 18.2713 18.1358 18.3444C18.2022 18.3909 18.2804 18.4148 18.3594 18.4148C18.4048 18.4148 18.4504 18.4069 18.494 18.3907C19.1493 18.15 19.5879 17.972 19.9219 17.8281V20.136C19.9219 20.2733 19.994 20.4003 20.1117 20.4709C20.2291 20.5415 20.3754 20.5451 20.4966 20.4806C22.7459 19.2794 24.7736 18.6446 26.3601 18.6446C28.8185 18.6446 30.0043 19.2361 31.1508 19.8079C32.1905 20.3265 33.2655 20.8627 35.1643 20.8627C39.0781 20.8627 41.5308 19.1428 41.6332 19.0697C41.736 18.9963 41.7969 18.8779 41.7969 18.7518V8.31802C41.7969 8.17173 41.715 8.03764 41.585 7.9707C41.4549 7.90375 41.2985 7.91481 41.1793 8.00026C41.1728 8.00488 40.9768 8.14021 40.625 8.32913V6.69086C40.625 6.54362 40.5415 6.40953 40.4102 6.34296C40.2784 6.2764 40.1205 6.28994 40.0019 6.37711C39.9952 6.3819 39.6878 6.6 39.0625 6.83911V5.00076C39.0625 4.85676 38.982 4.72515 38.855 4.65706C38.728 4.58935 38.5727 4.59755 38.4527 4.67747C38.443 4.68395 37.4517 5.32883 35.3067 5.32883C33.5747 5.32883 32.8457 4.95232 32.0017 4.51649C31.0392 4.01924 29.9482 3.45581 27.2743 3.45581C24.5842 3.45581 19.9224 4.52488 16.2176 6.56822C16.0931 6.63689 16.0156 6.76792 16.0156 6.91021V16.6726C16.0156 16.7943 16.0723 16.9089 16.169 16.9829C16.2378 17.0356 16.3214 17.0632 16.4062 17.0632ZM40.2344 9.38983C40.3738 9.32863 40.5053 9.26831 40.625 9.21009C40.7697 9.13969 40.9009 9.07207 41.0156 9.00982V18.5401C40.4257 18.9044 38.2786 20.0814 35.1643 20.0814C33.4496 20.0814 32.5459 19.6307 31.4997 19.1088C30.3291 18.525 29.0026 17.8633 26.3601 17.8633C24.7858 17.8633 22.8399 18.4254 20.7031 19.4941V17.5346V17.1432V16.7517V14.9356V9.93774C22.8703 8.80726 24.8222 8.21083 26.3601 8.21083C28.8185 8.21083 30.0043 8.8023 31.1508 9.37412C31.4926 9.54462 31.8413 9.71525 32.2188 9.86987C32.9895 10.1856 33.8897 10.4289 35.1643 10.4289C37.1313 10.4289 38.7277 9.99449 39.8438 9.55301C39.9819 9.49839 40.1112 9.44388 40.2344 9.38983ZM39.8438 7.35901V8.70345C38.7987 9.15132 37.187 9.64764 35.1643 9.64764C34.3972 9.64764 33.797 9.5542 33.2691 9.40781C32.617 9.22695 32.0779 8.96349 31.4997 8.67508C30.3291 8.09124 29.0026 7.42958 26.3601 7.42958C24.6456 7.42958 22.4909 8.0962 20.1284 9.35753C20.0014 9.42543 19.9219 9.55799 19.9219 9.70219V15.2793V16.9742C19.6438 17.0995 19.2955 17.2505 18.75 17.4603V16.2215V15.7948V15.5187V8.59459C21.7422 7.19517 24.3021 6.27048 26.984 6.27048C29.3121 6.27048 30.3637 6.78585 31.3807 7.28405C32.3406 7.75459 33.3332 8.24097 35.2564 8.24097C35.5039 8.24097 35.7372 8.23238 35.966 8.22144C37.8828 8.12989 39.1557 7.686 39.8438 7.35901ZM16.7969 7.14233C20.3514 5.23441 24.7326 4.23706 27.2743 4.23706C29.7585 4.23706 30.7165 4.73202 31.6431 5.21057C32.4995 5.65269 33.3849 6.11008 35.3067 6.11008C36.7344 6.11008 37.7115 5.84591 38.2812 5.62332V7.03114C38.2812 7.051 38.2897 7.06804 38.2926 7.08712C37.5407 7.29094 36.5367 7.45972 35.2564 7.45972C33.5144 7.45972 32.6448 7.03361 31.7244 6.58253C30.6786 6.07002 29.4931 5.48923 26.984 5.48923C24.0902 5.48923 21.3766 6.49021 18.1927 7.99339C18.0559 8.05786 17.9688 8.19557 17.9688 8.34663V15.7144C17.6711 15.8411 17.2692 16 16.7969 16.1502V7.14233Z" fill="#73C795"/>
<path d="M13.0859 40.6248C11.8994 40.6248 10.9375 39.6629 10.9375 38.4764C10.9375 37.981 11.1069 37.5261 11.3885 37.1627C10.4618 35.9504 9.93579 34.8137 9.69362 34.2053L6.13818 39.2047C5.29683 40.2904 5.58665 43.1661 9.36892 45.6963C13.1512 48.2265 14.704 45.9525 14.704 45.9525L17.4435 41.3031C16.3444 40.9964 15.3836 40.5597 14.5496 40.046C14.1658 40.4041 13.6522 40.6248 13.0859 40.6248Z" fill="#73C795"/>
<path d="M40.6195 28.9587C40.398 28.7374 40.2761 28.4431 40.2761 28.1301C40.2761 27.8171 40.398 27.5228 40.6195 27.3014L42.9625 24.9584C40.9225 24.058 39.2219 25.7765 39.2219 25.7765L35.5273 29.0965C35.3838 29.2254 35.1979 29.2967 35.0051 29.2967H27.7155C27.5999 29.2967 27.4885 29.2531 27.4036 29.1746L25.4311 27.3514C25.2776 27.2094 25.378 26.9529 25.5871 26.9529H30.8594C31.6026 26.9529 32.2638 26.6059 32.6932 26.0662L31.0394 26.1772C31.0118 26.1791 30.9841 26.1801 30.9568 26.1801C30.4216 26.1801 29.9551 25.8276 29.83 25.3166C29.7138 24.843 29.7176 24.328 29.8412 23.7859C29.9749 23.2015 30.5496 22.813 31.1506 22.9L32.671 23.1224C32.2411 22.5992 31.5893 22.2654 30.8594 22.2654H21.8864C21.8864 22.2654 17.6539 21.6591 13.1512 29.3435L10.234 33.4455C10.2479 33.4697 10.2656 33.491 10.2743 33.5188C10.2832 33.5472 10.7602 35.009 11.9911 36.6302C12.312 36.4394 12.6855 36.3279 13.0859 36.3279C14.2725 36.3279 15.2344 37.2898 15.2344 38.4763C15.2344 38.8099 15.1561 39.1244 15.0205 39.4061C15.8244 39.8998 16.7487 40.3166 17.8085 40.5956C17.8236 40.5996 17.8346 40.6098 17.8487 40.6153L18.5544 39.4176C20.8058 35.5754 25.1316 35.7628 25.1316 35.7628C32.7443 35.7628 36.4752 34.732 36.4752 34.732C36.4752 34.732 39.3037 31.9112 41.3964 29.7125C41.3725 29.6973 41.3463 29.6858 41.326 29.6654L40.6195 28.9587Z" fill="#73C795"/>
<path d="M31.0547 11.7188C29.6524 11.7188 28.5156 12.8555 28.5156 14.2578C28.5156 15.0417 28.8713 15.7422 29.4296 16.2079C29.6009 16.3508 29.7921 16.4698 29.9972 16.564C30.3195 16.7121 30.6768 16.7969 31.0547 16.7969C31.5449 16.7969 32.0011 16.6556 32.3893 16.4149C32.5801 16.2966 32.7537 16.1543 32.9064 15.9912C33.3315 15.5373 33.5938 14.9288 33.5938 14.2578C33.5938 12.8555 32.457 11.7188 31.0547 11.7188Z" fill="#73C795"/>
<path d="M39.6669 10.933C39.5567 10.8611 39.4173 10.8498 39.2965 10.9021C38.7861 11.1252 37.7821 11.2872 37.7722 11.2889C37.5591 11.3228 37.414 11.5231 37.4479 11.736C37.4819 11.9492 37.6835 12.0926 37.895 12.0604C37.9282 12.0551 38.5149 11.9605 39.0625 11.806V15.6074V15.6249C39.0625 15.7862 39.1604 15.9244 39.2999 15.984C39.347 16.0041 39.3987 16.0155 39.4531 16.0155C39.5211 16.0155 39.5818 15.9935 39.6375 15.9629C39.7585 15.8966 39.8438 15.7726 39.8438 15.6249V15.5587V11.2599C39.8438 11.1281 39.7772 11.0051 39.6669 10.933Z" fill="#73C795"/>
<path d="M23.9019 16.0427C23.4188 16.1329 22.9797 16.2664 22.6562 16.3795V14.0765V12.5C22.6562 12.2843 22.4813 12.1094 22.2656 12.1094C22.0499 12.1094 21.875 12.2843 21.875 12.5V14.4202V16.6788V16.951C21.875 16.9919 21.8834 17.0311 21.8955 17.069C21.9227 17.154 21.9767 17.2293 22.0537 17.2791C22.118 17.3204 22.1916 17.3416 22.2658 17.3416C22.3204 17.3416 22.3751 17.3302 22.4264 17.3069C22.4318 17.3046 22.815 17.1345 23.3523 16.9782C23.5643 16.9165 23.7979 16.8568 24.0454 16.8106C24.1988 16.782 24.3119 16.6662 24.3491 16.5246C24.3633 16.4705 24.3686 16.4136 24.3576 16.3549C24.3179 16.1428 24.1148 16.0015 23.9019 16.0427Z" fill="#73C795"/>
<path d="M44.5835 24.9005C44.5204 24.8374 44.4374 24.8059 44.3544 24.8059C44.2715 24.8059 44.1883 24.8374 44.1252 24.9007L43.641 25.3849L41.1718 27.854C41.098 27.9279 41.0574 28.0259 41.0574 28.1302C41.0574 28.2346 41.098 28.3326 41.1718 28.4062L41.5821 28.8167L43.9404 26.1007L44.5992 25.3421C44.7102 25.2143 44.7033 25.0203 44.5835 24.9005Z" fill="#73C795"/>
</svg>
