<svg width="53" height="66" viewBox="0 0 53 66" fill="none" xmlns="http://www.w3.org/2000/svg">
<g clip-path="url(#clip0)">
<path d="M35.5987 41.1585C35.5033 41.1585 35.4103 41.1291 35.3322 41.0744C35.2541 41.0196 35.1948 40.9421 35.1623 40.8525C35.1298 40.7628 35.1257 40.6653 35.1506 40.5732C35.1756 40.4811 35.2282 40.399 35.3015 40.3379C37.6668 38.3634 39.4533 35.7853 40.4714 32.8773C40.5121 32.7612 40.5973 32.666 40.7083 32.6127C40.8192 32.5594 40.9468 32.5523 41.0629 32.5931C41.1791 32.6338 41.2743 32.719 41.3276 32.83C41.3809 32.9409 41.388 33.0685 41.3472 33.1846C40.2735 36.2508 38.3897 38.9691 35.8956 41.0509C35.8124 41.1206 35.7072 41.1586 35.5987 41.1585Z" fill="#73C795"/>
<path d="M42.9041 33.8979C42.8166 33.8979 42.7309 33.8733 42.6569 33.8267C42.5828 33.7801 42.5234 33.7136 42.4855 33.6347L41.492 31.5672C41.4814 31.545 41.4623 31.528 41.4391 31.5199C41.4159 31.5117 41.3905 31.5131 41.3683 31.5238L39.3009 32.5172C39.1901 32.5698 39.0629 32.5765 38.9472 32.5356C38.8315 32.4947 38.7367 32.4097 38.6835 32.2991C38.6303 32.1885 38.6231 32.0614 38.6635 31.9455C38.7038 31.8296 38.7884 31.7344 38.8987 31.6807L40.9662 30.6871C41.2104 30.5701 41.491 30.5547 41.7465 30.6443C42.002 30.734 42.2115 30.9213 42.329 31.1653L43.3225 33.2327C43.3565 33.3035 43.372 33.3817 43.3676 33.46C43.3632 33.5384 43.339 33.6143 43.2972 33.6807C43.2555 33.7472 43.1975 33.802 43.1289 33.8399C43.0602 33.8779 42.983 33.8979 42.9045 33.8979H42.9041Z" fill="#73C795"/>
<path d="M11.0976 20.4435C11.0189 20.4435 10.9414 20.4234 10.8726 20.3852C10.8037 20.3469 10.7458 20.2918 10.7041 20.225C10.6624 20.1582 10.6385 20.0819 10.6344 20.0032C10.6304 19.9246 10.6465 19.8462 10.6811 19.7755C12.1068 16.8562 14.2965 14.3776 17.0176 12.6027C17.1207 12.5356 17.2463 12.5122 17.3668 12.5376C17.4872 12.5631 17.5926 12.6353 17.6597 12.7385C17.7268 12.8416 17.7503 12.9672 17.7248 13.0877C17.6993 13.2081 17.6271 13.3135 17.5239 13.3806C14.9433 15.0639 12.8667 17.4147 11.5147 20.1834C11.4765 20.2614 11.4172 20.3272 11.3434 20.3732C11.2697 20.4192 11.1845 20.4436 11.0976 20.4435Z" fill="#73C795"/>
<path d="M10.4362 22.3558C10.2233 22.3557 10.0158 22.2892 9.84244 22.1655C9.66912 22.0419 9.5387 21.8672 9.46934 21.6659L8.72437 19.4963C8.70459 19.4386 8.69637 19.3776 8.70017 19.3168C8.70396 19.256 8.7197 19.1965 8.74648 19.1417C8.77327 19.087 8.81057 19.0381 8.85627 18.9977C8.90196 18.9574 8.95516 18.9265 9.01281 18.9067C9.07046 18.8869 9.13144 18.8787 9.19227 18.8825C9.2531 18.8863 9.31258 18.902 9.36733 18.9288C9.42207 18.9556 9.47101 18.9929 9.51134 19.0386C9.55167 19.0843 9.5826 19.1375 9.60237 19.1951L10.3466 21.3648C10.3506 21.3764 10.3568 21.387 10.3649 21.3962C10.3729 21.4054 10.3828 21.4129 10.3938 21.4183C10.4048 21.4236 10.4167 21.4268 10.4289 21.4275C10.4411 21.4282 10.4534 21.4265 10.4649 21.4225L12.6346 20.6785C12.6924 20.658 12.7537 20.6492 12.8149 20.6525C12.8762 20.6559 12.9361 20.6714 12.9914 20.6981C13.0466 20.7247 13.096 20.7621 13.1367 20.808C13.1774 20.8539 13.2086 20.9074 13.2285 20.9654C13.2484 21.0234 13.2566 21.0848 13.2526 21.146C13.2486 21.2072 13.2325 21.267 13.2053 21.322C13.1781 21.3769 13.1402 21.426 13.0939 21.4662C13.0476 21.5064 12.9938 21.5371 12.9356 21.5564L10.7662 22.3005C10.66 22.337 10.5485 22.3557 10.4362 22.3558Z" fill="#73C795"/>
<path d="M51.7574 6.22362C51.6254 5.63168 51.0304 5.05006 50.357 5.12637C48.08 5.38831 44.0674 5.66984 43.4012 5.50587C43.0299 5.41512 42.6752 5.34499 42.3307 5.27693C42.1853 5.24806 42.042 5.22021 41.9007 5.19031C41.8718 5.18412 41.843 5.17793 41.8141 5.17277C41.8206 5.02623 41.8095 4.87944 41.7811 4.73552C41.4366 3.00715 39.4535 1.85731 38.2429 2.64827C38.0201 1.62321 36.9899 0.84668 35.7142 0.84668C34.4386 0.84668 33.4053 1.62321 33.1815 2.64827C31.6315 1.63765 28.9173 3.71356 29.6278 6.17721C29.261 6.16494 28.9033 6.29291 28.6275 6.53506C28.4689 6.68765 28.3445 6.87218 28.2625 7.07645C28.1806 7.28071 28.1429 7.50006 28.1521 7.71996C28.1572 8.13762 28.3697 8.54703 28.7492 8.87393C29.0815 9.15469 29.484 9.33971 29.9135 9.40915C29.9022 9.48907 29.8977 9.56979 29.9 9.65046C29.9049 9.87849 29.9605 10.1026 30.063 10.3063C29.8881 10.376 29.7265 10.4754 29.5855 10.6002C29.437 10.7341 29.3199 10.899 29.2425 11.0834C29.1652 11.2677 29.1295 11.4668 29.138 11.6666C29.1436 11.9176 29.2108 12.1634 29.3339 12.3822C29.1824 12.4488 29.0425 12.5389 28.9193 12.6493C28.7709 12.7823 28.6538 12.9466 28.5764 13.1302C28.499 13.3139 28.4633 13.5124 28.4718 13.7115C28.4724 13.9975 28.5582 14.2769 28.7182 14.514C28.8781 14.751 29.105 14.9352 29.37 15.0429C27.8757 16.8053 26.0339 19.2957 26.0339 22.638C26.0339 27.0415 30.525 29.3102 35.6988 29.3133H35.706C40.8829 29.3133 45.377 27.0435 45.377 22.638C45.377 19.3452 43.6456 16.9548 42.1647 15.2017C42.8082 14.9831 43.3238 14.6149 43.824 14.2571C44.0839 14.0714 44.3293 13.8961 44.5881 13.7445C45.0171 13.4929 48.9503 12.605 51.1933 12.1801C51.7244 12.0791 52.0915 11.6284 52.1534 11.0024C52.2679 9.8299 52.0946 7.73027 51.7574 6.22362ZM29.3545 8.17062C29.2801 8.11555 29.2174 8.04611 29.1703 7.96639C29.1232 7.88668 29.0926 7.79833 29.0802 7.70656C29.0733 7.61869 29.0849 7.53036 29.1142 7.44724C29.1435 7.36412 29.1899 7.28805 29.2504 7.22393C29.3597 7.12493 29.657 7.03831 30.029 7.05996C30.0382 7.07543 30.0475 7.0909 30.0578 7.10637C30.3107 7.4996 30.5249 7.91646 30.6972 8.35109C30.637 8.38148 30.5788 8.41569 30.5229 8.45349C30.4256 8.49822 30.3195 8.52062 30.2124 8.51908C29.8928 8.51513 29.5864 8.39069 29.3545 8.17062ZM30.2816 14.2436C30.1592 14.2625 30.0344 14.2611 29.9124 14.2395C29.8751 14.2328 29.8383 14.2238 29.8021 14.2127C29.6845 14.1847 29.5802 14.117 29.5067 14.021C29.4333 13.925 29.3952 13.8066 29.3989 13.6857C29.3944 13.6205 29.405 13.5552 29.4298 13.4947C29.4547 13.4343 29.4931 13.3804 29.5422 13.3372C29.6979 13.1959 29.964 13.1196 30.2806 13.1196C30.375 13.1206 30.4694 13.1268 30.5631 13.1382C30.7034 13.1588 30.9261 13.4382 30.9272 13.7342C30.9282 14.0106 30.7106 14.1818 30.2816 14.2436ZM30.954 12.1946C30.9519 12.1946 30.9499 12.1956 30.9478 12.1956C30.8322 12.2121 30.7148 12.2121 30.5992 12.1956C30.3631 12.1616 30.0774 12.0368 30.065 11.6377C30.0606 11.5725 30.0712 11.5071 30.096 11.4467C30.1209 11.3862 30.1593 11.3323 30.2084 11.2891C30.3641 11.1478 30.6291 11.0715 30.9447 11.0715C30.9886 11.0715 31.0952 11.0807 31.168 11.0874C31.2424 11.093 31.3127 11.1235 31.3677 11.1739C31.5047 11.3099 31.5844 11.4932 31.5903 11.6862C31.5923 11.9625 31.3758 12.1347 30.954 12.1946ZM31.7037 10.1764C31.5133 10.1998 31.3201 10.1783 31.1396 10.1135C31.0435 10.0729 30.9621 10.004 30.9062 9.91592C30.8504 9.82782 30.8228 9.72477 30.8271 9.62056C30.8226 9.56208 30.8309 9.50332 30.8516 9.44843C30.8723 9.39354 30.9048 9.34387 30.9468 9.30293C30.9509 9.29984 30.9777 9.27199 30.989 9.26271C31.1597 9.13657 31.3648 9.06568 31.5769 9.05956C31.7156 9.05236 31.8547 9.05754 31.9925 9.07503C32.1327 9.09565 32.3544 9.37512 32.3555 9.67006C32.3565 9.94437 32.1431 10.1448 31.7037 10.1764ZM35.8662 18.5308C37.0047 18.5308 37.931 19.343 37.931 20.3414C37.931 21.1974 37.2457 21.915 36.3303 22.0999V22.8251C36.3303 22.9482 36.2814 23.0662 36.1944 23.1532C36.1074 23.2403 35.9893 23.2892 35.8662 23.2892C35.7432 23.2892 35.6251 23.2403 35.5381 23.1532C35.4511 23.0662 35.4022 22.9482 35.4022 22.8251V22.0997C34.4891 21.9141 33.8058 21.1973 33.8058 20.3414C33.8058 20.2184 33.8547 20.1003 33.9417 20.0133C34.0288 19.9263 34.1468 19.8774 34.2699 19.8774C34.3929 19.8774 34.511 19.9263 34.598 20.0133C34.685 20.1003 34.7339 20.2184 34.7339 20.3414C34.7339 20.8256 35.2419 21.2195 35.8662 21.2195C36.493 21.2195 37.0029 20.8256 37.0029 20.3414C37.0029 19.8548 36.493 19.4589 35.8662 19.4589C34.7301 19.4589 33.8058 18.6486 33.8058 17.6528C33.8058 16.7948 34.4891 16.0758 35.4022 15.8901V15.1691C35.4022 15.046 35.4511 14.928 35.5381 14.841C35.6251 14.7539 35.7432 14.705 35.8662 14.705C35.9893 14.705 36.1074 14.7539 36.1944 14.841C36.2814 14.928 36.3303 15.046 36.3303 15.1691V15.8898C37.2457 16.0755 37.931 16.7943 37.931 17.6533C37.931 17.7764 37.8821 17.8944 37.7951 17.9814C37.7081 18.0684 37.59 18.1173 37.4669 18.1173C37.3439 18.1173 37.2258 18.0684 37.1388 17.9814C37.0518 17.8944 37.0029 17.7764 37.0029 17.6533C37.0029 17.1666 36.493 16.7707 35.8662 16.7707C35.2419 16.7707 34.7339 17.1666 34.7339 17.6533C34.7339 18.1369 35.2419 18.5308 35.8662 18.5308ZM51.2294 10.9117C51.2222 10.987 51.185 11.2365 51.0211 11.2685C50.2353 11.417 44.8625 12.5039 44.1179 12.9443C43.825 13.1155 43.5497 13.3124 43.2846 13.5022C42.7752 13.8662 42.2946 14.2096 41.714 14.3695C41.6471 14.3879 41.5851 14.421 41.5325 14.4664C41.45 14.3715 41.3696 14.2787 41.2923 14.188C41.2871 14.1818 41.2809 14.1746 41.2747 14.1684C40.4304 13.2051 39.9362 11.9849 39.8722 10.7055C39.9163 10.729 39.9614 10.7518 40.0074 10.7737C40.0163 10.778 40.5484 10.9712 40.633 10.994C40.8485 11.0492 41.0705 11.0753 41.293 11.0716C41.5477 11.0428 41.7571 10.8639 41.7571 10.6076C41.7571 10.4845 41.7082 10.3665 41.6211 10.2794C41.5341 10.1924 41.4161 10.1435 41.293 10.1435C40.9976 10.1144 40.7069 10.0488 40.4276 9.94818C40.3116 9.89572 40.2006 9.83291 40.0959 9.7605H40.0952C40.0379 9.72255 39.9799 9.68161 39.9214 9.63768C39.8779 9.60519 39.8336 9.57044 39.7888 9.53455C39.7825 9.52939 39.7762 9.52424 39.7699 9.51918C39.725 9.48247 39.6795 9.44387 39.6335 9.40337L39.6314 9.40162C39.4005 9.19331 39.1809 8.96035 38.9675 8.73461C38.3508 8.0808 37.7135 7.40327 36.8401 7.46617C36.0821 7.52289 34.8961 7.81783 34.5517 7.90755C34.2132 8.00816 33.8492 7.97799 33.5318 7.82298C33.2791 7.68789 33.1688 7.49402 33.1729 7.37233C33.1781 7.2197 33.3647 7.11348 33.4751 7.06398C33.87 6.88661 34.2186 6.71852 34.5249 6.57002C35.5644 6.06677 36.2512 5.73367 37.5619 5.61714C38.7334 5.51298 39.9627 5.73367 41.5508 6.06676C41.6044 6.07708 41.6581 6.08842 41.7117 6.09976C41.8561 6.12967 42.0035 6.15958 42.152 6.18845C42.4851 6.25445 42.8306 6.32252 43.1802 6.40811C44.1279 6.64014 48.7118 6.25136 50.4639 6.04923C50.5918 6.03273 50.8063 6.21939 50.8527 6.4277C51.1655 7.82824 51.3346 9.84021 51.2294 10.9117Z" fill="#73C795"/>
<path d="M24.8452 29.3566C24.2197 28.889 22.8911 28.0399 21.553 28.0954C20.6158 28.1341 19.8174 28.7427 19.3857 29.159C19.3673 29.177 19.3551 29.2004 19.3509 29.2259C19.3467 29.2513 19.3508 29.2775 19.3625 29.3004C19.3742 29.3234 19.393 29.342 19.416 29.3536C19.4391 29.3651 19.4652 29.369 19.4906 29.3646C21.6469 28.9934 22.4194 29.1131 22.7042 29.3282C22.7173 29.3382 22.7269 29.3521 22.7318 29.3678C22.7367 29.3835 22.7366 29.4004 22.7315 29.416C22.7264 29.4317 22.7165 29.4453 22.7033 29.4552C22.6901 29.465 22.6742 29.4705 22.6577 29.4709C22.1234 29.4859 20.8239 29.4452 19.4068 29.9899C19.3796 30.0001 19.3554 30.0168 19.3362 30.0387C19.3171 30.0605 19.3036 30.0867 19.2971 30.115C19.2905 30.1433 19.2911 30.1728 19.2987 30.2008C19.3063 30.2288 19.3207 30.2545 19.3407 30.2756C19.7829 30.7369 20.5225 31.4914 21.6919 31.4429C23.0254 31.3876 24.2769 30.4728 24.8648 29.9734C24.9099 29.9349 24.9458 29.8868 24.9698 29.8326C24.9938 29.7784 25.0052 29.7195 25.0034 29.6603C25.0015 29.601 24.9863 29.543 24.9589 29.4904C24.9315 29.4378 24.8927 29.3921 24.8452 29.3566Z" fill="#73C795"/>
<path d="M24.553 46.5601C24.5333 46.3208 24.4597 46.089 24.3377 45.8822C24.2157 45.6754 24.0486 45.4989 23.8487 45.3659C23.452 45.1154 22.9937 44.9797 22.5246 44.974C23.2452 43.9895 23.7469 42.8622 23.9962 41.6678C24.8449 37.6449 22.6865 33.8746 18.8977 32.2515C19.0284 31.6706 19.1091 31.0796 19.139 30.4849C19.1777 29.8355 19.1504 29.1839 19.0575 28.54C19.0091 28.2084 18.9283 27.8823 18.8162 27.5665C18.6986 27.218 18.4999 26.9024 18.2366 26.6456C18.1754 26.5894 18.0947 26.5594 18.0117 26.5619C17.9287 26.5644 17.85 26.5992 17.7923 26.6589C17.7346 26.7187 17.7025 26.7986 17.7029 26.8816C17.7032 26.9646 17.736 27.0442 17.7942 27.1035L17.8076 27.1179C17.981 27.3102 18.1083 27.5394 18.1799 27.7882C18.2651 28.0649 18.3235 28.3491 18.3542 28.6369C18.4154 29.2324 18.4168 29.8325 18.3583 30.4282C18.3125 30.9413 18.226 31.4499 18.0995 31.9493C18.0974 31.9586 17.6387 33.5759 17.5356 33.6877L17.7447 33.6901C17.8066 33.6859 17.8695 33.6849 17.9314 33.6787C17.9943 33.6746 18.0562 33.6674 18.117 33.6601L18.2892 33.6395L18.3449 33.6333C18.4295 33.6229 18.5151 33.6429 18.5862 33.69C18.6574 33.737 18.7094 33.8079 18.7329 33.8898C18.7564 33.9718 18.7498 34.0594 18.7145 34.137C18.6791 34.2146 18.6171 34.277 18.5398 34.3129C18.4637 34.35 18.3855 34.3827 18.3057 34.4109C18.2304 34.4398 18.1541 34.4604 18.0778 34.4821C17.9244 34.5222 17.7683 34.5512 17.6107 34.5687C17.2895 34.6032 16.9649 34.5875 16.6485 34.5223C16.4878 34.4892 16.3299 34.4437 16.1762 34.3861C16.0245 34.3242 15.8783 34.2496 15.7389 34.1634C15.4625 33.9951 15.2203 33.7761 15.0253 33.5178C14.9725 33.4511 14.945 33.3678 14.9477 33.2828C14.9503 33.1977 14.9831 33.1163 15.04 33.0531C15.097 32.9898 15.1745 32.9488 15.2588 32.9372C15.3431 32.9256 15.4288 32.9443 15.5007 32.9898L15.5378 33.0136C15.7377 33.1544 15.9484 33.2792 16.1679 33.3869C16.2746 33.4384 16.3841 33.4838 16.4959 33.523C16.5082 33.5271 16.5907 33.5614 16.6031 33.5655C16.7181 33.3809 16.8234 33.1905 16.9187 32.995C17.0416 32.7354 17.1426 32.466 17.2208 32.1896C17.2652 32.0411 17.3033 31.8905 17.3384 31.7379C17.2394 31.7142 17.1404 31.6884 17.0393 31.6678C12.0893 30.6231 7.61578 33.3456 6.633 38.0017C6.27081 39.676 6.42544 41.4208 7.07644 43.0053C6.84853 43.1023 6.63403 43.1992 6.43397 43.2941C5.18822 43.884 1.58091 46.3301 0.654844 47.778C0.475458 48.0398 0.397725 48.3581 0.436219 48.6731C0.548625 49.6806 3.07313 52.0814 3.93731 52.3619C4.08435 52.4109 4.23814 52.4366 4.39312 52.4382C4.65854 52.4347 4.91695 52.3525 5.13562 52.202C5.28 52.1092 5.45841 51.9669 5.66466 51.8019C6.13903 51.4214 6.78975 50.8996 7.4085 50.682C8.57381 50.2726 10.361 50.4035 11.7975 50.5087C12.4596 50.5572 13.0319 50.5984 13.4908 50.5881C15.6791 50.5355 22.9123 48.7143 24.1488 47.5975C24.2912 47.4671 24.4017 47.3058 24.4718 47.1259C24.5419 46.946 24.5697 46.7524 24.553 46.5601ZM12.8442 36.5435C12.8669 36.4873 12.9032 36.4376 12.95 36.3989C12.9967 36.3603 13.0524 36.3339 13.1119 36.3223C13.1714 36.3106 13.2329 36.314 13.2908 36.3321C13.3487 36.3502 13.4011 36.3825 13.4434 36.426C13.4892 36.4833 13.5117 36.5559 13.5063 36.6291C13.5029 36.7053 13.4742 36.7781 13.4247 36.836C13.3752 36.8939 13.3077 36.9336 13.233 36.9488C13.1779 36.9615 13.1204 36.9596 13.0661 36.9435C13.0119 36.9273 12.9628 36.8973 12.9236 36.8565C12.8845 36.8156 12.8565 36.7653 12.8426 36.7105C12.8287 36.6556 12.8293 36.5981 12.8442 36.5435ZM11.1354 36.8632C11.1581 36.807 11.1945 36.7573 11.2412 36.7186C11.288 36.68 11.3436 36.6536 11.4031 36.642C11.4626 36.6303 11.5241 36.6336 11.582 36.6518C11.6399 36.6699 11.6923 36.7021 11.7346 36.7457C11.7804 36.803 11.8029 36.8756 11.7975 36.9488C11.7936 37.0249 11.7645 37.0976 11.7149 37.1554C11.6652 37.2133 11.5978 37.253 11.5232 37.2685C11.4681 37.2811 11.4107 37.2791 11.3566 37.2629C11.3025 37.2466 11.2535 37.2166 11.2144 37.1758C11.1753 37.135 11.1475 37.0847 11.1337 37.0299C11.1199 36.9751 11.1205 36.9177 11.1354 36.8632ZM11.4592 39.3104C11.4552 39.3864 11.426 39.459 11.3764 39.5168C11.3268 39.5747 11.2595 39.6145 11.1849 39.6301C11.1297 39.6427 11.0722 39.6407 11.018 39.6244C10.9638 39.6081 10.9147 39.578 10.8756 39.5371C10.8365 39.4961 10.8088 39.4457 10.795 39.3908C10.7813 39.3358 10.782 39.2783 10.7972 39.2237C10.8198 39.1676 10.8562 39.118 10.9029 39.0794C10.9496 39.0409 11.0052 39.0146 11.0646 39.003C11.124 38.9914 11.1854 38.9949 11.2432 39.0131C11.301 39.0313 11.3532 39.0637 11.3953 39.1072C11.4414 39.1645 11.4643 39.237 11.4592 39.3104ZM10.4579 35.2596C10.4806 35.2034 10.5171 35.1538 10.5639 35.1152C10.6107 35.0766 10.6663 35.0504 10.7259 35.0388C10.7854 35.0272 10.8469 35.0307 10.9047 35.0489C10.9625 35.0671 11.0149 35.0995 11.0571 35.1431C11.1029 35.2005 11.1253 35.273 11.12 35.3462C11.1163 35.4223 11.0874 35.4949 11.038 35.5528C10.9885 35.6107 10.9212 35.6505 10.8467 35.6659C10.7914 35.6786 10.7339 35.6767 10.6796 35.6604C10.6253 35.6441 10.5762 35.614 10.537 35.5731C10.4978 35.5321 10.47 35.4817 10.4561 35.4268C10.4422 35.3719 10.4428 35.3142 10.4579 35.2596ZM9.15441 37.5016C9.17715 37.4453 9.21357 37.3957 9.26036 37.3571C9.30716 37.3186 9.36285 37.2923 9.42237 37.2807C9.48189 37.2692 9.54336 37.2726 9.6012 37.2909C9.65904 37.3091 9.71141 37.3414 9.75356 37.385C9.79968 37.4423 9.82251 37.5148 9.8175 37.5882C9.81341 37.6643 9.78429 37.7368 9.73468 37.7947C9.68508 37.8525 9.61775 37.8923 9.54319 37.9079C9.48795 37.9205 9.43037 37.9186 9.37609 37.9023C9.32182 37.886 9.27269 37.856 9.23351 37.815C9.19433 37.7741 9.16645 37.7237 9.15259 37.6687C9.13872 37.6138 9.13935 37.5562 9.15441 37.5016ZM23.5269 46.9086C22.5452 47.7955 15.5616 49.6095 13.4681 49.66C13.0546 49.6703 12.4771 49.628 11.8656 49.5827C10.3434 49.4713 8.448 49.3331 7.10016 49.8064C6.33291 50.0766 5.61103 50.6552 5.08406 51.0769C4.89844 51.2254 4.73756 51.3543 4.63341 51.4214C4.57654 51.4671 4.50833 51.4965 4.43604 51.5065C4.36375 51.5165 4.29011 51.5067 4.22297 51.4781C3.564 51.2657 1.42313 49.0907 1.35919 48.57C1.35178 48.5186 1.35481 48.4663 1.3681 48.4162C1.38139 48.366 1.40466 48.3191 1.43653 48.2781C2.20584 47.0757 5.56875 44.7306 6.831 44.1335C7.96537 43.5962 9.5865 42.9672 11.6449 42.9672C12.3485 42.9683 13.0501 43.0402 13.7393 43.1817C15.3842 43.5158 17.6168 44.148 18.1634 44.4347C18.5027 44.6141 18.6739 44.9121 18.6213 45.2339C18.5969 45.3796 18.5258 45.5135 18.4186 45.6153C18.3115 45.7171 18.1741 45.7812 18.0273 45.798C17.5467 45.8722 16.9362 45.7846 16.2896 45.6917C15.1852 45.5319 13.9322 45.3525 12.8772 45.9403C12.7876 45.9906 12.7171 46.0691 12.6768 46.1637C12.6366 46.2583 12.6288 46.3636 12.6547 46.463C12.6807 46.5625 12.7388 46.6506 12.8201 46.7135C12.9014 46.7764 13.0013 46.8105 13.1041 46.8107C13.1833 46.8105 13.2611 46.7899 13.3299 46.7508C14.1106 46.3157 15.1511 46.4652 16.1576 46.6106C16.8671 46.7127 17.5374 46.8086 18.149 46.7178H18.1531C18.7277 46.6314 19.2961 46.5077 19.8547 46.3476C21.1365 46.0145 22.5895 45.6381 23.331 46.1362C23.4131 46.1913 23.4821 46.2637 23.5333 46.3483C23.5844 46.433 23.6164 46.5278 23.627 46.6261C23.6339 46.6777 23.6285 46.7303 23.6111 46.7794C23.5937 46.8286 23.5648 46.8728 23.5269 46.9086Z" fill="#73C795"/>
</g>
<defs>
<clipPath id="clip0">
<rect width="52.8" height="66" fill="white"/>
</clipPath>
</defs>
</svg>
