<svg width="80" height="81" viewBox="0 0 80 81" fill="none" xmlns="http://www.w3.org/2000/svg">
<path d="M0.958079 46.6042C1.41108 46.6242 46.6841 48.8962 78.2931 80.5052C78.4881 80.7002 78.7441 80.7982 79.0001 80.7982C79.2561 80.7982 79.5121 80.7002 79.7071 80.5052C80.0981 80.1142 80.0981 79.4822 79.7071 79.0912C75.3891 74.7732 70.8201 70.9982 66.1461 67.6892C70.4031 66.1832 74.7941 64.8542 79.2401 63.7542C79.7761 63.6212 80.1031 63.0792 79.9701 62.5432C79.8371 62.0062 79.2941 61.6792 78.7591 61.8132C73.7771 63.0462 68.8541 64.5512 64.1161 66.2842C61.5961 64.5832 59.0531 63.0162 56.5061 61.5702C63.8011 58.8202 71.4211 56.6572 79.1901 55.1512C79.7321 55.0462 80.0861 54.5212 79.9811 53.9792C79.8761 53.4372 79.3571 53.0812 78.8091 53.1872C70.3661 54.8242 62.0911 57.2172 54.2131 60.2992C51.3091 58.7332 48.4111 57.3202 45.5511 56.0492C58.9261 50.5172 71.1201 48.0342 79.1351 46.9292C79.6821 46.8532 80.0651 46.3492 79.9891 45.8022C79.9151 45.2562 79.4211 44.8712 78.8621 44.9482C70.3731 46.1182 57.2691 48.8052 43.0001 54.9502C39.6671 53.5522 36.4011 52.3392 33.2541 51.2912C57.0021 40.2182 78.8181 39.1682 79.0411 39.1592C79.5931 39.1362 80.0211 38.6692 79.9981 38.1182C79.9751 37.5662 79.5041 37.1542 78.9571 37.1612C78.7231 37.1712 55.3411 38.2832 30.4771 50.3982C13.8971 45.2472 1.28108 44.6172 1.04108 44.6072C0.501079 44.5932 0.0230791 45.0122 7.90705e-05 45.5642C-0.0219209 46.1152 0.406079 46.5812 0.958079 46.6042Z" fill="white"/>
<path d="M64.1161 80.7988C64.4071 80.7988 64.6951 80.6728 64.8921 80.4298C65.2411 80.0008 65.1761 79.3708 64.7471 79.0228C41.7511 60.3128 15.0211 54.3078 1.13612 52.3928C0.577124 52.3148 0.0831241 52.7008 0.00912408 53.2468C-0.0668759 53.7938 0.316124 54.2988 0.863124 54.3738C14.5421 56.2598 40.8671 62.1708 63.4861 80.5738C63.6721 80.7258 63.8951 80.7988 64.1161 80.7988Z" fill="white"/>
<path d="M0.809916 62.598C12.5429 64.872 30.0419 69.848 46.7799 80.639C46.9479 80.747 47.1349 80.799 47.3209 80.799C47.6489 80.799 47.9709 80.637 48.1629 80.341C48.4619 79.877 48.3279 79.258 47.8639 78.959C30.8579 67.994 13.0969 62.942 1.18992 60.634C0.649915 60.533 0.123915 60.884 0.0179152 61.426C-0.0870848 61.968 0.267916 62.492 0.809916 62.598Z" fill="white"/>
<path d="M0.759975 71.2011C10.149 73.5231 19.111 76.7451 27.397 80.7761C27.538 80.8441 27.687 80.8771 27.834 80.8771C28.205 80.8771 28.562 80.6701 28.734 80.3151C28.975 79.8181 28.769 79.2201 28.272 78.9781C19.86 74.8861 10.765 71.6171 1.24097 69.2611C0.705975 69.1281 0.162974 69.4551 0.0299744 69.9911C-0.104026 70.5261 0.223975 71.0681 0.759975 71.2011Z" fill="white"/>
<path d="M48.3171 18.1811C48.3171 13.2081 44.2711 9.16211 39.2971 9.16211C34.3241 9.16211 30.2781 13.2081 30.2781 18.1811C30.2781 23.1541 34.3241 27.2001 39.2971 27.2001C44.2711 27.1991 48.3171 23.1531 48.3171 18.1811ZM39.2981 25.1991C35.4281 25.1991 32.2791 22.0511 32.2791 18.1801C32.2791 14.3091 35.4271 11.1611 39.2981 11.1611C43.1691 11.1611 46.3181 14.3091 46.3181 18.1801C46.3181 22.0511 43.1681 25.1991 39.2981 25.1991Z" fill="white"/>
<path d="M39.2979 6.29895C39.8509 6.29895 40.2979 5.85095 40.2979 5.29895V1.87695C40.2979 1.32495 39.8509 0.876953 39.2979 0.876953C38.7449 0.876953 38.2979 1.32495 38.2979 1.87695V5.29895C38.2979 5.85095 38.7449 6.29895 39.2979 6.29895Z" fill="white"/>
<path d="M33.1449 6.81906C33.3109 7.19206 33.6759 7.41306 34.0599 7.41306C34.1959 7.41306 34.3329 7.38506 34.4649 7.32606C34.9699 7.10106 35.1959 6.51106 34.9729 6.00606L33.5809 2.88006C33.3559 2.37606 32.7669 2.15106 32.2609 2.37306C31.7559 2.59806 31.5299 3.18806 31.7529 3.69306L33.1449 6.81906Z" fill="white"/>
<path d="M29.0571 10.3042C29.2471 10.4762 29.4871 10.5612 29.7261 10.5612C29.9991 10.5612 30.2721 10.4502 30.4691 10.2302C30.8381 9.82019 30.8051 9.18819 30.3951 8.81819L27.8521 6.52819C27.4441 6.15919 26.8091 6.19019 26.4401 6.60219C26.0711 7.01219 26.1041 7.64419 26.5141 8.01419L29.0571 10.3042Z" fill="white"/>
<path d="M23.4829 14.0941L26.7379 15.1521C26.8409 15.1851 26.9439 15.2011 27.0469 15.2011C27.4689 15.2011 27.8599 14.9321 27.9979 14.5101C28.1689 13.9851 27.8809 13.4211 27.3549 13.2501L24.0999 12.1921C23.5749 12.0231 23.0109 12.3091 22.8399 12.8341C22.6699 13.3591 22.9579 13.9231 23.4829 14.0941Z" fill="white"/>
<path d="M23.0829 20.8852C23.1169 20.8852 23.1529 20.8832 23.1879 20.8802L26.5909 20.5232C27.1399 20.4652 27.5379 19.9732 27.4809 19.4242C27.4229 18.8762 26.9379 18.4772 26.3819 18.5342L22.9789 18.8912C22.4299 18.9492 22.0319 19.4412 22.0889 19.9902C22.1439 20.5032 22.5769 20.8852 23.0829 20.8852Z" fill="white"/>
<path d="M29.0089 24.1218C28.7319 23.6428 28.1189 23.4798 27.6429 23.7558L24.6789 25.4668C24.1999 25.7428 24.0359 26.3548 24.3129 26.8328C24.4989 27.1538 24.8339 27.3328 25.1799 27.3328C25.3499 27.3328 25.5219 27.2898 25.6789 27.1988L28.6429 25.4878C29.1209 25.2108 29.2849 24.5998 29.0089 24.1218Z" fill="white"/>
<path d="M29.7139 32.3709C30.0239 32.3709 30.3279 32.2279 30.5239 31.9589L32.5359 29.1899C32.8609 28.7429 32.7619 28.1179 32.3149 27.7929C31.8679 27.4679 31.2419 27.5669 30.9189 28.0139L28.9069 30.7829C28.5819 31.2299 28.6809 31.8549 29.1279 32.1799C29.3049 32.3089 29.5099 32.3709 29.7139 32.3709Z" fill="white"/>
<path d="M35.642 30.5732L34.93 33.9202C34.816 34.4602 35.16 34.9912 35.701 35.1062C35.771 35.1212 35.841 35.1282 35.91 35.1282C36.372 35.1282 36.787 34.8062 36.888 34.3362L37.6 30.9882C37.714 30.4482 37.37 29.9172 36.829 29.8022C36.287 29.6862 35.758 30.0322 35.642 30.5732Z" fill="white"/>
<path d="M41.7691 29.8028C41.2291 29.9178 40.8841 30.4488 40.9981 30.9888L41.7101 34.3368C41.8111 34.8068 42.2261 35.1288 42.6881 35.1288C42.7571 35.1288 42.8271 35.1218 42.8971 35.1068C43.4371 34.9918 43.7821 34.4608 43.6681 33.9208L42.9561 30.5728C42.8391 30.0318 42.3061 29.6848 41.7691 29.8028Z" fill="white"/>
<path d="M48.0729 31.9582C48.2679 32.2272 48.5729 32.3702 48.8829 32.3702C49.0869 32.3702 49.2919 32.3082 49.4699 32.1792C49.9159 31.8542 50.0159 31.2292 49.6909 30.7822L47.6789 28.0132C47.3549 27.5672 46.7299 27.4682 46.2829 27.7922C45.8369 28.1172 45.7369 28.7422 46.0619 29.1892L48.0729 31.9582Z" fill="white"/>
<path d="M52.9181 27.1991C53.0751 27.2901 53.2471 27.3331 53.4171 27.3331C53.7631 27.3331 54.0991 27.1541 54.2841 26.8331C54.5601 26.3541 54.3961 25.7431 53.9181 25.4671L50.9541 23.7561C50.4761 23.4801 49.8641 23.6441 49.5881 24.1221C49.3121 24.6001 49.4761 25.2121 49.9541 25.4881L52.9181 27.1991Z" fill="white"/>
<path d="M52.214 18.5328C51.67 18.4788 51.173 18.8728 51.115 19.4228C51.057 19.9718 51.456 20.4648 52.005 20.5218L55.408 20.8788C55.443 20.8818 55.478 20.8838 55.513 20.8838C56.019 20.8838 56.452 20.5018 56.506 19.9878C56.564 19.4388 56.165 18.9458 55.616 18.8888L52.214 18.5328Z" fill="white"/>
<path d="M50.5991 14.509C50.7371 14.931 51.1281 15.2 51.5501 15.2C51.6531 15.2 51.7561 15.184 51.8591 15.151L55.1141 14.093C55.6391 13.922 55.9271 13.358 55.7571 12.833C55.5861 12.308 55.0211 12.021 54.4971 12.191L51.2421 13.249C50.7161 13.42 50.4281 13.984 50.5991 14.509Z" fill="white"/>
<path d="M48.8711 10.5611C49.1091 10.5611 49.3501 10.4761 49.5401 10.3041L52.0831 8.0141C52.4931 7.6441 52.5261 7.0121 52.1571 6.6021C51.7881 6.1901 51.1531 6.1581 50.7451 6.5281L48.2021 8.8181C47.7921 9.1881 47.7591 9.8201 48.1281 10.2301C48.3251 10.4501 48.5981 10.5611 48.8711 10.5611Z" fill="white"/>
<path d="M44.1319 7.326C44.2639 7.385 44.4019 7.413 44.5369 7.413C44.9209 7.413 45.2859 7.192 45.4519 6.819L46.8439 3.693C47.0679 3.188 46.8409 2.597 46.3359 2.373C45.8319 2.15 45.2409 2.376 45.0159 2.88L43.6239 6.006C43.3999 6.511 43.6269 7.102 44.1319 7.326Z" fill="white"/>
</svg>
