<svg width="109" height="109" viewBox="0 0 109 109" fill="none" xmlns="http://www.w3.org/2000/svg">
<path fill-rule="evenodd" clip-rule="evenodd" d="M54.4438 108.286C84.2672 108.286 108.444 84.1095 108.444 54.2861C108.444 24.4628 84.2672 0.286133 54.4438 0.286133C24.6205 0.286133 0.443848 24.4628 0.443848 54.2861C0.443848 84.1095 24.6205 108.286 54.4438 108.286Z" fill="#79EDEC"/>
<path d="M26.7438 74.486L28.0438 74.286L31.9438 73.986C36.0859 73.9641 40.1823 74.8516 43.9438 76.586C46.834 77.9258 49.4724 79.7524 51.7438 81.986C51.8298 82.1006 51.9394 82.1954 52.0652 82.264C52.191 82.3326 52.33 82.3734 52.4729 82.3835C52.6159 82.3937 52.7593 82.373 52.8935 82.3229C53.0277 82.2728 53.1496 82.1944 53.2509 82.0931C53.3522 81.9918 53.4306 81.8699 53.4807 81.7357C53.5308 81.6015 53.5515 81.458 53.5413 81.3151C53.5312 81.1722 53.4904 81.0332 53.4218 80.9074C53.3533 80.7816 53.2585 80.672 53.1438 80.586C50.7283 78.1934 47.9211 76.2317 44.8438 74.786C40.794 72.9504 36.3899 72.0286 31.9438 72.086L27.7438 72.286L26.4438 72.486C26.1786 72.5258 25.9401 72.6693 25.7807 72.885C25.6213 73.1007 25.5541 73.3708 25.5938 73.636C25.6336 73.9012 25.7771 74.1398 25.9928 74.2992C26.2085 74.4586 26.4786 74.5258 26.7438 74.486Z" fill="#00B0AF"/>
<path d="M26.8439 64.086C34.1213 63.2476 41.4892 64.4236 48.1439 67.486C54.831 70.6862 60.5058 75.669 64.5439 81.886C64.6371 82.0102 64.7578 82.111 64.8967 82.1805C65.0355 82.2499 65.1887 82.286 65.3439 82.286L65.9439 82.086C66.0568 82.0149 66.1544 81.922 66.2308 81.8126C66.3073 81.7033 66.361 81.5797 66.389 81.4493C66.417 81.3188 66.4185 81.1841 66.3936 81.053C66.3687 80.9219 66.3178 80.7971 66.2439 80.686C61.9659 74.1907 55.9799 69.0005 48.9439 65.686C41.9489 62.4539 34.1994 61.2085 26.5439 62.086C26.2787 62.1125 26.0349 62.2433 25.8661 62.4496C25.6973 62.6559 25.6174 62.9208 25.6439 63.186C25.6704 63.4512 25.8012 63.6951 26.0075 63.8638C26.2138 64.0326 26.4787 64.1125 26.7439 64.086H26.8439Z" fill="#00B0AF"/>
<path d="M82.5439 54.3862C82.6752 54.3994 82.8078 54.3865 82.9342 54.3484C83.0606 54.3103 83.1782 54.2476 83.2803 54.1641C83.3824 54.0805 83.4671 53.9776 83.5295 53.8613C83.5919 53.745 83.6308 53.6176 83.6439 53.4862C83.657 53.3549 83.6442 53.2223 83.6061 53.0959C83.5679 52.9696 83.5053 52.852 83.4217 52.7498C83.3382 52.6477 83.2353 52.563 83.119 52.5006C83.0027 52.4382 82.8752 52.3994 82.7439 52.3862C78.6212 51.9277 74.4586 51.9613 70.3439 52.4862V45.2862C73.0391 45.1634 75.5836 44.0078 77.4496 42.0591C79.3156 40.1105 80.3599 37.5183 80.3658 34.8203C80.3718 32.1223 79.339 29.5256 77.4816 27.5687C75.6242 25.6118 73.0848 24.445 70.3902 24.3102C67.6956 24.1755 65.0525 25.0832 63.0092 26.845C60.9659 28.6069 59.6791 31.0877 59.4159 33.7728C59.1527 36.4579 59.9332 39.1414 61.5956 41.2664C63.2579 43.3915 65.6744 44.7952 68.3439 45.1862V52.7862C64.0235 53.5293 59.8203 54.8406 55.8439 56.6862L54.4439 57.3862L53.0439 56.6862C50.6204 55.5865 48.1123 54.6836 45.5439 53.9862C46.116 53.5023 46.555 52.8803 46.8194 52.1792C47.0837 51.4781 47.1647 50.7211 47.0545 49.9799C46.9443 49.2388 46.6467 48.538 46.1898 47.9441C45.733 47.3502 45.132 46.8828 44.4439 46.5862V43.2862C44.4439 43.021 44.3386 42.7667 44.151 42.5791C43.9635 42.3916 43.7091 42.2862 43.4439 42.2862H39.4439V37.2862C39.4439 37.021 39.3386 36.7667 39.151 36.5791C38.9635 36.3916 38.7091 36.2862 38.4439 36.2862H29.4439C29.1787 36.2862 28.9243 36.3916 28.7368 36.5791C28.5493 36.7667 28.4439 37.021 28.4439 37.2862V43.4862C27.6681 43.8791 26.9965 44.4504 26.4843 45.1531C25.972 45.8558 25.6337 46.67 25.4971 47.5288C25.3604 48.3876 25.4294 49.2666 25.6983 50.0936C25.9672 50.9206 26.4283 51.672 27.0439 52.2862H26.0439C25.7787 52.3128 25.5349 52.4436 25.3661 52.6498C25.1973 52.8561 25.1174 53.121 25.1439 53.3862C25.1704 53.6515 25.3012 53.8953 25.5075 54.0641C25.7138 54.2328 25.9787 54.3128 26.2439 54.2862C35.1223 53.256 44.1134 54.6739 52.2439 58.3862C62.6006 63.2906 70.9396 71.6296 75.8439 81.9862C75.9206 82.162 76.0462 82.312 76.2058 82.4184C76.3654 82.5248 76.5521 82.5831 76.7439 82.5862H77.1439C77.3799 82.4771 77.5641 82.2803 77.6574 82.0376C77.7508 81.7949 77.7459 81.5254 77.6439 81.2862C76.5221 78.858 75.2184 76.518 73.7439 74.2862C76.2012 73.9829 78.6866 73.9829 81.1439 74.2862L82.6439 74.4862H82.7439C82.8752 74.4928 83.0066 74.4734 83.1304 74.4293C83.2542 74.3851 83.3682 74.3169 83.4657 74.2287C83.5632 74.1405 83.6423 74.0339 83.6987 73.9151C83.755 73.7963 83.7873 73.6676 83.7939 73.5362C83.8005 73.4049 83.7811 73.2736 83.7369 73.1498C83.6927 73.0259 83.6246 72.912 83.5364 72.8145C83.4482 72.717 83.3416 72.6378 83.2228 72.5815C83.104 72.5252 82.9752 72.4928 82.8439 72.4862L81.3439 72.2862C78.387 71.9061 75.3915 71.9398 72.4439 72.3862C70.5857 69.9071 68.5109 67.5981 66.2439 65.4862C71.4948 63.9346 77.0047 63.4585 82.4439 64.0862C82.5752 64.0994 82.7079 64.0865 82.8342 64.0484C82.9606 64.0103 83.0782 63.9476 83.1803 63.8641C83.2824 63.7805 83.3671 63.6776 83.4295 63.5613C83.4919 63.445 83.5308 63.3176 83.5439 63.1862C83.557 63.0549 83.5442 62.9223 83.5061 62.7959C83.4679 62.6696 83.4053 62.552 83.3217 62.4498C83.2382 62.3477 83.1353 62.263 83.019 62.2006C82.9027 62.1382 82.7752 62.0994 82.6439 62.0862C76.5112 61.3905 70.3006 62.0389 64.4439 63.9862C62.0224 61.9412 59.4105 60.1329 56.6439 58.5862H56.7439C64.8049 54.8759 73.7222 53.4242 82.5439 54.3862ZM61.4439 34.7862C61.4468 33.127 61.9352 31.5049 62.8489 30.12C63.7627 28.735 65.0618 27.6478 66.586 26.9923C68.1103 26.3369 69.7931 26.1418 71.4268 26.4313C73.0606 26.7208 74.5739 27.4821 75.7802 28.6214C76.9865 29.7606 77.8329 31.228 78.2152 32.8426C78.5975 34.4572 78.4989 36.1483 77.9315 37.7075C77.3641 39.2667 76.3528 40.6258 75.0223 41.6171C73.6918 42.6084 72.1002 43.1886 70.4439 43.2862V40.2862L74.8439 38.1862C75.0826 38.0669 75.2641 37.8576 75.3485 37.6044C75.4329 37.3513 75.4132 37.0749 75.2939 36.8362C75.1746 36.5975 74.9653 36.416 74.7121 36.3316C74.4589 36.2473 74.1826 36.2669 73.9439 36.3862L70.4439 38.0862V31.2862C70.4439 31.021 70.3386 30.7667 70.151 30.5791C69.9635 30.3916 69.7091 30.2862 69.4439 30.2862C69.1787 30.2862 68.9243 30.3916 68.7368 30.5791C68.5493 30.7667 68.4439 31.021 68.4439 31.2862V35.1862L64.7439 33.3862C64.6257 33.3271 64.497 33.2919 64.3652 33.2825C64.2334 33.2732 64.1011 33.2899 63.9757 33.3316C63.8503 33.3734 63.7344 33.4395 63.6346 33.5261C63.5348 33.6127 63.453 33.7181 63.3939 33.8362C63.2746 34.0749 63.2549 34.3513 63.3393 34.6044C63.4237 34.8576 63.6052 35.0669 63.8439 35.1862L68.4439 37.3862V43.1862C66.4754 42.8333 64.6943 41.7976 63.414 40.2612C62.1336 38.7248 61.4361 36.7862 61.4439 34.7862ZM36.0439 50.2862H38.4439C38.4439 50.3862 38.4439 50.4862 38.4439 50.5862C38.4341 51.2415 38.5708 51.8906 38.8439 52.4862L34.9439 52.0862C35.4233 51.5628 35.7968 50.9516 36.0439 50.2862ZM45.1439 50.5862C45.1439 51.0609 45.0031 51.5249 44.7394 51.9196C44.4757 52.3143 44.1009 52.6219 43.6623 52.8036C43.2238 52.9852 42.7412 53.0327 42.2757 52.9401C41.8101 52.8475 41.3825 52.6189 41.0469 52.2833C40.7112 51.9477 40.4826 51.52 40.39 51.0545C40.2974 50.5889 40.3449 50.1063 40.5266 49.6678C40.7082 49.2293 41.0159 48.8544 41.4105 48.5907C41.8052 48.327 42.2692 48.1862 42.7439 48.1862C43.0674 48.1728 43.3903 48.2249 43.6931 48.3394C43.9959 48.454 44.2724 48.6286 44.506 48.8528C44.7395 49.077 44.9253 49.3462 45.0521 49.6441C45.179 49.942 45.2442 50.2625 45.2439 50.5862H45.1439ZM30.4439 38.2862H37.4439V43.2862C37.4439 43.5515 37.5493 43.8058 37.7368 43.9934C37.9243 44.1809 38.1787 44.2862 38.4439 44.2862H42.4439V46.2862C41.778 46.347 41.1348 46.5586 40.563 46.9052C39.9912 47.2517 39.5058 47.7241 39.1439 48.2862H36.4439C36.4177 46.845 35.8267 45.4716 34.7981 44.4616C33.7694 43.4517 32.3854 42.886 30.9439 42.8862H30.4439V38.2862ZM30.9439 44.8862C31.6361 44.8862 32.3128 45.0915 32.8884 45.4761C33.464 45.8607 33.9126 46.4073 34.1775 47.0469C34.4424 47.6864 34.5117 48.3901 34.3767 49.0691C34.2416 49.748 33.9083 50.3716 33.4188 50.8611C32.9293 51.3506 32.3057 51.6839 31.6267 51.819C30.9478 51.954 30.2441 51.8847 29.6045 51.6198C28.965 51.3549 28.4183 50.9063 28.0338 50.3307C27.6492 49.7552 27.4439 49.0785 27.4439 48.3862C27.4439 47.458 27.8127 46.5677 28.469 45.9114C29.1254 45.255 30.0156 44.8862 30.9439 44.8862Z" fill="#00B0AF"/>
<path d="M30.9438 49.3862C31.4961 49.3862 31.9438 48.9385 31.9438 48.3862C31.9438 47.8339 31.4961 47.3862 30.9438 47.3862C30.3916 47.3862 29.9438 47.8339 29.9438 48.3862C29.9438 48.9385 30.3916 49.3862 30.9438 49.3862Z" fill="#00B0AF"/>
<path d="M42.8439 51.5862C43.3962 51.5862 43.8439 51.1385 43.8439 50.5862C43.8439 50.0339 43.3962 49.5862 42.8439 49.5862C42.2916 49.5862 41.8439 50.0339 41.8439 50.5862C41.8439 51.1385 42.2916 51.5862 42.8439 51.5862Z" fill="#00B0AF"/>
</svg>
