<svg width="80" height="81" viewBox="0 0 80 81" fill="none" xmlns="http://www.w3.org/2000/svg">
<path d="M0.958812 46.604C1.41181 46.624 46.6848 48.896 78.2938 80.505C78.4888 80.7 78.7448 80.798 79.0008 80.798C79.2568 80.798 79.5128 80.7 79.7078 80.505C80.0988 80.114 80.0988 79.482 79.7078 79.091C75.3898 74.773 70.8208 70.998 66.1468 67.689C70.4038 66.183 74.7948 64.854 79.2408 63.754C79.7768 63.621 80.1038 63.079 79.9708 62.543C79.8378 62.006 79.2948 61.679 78.7598 61.813C73.7778 63.046 68.8548 64.551 64.1168 66.284C61.5968 64.583 59.0538 63.016 56.5068 61.57C63.8018 58.82 71.4218 56.657 79.1908 55.151C79.7328 55.046 80.0868 54.521 79.9818 53.979C79.8768 53.437 79.3578 53.081 78.8098 53.187C70.3668 54.824 62.0918 57.217 54.2138 60.299C51.3098 58.733 48.4118 57.32 45.5518 56.049C58.9268 50.517 71.1208 48.034 79.1358 46.929C79.6828 46.853 80.0658 46.349 79.9898 45.802C79.9158 45.256 79.4218 44.871 78.8628 44.948C70.3738 46.118 57.2698 48.805 43.0008 54.95C39.6678 53.552 36.4018 52.339 33.2548 51.291C57.0028 40.218 78.8188 39.168 79.0418 39.159C79.5938 39.136 80.0218 38.669 79.9988 38.118C79.9758 37.566 79.5048 37.154 78.9578 37.161C78.7238 37.171 55.3418 38.283 30.4778 50.398C13.8978 45.247 1.28181 44.617 1.04181 44.607C0.501812 44.593 0.0238115 45.012 0.000811492 45.564C-0.0211885 46.115 0.406812 46.581 0.958812 46.604Z" fill="#039D9C"/>
<path d="M64.1169 80.7988C64.4079 80.7988 64.6959 80.6728 64.8929 80.4298C65.2419 80.0008 65.1769 79.3708 64.7479 79.0228C41.7519 60.3128 15.0219 54.3078 1.13686 52.3928C0.577856 52.3148 0.0838565 52.7008 0.0098565 53.2468C-0.0661435 53.7938 0.316857 54.2988 0.863857 54.3738C14.5429 56.2598 40.8679 62.1708 63.4869 80.5738C63.6729 80.7258 63.8959 80.7988 64.1169 80.7988Z" fill="#039D9C"/>
<path d="M0.810893 62.598C12.5439 64.872 30.0429 69.848 46.7809 80.639C46.9489 80.747 47.1359 80.799 47.3219 80.799C47.6499 80.799 47.9719 80.637 48.1639 80.341C48.4629 79.877 48.3289 79.258 47.8649 78.959C30.8589 67.994 13.0979 62.942 1.19089 60.634C0.650892 60.533 0.124892 60.884 0.0188918 61.426C-0.0861082 61.968 0.268893 62.492 0.810893 62.598Z" fill="#039D9C"/>
<path d="M0.760829 71.2008C10.1498 73.5228 19.1118 76.7448 27.3978 80.7758C27.5388 80.8438 27.6878 80.8768 27.8348 80.8768C28.2058 80.8768 28.5628 80.6698 28.7348 80.3148C28.9758 79.8179 28.7698 79.2198 28.2728 78.9778C19.8608 74.8858 10.7658 71.6168 1.24183 69.2608C0.706829 69.1278 0.163829 69.4548 0.0308289 69.9908C-0.103171 70.5258 0.224829 71.0678 0.760829 71.2008Z" fill="#039D9C"/>
<path d="M48.3179 18.1809C48.3179 13.2079 44.2719 9.16187 39.2979 9.16187C34.3249 9.16187 30.2789 13.2079 30.2789 18.1809C30.2789 23.1539 34.3249 27.1999 39.2979 27.1999C44.2719 27.1989 48.3179 23.1529 48.3179 18.1809ZM39.2989 25.1989C35.4289 25.1989 32.2799 22.0509 32.2799 18.1799C32.2799 14.3089 35.4279 11.1609 39.2989 11.1609C43.1699 11.1609 46.3189 14.3089 46.3189 18.1799C46.3189 22.0509 43.1689 25.1989 39.2989 25.1989Z" fill="#039D9C"/>
<path d="M39.2988 6.29895C39.8518 6.29895 40.2988 5.85095 40.2988 5.29895V1.87695C40.2988 1.32495 39.8518 0.876953 39.2988 0.876953C38.7458 0.876953 38.2988 1.32495 38.2988 1.87695V5.29895C38.2988 5.85095 38.7458 6.29895 39.2988 6.29895Z" fill="#039D9C"/>
<path d="M33.1458 6.81906C33.3118 7.19206 33.6768 7.41306 34.0608 7.41306C34.1968 7.41306 34.3338 7.38506 34.4658 7.32606C34.9708 7.10106 35.1968 6.51106 34.9738 6.00606L33.5818 2.88006C33.3568 2.37606 32.7678 2.15106 32.2618 2.37306C31.7568 2.59806 31.5308 3.18806 31.7538 3.69306L33.1458 6.81906Z" fill="#039D9C"/>
<path d="M29.0578 10.304C29.2478 10.476 29.4878 10.561 29.7268 10.561C29.9998 10.561 30.2728 10.4499 30.4698 10.2299C30.8388 9.81995 30.8058 9.18795 30.3958 8.81795L27.8528 6.52795C27.4448 6.15895 26.8098 6.18995 26.4408 6.60195C26.0718 7.01195 26.1048 7.64395 26.5148 8.01395L29.0578 10.304Z" fill="#039D9C"/>
<path d="M23.4838 14.0939L26.7388 15.1519C26.8418 15.1849 26.9448 15.2009 27.0478 15.2009C27.4698 15.2009 27.8608 14.9319 27.9988 14.5099C28.1698 13.9849 27.8818 13.4209 27.3558 13.2499L24.1008 12.1919C23.5758 12.0229 23.0118 12.3089 22.8408 12.8339C22.6708 13.3589 22.9588 13.9229 23.4838 14.0939Z" fill="#039D9C"/>
<path d="M23.0838 20.885C23.1178 20.885 23.1538 20.883 23.1888 20.88L26.5918 20.523C27.1408 20.465 27.5388 19.973 27.4818 19.424C27.4238 18.876 26.9388 18.477 26.3828 18.534L22.9798 18.891C22.4308 18.949 22.0328 19.441 22.0898 19.99C22.1448 20.503 22.5778 20.885 23.0838 20.885Z" fill="#039D9C"/>
<path d="M29.0099 24.1221C28.7329 23.6431 28.1199 23.4801 27.6439 23.7561L24.6799 25.4671C24.2009 25.7431 24.0369 26.3551 24.3139 26.8331C24.4999 27.1541 24.8349 27.3331 25.1809 27.3331C25.3509 27.3331 25.5229 27.2901 25.6799 27.1991L28.6439 25.4881C29.1219 25.2111 29.2859 24.6001 29.0099 24.1221Z" fill="#039D9C"/>
<path d="M29.7148 32.3709C30.0248 32.3709 30.3288 32.2279 30.5248 31.9589L32.5368 29.1899C32.8618 28.7429 32.7628 28.1179 32.3158 27.7929C31.8688 27.4679 31.2428 27.5669 30.9198 28.0139L28.9078 30.7829C28.5828 31.2299 28.6818 31.8549 29.1288 32.1799C29.3058 32.3089 29.5108 32.3709 29.7148 32.3709Z" fill="#039D9C"/>
<path d="M35.6429 30.5729L34.9309 33.9199C34.8169 34.4599 35.1609 34.9909 35.7019 35.1059C35.7719 35.1209 35.8419 35.1279 35.9109 35.1279C36.3729 35.1279 36.7879 34.8059 36.8889 34.3359L37.6009 30.9879C37.7149 30.4479 37.3709 29.9169 36.8299 29.8019C36.2879 29.6859 35.7589 30.0319 35.6429 30.5729Z" fill="#039D9C"/>
<path d="M41.7698 29.8031C41.2298 29.9181 40.8848 30.4491 40.9988 30.9891L41.7108 34.3371C41.8118 34.8071 42.2268 35.1291 42.6888 35.1291C42.7578 35.1291 42.8278 35.1221 42.8978 35.1071C43.4378 34.9921 43.7828 34.4611 43.6688 33.9211L42.9568 30.5731C42.8398 30.0321 42.3068 29.6851 41.7698 29.8031Z" fill="#039D9C"/>
<path d="M48.0739 31.958C48.2689 32.227 48.5739 32.37 48.8839 32.37C49.0879 32.37 49.2929 32.308 49.4709 32.179C49.9169 31.854 50.0169 31.229 49.6919 30.782L47.6799 28.013C47.3559 27.567 46.7309 27.468 46.2839 27.792C45.8379 28.117 45.7379 28.742 46.0629 29.189L48.0739 31.958Z" fill="#039D9C"/>
<path d="M52.9189 27.1988C53.0759 27.2898 53.2479 27.3328 53.4179 27.3328C53.7639 27.3328 54.0999 27.1538 54.2849 26.8328C54.5609 26.3538 54.3969 25.7428 53.9189 25.4668L50.9549 23.7558C50.4769 23.4798 49.8649 23.6438 49.5889 24.1218C49.3129 24.5998 49.4769 25.2118 49.9549 25.4878L52.9189 27.1988Z" fill="#039D9C"/>
<path d="M52.2148 18.533C51.6708 18.479 51.1738 18.873 51.1158 19.423C51.0578 19.972 51.4568 20.465 52.0058 20.522L55.4088 20.879C55.4438 20.882 55.4788 20.884 55.5138 20.884C56.0198 20.884 56.4528 20.502 56.5068 19.988C56.5648 19.439 56.1658 18.946 55.6168 18.889L52.2148 18.533Z" fill="#039D9C"/>
<path d="M50.5999 14.509C50.7379 14.931 51.1289 15.2 51.5509 15.2C51.6539 15.2 51.7569 15.184 51.8599 15.151L55.1149 14.093C55.6399 13.922 55.9279 13.358 55.7579 12.833C55.5869 12.308 55.0219 12.021 54.4979 12.191L51.2429 13.249C50.7169 13.42 50.4289 13.984 50.5999 14.509Z" fill="#039D9C"/>
<path d="M48.8718 10.5609C49.1098 10.5609 49.3508 10.4759 49.5408 10.3039L52.0838 8.01386C52.4938 7.64386 52.5268 7.01186 52.1578 6.60186C51.7888 6.18986 51.1538 6.15786 50.7458 6.52786L48.2028 8.81786C47.7928 9.18786 47.7598 9.81986 48.1288 10.2299C48.3258 10.4499 48.5988 10.5609 48.8718 10.5609Z" fill="#039D9C"/>
<path d="M44.1329 7.326C44.2649 7.385 44.4029 7.413 44.5379 7.413C44.9219 7.413 45.2869 7.192 45.4529 6.819L46.8449 3.693C47.0689 3.188 46.8419 2.597 46.3369 2.373C45.8329 2.15 45.2419 2.376 45.0169 2.88L43.6249 6.006C43.4009 6.511 43.6279 7.102 44.1329 7.326Z" fill="#039D9C"/>
</svg>
