<svg width="81" height="81" viewBox="0 0 81 81" fill="none" xmlns="http://www.w3.org/2000/svg">
<path d="M2.06558 68.8938L3.98704 68.6193L9.33967 68.2076C15.0245 68.1774 20.6467 69.3956 25.8093 71.776C29.776 73.6148 33.3971 76.1218 36.5145 79.1873C36.7788 79.3856 37.1058 79.4818 37.4353 79.4584C37.7649 79.435 38.0749 79.2935 38.3085 79.0598C38.5421 78.8262 38.6836 78.5162 38.707 78.1867C38.7305 77.8571 38.6342 77.5302 38.436 77.2659C35.1207 73.982 31.268 71.2897 27.0445 69.3056C21.4863 66.7863 15.4417 65.5211 9.33967 65.5999L3.5753 65.8744L1.79109 66.1489C1.42709 66.2035 1.09969 66.4005 0.880905 66.6965C0.662126 66.9924 0.569891 67.3632 0.624491 67.7272C0.679091 68.0912 0.876054 68.4186 1.17205 68.6374C1.46805 68.8562 1.83883 68.9484 2.20283 68.8938H2.06558Z" fill="#039D9C"/>
<path d="M2.20284 54.62C12.1908 53.4692 22.303 55.0834 31.4364 59.2864C40.6646 63.6576 48.5026 70.498 54.0822 79.0499C54.21 79.2204 54.3758 79.3588 54.5664 79.454C54.7569 79.5493 54.9671 79.5989 55.1801 79.5989L56.0036 79.3244C56.1586 79.2269 56.2925 79.0993 56.3974 78.9492C56.5023 78.7991 56.5761 78.6296 56.6145 78.4505C56.6529 78.2714 56.655 78.0865 56.6208 77.9066C56.5866 77.7267 56.5168 77.5555 56.4154 77.403C50.5439 68.4883 42.3284 61.365 32.6716 56.816C23.0712 52.38 12.4353 50.6706 1.92835 51.8751C1.56435 51.9115 1.22972 52.091 0.998067 52.3741C0.766418 52.6572 0.656729 53.0208 0.693129 53.3848C0.729529 53.7488 0.909037 54.0834 1.19216 54.3151C1.47529 54.5467 1.83884 54.6564 2.20284 54.62V54.62Z" fill="#039D9C"/>
<path d="M78.7866 41.3071C78.9668 41.3251 79.1488 41.3075 79.3222 41.2552C79.4956 41.2029 79.657 41.1169 79.7972 41.0022C79.9374 40.8875 80.0536 40.7463 80.1393 40.5867C80.2249 40.4271 80.2782 40.2521 80.2963 40.0719C80.3143 39.8917 80.2966 39.7096 80.2443 39.5362C80.192 39.3628 80.106 39.2014 79.9913 39.0612C79.8766 38.921 79.7354 38.8048 79.5758 38.7192C79.4162 38.6336 79.2413 38.5802 79.061 38.5622L74.6691 38.1504V27.5824L77.9631 30.0529L78.7866 30.3274C79.0746 30.3274 79.3554 30.2367 79.589 30.0683C79.8227 29.8999 79.9975 29.6622 80.0886 29.3889C80.1797 29.1156 80.1825 28.8206 80.0966 28.5457C80.0107 28.2707 79.8405 28.0298 79.61 27.8569L64.5129 16.8772C64.2753 16.699 63.9864 16.6027 63.6894 16.6027C63.3924 16.6027 63.1035 16.699 62.8659 16.8772L47.7688 27.8569C47.4776 28.0753 47.285 28.4005 47.2336 28.7608C47.1821 29.1212 47.2759 29.4872 47.4943 29.7784C47.7127 30.0696 48.0378 30.2621 48.3981 30.3136C48.7585 30.3651 49.1245 30.2713 49.4157 30.0529L52.7096 27.5824V40.7581C49.1338 41.7526 45.6452 43.0379 42.2789 44.601L40.3574 45.5618L38.436 44.601C32.5222 41.7958 26.2362 39.8545 19.7704 38.8367V28.8177C23.4695 28.6491 26.9617 27.063 29.5227 24.3886C32.0838 21.7141 33.517 18.1564 33.5252 14.4535C33.5334 10.7506 32.1158 7.1866 29.5666 4.50084C27.0175 1.81508 23.5323 0.213653 19.8339 0.0287375C16.1356 -0.156178 12.5081 1.08961 9.70369 3.50769C6.89931 5.92577 5.13335 9.33057 4.77211 13.0158C4.41088 16.7011 5.48209 20.384 7.76356 23.3006C10.045 26.2172 13.3616 28.1437 17.0255 28.6804V38.5622C11.7803 37.982 6.48721 37.982 1.24207 38.5622C0.87807 38.5986 0.543437 38.7781 0.311788 39.0612C0.0801391 39.3443 -0.0295506 39.7079 0.00684956 40.0719C0.0432497 40.4359 0.222758 40.7705 0.505884 41.0022C0.789011 41.2338 1.15256 41.3435 1.51657 41.3071C13.7019 39.8932 26.0419 41.8391 37.2008 46.9342C51.3922 53.6307 62.8343 65.0244 69.591 79.1873C69.6963 79.4285 69.8687 79.6344 70.0877 79.7804C70.3067 79.9264 70.5631 80.0064 70.8262 80.0107H71.3752C71.6991 79.8609 71.9519 79.5908 72.08 79.2578C72.2082 78.9247 72.2015 78.5548 72.0615 78.2265C70.4776 74.8896 68.6424 71.6779 66.5716 68.6193C69.9442 68.2029 73.3552 68.2029 76.7279 68.6193L78.7866 68.8937H78.9238C79.104 68.9028 79.2843 68.8762 79.4542 68.8155C79.6242 68.7549 79.7806 68.6614 79.9144 68.5403C80.0482 68.4192 80.1569 68.273 80.2342 68.1099C80.3115 67.9468 80.3559 67.7701 80.3649 67.5899C80.3739 67.4097 80.3473 67.2294 80.2867 67.0595C80.226 66.8895 80.1325 66.7331 80.0114 66.5993C79.8904 66.4655 79.7441 66.3568 79.581 66.2795C79.418 66.2022 79.2413 66.1578 79.061 66.1488L77.1396 65.8743C73.0813 65.3526 68.9702 65.3988 64.9246 66.0116C62.3743 62.6091 59.5267 59.4399 56.4153 56.5415C63.6212 54.4083 71.1842 53.7547 78.6493 54.6201C78.8295 54.6381 79.0116 54.6204 79.185 54.5681C79.3584 54.5158 79.5198 54.4298 79.66 54.3151C79.8002 54.2004 79.9164 54.0592 80.002 53.8996C80.0877 53.74 80.141 53.5651 80.159 53.3849C80.177 53.2046 80.1594 53.0226 80.1071 52.8492C80.0547 52.6758 79.9688 52.5144 79.8541 52.3742C79.7394 52.234 79.5982 52.1178 79.4386 52.0321C79.279 51.9465 79.104 51.8932 78.9238 51.8751C70.5169 50.8761 61.9932 51.7191 53.9449 54.3456C50.6215 51.5388 47.0366 49.057 43.2396 46.9342H43.3769C54.4534 41.8888 66.6916 39.9439 78.7866 41.3071V41.3071ZM66.4343 38.2877L60.9445 38.8367V32.9351H66.4343V38.2877ZM55.4546 25.5237L63.6894 19.4849L71.9242 25.5237V38.1504H69.1793V31.5626C69.1793 31.1986 69.0347 30.8495 68.7773 30.5921C68.5199 30.3347 68.1708 30.1901 67.8068 30.1901H59.572C59.208 30.1901 58.8589 30.3347 58.6015 30.5921C58.3441 30.8495 58.1995 31.1986 58.1995 31.5626V39.3857L55.4546 39.9347V25.5237ZM7.41818 14.4067C7.42212 12.1295 8.09246 9.90324 9.34654 8.00244C10.6006 6.10164 12.3836 4.60944 14.4756 3.70984C16.5676 2.81023 18.8771 2.54258 21.1194 2.93987C23.3617 3.33715 25.4387 4.38202 27.0943 5.94561C28.7499 7.50921 29.9116 9.52316 30.4363 11.7391C30.9609 13.9551 30.8256 16.2761 30.0469 18.4161C29.2682 20.556 27.8802 22.4213 26.0541 23.7819C24.228 25.1424 22.0437 25.9388 19.7704 26.0727V21.9553L25.8093 19.0731C25.9715 18.992 26.1161 18.8798 26.2349 18.7428C26.3538 18.6057 26.4445 18.4467 26.5018 18.2746C26.5592 18.1026 26.5821 17.9209 26.5692 17.74C26.5563 17.5591 26.508 17.3825 26.4269 17.2203C26.3458 17.0581 26.2335 16.9134 26.0965 16.7946C25.9595 16.6758 25.8004 16.5851 25.6284 16.5278C25.4563 16.4704 25.2747 16.4475 25.0938 16.4604C24.9129 16.4732 24.7363 16.5216 24.574 16.6027L19.7704 18.9359V9.6031C19.7704 9.23909 19.6258 8.89 19.3684 8.63261C19.111 8.37523 18.7619 8.23063 18.3979 8.23063C18.0339 8.23063 17.6848 8.37523 17.4274 8.63261C17.1701 8.89 17.0255 9.23909 17.0255 9.6031V14.9557L11.9473 12.4853C11.7851 12.4042 11.6085 12.3558 11.4276 12.343C11.2467 12.3301 11.0651 12.353 10.893 12.4104C10.7209 12.4677 10.5619 12.5584 10.4249 12.6772C10.2879 12.796 10.1756 12.9407 10.0945 13.1029C10.0134 13.2651 9.96503 13.4417 9.95217 13.6226C9.93931 13.8035 9.96222 13.9852 10.0196 14.1572C10.0769 14.3293 10.1676 14.4883 10.2864 14.6253C10.4052 14.7624 10.5499 14.8746 10.7121 14.9557L17.0255 17.9752V25.9355C14.3237 25.4511 11.8792 24.0296 10.122 21.9209C8.36481 19.8123 7.4074 17.1516 7.41818 14.4067V14.4067Z" fill="#039D9C"/>
</svg>
