<svg width="36" height="40" viewBox="0 0 36 40" fill="none" xmlns="http://www.w3.org/2000/svg">
<path d="M25.2007 20.0567V39.2332H0.280518V6.06247H17.4359C18.6344 3.69949 20.7939 1.83598 23.5537 1.09613C28.7015 -0.283222 34.0091 2.78162 35.3885 7.92938C36.6828 12.7602 34.0754 17.7209 29.498 19.4602L29.9499 21.1457C30.6444 21.2756 31.2725 21.7541 31.5169 22.6657L33.1462 28.7449C33.8685 31.4413 29.7923 32.5332 29.0694 29.8368L27.4406 23.7576C27.1963 22.8454 27.5013 22.1169 28.0387 21.6571L27.5875 19.9722C26.7841 20.102 25.9836 20.127 25.2007 20.0567ZM16.7057 7.98211H2.20016V37.3136H23.281V19.6853C22.0343 19.31 20.875 18.6869 19.8755 17.8575H7.56448V15.9379H18.1129C17.7166 15.3676 17.3781 14.7479 17.1082 14.0857H4.24055V10.0231H16.3973C16.4268 9.32744 16.5317 8.64372 16.7057 7.98211ZM24.0657 3.00669C19.965 4.10541 17.5323 8.31886 18.6316 12.4195C19.7309 16.5247 23.9381 18.9534 28.0433 17.8536C32.1445 16.7543 34.5772 12.5414 33.4785 8.44132C32.378 4.33559 28.1703 1.90684 24.0657 3.00669ZM4.24055 23.8982H21.2406V27.9608H4.24055V23.8982ZM4.24055 33.6874H21.2406V35.6071H4.24055V33.6874ZM7.68978 30.1373H21.2406V32.0569H7.68978V30.1373ZM4.24055 19.4886H21.2406V21.4082H4.24055V19.4886Z" fill="#73C795"/>
</svg>
