<svg width="33" height="33" viewBox="0 0 33 33" fill="none" xmlns="http://www.w3.org/2000/svg">
<path d="M11.708 18.6538H4.578V29.0958H11.708V18.6538Z" fill="#73C795"/>
<path d="M21.874 12.2139H14.744V29.0959H21.874V12.2139Z" fill="#73C795"/>
<path d="M32.04 4.99194H24.91V29.0959H32.04V4.99194Z" fill="#73C795"/>
<path d="M32.04 31.3039H1.49599V0.759926C1.49599 0.353654 1.16626 0.0239258 0.759987 0.0239258C0.353715 0.0239258 0.0239868 0.353654 0.0239868 0.759926V32.0399C0.0239868 32.4462 0.353715 32.7759 0.759987 32.7759H32.04C32.4463 32.7759 32.776 32.4462 32.776 32.0399C32.776 31.6337 32.4463 31.3039 32.04 31.3039Z" fill="#73C795"/>
<path d="M5.38428 15.385C5.5727 15.385 5.76112 15.3132 5.90464 15.1693L18.5373 2.53663V5.77981C18.5373 6.18609 18.8671 6.51581 19.2733 6.51581C19.6796 6.51581 20.0093 6.18609 20.0093 5.77981V0.759926C20.0093 0.711718 20.0042 0.66351 19.9946 0.61567C19.9902 0.593958 19.9821 0.573718 19.9759 0.552742C19.9685 0.528086 19.9626 0.502694 19.9527 0.478406C19.9424 0.45375 19.9284 0.431302 19.9155 0.40775C19.9052 0.388982 19.8971 0.369478 19.885 0.351814C19.8312 0.270854 19.7617 0.20167 19.6807 0.147574C19.6638 0.136166 19.645 0.128438 19.627 0.118502C19.6031 0.105254 19.5795 0.0905337 19.5538 0.0802297C19.5306 0.0706617 19.5059 0.0651418 19.482 0.0577818C19.4599 0.0511578 19.4393 0.0426938 19.4165 0.0382778C19.3698 0.0290778 19.3227 0.0239258 19.2752 0.0239258C19.2744 0.0239258 19.2737 0.0239258 19.2726 0.0239258H14.2535C13.8472 0.0239258 13.5175 0.353654 13.5175 0.759926C13.5175 1.1662 13.8472 1.49593 14.2535 1.49593H17.4966L4.86393 14.1286C4.57652 14.416 4.57652 14.8819 4.86393 15.1693C5.00745 15.3129 5.19587 15.385 5.38428 15.385Z" fill="#73C795"/>
</svg>
