<svg width="82" height="17" viewBox="0 0 82 17" fill="none" xmlns="http://www.w3.org/2000/svg">
<g clip-path="url(#clip0)">
<path d="M19.2317 8.46378H20.2267V2.66354H18.5211V3.88335H17.5234V1.75623H23.9823V3.88335H22.9873V2.66354H21.2845V8.46378H22.2821V9.40673H19.2317V8.46378Z" fill="#00B0AF"/>
<path d="M25.1904 7.21924C25.3298 8.17315 26.0241 8.6364 26.9999 8.6364C27.6367 8.6364 28.1834 8.43904 28.7738 8.10188L28.6918 9.02016C28.1697 9.34636 27.5329 9.49712 26.8495 9.49712C25.2369 9.49712 24.149 8.45001 24.149 6.91497C24.149 5.50877 25.1111 4.29993 26.6309 4.29993C28.1725 4.29993 28.9843 5.4046 28.9843 6.68471C28.9843 6.87111 28.9624 7.06847 28.9378 7.21924H25.1904ZM25.1904 6.47639H27.9839C27.9374 5.67324 27.4509 5.12775 26.6035 5.12775C25.9311 5.12775 25.3189 5.56907 25.1904 6.47639Z" fill="#00B0AF"/>
<path d="M29.8507 6.88207C29.8507 5.53344 30.9277 4.29993 32.3545 4.29993C33.5954 4.29993 34.5001 5.11404 34.5001 5.88156C34.5001 6.32288 34.1995 6.62441 33.7922 6.62441C33.4669 6.62441 33.1663 6.36948 33.1663 5.99669C33.1663 5.83496 33.2483 5.67049 33.374 5.5773C33.2592 5.3443 32.841 5.12501 32.3545 5.12501C31.6821 5.12501 30.8593 5.69516 30.8593 6.904C30.8593 7.94015 31.6137 8.6364 32.6442 8.6364C33.2237 8.6364 33.7457 8.46097 34.3607 8.10188L34.2678 9.02016C33.7567 9.34635 33.1663 9.49712 32.5513 9.49712C30.9987 9.49986 29.8507 8.43082 29.8507 6.88207Z" fill="#00B0AF"/>
<path d="M35.3475 1.75622V0.895508H37.1214V5.23198C37.597 4.71939 38.1874 4.30274 38.8953 4.30274C39.4639 4.30274 39.893 4.5001 40.1472 4.83726C40.3686 5.12782 40.4834 5.52254 40.4834 5.98853V8.57068H41.2597V9.40673H38.745V8.57068H39.4857V6.21057C39.4857 5.88437 39.4174 5.66508 39.2889 5.50061C39.1386 5.31422 38.9063 5.22102 38.6056 5.22102C38.0617 5.22102 37.5396 5.54721 37.1214 5.97757V8.57068H37.8621V9.40673H35.3475V8.57068H36.1237V1.75622H35.3475Z" fill="#00B0AF"/>
<path d="M43.6595 5.26761C44.1351 4.75502 44.7611 4.30273 45.4799 4.30273C46.1059 4.30273 46.535 4.5467 46.7892 4.94142C46.9505 5.22101 47.0434 5.56914 47.0434 5.98853V8.57068H47.8197V9.40673H45.305V8.57068H46.0457V6.21056C46.0457 5.9666 46.0102 5.76924 45.9309 5.61848C45.7915 5.34985 45.5483 5.22376 45.1902 5.22376C44.6463 5.22376 44.1242 5.54995 43.6951 5.98031V8.57342H44.4358V9.40947H41.9321V8.57342H42.7083V5.25665H41.9321V4.39593H43.6595V5.26761Z" fill="#00B0AF"/>
<path d="M48.4347 6.90681C48.4347 5.50061 49.4542 4.30273 51.0423 4.30273C52.6303 4.30273 53.6499 5.48965 53.6499 6.90681C53.6499 8.30205 52.6167 9.49992 51.0423 9.49992C49.4433 9.49992 48.4347 8.31301 48.4347 6.90681ZM52.6221 6.90681C52.6221 5.88437 51.9716 5.15249 51.045 5.15249C50.1047 5.15249 49.4569 5.88437 49.4569 6.90681C49.4569 7.92925 50.1075 8.65017 51.045 8.65017C51.9716 8.65017 52.6221 7.92925 52.6221 6.90681Z" fill="#00B0AF"/>
<path d="M54.6721 7.87166C54.6721 7.38373 54.9619 7.0685 55.3664 7.0685C55.7846 7.0685 56.0607 7.38373 56.0607 7.70719C56.0607 7.91551 56.0033 8.06902 55.9103 8.20607C56.1782 8.43907 56.6866 8.61176 57.3016 8.61176C58.2282 8.61176 58.8213 8.15947 58.8213 7.40292C58.8213 6.682 58.1271 6.34484 57.3153 6.04332C55.9459 5.53073 54.9619 5.06748 54.9619 3.70513C54.9619 2.50726 55.9131 1.61365 57.3836 1.61365C58.7175 1.61365 59.7616 2.33457 59.7616 3.18432C59.7616 3.66127 59.4609 3.94087 59.0892 3.94087C58.6491 3.94087 58.3813 3.61468 58.3813 3.26655C58.3813 3.08015 58.4387 2.96503 58.5097 2.86086C58.302 2.67447 57.8483 2.53467 57.3727 2.53467C56.5253 2.53467 56.0169 2.98696 56.0169 3.62838C56.0169 4.36026 56.7003 4.67549 57.5695 5.01265C58.8787 5.50057 59.8655 5.97753 59.8655 7.32617C59.8655 8.72141 58.7749 9.54649 57.2797 9.54649C55.7873 9.54649 54.6721 8.69674 54.6721 7.87166Z" fill="#1F2171"/>
<path d="M61.8963 7.21924C62.0357 8.17315 62.73 8.6364 63.7058 8.6364C64.3427 8.6364 64.8893 8.43904 65.4797 8.10188L65.3977 9.02016C64.8757 9.34636 64.2388 9.49712 63.5555 9.49712C61.9428 9.49712 60.8549 8.45001 60.8549 6.91497C60.8549 5.50877 61.8171 4.29993 63.3368 4.29993C64.8784 4.29993 65.6902 5.4046 65.6902 6.68471C65.6902 6.87111 65.6683 7.06847 65.6437 7.21924H61.8963ZM61.8963 6.47639H64.6898C64.6433 5.67324 64.1568 5.12775 63.3095 5.12775C62.6371 5.12775 62.0248 5.56907 61.8963 6.47639Z" fill="#1F2171"/>
<path d="M70.6375 5.03462C70.6375 5.39371 70.3478 5.70894 70.0007 5.70894C69.6645 5.70894 69.4321 5.50061 69.3392 5.27858C68.9675 5.39371 68.5383 5.8131 68.2951 6.29006V8.56794H69.2107V9.40398H66.5321V8.56794H67.3083V5.25665H66.5321V4.39593H68.2595V5.53624C68.6531 4.85096 69.2326 4.30273 69.8121 4.30273C70.3587 4.30273 70.6375 4.63989 70.6375 5.03462Z" fill="#1F2171"/>
<path d="M71.4739 5.25659H70.848V4.39587H73.2697V5.22096H72.5044L73.8601 8.23346L75.2159 5.22096H74.415V4.39587H76.8367V5.25659H76.2108L74.1581 9.54646H73.5212L71.4739 5.25659Z" fill="#1F2171"/>
<path d="M78.2089 7.21924C78.3483 8.17315 79.0425 8.6364 80.0183 8.6364C80.6552 8.6364 81.2019 8.43904 81.7923 8.10188L81.7103 9.02016C81.1882 9.34636 80.5513 9.49712 79.868 9.49712C78.2553 9.49712 77.1675 8.45001 77.1675 6.91497C77.1675 5.50877 78.1296 4.29993 79.6493 4.29993C81.1909 4.29993 82.0027 5.4046 82.0027 6.68471C82.0027 6.87111 81.9809 7.06847 81.9563 7.21924H78.2089ZM78.2089 6.47639H81.0023C80.9559 5.67324 80.4693 5.12775 79.622 5.12775C78.9496 5.12775 78.3373 5.56907 78.2089 6.47639Z" fill="#1F2171"/>
<path d="M3.72007 13.006C2.38893 12.0109 1.52247 10.4128 1.52247 8.60918C1.52247 5.59119 3.93053 3.1461 6.90167 3.1461C9.1922 3.1461 11.6085 3.91362 13.0435 5.42124C11.8982 3.15432 9.58033 1.6001 6.90167 1.6001C3.08867 1.6001 0 4.7387 0 8.60918C0 8.73801 0.0109333 8.8641 0.0191333 8.99294C0.1968 10.983 1.763 12.3234 3.72007 13.006Z" fill="#1F2171"/>
<path d="M12.2672 5.48433C10.8322 4.1631 8.88879 3.68066 6.90166 3.68066C5.22612 3.68066 3.74739 4.54138 2.87546 5.85438C2.71419 6.0956 2.55839 6.35053 2.45726 6.62738C3.65992 6.11753 6.96452 7.93216 8.79039 6.38068C10.1379 5.23215 12.8248 6.60545 12.1879 9.65086C11.6604 12.1617 9.52565 14.075 6.90166 14.075C4.61112 14.075 2.19486 13.3103 0.759857 11.7999C1.90239 14.0586 4.22026 15.6156 6.90166 15.6156C10.3047 15.6156 13.1145 13.1129 13.6995 9.82629C13.9892 8.19257 13.366 6.49581 12.2672 5.48433ZM8.82046 4.80727C8.80132 4.88402 8.72752 4.93336 8.64826 4.91418C7.02739 4.53316 4.33232 5.47885 3.83759 5.79956C4.20112 5.25682 7.01372 4.23163 8.71386 4.63458C8.79039 4.65103 8.83959 4.73052 8.82046 4.80727Z" fill="#00B0AF"/>
<path d="M17.8678 15.418H18.2368V13.1757H17.8678V12.6796H19.1579C19.9479 12.6796 20.336 13.0441 20.336 13.5293C20.336 13.9021 20.1064 14.1433 19.7866 14.253C20.1884 14.3708 20.4289 14.6066 20.4289 15.0095C20.4289 15.5468 19.9971 15.9141 19.2126 15.9141H17.8678V15.418ZM19.1634 14.0501C19.5515 14.0501 19.7675 13.872 19.7675 13.5924C19.7675 13.3182 19.5406 13.1647 19.1497 13.1647H18.7862V14.0501H19.1634ZM19.2208 15.4289C19.6035 15.4289 19.8577 15.2727 19.8577 14.9629C19.8577 14.6641 19.6226 14.4969 19.2044 14.4969H18.7835V15.4317H19.2208V15.4289Z" fill="#1F2171"/>
<path d="M21.0849 15.6702C21.0166 15.5578 20.9783 15.4098 20.9783 15.2371V14.2146H20.6585V13.7623H21.5113V15.1055C21.5113 15.1987 21.525 15.2672 21.5551 15.3275C21.6043 15.4207 21.6917 15.4701 21.8202 15.4701C22.0061 15.4701 22.2029 15.3632 22.3751 15.2206V14.2174H22.0416V13.7651H22.9108V15.4755H23.2306V15.9169H22.3969V15.5715C22.1919 15.7743 21.9596 15.9552 21.6453 15.9552C21.3829 15.9552 21.1915 15.8456 21.0849 15.6702Z" fill="#1F2171"/>
<path d="M25.0811 14.5298C24.9089 14.5298 24.7913 14.4256 24.7913 14.2639C24.7913 14.2282 24.7913 14.2008 24.8023 14.1707C24.7148 14.135 24.6055 14.1158 24.4989 14.1158C24.2583 14.1158 24.1408 14.2228 24.1408 14.3379C24.1408 14.4612 24.2638 14.5243 24.5918 14.612C25.1057 14.7491 25.4063 14.8779 25.4063 15.2671C25.4063 15.7194 24.9854 15.9606 24.4989 15.9606C24.1709 15.9606 23.8183 15.8428 23.6761 15.7002C23.5887 15.6125 23.5531 15.522 23.5531 15.4097C23.5531 15.2534 23.6707 15.1191 23.8374 15.1191C23.985 15.1191 24.1271 15.2178 24.1271 15.4042C24.1271 15.4343 24.1217 15.4645 24.1162 15.4919C24.2146 15.5303 24.3513 15.5604 24.5043 15.5604C24.7203 15.5604 24.8979 15.4864 24.8979 15.3302C24.8979 15.2233 24.805 15.1575 24.477 15.0698C23.8839 14.9135 23.6324 14.771 23.6324 14.4009C23.6324 14.0665 23.9057 13.7184 24.5098 13.7184C24.7695 13.7184 25.0838 13.8171 25.2314 13.9651C25.3107 14.0446 25.3489 14.1378 25.3489 14.2392C25.3462 14.4091 25.2396 14.5298 25.0811 14.5298Z" fill="#1F2171"/>
<path d="M25.7589 15.4727H26.0869V14.2146H25.7589V13.7623H26.6227V15.4727H26.9425V15.9141H25.7617V15.4727H25.7589ZM25.9448 13.077C25.9448 12.8796 26.117 12.7234 26.3083 12.7234C26.4997 12.7234 26.6609 12.8796 26.6609 13.077C26.6609 13.2744 26.4887 13.4306 26.2974 13.4306C26.1061 13.4306 25.9448 13.2744 25.9448 13.077Z" fill="#1F2171"/>
<path d="M28.0823 14.105C28.2873 13.9021 28.5196 13.7212 28.8339 13.7212C29.0881 13.7212 29.274 13.8254 29.3888 13.9953C29.4626 14.1132 29.5009 14.2612 29.5009 14.4366V15.47H29.8207V15.9114H28.6727V15.47H28.9679V14.5737C28.9679 14.486 28.9542 14.4065 28.9241 14.3517C28.8749 14.2585 28.7875 14.2091 28.659 14.2091C28.4731 14.2091 28.2763 14.316 28.1041 14.4586V15.4728H28.3993V15.9141H27.2513V15.4728H27.5711V14.2146H27.2513V13.7623H28.085V14.105H28.0823Z" fill="#1F2171"/>
<path d="M30.5887 15.0204C30.6625 15.3549 30.9359 15.5029 31.2939 15.5029C31.5536 15.5029 31.8242 15.4206 32.0729 15.2754L32.0292 15.7578C31.8023 15.8894 31.529 15.9552 31.2147 15.9552C30.5122 15.9552 30.0284 15.5138 30.0284 14.845C30.0284 14.2365 30.4548 13.7239 31.1163 13.7239C31.8023 13.7239 32.1604 14.1871 32.1604 14.7573C32.1604 14.8395 32.1495 14.9492 32.1358 15.0232H30.5887V15.0204ZM30.5833 14.6476H31.6274C31.6165 14.3516 31.4251 14.157 31.1135 14.157C30.8785 14.1542 30.6434 14.2913 30.5833 14.6476Z" fill="#1F2171"/>
<path d="M34.0409 14.5298C33.8687 14.5298 33.7512 14.4256 33.7512 14.2639C33.7512 14.2282 33.7512 14.2008 33.7621 14.1707C33.6747 14.135 33.5653 14.1158 33.4587 14.1158C33.2182 14.1158 33.1007 14.2228 33.1007 14.3379C33.1007 14.4612 33.2237 14.5243 33.5517 14.612C34.0655 14.7491 34.3662 14.8779 34.3662 15.2671C34.3662 15.7194 33.9453 15.9606 33.4587 15.9606C33.1307 15.9606 32.7781 15.8428 32.636 15.7002C32.5485 15.6125 32.513 15.522 32.513 15.4097C32.513 15.2534 32.6305 15.1191 32.7973 15.1191C32.9449 15.1191 33.087 15.2178 33.087 15.4042C33.087 15.4343 33.0815 15.4645 33.0761 15.4919C33.1745 15.5303 33.3111 15.5604 33.4642 15.5604C33.6801 15.5604 33.8578 15.4864 33.8578 15.3302C33.8578 15.2233 33.7649 15.1575 33.4369 15.0698C32.8437 14.9135 32.5923 14.771 32.5923 14.4009C32.5923 14.0665 32.8656 13.7184 33.4697 13.7184C33.7293 13.7184 34.0437 13.8171 34.1913 13.9651C34.2705 14.0446 34.3088 14.1378 34.3088 14.2392C34.3061 14.4091 34.1967 14.5298 34.0409 14.5298Z" fill="#1F2171"/>
<path d="M36.2877 14.5298C36.1155 14.5298 35.998 14.4256 35.998 14.2639C35.998 14.2282 35.998 14.2008 36.0089 14.1707C35.9215 14.135 35.8121 14.1158 35.7055 14.1158C35.465 14.1158 35.3475 14.2228 35.3475 14.3379C35.3475 14.4612 35.4705 14.5243 35.7985 14.612C36.3123 14.7491 36.613 14.8779 36.613 15.2671C36.613 15.7194 36.1921 15.9606 35.7055 15.9606C35.3775 15.9606 35.0249 15.8428 34.8828 15.7002C34.7953 15.6125 34.7598 15.522 34.7598 15.4097C34.7598 15.2534 34.8773 15.1191 35.0441 15.1191C35.1917 15.1191 35.3338 15.2178 35.3338 15.4042C35.3338 15.4343 35.3283 15.4645 35.3229 15.4919C35.4213 15.5303 35.5579 15.5604 35.711 15.5604C35.9269 15.5604 36.1046 15.4864 36.1046 15.3302C36.1046 15.2233 36.0117 15.1575 35.6837 15.0698C35.0905 14.9135 34.8391 14.771 34.8391 14.4009C34.8391 14.0665 35.1124 13.7184 35.7165 13.7184C35.9761 13.7184 36.2905 13.8171 36.4381 13.9651C36.5173 14.0446 36.5556 14.1378 36.5556 14.2392C36.5529 14.4091 36.4435 14.5298 36.2877 14.5298Z" fill="#1F2171"/>
<path d="M38.0808 15.2205C38.0808 14.9903 38.2175 14.8368 38.4197 14.8368C38.6357 14.8368 38.7723 14.9985 38.7723 15.1575C38.7723 15.237 38.7587 15.2945 38.7286 15.3548C38.8461 15.4398 39.0265 15.4919 39.2397 15.4919C39.5923 15.4919 39.8192 15.3357 39.8192 15.0533C39.8192 14.7874 39.5486 14.6586 39.2261 14.5462C38.6275 14.3297 38.2065 14.1378 38.2065 13.5375C38.2065 13.0221 38.622 12.6165 39.2753 12.6165C39.8793 12.6165 40.344 12.9262 40.344 13.3154C40.344 13.5457 40.2019 13.68 40.016 13.68C39.7891 13.68 39.6634 13.5128 39.6634 13.3511C39.6634 13.2716 39.6771 13.2387 39.6989 13.1976C39.6115 13.1428 39.4721 13.0989 39.2725 13.0989C38.9527 13.0989 38.7669 13.2606 38.7669 13.4964C38.7669 13.7622 39.0375 13.8801 39.36 13.998C39.9395 14.2036 40.3741 14.4064 40.3741 15.0067C40.3741 15.6207 39.8985 15.9716 39.237 15.9716C38.5974 15.9743 38.0808 15.6153 38.0808 15.2205Z" fill="#1F2171"/>
<path d="M40.7431 14.8395C40.7431 14.2502 41.1831 13.7239 41.8856 13.7239C42.5963 13.7239 43.0281 14.2392 43.0281 14.8395C43.0281 15.4289 42.5881 15.9552 41.8856 15.9552C41.1749 15.9552 40.7431 15.4371 40.7431 14.8395ZM42.4815 14.8395C42.4815 14.4448 42.2355 14.1707 41.8883 14.1707C41.5412 14.1707 41.2952 14.4448 41.2952 14.8395C41.2952 15.2342 41.5412 15.5084 41.8883 15.5084C42.2355 15.5084 42.4815 15.2315 42.4815 14.8395Z" fill="#1F2171"/>
<path d="M43.3233 15.4727H43.6568V12.7672H43.3233V12.3149H44.1925V15.4727H44.5123V15.9141H43.3233V15.4727Z" fill="#1F2171"/>
<path d="M45.1 15.6702C45.0317 15.5578 44.9934 15.4098 44.9934 15.2371V14.2146H44.6736V13.7623H45.5264V15.1055C45.5264 15.1987 45.5401 15.2672 45.5701 15.3275C45.6193 15.4207 45.7068 15.4701 45.8353 15.4701C46.0211 15.4701 46.2179 15.3632 46.3901 15.2206V14.2174H46.0567V13.7651H46.9259V15.4755H47.2457V15.9169H46.412V15.5715C46.207 15.7743 45.9747 15.9552 45.6603 15.9552C45.3979 15.9552 45.2066 15.8456 45.1 15.6702Z" fill="#1F2171"/>
<path d="M47.9044 15.6592C47.8552 15.5715 47.8306 15.4563 47.8306 15.3193V14.2119H47.4151V13.7596H47.8306V13.3073L48.3609 13.077V13.7596H49.0141V14.2119H48.3609V15.2151C48.3609 15.2836 48.3718 15.3275 48.3964 15.3714C48.4347 15.4399 48.5139 15.4755 48.6233 15.4755C48.7599 15.4755 48.9185 15.4207 49.0442 15.3631L49.0005 15.8264C48.8529 15.9004 48.6807 15.9552 48.4866 15.9552C48.2242 15.9552 48.011 15.8675 47.9044 15.6592Z" fill="#1F2171"/>
<path d="M49.3367 15.4727H49.6647V14.2146H49.3367V13.7623H50.2004V15.4727H50.5202V15.9141H49.3367V15.4727ZM49.5225 13.077C49.5225 12.8796 49.6947 12.7234 49.8861 12.7234C50.0774 12.7234 50.2387 12.8796 50.2387 13.077C50.2387 13.2744 50.0665 13.4306 49.8751 13.4306C49.6838 13.4306 49.5225 13.2744 49.5225 13.077Z" fill="#1F2171"/>
<path d="M50.8427 14.8395C50.8427 14.2502 51.2828 13.7239 51.9853 13.7239C52.6959 13.7239 53.1278 14.2392 53.1278 14.8395C53.1278 15.4289 52.6877 15.9552 51.9853 15.9552C51.2719 15.9552 50.8427 15.4371 50.8427 14.8395ZM52.5784 14.8395C52.5784 14.4448 52.3324 14.1707 51.9853 14.1707C51.6381 14.1707 51.3921 14.4448 51.3921 14.8395C51.3921 15.2342 51.6381 15.5084 51.9853 15.5084C52.3324 15.5084 52.5784 15.2315 52.5784 14.8395Z" fill="#1F2171"/>
<path d="M54.2785 14.105C54.4835 13.9021 54.7159 13.7212 55.0302 13.7212C55.2844 13.7212 55.4703 13.8254 55.5851 13.9953C55.6589 14.1132 55.6971 14.2612 55.6971 14.4366V15.47H56.0169V15.9114H54.8689V15.47H55.1641V14.5737C55.1641 14.486 55.1505 14.4065 55.1204 14.3517C55.0712 14.2585 54.9837 14.2091 54.8553 14.2091C54.6694 14.2091 54.4726 14.316 54.3004 14.4586V15.4728H54.5956V15.9141H53.4476V15.4728H53.7674V14.2146H53.4476V13.7623H54.2813V14.105H54.2785Z" fill="#1F2171"/>
<path d="M57.7854 14.5298C57.6132 14.5298 57.4957 14.4256 57.4957 14.2639C57.4957 14.2282 57.4957 14.2008 57.5066 14.1707C57.4191 14.135 57.3098 14.1158 57.2032 14.1158C56.9627 14.1158 56.8451 14.2228 56.8451 14.3379C56.8451 14.4612 56.9681 14.5243 57.2961 14.612C57.81 14.7491 58.1107 14.8779 58.1107 15.2671C58.1107 15.7194 57.6897 15.9606 57.2032 15.9606C56.8752 15.9606 56.5226 15.8428 56.3805 15.7002C56.293 15.6125 56.2575 15.522 56.2575 15.4097C56.2575 15.2534 56.375 15.1191 56.5417 15.1191C56.6893 15.1191 56.8315 15.2178 56.8315 15.4042C56.8315 15.4343 56.826 15.4645 56.8205 15.4919C56.9189 15.5303 57.0556 15.5604 57.2087 15.5604C57.4246 15.5604 57.6023 15.4864 57.6023 15.3302C57.6023 15.2233 57.5093 15.1575 57.1813 15.0698C56.5882 14.9135 56.3367 14.771 56.3367 14.4009C56.3367 14.0665 56.6101 13.7184 57.2141 13.7184C57.4738 13.7184 57.7881 13.8171 57.9357 13.9651C58.015 14.0446 58.0533 14.1378 58.0533 14.2392C58.0505 14.4091 57.9412 14.5298 57.7854 14.5298Z" fill="#1F2171"/>
<path d="M59.9174 15.6592C59.8682 15.5715 59.8436 15.4563 59.8436 15.3193V14.2119H59.4281V13.7596H59.8436V13.3073L60.3739 13.077V13.7596H61.0271V14.2119H60.3739V15.2151C60.3739 15.2836 60.3848 15.3275 60.4094 15.3714C60.4477 15.4399 60.5269 15.4755 60.6363 15.4755C60.7729 15.4755 60.9315 15.4207 61.0572 15.3631L61.0135 15.8264C60.8659 15.9004 60.6937 15.9552 60.4996 15.9552C60.2372 15.9552 60.0267 15.8675 59.9174 15.6592Z" fill="#1F2171"/>
<path d="M61.3114 14.8395C61.3114 14.2502 61.7515 13.7239 62.4539 13.7239C63.1646 13.7239 63.5965 14.2392 63.5965 14.8395C63.5965 15.4289 63.1564 15.9552 62.4539 15.9552C61.7433 15.9552 61.3114 15.4371 61.3114 14.8395ZM63.0471 14.8395C63.0471 14.4448 62.8011 14.1707 62.4539 14.1707C62.1068 14.1707 61.8608 14.4448 61.8608 14.8395C61.8608 15.2342 62.1068 15.5084 62.4539 15.5084C62.8011 15.5084 63.0471 15.2315 63.0471 14.8395Z" fill="#1F2171"/>
<path d="M65.0233 15.418H65.3923V13.1757H65.0233V12.6796H66.3216C67.0131 12.6796 67.5434 13.077 67.5434 13.7376C67.5434 14.4805 67.0186 14.8451 66.2587 14.8451C66.1057 14.8451 66.0127 14.8451 65.9444 14.8396V15.4207H66.3462V15.9168H65.0233V15.418ZM66.9694 13.7376C66.9694 13.3977 66.6906 13.1757 66.2915 13.1757H65.9444V14.3462C66.0045 14.3517 66.0811 14.3571 66.3079 14.3571C66.7261 14.3571 66.9694 14.1214 66.9694 13.7376Z" fill="#1F2171"/>
<path d="M67.7976 14.8395C67.7976 14.2502 68.2377 13.7239 68.9401 13.7239C69.6508 13.7239 70.0827 14.2392 70.0827 14.8395C70.0827 15.4289 69.6426 15.9552 68.9401 15.9552C68.2295 15.9552 67.7976 15.4371 67.7976 14.8395ZM69.536 14.8395C69.536 14.4448 69.29 14.1707 68.9429 14.1707C68.5957 14.1707 68.3497 14.4448 68.3497 14.8395C68.3497 15.2342 68.5957 15.5084 68.9429 15.5084C69.29 15.5084 69.536 15.2315 69.536 14.8395Z" fill="#1F2171"/>
<path d="M70.4571 14.2146H70.2057V13.7623H71.3045V14.1899H70.9956L71.5095 15.3111L72.0233 14.1899H71.7008V13.7623H72.7941V14.2146H72.5427L71.6899 15.9552H71.3072L70.4571 14.2146Z" fill="#1F2171"/>
<path d="M73.4775 15.0204C73.5513 15.3549 73.8246 15.5029 74.1827 15.5029C74.4423 15.5029 74.7129 15.4206 74.9617 15.2754L74.9179 15.7578C74.6911 15.8894 74.4177 15.9552 74.1034 15.9552C73.4009 15.9552 72.9171 15.5138 72.9171 14.845C72.9171 14.2365 73.3435 13.7239 74.005 13.7239C74.6911 13.7239 75.0491 14.1871 75.0491 14.7573C75.0491 14.8395 75.0382 14.9492 75.0245 15.0232H73.4775V15.0204ZM73.472 14.6476H74.5161C74.5052 14.3516 74.3139 14.157 74.0023 14.157C73.7672 14.1542 73.5321 14.2913 73.472 14.6476Z" fill="#1F2171"/>
<path d="M77.2686 14.0748C77.2686 14.2557 77.1265 14.4092 76.9488 14.4092C76.7875 14.4092 76.6782 14.316 76.6345 14.2173C76.4814 14.2721 76.3065 14.4393 76.2081 14.6257V15.4728H76.5798V15.9141H75.3525V15.4728H75.6723V14.2146H75.3525V13.7623H76.1862V14.2502C76.3666 13.9596 76.5935 13.7239 76.8668 13.7239C77.1347 13.7212 77.2686 13.8829 77.2686 14.0748Z" fill="#1F2171"/>
<path d="M77.8727 15.6592C77.8235 15.5715 77.7989 15.4563 77.7989 15.3193V14.2119H77.3807V13.7596H77.7989V13.3073L78.3291 13.077V13.7596H78.9824V14.2119H78.3291V15.2151C78.3291 15.2836 78.3401 15.3275 78.3647 15.3714C78.4029 15.4399 78.4822 15.4755 78.5915 15.4755C78.7282 15.4755 78.8867 15.4207 79.0125 15.3631L78.9687 15.8264C78.8211 15.9004 78.6489 15.9552 78.4549 15.9552C78.1897 15.9552 77.9793 15.8675 77.8727 15.6592Z" fill="#1F2171"/>
<path d="M79.6821 16.8954C79.3979 16.8954 79.2202 16.7282 79.2202 16.5555C79.2202 16.3746 79.3432 16.2814 79.4853 16.2814C79.6138 16.2814 79.6876 16.3609 79.7204 16.4432C79.7751 16.4295 79.8325 16.3938 79.8926 16.3143C79.9281 16.2705 79.9555 16.2156 79.991 16.1471L80.1523 15.8072L79.3869 14.2146H79.1218V13.7623H80.2315V14.1899H79.9172L80.4119 15.3248L80.9121 14.1899H80.5787V13.7623H81.6829V14.2146H81.4233L80.4174 16.3527C80.3682 16.4514 80.3135 16.5391 80.2507 16.6131C80.0921 16.7968 79.8981 16.8954 79.6821 16.8954Z" fill="#1F2171"/>
</g>
<defs>
<clipPath id="clip0">
<rect y="0.895508" width="82" height="16" fill="white"/>
</clipPath>
</defs>
</svg>
