<svg width="89" height="80" viewBox="0 0 89 80" fill="none" xmlns="http://www.w3.org/2000/svg">
<path d="M1.11127 77.7778C0.49682 77.7778 0.000152968 78.2756 0.000152968 78.889C0.000152968 79.5023 0.49682 80.0001 1.11127 80.0001H87.668C88.2825 80.0001 88.7791 79.5023 88.7791 78.889C88.7791 78.2756 88.2825 77.7778 87.668 77.7778H75.5036V66.3001C77.5658 66.2989 81.8658 65.9301 84.7347 63.1456C88.5447 59.4501 88.1725 53.1023 88.1547 52.8345C88.1191 52.2912 87.6936 51.8534 87.1525 51.8012C86.8836 51.7767 80.5513 51.2156 76.7447 54.9112C76.2691 55.3734 75.8591 55.8756 75.5047 56.4034V52.3445C76.4424 51.4323 79.1013 48.5345 79.0691 44.9934C79.0313 40.7878 75.208 37.5467 75.0469 37.4111C74.6269 37.0623 74.018 37.0667 73.6069 37.4245C73.4458 37.5634 69.6813 40.8723 69.718 45.0767C69.7491 48.4623 72.2302 51.2189 73.2824 52.2378V56.1501C73.0102 55.7623 72.7169 55.3845 72.3758 55.0323C68.6791 51.2256 62.3324 51.5967 62.0647 51.6123C61.5213 51.6478 61.0836 52.0734 61.0313 52.6156C61.0058 52.8834 60.4458 59.2167 64.1402 63.0245C66.9324 65.9001 71.228 66.3923 73.2836 66.4534V77.7778H45.3169V66.3001C47.3791 66.2989 51.6802 65.9301 54.5491 63.1456C58.3569 59.4501 57.9869 53.1023 57.9691 52.8345C57.9335 52.2912 57.5091 51.8534 56.9669 51.8012C56.6958 51.7767 50.3646 51.2167 46.558 54.9112C46.0824 55.3734 45.6724 55.8756 45.318 56.4034V52.3445C46.2558 51.4323 48.9147 48.5345 48.8824 44.9934C48.8447 40.7878 45.0213 37.5467 44.8602 37.4111C44.4391 37.0623 43.8302 37.0667 43.4202 37.4245C43.2591 37.5634 39.4946 40.8723 39.5313 45.0767C39.5624 48.4623 42.0435 51.2189 43.0958 52.2378V56.1501C42.8235 55.7623 42.5302 55.3845 42.1891 55.0323C38.4924 51.2256 32.1469 51.5967 31.878 51.6123C31.3346 51.6478 30.8969 52.0734 30.8446 52.6156C30.8191 52.8834 30.2591 59.2167 33.9535 63.0245C36.7457 65.9001 41.0413 66.3923 43.0969 66.4534V77.7778H14.5168V66.3001C16.5791 66.2989 20.8802 65.9301 23.7491 63.1456C27.5568 59.4501 27.1868 53.1023 27.1691 52.8345C27.1335 52.2912 26.7091 51.8534 26.1668 51.8012C25.8968 51.7767 19.5646 51.2167 15.7579 54.9112C15.2824 55.3734 14.8724 55.8756 14.5179 56.4034V52.3445C15.4557 51.4323 18.1146 48.5345 18.0824 44.9934C18.0457 40.7878 14.2213 37.5467 14.0591 37.4111C13.6413 37.0611 13.0313 37.0667 12.6202 37.4245C12.4591 37.5634 8.69461 40.8723 8.73127 45.0767C8.76238 48.4623 11.2435 51.2189 12.2957 52.2378V56.1501C12.0235 55.7623 11.7302 55.3845 11.3891 55.0323C7.69349 51.2256 1.34793 51.5967 1.07793 51.6123C0.534598 51.6478 0.0968197 52.0734 0.0445974 52.6156C0.0190418 52.8834 -0.540959 59.2167 3.15349 63.0245C5.94571 65.9001 10.2413 66.3923 12.2968 66.4534V77.7778H1.11127ZM78.2913 56.5056C80.5647 54.3001 84.1936 53.9923 85.9402 53.9823C85.8814 55.7245 85.4702 59.3345 83.1869 61.5501C80.9147 63.7545 77.2869 64.0634 75.5402 64.0734C75.6036 62.3278 76.0202 58.7112 78.2913 56.5056ZM71.9391 45.0567C71.9191 42.8556 73.4191 40.8523 74.3469 39.8256C75.2924 40.8367 76.8258 42.8123 76.8458 45.0123C76.8658 47.2134 75.3669 49.2167 74.4391 50.2434C73.4924 49.2345 71.958 47.2578 71.9391 45.0567ZM65.7336 61.4767C63.528 59.2045 63.2202 55.5734 63.2102 53.8267C64.9524 53.8856 68.5624 54.2967 70.7791 56.58C72.7113 58.57 73.1869 61.6023 73.2813 63.4978V64.2289C71.5313 64.1667 67.9413 63.7512 65.7336 61.4767ZM48.1024 56.5056C50.3747 54.3001 54.0035 53.9923 55.7502 53.9823C55.6869 55.7278 55.2702 59.3456 52.9991 61.5501C50.7269 63.7556 47.098 64.0634 45.3513 64.0734C45.4146 62.3278 45.8313 58.7112 48.1024 56.5056ZM41.7502 45.0567C41.7302 42.8556 43.2302 40.8523 44.158 39.8256C45.1035 40.8367 46.6369 42.8123 46.6569 45.0123C46.6769 47.2134 45.178 49.2167 44.2502 50.2434C43.3035 49.2345 41.7702 47.2578 41.7502 45.0567ZM35.5446 61.4767C33.3391 59.2045 33.0313 55.5734 33.0213 53.8267C34.7635 53.8856 38.3735 54.2967 40.5902 56.58C42.5224 58.57 42.998 61.6023 43.0924 63.4978V64.2289C41.3424 64.1667 37.7524 63.7512 35.5446 61.4767ZM17.3046 56.5056C19.5768 54.3001 23.2057 53.9923 24.9524 53.9823C24.8891 55.7278 24.4724 59.3456 22.2013 61.5501C19.9291 63.7556 16.3002 64.0634 14.5535 64.0734C14.6168 62.3278 15.0335 58.7112 17.3046 56.5056ZM10.9524 45.0567C10.9324 42.8556 12.4324 40.8523 13.3602 39.8256C14.3068 40.8367 15.8391 42.8123 15.8591 45.0134C15.8791 47.2145 14.3802 49.2178 13.4524 50.2445C12.5068 49.2345 10.9724 47.2578 10.9524 45.0567ZM4.74682 61.4767C2.54127 59.2045 2.23349 55.5734 2.22349 53.8267C3.96571 53.8856 7.57572 54.2967 9.79238 56.58C11.7246 58.57 12.2002 61.6023 12.2946 63.4978V64.2289C10.5457 64.1667 6.9546 63.7512 4.74682 61.4767Z" fill="#039D9C"/>
<path d="M54.528 20.78C54.528 15.6267 50.3358 11.4333 45.1825 11.4333C40.0291 11.4333 35.8369 15.6256 35.8369 20.78C35.8369 25.9345 40.0291 30.1267 45.1825 30.1267C50.3358 30.1267 54.528 25.9334 54.528 20.78ZM45.1825 27.9034C41.2547 27.9034 38.0591 24.7078 38.0591 20.7789C38.0591 16.85 41.2547 13.6545 45.1825 13.6545C49.1103 13.6545 52.3058 16.85 52.3058 20.7789C52.3058 24.7078 49.1103 27.9034 45.1825 27.9034Z" fill="#039D9C"/>
<path d="M46.2936 6.18223V1.11111C46.2936 0.497778 45.797 0 45.1825 0C44.5681 0 44.0714 0.497778 44.0714 1.11111V6.18223C44.0714 6.79556 44.5681 7.29334 45.1825 7.29334C45.797 7.29334 46.2936 6.79556 46.2936 6.18223Z" fill="#039D9C"/>
<path d="M52.4103 9.20897C52.797 9.20897 53.1725 9.00786 53.377 8.64786L55.8881 4.24229C56.1914 3.70896 56.0047 3.03118 55.4725 2.72674C54.9403 2.42118 54.2603 2.60785 53.957 3.14229L51.4459 7.54785C51.1425 8.08119 51.3292 8.75896 51.8614 9.06341C52.0347 9.1623 52.2236 9.20897 52.4103 9.20897Z" fill="#039D9C"/>
<path d="M58.3079 14.2969L62.6724 11.7124C63.2001 11.4002 63.3746 10.718 63.0624 10.1902C62.7512 9.66244 62.0701 9.48799 61.5401 9.80021L57.1757 12.3847C56.6479 12.6969 56.4735 13.3791 56.7857 13.9069C56.9935 14.2569 57.3635 14.4524 57.7424 14.4524C57.9346 14.4524 58.1301 14.4024 58.3079 14.2969Z" fill="#039D9C"/>
<path d="M65.9591 20.4333C65.9491 19.8266 65.4536 19.3411 64.848 19.3411C64.8425 19.3411 64.8358 19.3411 64.8291 19.3411L59.7591 19.4255C59.1447 19.4355 58.6569 19.9411 58.6669 20.5555C58.6769 21.1622 59.1725 21.6477 59.778 21.6477C59.7836 21.6477 59.7902 21.6477 59.7969 21.6477L64.8669 21.5633C65.4802 21.5522 65.9691 21.0466 65.9591 20.4333Z" fill="#039D9C"/>
<path d="M57.4492 28.77L61.897 31.2078C62.0658 31.3 62.2492 31.3444 62.4292 31.3444C62.8225 31.3444 63.2025 31.1355 63.4047 30.7666C63.7003 30.2289 63.5025 29.5533 62.9647 29.2589L58.5169 26.8211C57.9792 26.5255 57.3025 26.7233 57.0092 27.2611C56.7136 27.8 56.9103 28.4744 57.4492 28.77Z" fill="#039D9C"/>
<path d="M54.5402 38.1156C54.749 38.4567 55.1146 38.6445 55.4879 38.6445C55.6868 38.6445 55.8868 38.5912 56.069 38.4801C56.5913 38.1589 56.7546 37.4745 56.4324 36.9523L53.7746 32.6323C53.4535 32.1089 52.7702 31.9445 52.2457 32.2678C51.7235 32.5889 51.5601 33.2734 51.8824 33.7956L54.5402 38.1156Z" fill="#039D9C"/>
<path d="M45.6691 34.2578C45.6558 34.2578 45.6435 34.2578 45.6313 34.2578C45.018 34.2789 44.538 34.7923 44.558 35.4056L44.7269 40.4745C44.7469 41.0756 45.2402 41.5489 45.8358 41.5489C45.8491 41.5489 45.8613 41.5489 45.8735 41.5489C46.4869 41.5278 46.9669 41.0145 46.9469 40.4012L46.778 35.3323C46.7591 34.7311 46.2646 34.2578 45.6691 34.2578Z" fill="#039D9C"/>
<path d="M35.5002 39.1655C35.6646 39.2522 35.8424 39.2933 36.0168 39.2933C36.4157 39.2933 36.8024 39.0778 37.0013 38.7L39.3635 34.2122C39.6502 33.6689 39.4402 32.9978 38.8979 32.7111C38.3568 32.4255 37.6824 32.6333 37.3968 33.1766L35.0346 37.6644C34.7479 38.2078 34.9579 38.88 35.5002 39.1655Z" fill="#039D9C"/>
<path d="M28.6036 32.4723C28.808 32.4723 29.0147 32.4157 29.2002 32.2979L33.4758 29.569C33.9936 29.239 34.1447 28.5523 33.8147 28.0345C33.4847 27.5179 32.7991 27.3645 32.2802 27.6957L28.0047 30.4246C27.4869 30.7546 27.3358 31.4412 27.6658 31.959C27.878 32.2912 28.2369 32.4723 28.6036 32.4723Z" fill="#039D9C"/>
<path d="M24.4279 21.8179C24.4579 22.4124 24.949 22.8735 25.5368 22.8735C25.5556 22.8735 25.5745 22.8735 25.5934 22.8724L30.659 22.619C31.2723 22.589 31.7445 22.0668 31.7134 21.4546C31.6823 20.8413 31.1501 20.3568 30.5479 20.4002L25.4823 20.6535C24.8701 20.6835 24.3979 21.2046 24.4279 21.8179Z" fill="#039D9C"/>
<path d="M31.6535 15.1855C31.8146 15.2666 31.9857 15.3044 32.1535 15.3044C32.5591 15.3044 32.9513 15.081 33.1468 14.6944C33.4235 14.1466 33.2046 13.4788 32.6568 13.201L28.1313 10.9133C27.5835 10.6366 26.9146 10.8566 26.6379 11.4033C26.3613 11.951 26.5802 12.6188 27.1279 12.8966L31.6535 15.1855Z" fill="#039D9C"/>
<path d="M37.1268 9.71792C37.3368 9.71792 37.5501 9.65792 37.739 9.53348C38.2512 9.19459 38.3912 8.5057 38.0523 7.99348L35.2534 3.76458C34.9145 3.25236 34.2245 3.11236 33.7134 3.45125C33.2012 3.79014 33.0612 4.47903 33.4001 4.99125L36.199 9.22014C36.4123 9.54348 36.7668 9.71792 37.1268 9.71792Z" fill="#039D9C"/>
</svg>
