<svg width="108" height="108" viewBox="0 0 108 108" fill="none" xmlns="http://www.w3.org/2000/svg">
<path fill-rule="evenodd" clip-rule="evenodd" d="M54 108C83.8234 108 108 83.8234 108 54C108 24.1766 83.8234 0 54 0C24.1766 0 0 24.1766 0 54C0 83.8234 24.1766 108 54 108Z" fill="#79EDEC"/>
<g clip-path="url(#clip0)">
<path d="M48.7563 31.7656C48.9884 31.7656 49.211 31.6853 49.3751 31.5423C49.5391 31.3993 49.6313 31.2054 49.6313 31.0031V28.8111H51.3813V34.1486C51.3813 34.3509 51.4735 34.5448 51.6376 34.6878C51.8017 34.8308 52.0243 34.9111 52.2563 34.9111C52.4884 34.9111 52.711 34.8308 52.8751 34.6878C53.0392 34.5448 53.1313 34.3509 53.1313 34.1486V28.0486C53.1313 27.8464 53.0391 27.6525 52.8751 27.5095C52.711 27.3665 52.4884 27.2861 52.2563 27.2861H48.7563C48.5243 27.2861 48.3017 27.3665 48.1376 27.5095C47.9736 27.6525 47.8814 27.8464 47.8813 28.0486V31.0031C47.8814 31.2054 47.9736 31.3993 48.1376 31.5423C48.3017 31.6853 48.5243 31.7656 48.7563 31.7656Z" fill="#00B1B0"/>
<path d="M27.3188 50.9237H28.2332C28.2079 50.7978 28.1948 50.6702 28.1938 50.5424V49.3987H27.3188C27.0868 49.3987 26.8642 49.479 26.7001 49.622C26.536 49.765 26.4438 49.959 26.4438 50.1612C26.4438 50.3634 26.536 50.5574 26.7001 50.7003C26.8642 50.8433 27.0868 50.9237 27.3188 50.9237Z" fill="#00B1B0"/>
<path d="M41.3918 53.2111H27.3188C27.0868 53.2111 26.8642 53.2914 26.7001 53.4344C26.536 53.5774 26.4438 53.7714 26.4438 53.9736C26.4438 54.1758 26.536 54.3698 26.7001 54.5128C26.8642 54.6557 27.0868 54.7361 27.3188 54.7361H41.0234L40.4707 57.0236H27.3188C27.0868 57.0236 26.8642 57.1039 26.7001 57.2469C26.536 57.3899 26.4438 57.5839 26.4438 57.7861C26.4438 57.9883 26.536 58.1823 26.7001 58.3253C26.8642 58.4682 27.0868 58.5486 27.3188 58.5486H40.1023L39.5497 60.8361H27.3188C27.0868 60.8361 26.8642 60.9164 26.7001 61.0594C26.536 61.2024 26.4438 61.3964 26.4438 61.5986C26.4438 61.8008 26.536 61.9948 26.7001 62.1378C26.8642 62.2807 27.0868 62.3611 27.3188 62.3611H39.1813L38.6287 64.6486H27.3188C27.0868 64.6486 26.8642 64.7289 26.7001 64.8719C26.536 65.0149 26.4438 65.2089 26.4438 65.4111C26.4438 65.6133 26.536 65.8073 26.7001 65.9503C26.8642 66.0932 27.0868 66.1736 27.3188 66.1736H38.2602L37.7076 68.4611H27.3188C27.0868 68.4611 26.8642 68.5414 26.7001 68.6844C26.536 68.8274 26.4438 69.0214 26.4438 69.2236C26.4438 69.4258 26.536 69.6198 26.7001 69.7628C26.8642 69.9057 27.0868 69.9861 27.3188 69.9861H37.3392L36.7865 72.2736H27.3188C27.0868 72.2736 26.8642 72.3539 26.7001 72.4969C26.536 72.6399 26.4438 72.8339 26.4438 73.0361C26.4438 73.2383 26.536 73.4323 26.7001 73.5753C26.8642 73.7182 27.0868 73.7986 27.3188 73.7986H36.4181L36.0876 75.1665C36.0398 75.3643 36.0842 75.5707 36.211 75.7401C36.3377 75.9094 36.5365 76.028 36.7635 76.0697C36.9904 76.109 37.2258 76.0693 37.4195 75.9592C37.6132 75.8492 37.7498 75.6774 37.8 75.4807L43.2722 52.8298H41.4839L41.3918 53.2111Z" fill="#00B1B0"/>
<path d="M44.8236 75.2437C44.7995 75.4447 44.8681 75.6459 45.0141 75.8029C45.1601 75.9599 45.3717 76.06 45.6023 76.0812C45.833 76.1023 46.0638 76.0428 46.2442 75.9158C46.4245 75.7887 46.5396 75.6044 46.5642 75.4035L49.2909 52.8298H47.531L44.8236 75.2437Z" fill="#00B1B0"/>
<path d="M27.3188 47.1112H28.1938V45.5862H27.3188C27.0868 45.5862 26.8642 45.6665 26.7001 45.8095C26.536 45.9525 26.4438 46.1465 26.4438 46.3487C26.4438 46.5509 26.536 46.7449 26.7001 46.8878C26.8642 47.0308 27.0868 47.1112 27.3188 47.1112Z" fill="#00B1B0"/>
<path d="M42.175 31.2204C42.0104 31.0645 41.8104 30.9401 41.5878 30.8549C41.3651 30.7698 41.1246 30.7258 40.8815 30.7258C40.6384 30.7258 40.3979 30.7697 40.1752 30.8548C39.9525 30.9399 39.7525 31.0644 39.5879 31.2202L30.4008 40.0914C30.106 40.3759 29.9432 40.7457 29.9438 41.129V50.5424C29.9439 50.7447 30.0361 50.9386 30.2001 51.0816C30.3642 51.2246 30.5868 51.3049 30.8188 51.3049H50.9439C51.1759 51.3049 51.3985 51.2246 51.5626 51.0816C51.7267 50.9386 51.8188 50.7447 51.8189 50.5424V41.129C51.8196 40.7459 51.6569 40.3763 51.3623 40.0919L42.175 31.2204ZM39.5689 49.7799V45.2049H42.1939V49.7799H39.5689ZM50.0689 49.7799H43.9439V45.2049C43.9433 44.8006 43.7588 44.413 43.4307 44.1271C43.1026 43.8412 42.6578 43.6804 42.1939 43.6799H39.5689C39.1049 43.6804 38.6601 43.8412 38.332 44.1271C38.0039 44.413 37.8194 44.8006 37.8189 45.2049V49.7799H31.6943L31.6996 41.1136L40.8756 32.2419L50.0689 41.129V49.7799Z" fill="#00B1B0"/>
<path d="M54.1572 40.0514C54.2422 39.9841 54.3113 39.9028 54.3603 39.8123C54.4093 39.7217 54.4374 39.6236 54.4429 39.5236C54.4484 39.4236 54.4313 39.3236 54.3924 39.2293C54.3536 39.1351 54.2938 39.0484 54.2166 38.9743L42.8112 28.0348C42.5648 27.8034 42.2662 27.6188 41.9341 27.4926C41.602 27.3664 41.2436 27.3013 40.8814 27.3013C40.5191 27.3013 40.1607 27.3664 39.8286 27.4926C39.4966 27.6188 39.198 27.8034 38.9515 28.0348L27.5462 38.9743C27.4689 39.0484 27.4091 39.1351 27.3703 39.2293C27.3315 39.3236 27.3143 39.4236 27.3199 39.5236C27.3254 39.6236 27.3534 39.7217 27.4025 39.8123C27.4515 39.9028 27.5205 39.9841 27.6055 40.0514C27.6906 40.1188 27.79 40.1708 27.8982 40.2047C28.0063 40.2385 28.1211 40.2534 28.2359 40.2486C28.3506 40.2438 28.4632 40.2194 28.5671 40.1767C28.671 40.1339 28.7643 40.0738 28.8416 39.9997L40.2469 29.0602C40.3281 28.9844 40.4263 28.9239 40.5355 28.8826C40.6446 28.8413 40.7624 28.82 40.8814 28.82C41.0003 28.82 41.1181 28.8413 41.2272 28.8826C41.3364 28.9239 41.4346 28.9844 41.5158 29.0602L52.9211 39.9996C53.0797 40.1454 53.2969 40.2322 53.5272 40.2419C53.7575 40.2515 53.9832 40.1833 54.1572 40.0514Z" fill="#00B1B0"/>
<path d="M73.6938 45.894V47.1112H81.5688C81.8009 47.1112 82.0235 47.0308 82.1876 46.8878C82.3517 46.7449 82.4438 46.5509 82.4438 46.3487C82.4438 46.1465 82.3517 45.9525 82.1876 45.8095C82.0235 45.6665 81.8009 45.5862 81.5688 45.5862H74.5522C74.2726 45.7022 73.9861 45.8049 73.6938 45.894Z" fill="#00B1B0"/>
<path d="M81.5688 50.9236C81.8009 50.9236 82.0235 50.8433 82.1876 50.7003C82.3517 50.5573 82.4438 50.3634 82.4438 50.1611C82.4438 49.9589 82.3517 49.765 82.1876 49.622C82.0235 49.479 81.8009 49.3986 81.5688 49.3986H71.9438V44.7219C76.394 44.0106 77.3353 40.8893 77.1866 39.2171C77.217 36.894 76.753 34.5862 75.8181 32.4105C75.0595 30.5444 73.9418 27.2861 71.1017 27.2861H71.0509C68.1432 27.2862 67.1071 30.499 66.3196 32.4105C65.3847 34.5862 64.9207 36.8941 64.9511 39.2171C64.8024 40.8893 65.7437 44.0106 70.1938 44.7219V49.3986H66.5748L66.0222 47.1111H68.4438V45.8939C68.1516 45.8049 67.8651 45.7021 67.5855 45.5861H53.5688V75.3236C53.5688 75.5259 53.661 75.7198 53.8251 75.8628C53.9892 76.0058 54.2118 76.0861 54.4438 76.0861C54.6759 76.0861 54.8985 76.0058 55.0626 75.8628C55.2267 75.7198 55.3188 75.5259 55.3188 75.3236V47.1111H58.906L62.3235 75.4035C62.3525 75.6029 62.4687 75.7848 62.648 75.9113C62.8273 76.0377 63.0557 76.0989 63.2855 76.082C63.5163 76.0608 63.728 75.9606 63.874 75.8034C64.02 75.6462 64.0884 75.4449 64.0641 75.2438L60.6659 47.1111H64.2339L71.0877 75.4807C71.1407 75.6761 71.2779 75.8462 71.4708 75.9558C71.6637 76.0654 71.8977 76.1062 72.1242 76.0698C72.3512 76.0281 72.55 75.9095 72.6768 75.7401C72.8035 75.5707 72.8479 75.3644 72.8001 75.1665L72.4696 73.7986H81.5688C81.8009 73.7986 82.0235 73.7183 82.1876 73.5753C82.3517 73.4323 82.4438 73.2384 82.4438 73.0361C82.4438 72.8339 82.3517 72.64 82.1876 72.497C82.0235 72.354 81.8009 72.2736 81.5688 72.2736H72.1012L71.5485 69.9861H81.5688C81.8009 69.9861 82.0235 69.9058 82.1876 69.7628C82.3517 69.6198 82.4438 69.4259 82.4438 69.2236C82.4438 69.0214 82.3517 68.8275 82.1876 68.6845C82.0235 68.5415 81.8009 68.4611 81.5688 68.4611H71.1801L70.6275 66.1736H81.5688C81.8009 66.1736 82.0235 66.0933 82.1876 65.9503C82.3517 65.8073 82.4438 65.6134 82.4438 65.4111C82.4438 65.2089 82.3517 65.015 82.1876 64.872C82.0235 64.729 81.8009 64.6486 81.5688 64.6486H70.259L69.7064 62.3611H81.5688C81.8009 62.3611 82.0235 62.2808 82.1876 62.1378C82.3517 61.9948 82.4438 61.8009 82.4438 61.5986C82.4438 61.3964 82.3517 61.2025 82.1876 61.0595C82.0235 60.9165 81.8009 60.8361 81.5688 60.8361H69.338L68.7854 58.5486H81.5688C81.8009 58.5486 82.0235 58.4683 82.1876 58.3253C82.3517 58.1823 82.4438 57.9884 82.4438 57.7861C82.4438 57.5839 82.3517 57.39 82.1876 57.247C82.0235 57.104 81.8009 57.0236 81.5688 57.0236H68.417L67.8643 54.7361H81.5688C81.8009 54.7361 82.0235 54.6558 82.1876 54.5128C82.3517 54.3698 82.4438 54.1759 82.4438 53.9736C82.4438 53.7714 82.3517 53.5775 82.1876 53.4345C82.0235 53.2915 81.8009 53.2111 81.5688 53.2111H67.4959L66.9433 50.9236H81.5688ZM66.6985 39.3065C66.7016 39.2769 66.7026 39.2472 66.7015 39.2175C66.6921 36.9573 67.1652 34.7152 68.0967 32.6058C68.5947 31.373 69.6292 28.8111 71.0674 28.8111H71.0853C72.5082 28.8111 73.5432 31.3732 74.041 32.6058C74.9713 34.7155 75.4444 36.9574 75.4362 39.2175C75.4353 39.2447 75.4364 39.2758 75.4387 39.3028C75.4696 39.6415 75.605 42.433 71.9439 43.1697V39.9906L73.4638 38.5457C73.5417 38.4719 73.6022 38.3855 73.6417 38.2913C73.6813 38.1972 73.6991 38.0972 73.6942 37.997C73.6894 37.8968 73.6619 37.7985 73.6133 37.7076C73.5648 37.6167 73.4961 37.535 73.4113 37.4673C73.3265 37.3995 73.2272 37.347 73.1191 37.3127C73.011 37.2785 72.8962 37.2631 72.7813 37.2676C72.6663 37.272 72.5535 37.2962 72.4493 37.3386C72.3451 37.3811 72.2515 37.4411 72.1739 37.5151L71.9438 37.7338V37.1986C71.9438 36.9964 71.8517 36.8025 71.6876 36.6595C71.5235 36.5165 71.3009 36.4361 71.0688 36.4361C70.8368 36.4361 70.6142 36.5165 70.4501 36.6595C70.286 36.8025 70.1938 36.9964 70.1938 37.1986V39.3975L69.9638 39.1788C69.8861 39.105 69.7925 39.0452 69.6884 39.0029C69.5842 38.9607 69.4716 38.9367 69.3568 38.9323C69.242 38.928 69.1273 38.9434 69.0193 38.9777C68.9114 39.0119 68.8122 39.0644 68.7275 39.1321C68.6428 39.1997 68.5743 39.2813 68.5257 39.372C68.4772 39.4628 68.4497 39.561 68.4447 39.661C68.4397 39.7611 68.4574 39.861 68.4967 39.9551C68.5361 40.0492 68.5963 40.1356 68.6739 40.2094L70.1938 41.6543V43.1697C66.5327 42.433 66.6681 39.6417 66.6985 39.3065Z" fill="#00B1B0"/>
</g>
<defs>
<clipPath id="clip0">
<rect x="26.4438" y="27.2861" width="56" height="61" fill="white"/>
</clipPath>
</defs>
</svg>
