<svg width="18" height="19" viewBox="0 0 18 19" fill="none" xmlns="http://www.w3.org/2000/svg">
<mask id="mask0" mask-type="alpha" maskUnits="userSpaceOnUse" x="0" y="0" width="18" height="19">
<path fill-rule="evenodd" clip-rule="evenodd" d="M0 0.664551H18V18.6645H0V0.664551Z" fill="white"/>
</mask>
<g mask="url(#mask0)">
<path fill-rule="evenodd" clip-rule="evenodd" d="M9 17.2103C4.83926 17.2103 1.4542 13.8253 1.4542 9.66455C1.4542 5.50381 4.83926 2.11875 9 2.11875C13.1607 2.11875 16.5458 5.50381 16.5458 9.66455C16.5458 13.8253 13.1607 17.2103 9 17.2103ZM15.3639 3.3006C13.6641 1.60073 11.404 0.664551 9 0.664551C6.59602 0.664551 4.33593 1.60076 2.63605 3.3006C0.936176 5.00044 0 7.26057 0 9.66455C0 12.0685 0.936176 14.3286 2.63605 16.0285C4.33589 17.7284 6.59602 18.6646 9 18.6646C11.404 18.6646 13.6641 17.7284 15.3639 16.0285C17.0638 14.3286 18 12.0685 18 9.66455C18 7.26057 17.0638 5.00044 15.3639 3.3006Z" fill="#FF5E14"/>
</g>
<path fill-rule="evenodd" clip-rule="evenodd" d="M11.7836 11.4093L9.47783 9.11485V4.39983C9.47783 3.99376 9.14703 3.66455 8.73891 3.66455C8.33084 3.66455 8 3.99376 8 4.39983V9.41942C8 9.61449 8.07785 9.80146 8.21644 9.93937L10.7386 12.4491C10.8828 12.5927 11.072 12.6646 11.2611 12.6646C11.4502 12.6646 11.6393 12.5927 11.7836 12.4491C12.0721 12.162 12.0721 11.6964 11.7836 11.4093Z" fill="#FF5E14"/>
</svg>
