<svg width="16" height="16" viewBox="0 0 16 16" fill="none" xmlns="http://www.w3.org/2000/svg">
<path fill-rule="evenodd" clip-rule="evenodd" d="M5.4453 1.63012C5.56894 1.44465 5.7771 1.33325 6 1.33325H10C10.2229 1.33325 10.4311 1.44465 10.5547 1.63012L11.6901 3.33325H14C14.5304 3.33325 15.0391 3.54397 15.4142 3.91904C15.7893 4.29411 16 4.80282 16 5.33325V12.6666C16 13.197 15.7893 13.7057 15.4142 14.0808C15.0391 14.4559 14.5304 14.6666 14 14.6666H2C1.46957 14.6666 0.960859 14.4559 0.585786 14.0808C0.210714 13.7057 0 13.197 0 12.6666V5.33325C0 4.80282 0.210714 4.29411 0.585786 3.91904C0.960859 3.54397 1.46957 3.33325 2 3.33325H4.30988L5.4453 1.63012ZM6.35679 2.66659L5.22137 4.36972C5.09772 4.55518 4.88957 4.66659 4.66667 4.66659H2C1.82319 4.66659 1.65362 4.73682 1.5286 4.86185C1.40357 4.98687 1.33333 5.15644 1.33333 5.33325V12.6666C1.33333 12.8434 1.40357 13.013 1.5286 13.138C1.65362 13.263 1.82319 13.3333 2 13.3333H14C14.1768 13.3333 14.3464 13.263 14.4714 13.138C14.5964 13.013 14.6667 12.8434 14.6667 12.6666V5.33325C14.6667 5.15644 14.5964 4.98687 14.4714 4.86185C14.3464 4.73682 14.1768 4.66659 14 4.66659H11.3333C11.1104 4.66659 10.9023 4.55518 10.7786 4.36972L9.64321 2.66659H6.35679Z" fill="#113255"/>
<path fill-rule="evenodd" clip-rule="evenodd" d="M8 6.66659C6.89543 6.66659 6 7.56202 6 8.66659C6 9.77115 6.89543 10.6666 8 10.6666C9.10457 10.6666 10 9.77115 10 8.66659C10 7.56202 9.10457 6.66659 8 6.66659ZM4.66667 8.66659C4.66667 6.82564 6.15905 5.33325 8 5.33325C9.84095 5.33325 11.3333 6.82564 11.3333 8.66659C11.3333 10.5075 9.84095 11.9999 8 11.9999C6.15905 11.9999 4.66667 10.5075 4.66667 8.66659Z" fill="#113255"/>
</svg>
