<svg width="256" height="175" viewBox="0 0 256 175" fill="none" xmlns="http://www.w3.org/2000/svg">
<g clip-path="url(#clip0)">
<path opacity="0.1" d="M105.21 171.663C122.513 162.088 142.28 159.027 161.598 163.132C188.971 168.951 223.374 166.67 230.038 121.773C241.419 45.0947 193.727 24.8564 193.727 24.8564C193.727 24.8564 162.011 22.2003 143.257 12.088C116.617 -2.28134 86.168 -4.11117 59.394 8.04659C42.2721 15.815 28.1723 26.6324 25.7632 41.4844C19.0276 83.0206 30.0897 105.906 9.39566 119.465C-11.2983 133.024 6.38709 170.249 22.2517 168.96C38.1163 167.671 73.9654 153.533 87.935 169.91C92.8969 175.718 99.1745 175.004 105.21 171.663Z" fill="#F2AB3E"/>
<path opacity="0.1" d="M187.31 33.7246H115.913V38.6641H187.31V33.7246Z" fill="#6C63FF"/>
<path opacity="0.1" d="M187.31 55.0547H115.913V59.9941H187.31V55.0547Z" fill="#6C63FF"/>
<path opacity="0.1" d="M187.31 77.2822H115.913V82.2216H187.31V77.2822Z" fill="#6C63FF"/>
<path opacity="0.1" d="M126.69 20.9277H122.199V33.7254H126.69V20.9277Z" fill="#6C63FF"/>
<path opacity="0.1" d="M126.69 22.9482H122.199V23.8463H126.69V22.9482Z" fill="#6C63FF"/>
<path opacity="0.1" d="M126.69 29.9082H122.199V30.8063H126.69V29.9082Z" fill="#6C63FF"/>
<path opacity="0.1" d="M133.425 20.9277H128.935V33.7254H133.425V20.9277Z" fill="#6C63FF"/>
<path opacity="0.1" d="M133.425 22.9482H128.935V23.8463H133.425V22.9482Z" fill="#6C63FF"/>
<path opacity="0.1" d="M133.425 29.9082H128.935V30.8063H133.425V29.9082Z" fill="#6C63FF"/>
<path opacity="0.1" d="M140.161 20.9277H135.671V33.7254H140.161V20.9277Z" fill="#6C63FF"/>
<path opacity="0.1" d="M140.161 22.9482H135.671V23.8463H140.161V22.9482Z" fill="#6C63FF"/>
<path opacity="0.1" d="M140.161 29.9082H135.671V30.8063H140.161V29.9082Z" fill="#6C63FF"/>
<path opacity="0.1" d="M146.897 20.9277H142.406V33.7254H146.897V20.9277Z" fill="#6C63FF"/>
<path opacity="0.1" d="M146.897 22.9482H142.406V23.8463H146.897V22.9482Z" fill="#6C63FF"/>
<path opacity="0.1" d="M146.897 29.9082H142.406V30.8063H146.897V29.9082Z" fill="#6C63FF"/>
<path opacity="0.1" d="M153.632 20.9277H149.142V33.7254H153.632V20.9277Z" fill="#6C63FF"/>
<path opacity="0.1" d="M153.632 22.9482H149.142V23.8463H153.632V22.9482Z" fill="#6C63FF"/>
<path opacity="0.1" d="M153.632 29.9082H149.142V30.8063H153.632V29.9082Z" fill="#6C63FF"/>
<path opacity="0.1" d="M160.368 20.9277H155.877V33.7254H160.368V20.9277Z" fill="#6C63FF"/>
<path opacity="0.1" d="M160.368 22.9482H155.877V23.8463H160.368V22.9482Z" fill="#6C63FF"/>
<path opacity="0.1" d="M160.368 29.9082H155.877V30.8063H160.368V29.9082Z" fill="#6C63FF"/>
<path opacity="0.1" d="M167.103 20.9277H162.613V33.7254H167.103V20.9277Z" fill="#6C63FF"/>
<path opacity="0.1" d="M167.103 22.9482H162.613V23.8463H167.103V22.9482Z" fill="#6C63FF"/>
<path opacity="0.1" d="M167.103 29.9082H162.613V30.8063H167.103V29.9082Z" fill="#6C63FF"/>
<path opacity="0.1" d="M164.445 64.1484L160.431 66.1611L166.167 77.6012L170.182 75.5885L164.445 64.1484Z" fill="#6C63FF"/>
<path opacity="0.1" d="M165.352 65.955L161.338 67.9678L161.741 68.7706L165.755 66.7579L165.352 65.955Z" fill="#6C63FF"/>
<path opacity="0.1" d="M168.47 72.1787L164.456 74.1914L164.859 74.9942L168.873 72.9815L168.47 72.1787Z" fill="#6C63FF"/>
<path opacity="0.1" d="M126.69 42.4814H122.199V55.2791H126.69V42.4814Z" fill="#6C63FF"/>
<path opacity="0.1" d="M126.69 44.502H122.199V45.4H126.69V44.502Z" fill="#6C63FF"/>
<path opacity="0.1" d="M126.69 51.4629H122.199V52.361H126.69V51.4629Z" fill="#6C63FF"/>
<path opacity="0.1" d="M133.425 42.4814H128.935V55.2791H133.425V42.4814Z" fill="#6C63FF"/>
<path opacity="0.1" d="M133.425 44.502H128.935V45.4H133.425V44.502Z" fill="#6C63FF"/>
<path opacity="0.1" d="M133.425 51.4629H128.935V52.361H133.425V51.4629Z" fill="#6C63FF"/>
<path opacity="0.1" d="M140.161 42.4814H135.671V55.2791H140.161V42.4814Z" fill="#6C63FF"/>
<path opacity="0.1" d="M140.161 44.502H135.671V45.4H140.161V44.502Z" fill="#6C63FF"/>
<path opacity="0.1" d="M140.161 51.4629H135.671V52.361H140.161V51.4629Z" fill="#6C63FF"/>
<path opacity="0.1" d="M168.226 42.4814H163.736V55.2791H168.226V42.4814Z" fill="#6C63FF"/>
<path opacity="0.1" d="M168.226 44.502H163.736V45.4H168.226V44.502Z" fill="#6C63FF"/>
<path opacity="0.1" d="M168.226 51.4629H163.736V52.361H168.226V51.4629Z" fill="#6C63FF"/>
<path opacity="0.1" d="M174.962 42.4814H170.471V55.2791H174.962V42.4814Z" fill="#6C63FF"/>
<path opacity="0.1" d="M174.962 44.502H170.471V45.4H174.962V44.502Z" fill="#6C63FF"/>
<path opacity="0.1" d="M174.962 51.4629H170.471V52.361H174.962V51.4629Z" fill="#6C63FF"/>
<path opacity="0.1" d="M181.697 42.4814H177.207V55.2791H181.697V42.4814Z" fill="#6C63FF"/>
<path opacity="0.1" d="M181.697 44.502H177.207V45.4H181.697V44.502Z" fill="#6C63FF"/>
<path opacity="0.1" d="M181.697 51.4629H177.207V52.361H181.697V51.4629Z" fill="#6C63FF"/>
<path opacity="0.1" d="M126.69 64.4844H122.199V77.282H126.69V64.4844Z" fill="#6C63FF"/>
<path opacity="0.1" d="M126.69 66.5049H122.199V67.403H126.69V66.5049Z" fill="#6C63FF"/>
<path opacity="0.1" d="M126.69 73.4648H122.199V74.3629H126.69V73.4648Z" fill="#6C63FF"/>
<path opacity="0.1" d="M133.425 64.4844H128.935V77.282H133.425V64.4844Z" fill="#6C63FF"/>
<path opacity="0.1" d="M133.425 66.5049H128.935V67.403H133.425V66.5049Z" fill="#6C63FF"/>
<path opacity="0.1" d="M133.425 73.4648H128.935V74.3629H133.425V73.4648Z" fill="#6C63FF"/>
<path opacity="0.1" d="M140.161 64.4844H135.671V77.282H140.161V64.4844Z" fill="#6C63FF"/>
<path opacity="0.1" d="M140.161 66.5049H135.671V67.403H140.161V66.5049Z" fill="#6C63FF"/>
<path opacity="0.1" d="M140.161 73.4648H135.671V74.3629H140.161V73.4648Z" fill="#6C63FF"/>
<path opacity="0.1" d="M146.897 64.4844H142.406V77.282H146.897V64.4844Z" fill="#6C63FF"/>
<path opacity="0.1" d="M146.897 66.5049H142.406V67.403H146.897V66.5049Z" fill="#6C63FF"/>
<path opacity="0.1" d="M146.897 73.4648H142.406V74.3629H146.897V73.4648Z" fill="#6C63FF"/>
<path opacity="0.1" d="M153.632 64.4844H149.142V77.282H153.632V64.4844Z" fill="#6C63FF"/>
<path opacity="0.1" d="M153.632 66.5049H149.142V67.403H153.632V66.5049Z" fill="#6C63FF"/>
<path opacity="0.1" d="M153.632 73.4648H149.142V74.3629H153.632V73.4648Z" fill="#6C63FF"/>
<path opacity="0.1" d="M160.368 64.4844H155.877V77.282H160.368V64.4844Z" fill="#6C63FF"/>
<path opacity="0.1" d="M160.368 66.5049H155.877V67.403H160.368V66.5049Z" fill="#6C63FF"/>
<path opacity="0.1" d="M160.368 73.4648H155.877V74.3629H160.368V73.4648Z" fill="#6C63FF"/>
<path opacity="0.1" d="M173.839 22.0673V33.7244H169.349V21.2119C170.851 21.4768 172.348 21.762 173.839 22.0673Z" fill="#6C63FF"/>
<path opacity="0.1" d="M173.839 22.9482H169.349V23.8463H173.839V22.9482Z" fill="#6C63FF"/>
<path opacity="0.1" d="M173.839 29.9082H169.349V30.8063H173.839V29.9082Z" fill="#6C63FF"/>
<path opacity="0.1" d="M180.575 23.6265V33.7299H176.084V22.5488C176.668 22.6768 177.249 22.8115 177.831 22.9485C178.75 23.164 179.665 23.39 180.575 23.6265Z" fill="#6C63FF"/>
<path opacity="0.1" d="M180.575 23.6257V23.8502H176.084V22.9521H177.831C178.75 23.1647 179.665 23.3892 180.575 23.6257Z" fill="#6C63FF"/>
<path opacity="0.1" d="M180.575 29.9082H176.084V30.8063H180.575V29.9082Z" fill="#6C63FF"/>
<g opacity="0.1">
<path opacity="0.1" d="M149.229 50.6279C149.229 50.6279 147.869 50.1654 147.209 51.3665C147.036 51.6917 146.948 52.0552 146.953 52.4233C146.958 52.7914 147.056 53.1523 147.238 53.4725C147.669 54.2494 148.556 55.2687 150.235 55.1699C151.661 55.0936 152.135 54.0069 152.256 52.9943C152.302 52.6155 152.252 52.2312 152.108 51.8775C151.965 51.5238 151.734 51.2125 151.437 50.973C151.14 50.7335 150.787 50.5736 150.41 50.5085C150.034 50.4434 149.648 50.4752 149.288 50.6009L149.229 50.6279Z" fill="#6C63FF"/>
<path opacity="0.1" d="M147.534 53.581C147.352 53.2607 147.255 52.8999 147.25 52.5317C147.244 52.1636 147.332 51.8002 147.505 51.475C148.16 50.276 149.526 50.7363 149.526 50.7363L149.595 50.7116C150.115 50.5236 150.685 50.5365 151.196 50.7475C150.914 50.5797 150.599 50.4766 150.272 50.4455C149.946 50.4144 149.616 50.4563 149.308 50.5679L149.238 50.5926C149.238 50.5926 147.878 50.1301 147.217 51.3313C147.045 51.6565 146.957 52.0199 146.962 52.3881C146.967 52.7562 147.065 53.1171 147.247 53.4373C147.584 54.0806 148.126 54.5932 148.787 54.8945C148.257 54.5796 147.824 54.1252 147.534 53.581V53.581Z" fill="#6C63FF"/>
<path opacity="0.2" d="M148.527 51.2051C148.527 51.2051 149.032 51.6024 150.258 51.2051Z" fill="#6C63FF"/>
<path opacity="0.1" d="M148.417 48.3184C148.417 48.3184 149.281 50.6623 149.209 51.2753L149.894 51.2034C149.894 51.2034 148.74 49.1491 149.03 48.3184H148.417Z" fill="#6C63FF"/>
<path opacity="0.2" d="M148.417 48.3184C148.417 48.3184 149.281 50.6623 149.209 51.2753L149.894 51.2034C149.894 51.2034 148.74 49.1491 149.03 48.3184H148.417Z" fill="#6C63FF"/>
<path opacity="0.1" d="M151.95 48.5166C151.95 48.5166 150.588 47.8206 149.979 48.3954C149.371 48.9702 149.276 50.4408 149.276 50.4408C149.276 50.4408 151.497 50.7416 151.95 48.5166Z" fill="#6C63FF"/>
<path opacity="0.1" d="M151.95 48.5166C151.95 48.5166 150.588 47.8206 149.979 48.3954C149.371 48.9702 149.276 50.4408 149.276 50.4408C149.276 50.4408 151.497 50.7416 151.95 48.5166Z" fill="#6C63FF"/>
<path opacity="0.1" d="M149.274 50.441C149.274 50.441 149.631 48.7347 151.948 48.5146Z" fill="#6C63FF"/>
</g>
<path d="M223.411 137.182C223.411 137.182 230.328 113.7 222.113 96.4138C218.667 89.1596 217.522 81.0162 219.113 73.1446C219.875 69.4106 220.978 65.7544 222.407 62.2217" stroke="#353535" stroke-width="2" stroke-miterlimit="10"/>
<path d="M217.297 51.297C217.297 54.1754 222.508 62.523 222.508 62.523C222.508 62.523 227.719 54.1776 227.719 51.297C227.719 49.915 227.17 48.5895 226.193 47.6122C225.215 46.635 223.89 46.0859 222.508 46.0859C221.126 46.0859 219.8 46.635 218.823 47.6122C217.846 48.5895 217.297 49.915 217.297 51.297Z" fill="#60D2B0"/>
<path d="M208.682 67.2381C210.254 69.654 219.156 73.8278 219.156 73.8278C219.156 73.8278 218.995 63.9893 217.43 61.5735C217.058 60.9986 216.576 60.5025 216.013 60.1137C215.449 59.7248 214.814 59.4508 214.145 59.3073C213.475 59.1637 212.784 59.1535 212.11 59.2771C211.437 59.4007 210.794 59.6557 210.219 60.0277C209.644 60.3996 209.148 60.8812 208.759 61.4448C208.371 62.0085 208.097 62.6432 207.953 63.3128C207.809 63.9823 207.799 64.6736 207.923 65.3471C208.046 66.0206 208.301 66.6632 208.673 67.2381H208.682Z" fill="#60D2B0"/>
<path d="M209.053 94.4806C211.624 95.7761 221.422 94.8802 221.422 94.8802C221.422 94.8802 216.316 86.4697 213.745 85.1743C213.134 84.8661 212.469 84.6814 211.786 84.6306C211.104 84.5798 210.418 84.6639 209.768 84.8781C209.118 85.0923 208.517 85.4325 207.998 85.8791C207.48 86.3257 207.054 86.8701 206.746 87.4812C206.438 88.0923 206.253 88.758 206.202 89.4405C206.152 90.1229 206.236 90.8087 206.45 91.4587C206.664 92.1086 207.004 92.71 207.451 93.2285C207.898 93.747 208.442 94.1725 209.053 94.4806V94.4806Z" fill="#60D2B0"/>
<path d="M213.992 115.028C216.307 116.739 226.116 117.513 226.116 117.513C226.116 117.513 222.506 108.36 220.191 106.649C219.641 106.242 219.016 105.947 218.352 105.782C217.688 105.616 216.998 105.583 216.321 105.684C215.644 105.785 214.994 106.019 214.407 106.372C213.82 106.724 213.309 107.189 212.902 107.739C212.495 108.289 212.2 108.914 212.035 109.578C211.869 110.242 211.836 110.932 211.937 111.609C212.039 112.286 212.272 112.936 212.625 113.523C212.977 114.11 213.442 114.621 213.992 115.028V115.028Z" fill="#60D2B0"/>
<path d="M230.099 74.3839C228.036 76.3889 218.424 78.4657 218.424 78.4657C218.424 78.4657 220.779 68.9124 222.843 66.9075C223.333 66.4268 223.913 66.0478 224.55 65.792C225.187 65.5363 225.869 65.409 226.555 65.4174C227.241 65.4258 227.919 65.5697 228.55 65.8408C229.181 66.112 229.752 66.5051 230.23 66.9976C230.708 67.49 231.084 68.0721 231.337 68.7104C231.59 69.3487 231.714 70.0306 231.702 70.7169C231.69 71.4033 231.543 72.0806 231.269 72.7099C230.994 73.3392 230.599 73.9081 230.104 74.3839H230.099Z" fill="#60D2B0"/>
<path d="M235.546 98.4875C232.975 99.7829 223.177 98.8871 223.177 98.8871C223.177 98.8871 228.283 90.4766 230.854 89.1811C231.465 88.873 232.13 88.6882 232.813 88.6374C233.495 88.5866 234.181 88.6707 234.831 88.8849C235.481 89.0992 236.083 89.4393 236.601 89.8859C237.12 90.3326 237.545 90.877 237.853 91.488C238.161 92.0991 238.346 92.7649 238.397 93.4473C238.448 94.1298 238.363 94.8156 238.149 95.4655C237.935 96.1155 237.595 96.7169 237.148 97.2354C236.702 97.7539 236.157 98.1793 235.546 98.4875V98.4875Z" fill="#60D2B0"/>
<path d="M237.643 122.644C235.328 124.354 225.519 125.129 225.519 125.129C225.519 125.129 229.129 115.975 231.444 114.265C231.994 113.848 232.62 113.546 233.288 113.373C233.955 113.201 234.65 113.163 235.332 113.261C236.015 113.359 236.671 113.592 237.262 113.945C237.854 114.299 238.37 114.766 238.78 115.321C239.189 115.875 239.485 116.505 239.65 117.174C239.815 117.843 239.845 118.539 239.739 119.22C239.633 119.901 239.393 120.554 239.033 121.142C238.673 121.73 238.2 122.24 237.641 122.644H237.643Z" fill="#60D2B0"/>
<path d="M192.735 125.365C192.735 125.365 195.975 114.363 192.126 106.265C190.491 102.878 189.997 99.0525 190.721 95.3619C191.078 93.6127 191.596 91.9 192.266 90.2451" stroke="#353535" stroke-width="2" stroke-miterlimit="10"/>
<path d="M189.87 85.1262C189.87 86.4733 192.311 90.3845 192.311 90.3845C192.311 90.3845 194.751 86.4733 194.751 85.1262C194.751 84.4787 194.494 83.8576 194.036 83.3997C193.578 82.9418 192.957 82.6846 192.309 82.6846C191.662 82.6846 191.041 82.9418 190.583 83.3997C190.125 83.8576 189.868 84.4787 189.868 85.1262H189.87Z" fill="#60D2B0"/>
<path d="M185.835 92.595C186.567 93.7176 190.743 95.6822 190.743 95.6822C190.743 95.6822 190.667 91.0727 189.935 89.9411C189.761 89.6719 189.535 89.4397 189.271 89.2577C189.007 89.0757 188.71 88.9474 188.396 88.8803C188.083 88.8132 187.759 88.8084 187.444 88.8664C187.128 88.9244 186.828 89.0439 186.558 89.2182C186.289 89.3924 186.057 89.618 185.875 89.882C185.693 90.146 185.565 90.4433 185.497 90.7568C185.43 91.0704 185.426 91.3941 185.484 91.7095C185.542 92.0249 185.661 92.3258 185.835 92.595V92.595Z" fill="#60D2B0"/>
<path d="M186.01 105.359C187.214 105.965 191.805 105.547 191.805 105.547C191.805 105.547 189.414 101.607 188.213 100.999C187.927 100.854 187.615 100.768 187.295 100.744C186.975 100.72 186.654 100.76 186.349 100.86C185.734 101.063 185.225 101.502 184.934 102.08C184.642 102.658 184.592 103.328 184.795 103.943C184.998 104.558 185.437 105.067 186.015 105.359H186.01Z" fill="#60D2B0"/>
<path d="M188.318 114.987C189.403 115.788 193.999 116.152 193.999 116.152C193.999 116.152 192.306 111.864 191.224 111.062C190.966 110.872 190.673 110.734 190.362 110.656C190.051 110.579 189.727 110.563 189.41 110.611C189.093 110.658 188.788 110.768 188.514 110.933C188.239 111.099 187.999 111.316 187.809 111.574C187.618 111.832 187.48 112.125 187.403 112.436C187.325 112.747 187.31 113.071 187.357 113.388C187.405 113.705 187.514 114.009 187.68 114.284C187.845 114.559 188.063 114.799 188.321 114.989L188.318 114.987Z" fill="#60D2B0"/>
<path d="M195.869 95.9435C194.901 96.882 190.395 97.8564 190.395 97.8564C190.395 97.8564 191.5 93.3794 192.465 92.4409C192.93 91.9899 193.554 91.7418 194.202 91.7512C194.849 91.7607 195.466 92.027 195.917 92.4914C196.368 92.9559 196.616 93.5805 196.607 94.2279C196.598 94.8753 196.331 95.4924 195.867 95.9435H195.869Z" fill="#60D2B0"/>
<path d="M198.426 107.238C197.223 107.844 192.631 107.426 192.631 107.426C192.631 107.426 195.023 103.486 196.224 102.878C196.802 102.586 197.472 102.536 198.087 102.739C198.702 102.942 199.211 103.38 199.503 103.959C199.794 104.537 199.844 105.207 199.642 105.822C199.439 106.437 199 106.946 198.422 107.238H198.426Z" fill="#60D2B0"/>
<path d="M199.398 118.546C198.314 119.348 193.718 119.712 193.718 119.712C193.718 119.712 195.411 115.423 196.493 114.622C196.751 114.431 197.044 114.293 197.355 114.215C197.666 114.138 197.989 114.122 198.306 114.169C198.623 114.217 198.928 114.326 199.203 114.491C199.478 114.656 199.717 114.874 199.908 115.131C200.099 115.389 200.237 115.682 200.315 115.993C200.392 116.304 200.408 116.627 200.36 116.944C200.313 117.262 200.204 117.566 200.039 117.841C199.874 118.116 199.656 118.356 199.398 118.546Z" fill="#60D2B0"/>
<path d="M255.578 147.251L186.058 110.374H171.48L175.251 78.9767C175.334 78.2895 175.279 77.5926 175.089 76.927C174.899 76.2614 174.578 75.6404 174.145 75.1004C173.712 74.5603 173.175 74.1121 172.567 73.7819C171.959 73.4517 171.29 73.2462 170.602 73.1773L170.211 73.1931H170.173L117.139 73.9991C115.781 73.9031 114.434 74.294 113.339 75.1018C112.243 75.9095 111.472 77.0811 111.162 78.4064L108.692 96.4489L108.335 95.9033L108.163 95.6406C109.467 94.7919 106.894 89.7469 104.714 85.9862L104.516 85.645C105.899 85.0679 107.435 84.5223 107.435 84.5223L104.034 82.3984C104.034 82.3984 100.904 77.8676 97.572 74.1922C99.8172 60.1327 95.0754 43.882 95.0192 43.6575L94.8935 43.6911C95.5517 42.6253 95.8986 41.3965 95.8948 40.1437V40.1437C95.8952 39.1895 95.6929 38.2461 95.3012 37.3759C94.9095 36.5058 94.3373 35.7288 93.6227 35.0965C93.4902 33.8931 93.2994 32.6537 93.0255 31.3493C92.9761 31.1247 92.9244 30.8755 92.8683 30.6375C92.6124 29.5149 92.3542 28.3923 92.0151 27.2922C91.7801 26.5078 91.4882 25.7417 91.1418 24.9998C89.3703 21.2571 85.7263 18.5808 81.7344 17.6378C79.68 17.1528 77.574 17.905 75.6566 17.5458C74.6912 17.3684 73.8268 16.4411 72.886 16.0662C71.6938 15.5902 70.4028 15.3679 69.141 15.1681C67.5694 14.9054 65.9371 14.645 64.3722 14.9862C61.7902 15.5475 59.8212 17.6401 58.3731 19.8493C56.9249 22.0586 55.8001 24.5059 54.0106 26.4502C52.8139 27.7524 51.3411 28.7987 50.2746 30.2087C48.703 32.2833 48.1574 34.9236 47.6522 37.4876C47.0281 40.6421 46.4039 43.8416 46.4174 47.0455C46.4174 47.7886 46.4286 48.534 46.4937 49.2794C46.6576 51.1923 47.0932 53.0783 47.1964 54.9935C47.1964 55.2 47.2122 55.4066 47.2167 55.6131C47.1942 59.1179 46.1592 62.5733 45.1309 65.9411C44.8031 67.012 44.4708 68.092 44.0823 69.1472C42.0168 69.3223 40.041 69.7355 38.5345 70.5482C33.0292 73.4939 28.7925 80.0634 28.7925 80.0634L20.739 87.4725C20.739 87.4725 23.9182 88.9566 25.4023 91.5004C25.4554 91.5901 25.5163 91.675 25.5841 91.7541L25.4674 92.0236L20.739 102.944C20.739 102.944 23.7072 105.064 28.1482 104.639C28.87 104.549 29.6025 104.602 30.3036 104.797C30.3036 104.931 30.2901 105.068 30.2856 105.212C30.0139 111.46 29.8702 125.152 33.1033 134.399L25.7974 142.931L11.2036 147.253L10.5682 158.479H256.002L255.578 147.251ZM45.0927 105.389C45.7186 105.517 46.329 105.711 46.9135 105.969V113.773C46.5274 111.016 45.9908 108.191 45.2431 105.843C45.196 105.69 45.1533 105.54 45.0927 105.389ZM87.2329 120.407C87.2329 120.38 87.2329 120.354 87.2329 120.327C87.2418 120.054 87.2786 119.783 87.3429 119.518C87.4341 119.108 87.6368 118.73 87.9289 118.427C88.47 117.886 89.029 117.305 89.5881 116.674C89.9323 117.562 90.4292 118.383 91.0564 119.101C91.7749 119.902 93.3802 120.623 95.6344 121.274C92.8505 120.842 90.0463 120.553 87.2329 120.407V120.407ZM105.556 119.33L98.2186 121.501C94.7498 120.724 92.2823 119.835 91.3685 118.807C90.7292 118.069 90.2328 117.22 89.9047 116.301C92.5226 113.265 95.0686 109.181 95.6524 103.604C95.6681 103.458 95.6793 103.308 95.6928 103.155C96.4888 102.703 97.2405 102.177 97.938 101.584L98.0704 101.893C100.043 106.379 102.834 110.459 106.299 113.923L105.556 119.33ZM94.6802 44.0189C95.2572 46.1002 99.1706 60.8355 97.2083 73.7925C95.9869 72.4769 94.7543 71.3004 93.6496 70.5258C93.388 70.3447 93.1142 70.1819 92.8301 70.0386C92.5854 67.6631 92.4732 65.2002 92.4552 62.7596C92.4777 59.7376 92.6573 56.7402 92.9042 53.8888C93.1714 50.8668 93.4858 47.984 93.6811 45.1483C94.0551 44.8101 94.3902 44.4313 94.6802 44.0189V44.0189Z" fill="url(#paint0_linear)"/>
<path d="M91.099 47.6484H89.1839V34.4017H91.099C92.5615 34.4017 93.9641 34.9827 94.9982 36.0168C96.0323 37.0509 96.6133 38.4535 96.6133 39.916V42.1207C96.615 42.846 96.4737 43.5645 96.1974 44.2351C95.9211 44.9057 95.5152 45.5151 95.003 46.0286C94.4907 46.5421 93.8822 46.9494 93.2124 47.2274C92.5425 47.5054 91.8243 47.6484 91.099 47.6484V47.6484Z" fill="#DFE6F5"/>
<path d="M88.9121 47.6484H89.4555C90.2032 47.6484 90.8093 47.0423 90.8093 46.2946V35.7668C90.8093 35.0191 90.2032 34.4129 89.4555 34.4129H88.9121C88.1644 34.4129 87.5583 35.0191 87.5583 35.7668V46.2946C87.5583 47.0423 88.1644 47.6484 88.9121 47.6484Z" fill="#535461"/>
<g opacity="0.1">
<path opacity="0.1" d="M91.099 47.6484H89.1839V34.4017H91.099C92.5615 34.4017 93.9641 34.9827 94.9982 36.0168C96.0323 37.0509 96.6133 38.4535 96.6133 39.9159V42.1207C96.615 42.846 96.4737 43.5645 96.1974 44.2351C95.9211 44.9057 95.5152 45.5151 95.003 46.0286C94.4907 46.5421 93.8822 46.9494 93.2124 47.2274C92.5425 47.5054 91.8243 47.6484 91.099 47.6484V47.6484Z" fill="black"/>
<path opacity="0.1" d="M88.9121 47.6484H89.4555C90.2032 47.6484 90.8093 47.0423 90.8093 46.2946V35.7668C90.8093 35.0191 90.2032 34.4129 89.4555 34.4129H88.9121C88.1644 34.4129 87.5583 35.0191 87.5583 35.7668V46.2946C87.5583 47.0423 88.1644 47.6484 88.9121 47.6484Z" fill="black"/>
</g>
<path d="M92.0106 41.4121H58.5369V76.1341H92.0106V41.4121Z" fill="#865A61"/>
<path opacity="0.1" d="M92.0106 36.6299H58.5369V71.3519H92.0106V36.6299Z" fill="black"/>
<path d="M90.8679 70.2097L88.8472 84.8933L87.8952 91.7951L87.545 94.3299L84.6105 100.051L79.222 110.549L68.8267 111.798L50.5418 86.0114C50.5418 86.0114 40.9683 67.7153 55.5239 69.3767C63.6852 70.3107 65.6273 63.0049 65.7733 56.4062C65.8099 53.0839 65.509 49.7664 64.8752 46.5049L79.4286 53.575C79.0903 55.1511 78.8359 56.5993 78.6652 57.9195C77.9557 63.3214 78.544 66.6892 79.7743 68.7301C83.0501 74.1658 90.8679 70.2097 90.8679 70.2097Z" fill="#FDC2CC"/>
<path opacity="0.1" d="M79.4329 53.5767C79.0946 55.1528 78.8401 56.601 78.6695 57.9212C77.1593 58.351 75.5966 58.5686 74.0264 58.5678C71.1353 58.5726 68.292 57.8293 65.7731 56.4102C65.8098 53.0878 65.5089 49.7703 64.875 46.5088L79.4329 53.5767Z" fill="black"/>
<path d="M74.0266 58.1503C83.3277 58.1503 90.8678 50.6102 90.8678 41.309C90.8678 32.0079 83.3277 24.4678 74.0266 24.4678C64.7254 24.4678 57.1853 32.0079 57.1853 41.309C57.1853 50.6102 64.7254 58.1503 74.0266 58.1503Z" fill="#FDC2CC"/>
<path d="M96.4831 137.16L27.2456 142.571L38.4716 129.472C50.5171 122.112 50.4138 111.996 48.813 105.72C48.3162 103.709 47.5655 101.769 46.579 99.9478L70.5106 100.06H70.7127L72.6795 104.53L72.7693 104.732L74.2332 108.057L79.222 99.117L80.9576 96.3195L81.9275 94.7479C81.9275 94.7479 96.2743 91.4205 96.4809 99.9455C96.5057 100.924 96.4675 101.904 96.3664 102.878C95.6524 109.739 91.8984 114.301 88.7888 117.411C85.2549 120.943 96.4831 137.16 96.4831 137.16Z" fill="#EC7580"/>
<path d="M88.2139 118.892C87.7065 120.913 88.9863 124.386 90.6836 127.796C82.5448 128.672 73.6201 128.216 73.6201 128.216L64.4619 130.713L38.6825 138.198C37.5599 136.746 36.6619 134.92 35.9187 132.864L38.4737 129.882C46.5138 124.97 49.1407 118.829 49.5246 113.423C49.6774 110.969 49.4379 108.506 48.8151 106.128C48.3187 104.119 47.5688 102.18 46.5834 100.36L70.515 100.472H70.7171L72.6839 104.943L72.7737 105.145L74.2375 108.47L79.2264 99.5294L80.9574 96.7319L81.9274 95.1603C81.9274 95.1603 96.2742 91.8284 96.483 100.36C96.5079 101.339 96.4696 102.318 96.3685 103.292C95.6545 110.154 91.9005 114.716 88.7909 117.826C88.5044 118.121 88.3048 118.49 88.2139 118.892V118.892Z" fill="#FE747D"/>
<path d="M142.224 129.674C141.809 134.663 129.75 128.011 129.75 128.011C129.75 128.011 126.007 126.762 113.324 118.655C106.885 114.54 101.807 108.611 98.7303 101.616C98.2451 100.535 97.8392 99.4197 97.5156 98.2796L106.254 91.8291L108.802 95.7245L117.273 108.668L129.748 116.975C129.748 116.975 142.64 124.685 142.224 129.674Z" fill="#FDC2CC"/>
<path d="M253.25 146.099H13.5229L37.5219 138.998L97.5182 121.242L135.776 109.92H185.054L253.25 146.099Z" fill="white"/>
<path d="M13.523 146.1L12.8988 157.119H253.665L253.25 146.1H13.523Z" fill="#CBCDDA"/>
<path opacity="0.1" d="M13.523 146.1L12.8988 157.119H253.665L253.25 146.1H13.523Z" fill="#F2AB3E"/>
<path d="M76.3727 130.515L127.045 125.309L127.669 135.289L104.507 137.585C102.91 137.715 101.301 137.59 99.743 137.215L76.3301 131.166C76.2554 131.147 76.1899 131.102 76.1448 131.039C76.0996 130.977 76.0777 130.9 76.0827 130.823C76.0878 130.746 76.1195 130.673 76.1724 130.617C76.2253 130.561 76.2961 130.525 76.3727 130.515V130.515Z" fill="#535461"/>
<path opacity="0.2" d="M76.3727 130.515L127.045 125.309L127.669 135.289L104.507 137.585C102.91 137.715 101.301 137.59 99.743 137.215L76.3301 131.166C76.2554 131.147 76.1899 131.102 76.1448 131.039C76.0996 130.977 76.0777 130.9 76.0827 130.823C76.0878 130.746 76.1195 130.673 76.1724 130.617C76.2253 130.561 76.2961 130.525 76.3727 130.515V130.515Z" fill="black"/>
<path d="M76.3727 130.306L127.462 125.1L128.086 135.08L104.923 136.957C103.326 137.088 101.719 136.965 100.161 136.593L76.33 130.96C76.254 130.941 76.1869 130.897 76.1405 130.833C76.0942 130.77 76.0715 130.693 76.0766 130.615C76.0817 130.537 76.1142 130.463 76.1684 130.407C76.2225 130.35 76.2949 130.315 76.3727 130.306V130.306Z" fill="#353535"/>
<path opacity="0.3" d="M88.4854 130.671L115.5 127.918L115.83 133.194L103.582 134.189C102.737 134.258 101.887 134.192 101.063 133.993L88.463 131.014C88.4234 131.004 88.3886 130.98 88.3646 130.947C88.3407 130.914 88.329 130.874 88.3317 130.833C88.3343 130.792 88.3512 130.754 88.3792 130.724C88.4073 130.694 88.4449 130.675 88.4854 130.671Z" fill="white"/>
<path opacity="0.1" d="M108.803 95.729C108.639 95.9536 108.354 96.0546 107.918 95.9917C103.76 95.3676 98.9776 101.398 98.9776 101.398C98.9776 101.398 98.8923 101.479 98.7374 101.623C98.2522 100.541 97.8463 99.4264 97.5227 98.2863L106.254 91.8291L108.803 95.729Z" fill="black"/>
<path opacity="0.1" d="M96.3685 103.278C94.413 104.367 91.721 105.149 89.6217 103.054C85.9957 99.4279 79.6395 99.9106 79.2444 99.933C79.8932 99.8432 80.468 98.5096 80.9575 96.7224L81.9274 95.1508C81.9274 95.1508 96.2742 91.8279 96.483 100.36C96.5073 101.334 96.4691 102.309 96.3685 103.278Z" fill="black"/>
<path opacity="0.1" d="M88.8425 84.8926L87.5403 94.3224L84.6058 100.043C82.7872 99.5775 80.9067 99.401 79.0332 99.5201C81.101 99.2349 82.4369 86.3138 82.4369 86.3138L82.5559 86.2869L88.8425 84.8926Z" fill="black"/>
<path d="M107.918 95.5753C103.76 94.9511 98.9775 100.982 98.9775 100.982C98.9775 100.982 93.3645 106.388 89.6217 102.645C85.9957 99.0194 79.6395 99.5021 79.2444 99.5246C81.3122 99.2372 82.6481 86.316 82.6481 86.316L82.7671 86.2891L102.72 81.8525C102.72 81.8525 103.91 83.6756 105.253 85.9972C107.675 90.18 110.594 95.9771 107.918 95.5753Z" fill="#FE747D"/>
<path opacity="0.1" d="M102.927 87.259C103.136 87.6743 99.5994 89.7534 97.938 89.1292C96.2765 88.5051 92.1162 91.8235 91.7008 92.2478C91.2854 92.6721 81.9297 91.6236 81.9297 91.6236C82.3179 89.8643 82.5976 88.0827 82.7671 86.289L102.72 81.8525C102.72 81.8525 103.91 83.6756 105.253 85.9972C104.011 86.5068 102.826 87.0547 102.927 87.259Z" fill="black"/>
<path opacity="0.1" d="M90.8678 70.2092L88.8471 84.8928L87.8952 91.7946C85.1066 91.5858 81.7254 91.2108 81.7254 91.2108C81.7254 91.2108 85.2593 76.4486 79.4375 68.7588C79.4375 68.7588 79.561 68.7588 79.7833 68.7363C83.05 74.1652 90.8678 70.2092 90.8678 70.2092Z" fill="black"/>
<path d="M79.6418 68.7552C79.6418 68.7552 90.2459 67.9245 94.404 70.8343C98.5622 73.7441 104.593 82.4779 104.593 82.4779L107.92 84.557C107.92 84.557 102.723 86.4272 102.931 86.8448C103.14 87.2624 99.6039 89.3393 97.9425 88.7151C96.281 88.0909 92.1207 91.4093 91.7053 91.8337C91.29 92.258 81.9342 91.2095 81.9342 91.2095C81.9342 91.2095 85.4637 76.4473 79.6418 68.7552Z" fill="#FE747D"/>
<path d="M156.252 126.033C153.845 125.975 97.2597 124.506 91.8578 118.48C86.1056 112.064 91.6894 93.5743 96.3908 80.2244C101.508 65.6912 95.4074 44.822 95.3468 44.584L95.7487 44.4785C95.8116 44.7188 101.943 65.7091 96.7837 80.3613C89.4711 101.132 87.9601 113.509 92.1676 118.202C97.4528 124.096 155.675 125.611 156.264 125.611L156.252 126.033Z" fill="#DFE6F5"/>
<path d="M117.132 74.2284L169.477 73.4336C170.152 73.5024 170.806 73.705 171.402 74.0295C171.997 74.354 172.522 74.7939 172.946 75.3236C173.37 75.8533 173.684 76.462 173.869 77.1144C174.055 77.7667 174.109 78.4495 174.028 79.1229L168.089 128.562C167.947 129.75 167.393 130.85 166.523 131.671C165.652 132.492 164.521 132.981 163.327 133.053L109.826 136.364C109.069 136.41 108.311 136.286 107.607 136.001C106.904 135.717 106.272 135.279 105.759 134.72C105.246 134.161 104.864 133.494 104.641 132.769C104.418 132.044 104.359 131.278 104.469 130.527L111.573 78.5684C111.764 77.2688 112.448 76.0926 113.483 75.2843C114.518 74.476 115.825 74.0978 117.132 74.2284Z" fill="#535461"/>
<path opacity="0.2" d="M117.132 74.2284L169.477 73.4336C170.152 73.5024 170.806 73.705 171.402 74.0295C171.997 74.354 172.522 74.7939 172.946 75.3236C173.37 75.8533 173.684 76.462 173.869 77.1144C174.055 77.7667 174.109 78.4495 174.028 79.1229L168.089 128.562C167.947 129.75 167.393 130.85 166.523 131.671C165.652 132.492 164.521 132.981 163.327 133.053L109.826 136.364C109.069 136.41 108.311 136.286 107.607 136.001C106.904 135.717 106.272 135.279 105.759 134.72C105.246 134.161 104.864 133.494 104.641 132.769C104.418 132.044 104.359 131.278 104.469 130.527L111.573 78.5684C111.764 77.2688 112.448 76.0926 113.483 75.2843C114.518 74.476 115.825 74.0978 117.132 74.2284Z" fill="black"/>
<path d="M117.547 74.2284L169.892 73.4336C170.567 73.5013 171.223 73.7031 171.819 74.0271C172.416 74.3511 172.942 74.7909 173.367 75.3207C173.791 75.8504 174.106 76.4596 174.292 77.1125C174.479 77.7653 174.533 78.4488 174.452 79.1229L168.513 128.562C168.371 129.75 167.817 130.85 166.946 131.671C166.076 132.492 164.945 132.981 163.751 133.053L110.244 136.364C109.486 136.41 108.728 136.286 108.024 136.001C107.321 135.717 106.69 135.279 106.176 134.72C105.663 134.161 105.281 133.494 105.058 132.769C104.835 132.044 104.776 131.278 104.887 130.527L111.99 78.5684C112.181 77.2692 112.865 76.0933 113.899 75.2851C114.934 74.4769 116.241 74.0984 117.547 74.2284V74.2284Z" fill="#353535"/>
<path opacity="0.3" d="M143.158 104.827C144.536 104.827 145.653 103.71 145.653 102.332C145.653 100.955 144.536 99.8379 143.158 99.8379C141.781 99.8379 140.664 100.955 140.664 102.332C140.664 103.71 141.781 104.827 143.158 104.827Z" fill="white"/>
<path opacity="0.1" d="M90.6837 127.8C82.5448 128.675 73.6201 128.22 73.6201 128.22L64.462 130.714L38.6825 138.2C37.5599 136.747 36.6619 134.922 35.9187 132.865L38.4737 129.883C46.5138 124.971 49.1407 118.83 49.5246 113.424C50.2117 118.801 50.3262 123.644 50.3262 123.644L60.7214 122.604L75.8249 119.012C76.865 118.765 77.9305 118.64 78.9996 118.642C80.9664 118.642 84.4667 118.684 88.205 118.886C87.7065 120.909 88.9863 124.385 90.6837 127.8Z" fill="black"/>
<path opacity="0.1" d="M102.096 125.101C97.3134 130.714 72.7801 129.468 72.7801 129.468L63.6309 131.962L37.8493 139.445C37.737 139.299 37.6248 139.151 37.5215 138.996L97.52 121.241C101.35 122.014 103.701 123.217 102.096 125.101Z" fill="black"/>
<path d="M102.096 124.685C97.3136 130.298 72.7803 129.052 72.7803 129.052L63.6311 131.544L37.8494 139.029C31.7874 131.171 31.9221 112.444 32.2521 104.869C32.3419 102.834 32.443 101.604 32.443 101.604C32.443 101.604 41.1746 96.1976 45.1261 101.604C45.8311 102.567 46.4216 103.914 46.9223 105.477C49.2146 112.682 49.4953 124.474 49.4953 124.474L59.8906 123.434L74.994 119.842C76.0348 119.594 77.1011 119.47 78.171 119.471C84.4306 119.489 106.2 119.867 102.096 124.685Z" fill="#FDC2CC"/>
<path opacity="0.1" d="M46.9201 105.479C45.5931 105.192 43.9833 105.255 41.801 106.18C37.4341 108.05 34.1089 107.635 34.1089 107.635C34.1089 107.635 34.3761 105.513 32.2544 104.869C32.3442 102.834 32.4452 101.604 32.4452 101.604C32.4452 101.604 41.1768 96.1976 45.1284 101.604C45.8266 102.567 46.4216 103.914 46.9201 105.479Z" fill="black"/>
<path opacity="0.1" d="M72.7693 105.14C72.6301 105.17 70.7598 105.522 67.1563 104.723C63.4135 103.892 61.9586 105.554 59.8796 106.386C57.8005 107.219 52.4053 107.635 50.3173 106.804C49.8256 106.607 49.3316 106.355 48.8085 106.131C48.3144 104.121 47.5667 102.182 46.5835 100.36L70.5151 100.473L72.684 104.943L72.7693 105.14Z" fill="black"/>
<path d="M72.7693 104.725C72.7693 104.725 70.899 105.141 67.1563 104.31C63.4135 103.479 61.9586 105.141 59.8796 105.974C57.8005 106.807 52.3941 107.222 50.315 106.389C48.236 105.556 46.1569 103.895 41.7833 105.765C37.4096 107.635 34.0912 107.22 34.0912 107.22C34.0912 107.22 34.5066 103.892 30.1419 104.301C25.7773 104.71 22.8652 102.637 22.8652 102.637L27.5038 91.9232L28.8958 88.7058L63.683 86.3281H63.8491L72.7693 104.725Z" fill="#FE747D"/>
<path d="M57.1853 70.2098C57.1853 70.2098 45.7505 67.922 40.3463 70.834C34.9421 73.746 30.784 80.1898 30.784 80.1898L22.8809 87.4665C22.8809 87.4665 25.9994 88.9214 27.4543 91.4158C28.9092 93.9102 35.564 91.4158 35.564 91.4158C35.564 91.4158 44.5044 89.3367 45.7527 92.4553C47.0011 95.5739 52.8229 93.9102 52.8229 93.9102C52.8229 93.9102 64.8818 90.5828 67.1697 94.3255L57.1853 70.2098Z" fill="#FE747D"/>
<path d="M96.4514 87.0371C95.4231 89.7448 92.3741 91.0942 89.5227 91.6084C86.7116 92.1134 83.8308 92.0875 81.0291 91.532C83.5109 88.9482 85.1171 85.6493 85.6206 82.1022C86.3862 76.5902 84.4171 70.9637 85.2277 65.4607C86.0606 59.8096 89.7428 54.8522 90.3804 49.1763C89.1141 49.9936 87.657 48.4399 86.9924 47.086C85.7741 44.597 84.7452 42.0197 83.9142 39.376C82.8837 36.0935 81.9609 32.4159 79.1275 30.467C78.6268 30.1213 77.951 29.8429 77.4323 30.1639C77.0529 30.3885 76.9047 30.8622 76.7947 31.2865C75.8203 35.1034 70.8943 38.103 69.5 41.7918C68.1731 45.2921 65.7798 48.3029 64.4708 51.8167C61.4712 59.8545 69.3878 69.7648 69.8593 78.3325C70.0703 82.1157 69.756 85.9078 69.4417 89.682C69.39 90.2859 69.2935 90.9685 68.7928 91.3075C68.4647 91.4856 68.0916 91.5636 67.7196 91.532C66.0372 91.5421 64.3656 91.2627 62.7779 90.7058C62.138 90.4813 61.4959 90.2074 60.8179 90.1961C59.8165 90.1804 58.905 90.7305 57.944 91.0179C54.7042 91.9923 51.3319 89.9065 48.9789 87.4772C46.626 85.0479 44.6322 82.1044 41.6057 80.6024C40.6156 80.1084 39.3201 79.3945 39.585 78.319C39.7119 77.9529 39.9344 77.6273 40.2294 77.376C41.4553 76.1434 42.744 74.9512 43.7476 73.5322C45.2609 71.3881 46.049 68.8308 46.8168 66.3207C47.9259 62.6879 49.0463 58.9654 48.8375 55.1732C48.7387 53.294 48.3121 51.4462 48.1482 49.5602C47.8249 45.8242 48.5568 42.0882 49.2843 38.4106C49.7782 35.9049 50.3148 33.3072 51.8573 31.2708C52.9058 29.8878 54.3472 28.8617 55.5237 27.5842C57.2794 25.678 58.3796 23.2757 59.803 21.109C61.2265 18.9424 63.1574 16.8903 65.6899 16.3402C67.2234 16.0057 68.8198 16.2616 70.3689 16.5198C71.606 16.7287 72.8723 16.9442 74.0421 17.4179C74.9649 17.7861 75.8135 18.6954 76.7588 18.8683C78.6402 19.2208 80.7081 18.4822 82.722 18.9581C86.6399 19.8809 90.2143 22.5078 91.952 26.1787C92.292 26.9053 92.5787 27.6557 92.8097 28.4239C93.142 29.5016 93.3957 30.604 93.6472 31.7041C93.701 31.9287 93.7527 32.1711 93.8021 32.4024C95.34 39.7128 94.3477 45.0361 93.6763 52.6406C93.005 60.2451 92.8411 70.4339 94.9561 77.7869C95.8385 80.8583 97.583 84.0577 96.4514 87.0371Z" fill="#865A61"/>
<path opacity="0.2" d="M97.9356 136.847C98.1079 136.847 98.2476 136.707 98.2476 136.535C98.2476 136.362 98.1079 136.223 97.9356 136.223C97.7632 136.223 97.6235 136.362 97.6235 136.535C97.6235 136.707 97.7632 136.847 97.9356 136.847Z" fill="black"/>
<path d="M93.7998 32.4011C90.3669 26.2156 83.3978 21.9744 75.3892 21.9744C63.9836 21.9744 54.702 30.5556 54.702 41.1035H53.2358C53.2358 29.754 63.1708 20.5195 75.378 20.5195C82.4459 20.5195 88.7504 23.6134 92.8075 28.4226C93.1397 29.5003 93.3935 30.6027 93.6449 31.7029C93.701 31.9386 93.7527 32.1699 93.7998 32.4011Z" fill="#535461"/>
<path d="M56.3299 35.0254H58.245V48.2721H56.3299C54.8674 48.2721 53.4649 47.6911 52.4308 46.657C51.3966 45.6229 50.8157 44.2203 50.8157 42.7579V40.5531C50.8139 39.8278 50.9552 39.1093 51.2316 38.4387C51.5079 37.7682 51.9138 37.1587 52.426 36.6452C52.9382 36.1318 53.5467 35.7244 54.2166 35.4464C54.8865 35.1685 55.6046 35.0254 56.3299 35.0254V35.0254Z" fill="#DFE6F5"/>
<path d="M58.5168 35.0371H57.9735C57.2258 35.0371 56.6196 35.6432 56.6196 36.391V46.9187C56.6196 47.6664 57.2258 48.2725 57.9735 48.2725H58.5168C59.2645 48.2725 59.8707 47.6664 59.8707 46.9187V36.391C59.8707 35.6432 59.2645 35.0371 58.5168 35.0371Z" fill="#535461"/>
</g>
<defs>
<linearGradient id="paint0_linear" x1="133.284" y1="158.486" x2="133.284" y2="14.8111" gradientUnits="userSpaceOnUse">
<stop stop-color="#808080" stop-opacity="0.25"/>
<stop offset="0.54" stop-color="#808080" stop-opacity="0.12"/>
<stop offset="1" stop-color="#808080" stop-opacity="0.1"/>
</linearGradient>
<clipPath id="clip0">
<rect width="256" height="174.228" fill="white"/>
</clipPath>
</defs>
</svg>
