<svg width="64" height="64" viewBox="0 0 64 64" fill="none" xmlns="http://www.w3.org/2000/svg">
<path d="M53.6037 60.2789L52.207 49.1049C51.9961 47.4182 50.8355 46.0025 49.2231 45.465L43.8374 43.6697C43.0978 43.4231 42.2865 43.5802 41.7161 44.0661L40.1296 43.5373C39.2285 43.2369 38.6207 42.3936 38.6207 41.4436V37.8847L43.3739 35.9042C45.8411 34.8765 47.4481 32.4659 47.4481 29.793V28.6896C49.2764 28.6896 50.7584 27.2075 50.7584 25.3793C50.7584 24.5546 50.4562 23.8009 49.9573 23.2213C50.894 19.812 53.5267 9.02743 50.7584 4.41378L51.8619 0C51.8619 0 40.2757 0.275861 34.2068 2.20689L36.4136 0C36.4136 0 20.8964 0 17.656 5.51626L17.6551 5.51723C17.6551 5.51723 12.1378 5.4713 12.1378 12.1379C12.1378 14.5779 13.4988 20.6706 14.0831 23.1744C13.5599 23.7598 13.2413 24.5322 13.2413 25.3793C13.2413 27.2075 14.7233 28.6896 16.5516 28.6896V29.793C16.5516 32.4657 18.1586 34.8763 20.6258 35.9045L25.3792 37.885V41.4438C25.3792 42.3937 24.7713 43.237 23.8702 43.5374L22.2837 44.0662C21.7134 43.5803 20.9021 43.4232 20.1625 43.6698L14.7767 45.4651C13.1642 46.0027 12.0036 47.4184 11.7929 49.105L10.3962 60.279C10.1491 62.2548 11.6897 63.9999 13.6809 63.9999H13.7119H50.2878H50.3189C52.31 63.9999 53.8507 62.2548 53.6037 60.2789Z" fill="#FFD7A3"/>
<path d="M38.6206 37.8848L25.3792 37.8849V41.4437C25.3792 42.238 24.9398 42.9376 24.2734 43.3277C33.5278 44.9474 38.6206 37.8848 38.6206 37.8848Z" fill="#FDC88E"/>
<path d="M14.3446 24.2758C14.3446 24.2758 12.1377 15.2449 12.1377 12.1379C12.1377 5.4713 17.6549 5.51723 17.6549 5.51723L17.6559 5.51626C20.8963 0 36.4135 0 36.4135 0L34.2066 2.20689C40.2756 0.275861 51.8617 0 51.8617 0L50.7583 4.41378C54.0686 9.93101 49.6549 24.2758 49.6549 24.2758H14.3446Z" fill="black"/>
<path d="M36.4135 0C36.4135 0 20.8963 0 17.6559 5.51626L17.6549 5.51723C17.6549 5.51723 12.1377 5.4713 12.1377 12.1379C12.1377 15.2449 14.3446 24.2758 14.3446 24.2758C14.3446 24.2758 37.2872 14.023 51.8617 0C51.8617 0 40.2756 0.275861 34.2066 2.20689L36.4135 0Z" fill="#353535"/>
<path d="M47.448 22.0688V19.862C47.448 16.8149 44.9778 14.3447 41.9308 14.3447H22.0688C19.0217 14.3447 16.5515 16.8149 16.5515 19.862V22.0688C14.7233 22.0688 13.2412 23.5509 13.2412 25.3792C13.2412 27.2075 14.7233 28.6895 16.5515 28.6895V29.793C16.5515 32.4657 18.1586 34.8763 20.6257 35.9044L27.7555 38.8752C29.1003 39.4356 30.5428 39.724 31.9997 39.724C33.4565 39.724 34.8988 39.4354 36.2436 38.8752L43.3738 35.9043C45.841 34.8764 47.448 32.4658 47.448 29.793V28.6895C49.2763 28.6895 50.7584 27.2075 50.7584 25.3792C50.7584 23.5509 49.2763 22.0688 47.448 22.0688Z" fill="#FFE1B2"/>
<path d="M24.2758 26.4822C23.6689 26.4822 23.1724 25.9857 23.1724 25.3788V24.2753C23.1724 23.6684 23.6689 23.1719 24.2758 23.1719C24.8827 23.1719 25.3793 23.6684 25.3793 24.2753V25.3788C25.3793 25.9857 24.8827 26.4822 24.2758 26.4822Z" fill="#623F33"/>
<path d="M39.7241 26.4822C39.1172 26.4822 38.6206 25.9857 38.6206 25.3788V24.2753C38.6206 23.6684 39.1172 23.1719 39.7241 23.1719C40.3309 23.1719 40.8275 23.6684 40.8275 24.2753V25.3788C40.8275 25.9857 40.3309 26.4822 39.7241 26.4822Z" fill="#623F33"/>
<path d="M31.9998 34.2372C30.038 34.2372 28.203 33.7545 26.9653 32.9124C26.4616 32.5698 26.3306 31.8833 26.6739 31.3796C27.016 30.8764 27.703 30.7454 28.2067 31.0881C29.0742 31.6781 30.4922 32.0305 31.9998 32.0305C33.5074 32.0305 34.9255 31.6781 35.7929 31.0881C36.2977 30.7444 36.9831 30.8759 37.3257 31.3796C37.6689 31.8833 37.538 32.5698 37.0343 32.9124C35.7968 33.7545 33.9616 34.2372 31.9998 34.2372Z" fill="#E4B07B"/>
<path d="M53.6037 60.2785L52.207 49.1044C51.9962 47.4178 50.8355 46.0021 49.2231 45.4646L43.8373 43.6693C42.8994 43.3566 41.8442 43.6905 41.3145 44.5253C39.3583 47.6072 35.9204 49.6545 31.9999 49.6545C28.0793 49.6545 24.6414 47.607 22.6854 44.5253C22.1556 43.6905 21.1004 43.3566 20.1625 43.6693L14.7767 45.4646C13.1642 46.0021 12.0036 47.4178 11.7929 49.1044L10.3962 60.2785C10.1491 62.2542 11.6898 63.9994 13.681 63.9994H50.319C52.31 63.9994 53.8507 62.2542 53.6037 60.2785Z" fill="#11BDCF"/>
<path d="M12.7127 46.9199C12.2228 47.5402 11.8948 48.2896 11.7929 49.1052L10.3962 60.2792C10.1491 62.2551 11.6898 64.0002 13.681 64.0002H19.862V56.8185C19.862 55.7569 19.4793 54.7309 18.7843 53.9285L12.7127 46.9199Z" fill="#2A4F77"/>
<path d="M51.2869 46.9199C51.7769 47.5402 52.1049 48.2896 52.2068 49.1052L53.6035 60.2792C53.8505 62.2551 52.3098 64.0002 50.3187 64.0002H44.1377V56.8185C44.1377 55.7569 44.5203 54.7309 45.2153 53.9285L51.2869 46.9199Z" fill="#2A4F77"/>
<path d="M22.3441 33.6168C21.45 32.6582 20.9655 31.3932 20.9655 30.0824V17.5775C24.4776 17.3142 35.5508 16.3566 41.9309 14.3447H22.0688C21.6889 14.3447 21.3211 14.389 20.9653 14.4662V14.4559C18.4471 14.9672 16.5515 17.1929 16.5515 19.862V22.0688C14.7233 22.0688 13.2412 23.5509 13.2412 25.3792C13.2412 27.2075 14.7233 28.6895 16.5515 28.6895V29.793C16.5515 32.4658 18.1586 34.8764 20.6257 35.9044L27.7554 38.8752C28.1044 39.0205 28.4605 39.1458 28.8212 39.2543C25.6703 36.9492 23.5729 34.9342 22.3441 33.6168Z" fill="#FFD7A3"/>
</svg>
