<svg width="64" height="65" viewBox="0 0 64 65" fill="none" xmlns="http://www.w3.org/2000/svg">
<path d="M14.0801 28.894H23.4832C23.9834 29.6442 24.5836 30.2945 25.2338 30.9447C20.5322 31.5449 12.3795 33.8957 8.12806 42.6486C7.92799 43.0487 8.02802 43.5489 8.37814 43.849L8.92832 44.2991L1.47583 58.9541C1.22574 59.4542 1.42581 60.0544 1.92598 60.3045L6.22742 63.3055C6.67757 63.6556 7.27777 63.5556 7.62789 63.1555L16.831 51.3015L17.031 51.5016V63.0054C17.031 63.5556 17.4812 64.0057 18.0314 64.0057H46.0408C46.5909 64.0057 47.0411 63.5556 47.0411 63.0054V51.4015L47.1911 51.2515L56.3442 63.1054C56.6943 63.5556 57.2945 63.6056 57.7447 63.3055C58.1948 62.9554 61.596 60.5546 62.0461 60.3045C62.5463 60.0544 62.7464 59.4542 62.4963 58.9541L55.0938 44.3492L55.694 43.849C56.0441 43.5489 56.1441 43.0487 55.9441 42.6486C51.7427 33.8957 43.5399 31.5449 38.8383 30.9447C39.4886 30.3445 40.0387 29.6442 40.5889 28.894H49.9921C50.4922 28.894 50.9424 28.4939 50.9924 27.9937C50.9924 27.7936 53.0931 7.1367 35.8373 0.634523C34.687 0.084339 30.2855 -0.0156944 28.2848 0.634523C11.029 7.1367 13.0797 27.7936 13.0797 27.9937C13.1297 28.4939 13.5799 28.894 14.0801 28.894ZM45.0404 62.0051H19.0317V60.0044H45.0404V62.0051ZM39.2385 33.0454C43.4399 33.7456 50.0421 35.8963 53.7433 42.8487L45.3405 50.2011C45.1405 50.4012 44.9904 50.6513 44.9904 50.9514V57.9537H18.9817V50.9514C18.9817 50.6513 18.8817 50.4012 18.6316 50.2011L10.2788 42.8487C13.98 35.9464 20.5822 33.6956 24.7836 33.0454C25.2338 34.4959 26.4842 35.7463 27.7346 36.6966C26.8843 36.3965 25.934 36.7466 25.5839 37.5969C24.8337 38.9474 25.1838 41.4982 26.5842 42.3485C26.9344 42.5486 27.3345 42.6986 27.7846 42.6986C29.0351 42.6986 30.4855 41.6483 32.0361 39.4975C33.6366 41.5982 35.0371 42.6986 36.2875 42.6986C36.6876 42.6986 37.1378 42.5986 37.4879 42.3485C38.8884 41.4982 39.2385 38.9474 38.4882 37.5969C38.0881 36.7966 37.1378 36.3965 36.3375 36.6966C37.5879 35.6963 38.7883 34.4458 39.2385 33.0454ZM26.5842 32.0951C29.7853 34.4959 34.1868 34.4959 37.3879 32.0951C37.0878 34.0957 33.6366 36.0964 31.986 36.8967C30.3355 36.0964 26.9344 34.0957 26.5842 32.0951ZM29.5852 39.2975C28.3348 40.6479 27.7346 40.6479 27.6846 40.6479C27.4845 40.6479 27.3845 40.2978 27.3345 40.1978C27.1344 39.6976 27.1344 39.1474 27.2845 38.6473C27.9847 38.9974 28.785 39.1974 29.5852 39.2975ZM34.4369 39.2975C35.2371 39.1974 36.0374 38.9974 36.7376 38.6473C36.8877 39.1474 36.8377 39.6976 36.6876 40.1978C36.6376 40.2978 36.5376 40.5979 36.3375 40.6479C36.2875 40.6479 35.6873 40.6979 34.4369 39.2975ZM22.0327 15.7396H23.7833C27.0344 15.7396 30.0854 14.2391 32.0361 11.6382C33.9867 14.2391 37.0377 15.7396 40.2888 15.7396H42.0394C42.0394 16.0897 42.0394 16.4398 42.0394 16.84C42.0394 20.7913 41.0391 24.4925 39.1885 27.3435C37.2878 30.2945 34.737 31.895 32.0361 31.895C29.3352 31.895 26.7843 30.2945 24.8837 27.3435C23.033 24.4925 22.0327 20.7913 22.0327 16.84C22.0327 16.4898 22.0327 16.0897 22.0327 15.7396Z" fill="#08384D"/>
<path d="M28.1847 26.3926C27.7845 25.9925 27.1843 25.9925 26.7842 26.3426C26.3841 26.6927 26.3841 27.3429 26.7342 27.7431C28.0846 29.1935 29.9853 29.9938 31.9859 30.0938C33.9866 30.0438 35.8372 29.1935 37.2377 27.7431C37.5878 27.3429 37.5378 26.6927 37.1377 26.3426C36.7375 25.9925 36.1373 25.9925 35.7372 26.3926C34.7369 27.3929 33.4364 27.9931 32.036 28.0932H31.9859C30.5355 27.9931 29.185 27.3929 28.1847 26.3926Z" fill="#08384D"/>
<path d="M31.9857 49.1504C31.4355 49.1504 30.9854 49.6005 30.9854 50.1507V55.1524C30.9854 55.7026 31.4355 56.1527 31.9857 56.1527C32.5359 56.1527 32.986 55.7026 32.986 55.1524V50.1507C32.986 49.6005 32.5359 49.1504 31.9857 49.1504Z" fill="#08384D"/>
<path d="M25.9837 20.0407H27.9844C28.5346 20.0407 28.9847 19.5906 28.9847 19.0404C28.9847 18.4902 28.5346 18.04 27.9844 18.04H25.9837C25.4335 18.04 24.9834 18.4902 24.9834 19.0404C24.9834 19.5906 25.4335 20.0407 25.9837 20.0407Z" fill="#08384D"/>
<path d="M35.9876 20.0407H37.9883C38.5385 20.0407 38.9886 19.5906 38.9886 19.0404C38.9886 18.4902 38.5385 18.04 37.9883 18.04H35.9876C35.4375 18.04 34.9873 18.4902 34.9873 19.0404C34.9873 19.5906 35.4375 20.0407 35.9876 20.0407Z" fill="#08384D"/>
<path d="M10.0789 27.9431H9.82881C9.72878 27.9431 9.57873 27.9931 9.47869 27.9931L7.82814 28.3932L6.87782 26.9428C6.27762 26.0425 5.0272 25.7924 4.1269 26.3926C3.62673 26.7427 3.27662 27.3429 3.2266 27.9431L3.17658 29.4936L1.57605 29.8938C0.525693 30.1438 -0.174541 31.2442 0.125559 32.2946C0.175576 32.9948 0.625727 33.495 1.27594 33.745L2.9265 34.3953L2.82646 35.9958C2.77645 37.0962 3.62673 38.0465 4.7271 38.0965C5.3273 38.1465 5.9275 37.8464 6.32764 37.3963L7.37799 36.1458L9.02854 36.7961C10.0789 37.1962 11.2293 36.696 11.6294 35.6457C11.8795 35.0455 11.7795 34.2952 11.4293 33.745L10.479 32.4446L11.4794 31.2942C12.2296 30.4439 12.1296 29.1935 11.2793 28.4433C10.9792 28.1432 10.529 27.9431 10.0789 27.9431Z" fill="#FFDCDE"/>
<path d="M63.9962 31.7438C63.9462 30.8936 63.346 30.1433 62.4957 29.9432L60.8952 29.5431L60.8452 27.9926C60.7951 26.8922 59.8448 26.0419 58.7445 26.0919C58.0942 26.142 57.5441 26.4421 57.1939 26.9922L56.2436 28.4427L54.493 27.9926C53.4427 27.7425 52.3423 28.3927 52.0922 29.4931C51.9422 30.0933 52.0922 30.7435 52.4924 31.2437L53.4927 32.4441L52.5924 33.7945C51.9422 34.6948 52.1923 35.9452 53.0926 36.5955C53.6428 36.9956 54.343 37.0456 54.9932 36.7955L56.6438 36.1453L57.6941 37.3957C58.3943 38.246 59.6448 38.346 60.495 37.6458C60.9452 37.2457 61.2453 36.6455 61.1953 36.0453L61.1453 34.4447L62.7458 33.7945C63.5461 33.4444 64.0462 32.6441 63.9962 31.7438Z" fill="#FFB69E"/>
<path d="M61.9954 2.13452C61.8954 2.13452 61.7453 2.13452 61.6453 2.18454L60.0448 2.48464L59.3946 1.13418C58.8944 0.13385 57.694 -0.266284 56.6936 0.233883C56.1435 0.533984 55.7433 1.03415 55.5933 1.68437L55.2932 3.38494L53.5926 3.68504C52.4922 3.88511 51.792 4.93546 51.9921 6.03583C52.0921 6.63603 52.4922 7.18621 53.0924 7.48631L54.4929 8.13653L54.1928 9.73707C53.9927 10.8374 54.743 11.8878 55.7933 12.0879C56.4436 12.1879 57.0938 11.9878 57.5439 11.5377L58.7443 10.3373L60.1948 11.0375C61.1952 11.5377 62.3956 11.1375 62.8957 10.1372C63.1958 9.58702 63.1958 8.9368 62.8957 8.3366L62.1955 6.88611L63.3959 5.68571C64.1962 4.88544 64.1962 3.63502 63.3959 2.83475C63.0458 2.3846 62.4956 2.13452 61.9954 2.13452Z" fill="#FFDCDE"/>
<path d="M1.77583 6.78633L1.0756 8.23681C0.575429 9.23715 0.975563 10.4375 1.9759 10.9377C2.52608 11.2378 3.1763 11.2378 3.7765 10.9377L5.22699 10.2375L6.42739 11.4379C7.22766 12.2382 8.47808 12.2382 9.27835 11.4379C9.7285 10.9877 9.92856 10.2875 9.82853 9.6873L9.47841 8.08676L10.8289 7.38653C11.8292 6.88636 12.2293 5.68596 11.7292 4.68562C11.4791 4.13544 10.9789 3.7353 10.3287 3.63527L8.62813 3.33517L8.32803 1.6346C8.12796 0.534232 7.07761 -0.166003 6.02726 0.0340645C5.42705 0.134098 4.87687 0.534232 4.57677 1.13443L3.92655 2.48489L2.32602 2.18479C1.22565 1.98472 0.225312 2.73497 0.0252449 3.83534C-0.0747886 4.48556 0.125278 5.13577 0.575429 5.58592L1.77583 6.78633Z" fill="#FFB69E"/>
</svg>
