<svg width="80" height="80" viewBox="0 0 80 80" fill="none" xmlns="http://www.w3.org/2000/svg">
<g clip-path="url(#clip0)">
<path d="M54.1936 50.555C54.1936 49.2694 54.633 48.0967 55.3606 47.1772C55.7972 46.6257 55.7972 45.8349 55.3606 45.2833C54.633 44.3638 54.1936 43.1913 54.1936 41.9056C54.1936 41.2906 54.2152 32.2583 54.2152 32.2583H58.7099C60.5999 33.1046 61.9356 35.1449 61.9356 37.536C61.9356 38.9011 61.4963 40.1463 60.7686 41.1227C60.3321 41.7086 60.3321 42.5483 60.7686 43.1339C61.4963 44.1103 61.9356 45.3556 61.9356 46.721C61.9356 48.1341 61.4661 49.4203 60.6927 50.4117C60.1864 51.0606 60.1864 51.9724 60.6927 52.6214C61.4663 53.613 61.9356 54.8992 61.9356 56.3125C61.9356 59.3549 59.355 61.9355 59.355 61.9355L54.1938 60.6452C54.1938 60.6452 54.1938 58.0646 55.4367 56.1113C55.8628 55.4417 55.943 54.6416 55.4367 54.0305C54.6628 53.0971 54.1936 51.8858 54.1936 50.555Z" fill="#43291E"/>
<path d="M25.8065 50.555C25.8065 49.2694 25.3671 48.0967 24.6395 47.1772C24.2029 46.6257 24.2029 45.8349 24.6395 45.2833C25.3671 44.3638 25.8065 43.1913 25.8065 41.9056C25.8065 41.2906 25.7849 32.2583 25.7849 32.2583H21.2902C19.4002 33.1046 18.0645 35.1449 18.0645 37.536C18.0645 38.9011 18.5038 40.1463 19.2315 41.1227C19.668 41.7086 19.668 42.5483 19.2315 43.1339C18.5038 44.1103 18.0645 45.3556 18.0645 46.721C18.0645 48.1341 18.534 49.4203 19.3074 50.4117C19.8137 51.0606 19.8137 51.9724 19.3074 52.6214C18.5338 53.613 18.0645 54.8992 18.0645 56.3125C18.0645 59.3549 20.6451 61.9355 20.6451 61.9355L25.8063 60.6452C25.8063 60.6452 25.8063 58.0646 24.5634 56.1113C24.1373 55.4417 24.0571 54.6416 24.5634 54.0305C25.3371 53.0971 25.8065 51.8858 25.8065 50.555Z" fill="#43291E"/>
<path d="M40.0001 0C28.5981 0 19.355 9.24312 19.355 20.6452V30.3302H60.6453V20.6452C60.6453 9.24312 51.4022 0 40.0001 0Z" fill="#43291E"/>
<path d="M64.5122 62.6931L51.1855 57.9895C49.1219 57.2612 47.7419 55.3107 47.7419 53.1224V42.5806H32.2578V53.1224C32.2578 55.3107 30.8778 57.2612 28.8144 57.9895L15.4877 62.6931C12.3924 63.7856 10.3225 66.7112 10.3225 69.9935V76.129C10.3225 78.2668 12.0556 79.9999 14.1934 79.9999H65.8064C67.9442 79.9999 69.6773 78.2668 69.6773 76.129V69.9935C69.6773 66.7112 67.6075 63.7856 64.5122 62.6931Z" fill="#D6A079"/>
<path d="M64.5123 62.6932L54.1448 59.0342C53.6445 66.4189 47.5117 72.2582 40.0001 72.2582C32.4885 72.2582 26.3557 66.4189 25.8554 59.0342L15.4879 62.6932C12.3926 63.7856 10.3228 66.7114 10.3228 69.9937V76.1292C10.3228 78.267 12.0559 80.0001 14.1937 80.0001H65.8067C67.9445 80.0001 69.6776 78.267 69.6776 76.1292V69.9937C69.6774 66.7114 67.6076 63.7856 64.5123 62.6932Z" fill="#2A4F77"/>
<path d="M32.2582 50.0161C34.6329 51.0448 37.2515 51.6128 40.0001 51.6128C42.7487 51.6128 45.3673 51.0447 47.742 50.0161V45.1613H32.2581L32.2582 50.0161Z" fill="#CA946D"/>
<path d="M57.4192 27.0967C57.4192 27.0967 55.6914 26.8885 55.1628 26.7423C52.2313 25.9306 45.8844 23.396 41.0766 15.9857C40.57 15.205 39.4297 15.205 38.9231 15.9857C34.1153 23.3959 27.7685 25.9306 24.8369 26.7423C24.3083 26.8885 22.5805 27.0967 22.5805 27.0967C20.6892 27.0967 19.1781 28.7242 19.3714 30.6551C19.5396 32.334 21.077 33.5482 22.7644 33.5482H23.2908C23.9517 42.2074 31.1713 49.0321 39.9999 49.0321C48.8285 49.0321 56.048 42.2074 56.7089 33.5482H57.2353C58.9227 33.5482 60.4603 32.334 60.6283 30.6551C60.8216 28.7242 59.3105 27.0967 57.4192 27.0967Z" fill="#D6A079"/>
<path d="M32.2593 31.0798C31.546 31.0798 30.969 30.502 30.969 29.7895V28.4992C30.969 27.7867 31.5462 27.2089 32.2593 27.2089C32.9726 27.2089 33.5496 27.7867 33.5496 28.4992V29.7895C33.5496 30.5021 32.9724 31.0798 32.2593 31.0798Z" fill="#F5F5F5"/>
<path d="M47.7429 31.0798C47.0297 31.0798 46.4526 30.502 46.4526 29.7895V28.4992C46.4526 27.7867 47.0298 27.2089 47.7429 27.2089C48.4561 27.2089 49.0333 27.7867 49.0333 28.4992V29.7895C49.0334 30.5021 48.4562 31.0798 47.7429 31.0798Z" fill="#F5F5F5"/>
<path d="M47.7405 51.616L47.7418 51.6163V51.5713L47.7405 51.616Z" fill="#FFD164"/>
<path d="M32.2581 51.5713V51.6163L32.2594 51.616L32.2581 51.5713Z" fill="#FFD164"/>
<path d="M43.7405 0.355469C43.0013 2.24703 42.5808 4.29844 42.5808 6.45188C42.5808 15.7159 50.091 23.2261 59.355 23.2261C59.7907 23.2261 60.2182 23.1934 60.6453 23.1609V20.6455C60.6452 10.5223 53.3541 2.1175 43.7405 0.355469Z" fill="#623F33"/>
<path d="M34.8986 35.5916C34.4924 35.5916 34.1905 35.9628 34.258 36.3634C34.6771 38.8478 37.0883 40.7528 40 40.7528C42.9117 40.7528 45.3228 38.8478 45.742 36.3634C45.8095 35.9628 45.5077 35.5916 45.1014 35.5916H34.8986Z" fill="white"/>
<path d="M39.9999 78.7098C50.3213 78.7098 58.8488 71.1273 60.3769 61.2339L54.1444 59.0342C53.6441 66.4189 47.5113 72.2582 39.9997 72.2582C32.4882 72.2582 26.3554 66.4189 25.8551 59.0342L19.6226 61.2339C21.151 71.1273 29.6785 78.7098 39.9999 78.7098Z" fill="#08384D"/>
<path d="M39.9999 76.129C49.1971 76.129 56.7724 69.2504 57.9027 60.3604L51.6091 58.1392C51.5685 64.5181 46.3885 69.6774 40.0001 69.6774C33.6116 69.6774 28.4315 64.5179 28.391 58.1392L22.0974 60.3604C23.2274 69.2504 30.8027 76.129 39.9999 76.129Z" fill="white"/>
</g>
<defs>
<clipPath id="clip0">
<rect width="80" height="80" fill="white"/>
</clipPath>
</defs>
</svg>
