<svg width="96" height="96" viewBox="0 0 96 96" fill="none" xmlns="http://www.w3.org/2000/svg">
<g clip-path="url(#clip0)">
<path d="M92.4793 30.0026H48.0012C38.0606 29.9929 29.9941 38.0434 29.9842 47.984C29.9812 51.0716 30.7724 54.108 32.2819 56.8013L10.043 18.6431C26.2409 -2.32132 56.3671 -6.18515 77.3314 10.0128C84.0641 15.2148 89.2921 22.1139 92.4793 30.0026Z" fill="#F44336"/>
<path d="M95.9986 48.0018C95.9765 74.5011 74.5 95.9775 48.0007 95.9996C45.9938 96.0071 43.989 95.8734 42.001 95.5997L63.6 57.0014C68.5504 48.3835 65.5994 37.3851 57.0003 32.4025C54.2777 30.8262 51.1866 29.9981 48.0407 30.0026H92.4786C94.8144 35.7154 96.0102 41.8299 95.9986 48.0018Z" fill="#FFC107"/>
<path d="M63.6009 57.0014L42.0019 95.5997H41.962C15.6779 92.2789 -2.93737 68.2792 0.383479 41.9951C1.45837 33.4877 4.79403 25.4239 10.0434 18.6431L32.2824 56.8014L32.4024 57.0014C37.3617 65.6166 48.3659 68.5803 56.9812 63.6212C59.7332 62.0371 62.017 59.7532 63.6009 57.0014Z" fill="#4CAF50"/>
<path d="M63.601 57.0014C58.6416 65.6166 47.6374 68.5803 39.0221 63.6211C36.2703 62.037 33.9865 59.7532 32.4024 57.0014L32.2824 56.8013C27.4224 48.1297 30.5126 37.1601 39.1843 32.3001C41.8778 30.7906 44.9142 29.9994 48.0017 30.0024H48.0416C51.1875 29.9979 54.2787 30.8261 57.0013 32.4023C65.6006 37.3851 68.5513 48.3835 63.601 57.0014Z" fill="#F44336"/>
<path d="M63.601 57.0014C58.6416 65.6166 47.6374 68.5803 39.0221 63.6211C36.2703 62.037 33.9865 59.7532 32.4024 57.0014L32.2824 56.8013C27.4224 48.1297 30.5126 37.1601 39.1843 32.3001C41.8778 30.7906 44.9142 29.9994 48.0017 30.0024H48.0416C51.1875 29.9979 54.2787 30.8261 57.0013 32.4023C65.6006 37.3851 68.5513 48.3835 63.601 57.0014Z" fill="#2196F3"/>
<path d="M47.9343 68.0009C44.4473 68.0005 41.0218 67.0817 38.0026 65.337C34.9583 63.5763 32.43 61.0467 30.671 58.0014C25.1484 48.436 28.4258 36.2048 37.9912 30.6822C41.0348 28.9251 44.4878 28.0009 48.0023 28.0028C59.0474 27.9942 68.0084 36.9413 68.0169 47.9864C68.0197 51.5022 67.0953 54.9566 65.3374 58.0014C61.7331 64.198 55.1028 68.0077 47.9343 68.0009ZM48.0381 32.0025C42.2984 31.972 36.9846 35.0268 34.1227 40.0022C29.7046 47.6632 32.3335 57.4553 39.9944 61.8733C47.6553 66.2914 57.4474 63.6626 61.8654 56.0017C66.2835 48.3494 63.6616 38.5644 56.0093 34.1461C53.5866 32.7474 50.8394 32.0084 48.0421 32.0027H48.0381V32.0025Z" fill="#FAFAFA"/>
</g>
<defs>
<clipPath id="clip0">
<rect width="96" height="96" fill="white"/>
</clipPath>
</defs>
</svg>
