<svg width="64" height="64" viewBox="0 0 64 64" fill="none" xmlns="http://www.w3.org/2000/svg">
<g clip-path="url(#clip0)">
<path d="M31.019 24.0311V5.38384C31.019 4.54836 31.6963 3.87109 32.5318 3.87109H59.0991C59.9346 3.87109 60.6118 4.54836 60.6118 5.38384V24.0311C60.6118 24.8665 59.9346 25.5438 59.0991 25.5438H32.5319C31.6963 25.5438 31.019 24.8665 31.019 24.0311Z" fill="white" stroke="#959595"/>
<path d="M32.0737 19.3012C31.7779 19.3012 31.4852 19.1707 31.2879 18.9204C30.9462 18.4868 31.0204 17.8582 31.454 17.5163L39.649 11.0546C40.0828 10.7127 40.7114 10.7871 41.0531 11.2207C41.3949 11.6543 41.3206 12.2829 40.887 12.6248L32.692 19.0866C32.5084 19.2309 32.2903 19.3012 32.0737 19.3012Z" fill="#FF8C46"/>
<path d="M16.0359 8.89796C18.441 8.89796 20.3906 6.94828 20.3906 4.54322C20.3906 2.13816 18.441 0.188477 16.0359 0.188477C13.6308 0.188477 11.6812 2.13816 11.6812 4.54322C11.6812 6.94828 13.6308 8.89796 16.0359 8.89796Z" fill="#FFB69E"/>
<path d="M19.0549 53.3605C17.6551 53.3605 16.5205 52.2257 16.5205 50.8261V30.5685C16.5205 29.1688 17.6553 28.0342 19.0549 28.0342C20.4545 28.0342 21.5892 29.1689 21.5892 30.5685V50.8261C21.5894 52.2257 20.4546 53.3605 19.0549 53.3605Z" fill="#343E6B"/>
<path d="M12.9367 53.3605C11.537 53.3605 10.4023 52.2257 10.4023 50.8261V30.5685C10.4023 29.1688 11.5371 28.0342 12.9367 28.0342C14.3363 28.0342 15.4711 29.1689 15.4711 30.5685V50.8261C15.4712 52.2257 14.3365 53.3605 12.9367 53.3605Z" fill="#414B82"/>
<path d="M33.8292 17.1952C33.2171 16.2093 31.9218 15.9063 30.9358 16.5183L26.6802 19.1605V15.2317C26.6666 12.5037 24.4162 10.2842 21.6881 10.2842H21.6103C20.2671 10.2842 11.7165 10.2842 10.3268 10.2842C7.54185 10.2842 5.26473 12.5151 5.25098 15.257C5.25098 15.2605 5.25098 15.2642 5.25098 15.2677V30.7837C5.25098 31.95 6.1966 32.8957 7.36297 32.8957C8.52935 32.8957 9.47497 31.95 9.47497 30.7837V15.2748C9.47947 14.8732 9.88434 14.5083 10.3268 14.5083H10.4028V30.5675H21.5897C21.5897 29.0703 21.5897 16.1703 21.5897 14.4868C21.601 14.4868 21.6995 14.4868 21.6882 14.4868C22.1107 14.4868 22.4948 14.8305 22.497 15.253V22.9374C22.5052 24.5828 24.3162 25.5752 25.7064 24.712L33.1528 20.0888C34.1383 19.4764 34.4412 18.181 33.8292 17.1952Z" fill="#252D5C"/>
<path d="M33.8293 17.1952C33.2172 16.2093 31.9219 15.9063 30.936 16.5183L26.6803 19.1605V15.2317C26.6667 12.5037 24.4163 10.2842 21.6882 10.2842C20.9668 10.2842 16.6894 10.2842 15.9956 10.2842V30.5673H21.5897C21.5897 29.07 21.5897 16.17 21.5897 14.4865C21.601 14.4865 21.6995 14.4865 21.6882 14.4865C22.1107 14.4865 22.4948 14.8303 22.497 15.2528V22.9372C22.5052 24.5825 24.3162 25.5749 25.7065 24.7118L33.1528 20.0885C34.1384 19.4764 34.4413 18.181 33.8293 17.1952Z" fill="#1B224A"/>
<path d="M33.8294 17.1953C33.2173 16.2094 31.922 15.9064 30.936 16.5184L33.1526 20.0887C34.1385 19.4766 34.4414 18.1812 33.8294 17.1953Z" fill="#FFB69E"/>
<path d="M30.1901 16.9737L32.3862 20.5566L33.1499 20.0885L30.9538 16.5056L30.1901 16.9737Z" fill="white"/>
<path d="M5.25 29.6943V30.7837C5.25 31.9501 6.19562 32.8957 7.362 32.8957C8.52837 32.8957 9.47399 31.9501 9.47399 30.7837V29.6943H5.25Z" fill="white"/>
<path d="M5.25 30.7305V30.7848C5.25 31.9512 6.19562 32.8968 7.362 32.8968C8.52837 32.8968 9.47399 31.9512 9.47399 30.7848V30.7305H5.25Z" fill="#FFB69E"/>
<path d="M12.7729 10.2842L15.9954 18.7412L19.2188 10.2842H12.7729Z" fill="white"/>
<path d="M17.3971 13.1639L16.6813 11.8619L17.2983 10.7398C17.4105 10.5357 17.2626 10.2852 17.0294 10.2852H14.961C14.728 10.2852 14.5798 10.5354 14.6922 10.7398L15.3113 11.8657L14.5974 13.1642C14.4985 13.344 14.4664 13.5528 14.5067 13.754L14.947 15.9895L15.9955 18.7421L17.045 15.9891L17.4879 13.7543C17.5283 13.5528 17.496 13.3438 17.3971 13.1639Z" fill="#FF3C3C"/>
<path d="M20.3455 16.7832H17.5557V17.6436H20.3455V16.7832Z" fill="#252D5C"/>
<path d="M53.6391 45.2607C55.9858 45.2607 57.8881 43.3583 57.8881 41.0117C57.8881 38.665 55.9858 36.7627 53.6391 36.7627C51.2925 36.7627 49.3901 38.665 49.3901 41.0117C49.3901 43.3583 51.2925 45.2607 53.6391 45.2607Z" fill="#80391B"/>
<path d="M59.1244 46.6152C57.8758 46.6152 49.3665 46.6152 48.1182 46.6152C45.4564 46.6152 43.2561 48.7807 43.2427 51.4425V56.1968H47.343V51.463C47.345 51.0507 47.7059 50.7154 48.1182 50.7154H48.1585V56.1967H59.0178V50.7154H59.1245C59.5368 50.7154 59.8975 51.0507 59.8996 51.463V56.1968H63.9999V51.4425C63.9865 48.7809 61.7864 46.6152 59.1244 46.6152Z" fill="#80391B"/>
<path d="M59.1243 46.6162H55.7635C54.4548 47.6538 52.7368 47.6135 51.5434 46.6162H48.1182C45.4564 46.6162 43.2561 48.7817 43.2427 51.4435V54.4276H47.343V51.4641C47.345 51.0518 47.7059 50.7165 48.1182 50.7165H48.1585V56.1978H59.0178V50.7165H59.1245C59.5368 50.7165 59.8975 51.0518 59.8996 51.4641V54.4276H64V51.4435C63.9864 48.7818 61.7863 46.6162 59.1243 46.6162Z" fill="#60D2B0"/>
<path d="M32.0195 45.2607C34.3662 45.2607 36.2685 43.3583 36.2685 41.0117C36.2685 38.665 34.3662 36.7627 32.0195 36.7627C29.6728 36.7627 27.7705 38.665 27.7705 41.0117C27.7705 43.3583 29.6728 45.2607 32.0195 45.2607Z" fill="#FFB69E"/>
<path d="M37.5048 46.6152C36.2562 46.6152 27.7469 46.6152 26.4985 46.6152C23.8368 46.6152 21.6364 48.7807 21.623 51.4425V56.1968H25.7234V51.463C25.7254 51.0507 26.0863 50.7154 26.4985 50.7154H26.5389V56.1967H37.3982V50.7154H37.5049C37.9172 50.7154 38.2779 51.0507 38.28 51.463V56.1968H42.3804V51.4425C42.367 48.7809 40.1667 46.6152 37.5048 46.6152Z" fill="#FFB69E"/>
<path d="M37.5051 46.6162H33.9768C32.668 47.6538 30.95 47.6135 29.7566 46.6162H26.499C23.8373 46.6162 21.6369 48.7817 21.6235 51.4435V54.4276H25.7239V51.4641C25.7259 51.0518 26.0868 50.7165 26.499 50.7165H26.5394V56.1978H37.3986V50.7165H37.5054C37.9176 50.7165 38.2784 51.0518 38.2805 51.4641V54.4276H42.3809V51.4435C42.3674 48.7818 40.167 46.6162 37.5051 46.6162Z" fill="#2A4F77"/>
<path d="M10.3955 45.1933C12.7421 45.1933 14.6445 43.291 14.6445 40.9443C14.6445 38.5977 12.7421 36.6953 10.3955 36.6953C8.04882 36.6953 6.14648 38.5977 6.14648 40.9443C6.14648 43.291 8.04882 45.1933 10.3955 45.1933Z" fill="#FFB69E"/>
<path d="M15.8817 46.5479C14.6331 46.5479 6.12386 46.5479 4.87549 46.5479C2.21375 46.5479 0.013375 48.7133 0 51.3751V56.1296H4.10037V51.3957C4.10237 50.9835 4.46324 50.6481 4.87549 50.6481H4.91587V56.1295H15.775V50.648H15.8817C16.294 50.648 16.6547 50.9833 16.6568 51.3956V56.1295H20.7572V51.375C20.7438 48.7133 18.5435 46.5479 15.8817 46.5479Z" fill="#FFB69E"/>
<path d="M15.8817 46.5488H12.3532C11.0445 47.5865 9.32648 47.5461 8.13311 46.5488H4.87549C2.21375 46.5488 0.013375 48.7143 0 51.3761V54.3602H4.10037V51.3967C4.10237 50.9844 4.46324 50.6491 4.87549 50.6491H4.91587V56.1304H15.775V50.6489H15.8817C16.294 50.6489 16.6547 50.9843 16.6568 51.3966V54.3601H20.7572V51.3759C20.7438 48.7143 18.5435 46.5488 15.8817 46.5488Z" fill="#11BDCF"/>
<path d="M44.0332 52.8759C46.3798 52.8759 48.2822 50.9736 48.2822 48.6269C48.2822 46.2803 46.3798 44.3779 44.0332 44.3779C41.6865 44.3779 39.7842 46.2803 39.7842 48.6269C39.7842 50.9736 41.6865 52.8759 44.0332 52.8759Z" fill="#FFB69E"/>
<path d="M49.5189 54.2295C48.2703 54.2295 39.7611 54.2295 38.5127 54.2295C35.851 54.2295 33.6506 56.395 33.6372 59.0567V63.8111H37.7376V59.0772C37.7396 58.665 38.1004 58.3296 38.5127 58.3296H38.5531V63.811H49.4123V58.3296H49.5191C49.9313 58.3296 50.2921 58.665 50.2942 59.0772V63.8111H54.3945V59.0567C54.3809 56.3949 52.1807 54.2295 49.5189 54.2295Z" fill="#FFB69E"/>
<path d="M49.5188 54.2305H46.1581C44.8493 55.2681 43.1313 55.2277 41.9379 54.2305H38.5127C35.851 54.2305 33.6506 56.396 33.6372 59.0577V62.0418H37.7376V59.0783C37.7396 58.6661 38.1004 58.3307 38.5127 58.3307H38.5531V63.8121H49.4122V58.3307H49.5189C49.9312 58.3307 50.2919 58.6661 50.2941 59.0783V62.0418H54.3944V59.0577C54.3808 56.3958 52.1805 54.2305 49.5188 54.2305Z" fill="#11BDCF"/>
<path d="M22.4135 52.8759C24.7602 52.8759 26.6625 50.9736 26.6625 48.6269C26.6625 46.2803 24.7602 44.3779 22.4135 44.3779C20.0669 44.3779 18.1646 46.2803 18.1646 48.6269C18.1646 50.9736 20.0669 52.8759 22.4135 52.8759Z" fill="#BA6746"/>
<path d="M27.8993 54.2295C26.6507 54.2295 18.1414 54.2295 16.8931 54.2295C14.2313 54.2295 12.031 56.395 12.0176 59.0567V63.8111H16.1179V59.0772C16.1199 58.665 16.4808 58.3296 16.8931 58.3296H16.9334V63.811H27.7927V58.3296H27.8994C28.3117 58.3296 28.6724 58.665 28.6745 59.0772V63.8111H32.7748V59.0567C32.7613 56.3949 30.5612 54.2295 27.8993 54.2295Z" fill="#BA6746"/>
<path d="M27.8993 54.2305H24.3709C23.0622 55.2681 21.3442 55.2277 20.1508 54.2305H16.8931C14.2313 54.2305 12.031 56.396 12.0176 59.0577V62.0418H16.1179V59.0783C16.1199 58.6661 16.4808 58.3307 16.8931 58.3307H16.9334V63.8121H27.7927V58.3307H27.8994C28.3117 58.3307 28.6724 58.6661 28.6745 59.0783V62.0418H32.7749V59.0577C32.7613 56.3958 30.5612 54.2305 27.8993 54.2305Z" fill="#FE747D"/>
</g>
<defs>
<clipPath id="clip0">
<rect width="64" height="64" fill="white"/>
</clipPath>
</defs>
</svg>
