<svg width="139" height="139" viewBox="0 0 139 139" fill="none" xmlns="http://www.w3.org/2000/svg">
<circle cx="69.5" cy="69.5" r="69.5" fill="#FE747D" fill-opacity="0.25"/>
<path d="M134 8H25.6646V131H134V8Z" fill="url(#paint0_linear)"/>
<path d="M132.181 10.3701H27.3037V128.816H132.181V10.3701Z" fill="white"/>
<path opacity="0.2" d="M76.2809 29.8672H16.7422V67.7693H76.2809V29.8672Z" fill="#FE747D"/>
<path d="M74.2786 24.5811H6V63.3938H74.2786V24.5811Z" fill="url(#paint1_linear)"/>
<path d="M73.3684 30.2305H6.72852V62.4847H73.3684V30.2305Z" fill="white"/>
<path d="M34.4029 32.9639H11.2798V57.3817H34.4029V32.9639Z" fill="url(#paint2_linear)"/>
<path d="M33.858 33.5107H12.0083V56.8353H33.858V33.5107Z" fill="#11BDCF"/>
<path d="M29.0352 42.7221C28.8722 41.3367 28.6276 39.9479 28.0976 38.6522C27.5677 37.3565 26.7166 36.1652 25.5311 35.4293C25.1086 35.1458 24.6198 34.9771 24.1125 34.9397C23.1847 34.9071 22.3271 35.5337 21.8493 36.3301C21.6875 36.6059 21.5464 36.8934 21.427 37.1901C20.9849 37.2654 20.581 37.4872 20.28 37.8198C19.979 38.1524 19.7983 38.5766 19.767 39.0243C18.7872 39.442 17.9625 40.1563 17.4088 41.0668C16.8551 41.9774 16.6002 43.0385 16.6796 44.1015C16.7591 45.1644 17.1691 46.1758 17.8521 46.9937C18.535 47.8117 19.4567 48.3951 20.4878 48.6622V49.532C19.3952 49.8179 18.4278 50.4573 17.7362 51.3508C17.0446 52.2442 16.6676 53.3415 16.6641 54.4717V56.8412H26.86V54.4684C26.8567 53.3387 26.4802 52.2417 25.7892 51.3483C25.0983 50.4549 24.1316 49.8152 23.0396 49.5287V48.6589C24.134 48.3758 25.1033 47.7368 25.7954 46.8424C26.4875 45.948 26.8632 44.8488 26.8633 43.7176C26.8633 43.7062 26.8633 43.6931 26.8633 43.6817L27.4373 44.9595C27.9835 46.1768 28.5428 47.4823 28.3292 48.8009C29.376 47.0058 29.2896 44.7848 29.0352 42.7221Z" fill="white"/>
<path d="M73.3684 25.3105H6.72852V30.2307H73.3684V25.3105Z" fill="#2A4F77"/>
<path d="M68.0874 40.3438H42.7793V41.9838H68.0874V40.3438Z" fill="#E0E0E0"/>
<path d="M68.0874 47.2695H42.7793V48.9096H68.0874V47.2695Z" fill="#F5F5F5"/>
<path opacity="0.2" d="M57.5272 43.8066H42.5977V45.4467H57.5272V43.8066Z" fill="#6C63FF"/>
<path opacity="0.2" d="M52.7937 50.7314H42.5977V52.3715H52.7937V50.7314Z" fill="#11BDCF"/>
<path d="M64.8097 50.7314H54.6138V52.3715H64.8097V50.7314Z" fill="#F2AB3E"/>
<path d="M124.168 76.5156H36.2246V79.6129H124.168V76.5156Z" fill="#E0E0E0"/>
<path d="M65.5391 83.2578H36.2246V86.3551H65.5391V83.2578Z" fill="#E0E0E0"/>
<path d="M124.168 83.2578H94.8535V86.3551H124.168V83.2578Z" fill="#F2AB3E"/>
<path d="M124.168 90H36.2246V93.0973H124.168V90Z" fill="#E0E0E0"/>
<path d="M124.168 96.7441H36.2246V99.8415H124.168V96.7441Z" fill="#E0E0E0"/>
<path d="M45.147 103.121H35.8608V106.948H45.147V103.121Z" fill="url(#paint3_linear)"/>
<path d="M44.9645 103.484H36.2246V106.582H44.9645V103.484Z" fill="#11BDCF"/>
<path d="M84.2936 103.484H75.5537V106.582H84.2936V103.484Z" fill="#F2AB3E"/>
<path d="M124.168 103.484H115.428V106.582H124.168V103.484Z" fill="#F2AB3E"/>
<path d="M125.26 113.508H73.3687V125.171H125.26V113.508Z" fill="url(#paint4_linear)"/>
<path d="M124.167 114.782H74.2783V123.712H124.167V114.782Z" fill="#2A4F77"/>
<path opacity="0.2" d="M124.167 114.782H74.2783V123.712H124.167V114.782Z" fill="black"/>
<path d="M125.26 22.9424H92.3047V48.0897H125.26V22.9424Z" fill="url(#paint5_linear)"/>
<path d="M124.17 24.5811H93.5801V46.4483H124.17V24.5811Z" fill="#11BDCF"/>
<path opacity="0.2" d="M124.17 24.5811H93.5801V46.4483H124.17V24.5811Z" fill="#11BDCF"/>
<defs>
<linearGradient id="paint0_linear" x1="79.8322" y1="131" x2="79.8322" y2="8" gradientUnits="userSpaceOnUse">
<stop stop-color="#808080" stop-opacity="0.25"/>
<stop offset="0.54" stop-color="#808080" stop-opacity="0.12"/>
<stop offset="1" stop-color="#808080" stop-opacity="0.1"/>
</linearGradient>
<linearGradient id="paint1_linear" x1="14301.5" y1="13199.9" x2="14301.5" y2="3968.34" gradientUnits="userSpaceOnUse">
<stop stop-color="#808080" stop-opacity="0.25"/>
<stop offset="0.54" stop-color="#808080" stop-opacity="0.12"/>
<stop offset="1" stop-color="#808080" stop-opacity="0.1"/>
</linearGradient>
<linearGradient id="paint2_linear" x1="760.008" y1="5595.35" x2="4039.33" y2="5595.35" gradientUnits="userSpaceOnUse">
<stop stop-color="#808080" stop-opacity="0.25"/>
<stop offset="0.54" stop-color="#808080" stop-opacity="0.12"/>
<stop offset="1" stop-color="#808080" stop-opacity="0.1"/>
</linearGradient>
<linearGradient id="paint3_linear" x1="2000.8" y1="2423.44" x2="2000.8" y2="2333.7" gradientUnits="userSpaceOnUse">
<stop stop-color="#808080" stop-opacity="0.25"/>
<stop offset="0.54" stop-color="#808080" stop-opacity="0.12"/>
<stop offset="1" stop-color="#808080" stop-opacity="0.1"/>
</linearGradient>
<linearGradient id="paint4_linear" x1="29769.8" y1="8487.6" x2="29769.8" y2="7654.15" gradientUnits="userSpaceOnUse">
<stop stop-color="#808080" stop-opacity="0.25"/>
<stop offset="0.54" stop-color="#808080" stop-opacity="0.12"/>
<stop offset="1" stop-color="#808080" stop-opacity="0.1"/>
</linearGradient>
<linearGradient id="paint5_linear" x1="20865.5" y1="6200.64" x2="20865.5" y2="2325.43" gradientUnits="userSpaceOnUse">
<stop stop-color="#808080" stop-opacity="0.25"/>
<stop offset="0.54" stop-color="#808080" stop-opacity="0.12"/>
<stop offset="1" stop-color="#808080" stop-opacity="0.1"/>
</linearGradient>
</defs>
</svg>
