<svg width="64" height="64" viewBox="0 0 64 64" fill="none" xmlns="http://www.w3.org/2000/svg">
<path d="M3.70654 48.6748C3.24951 48.6748 2.875 49.0459 2.875 49.499V63.1768C2.875 63.6299 3.24951 64.0005 3.70654 64.0005H17.5107C17.9683 64.0005 18.3423 63.6299 18.3423 63.1768V48.6748H3.70654Z" fill="#FE747D"/>
<path d="M30.6719 43.0752C30.6719 40.8618 31.3164 38.8477 32.5244 37.1875C30.4902 38.1421 28.2168 38.437 26.0337 38.0737V43.6313C27.5771 43.7998 29.1396 43.7519 30.6719 43.4897V43.0752Z" fill="#2A4F77"/>
<path d="M49.5688 34.5742C47.8594 35.3862 45.957 35.8369 43.9717 35.8369H40.0981C38.1655 35.8369 36.3374 35.4995 34.7007 34.8633C32.1611 36.687 30.5469 39.521 30.5469 43.0747V44.8335L31.063 44.8853L30.998 44.6973L30.9023 44.4438C30.8135 44.2095 30.8218 43.9541 30.9248 43.7261C31.0278 43.4976 31.2144 43.3228 31.4487 43.2339L31.7197 43.1318C31.8267 43.0913 31.9385 43.0708 32.0513 43.0708C32.4395 43.0708 32.7925 43.3149 32.9297 43.6782L33.9634 46.3809L33.9727 46.3936C34.0859 46.5552 34.186 46.7275 34.27 46.9058L34.2954 46.9595L34.3525 46.9736C35.1807 47.1831 36.0347 47.2891 36.8911 47.2891C40.8394 47.2891 44.5112 45.0215 46.2461 41.5122C46.6694 40.6553 47.5298 40.1235 48.4912 40.1235C48.8696 40.1235 49.2349 40.207 49.5776 40.3726C50.1748 40.6616 50.6216 41.1641 50.8359 41.7881C51.0493 42.4097 51.0059 43.0776 50.7139 43.6689C49.4229 46.2812 47.4194 48.4614 44.9204 49.9736C42.4878 51.4458 39.7012 52.2241 36.8623 52.2241C36.8623 52.2241 36.8623 52.2241 36.8618 52.2241C35.79 52.2241 34.7256 52.1099 33.6831 51.8892V56.9463H35.8911L35.9038 56.8354C36.0537 55.5264 37.1709 54.5396 38.5015 54.5396C39.481 54.5396 40.3711 55.0752 40.8237 55.9375L40.9341 56.1484L41.0449 55.9375C41.4976 55.0752 42.3872 54.5396 43.3672 54.5396C44.6978 54.5396 45.8145 55.5269 45.9648 56.8354L45.978 56.9463H54.0684V42.9458C54.0684 39.2329 52.3071 36.3481 49.5688 34.5742V34.5742Z" fill="#11BDCF"/>
<path d="M40.751 57.1299C40.751 56.7339 40.8438 56.3599 41.0049 56.0239C40.5771 55.0752 39.6177 54.4141 38.5015 54.4141C37.0933 54.4141 35.9351 55.4668 35.7798 56.8203H33.6831V63.1753C33.6831 63.6289 33.3086 63.9995 32.8516 63.9995H38.6885V63.9902C39.7246 63.9209 40.6011 63.2808 41.0039 62.3853C40.8433 62.0498 40.751 61.6768 40.751 61.2837V57.1299Z" fill="#08384D"/>
<path d="M43.1802 63.9902V63.9995H54.29C56.2905 63.9995 57.9126 62.3926 57.9126 60.4097C57.9126 58.4277 56.2905 56.8203 54.29 56.8203H46.0894C45.9336 55.4668 44.7754 54.4141 43.3672 54.4141C41.8535 54.4141 40.626 55.6299 40.626 57.1299V61.2837C40.626 62.7212 41.7539 63.8945 43.1802 63.9902V63.9902Z" fill="#08384D"/>
<path d="M43.9717 35.8374H40.0981C39.4937 35.8374 38.9009 35.8018 38.3193 35.7373V35.8467C38.3193 37.561 39.7222 38.9512 41.4521 38.9512C43.1826 38.9512 44.5854 37.561 44.5854 35.8467V35.8218C44.3813 35.8315 44.1772 35.8374 43.9717 35.8374Z" fill="#E5995A"/>
<path d="M57.166 15.8809C57.1484 15.8809 57.1309 15.8823 57.1133 15.8823V14.0508C57.1133 13.9111 57.1104 13.772 57.106 13.6333C56.8267 13.855 56.5098 14.0313 56.1558 14.1567C55.373 14.4336 54.6084 14.5737 53.8838 14.5737C53.8838 14.5737 53.8838 14.5737 53.8833 14.5737C49.9478 14.5737 48.167 10.4326 48.1494 10.3906L48.0312 10.1084L47.918 10.3926C47.8965 10.4463 45.7378 15.7622 42.1328 15.7622C41.7373 15.7622 41.332 15.6973 40.9292 15.5703C39.2197 15.0317 38.6548 13.7314 39.2495 11.7061L39.022 11.6064C37.9141 13.4556 36.2144 15.6602 34.4102 15.6602C34.1992 15.6602 33.9888 15.6299 33.7837 15.5698C33.1123 15.3735 32.6313 14.9819 32.355 14.4058C31.9043 13.4668 32.0132 12.0381 32.6538 10.4863L32.4258 10.3848C30.9326 13.5161 29.3433 15.0381 27.5674 15.0381C27.3672 15.0381 27.1631 15.0176 26.957 14.9771V22.8682C26.957 31.3711 32.8403 35.9619 40.0977 35.9619H43.9712C50.0654 35.9619 55.188 31.8291 56.6758 26.2241C56.8364 26.2485 57 26.2627 57.166 26.2627C59.4165 26.2627 61.2407 23.9385 61.2407 21.0718C61.2407 18.2051 59.4165 15.8809 57.166 15.8809Z" fill="#D29B6E"/>
<path d="M46.938 22.687C46.4199 22.687 46.0005 22.2676 46.0005 21.7495V20.165C46.0005 19.6475 46.4199 19.2275 46.938 19.2275C47.4556 19.2275 47.8755 19.6475 47.8755 20.165V21.7495C47.8755 22.2676 47.4556 22.687 46.938 22.687Z" fill="#775436"/>
<path d="M32.6675 22.687C32.1499 22.687 31.73 22.2676 31.73 21.7495V20.165C31.73 19.6475 32.1499 19.2275 32.6675 19.2275C33.1855 19.2275 33.605 19.6475 33.605 20.165V21.7495C33.605 22.2676 33.1855 22.687 32.6675 22.687Z" fill="#775436"/>
<path d="M40.4287 24.0771H39.8022C38.9404 24.0771 38.2388 23.3677 38.2388 22.4961V21.2783C38.2388 20.7603 38.6582 20.3408 39.1763 20.3408C39.6943 20.3408 40.1138 20.7603 40.1138 21.2783V22.2021H40.4287C40.9463 22.2021 41.3662 22.6221 41.3662 23.1396C41.3662 23.6577 40.9463 24.0771 40.4287 24.0771Z" fill="#775436"/>
<path d="M40.0205 31.8057C37.582 31.8057 35.5981 29.8398 35.5981 27.4238C35.5981 26.9688 35.9707 26.5996 36.4297 26.5996H43.6113C44.0708 26.5996 44.4429 26.9688 44.4429 27.4238C44.4429 29.8403 42.459 31.8057 40.0205 31.8057V31.8057Z" fill="#FB8276"/>
<path d="M39.5674 27.4243C39.5674 26.9692 39.9395 26.6006 40.3989 26.6006H36.4297C35.9702 26.6006 35.5981 26.9692 35.5981 27.4243C35.5981 29.8408 37.582 31.8062 40.0205 31.8062C40.7339 31.8062 41.4077 31.6372 42.0049 31.3389C40.561 30.6167 39.5674 29.1338 39.5674 27.4243V27.4243Z" fill="#E1756A"/>
<path d="M43.7153 0H39.5254C31.6743 0 25.3101 6.34131 25.3101 14.1636V14.3755C25.5718 14.5762 25.8794 14.752 26.2417 14.895C29.2539 16.0894 31.2896 13.0586 32.5386 10.439C31.6084 12.6914 31.6392 15.0737 33.749 15.6899C35.7842 16.2842 37.7383 13.9922 39.1294 11.6709C38.6528 13.2939 38.7578 15.0171 40.8916 15.6899C45.3813 17.1055 48.0347 10.439 48.0347 10.439C48.0347 10.439 50.4834 16.2964 56.1978 14.2744C56.9375 14.0122 57.4844 13.563 57.8784 12.981C57.2744 5.7124 51.1665 0 43.7153 0V0Z" fill="#353535"/>
<path d="M22.916 33.4736V32.4082C22.916 31.4072 22.0967 30.5957 21.0864 30.5957H15.7646C14.7539 30.5957 13.9351 31.4072 13.9351 32.4082V33.4736H22.916Z" fill="#60D2B0"/>
<path d="M26.1592 47.8506C26.1592 48.3037 25.7847 48.6743 25.3276 48.6743H11.5234C11.0659 48.6743 10.6919 48.3037 10.6919 47.8506V34.1729C10.6919 33.7197 11.0659 33.3486 11.5234 33.3486H25.3276C25.7847 33.3486 26.1592 33.7197 26.1592 34.1729V47.8506Z" fill="#60D2B0"/>
<path d="M20.6077 44.7886C20.5325 44.7886 20.4568 44.771 20.3874 44.7344L18.4255 43.7183L16.4636 44.7344C16.3943 44.771 16.3186 44.7886 16.2434 44.7886C16.1453 44.7886 16.0481 44.7588 15.9651 44.6992C15.8191 44.5952 15.7463 44.418 15.7771 44.2427L16.1516 42.0898L14.5642 40.5649C14.4353 40.4414 14.3889 40.2554 14.4446 40.0869C14.5002 39.918 14.6482 39.7944 14.8264 39.7686L17.0203 39.4551L18.0012 37.4961C18.0808 37.3369 18.2458 37.2363 18.4255 37.2363C18.6057 37.2363 18.7703 37.3369 18.8503 37.4961L19.8313 39.4551L22.0246 39.7686C22.2029 39.7944 22.3508 39.918 22.4065 40.0869C22.4626 40.2559 22.4162 40.4414 22.2868 40.5649L20.6999 42.0898L21.0744 44.2427C21.1052 44.418 21.032 44.5952 20.8865 44.6992C20.8039 44.7588 20.7058 44.7886 20.6077 44.7886V44.7886Z" fill="#FCFCFC"/>
<path d="M10.6084 59.8774C10.5049 59.8774 10.4058 59.8374 10.3325 59.7656L6.87549 56.3848C6.0376 55.5649 6.0376 54.2324 6.87549 53.4131C7.28125 53.0166 7.8208 52.7979 8.39453 52.7979C8.96826 52.7979 9.50781 53.0166 9.91357 53.4136L10.6084 54.0933L11.3037 53.4136C11.7095 53.0166 12.249 52.7979 12.8228 52.7979C13.3965 52.7979 13.936 53.0166 14.3418 53.4131C15.1797 54.2324 15.1797 55.5654 14.3418 56.3848L10.8848 59.7651C10.8115 59.8369 10.7124 59.8774 10.6084 59.8774V59.8774Z" fill="#FFB69E"/>
<path d="M32.3257 51.5391L32.2871 51.5269L32.2485 51.54C31.8843 51.6626 31.5044 51.7246 31.1196 51.7246C31 51.7246 30.8789 51.7187 30.7598 51.7065L27.5596 51.3848C27.0874 51.3369 26.7417 50.9141 26.7891 50.4419L26.8159 50.1748C26.8604 49.7329 27.228 49.3999 27.6714 49.3999C27.7002 49.3999 27.7295 49.4014 27.7588 49.4043L30.1948 49.6494L30.2373 49.2285L27.2915 48.9321C27.0874 48.9116 26.9014 48.8208 26.7603 48.6748H18.3423V63.1763C18.3423 63.6299 18.7163 64.0005 19.1738 64.0005H32.978C33.4351 64.0005 33.8091 63.6299 33.8091 63.1763V51.916C33.3096 51.8145 32.814 51.6904 32.3257 51.5391V51.5391Z" fill="#F2AB3E"/>
<path d="M24.8708 59.8325C24.4133 59.8325 23.8523 59.5117 23.6238 59.1191L22.4182 57.0508C22.1897 56.6582 22.1897 56.0161 22.4182 55.6235L23.6238 53.5552C23.8523 53.1626 24.4133 52.8418 24.8708 52.8418H27.281C27.7385 52.8418 28.3 53.1626 28.5286 53.5552L29.7336 55.6235C29.9626 56.0161 29.9626 56.6582 29.7336 57.0508L28.5286 59.1191C28.3 59.5117 27.7385 59.8325 27.281 59.8325H24.8708Z" fill="#FCEACF"/>
<path d="M57.0839 24.0695C56.7504 24.0695 56.4276 23.8912 56.2582 23.5773C56.0121 23.1217 56.1815 22.5533 56.6371 22.3068C57.6986 21.733 57.0809 20.2701 57.0541 20.2081C56.8485 19.733 57.0673 19.1813 57.5424 18.9757C58.0175 18.7701 58.5697 18.9889 58.7748 19.464C58.808 19.5397 59.0966 20.2301 59.1215 21.0856C59.1596 22.3614 58.5936 23.381 57.5282 23.9567C57.3871 24.0333 57.2343 24.0695 57.0839 24.0695V24.0695Z" fill="#E5BFA1"/>
<path d="M49.6318 40.2597C48.3359 39.6337 46.77 40.1694 46.1338 41.4565C43.9326 45.9096 38.8686 48.0673 34.2207 46.8124C34.5103 47.3837 34.6362 48.0253 34.5723 48.664C34.4292 50.0844 33.4199 51.2202 32.0825 51.5932C39.3008 53.9404 47.3823 50.6904 50.8257 43.7241C51.4619 42.4369 50.9272 40.8862 49.6318 40.2597V40.2597Z" fill="#2A4F77"/>
<path d="M26.6647 50.4292L26.6921 50.1616C26.7463 49.6201 27.2297 49.2251 27.7717 49.2793L30.0832 49.5117L30.1008 49.3398L27.279 49.0557C26.7375 49.0015 26.3425 48.5181 26.3971 47.9766L26.424 47.709C26.4782 47.1675 26.9616 46.7725 27.5036 46.8267L30.3249 47.1108L30.3425 46.9385L28.0305 46.7061C27.4885 46.6519 27.0934 46.1685 27.1481 45.6265L27.175 45.3589C27.2297 44.8174 27.7131 44.4224 28.2546 44.4766L30.8747 44.7407L30.881 44.7412L30.7853 44.4878C30.5778 43.938 30.8552 43.3242 31.4045 43.1167L31.676 43.0142C32.2258 42.8066 32.839 43.084 33.0471 43.6338L34.0749 46.3213C34.5432 46.9878 34.7834 47.8115 34.697 48.6763C34.5012 50.6182 32.7331 52.0303 30.7472 51.8301L27.5471 51.5083C27.0055 51.4541 26.6105 50.9707 26.6647 50.4292V50.4292Z" fill="#E5995A"/>
</svg>
