<svg width="20" height="20" viewBox="0 0 20 20" fill="none" xmlns="http://www.w3.org/2000/svg">
<path fill-rule="evenodd" clip-rule="evenodd" d="M4.16667 3.52487V10.1221C4.65241 10.0459 5.20562 10.0001 5.83333 10.0001C7.40563 10.0001 8.70094 10.5185 9.70251 10.9194C9.71482 10.9243 9.72709 10.9292 9.73931 10.9341L9.78565 10.9526V10.9526C10.8588 11.3819 11.6161 11.6667 12.5 11.6667C13.2743 11.6667 13.8138 11.573 14.1667 11.4753V4.87803C13.6809 4.9543 13.1277 5.00008 12.5 5.00008C10.9277 5.00008 9.63239 4.48166 8.63083 4.08081C8.61852 4.07588 8.60625 4.07097 8.59403 4.06608L8.54768 4.04754V4.04754C7.47452 3.61828 6.71729 3.33341 5.83333 3.33341C5.05902 3.33341 4.5195 3.42715 4.16667 3.52487ZM3.22917 2.08341C3.74998 1.87509 4.58331 1.66675 5.83333 1.66675C7.08333 1.66675 8.12545 2.08359 9.16534 2.49955L9.21318 2.51869C10.2382 2.92885 11.2692 3.33341 12.5 3.33341C13.5017 3.33341 14.2355 3.1996 14.7547 3.03967C15.0075 2.96181 15.2822 3.00857 15.495 3.16568C15.7078 3.32279 15.8333 3.57158 15.8333 3.83608V12.0517C15.8333 12.3684 15.6539 12.6577 15.3701 12.7983C15.2924 12.8369 15.2039 12.8768 15.1042 12.9167C14.5834 13.1251 13.75 13.3334 12.5 13.3334C11.25 13.3334 10.2079 12.9166 9.16799 12.5006L9.12019 12.4815C8.09512 12.0713 7.06412 11.6667 5.83333 11.6667C4.83163 11.6667 4.09786 11.8006 3.57864 11.9605C3.32586 12.0384 3.05113 11.9916 2.83835 11.8345C2.62556 11.6774 2.5 11.4286 2.5 11.1641V2.94846C2.5 2.63179 2.67948 2.34249 2.96319 2.20184C3.04098 2.16328 3.1294 2.12332 3.22917 2.08341Z" fill="#F6515B"/>
<path fill-rule="evenodd" clip-rule="evenodd" d="M3.33333 8.33341C3.79357 8.33341 4.16667 8.70651 4.16667 9.16675V18.3334C4.16667 18.7937 3.79357 19.1667 3.33333 19.1667C2.8731 19.1667 2.5 18.7937 2.5 18.3334V9.16675C2.5 8.70651 2.8731 8.33341 3.33333 8.33341Z" fill="#F6515B"/>
</svg>
