<svg width="82" height="82" viewBox="0 0 82 82" fill="none" xmlns="http://www.w3.org/2000/svg">
<path d="M0 15C0 6.71573 6.71573 0 15 0H57C70.8071 0 82 11.1929 82 25V67C82 75.2843 75.2843 82 67 82H25C11.1929 82 0 70.8071 0 57V15Z" fill="#FE747D" fill-opacity="0.25"/>
<path d="M63.5 23.75H55.25V26.75H63.5V23.75Z" fill="#D5D5D5"/>
<path d="M62 28.25H53.75V31.25H62V28.25Z" fill="#D5D5D5"/>
<path d="M33.5 41.75C33.0854 41.75 32.75 41.4146 32.75 41V38C32.75 37.5854 33.0854 37.25 33.5 37.25C33.9146 37.25 34.25 37.5854 34.25 38V41C34.25 41.4146 33.9145 41.75 33.5 41.75Z" fill="#7C4231"/>
<path d="M48.4999 41.75C48.0853 41.75 47.7499 41.4146 47.7499 41V38C47.7499 37.5854 48.0853 37.25 48.4999 37.25C48.9144 37.25 49.2499 37.5854 49.2499 38V41C49.2499 41.4146 48.9144 41.75 48.4999 41.75Z" fill="#7C4231"/>
<path d="M49.2499 25.25H32.75C31.5093 25.25 30.5 26.2593 30.5 27.5V36.5C30.5 37.7407 31.5093 38.75 32.75 38.75H49.25C50.4907 38.75 51.5 37.7407 51.5 36.5V27.5C51.4999 26.2593 50.4907 25.25 49.2499 25.25Z" fill="#2A4F77"/>
<path d="M31.25 56.75C30.8354 56.75 30.5 56.4146 30.5 56V44C30.5 43.5854 30.8354 43.25 31.25 43.25C31.6646 43.25 32 43.5854 32 44V56C32 56.4146 31.6645 56.75 31.25 56.75Z" fill="#7C4231"/>
<path d="M20 56.75C19.5854 56.75 19.25 56.4146 19.25 56V35C19.25 34.5854 19.5854 34.25 20 34.25C20.4146 34.25 20.75 34.5854 20.75 35V56C20.75 56.4146 20.4145 56.75 20 56.75Z" fill="#7C4231"/>
<path d="M20 55.25C19.1715 55.25 18.5 55.9215 18.5 56.75V58.25C18.5 58.6642 18.8358 59 19.25 59H20.75C21.1642 59 21.5 58.6642 21.5 58.25V56.75C21.5 55.9215 20.8285 55.25 20 55.25Z" fill="#353535"/>
<path d="M61.9999 56.75C61.5853 56.75 61.2499 56.4146 61.2499 56V35C61.2499 34.5854 61.5853 34.25 61.9999 34.25C62.4144 34.25 62.7499 34.5854 62.7499 35V56C62.7499 56.4146 62.4144 56.75 61.9999 56.75Z" fill="#7C4231"/>
<path d="M62 55.25C61.1715 55.25 60.5 55.9215 60.5 56.75V58.25C60.5 58.6642 60.8358 59 61.25 59H62.75C63.1642 59 63.5 58.6642 63.5 58.25V56.75C63.5 55.9215 62.8284 55.25 62 55.25Z" fill="#353535"/>
<path d="M50.7499 56.75C50.3353 56.75 49.9999 56.4146 49.9999 56V44C49.9999 43.5854 50.3353 43.25 50.7499 43.25C51.1644 43.25 51.4999 43.5854 51.4999 44V56C51.4999 56.4146 51.1644 56.75 50.7499 56.75Z" fill="#7C4231"/>
<path d="M50.7499 51.5H31.25C30.8354 51.5 30.5 51.1646 30.5 50.75C30.5 50.3354 30.8354 50 31.25 50H50.75C51.1646 50 51.5 50.3354 51.5 50.75C51.5 51.1646 51.1645 51.5 50.7499 51.5Z" fill="#7C4231"/>
<path d="M62.0205 32H55.2705C54.0298 32 53.0205 30.9907 53.0205 29.75C53.0205 28.5093 54.0298 27.5 55.2705 27.5H62.0205C62.4351 27.5 62.7705 27.8354 62.7705 28.25C62.7705 28.6646 62.4351 29 62.0205 29H55.2705C54.8567 29 54.5205 29.3362 54.5205 29.75C54.5205 30.1638 54.8567 30.5 55.2705 30.5H62.0205C62.4351 30.5 62.7705 30.8354 62.7705 31.25C62.7705 31.6646 62.435 32 62.0205 32Z" fill="#11BDCF"/>
<path d="M63.5205 27.5H56.7705C55.5298 27.5 54.5205 26.4907 54.5205 25.25C54.5205 24.0093 55.5298 23 56.7705 23H63.5205C63.9351 23 64.2705 23.3354 64.2705 23.75C64.2705 24.1646 63.9351 24.5 63.5205 24.5H56.7705C56.3567 24.5 56.0205 24.8362 56.0205 25.25C56.0205 25.6638 56.3567 26 56.7705 26H63.5205C63.9351 26 64.2705 26.3354 64.2705 26.75C64.2705 27.1646 63.935 27.5 63.5205 27.5Z" fill="#F2AB3E"/>
<path d="M26 28.25C25.5854 28.25 25.25 27.9146 25.25 27.5V23.75C25.25 23.3354 25.5854 23 26 23C26.4146 23 26.75 23.3354 26.75 23.75V27.5C26.75 27.9146 26.4146 28.25 26 28.25Z" fill="#F2AB3E"/>
<path d="M24.5 29C24.0854 29 23.75 28.6646 23.75 28.25V24.5C23.75 24.0854 24.0854 23.75 24.5 23.75C24.9146 23.75 25.25 24.0854 25.25 24.5V28.25C25.25 28.6646 24.9146 29 24.5 29Z" fill="#11BDCF"/>
<path d="M63.5 35H50.7706H18.5C17.6715 35 17 34.3285 17 33.5C17 32.6715 17.6715 32 18.5 32H63.5C64.3285 32 65 32.6715 65 33.5C65 34.3284 64.3284 35 63.5 35Z" fill="#F7B73B"/>
<path d="M31.2295 55.25C30.401 55.25 29.7295 55.9215 29.7295 56.75V58.25C29.7295 58.6642 30.0653 59 30.4795 59H31.9795C32.3937 59 32.7295 58.6642 32.7295 58.25V56.75C32.7295 55.9215 32.0579 55.25 31.2295 55.25Z" fill="#353535"/>
<path d="M50.7295 55.25C49.901 55.25 49.2295 55.9215 49.2295 56.75V58.25C49.2295 58.6642 49.5653 59 49.9795 59H51.4795C51.8937 59 52.2295 58.6642 52.2295 58.25V56.75C52.2295 55.9215 51.5579 55.25 50.7295 55.25Z" fill="#353535"/>
<path d="M51.5 44H30.5C29.6715 44 29 43.3285 29 42.5V41.75C29 41.3358 29.3358 41 29.75 41H52.25C52.6642 41 53 41.3358 53 41.75V42.5C53 43.3284 52.3284 44 51.5 44Z" fill="#2A4F77"/>
<path d="M27.0676 26.75H22.6823C22.4541 26.75 22.2788 26.9521 22.3111 27.1781L23 32H26.75L27.4388 27.1781C27.4711 26.9521 27.2958 26.75 27.0676 26.75Z" fill="#2A4F77"/>
<path d="M27.0676 26.75H24.875V32H26.75L27.4389 27.178C27.4711 26.9521 27.2958 26.75 27.0676 26.75Z" fill="#555555"/>
</svg>
