<svg width="82" height="82" viewBox="0 0 82 82" fill="none" xmlns="http://www.w3.org/2000/svg">
<path d="M0 15C0 6.71573 6.71573 0 15 0H57C70.8071 0 82 11.1929 82 25V67C82 75.2843 75.2843 82 67 82H25C11.1929 82 0 70.8071 0 57V15Z" fill="#DBF5F8"/>
<path d="M41.0366 22.3086C40.9638 22.1715 40.7936 22.1194 40.6565 22.1918L31.2815 27.1605C31.1441 27.2333 31.0919 27.4035 31.1647 27.5408C31.2153 27.636 31.3126 27.6904 31.4133 27.6904C31.4577 27.6904 31.5027 27.6797 31.5447 27.6576L40.9198 22.6888C41.0572 22.6161 41.1093 22.4457 41.0366 22.3086Z" fill="#08384D"/>
<path d="M50.6698 27.1604L41.2948 22.1917C41.1579 22.1191 40.9876 22.1712 40.9147 22.3085C40.842 22.4457 40.8943 22.616 41.0315 22.6887L50.4065 27.6575C50.4485 27.6798 50.4935 27.6903 50.5379 27.6903C50.6386 27.6903 50.7361 27.6359 50.7866 27.5407C50.8593 27.4034 50.8072 27.2332 50.6698 27.1604Z" fill="#08384D"/>
<path d="M49.6943 22.0996H22.2256C22.0703 22.0996 21.9443 22.2254 21.9443 22.3809C21.9443 22.5363 22.0703 22.6621 22.2256 22.6621H49.6943C49.8496 22.6621 49.9756 22.5363 49.9756 22.3809C49.9756 22.2254 49.8496 22.0996 49.6943 22.0996Z" fill="#08384D"/>
<path d="M57.7568 22.0996H52.3193C52.1641 22.0996 52.0381 22.2254 52.0381 22.3809C52.0381 22.5363 52.1641 22.6621 52.3193 22.6621H57.7568C57.9121 22.6621 58.0381 22.5363 58.0381 22.3809C58.0381 22.2254 57.9121 22.0996 57.7568 22.0996Z" fill="#08384D"/>
<path d="M40.9756 22.0996C40.8203 22.0996 40.6943 22.2254 40.6943 22.3809V32.3184C40.6943 32.4738 40.8203 32.5996 40.9756 32.5996C41.1308 32.5996 41.2568 32.4738 41.2568 32.3184V22.3809C41.2568 22.2254 41.1308 22.0996 40.9756 22.0996Z" fill="#08384D"/>
<path d="M60.0665 22.2463C59.9923 22.1098 59.8216 22.0598 59.6849 22.1338L40.9766 32.3211L22.455 22.1344C22.319 22.0598 22.1478 22.1091 22.073 22.2454C21.9982 22.3815 22.0477 22.5525 22.184 22.6273L40.8403 32.8883C40.8825 32.9115 40.9291 32.9231 40.9758 32.9231C41.0221 32.9231 41.0685 32.9117 41.1105 32.8888L59.9542 22.6279C60.0903 22.5536 60.1408 22.3828 60.0665 22.2463Z" fill="#08384D"/>
<path d="M33.1173 54.4203H30.8881V53.0701C30.8881 52.9655 30.83 52.8695 30.7373 52.821C30.6447 52.7726 30.5326 52.7793 30.4465 52.839C29.7618 53.3135 29.1057 53.5543 28.4967 53.5543C27.9142 53.5543 27.2735 53.3111 26.5928 52.8316C26.5454 52.7983 26.4888 52.7803 26.4308 52.7803H26.3883C26.233 52.7803 26.107 52.9061 26.107 53.0615V54.4203H23.8763C21.6262 54.4203 19.7954 56.2511 19.7954 58.5013V61.9445C19.7954 62.1 19.9214 62.2258 20.0767 62.2258H27.0487C27.2039 62.2258 27.3299 62.1 27.3299 61.9445C27.3299 61.7891 27.2039 61.6633 27.0487 61.6633H20.3579V58.5013C20.3579 56.5612 21.9363 54.9828 23.8763 54.9828H26.3885C26.5437 54.9828 26.6697 54.857 26.6697 54.7016V53.5513C27.3042 53.9268 27.9172 54.1168 28.4969 54.1168C29.0853 54.1168 29.6986 53.9366 30.3258 53.58V54.7016C30.3258 54.857 30.4518 54.9828 30.607 54.9828H33.1175C35.0575 54.9828 36.6359 56.5612 36.6359 58.5013V61.6633H29.8167C29.6615 61.6633 29.5355 61.7891 29.5355 61.9445C29.5355 62.1 29.6615 62.2258 29.8167 62.2258H36.9168C37.072 62.2258 37.198 62.1 37.198 61.9445V58.5013C37.1982 56.2509 35.3675 54.4203 33.1173 54.4203Z" fill="#7C4231"/>
<path d="M33.1173 54.7004H32.5167L32.5323 54.7119L29.921 58.175L28.5734 57.1597L27.2259 58.175L24.6145 54.7119L24.6301 54.7004H23.8762C21.7775 54.7004 20.0765 56.4016 20.0765 58.5001V61.9449H36.9166V58.5001C36.917 56.4014 35.216 54.7004 33.1173 54.7004Z" fill="#5496CE"/>
<path d="M22.2124 46.7585C23.0275 46.6263 23.581 45.8583 23.4487 45.0432C23.3164 44.2281 22.5484 43.6746 21.7333 43.8069C20.9183 43.9392 20.3647 44.7071 20.497 45.5222C20.6293 46.3373 21.3973 46.8908 22.2124 46.7585Z" fill="#915B3C"/>
<path d="M36.4041 45.8546C36.7201 45.0917 36.3578 44.2171 35.5949 43.901C34.832 43.585 33.9574 43.9473 33.6414 44.7102C33.3254 45.4731 33.6877 46.3477 34.4506 46.6637C35.2135 46.9797 36.0881 46.6175 36.4041 45.8546Z" fill="#FCE8CB"/>
<path d="M28.4971 37.9287C24.8365 37.9287 21.8691 40.8961 21.8691 44.5566C21.8691 48.2172 25.5355 53.8356 28.4971 53.8356C31.5996 53.8356 35.125 48.217 35.125 44.5566C35.125 40.8961 32.1575 37.9287 28.4971 37.9287Z" fill="#986657"/>
<path d="M26.1571 43.8347C25.7998 43.8347 25.5103 44.1244 25.5103 44.4816C25.5103 44.8388 25.7999 45.1285 26.1571 45.1285C26.5145 45.1285 26.804 44.8388 26.804 44.4816C26.804 44.1244 26.5143 43.8347 26.1571 43.8347Z" fill="#353535"/>
<path d="M30.8371 43.8347C30.4797 43.8347 30.1902 44.1244 30.1902 44.4816C30.1902 44.8388 30.4799 45.1285 30.8371 45.1285C31.1945 45.1285 31.484 44.8388 31.484 44.4816C31.484 44.1244 31.1943 43.8347 30.8371 43.8347Z" fill="#353535"/>
<path d="M35.4337 43.0246C35.4337 39.4023 32.3622 36.4658 28.5736 36.4658C24.7848 36.4658 21.7136 39.4023 21.7136 43.0246C21.7136 43.4078 21.7829 43.6936 21.9117 44.0504C21.9725 44.2186 22.9548 43.6812 23.0384 43.6225C23.4567 43.3279 23.7986 42.9289 24.0539 42.4876C24.1595 42.304 24.2476 42.1174 24.3185 41.9307C24.5446 41.335 25.1591 39.6769 25.7829 39.8071C26.6195 39.9814 27.5677 40.0801 28.5734 40.0801C29.5794 40.0801 30.5276 39.9816 31.364 39.8071C31.9878 39.6769 32.6022 41.3348 32.8284 41.9307C32.8992 42.1174 32.9874 42.3042 33.0929 42.4876C33.515 43.2175 34.2277 43.9126 35.0949 44.0389C35.0971 43.9971 35.15 43.9827 35.1894 43.9684C35.4734 43.8655 35.4337 43.252 35.4337 43.0246Z" fill="#353535"/>
<path d="M25.9704 53.6908L24.6172 54.7107L27.2278 58.1744L28.581 57.1545L25.9704 53.6908Z" fill="#2A4F77"/>
<path d="M31.179 53.6928L28.5684 57.1565L29.9216 58.1764L32.5322 54.7127L31.179 53.6928Z" fill="#2A4F77"/>
<path d="M23.231 58.9421C23.0757 58.9421 22.9497 59.068 22.9497 59.2234V61.945C22.9497 62.1004 23.0757 62.2262 23.231 62.2262C23.3862 62.2262 23.5122 62.1004 23.5122 61.945V59.2234C23.5122 59.068 23.3862 58.9421 23.231 58.9421Z" fill="#3A312A"/>
<path d="M28.4497 34.0851C23.7775 36.8337 21.0657 31.5501 21.0657 33.9597C21.0657 34.7213 21.3727 35.4811 21.7754 36.1722L22.8905 37.7528C24.0155 39.1694 25.3614 40.6799 26.9868 41.1421C29.6049 41.8865 34.2387 40.9578 34.2387 37.1896C34.2385 34.78 32.219 31.8678 28.4497 34.0851Z" fill="#353535"/>
<path d="M30.4269 48.5295C30.281 48.4748 30.1192 48.5488 30.0648 48.6942C29.9407 49.0253 29.4532 49.6515 28.4967 49.6515C27.7387 49.6515 27.2373 49.3403 26.9193 48.672C26.8527 48.5318 26.6849 48.472 26.5445 48.5389C26.4042 48.6057 26.3448 48.7735 26.4114 48.9137C26.822 49.7766 27.5238 50.214 28.4967 50.214C29.5955 50.214 30.3528 49.5285 30.5915 48.8916C30.6461 48.7461 30.5724 48.5841 30.4269 48.5295Z" fill="#353535"/>
<path d="M57.9922 54.4203H55.763V53.0701C55.763 52.9655 55.7048 52.8695 55.612 52.8209C55.5194 52.7725 55.4077 52.7793 55.3214 52.8389C54.637 53.3135 53.981 53.554 53.3718 53.554C52.789 53.554 52.1483 53.311 51.4679 52.8314C51.4205 52.798 51.3638 52.78 51.3059 52.78H51.2632C51.1079 52.78 50.9819 52.9058 50.9819 53.0613V54.4201H48.7514C46.5012 54.4201 44.6705 56.2508 44.6705 58.501V61.9443C44.6705 62.0997 44.7965 62.2255 44.9517 62.2255H61.7918C61.9471 62.2255 62.0731 62.0997 62.0731 61.9443V58.5012C62.0733 56.2508 60.2425 54.4203 57.9922 54.4203ZM61.5108 61.6632H45.2332V58.5012C45.2332 56.5612 46.8115 54.9828 48.7516 54.9828H51.2633C51.4186 54.9828 51.5446 54.857 51.5446 54.7015V53.5512C52.1791 53.9266 52.792 54.1167 53.372 54.1167C53.9605 54.1167 54.5737 53.9365 55.2007 53.5799V54.7015C55.2007 54.857 55.3267 54.9828 55.4819 54.9828H57.9923C59.9326 54.9828 61.511 56.5612 61.511 58.5012V61.6632H61.5108Z" fill="#7C4231"/>
<path d="M57.9923 54.7004H57.3918L57.4073 54.7119L54.796 58.175L53.4485 57.1597L52.1009 58.175L49.4898 54.7119L49.5053 54.7004H48.7514C46.6527 54.7004 44.9517 56.4014 44.9517 58.5001V61.9449H61.7918V58.5001C61.792 56.4014 60.0908 54.7004 57.9923 54.7004Z" fill="#F7B73B"/>
<path fill-rule="evenodd" clip-rule="evenodd" d="M46.8474 43.7871C46.0216 43.7871 45.3522 44.4565 45.3522 45.2822C45.3522 46.108 46.0216 46.7774 46.8474 46.7774C47.6731 46.7774 48.3425 46.108 48.3425 45.2822C48.3423 44.4565 47.6731 43.7871 46.8474 43.7871Z" fill="#FCE8CB"/>
<path d="M59.8968 46.7774C60.7225 46.7774 61.3919 46.108 61.3919 45.2822C61.3919 44.4565 60.7225 43.7871 59.8968 43.7871C59.0711 43.7871 58.4017 44.4565 58.4017 45.2822C58.4017 46.108 59.0711 46.7774 59.8968 46.7774Z" fill="#915B3C"/>
<path d="M53.372 37.9287C49.7116 37.9287 46.744 40.8961 46.744 44.5566C46.744 48.2172 50.4104 53.8356 53.372 53.8356C56.4745 53.8356 59.9999 48.217 59.9999 44.5566C59.9999 40.8961 57.0325 37.9287 53.372 37.9287Z" fill="#986657"/>
<path d="M51.032 43.8347C50.6748 43.8347 50.3851 44.1244 50.3851 44.4816C50.3851 44.8388 50.6748 45.1285 51.032 45.1285C51.3894 45.1285 51.6789 44.8388 51.6789 44.4816C51.6789 44.1244 51.3894 43.8347 51.032 43.8347Z" fill="#353535"/>
<path d="M55.712 45.1285C56.0693 45.1285 56.3589 44.8389 56.3589 44.4816C56.3589 44.1243 56.0693 43.8347 55.712 43.8347C55.3547 43.8347 55.0651 44.1243 55.0651 44.4816C55.0651 44.8389 55.3547 45.1285 55.712 45.1285Z" fill="#353535"/>
<path d="M60.3087 43.0246C60.3087 39.4023 57.2373 36.4658 53.4487 36.4658C49.6599 36.4658 46.5886 39.4023 46.5886 43.0246C46.5886 43.4078 46.658 43.6936 46.7868 44.0504C46.8476 44.2186 47.8299 43.6812 47.9135 43.6225C48.3318 43.3279 48.6736 42.9289 48.929 42.4876C49.0346 42.304 49.1227 42.1174 49.1936 41.9307C49.4197 41.335 50.0341 39.6769 50.6579 39.8071C51.4946 39.9814 52.4427 40.0801 53.4485 40.0801C54.4544 40.0801 55.4026 39.9816 56.2391 39.8071C56.8629 39.6769 57.4773 41.3348 57.7034 41.9307C57.7743 42.1174 57.8624 42.3042 57.968 42.4876C58.3899 43.2175 59.1027 43.9126 59.9699 44.0389C59.972 43.9971 60.025 43.9827 60.0644 43.9684C60.3485 43.8655 60.3087 43.252 60.3087 43.0246Z" fill="#353535"/>
<path d="M50.8451 53.6901L49.4919 54.71L52.1025 58.1737L53.4557 57.1538L50.8451 53.6901Z" fill="#2A4F77"/>
<path d="M56.0549 53.693L53.4443 57.1567L54.7974 58.1765L57.408 54.7128L56.0549 53.693Z" fill="#2A4F77"/>
<path d="M48.1061 58.9421C47.9508 58.9421 47.8248 59.068 47.8248 59.2234V61.945C47.8248 62.1004 47.9508 62.2262 48.1061 62.2262C48.2613 62.2262 48.3873 62.1004 48.3873 61.945V59.2234C48.3873 59.068 48.2615 58.9421 48.1061 58.9421Z" fill="#3A312A"/>
<path d="M58.7911 58.9421C58.6359 58.9421 58.5099 59.068 58.5099 59.2234V61.945C58.5099 62.1004 58.6359 62.2262 58.7911 62.2262C58.9464 62.2262 59.0724 62.1004 59.0724 61.945V59.2234C59.0724 59.068 58.9464 58.9421 58.7911 58.9421Z" fill="#3A312A"/>
<path d="M55.3019 48.5295C55.1559 48.4748 54.9942 48.5488 54.9399 48.6942C54.8157 49.0253 54.3282 49.6515 53.3718 49.6515C52.6137 49.6515 52.1124 49.3403 51.7944 48.672C51.7278 48.5318 51.5598 48.472 51.4196 48.5389C51.2793 48.6057 51.2199 48.7735 51.2864 48.9137C51.6971 49.7766 52.3989 50.214 53.3718 50.214C54.4706 50.214 55.2279 49.5285 55.4666 48.8916C55.5211 48.7461 55.4474 48.5841 55.3019 48.5295Z" fill="#353535"/>
<path fill-rule="evenodd" clip-rule="evenodd" d="M53.5659 34.187C49.6137 34.187 48.1906 35.693 48.1906 37.5508C48.1906 39.4083 49.6137 40.9143 53.5659 40.9143C57.518 40.9143 60.7218 37.5508 60.7218 37.5508C60.7218 37.5508 57.518 34.187 53.5659 34.187Z" fill="#353535"/>
<path d="M47.9939 43.3423H33.7689V59.6238H47.9939V43.3423Z" fill="#353535"/>
<path d="M45.596 56.422H43.0856V54.7906C42.3912 55.2721 41.6727 55.556 40.9756 55.556C40.3068 55.556 39.6011 55.2691 38.9096 54.782H38.867V56.422H36.355C34.2564 56.422 32.5554 58.123 32.5554 60.2217V61.945H49.3955V60.2217C49.3957 58.123 47.6945 56.422 45.596 56.422Z" fill="#7C4231"/>
<path d="M45.596 56.4207H44.9954L45.011 56.4321L42.3999 59.8952L41.0523 58.8799L39.7047 59.8952L37.0934 56.4321L37.109 56.4207H36.355C34.2564 56.4207 32.5554 58.1218 32.5554 60.2203V61.9448H49.3955V60.2203C49.3957 58.1218 47.6947 56.4207 45.596 56.4207Z" fill="#FE747D"/>
<path d="M35.9371 47.1493C36.0185 46.3276 35.4183 45.5955 34.5966 45.5142C33.7749 45.4329 33.0429 46.033 32.9615 46.8547C32.8802 47.6764 33.4804 48.4085 34.3021 48.4898C35.1238 48.5711 35.8558 47.971 35.9371 47.1493Z" fill="#915B3C"/>
<path d="M38.4491 55.4108L37.0959 56.4307L39.7065 59.8944L41.0597 58.8745L38.4491 55.4108Z" fill="#2A4F77"/>
<path d="M43.6583 55.4132L41.0477 58.877L42.4009 59.8968L45.0114 56.4331L43.6583 55.4132Z" fill="#2A4F77"/>
<path fill-rule="evenodd" clip-rule="evenodd" d="M47.4967 45.4746C46.6709 45.4746 46.0015 46.144 46.0015 46.9697C46.0015 47.7955 46.6709 48.4649 47.4967 48.4649C48.3224 48.4649 48.9918 47.7955 48.9918 46.9697C48.9918 46.144 48.3224 45.4746 47.4967 45.4746Z" fill="#915B3C"/>
<path d="M40.9758 39.6489C37.3153 39.6489 34.3479 42.6163 34.3479 46.2769C34.3479 49.9374 38.0143 55.5558 40.9758 55.5558C44.0784 55.5558 47.6038 49.9372 47.6038 46.2769C47.6036 42.6165 44.6362 39.6489 40.9758 39.6489Z" fill="#986657"/>
<path d="M38.6358 45.5552C38.2785 45.5552 37.989 45.8449 37.989 46.2021C37.989 46.5592 38.2786 46.8489 38.6358 46.8489C38.993 46.8489 39.2827 46.5592 39.2827 46.2021C39.2827 45.8449 38.993 45.5552 38.6358 45.5552Z" fill="#353535"/>
<path d="M43.3158 46.8489C43.6731 46.8489 43.9627 46.5593 43.9627 46.2021C43.9627 45.8448 43.6731 45.5552 43.3158 45.5552C42.9586 45.5552 42.6689 45.8448 42.6689 46.2021C42.6689 46.5593 42.9586 46.8489 43.3158 46.8489Z" fill="#353535"/>
<path d="M42.9054 50.2497C42.7604 50.195 42.5977 50.269 42.5433 50.4145C42.4196 50.7457 41.9323 51.3717 40.9754 51.3717C40.2174 51.3717 39.7162 51.0605 39.3982 50.3922C39.3316 50.252 39.1636 50.1924 39.0234 50.2591C38.8831 50.3259 38.8237 50.4937 38.8902 50.6339C39.3009 51.4968 40.0025 51.9342 40.9754 51.9342C42.0746 51.9342 42.8317 51.2487 43.0704 50.6116C43.1248 50.4661 43.0509 50.3041 42.9054 50.2497Z" fill="#353535"/>
<path d="M46.4292 38.6003C45.0367 37.129 43.0658 36.2112 40.8809 36.2112C40.0638 36.2112 39.2772 36.3396 38.5402 36.5783C39.124 37.9322 39.814 39.2324 40.754 40.3641C41.186 40.8831 41.6648 41.362 42.1715 41.8064C42.5842 42.1735 43.0162 42.5198 43.4551 42.8526C44.9512 43.9885 46.5659 44.9933 48.2635 45.8117C48.4306 45.1851 48.5189 44.5268 48.5189 43.8477C48.5187 41.8148 47.725 39.9681 46.4292 38.6003Z" fill="#353535"/>
<path d="M40.8809 36.2112C40.0638 36.2112 39.2773 36.3396 38.5402 36.5783C35.468 37.5651 33.2444 40.447 33.2444 43.8477C33.2444 44.5667 33.3438 45.2624 33.5302 45.922C36.5431 44.8165 39.4871 43.4886 42.1713 41.8064C43.6854 40.8582 45.1152 39.7982 46.4291 38.6003C45.0365 37.129 43.0657 36.2112 40.8809 36.2112Z" fill="#353535"/>
<path d="M40.9756 24.551C42.2221 24.551 43.2325 23.5405 43.2325 22.294C43.2325 21.0476 42.2221 20.0371 40.9756 20.0371C39.7292 20.0371 38.7187 21.0476 38.7187 22.294C38.7187 23.5405 39.7292 24.551 40.9756 24.551Z" fill="#FE747D"/>
<path d="M24.311 23.1577C24.788 22.006 24.2411 20.6858 23.0895 20.2087C21.9379 19.7317 20.6176 20.2786 20.1406 21.4302C19.6636 22.5818 20.2104 23.9021 21.362 24.3791C22.5137 24.8561 23.8339 24.3093 24.311 23.1577Z" fill="#FE747D"/>
<path d="M60.0878 24.5211C61.3182 24.3214 62.1537 23.1621 61.9541 21.9317C61.7544 20.7013 60.5951 19.8658 59.3647 20.0654C58.1343 20.2651 57.2987 21.4244 57.4984 22.6548C57.6981 23.8852 58.8574 24.7208 60.0878 24.5211Z" fill="#FE747D"/>
<path d="M31.4131 24.8984C30.1666 24.8984 29.1562 25.9089 29.1562 27.1554C29.1562 28.4017 30.1666 29.4121 31.4131 29.4121C32.6596 29.4121 33.6701 28.4017 33.6701 27.1554C33.6699 25.9087 32.6594 24.8984 31.4131 24.8984Z" fill="#FE747D"/>
<path d="M50.5381 25.0859C49.2918 25.0859 48.2814 26.0964 48.2814 27.3429C48.2814 28.5892 49.2918 29.5996 50.5381 29.5996C51.7846 29.5996 52.7951 28.5892 52.7951 27.3429C52.7949 26.0962 51.7844 25.0859 50.5381 25.0859Z" fill="#FE747D"/>
<path d="M40.9756 30.3359C39.7291 30.3359 38.7187 31.3464 38.7187 32.5929C38.7187 33.8392 39.7291 34.8496 40.9756 34.8496C42.2221 34.8496 43.2325 33.8392 43.2325 32.5929C43.2324 31.3462 42.2219 30.3359 40.9756 30.3359Z" fill="#FE747D"/>
</svg>
