<svg width="82" height="82" viewBox="0 0 82 82" fill="none" xmlns="http://www.w3.org/2000/svg">
<path d="M0 15C0 6.71573 6.71573 0 15 0H57C70.8071 0 82 11.1929 82 25V67C82 75.2843 75.2843 82 67 82H25C11.1929 82 0 70.8071 0 57V15Z" fill="#FCEACF"/>
<g clip-path="url(#clip0)">
<path d="M39.335 40.9762H27.9178V42.4034H39.335V40.9762Z" fill="#A45E43"/>
<path d="M39.335 44.5442V53.1071C41.6996 53.1071 43.6165 51.1902 43.6165 48.8257L39.335 44.5442Z" fill="#08384D"/>
<path d="M39.335 44.5442L34.1021 48.8257V55.01L39.335 53.1071C40.1232 53.1071 40.7622 51.1902 40.7622 48.8257L39.335 44.5442Z" fill="#08384D"/>
<path d="M41.7136 39.7869H38.8593L40.7621 48.8255H43.6165V41.6897C43.6165 40.6389 42.7646 39.7869 41.7136 39.7869Z" fill="#2DADE3"/>
<path d="M38.8593 39.7869H36.9565C35.9055 39.7869 35.0536 40.6388 35.0536 41.6897V45.9713L34.1022 48.8255H40.7623V41.6897C40.7622 40.6389 39.9103 39.7869 38.8593 39.7869Z" fill="#2DADE3"/>
<path d="M59.3152 44.8295H55.0337V43.4023H59.3152C61.5448 43.4023 63.3588 41.5885 63.3588 39.3587C63.3588 37.129 61.5449 35.3151 59.3152 35.3151H55.0337V33.8879H59.3152C62.3318 33.8879 64.786 36.342 64.786 39.3587C64.786 42.3754 62.3318 44.8295 59.3152 44.8295Z" fill="#85453D"/>
<path d="M23.6363 35.0297C25.2127 35.0297 26.4906 36.3076 26.4906 37.884L27.4421 41.9276L26.4906 45.9712L20.782 43.1169V35.0297H23.6363Z" fill="#FFF0D3"/>
<path d="M29.3449 35.0297H32.1992V43.1169L26.4906 45.9712V37.884C26.4906 36.3076 27.7685 35.0297 29.3449 35.0297Z" fill="#F2AB3E"/>
<path d="M29.3449 43.1169H32.1992V47.8741L26.4906 45.9713C26.4906 44.3948 27.7685 43.1169 29.3449 43.1169Z" fill="#F5F5F5"/>
<path d="M23.6363 43.1169C25.2127 43.1169 26.4906 44.3949 26.4906 45.9713L20.782 47.8741V43.1169H23.6363Z" fill="white"/>
<path d="M43.6165 53.1071L41.7136 54.5342L43.6165 55.9614H46.4708V53.1071H43.6165Z" fill="#FF4128"/>
<path d="M43.6165 53.1071H35.0535V55.9614H43.6165V53.1071Z" fill="#FF8646"/>
<path d="M46.4708 65C46.0767 65 45.7572 64.6806 45.7572 64.2865V39.7869C45.7572 39.3927 46.0767 39.0734 46.4708 39.0734C46.8649 39.0734 47.1843 39.3928 47.1843 39.7869V64.2864C47.1843 64.6806 46.8648 65 46.4708 65Z" fill="#FF6337"/>
<path d="M30.1632 51.6799C29.769 51.6799 29.4496 51.9993 29.4496 52.3936V63.573H27.4516C27.0575 63.573 26.7381 63.8924 26.7381 64.2866C26.7381 64.6808 27.0576 65.0001 27.4516 65.0001H30.1633C30.5574 65.0001 30.8768 64.6807 30.8768 64.2866V53.1071H37.9079V51.6799H30.1632Z" fill="#08384D"/>
<path d="M39.335 28.3698V36.9327C41.6996 36.9327 43.6165 35.0158 43.6165 32.6512C43.6165 30.2867 41.6996 28.3698 39.335 28.3698Z" fill="#85453D"/>
<path d="M40.7622 32.6511C40.7622 30.2865 40.1232 28.3696 39.335 28.3696C36.9704 28.3696 35.0535 30.2865 35.0535 32.6511C35.0535 35.0157 36.9704 36.9326 39.335 36.9326C40.1232 36.9326 40.7622 35.0158 40.7622 32.6511Z" fill="#A45E43"/>
<path d="M35.0535 45.9713H31.4856L28.9167 47.3985L31.4856 48.8256H35.0535V45.9713Z" fill="#FF6337"/>
<path d="M31.4856 45.9713H17.214V48.8256H31.4856V45.9713Z" fill="#FF8646"/>
<path d="M33.6264 45.9713V64.2865C33.6264 64.6807 33.9459 65 34.3399 65C34.734 65 35.0534 64.6806 35.0534 64.2865V45.9713H33.6264Z" fill="#FF6337"/>
<path d="M17.214 45.9713V64.2865C17.214 64.6807 17.5335 65 17.9275 65C18.3216 65 18.6411 64.6806 18.6411 64.2865V45.9713H17.214Z" fill="#FF6337"/>
<path d="M40.7621 46.2092C38.7948 46.2092 37.1943 44.6087 37.1943 42.6413V34.0784C37.1943 33.6842 37.5138 33.3649 37.9078 33.3649C38.302 33.3649 38.6214 33.6843 38.6214 34.0784V42.6413C38.6214 43.8217 39.5816 44.7821 40.7621 44.7821C41.1562 44.7821 41.4756 45.1015 41.4756 45.4957C41.4757 45.8898 41.1562 46.2092 40.7621 46.2092Z" fill="#85453D"/>
<path d="M61.4559 23.4222C61.4559 22.9442 61.2201 22.5222 60.8595 22.2633C61.0936 21.886 61.1499 21.406 60.9671 20.9645C60.7842 20.523 60.4049 20.2233 59.9727 20.1221C60.0445 19.684 59.9129 19.2189 59.575 18.881C59.237 18.543 58.7721 18.4114 58.3339 18.4833C58.2326 18.051 57.9329 17.6717 57.4915 17.4889C57.05 17.306 56.5699 17.3623 56.1927 17.5964C55.9335 17.2358 55.5116 17 55.0337 17C54.5559 17 54.1338 17.2358 53.8749 17.5963C53.4975 17.3622 53.0175 17.306 52.5761 17.4888C52.1346 17.6717 51.8349 18.0509 51.7336 18.4832C51.2955 18.4114 50.8304 18.543 50.4926 18.8809C50.1546 19.2189 50.023 19.6838 50.0949 20.122C49.6626 20.2233 49.2833 20.5229 49.1005 20.9644C48.9176 21.4059 48.9739 21.886 49.208 22.2632C48.8474 22.5222 48.6117 22.9441 48.6117 23.4221C48.6117 23.9 48.8474 24.322 49.208 24.5809C48.9739 24.9582 48.9177 25.4382 49.1005 25.8797C49.2834 26.3212 49.6626 26.6209 50.0949 26.7222C50.0231 27.1602 50.1547 27.6253 50.4926 27.9632C50.8439 28.3146 51.3329 28.4444 51.7861 28.3527H58.2814C58.7345 28.4444 59.2235 28.3146 59.575 27.9632C59.9129 27.6252 60.0446 27.1603 59.9727 26.7222C60.4049 26.6208 60.7843 26.3212 60.9671 25.8797C61.1499 25.4382 61.0936 24.9582 60.8595 24.5809C61.2201 24.3221 61.4559 23.9001 61.4559 23.4222Z" fill="#40211D"/>
<path d="M55.0337 21.2815V29.8444C57.3983 29.8444 59.3152 27.9275 59.3152 25.563C59.3152 23.1984 57.3983 21.2815 55.0337 21.2815Z" fill="#85453D"/>
<path d="M56.4609 25.563C56.4609 23.1984 55.8219 21.2815 55.0337 21.2815C52.6692 21.2815 50.7523 23.1984 50.7523 25.563C50.7523 27.9275 52.6692 29.8444 55.0337 29.8444C55.8219 29.8444 56.4609 27.9275 56.4609 25.563Z" fill="#A45E43"/>
<path d="M57.4122 32.6987H54.5579V44.116L59.3151 41.2617V34.6016C59.3152 33.5506 58.4633 32.6987 57.4122 32.6987Z" fill="#11BDCF"/>
<path d="M54.5579 32.6987H52.6551C51.6042 32.6987 50.7523 33.5506 50.7523 34.6016V41.2617L56.4609 44.116V34.6016C56.4609 33.5506 55.609 32.6987 54.5579 32.6987Z" fill="#11BDCF"/>
<path d="M51.4658 44.116V62.8205L49.0995 63.6092C48.7257 63.7338 48.5236 64.138 48.6481 64.5118C48.7727 64.8857 49.1771 65.0878 49.5508 64.9632L52.4049 64.0118C52.6963 63.9147 52.8928 63.6419 52.8928 63.3348V44.116H51.4658Z" fill="#A45E43"/>
<path d="M57.1744 44.116V62.8205L54.8082 63.6092C54.4343 63.7338 54.2322 64.138 54.3567 64.5118C54.4813 64.8857 54.8857 65.0878 55.2594 64.9632L58.1135 64.0118C58.4049 63.9147 58.6014 63.6419 58.6014 63.3348V44.116H57.1744Z" fill="#85453D"/>
<path d="M59.3152 41.2616H56.4609L57.888 49.8245H60.7423V45.0355C60.7423 43.5882 60.2027 42.2677 59.3152 41.2616Z" fill="#2A4F77"/>
<path d="M56.4609 41.2616H50.7523V49.8245H57.888V45.0355C57.888 43.5882 57.3484 42.2677 56.4609 41.2616Z" fill="#2A4F77"/>
</g>
<defs>
<clipPath id="clip0">
<rect width="48" height="48" fill="white" transform="translate(17 17)"/>
</clipPath>
</defs>
</svg>
