<svg width="82" height="82" viewBox="0 0 82 82" fill="none" xmlns="http://www.w3.org/2000/svg">
<path d="M0 15C0 6.71573 6.71573 0 15 0H57C70.8071 0 82 11.1929 82 25V67C82 75.2843 75.2843 82 67 82H25C11.1929 82 0 70.8071 0 57V15Z" fill="#2A4F77"/>
<g clip-path="url(#clip0)">
<path d="M47.5133 27.6014C52.3836 29.9666 55.5857 34.7895 55.8754 40.1959C55.8913 40.6415 56.2549 40.9957 56.7008 41H64.1538C64.3774 41.0009 64.5918 40.9114 64.7484 40.7519C64.9051 40.5923 64.9906 40.3763 64.9856 40.1528C64.5339 27.2322 53.9287 16.9912 41.0002 16.9912C28.0717 16.9912 17.4665 27.2322 17.0149 40.1528C17.0099 40.3763 17.0954 40.5923 17.252 40.7519C17.4086 40.9114 17.623 41.0009 17.8466 41H25.2997C25.7455 40.9957 26.1091 40.6415 26.125 40.1959C26.5494 32.2913 33.0842 26.1003 41.0002 26.1034C42.2768 26.1004 43.5483 26.2646 44.7823 26.5917L47.5133 27.6014Z" fill="#F0C419"/>
<path d="M41.9104 52.3491L43.1699 55.011C43.3123 55.3195 43.5991 55.5367 43.9345 55.5903L46.7502 56.0172C47.1396 56.0909 47.4565 56.3733 47.5743 56.7517C47.6921 57.13 47.5916 57.5424 47.313 57.8242L45.2756 59.896C45.0347 60.1444 44.9262 60.4925 44.9835 60.8337L45.4645 63.7592C45.5434 64.1456 45.3936 64.5429 45.0794 64.7811C44.7651 65.0194 44.3421 65.0562 43.9914 64.8759L41.473 63.4947C41.1788 63.3325 40.822 63.3325 40.5279 63.4947L38.0091 64.8758C37.6584 65.0561 37.2354 65.0193 36.9211 64.7811C36.6069 64.5428 36.4571 64.1455 36.536 63.7591L37.017 60.8336C37.0743 60.4924 36.9658 60.1443 36.7249 59.8959L34.6875 57.8241C34.4089 57.5424 34.3084 57.1299 34.4262 56.7516C34.544 56.3733 34.8609 56.0908 35.2503 56.0171L38.066 55.5903C38.4014 55.5366 38.6882 55.3194 38.8306 55.0109L40.0897 52.3491C40.2504 51.9902 40.6069 51.7592 41.0001 51.7592C41.3933 51.7592 41.7498 51.9902 41.9104 52.3491Z" fill="#F2AB3E"/>
<path d="M24.5311 52.3491L25.7906 55.011C25.933 55.3195 26.2197 55.5367 26.5552 55.5903L29.3709 56.0172C29.7603 56.0909 30.0772 56.3733 30.195 56.7517C30.3128 57.13 30.2123 57.5424 29.9337 57.8242L27.8963 59.896C27.6554 60.1444 27.5469 60.4925 27.6042 60.8337L28.0852 63.7592C28.1641 64.1456 28.0143 64.5429 27.7001 64.7811C27.3858 65.0194 26.9628 65.0562 26.6121 64.8759L24.0933 63.4947C23.7992 63.3325 23.4424 63.3325 23.1482 63.4947L20.6298 64.8758C20.2791 65.0561 19.8561 65.0193 19.5418 64.7811C19.2276 64.5428 19.0778 64.1455 19.1567 63.7591L19.6377 60.8336C19.695 60.4924 19.5865 60.1443 19.3456 59.8959L17.3079 57.8242C17.0292 57.5424 16.9287 57.13 17.0466 56.7517C17.1644 56.3733 17.4813 56.0909 17.8706 56.0172L20.6863 55.5903C21.0218 55.5367 21.3085 55.3195 21.4509 55.011L22.7104 52.3491C22.8711 51.9902 23.2276 51.7592 23.6208 51.7592C24.014 51.7592 24.3705 51.9902 24.5311 52.3491Z" fill="#F2AB3E"/>
<path d="M59.2898 52.3491L60.5493 55.011C60.6917 55.3195 60.9785 55.5367 61.3139 55.5903L64.1296 56.0172C64.519 56.0909 64.8359 56.3733 64.9537 56.7517C65.0715 57.13 64.971 57.5424 64.6924 57.8242L62.655 59.896C62.4141 60.1444 62.3056 60.4925 62.3629 60.8337L62.8439 63.7592C62.9228 64.1456 62.773 64.5429 62.4588 64.7811C62.1445 65.0194 61.7215 65.0562 61.3708 64.8759L58.8524 63.4947C58.5582 63.3325 58.2014 63.3325 57.9073 63.4947L55.3885 64.8758C55.0378 65.0561 54.6148 65.0193 54.3005 64.7811C53.9863 64.5428 53.8365 64.1455 53.9154 63.7591L54.3964 60.8336C54.4537 60.4924 54.3452 60.1443 54.1043 59.8959L52.0669 57.8241C51.7883 57.5424 51.6878 57.1299 51.8056 56.7516C51.9234 56.3733 52.2403 56.0908 52.6297 56.0171L55.4454 55.5903C55.7808 55.5366 56.0676 55.3194 56.21 55.0109L57.4691 52.3491C57.6298 51.9902 57.9863 51.7592 58.3795 51.7592C58.7727 51.7592 59.1292 51.9902 59.2898 52.3491Z" fill="#F2AB3E"/>
<path d="M64.9834 40.1559C64.9891 40.3785 64.9042 40.594 64.7483 40.7531C64.5924 40.9121 64.3786 41.0012 64.1558 41H56.6993C56.2535 40.9959 55.8893 40.6427 55.8717 40.1972C55.6782 36.5288 54.1334 33.0618 51.5352 30.4648L57.9738 24.0262C62.2763 28.3158 64.7829 34.0836 64.9834 40.1559Z" fill="#24AE5F"/>
<path d="M57.9738 24.0262L51.5352 30.4648C50.3631 29.2932 49.0037 28.3255 47.5131 27.6014L44.7821 26.5917C43.5481 26.2646 42.2766 26.1004 41 26.1034V17C47.3675 16.9898 53.4764 19.5185 57.9738 24.0262Z" fill="#71C285"/>
<path d="M41.0002 17V26.1034C37.0487 26.101 33.2585 27.6701 30.465 30.4648L24.0264 24.0262C28.5237 19.5185 34.6326 16.9898 41.0002 17Z" fill="#F0C419"/>
<path d="M30.4649 30.4648C27.8667 33.0618 26.3219 36.5288 26.1283 40.1972C26.1107 40.6427 25.7466 40.9959 25.3008 41H17.8442C17.6215 41.0012 17.4077 40.9121 17.2518 40.7531C17.0958 40.594 17.011 40.3785 17.0166 40.1559C17.2171 34.0836 19.7237 28.3158 24.0263 24.0262L30.4649 30.4648Z" fill="#C03A2B"/>
<path d="M40.28 35.2565L44.7821 26.5917L47.1407 22.04C47.3323 21.6683 47.7713 21.4981 48.1634 21.6436C48.5554 21.789 48.7772 22.2043 48.68 22.611L47.5131 27.6014L45.2869 37.1103" fill="#E64C3C"/>
<path d="M41.0001 46.7931C44.1996 46.7931 46.7932 44.1994 46.7932 41C46.7932 37.8005 44.1996 35.2069 41.0001 35.2069C37.8007 35.2069 35.207 37.8005 35.207 41C35.207 44.1994 37.8007 46.7931 41.0001 46.7931Z" fill="#ECF0F1"/>
<path d="M41.0001 42.6552C41.9143 42.6552 42.6553 41.9141 42.6553 41C42.6553 40.0859 41.9143 39.3448 41.0001 39.3448C40.086 39.3448 39.345 40.0859 39.345 41C39.345 41.9141 40.086 42.6552 41.0001 42.6552Z" fill="#BDC3C7"/>
</g>
<defs>
<clipPath id="clip0">
<rect width="48" height="48" fill="white" transform="translate(17 17)"/>
</clipPath>
</defs>
</svg>
