<svg width="82" height="82" viewBox="0 0 82 82" fill="none" xmlns="http://www.w3.org/2000/svg">
<path d="M0 15C0 6.71573 6.71573 0 15 0H57C70.8071 0 82 11.1929 82 25V67C82 75.2843 75.2843 82 67 82H25C11.1929 82 0 70.8071 0 57V15Z" fill="#FFDCDE"/>
<path d="M43.8092 53.1441V47.4441H37.6844V53.1913L28 56.1223C28.2305 56.8838 28.7539 57.5225 29.4553 57.898C30.1566 58.2736 30.9784 58.3552 31.7399 58.1248L40.825 55.375L49.9101 58.1245C50.6716 58.3548 51.4934 58.2732 52.1947 57.8977C52.8961 57.5221 53.4195 56.8834 53.65 56.122L43.8092 53.1441Z" fill="#FE747D"/>
<path d="M18 20H64V48H18V20Z" fill="#284CB2"/>
<path d="M19 21H63V47H19V21Z" fill="#08384D"/>
<path d="M25 33C25 32.4477 25.4477 32 26 32H30C30.5523 32 31 32.4477 31 33V35C31 35.5523 30.5523 36 30 36H26C25.4477 36 25 35.5523 25 35V33Z" fill="#DBF5F8"/>
<path d="M25 28C25 27.4477 25.4477 27 26 27H30C30.5523 27 31 27.4477 31 28V30C31 30.5523 30.5523 31 30 31H26C25.4477 31 25 30.5523 25 30V28Z" fill="#DBF5F8"/>
<path d="M25 38C25 37.4477 25.4477 37 26 37H30C30.5523 37 31 37.4477 31 38V40C31 40.5523 30.5523 41 30 41H26C25.4477 41 25 40.5523 25 40V38Z" fill="#DBF5F8"/>
<path d="M33 27H38.4859V37.6969H33V27Z" fill="#DBF5F8"/>
<path d="M42 28C42 27.4477 42.4477 27 43 27H56C56.5523 27 57 27.4477 57 28V37C57 37.5523 56.5523 38 56 38H43C42.4477 38 42 37.5523 42 37V28Z" fill="#60D2B0"/>
<path d="M49.0407 35C48.885 35.0001 48.7343 34.9399 48.6159 34.8303L46.2293 32.6222C46.0974 32.5001 46.0157 32.3263 46.002 32.1389C45.9884 31.9515 46.044 31.7659 46.1566 31.623C46.2693 31.48 46.4297 31.3914 46.6026 31.3766C46.7755 31.3619 46.9467 31.4221 47.0786 31.5442L49.0052 33.326L51.8824 30.2079C52.0052 30.0748 52.1717 30 52.3453 30C52.5189 30 52.6854 30.0747 52.8082 30.2077C52.931 30.3407 53 30.5211 53 30.7093C53 30.8974 52.9311 31.0779 52.8084 31.2109L49.503 34.7931C49.4423 34.8588 49.3702 34.911 49.2909 34.9465C49.2116 34.982 49.1266 35.0002 49.0407 35Z" fill="#E8F3FC"/>
</svg>
