<svg width="82" height="82" viewBox="0 0 82 82" fill="none" xmlns="http://www.w3.org/2000/svg">
<path d="M0 15C0 6.71573 6.71573 0 15 0H57C70.8071 0 82 11.1929 82 25V67C82 75.2843 75.2843 82 67 82H25C11.1929 82 0 70.8071 0 57V15Z" fill="#FFDCDE"/>
<path d="M22.2501 50V61.625C22.2501 61.7188 22.2407 61.8031 22.2313 61.8875C22.1751 62.3 21.9782 62.675 21.697 62.9563C21.3595 63.2938 20.8907 63.5 20.3657 63.5C19.3345 63.5 18.4907 62.6562 18.4907 61.625V47C18.4907 48.6594 19.8313 50 21.4907 50H22.2501Z" fill="#151C21"/>
<path d="M30.5 54.5V55.625C30.5 56.1406 30.2937 56.6188 29.9562 56.9563C29.6187 57.2938 29.15 57.5 28.625 57.5C28.1844 57.5 27.7719 57.3406 27.4438 57.0781C27.0125 56.7406 26.75 56.2156 26.75 55.625V50.75C26.75 50.3375 26.4125 50 26 50H22.25H21.5C19.8406 50 18.5 48.6594 18.5 47V45.5H26H27.5C29.1594 45.5 30.5 46.8406 30.5 48.5V54.2656V54.5Z" fill="#151C21"/>
<path d="M37.25 32.375V32.4313C37.25 32.9375 37.4562 33.3875 37.7844 33.725C37.9625 33.9031 38.1781 34.0438 38.4219 34.1375C38.2437 34.4 37.9906 34.6062 37.6906 34.7562L26 40.25V45.5H18.5V41C18.5 37.6812 21.1812 35 24.5 35H27.5L36.1625 31.3906C36.3875 31.2969 36.6312 31.25 36.8656 31.25H36.9125C37.1375 31.25 37.3531 31.2875 37.5594 31.3625C37.3625 31.6531 37.25 32.0094 37.25 32.375Z" fill="#FF826E"/>
<path d="M56.75 42.5188V49.625C56.75 50.6563 55.9062 51.5 54.875 51.5C54.3594 51.5 53.8812 51.2938 53.5437 50.9563C53.2062 50.6188 53 50.15 53 49.625V42.5188H56.75Z" fill="#2A4F77"/>
<path d="M52.25 36.5V41.4781L49.0531 42.35C48.725 42.4437 48.5 42.7344 48.5 43.0719V49.625C48.5 50.6562 47.6562 51.5 46.625 51.5C46.1094 51.5 45.6312 51.2938 45.2937 50.9563C44.9562 50.6188 44.75 50.15 44.75 49.625V40.6063C44.75 39.4719 45.3969 38.4312 46.4094 37.925L49.25 36.5H52.25Z" fill="#2A4F77"/>
<path d="M62.75 35.0187V42.5188H56.75H53H52.25V41.4875V36.5V35.0187H55.25V36.5187C55.25 36.9312 55.4188 37.3062 55.6906 37.5781C55.9625 37.8594 56.3375 38.0187 56.75 38.0187C57.575 38.0187 58.25 37.3437 58.25 36.5187V35.0187H62.75Z" fill="#E6E9ED"/>
<path d="M55.25 35.0188H52.25V36.5H49.25V29.75H48.5L39.8844 34.0531C39.6406 34.1844 39.35 34.25 39.0781 34.25C38.8438 34.25 38.6281 34.2031 38.4219 34.1281C38.1781 34.0344 37.9625 33.8938 37.7844 33.7156C37.4562 33.3875 37.25 32.9281 37.25 32.4219V32.375C37.25 32.0094 37.3625 31.6531 37.5594 31.3625C37.7281 31.1094 37.9719 30.8938 38.2531 30.7438L45.0594 27.3406C46.8312 26.4594 48.7812 26 50.75 26C50.8062 26 50.8813 26 50.9375 25.9906L52.25 26.0094C55.5688 26.0094 58.25 28.6906 58.25 32.0094V35.0094V36.5094C58.25 37.3344 57.575 38.0094 56.75 38.0094C56.3375 38.0094 55.9625 37.8406 55.6906 37.5688C55.4094 37.2969 55.25 36.9219 55.25 36.5094V35.0188Z" fill="#4291BC"/>
<path d="M24.5 35C26.5711 35 28.25 33.3211 28.25 31.25C28.25 29.1789 26.5711 27.5 24.5 27.5C22.4289 27.5 20.75 29.1789 20.75 31.25C20.75 33.3211 22.4289 35 24.5 35Z" fill="#8E572E"/>
<path d="M50.75 26C48.6781 26 47 24.3219 47 22.25C47 20.1781 48.6781 18.5 50.75 18.5C52.8219 18.5 54.5 20.1781 54.5 22.25C54.5 24.2562 52.925 25.8969 50.9375 25.9906C50.8812 26 50.8063 26 50.75 26Z" fill="#8E572E"/>
<path d="M54.8751 51.5H46.6251H33.5001L30.5001 54.2656V54.5V55.625C30.5001 56.1406 30.2938 56.6188 29.9563 56.9563C29.6188 57.2938 29.1501 57.5 28.6251 57.5C28.1845 57.5 27.772 57.3406 27.4438 57.0781L22.2313 61.8875C22.1751 62.3 21.9782 62.675 21.697 62.9563C21.3595 63.2938 20.8907 63.5 20.3657 63.5H63.4907V51.5H54.8751ZM55.2501 61.25H53.7501V59.75H55.2501V61.25ZM58.2501 61.25H56.7501V59.75H58.2501V61.25ZM61.2501 61.25H59.7501V59.75H61.2501V61.25Z" fill="#11BDCF"/>
</svg>
