<svg width="82" height="82" viewBox="0 0 82 82" fill="none" xmlns="http://www.w3.org/2000/svg">
<path d="M0 15C0 6.71573 6.71573 0 15 0H57C70.8071 0 82 11.1929 82 25V67C82 75.2843 75.2843 82 67 82H25C11.1929 82 0 70.8071 0 57V15Z" fill="#11BDCF"/>
<g clip-path="url(#clip0)">
<path d="M47.6188 57.5471H34.3811V62.5113H47.6188V57.5471Z" fill="#08384D"/>
<path d="M64.9934 51.7556V54.61C65.1116 56.5609 63.6339 58.2417 61.684 58.3744H20.316C18.3661 58.2416 16.8884 56.5608 17.0066 54.61V51.7556H64.9934Z" fill="#2A4F77"/>
<path d="M64.9934 20.771V51.7556H17.0066V20.771C16.8884 18.8202 18.3661 17.1393 20.316 17.0066H61.6839C63.6339 17.1393 65.1115 18.8202 64.9934 20.771Z" fill="#08384D"/>
<path d="M32.7264 24.6267V34.9025C32.7179 35.0777 32.5708 35.2137 32.3955 35.2086H23.1291C22.9555 35.2175 22.8075 35.0843 22.7981 34.9107V24.6267L27.5058 20.4071C27.6543 20.2829 27.8703 20.2829 28.0188 20.4071L32.7264 24.6267Z" fill="#F2AB3E"/>
<path d="M27.7623 38.5178V43.482L23.6255 45.9641L23.5096 46.0385C23.0412 45.2683 22.7949 44.3834 22.7981 43.482C22.7982 40.7403 25.0206 38.5178 27.7623 38.5178Z" fill="#F2AB3E"/>
<path d="M32.7264 43.4818C32.7304 44.7989 32.2059 46.0627 31.2702 46.9898L27.7622 43.4818V38.5176C30.5038 38.5177 32.7264 40.7402 32.7264 43.4818Z" fill="#FE747D"/>
<path d="M31.2702 46.9901C30.1914 48.0718 28.674 48.5955 27.1575 48.4096C25.6412 48.2237 24.2952 47.349 23.5096 46.0387L23.6254 45.9643L27.7622 43.4822L31.2702 46.9901Z" fill="#60D2B0"/>
<path d="M44.3094 21.1436H45.9641C46.421 21.1436 46.7915 21.514 46.7915 21.971V31.8992H43.4821V21.9709C43.482 21.514 43.8525 21.1436 44.3094 21.1436Z" fill="#F2AB3E"/>
<path d="M50.7049 25.28H52.8064C53.1399 25.28 53.4103 25.5504 53.4103 25.884V31.8989H50.1009V25.8841C50.1009 25.5505 50.3713 25.28 50.7049 25.28Z" fill="#FE747D"/>
<path d="M57.1972 27.7622H59.5509C59.8146 27.7622 60.0284 27.9759 60.0284 28.2396V31.899H56.7197V28.2396C56.7198 27.976 56.9335 27.7622 57.1972 27.7622Z" fill="#60D2B0"/>
<path d="M40.1726 45.9641C39.838 45.964 39.5364 45.7624 39.4084 45.4533C39.2804 45.1442 39.3511 44.7884 39.5877 44.5517L42.5546 41.5848C43.537 40.6474 45.0827 40.6474 46.0651 41.5848L47.0339 42.5545C47.357 42.8774 47.8807 42.8774 48.2038 42.5545L51.6555 39.1027C52.6377 38.1654 54.1831 38.1654 55.1652 39.1027L56.1349 40.0724C56.4579 40.3953 56.9817 40.3953 57.3047 40.0724L60.2717 37.1063C60.5963 36.7928 61.1124 36.7972 61.4315 37.1164C61.7506 37.4355 61.7551 37.9516 61.4416 38.2762L58.4747 41.2432C57.5043 42.2094 55.9354 42.2094 54.965 41.2432L53.9953 40.2727C53.6684 39.959 53.1523 39.959 52.8255 40.2727L49.3737 43.7244C48.4044 44.6933 46.8333 44.6933 45.864 43.7244L44.8944 42.7548C44.5674 42.4411 44.0513 42.4411 43.7245 42.7548L40.7576 45.7217C40.6024 45.8768 40.392 45.9641 40.1726 45.9641Z" fill="#FE747D"/>
<path d="M30.2443 61.6838H51.7556C53.1264 61.6838 54.2377 62.7951 54.2377 64.1659V64.9933H27.7622V64.1659C27.7622 62.7951 28.8735 61.6838 30.2443 61.6838Z" fill="#2A4F77"/>
<path d="M34.3811 26.9348C34.1775 26.9348 33.981 26.8597 33.8293 26.7239L27.7622 21.2931L21.6952 26.7239C21.3542 27.0235 20.8355 26.9925 20.5326 26.6542C20.2298 26.316 20.2561 25.797 20.5915 25.4911L26.9556 19.7939C27.411 19.3925 28.0923 19.3871 28.554 19.7815L34.933 25.4903C35.1891 25.719 35.2774 26.0821 35.1549 26.4028C35.0323 26.7234 34.7245 26.9352 34.3811 26.9348Z" fill="#FE747D"/>
<path d="M22.7981 25.4537C22.3412 25.4537 21.9707 25.0834 21.9707 24.6264V22.3843C21.9707 21.9274 22.3411 21.5569 22.7981 21.5569C23.2551 21.5569 23.6255 21.9273 23.6255 22.3843V24.6264C23.6254 25.0834 23.255 25.4537 22.7981 25.4537Z" fill="#FE747D"/>
<path d="M60.8566 32.7263H41.8273C40.4565 32.7263 39.3452 31.615 39.3452 30.2442V20.3159C39.3452 19.859 39.7156 19.4885 40.1726 19.4885C40.6296 19.4885 41 19.8589 41 20.3159V30.2442C41 30.7011 41.3704 31.0716 41.8274 31.0716H60.8566C61.3135 31.0716 61.684 31.442 61.684 31.899C61.684 32.356 61.3135 32.7263 60.8566 32.7263Z" fill="#959595"/>
<path d="M60.8566 49.2736H41.8273C40.4565 49.2736 39.3452 48.1623 39.3452 46.7915V36.8633C39.3452 36.4064 39.7156 36.0359 40.1726 36.0359C40.6296 36.0359 41 36.4063 41 36.8633V46.7916C41 47.2485 41.3704 47.619 41.8274 47.619H60.8566C61.3135 47.619 61.684 47.9894 61.684 48.4464C61.684 48.9034 61.3135 49.2736 60.8566 49.2736Z" fill="#959595"/>
</g>
<defs>
<clipPath id="clip0">
<rect width="48" height="48" fill="white" transform="translate(17 17)"/>
</clipPath>
</defs>
</svg>
