<svg width="82" height="82" viewBox="0 0 82 82" fill="none" xmlns="http://www.w3.org/2000/svg">
<path d="M0 15C0 6.71573 6.71573 0 15 0H57C70.8071 0 82 11.1929 82 25V67C82 75.2843 75.2843 82 67 82H25C11.1929 82 0 70.8071 0 57V15Z" fill="#F2AB3E"/>
<g clip-path="url(#clip0)">
<path d="M63.9875 33.5656L63.0219 32.8531L61.55 31.7656L56.5438 28.0812C56.1688 27.8 55.7188 27.6312 55.25 27.5843L55.2406 27.575L55.2313 27.5843C55.1562 27.575 55.0813 27.575 55.0156 27.575H27.8C27.725 27.575 27.65 27.575 27.5844 27.5843H27.5656C27.0969 27.6312 26.6469 27.8 26.2719 28.0812L18.8281 33.5656C18.1531 34.0625 17.7688 34.8687 17.8156 35.7125C17.8438 36.2281 18.0313 36.7156 18.35 37.1187L40.0625 64.3531C40.3906 64.7562 40.8875 65 41.4031 65C41.9281 65 42.4156 64.7656 42.7438 64.3531L64.4469 37.1187C64.7656 36.7156 64.9531 36.2281 64.9813 35.7125C65.0469 34.8687 64.6625 34.0625 63.9875 33.5656Z" fill="#5496CE"/>
<path d="M64.9906 35.7125H58.4938L55.25 27.5844C55.7188 27.6312 56.1687 27.8 56.5437 28.0812L61.55 31.7656L63.0219 32.8531L63.9875 33.5656C64.6625 34.0625 65.0469 34.8687 64.9906 35.7125Z" fill="#305B8A"/>
<path d="M58.4938 35.7125H51.1719L55.2312 27.5844H55.25L58.4938 35.7125Z" fill="#2A4F77"/>
<path d="M55.2312 27.5843L51.1719 35.7125L47.1031 27.575H55.0062C55.0812 27.575 55.1562 27.575 55.2312 27.5843Z" fill="#305B8A"/>
<path d="M51.1719 35.7125H41.4031L47.0937 27.575L51.1719 35.7125Z" fill="#2A4F77"/>
<path d="M47.1031 27.575L41.4125 35.7125L35.7219 27.575H47.1031Z" fill="#305B8A"/>
<path d="M35.7125 27.575L31.6437 35.7125L27.5844 27.5843C27.6594 27.575 27.7344 27.575 27.8 27.575H35.7125Z" fill="#305B8A"/>
<path d="M27.5656 27.5844L24.3219 35.7125H17.825C17.7781 34.8687 18.1531 34.0625 18.8375 33.5656L26.2813 28.0812C26.6563 27.8 27.0969 27.6312 27.5656 27.5844Z" fill="#305B8A"/>
<path d="M41.4031 65C40.8781 65 40.3812 64.7656 40.0625 64.3531L18.3594 37.1188C18.0406 36.7156 17.8531 36.2281 17.825 35.7125H24.3219L41.4031 65Z" fill="#2A4F77"/>
<path d="M41.4031 65L24.3219 35.7125H31.6438L41.4031 65Z" fill="#08384D"/>
<path d="M64.9906 35.7125C64.9625 36.2281 64.775 36.7156 64.4562 37.1188L42.7531 64.3531C42.425 64.7656 41.9375 65 41.4125 65L49.9531 50.3563L54.6969 42.2188L58.4937 35.7125H64.9906Z" fill="#08384D"/>
<path d="M31.6438 35.7125H24.3219L27.5656 27.5844H27.5844L31.6438 35.7125Z" fill="#2A4F77"/>
<path d="M41.4031 35.7125H31.6437L35.7125 27.575L41.4031 35.7125Z" fill="#08384D"/>
<path d="M51.1719 35.7125L41.4031 65V35.7125H51.1719Z" fill="#08384D"/>
<path d="M58.4937 35.7125L54.6969 42.2188L49.9531 50.3563L41.4031 65L51.1625 35.7125H58.4937Z" fill="#2A4F77"/>
<path d="M41.4031 35.7125V65L31.6437 35.7125H41.4031Z" fill="#2A4F77"/>
<path d="M52.7938 30.0125L50.3563 17.8063L47.9188 30.0125L35.7125 32.45L47.9188 34.8875L50.3563 47.0938L52.7938 34.8875L65 32.45L52.7938 30.0125Z" fill="#EBECED"/>
<path d="M20.2531 23.5063C19.8031 23.5063 19.4375 23.1406 19.4375 22.6906V21.875C19.4375 21.425 19.0719 21.0594 18.6219 21.0594H17.8156C17.3656 21.0594 17 20.6937 17 20.2437C17 19.7937 17.3656 19.4375 17.8156 19.4375H18.6312C19.0812 19.4375 19.4469 19.0719 19.4469 18.6219V17.8156C19.4375 17.3656 19.8031 17 20.2531 17C20.7031 17 21.0688 17.3656 21.0688 17.8156V18.6312C21.0688 19.0812 21.4344 19.4469 21.8844 19.4469H22.7C23.15 19.4469 23.5156 19.8125 23.5156 20.2625C23.5156 20.7125 23.15 21.0781 22.7 21.0781H21.8844C21.4344 21.0781 21.0688 21.4437 21.0688 21.8938V22.7094C21.0687 23.1406 20.7031 23.5063 20.2531 23.5063Z" fill="#FCEACF"/>
<path d="M25.9531 62.5625C25.5031 62.5625 25.1375 62.1969 25.1375 61.7469V60.9312C25.1375 60.4812 24.7719 60.1156 24.3219 60.1156H23.5062C23.0562 60.1156 22.6906 59.75 22.6906 59.3C22.6906 58.85 23.0562 58.4844 23.5062 58.4844H24.3219C24.7719 58.4844 25.1375 58.1187 25.1375 57.6687V56.8531C25.1375 56.4031 25.5031 56.0375 25.9531 56.0375C26.4031 56.0375 26.7687 56.4031 26.7687 56.8531V57.6687C26.7687 58.1187 27.1344 58.4844 27.5844 58.4844H28.4C28.85 58.4844 29.2156 58.85 29.2156 59.3C29.2156 59.75 28.85 60.1156 28.4 60.1156H27.5844C27.1344 60.1156 26.7687 60.4812 26.7687 60.9312V61.7469C26.7594 62.1969 26.4031 62.5625 25.9531 62.5625Z" fill="#FCEACF"/>
</g>
<defs>
<clipPath id="clip0">
<rect width="48" height="48" fill="white" transform="translate(17 17)"/>
</clipPath>
</defs>
</svg>
