<svg width="64" height="64" viewBox="0 0 64 64" fill="none" xmlns="http://www.w3.org/2000/svg">
<path d="M34.9389 34.5117H47.4071C48.6492 34.4853 49.8566 34.9221 50.7943 35.7371C51.732 36.5521 52.3328 37.6869 52.4797 38.9206C52.555 39.5967 52.4839 40.2811 52.2712 40.9274C52.0585 41.5736 51.7092 42.1665 51.2471 42.6657C50.7873 43.171 50.2274 43.5752 49.6031 43.8527C48.9788 44.1302 48.3036 44.2749 47.6204 44.2776C54.7315 44.2776 60.3256 42.3102 60.3256 34.5117V12.0406C60.3194 11.2651 60.0069 10.5236 59.4564 9.97749C58.9058 9.43139 58.1618 9.12497 57.3863 9.125H34.9389C33.9017 9.125 32.9068 9.53706 32.1734 10.2705C31.4399 11.004 31.0278 11.9988 31.0278 13.0361V30.6006C31.0278 31.6378 31.4399 32.6327 32.1734 33.3661C32.9068 34.0996 33.9017 34.5117 34.9389 34.5117V34.5117Z" fill="#FE747D"/>
<path d="M42.6668 14.0088C42.1513 14.0088 41.657 14.2136 41.2924 14.5781C40.9279 14.9426 40.7231 15.437 40.7231 15.9525V20.8355C40.7231 21.3532 40.9271 21.85 41.291 22.2183C41.6548 22.5866 42.1492 22.7966 42.6668 22.8029H43.6387C43.8959 22.7997 44.1512 22.8477 44.3898 22.944C44.6284 23.0402 44.8454 23.1829 45.0285 23.3637C45.2115 23.5445 45.3568 23.7598 45.4559 23.9972C45.5551 24.2346 45.6061 24.4893 45.6061 24.7466V27.6621C45.5758 27.937 45.6038 28.2152 45.6882 28.4785C45.7727 28.7419 45.9117 28.9845 46.0962 29.1905C46.2808 29.3965 46.5067 29.5612 46.7592 29.674C47.0117 29.7869 47.2851 29.8452 47.5617 29.8452C47.8382 29.8452 48.1117 29.7869 48.3642 29.674C48.6167 29.5612 48.8426 29.3965 49.0271 29.1905C49.2116 28.9845 49.3506 28.7419 49.4351 28.4785C49.5195 28.2152 49.5475 27.937 49.5172 27.6621V24.7466C49.514 24.4904 49.5621 24.2363 49.6587 23.999C49.7552 23.7617 49.8983 23.5462 50.0794 23.3651C50.2605 23.1839 50.4761 23.0409 50.7133 22.9443C50.9506 22.8478 51.2048 22.7997 51.4609 22.8029H52.4328V14.0088H42.6668Z" fill="#FFF5E0"/>
<path d="M56.4148 23.7038V13.0371H52.5037V23.7038H56.4148Z" fill="#08384D"/>
<path d="M34.9389 9.125C33.9017 9.125 32.9068 9.53706 32.1734 10.2705C31.4399 11.004 31.0278 11.9988 31.0278 13.0361V28.6569H34.9389C35.3289 28.6631 35.7162 28.5918 36.0783 28.4469C36.4404 28.302 36.7701 28.0865 37.048 27.8129C37.326 27.5393 37.5468 27.2132 37.6974 26.8535C37.8481 26.4937 37.9257 26.1076 37.9256 25.7176V9.125H34.9389Z" fill="#E71D73"/>
<path d="M38.8264 27.6621H42.6664V29.6295H38.8264V27.6621Z" fill="#FFF5E0"/>
<path d="M33.9435 3.2706H6.61309C5.83764 3.27058 5.09359 3.57699 4.54305 4.1231C3.99251 4.6692 3.68008 5.41073 3.67383 6.18616V27.6617C3.67383 35.4839 9.36272 37.4276 16.379 37.4276C15.701 37.4334 15.0297 37.2937 14.4103 37.0179C13.7909 36.742 13.2379 36.3366 12.7886 35.8288C12.3392 35.3211 12.004 34.7229 11.8056 34.0745C11.6072 33.4262 11.5501 32.7429 11.6383 32.0706C11.7927 30.8615 12.3794 29.7491 13.2899 28.9387C14.2005 28.1284 15.3735 27.6748 16.5923 27.6617H33.9435C34.3283 27.6648 34.71 27.5917 35.0665 27.4466C35.4229 27.3015 35.7472 27.0872 36.0204 26.8162C36.2937 26.5451 36.5105 26.2227 36.6585 25.8674C36.8065 25.5121 36.8827 25.131 36.8827 24.7462V6.18616C36.8827 5.80128 36.8065 5.42021 36.6585 5.06492C36.5105 4.70964 36.2937 4.38717 36.0204 4.11612C35.7472 3.84508 35.4229 3.63082 35.0665 3.4857C34.71 3.34058 34.3283 3.26748 33.9435 3.2706V3.2706Z" fill="#11BDCF"/>
<path d="M38.8266 52.1484L33.8488 54.5188C33.2729 54.7996 32.6406 54.9455 31.9999 54.9455C31.3592 54.9455 30.7269 54.7996 30.151 54.5188L25.1733 52.1484C24.1605 52.1667 23.1944 52.5771 22.4782 53.2933C21.7619 54.0096 21.3515 54.9757 21.3333 55.9884V60.8714H42.6666V55.9884C42.6483 54.9757 42.2379 54.0096 41.5217 53.2933C40.8055 52.5771 39.8393 52.1667 38.8266 52.1484V52.1484Z" fill="#2A4F77"/>
<path d="M23.7036 37.3096C23.2937 38.3996 23.1055 39.5605 23.1502 40.7242C23.195 41.8879 23.4716 43.0309 23.964 44.0863C24.4563 45.1416 25.1545 46.0881 26.0174 46.87C26.8804 47.652 27.8909 48.2537 28.9895 48.6399V49.1614C28.9895 51.3185 27.2591 52.077 25.1021 52.077L30.151 54.5185C30.7269 54.7992 31.3592 54.9451 31.9999 54.9451C32.6406 54.9451 33.2728 54.7992 33.8488 54.5185L38.8265 52.1481C36.6695 52.1481 34.9391 51.3896 34.9391 49.2325V48.7111C36.6979 48.0922 38.2136 46.9291 39.2664 45.3904C40.3192 43.8516 40.8543 42.0175 40.7939 40.154C40.7939 39.917 40.7939 39.7036 40.7939 39.4666H29.0606C27.0652 39.4572 25.1488 38.6856 23.7036 37.3096V37.3096Z" fill="#D29B6E"/>
<path d="M23.704 37.3105C25.1421 38.6439 27.0287 39.3884 28.9899 39.3964H40.7706C40.7738 38.3703 40.5743 37.3537 40.1838 36.4048C39.7933 35.4559 39.2194 34.5934 38.4949 33.8667C37.7704 33.1401 36.9097 32.5635 35.962 32.1701C35.0143 31.7767 33.9982 31.5742 32.9721 31.5742H21.3336C21.3122 32.6421 21.5116 33.7029 21.9195 34.69C22.3274 35.6771 22.935 36.5693 23.704 37.3105V37.3105Z" fill="#3C3C3B"/>
<path d="M25.1734 14.0084H24.1778C23.6602 14.0021 23.1658 13.7921 22.802 13.4238C22.4381 13.0555 22.2341 12.5587 22.2341 12.041V9.12542C22.2644 8.85053 22.2365 8.57233 22.152 8.30899C22.0676 8.04564 21.9285 7.80306 21.744 7.59707C21.5595 7.39108 21.3336 7.2263 21.0811 7.1135C20.8286 7.00069 20.5551 6.94238 20.2786 6.94238C20.002 6.94238 19.7286 7.00069 19.4761 7.1135C19.2236 7.2263 18.9977 7.39108 18.8132 7.59707C18.6286 7.80306 18.4896 8.04564 18.4052 8.30899C18.3207 8.57233 18.2927 8.85053 18.323 9.12542V12.041C18.3231 12.5587 18.119 13.0555 17.7552 13.4238C17.3913 13.7921 16.897 14.0021 16.3793 14.0084H15.4075V22.8025H25.1734C25.6911 22.7962 26.1854 22.5862 26.5493 22.2179C26.9131 21.8496 27.1171 21.3528 27.1171 20.835V15.9521C27.1171 15.6968 27.0668 15.4441 26.9691 15.2083C26.8715 14.9724 26.7283 14.7582 26.5478 14.5777C26.3673 14.3972 26.153 14.254 25.9172 14.1563C25.6814 14.0587 25.4286 14.0084 25.1734 14.0084V14.0084Z" fill="#DBF5F8"/>
<path d="M15.4074 13.0371H11.4963V23.7038H15.4074V13.0371Z" fill="#08384D"/>
<path d="M29.0606 6.1875H27.1169V7.11194H26.074V9.07935H27.0458V10.0512H28.9895V9.12676H29.9851V7.11194H28.9895L29.0606 6.1875Z" fill="#DBF5F8"/>
</svg>
