<svg width="170" height="170" viewBox="0 0 170 170" fill="none" xmlns="http://www.w3.org/2000/svg">
<g clip-path="url(#clip0)">
<path d="M161.36 57.4842L157.013 135.598L80.5989 158.764L85.8893 63.7112L161.36 57.4842Z" fill="#AC2858"/>
<path d="M6.18744 130.263L80.2976 158.473L85.588 63.4205L10.7205 48.8627L6.18744 130.263Z" fill="#F6515B"/>
<path d="M164.855 44.4457L85.1309 53.1861L7.13768 35.7182L85.4525 27.7227L164.855 44.4457Z" fill="#AC2858"/>
<path d="M161.523 67.546L162.814 44.3204L83.0904 53.0608L81.6277 79.2869L161.523 67.546Z" fill="#F6515B"/>
<path d="M84.2927 79.2461L6.48575 58.4911L7.76211 35.552L85.7554 53.0199L84.2927 79.2461Z" fill="#AC2858"/>
<path d="M122.069 38.5888L143.737 46.7273L138.498 140.825L118.522 146.485L122.115 49.2814L88.1953 38.0897L122.069 38.5888Z" fill="#FFDCDE"/>
<path d="M80.6442 31.5488L34.9787 44.41L29.7392 138.508L48.9631 146.338L56.1881 49.3268L91.1456 41.9448L80.6442 31.5488Z" fill="#FFDCDE"/>
<path d="M100.065 26.964C100.065 26.964 132.739 4.84582 134.737 -1.44324C136.735 -7.7323 133.45 -7.88989 128.033 -2.5446C122.617 2.8007 100.065 26.964 100.065 26.964Z" fill="#353535"/>
<path d="M136.152 -3.91342C136.152 -3.91342 134.537 2.00729 140.607 8.01494C146.677 14.0226 155.675 22.8838 152.816 34.9935C152.816 34.9935 121.533 48.6079 100.674 39.0535L100.065 26.9643C100.065 26.9643 137.257 1.28032 134.859 -6.01903L136.152 -3.91342Z" fill="#FFDCDE"/>
<path d="M90.7531 26.4506C90.7531 26.4506 60.7418 0.902443 59.4541 -5.61052C58.1663 -12.1235 61.444 -11.8889 66.2318 -5.96034C71.0196 -0.0317262 90.7531 26.4506 90.7531 26.4506Z" fill="#353535"/>
<path d="M58.2696 -8.21593C58.2696 -8.21593 59.2099 -2.1358 52.5244 3.15695C45.8389 8.4497 35.8835 16.3024 37.3981 28.6201C37.3981 28.6201 66.9718 45.608 88.7629 38.4048L90.7081 26.4658C90.7081 26.4658 56.6033 -3.16913 59.7796 -10.1601L58.2696 -8.21593Z" fill="#FFDCDE"/>
<path d="M94.2812 20.9788L96.5115 21.1022C100.222 21.3073 103.063 24.4796 102.857 28.1877L102.349 37.3364C102.143 41.0445 98.9673 43.8842 95.2565 43.679L93.0262 43.5557C89.3154 43.3505 86.4743 40.1782 86.6805 36.4702L87.189 27.3214C87.3952 23.6134 90.5705 20.7737 94.2812 20.9788Z" fill="#FFDCDE"/>
<g clip-path="url(#clip1)">
<path d="M143.04 95.6374L143.026 95.6233C142.748 95.3454 142.371 95.1866 141.978 95.1823L110.461 94.8562C110.121 94.8534 109.789 94.9668 109.52 95.1767C109.344 95.3128 109.186 95.4645 109.013 95.6374C99.632 105.019 99.632 120.283 109.013 129.664C118.395 139.046 133.659 139.046 143.04 129.664C152.422 120.283 152.422 105.019 143.04 95.6374Z" fill="#113255"/>
<path d="M143.353 96.1334C143.136 95.5592 142.583 95.1764 141.967 95.1665L110.449 94.8404C109.833 94.8362 109.274 95.2076 109.041 95.7776C108.812 96.339 108.942 96.9827 109.369 97.4094L109.394 97.435C118.722 106.343 133.47 106.496 142.968 97.7809C143.42 97.3626 143.574 96.7091 143.353 96.1334Z" fill="#2A4F77"/>
<path d="M122.64 123.703C122.64 124.591 122.488 125.367 122.184 126.031C121.888 126.687 121.444 127.199 120.852 127.567C120.268 127.935 119.548 128.119 118.692 128.119C117.804 128.119 117.064 127.935 116.472 127.567C115.888 127.199 115.452 126.683 115.164 126.019C114.876 125.355 114.732 124.579 114.732 123.691C114.732 122.819 114.876 122.055 115.164 121.399C115.452 120.735 115.888 120.219 116.472 119.851C117.064 119.483 117.808 119.299 118.704 119.299C119.56 119.299 120.28 119.483 120.864 119.851C121.448 120.211 121.888 120.723 122.184 121.387C122.488 122.043 122.64 122.815 122.64 123.703ZM115.872 123.703C115.872 124.783 116.1 125.635 116.556 126.259C117.012 126.875 117.724 127.183 118.692 127.183C119.66 127.183 120.368 126.875 120.816 126.259C121.272 125.635 121.5 124.783 121.5 123.703C121.5 122.623 121.276 121.779 120.828 121.171C120.38 120.555 119.672 120.247 118.704 120.247C117.728 120.247 117.012 120.555 116.556 121.171C116.1 121.779 115.872 122.623 115.872 123.703Z" fill="#D5D5D5"/>
<path d="M126.219 127.999H125.139V119.431L129.927 119.431V120.379H126.219V123.415H129.699V124.363H126.219V127.999Z" fill="#D5D5D5"/>
<path d="M133.042 127.999H131.962V119.431L136.75 119.431V120.379H133.042V123.415H136.522V124.363H133.042V127.999Z" fill="#D5D5D5"/>
<path d="M116.2 110.616C116.807 110.616 117.348 110.732 117.824 110.966C118.3 111.199 118.674 111.54 118.944 111.988C119.224 112.436 119.364 112.991 119.364 113.654C119.364 114.736 119.028 115.59 118.356 116.216C117.684 116.832 116.69 117.14 115.374 117.14C114.852 117.14 114.357 117.093 113.89 117C113.433 116.906 113.032 116.771 112.686 116.594L112.686 114.774C113.032 114.951 113.447 115.105 113.932 115.236C114.418 115.357 114.875 115.418 115.304 115.418C115.93 115.418 116.406 115.292 116.732 115.04C117.068 114.778 117.236 114.377 117.236 113.836C117.236 112.828 116.569 112.324 115.234 112.324C114.973 112.324 114.702 112.352 114.422 112.408C114.142 112.454 113.909 112.501 113.722 112.548L112.882 112.1L113.26 107.004L118.678 107.004V108.796H115.108L114.926 110.756C115.085 110.728 115.253 110.7 115.43 110.672C115.617 110.634 115.874 110.616 116.2 110.616Z" fill="#11BDCF"/>
<path d="M127.502 112.002C127.502 113.075 127.385 113.994 127.152 114.76C126.928 115.525 126.559 116.113 126.046 116.524C125.533 116.934 124.851 117.14 124.002 117.14C122.798 117.14 121.916 116.687 121.356 115.782C120.796 114.876 120.516 113.616 120.516 112.002C120.516 110.928 120.628 110.009 120.852 109.244C121.076 108.469 121.445 107.876 121.958 107.466C122.471 107.055 123.153 106.85 124.002 106.85C125.197 106.85 126.079 107.302 126.648 108.208C127.217 109.113 127.502 110.378 127.502 112.002ZM122.616 112.002C122.616 113.14 122.714 113.999 122.91 114.578C123.106 115.147 123.47 115.432 124.002 115.432C124.525 115.432 124.889 115.147 125.094 114.578C125.299 114.008 125.402 113.15 125.402 112.002C125.402 110.863 125.299 110.004 125.094 109.426C124.889 108.847 124.525 108.558 124.002 108.558C123.47 108.558 123.106 108.847 122.91 109.426C122.714 110.004 122.616 110.863 122.616 112.002Z" fill="#11BDCF"/>
<path d="M130.81 106.864C131.594 106.864 132.186 107.139 132.588 107.69C132.998 108.231 133.204 108.996 133.204 109.986C133.204 110.975 133.012 111.75 132.63 112.31C132.247 112.86 131.64 113.136 130.81 113.136C130.035 113.136 129.447 112.86 129.046 112.31C128.654 111.75 128.458 110.975 128.458 109.986C128.458 108.996 128.644 108.231 129.018 107.69C129.391 107.139 129.988 106.864 130.81 106.864ZM137.908 107.004L132.364 117H130.726L136.27 107.004L137.908 107.004ZM130.824 108.292C130.394 108.292 130.18 108.861 130.18 110C130.18 111.148 130.394 111.722 130.824 111.722C131.262 111.722 131.482 111.148 131.482 110C131.482 108.861 131.262 108.292 130.824 108.292ZM137.81 110.854C138.594 110.854 139.186 111.129 139.588 111.68C139.998 112.221 140.204 112.986 140.204 113.976C140.204 114.965 140.012 115.74 139.63 116.3C139.247 116.85 138.64 117.126 137.81 117.126C137.035 117.126 136.447 116.85 136.046 116.3C135.654 115.74 135.458 114.965 135.458 113.976C135.458 112.986 135.644 112.221 136.018 111.68C136.391 111.129 136.988 110.854 137.81 110.854ZM137.824 112.282C137.394 112.282 137.18 112.851 137.18 113.99C137.18 115.138 137.394 115.712 137.824 115.712C138.262 115.712 138.482 115.138 138.482 113.99C138.482 112.851 138.262 112.282 137.824 112.282Z" fill="#11BDCF"/>
</g>
</g>
<defs>
<clipPath id="clip0">
<rect width="170" height="170" fill="white" transform="matrix(-1 -8.74228e-08 -8.74228e-08 1 170 0)"/>
</clipPath>
<clipPath id="clip1">
<rect width="48.1212" height="48.1212" fill="white" transform="translate(126.027 78.624) rotate(45)"/>
</clipPath>
</defs>
</svg>
