<svg width="278" height="256" viewBox="0 0 278 256" fill="none" xmlns="http://www.w3.org/2000/svg">
<path d="M102.3 13C33.4359 12.9993 5.02697 89.8623 0.282256 148.583C-4.46246 207.305 51.485 256 102.3 256C180.136 256 247.245 208.877 269.096 154.312C317.751 32.8155 153.502 13.0005 102.3 13Z" fill="#FFDCDE"/>
<g clip-path="url(#clip0)">
<path d="M133.808 92.3688V20.6935C133.808 16.6969 137.048 13.457 141.045 13.457H243.163C247.16 13.457 250.399 16.6969 250.399 20.6935V92.3688C250.399 96.3654 247.16 99.6053 243.163 99.6053H141.045C137.048 99.6053 133.808 96.3654 133.808 92.3688Z" fill="white" stroke="#959595"/>
<path d="M139.283 74.1893C138.146 74.1893 137.021 73.6877 136.263 72.7258C134.949 71.059 135.235 68.6427 136.901 67.3287L168.401 42.4913C170.068 41.1772 172.484 41.4631 173.798 43.1299C175.112 44.7966 174.826 47.2129 173.159 48.527L141.66 73.3643C140.954 73.9193 140.116 74.1893 139.283 74.1893Z" fill="#FF8C46"/>
<path d="M77.6382 34.1997C86.8826 34.1997 94.3767 26.7056 94.3767 17.4612C94.3767 8.21675 86.8826 0.722656 77.6382 0.722656C68.3938 0.722656 60.8997 8.21675 60.8997 17.4612C60.8997 26.7056 68.3938 34.1997 77.6382 34.1997Z" fill="#FFB69E"/>
<path d="M89.2425 205.104C83.8622 205.104 79.501 200.742 79.501 195.362V117.497C79.501 112.117 83.8627 107.756 89.2425 107.756C94.6223 107.756 98.9839 112.118 98.9839 117.497V195.362C98.9844 200.742 94.6227 205.104 89.2425 205.104Z" fill="#343E6B"/>
<path d="M65.7258 205.104C60.3456 205.104 55.9844 200.742 55.9844 195.362V117.497C55.9844 112.117 60.3461 107.756 65.7258 107.756C71.1056 107.756 75.4673 112.118 75.4673 117.497V195.362C75.4678 200.742 71.1061 205.104 65.7258 205.104Z" fill="#414B82"/>
<path d="M146.031 66.0954C143.678 62.3059 138.7 61.1413 134.91 63.4936L118.552 73.6498V58.5482C118.5 48.0624 109.85 39.5312 99.3637 39.5312H99.0648C93.9017 39.5312 61.0353 39.5312 55.694 39.5312C44.9891 39.5312 36.2364 48.1062 36.1836 58.6457C36.1836 58.6592 36.1836 58.6731 36.1836 58.6866V118.326C36.1836 122.809 39.8183 126.444 44.3016 126.444C48.7848 126.444 52.4196 122.809 52.4196 118.326V58.7139C52.4369 57.1702 53.9931 55.7677 55.694 55.7677H55.9861V117.495H98.9856C98.9856 111.74 98.9856 62.156 98.9856 55.6851C99.0288 55.6851 99.4074 55.6851 99.3642 55.6851C100.988 55.6851 102.465 57.0064 102.473 58.6303V88.1671C102.505 94.4915 109.466 98.306 114.809 94.9883L143.431 77.2177C147.219 74.8639 148.383 69.8848 146.031 66.0954Z" fill="#252D5C"/>
<path d="M146.031 66.0954C143.678 62.3059 138.699 61.1413 134.909 63.4936L118.552 73.6498V58.5482C118.499 48.0624 109.849 39.5312 99.3632 39.5312C96.5904 39.5312 80.1488 39.5312 77.4822 39.5312V117.494H98.9846C98.9846 111.739 98.9846 62.155 98.9846 55.6841C99.0278 55.6841 99.4064 55.6841 99.3632 55.6841C100.987 55.6841 102.464 57.0054 102.472 58.6294V88.1661C102.504 94.4905 109.465 98.305 114.808 94.9873L143.43 77.2168C147.219 74.8639 148.383 69.8848 146.031 66.0954Z" fill="#1B224A"/>
<path d="M146.031 66.0948C143.678 62.3054 138.7 61.1407 134.91 63.4931L143.43 77.2162C147.219 74.8634 148.383 69.8843 146.031 66.0948Z" fill="#FFB69E"/>
<path d="M132.043 65.2437L140.485 79.0156L143.42 77.2163L134.979 63.4444L132.043 65.2437Z" fill="white"/>
<path d="M36.1802 114.137V118.324C36.1802 122.807 39.8149 126.442 44.2982 126.442C48.7814 126.442 52.4161 122.807 52.4161 118.324V114.137H36.1802Z" fill="white"/>
<path d="M36.1802 118.118V118.327C36.1802 122.81 39.8149 126.445 44.2982 126.445C48.7814 126.445 52.4161 122.81 52.4161 118.327V118.118H36.1802Z" fill="#FFB69E"/>
<path d="M65.0952 39.5312L77.4817 72.0378L89.8715 39.5312H65.0952Z" fill="white"/>
<path d="M82.8704 50.5974L80.1188 45.5928L82.4903 41.2797C82.9218 40.4951 82.3534 39.5322 81.4568 39.5322H73.5066C72.611 39.5322 72.0411 40.4941 72.4731 41.2797L74.8528 45.6073L72.1089 50.5984C71.7288 51.2898 71.6054 52.0921 71.7601 52.8657L73.4528 61.4584L77.4829 72.0388L81.5169 61.4569L83.2192 52.8666C83.3744 52.0921 83.2504 51.2888 82.8704 50.5974Z" fill="#FF3C3C"/>
<path d="M94.2023 64.5088H83.4788V67.8159H94.2023V64.5088Z" fill="#252D5C"/>
<path d="M222.175 173.971C231.195 173.971 238.507 166.659 238.507 157.639C238.507 148.619 231.195 141.307 222.175 141.307C213.155 141.307 205.843 148.619 205.843 157.639C205.843 166.659 213.155 173.971 222.175 173.971Z" fill="#80391B"/>
<path d="M243.259 179.177C238.46 179.177 205.753 179.177 200.954 179.177C190.723 179.177 182.266 187.5 182.214 197.731V216.006H197.975V197.81C197.983 196.226 199.37 194.937 200.954 194.937H201.109V216.006H242.85V194.937H243.26C244.845 194.937 246.231 196.226 246.239 197.81V216.006H262V197.731C261.948 187.501 253.491 179.177 243.259 179.177Z" fill="#80391B"/>
<path d="M243.26 179.182H230.342C225.312 183.17 218.708 183.015 214.121 179.182H200.955C190.724 179.182 182.266 187.505 182.215 197.736V209.207H197.976V197.816C197.984 196.231 199.371 194.942 200.955 194.942H201.11V216.011H242.851V194.942H243.261C244.846 194.942 246.232 196.231 246.24 197.816V209.207H262.001V197.736C261.949 187.506 253.492 179.182 243.26 179.182Z" fill="#60D2B0"/>
<path d="M139.075 173.971C148.095 173.971 155.408 166.659 155.408 157.639C155.408 148.619 148.095 141.307 139.075 141.307C130.056 141.307 122.743 148.619 122.743 157.639C122.743 166.659 130.056 173.971 139.075 173.971Z" fill="#FFB69E"/>
<path d="M160.16 179.177C155.36 179.177 122.653 179.177 117.854 179.177C107.623 179.177 99.1657 187.5 99.1143 197.731V216.006H114.875V197.81C114.883 196.226 116.27 194.937 117.854 194.937H118.01V216.006H159.75V194.937H160.16C161.745 194.937 163.131 196.226 163.139 197.81V216.006H178.9V197.731C178.849 187.501 170.391 179.177 160.16 179.177Z" fill="#FFB69E"/>
<path d="M160.16 179.182H146.597C141.567 183.17 134.963 183.015 130.376 179.182H117.855C107.624 179.182 99.1662 187.505 99.1147 197.736V209.207H114.876V197.816C114.883 196.231 116.27 194.942 117.855 194.942H118.01V216.011H159.75V194.942H160.161C161.745 194.942 163.132 196.231 163.14 197.816V209.207H178.901V197.736C178.849 187.506 170.391 179.182 160.16 179.182Z" fill="#2A4F77"/>
<path d="M55.9568 173.711C64.9768 173.711 72.2889 166.399 72.2889 157.379C72.2889 148.359 64.9768 141.047 55.9568 141.047C46.9369 141.047 39.6248 148.359 39.6248 157.379C39.6248 166.399 46.9369 173.711 55.9568 173.711Z" fill="#FFB69E"/>
<path d="M77.0454 178.917C72.246 178.917 39.5386 178.917 34.7402 178.917C24.5091 178.917 16.0514 187.241 16 197.472V215.747H31.7608V197.551C31.7685 195.966 33.1556 194.677 34.7402 194.677H34.8954V215.746H76.635V194.677H77.0454C78.6299 194.677 80.0166 195.966 80.0247 197.55V215.746H95.7855V197.471C95.7341 187.241 87.2764 178.917 77.0454 178.917Z" fill="#FFB69E"/>
<path d="M77.0454 178.921H63.4827C58.4522 182.909 51.8487 182.754 47.2616 178.921H34.7402C24.5091 178.921 16.0514 187.245 16 197.476V208.946H31.7608V197.555C31.7685 195.97 33.1556 194.681 34.7402 194.681H34.8954V215.75H76.635V194.681H77.0454C78.6299 194.681 80.0166 195.97 80.0247 197.554V208.945H95.7855V197.475C95.7341 187.245 87.2764 178.921 77.0454 178.921Z" fill="#11BDCF"/>
<path d="M185.252 203.241C194.272 203.241 201.584 195.929 201.584 186.909C201.584 177.889 194.272 170.577 185.252 170.577C176.232 170.577 168.92 177.889 168.92 186.909C168.92 195.929 176.232 203.241 185.252 203.241Z" fill="#FFB69E"/>
<path d="M206.338 208.445C201.539 208.445 168.832 208.445 164.033 208.445C153.802 208.445 145.344 216.769 145.293 227V245.275H161.054V227.079C161.061 225.494 162.449 224.205 164.033 224.205H164.188V245.274H205.928V224.205H206.339C207.923 224.205 209.31 225.494 209.318 227.079V245.275H225.079V227C225.027 216.768 216.569 208.445 206.338 208.445Z" fill="#FFB69E"/>
<path d="M206.338 208.448H193.42C188.39 212.437 181.786 212.281 177.199 208.448H164.034C153.803 208.448 145.345 216.772 145.293 227.003V238.473H161.054V227.082C161.062 225.498 162.449 224.209 164.034 224.209H164.189V245.278H205.928V224.209H206.339C207.923 224.209 209.31 225.498 209.318 227.082V238.473H225.079V227.003C225.027 216.771 216.569 208.448 206.338 208.448Z" fill="#11BDCF"/>
<path d="M102.152 203.241C111.172 203.241 118.484 195.929 118.484 186.909C118.484 177.889 111.172 170.577 102.152 170.577C93.1322 170.577 85.8201 177.889 85.8201 186.909C85.8201 195.929 93.1322 203.241 102.152 203.241Z" fill="#BA6746"/>
<path d="M123.238 208.445C118.439 208.445 85.7315 208.445 80.933 208.445C70.702 208.445 62.2443 216.769 62.1929 227V245.275H77.9537V227.079C77.9613 225.494 79.3485 224.205 80.933 224.205H81.0882V245.274H122.828V224.205H123.239C124.823 224.205 126.21 225.494 126.218 227.079V245.275H141.978V227C141.927 216.768 133.47 208.445 123.238 208.445Z" fill="#BA6746"/>
<path d="M123.238 208.448H109.676C104.646 212.437 98.042 212.281 93.455 208.448H80.933C70.702 208.448 62.2443 216.772 62.1929 227.003V238.473H77.9537V227.082C77.9613 225.498 79.3485 224.209 80.933 224.209H81.0882V245.278H122.828V224.209H123.239C124.823 224.209 126.21 225.498 126.218 227.082V238.473H141.979V227.003C141.926 216.771 133.47 208.448 123.238 208.448Z" fill="#FE747D"/>
</g>
<defs>
<clipPath id="clip0">
<rect width="246" height="246" fill="white" transform="translate(16)"/>
</clipPath>
</defs>
</svg>
