<svg width="20" height="20" viewBox="0 0 20 20" fill="none" xmlns="http://www.w3.org/2000/svg">
<path fill-rule="evenodd" clip-rule="evenodd" d="M12.5 2.50033C12.5 2.04009 12.8731 1.66699 13.3333 1.66699H17.5C17.9602 1.66699 18.3333 2.04009 18.3333 2.50033V6.66699C18.3333 7.12723 17.9602 7.50033 17.5 7.50033C17.0398 7.50033 16.6667 7.12723 16.6667 6.66699V3.33366H13.3333C12.8731 3.33366 12.5 2.96056 12.5 2.50033Z" fill="#2A4F77"/>
<path fill-rule="evenodd" clip-rule="evenodd" d="M18.0893 1.91107C18.4147 2.23651 18.4147 2.76414 18.0893 3.08958L3.92259 17.2562C3.59715 17.5817 3.06951 17.5817 2.74408 17.2562C2.41864 16.9308 2.41864 16.4032 2.74408 16.0777L16.9107 1.91107C17.2362 1.58563 17.7638 1.58563 18.0893 1.91107Z" fill="#2A4F77"/>
<path fill-rule="evenodd" clip-rule="evenodd" d="M17.5 12.5C17.9602 12.5 18.3333 12.8731 18.3333 13.3333V17.5C18.3333 17.9602 17.9602 18.3333 17.5 18.3333H13.3333C12.8731 18.3333 12.5 17.9602 12.5 17.5C12.5 17.0398 12.8731 16.6667 13.3333 16.6667H16.6667V13.3333C16.6667 12.8731 17.0398 12.5 17.5 12.5Z" fill="#2A4F77"/>
<path fill-rule="evenodd" clip-rule="evenodd" d="M11.9108 11.9111C12.2363 11.5856 12.7639 11.5856 13.0893 11.9111L18.0893 16.9111C18.4148 17.2365 18.4148 17.7641 18.0893 18.0896C17.7639 18.415 17.2363 18.415 16.9108 18.0896L11.9108 13.0896C11.5854 12.7641 11.5854 12.2365 11.9108 11.9111Z" fill="#2A4F77"/>
<path fill-rule="evenodd" clip-rule="evenodd" d="M2.74408 2.74408C3.06951 2.41864 3.59715 2.41864 3.92259 2.74408L8.08926 6.91074C8.41469 7.23618 8.41469 7.76382 8.08926 8.08926C7.76382 8.41469 7.23618 8.41469 6.91074 8.08926L2.74408 3.92259C2.41864 3.59715 2.41864 3.06951 2.74408 2.74408Z" fill="#2A4F77"/>
</svg>
