<svg width="20" height="20" viewBox="0 0 20 20" fill="none" xmlns="http://www.w3.org/2000/svg">
<path d="M2.92938 17.0715C1.53073 15.673 0.578197 13.8912 0.192243 11.9514C-0.19371 10.0115 0.00424988 8.00078 0.761089 6.17345C1.51793 4.34612 2.79965 2.78426 4.44417 1.68539C6.08869 0.586521 8.02213 0 10 0C11.9779 0 13.9113 0.586521 15.5558 1.68539C17.2003 2.78426 18.4821 4.34612 19.2389 6.17345C19.9957 8.00078 20.1937 10.0115 19.8078 11.9514C19.4218 13.8912 18.4693 15.673 17.0706 17.0715C15.1953 18.9466 12.6519 20 10 20C7.34805 20 4.80471 18.9466 2.92938 17.0715ZM8.99938 11.0015V15.0015H10.9994V9.0015H8.99938V11.0015ZM8.99938 5.00151V7.00151H10.9994V5.00151H8.99938Z" fill="#11BDCF"/>
</svg>
