<svg width="14" height="14" viewBox="0 0 14 14" fill="none" xmlns="http://www.w3.org/2000/svg">
<path fill-rule="evenodd" clip-rule="evenodd" d="M2.91699 6.99992C2.59483 6.99992 2.33366 7.26109 2.33366 7.58325V11.6666C2.33366 11.9888 2.59483 12.2499 2.91699 12.2499H11.0837C11.4058 12.2499 11.667 11.9888 11.667 11.6666V7.58325C11.667 7.26109 11.4058 6.99992 11.0837 6.99992H2.91699ZM1.16699 7.58325C1.16699 6.61675 1.95049 5.83325 2.91699 5.83325H11.0837C12.0502 5.83325 12.8337 6.61675 12.8337 7.58325V11.6666C12.8337 12.6331 12.0502 13.4166 11.0837 13.4166H2.91699C1.95049 13.4166 1.16699 12.6331 1.16699 11.6666V7.58325Z" fill="#F6515B"/>
<path fill-rule="evenodd" clip-rule="evenodd" d="M7 1.74992C6.38116 1.74992 5.78767 1.99575 5.35008 2.43334C4.9125 2.87092 4.66667 3.46441 4.66667 4.08325V6.41658C4.66667 6.73875 4.4055 6.99992 4.08333 6.99992C3.76117 6.99992 3.5 6.73875 3.5 6.41658V4.08325C3.5 3.15499 3.86875 2.26476 4.52513 1.60838C5.1815 0.952001 6.07174 0.583252 7 0.583252C7.92826 0.583252 8.8185 0.952001 9.47487 1.60838C10.1313 2.26476 10.5 3.15499 10.5 4.08325V6.41658C10.5 6.73875 10.2388 6.99992 9.91667 6.99992C9.5945 6.99992 9.33333 6.73875 9.33333 6.41658V4.08325C9.33333 3.46441 9.0875 2.87092 8.64992 2.43334C8.21233 1.99575 7.61884 1.74992 7 1.74992Z" fill="#F6515B"/>
</svg>
