<svg width="64" height="64" viewBox="0 0 64 64" fill="none" xmlns="http://www.w3.org/2000/svg">
<path d="M36.5745 45.2734H27.6619C26.1957 45.2734 25.0071 46.462 25.0071 47.9282V56.5801C25.0071 58.0463 26.1957 59.2349 27.6619 59.2349H36.5745C38.0407 59.2349 39.2293 58.0463 39.2293 56.5801V47.9282C39.2293 46.462 38.0407 45.2734 36.5745 45.2734Z" fill="#DBF5F8"/>
<path d="M60.4204 45.2734H51.5078C50.0416 45.2734 48.853 46.462 48.853 47.9282V56.5801C48.853 58.0463 50.0416 59.2349 51.5078 59.2349H60.4204C61.8866 59.2349 63.0752 58.0463 63.0752 56.5801V47.9282C63.0752 46.462 61.8866 45.2734 60.4204 45.2734Z" fill="#F1AA3E"/>
<path d="M12.7527 45.2734H3.84012C2.3739 45.2734 1.1853 46.462 1.1853 47.9282V56.5801C1.1853 58.0463 2.3739 59.2349 3.84012 59.2349H12.7527C14.2189 59.2349 15.4075 58.0463 15.4075 56.5801V47.9282C15.4075 46.462 14.2189 45.2734 12.7527 45.2734Z" fill="#F1AA3E"/>
<path d="M53.0963 37.9253H32.9244V22.7549H31.3363V37.9253H11.1644C10.2215 37.9253 9.31708 38.2999 8.65029 38.9667C7.98349 39.6335 7.60889 40.5378 7.60889 41.4808V44.6097H9.22074V41.5045C9.2207 40.9868 9.42472 40.4899 9.78857 40.1217C10.1524 39.7534 10.6468 39.5433 11.1644 39.5371H31.3363V45.2497H32.9244V39.5371H53.0963C53.614 39.5433 54.1083 39.7534 54.4722 40.1217C54.836 40.4899 55.04 40.9868 55.04 41.5045V44.6334H56.6282V41.5045C56.6313 41.0376 56.5424 40.5746 56.3666 40.142C56.1908 39.7095 55.9315 39.3158 55.6035 38.9834C55.2756 38.651 54.8853 38.3865 54.4552 38.205C54.025 38.0234 53.5632 37.9284 53.0963 37.9253Z" fill="#F1AA3E"/>
<path d="M7.25334 55.3244C7.15074 55.3265 7.04889 55.3065 6.95478 55.2655C6.86068 55.2246 6.77654 55.1638 6.70815 55.0873L4.14815 52.717C3.99761 52.5659 3.91309 52.3613 3.91309 52.1481C3.91309 51.9348 3.99761 51.7302 4.14815 51.5792C4.30208 51.4342 4.50557 51.3534 4.71704 51.3534C4.92851 51.3534 5.132 51.4342 5.28593 51.5792L7.27704 53.5466L11.3541 49.5881C11.4236 49.4947 11.5126 49.4176 11.6148 49.3619C11.717 49.3062 11.83 49.2733 11.9462 49.2655C12.0623 49.2577 12.1787 49.2751 12.2875 49.3166C12.3963 49.358 12.4947 49.4226 12.5762 49.5058C12.6576 49.5889 12.7201 49.6887 12.7592 49.7983C12.7984 49.9079 12.8134 50.0247 12.8031 50.1407C12.7929 50.2566 12.7576 50.369 12.6998 50.47C12.6419 50.571 12.5629 50.6583 12.4681 50.7258L7.82222 55.0873C7.75022 55.1657 7.66205 55.2274 7.56383 55.2684C7.46561 55.3093 7.35967 55.3284 7.25334 55.3244Z" fill="#08384D"/>
<path d="M54.9215 55.3249C54.8187 55.3287 54.7164 55.3094 54.622 55.2683C54.5276 55.2273 54.4437 55.1656 54.3764 55.0878L51.7927 52.7175C51.6477 52.5635 51.5669 52.3601 51.5669 52.1486C51.5669 51.9371 51.6477 51.7336 51.7927 51.5797C51.9437 51.4292 52.1483 51.3446 52.3615 51.3446C52.5748 51.3446 52.7794 51.4292 52.9304 51.5797V51.5797L54.9453 53.5471L59.0223 49.5886C59.1733 49.438 59.3779 49.3535 59.5912 49.3535C59.8044 49.3535 60.009 49.438 60.1601 49.5886C60.3051 49.7425 60.3858 49.946 60.3858 50.1575C60.3858 50.3689 60.3051 50.5724 60.1601 50.7264V50.7264L55.5378 55.2301C55.464 55.306 55.3755 55.3662 55.2777 55.407C55.1799 55.4477 55.0749 55.4682 54.969 55.4671L54.9215 55.3249Z" fill="#08384D"/>
<path d="M33.185 52.2905L34.9154 50.5838C35.0659 50.4328 35.1505 50.2282 35.1505 50.0149C35.1505 49.8017 35.0659 49.5971 34.9154 49.4461C34.7643 49.2955 34.5598 49.211 34.3465 49.211C34.1333 49.211 33.9287 49.2955 33.7776 49.4461L32.0473 51.129L30.3406 49.3987C30.273 49.3039 30.1857 49.2249 30.0847 49.167C29.9837 49.1092 29.8714 49.074 29.7554 49.0637C29.6395 49.0534 29.5227 49.0684 29.4131 49.1076C29.3035 49.1467 29.2037 49.2092 29.1205 49.2906C29.0373 49.3721 28.9728 49.4705 28.9313 49.5793C28.8898 49.6881 28.8724 49.8045 28.8802 49.9206C28.8881 50.0368 28.9209 50.1498 28.9766 50.252C29.0323 50.3542 29.1095 50.4432 29.2028 50.5127V50.5127L30.9095 52.2431L29.1554 53.9498C29.0148 54.1004 28.9372 54.2991 28.9385 54.5052C28.9399 54.7113 29.0202 54.909 29.1628 55.0577C29.3055 55.2064 29.4997 55.2948 29.7055 55.3048C29.9113 55.3147 30.1131 55.2455 30.2695 55.1112V55.1112L32.0236 53.4283L33.7302 55.1587C33.8012 55.2355 33.8874 55.2968 33.9833 55.3387C34.0791 55.3807 34.1826 55.4023 34.2873 55.4023C34.3919 55.4023 34.4954 55.3807 34.5913 55.3387C34.6871 55.2968 34.7733 55.2355 34.8443 55.1587C34.9877 55.0087 35.0678 54.8091 35.0678 54.6016C35.0678 54.3941 34.9877 54.1946 34.8443 54.0446L33.185 52.2905Z" fill="#FE747D"/>
<path d="M32.1187 23.0876C30.282 23.0829 28.4879 22.534 26.9629 21.5101C25.438 20.4863 24.2507 19.0334 23.5511 17.3352C22.8515 15.6369 22.6708 13.7694 23.032 11.9685C23.3932 10.1676 24.2801 8.51418 25.5805 7.21707C26.8809 5.91995 28.5366 5.03734 30.3384 4.68072C32.1402 4.32411 34.0072 4.5095 35.7037 5.21347C37.4002 5.91744 38.85 7.10841 39.87 8.63593C40.8899 10.1634 41.4343 11.959 41.4343 13.7957C41.4374 15.0188 41.1985 16.2305 40.7311 17.3608C40.2638 18.4911 39.5774 19.5177 38.7114 20.3815C37.8454 21.2452 36.817 21.9291 35.6856 22.3935C34.5541 22.858 33.3418 23.0938 32.1187 23.0876V23.0876Z" fill="#FE747D"/>
</svg>
