<svg width="32" height="32" viewBox="0 0 32 32" fill="none" xmlns="http://www.w3.org/2000/svg">
<path d="M15.9999 0C11.2159 0.005875 7.33913 3.88263 7.33325 8.66669V14C7.33325 14.3682 7.63175 14.6667 7.99994 14.6667H10.6666C11.0348 14.6667 11.3333 14.3682 11.3333 14V8.66669C11.3333 6.08931 13.4226 4 15.9999 4C18.5773 4 20.6666 6.08931 20.6666 8.66669V14C20.6666 14.3682 20.9651 14.6667 21.3333 14.6667H23.9999C24.3681 14.6667 24.6666 14.3682 24.6666 14V8.66669C24.6608 3.88263 20.7839 0.005875 15.9999 0Z" fill="#455A64"/>
<path d="M8.00006 13.3335H24.0001C25.841 13.3335 27.3334 14.8259 27.3334 16.6668V28.6668C27.3334 30.5078 25.841 32.0002 24.0001 32.0002H8.00006C6.15912 32.0002 4.66675 30.5078 4.66675 28.6669V16.6669C4.66675 14.8259 6.15912 13.3335 8.00006 13.3335Z" fill="#FFC107"/>
<path d="M19.3334 20.6667C19.3412 18.8258 17.8551 17.3271 16.0142 17.3194C14.1732 17.3116 12.6745 18.7977 12.6668 20.6386C12.6614 21.9111 13.381 23.0756 14.5214 23.6401L14.0067 27.2401C13.9552 27.6046 14.2089 27.9419 14.5735 27.9935C14.6043 27.9979 14.6355 28.0001 14.6667 28.0001H17.3334C17.7016 28.0038 18.0031 27.7084 18.0068 27.3402C18.0071 27.3062 18.0049 27.2723 18 27.2387L17.4853 23.6387C18.6118 23.075 19.3261 21.9263 19.3334 20.6667Z" fill="#455A64"/>
</svg>
