<svg width="64" height="64" viewBox="0 0 64 64" fill="none" xmlns="http://www.w3.org/2000/svg">
<path d="M25.8138 29.7009C25.8044 32.1273 25.0763 34.4966 23.7215 36.5095C22.3666 38.5225 20.4457 40.0889 18.2013 41.0109C15.9569 41.933 13.4896 42.1694 11.1109 41.6903C8.73225 41.2112 6.54887 40.038 4.83642 38.319C3.12398 36.5999 1.95926 34.412 1.48933 32.0316C1.01939 29.6511 1.26529 27.1847 2.196 24.9438C3.12671 22.703 4.70049 20.7882 6.71864 19.4411C8.73679 18.094 11.1088 17.375 13.5353 17.375C15.1508 17.3781 16.7499 17.6994 18.2413 18.3205C19.7327 18.9416 21.0872 19.8504 22.2273 20.995C23.3675 22.1396 24.271 23.4975 24.8864 24.9913C25.5018 26.485 25.8169 28.0854 25.8138 29.7009V29.7009Z" fill="#F7B73B"/>
<path d="M25.8129 29.7012C25.8129 32.9576 24.5193 36.0807 22.2166 38.3834C19.9139 40.6861 16.7908 41.9797 13.5344 41.9797C10.2779 41.9797 7.15482 40.6861 4.85215 38.3834C2.54949 36.0807 1.25586 32.9576 1.25586 29.7012H25.8129Z" fill="#F2AB3E"/>
<path d="M62.7438 29.6768C62.7399 30.0439 62.66 30.4061 62.509 30.7406C62.3581 31.0752 62.1394 31.3748 61.8668 31.6205L55.7986 37.025C55.6254 37.1876 55.421 37.3132 55.1978 37.3944C54.9746 37.4756 54.7372 37.5106 54.5 37.4973C54.2629 37.484 54.0309 37.4227 53.8181 37.3171C53.6054 37.2114 53.4163 37.0637 53.2623 36.8828C53.1028 36.708 52.9798 36.5032 52.9005 36.2803C52.8212 36.0574 52.7872 35.8209 52.8004 35.5847C52.8136 35.3485 52.8739 35.1173 52.9776 34.9047C53.0814 34.6921 53.2265 34.5023 53.4046 34.3465L56.652 31.4546H16.3557C15.8779 31.4546 15.4197 31.2648 15.0818 30.927C14.744 30.5891 14.5542 30.1309 14.5542 29.6531C14.5542 29.1754 14.744 28.7171 15.0818 28.3793C15.4197 28.0415 15.8779 27.8517 16.3557 27.8517H56.652L53.4046 24.9361C53.2265 24.7803 53.0814 24.5905 52.9776 24.3779C52.8739 24.1653 52.8136 23.9341 52.8004 23.6978C52.7872 23.4616 52.8212 23.2251 52.9005 23.0023C52.9798 22.7794 53.1028 22.5745 53.2623 22.3998C53.5806 22.0458 54.0259 21.8322 54.5012 21.8056C54.9764 21.7789 55.4428 21.9414 55.7986 22.2576L61.8668 27.662C62.1471 27.9168 62.3703 28.228 62.5214 28.5754C62.6726 28.9227 62.7484 29.2981 62.7438 29.6768V29.6768Z" fill="#FE747D"/>
<path d="M58.8084 13.3682H39.1581C38.7129 13.4191 38.302 13.6321 38.0037 13.9665C37.7054 14.3009 37.5405 14.7334 37.5405 15.1815C37.5405 15.6296 37.7054 16.0621 38.0037 16.3965C38.302 16.7309 38.7129 16.9438 39.1581 16.9948H58.8084C59.2536 16.9438 59.6645 16.7309 59.9628 16.3965C60.2611 16.0621 60.4259 15.6296 60.4259 15.1815C60.4259 14.7334 60.2611 14.3009 59.9628 13.9665C59.6645 13.6321 59.2536 13.4191 58.8084 13.3682V13.3682Z" fill="#11BDCF"/>
<path d="M26.0744 10.975H41.2685C41.7463 10.975 42.2045 10.7852 42.5423 10.4474C42.8802 10.1095 43.07 9.65133 43.07 9.17355C43.07 8.69577 42.8802 8.23756 42.5423 7.89971C42.2045 7.56187 41.7463 7.37207 41.2685 7.37207H26.0744C25.5966 7.37207 25.1384 7.56187 24.8006 7.89971C24.4627 8.23756 24.2729 8.69577 24.2729 9.17355C24.2729 9.65133 24.4627 10.1095 24.8006 10.4474C25.1384 10.7852 25.5966 10.975 26.0744 10.975Z" fill="#11BDCF"/>
<path d="M47.4079 10.975H50.205C50.6827 10.975 51.141 10.7852 51.4788 10.4474C51.8166 10.1095 52.0064 9.65133 52.0064 9.17355C52.0064 8.69577 51.8166 8.23756 51.4788 7.89971C51.141 7.56187 50.6827 7.37207 50.205 7.37207H47.4079C46.9301 7.37207 46.4719 7.56187 46.1341 7.89971C45.7962 8.23756 45.6064 8.69577 45.6064 9.17355C45.6064 9.65133 45.7962 10.1095 46.1341 10.4474C46.4719 10.7852 46.9301 10.975 47.4079 10.975Z" fill="#11BDCF"/>
<path d="M31.5968 18.655C31.5968 18.1772 31.407 17.719 31.0691 17.3812C30.7313 17.0433 30.2731 16.8535 29.7953 16.8535H26.9983C26.5205 16.8535 26.0623 17.0433 25.7244 17.3812C25.3866 17.719 25.1968 18.1772 25.1968 18.655C25.1968 19.1328 25.3866 19.591 25.7244 19.9288C26.0623 20.2667 26.5205 20.4565 26.9983 20.4565H29.7953C30.2731 20.4565 30.7313 20.2667 31.0691 19.9288C31.407 19.591 31.5968 19.1328 31.5968 18.655V18.655Z" fill="#11BDCF"/>
<path d="M29.3928 38.4711H32.2135C32.6913 38.4711 33.1495 38.2813 33.4874 37.9435C33.8252 37.6056 34.015 37.1474 34.015 36.6696C34.015 36.1919 33.8252 35.7336 33.4874 35.3958C33.1495 35.058 32.6913 34.8682 32.2135 34.8682H29.3928C28.915 34.8682 28.4568 35.058 28.1189 35.3958C27.7811 35.7336 27.5913 36.1919 27.5913 36.6696C27.5913 37.1474 27.7811 37.6056 28.1189 37.9435C28.4568 38.2813 28.915 38.4711 29.3928 38.4711Z" fill="#11BDCF"/>
<path d="M22.6846 49.541H12.6579C12.1801 49.541 11.7219 49.7308 11.3841 50.0687C11.0462 50.4065 10.8564 50.8647 10.8564 51.3425C10.8564 51.8203 11.0462 52.2785 11.3841 52.6163C11.7219 52.9542 12.1801 53.144 12.6579 53.144H22.6846C23.1624 53.144 23.6206 52.9542 23.9584 52.6163C24.2963 52.2785 24.4861 51.8203 24.4861 51.3425C24.4861 50.8647 24.2963 50.4065 23.9584 50.0687C23.6206 49.7308 23.1624 49.541 22.6846 49.541V49.541Z" fill="#11BDCF"/>
<path d="M31.455 49.541H28.6579C28.1801 49.541 27.7219 49.7308 27.3841 50.0687C27.0462 50.4065 26.8564 50.8647 26.8564 51.3425C26.8564 51.8203 27.0462 52.2785 27.3841 52.6163C27.7219 52.9542 28.1801 53.144 28.6579 53.144H31.455C31.9327 53.144 32.391 52.9542 32.7288 52.6163C33.0666 52.2785 33.2564 51.8203 33.2564 51.3425C33.2564 50.8647 33.0666 50.4065 32.7288 50.0687C32.391 49.7308 31.9327 49.541 31.455 49.541V49.541Z" fill="#11BDCF"/>
<path d="M45.2982 43.5439H21.5944C21.1167 43.5439 20.6585 43.7337 20.3206 44.0716C19.9828 44.4094 19.793 44.8676 19.793 45.3454C19.793 45.8232 19.9828 46.2814 20.3206 46.6193C20.6585 46.9571 21.1167 47.1469 21.5944 47.1469H45.2982C45.7759 47.1469 46.2342 46.9571 46.572 46.6193C46.9098 46.2814 47.0996 45.8232 47.0996 45.3454C47.0996 44.8676 46.9098 44.4094 46.572 44.0716C46.2342 43.7337 45.7759 43.5439 45.2982 43.5439V43.5439Z" fill="#11BDCF"/>
<path d="M44.4684 53.0254H41.6477C41.1699 53.0254 40.7117 53.2152 40.3738 53.553C40.036 53.8909 39.8462 54.3491 39.8462 54.8269C39.8462 55.3047 40.036 55.7629 40.3738 56.1007C40.7117 56.4386 41.1699 56.6283 41.6477 56.6283H44.4684C44.9462 56.6283 45.4044 56.4386 45.7423 56.1007C46.0801 55.7629 46.2699 55.3047 46.2699 54.8269C46.2699 54.3491 46.0801 53.8909 45.7423 53.553C45.4044 53.2152 44.9462 53.0254 44.4684 53.0254V53.0254Z" fill="#11BDCF"/>
<path d="M62.7438 29.7005C62.7399 30.0675 62.66 30.4297 62.509 30.7642C62.3581 31.0988 62.1394 31.3984 61.8668 31.6442L55.7986 37.0486C55.6254 37.2112 55.421 37.3369 55.1978 37.4181C54.9746 37.4992 54.7372 37.5343 54.5 37.521C54.2629 37.5077 54.0309 37.4463 53.8181 37.3407C53.6054 37.235 53.4163 37.0873 53.2623 36.9064C53.1029 36.7316 52.9798 36.5268 52.9005 36.3039C52.8212 36.081 52.7872 35.8446 52.8004 35.6083C52.8136 35.3721 52.8739 35.1409 52.9777 34.9283C53.0814 34.7157 53.2265 34.5259 53.4046 34.3701L56.652 31.4782H16.3557C15.8779 31.4782 15.4197 31.2884 15.0818 30.9506C14.744 30.6128 14.5542 30.1545 14.5542 29.6768L62.7438 29.7005Z" fill="#FF4412"/>
</svg>
