<svg width="256" height="256" viewBox="0 0 256 256" fill="none" xmlns="http://www.w3.org/2000/svg">
<g clip-path="url(#clip0)">
<path d="M217.125 179.755C211.021 170.645 202.667 158.171 202.667 122.666V106.666C202.667 72.91 180.133 44.351 149.333 35.1445V31.9995C149.333 20.234 139.76 10.666 127.999 10.666C116.239 10.666 106.666 20.234 106.666 31.9995V35.1445C75.867 44.351 53.333 72.91 53.333 106.666V122.666C53.333 158.171 44.979 170.645 38.8745 179.755C35.344 185.031 32 190.015 32 197.333C32 214.721 68.2475 220.822 97.6355 222.924C101.756 236.115 113.851 245.333 128 245.333C142.149 245.333 154.244 236.115 158.365 222.924C187.753 220.822 224 214.72 224 197.333C224 190.015 220.657 185.031 217.125 179.755ZM138.667 32.8515C135.173 32.3485 131.631 31.9995 128 31.9995C124.369 31.9995 120.827 32.3485 117.334 32.8515V31.9995C117.334 26.1195 122.115 21.333 128 21.333C133.885 21.333 138.667 26.1195 138.667 31.9995V32.8515V32.8515Z" fill="#2A4F77"/>
<path d="M128 213.333C79.156 213.333 42.6665 204.885 42.6665 197.333C42.6665 193.432 44.3125 190.802 47.7395 185.693C54.2085 176.026 64 161.416 64 122.666V106.666C64 71.3745 92.7085 42.666 128 42.666C163.292 42.666 192 71.3745 192 106.666V122.666C192 161.416 201.791 176.026 208.26 185.692C211.687 190.802 213.333 193.432 213.333 197.333C213.333 204.885 176.844 213.333 128 213.333Z" fill="#F2AB3E"/>
<path opacity="0.2" d="M64 106.666V122.666C64 161.416 54.2085 176.026 47.7395 185.692C44.3125 190.802 42.6665 193.432 42.6665 197.333C42.6665 201.712 54.985 206.38 74.8145 209.54C75.135 206.396 76.104 203.623 77.8375 199.101C81.88 188.528 88 172.549 88 130.166V112.666C88 74.0655 105.942 42.666 128 42.666C92.7085 42.666 64 71.3745 64 106.666Z" fill="white"/>
<path opacity="0.1" d="M208.26 185.692C201.791 176.026 192 161.416 192 122.666V106.666C192 71.3745 163.292 42.666 128 42.666C150.058 42.666 168 74.0655 168 112.666V130.166C168 172.549 174.12 188.528 178.163 199.101C179.896 203.623 180.866 206.396 181.186 209.54C201.016 206.38 213.334 201.711 213.334 197.333C213.333 193.432 211.687 190.801 208.26 185.692Z" fill="#2A4F77"/>
<path d="M254.438 246.896L9.10418 1.56262C7.02068 -0.520875 3.64568 -0.520875 1.56268 1.56262C-0.520318 3.64612 -0.520818 7.02113 1.56268 9.10413L246.896 254.438C247.938 255.479 249.303 256 250.667 256C252.032 256 253.396 255.479 254.438 254.438C256.521 252.354 256.521 248.979 254.438 246.896Z" fill="#2A4F77"/>
<path d="M128 234.666C120.028 234.666 113.026 230.267 109.389 223.593C116.946 223.912 123.509 224 128 224C132.491 224 139.053 223.912 146.611 223.593C142.974 230.267 135.972 234.666 128 234.666Z" fill="#F2AB3E"/>
<path opacity="0.1" d="M128 234.666C120.028 234.666 113.026 230.267 109.389 223.593C116.946 223.912 123.509 224 128 224C132.491 224 139.053 223.912 146.611 223.593C142.974 230.267 135.972 234.666 128 234.666Z" fill="#2A4F77"/>
</g>
<defs>
<clipPath id="clip0">
<rect width="256" height="256" fill="white"/>
</clipPath>
</defs>
</svg>
