<svg width="96" height="96" viewBox="0 0 96 96" fill="none" xmlns="http://www.w3.org/2000/svg">
<path d="M32.2021 20.952C36.6061 15.75 42.2941 12.618 48.5101 12.618C62.4841 12.618 73.8121 28.458 73.8121 48C73.8121 67.542 62.4841 83.388 48.5101 83.388C42.2941 83.388 36.6061 80.25 32.2021 75.054C39.0901 83.994 49.3262 89.664 60.7562 89.664C67.7882 89.664 74.3641 87.516 79.9921 83.784C89.8141 74.994 96.0001 62.22 96.0001 48C96.0001 33.78 89.8141 21.006 79.9921 12.222C74.3641 8.48998 67.7882 6.34198 60.7562 6.34198C49.3262 6.33598 39.0841 12.012 32.2021 20.952Z" fill="#D32F2F"/>
<path d="M48 0C21.492 0 0 21.492 0 48C0 73.74 20.268 94.752 45.714 95.946C46.47 95.982 47.232 96 48 96C60.288 96 71.496 91.38 79.986 83.784C74.358 87.516 67.782 89.664 60.75 89.664C49.32 89.664 39.084 83.994 32.196 75.054C26.886 68.79 23.448 59.532 23.22 49.134C23.22 49.11 23.22 46.902 23.22 46.872C23.454 36.48 26.892 27.216 32.196 20.952C39.084 12.012 49.32 6.342 60.75 6.342C67.782 6.342 74.358 8.49 79.986 12.222C71.544 4.662 60.402 0.048 48.18 0C48.12 0 48.06 0 48 0Z" fill="#F44336"/>
</svg>
