<svg width="64" height="64" viewBox="0 0 64 64" fill="none" xmlns="http://www.w3.org/2000/svg">
<path d="M32.3367 35.3704L22.1091 32.5811H12.8L2.57237 35.3704C1.05362 35.7847 0 37.1642 0 38.7383V61.6719C0 62.3145 0.520999 62.8355 1.16362 62.8355H34.9091V38.7383C34.9091 37.1642 33.8554 35.7847 32.3367 35.3704Z" fill="#2A4F77"/>
<path d="M23.2725 27.9277H11.6362V37.2365H23.2725V27.9277Z" fill="#FAD098"/>
<path d="M11.6367 31.173C13.3843 32.0695 15.3596 32.5822 17.4548 32.5822C19.5501 32.5822 21.5254 32.0695 23.2729 31.173V27.9277H11.6367V31.173Z" fill="#D7AF7D"/>
<path d="M27.9274 15.1272V8.14551H6.98203V15.1274C5.69678 15.1274 4.65479 16.1692 4.65479 17.4546C4.65479 18.7399 5.69678 19.7819 6.98203 19.7819C6.98203 25.5658 11.6708 30.2546 17.4548 30.2546C23.2388 30.2546 27.9275 25.5658 27.9275 19.7819C29.2127 19.7819 30.2547 18.7399 30.2547 17.4546C30.2546 16.1691 29.2127 15.1272 27.9274 15.1272Z" fill="#FFE1B4"/>
<path d="M12.8001 19.7819V8.14551H6.98203V15.1274C5.69678 15.1274 4.65479 16.1692 4.65479 17.4546C4.65479 18.7399 5.69678 19.7819 6.98203 19.7819C6.98203 25.5658 11.6708 30.2546 17.4548 30.2546C18.4654 30.2546 19.4393 30.1037 20.3639 29.8366C15.9968 28.5747 12.8001 24.5551 12.8001 19.7819Z" fill="#FAD098"/>
<path d="M17.4543 25.5997C16.2224 25.5997 15.0452 25.0184 14.2237 24.0053C13.818 23.5059 13.8953 22.7734 14.3942 22.3684C14.8953 21.9644 15.6272 22.0417 16.0305 22.5394C16.7987 23.4849 18.11 23.4849 18.8783 22.5394C19.2828 22.0417 20.0147 21.9644 20.5146 22.3684C21.0135 22.7735 21.0908 23.5059 20.6851 24.0053C19.8634 25.0184 18.6862 25.5997 17.4543 25.5997Z" fill="#D7AF7D"/>
<path d="M12.8003 19.7819C12.1572 19.7819 11.6367 19.2609 11.6367 18.6183V17.4546C11.6367 16.812 12.1572 16.291 12.8003 16.291C13.4435 16.291 13.964 16.812 13.964 17.4546V18.6183C13.964 19.2608 13.4435 19.7819 12.8003 19.7819Z" fill="#64463C"/>
<path d="M22.1094 19.7819C21.4663 19.7819 20.9458 19.2609 20.9458 18.6183V17.4546C20.9458 16.812 21.4663 16.291 22.1094 16.291C22.7525 16.291 23.273 16.812 23.273 17.4546V18.6183C23.273 19.2608 22.7525 19.7819 22.1094 19.7819Z" fill="#64463C"/>
<path d="M25.2877 14.0202C25.6274 14.92 26.5894 15.3278 27.5369 15.1617C27.6637 15.1394 27.7941 15.1278 27.9274 15.1278C28.3536 15.1278 28.7476 15.2507 29.0911 15.4505V8.14592C29.0911 6.40493 28.1241 4.90518 26.7086 4.10693C26.4441 2.44106 25.0132 1.16406 23.273 1.16406H13.9638C9.46523 1.16406 5.81836 4.81093 5.81836 9.30955V15.4505C6.16186 15.2507 6.55598 15.1278 6.98198 15.1278C7.13161 15.1278 7.27748 15.1423 7.41848 15.1702C8.55185 15.3933 9.6866 14.7669 9.97023 13.6473L10.3174 10.651C10.397 9.96355 11.053 9.49105 11.7266 9.6498C13.8655 10.1537 18.4537 10.9125 23.2315 9.6668C23.8847 9.49642 24.5409 9.93692 24.6519 10.6028L25.1139 13.3745C25.1513 13.5987 25.2101 13.8145 25.2877 14.0202Z" fill="#353535"/>
<path d="M0 38.7391V61.6728C0 62.3154 0.520999 62.8364 1.16362 62.8364H6.98174V46.2146C6.98174 44.9207 6.55049 43.6638 5.75611 42.6426L0.907373 36.4082C0.343249 37.0338 0 37.8518 0 38.7391Z" fill="#08384D"/>
<path d="M34.9091 38.7391V62.8364H27.9272V46.2146C27.9272 44.9207 28.3585 43.6638 29.1529 42.6426L34.0017 36.4082C34.5659 37.0338 34.9091 37.8518 34.9091 38.7391Z" fill="#08384D"/>
<path d="M13.9638 1.16406C9.46523 1.16406 5.81836 4.81081 5.81836 9.30955V15.4505C6.16186 15.2507 6.55598 15.1278 6.98198 15.1278C7.13161 15.1278 7.27748 15.1423 7.41848 15.1702C8.55185 15.3933 9.6866 14.7669 9.97035 13.6472L10.3175 10.6509C10.3971 9.96342 11.0531 9.49092 11.7267 9.64967C12.0327 9.7218 12.4006 9.7983 12.8002 9.87405V8.14592C12.8002 4.28993 15.9261 1.16406 19.7821 1.16406C19.7821 1.16406 13.9638 1.16406 13.9638 1.16406Z" fill="black"/>
<path d="M13.975 48.8722C13.3319 48.8722 12.8057 48.3512 12.8057 47.7085C12.8057 47.0659 13.3204 46.5449 13.9637 46.5449H13.975C14.6182 46.5449 15.1387 47.0659 15.1387 47.7085C15.1387 48.3512 14.6182 48.8722 13.975 48.8722Z" fill="#959595"/>
<path d="M13.975 58.1817C13.3319 58.1817 12.8057 57.6607 12.8057 57.0181C12.8057 56.3755 13.3204 55.8545 13.9637 55.8545H13.975C14.6182 55.8545 15.1387 56.3755 15.1387 57.0181C15.1387 57.6606 14.6182 58.1817 13.975 58.1817Z" fill="#959595"/>
<path d="M13.975 53.5265C13.3319 53.5265 12.8057 53.0055 12.8057 52.3628C12.8057 51.7202 13.3204 51.1992 13.9637 51.1992H13.975C14.6182 51.1992 15.1387 51.7202 15.1387 52.3628C15.1387 53.0055 14.6182 53.5265 13.975 53.5265Z" fill="#959595"/>
<path d="M18.6183 37.2363H16.291V62.8363H18.6183V37.2363Z" fill="#08384D"/>
<path d="M53.2739 7.10505C53.4225 6.69393 53.5273 6.26805 53.5273 5.81855C53.5273 3.24793 50.9224 1.16406 47.7092 1.16406C44.4959 1.16406 41.891 3.24793 41.891 5.81855C41.891 6.26805 41.9959 6.69393 42.1444 7.10505C37.8667 9.1768 34.9092 13.5465 34.9092 18.6185C34.9092 24.4024 39.5979 29.0913 45.3819 29.0913H50.0365C55.8204 29.0913 60.5093 24.4025 60.5093 18.6185C60.5091 13.5465 57.5516 9.1768 53.2739 7.10505Z" fill="#353535"/>
<path d="M43.0545 13.9637C43.0545 10.0081 45.8749 6.71372 49.6138 5.97535C48.9906 5.88223 48.3582 5.81835 47.7092 5.81835C47.0055 5.81835 46.3202 5.8901 45.6474 5.99935C45.4804 5.57398 45.3819 5.12498 45.3819 4.65473C45.3819 3.27323 46.1489 2.04573 47.3438 1.19336C44.304 1.34698 41.8909 3.34786 41.8909 5.81848C41.8909 6.2681 41.9963 6.6936 42.1453 7.10447C37.867 9.17609 34.9092 13.5462 34.9092 18.6185C34.9092 24.4023 39.5979 29.0912 45.3819 29.0912H47.7092V22.1093L43.0547 17.4548V13.9637H43.0545Z" fill="black"/>
<path d="M61.8052 43.34L53.8262 40.1484C52.9427 39.795 52.3633 38.9392 52.3633 37.9876V33.7451H43.0542V37.9876C43.0542 38.9392 42.4748 39.795 41.5913 40.1484L33.6123 43.34C32.287 43.8701 31.418 45.1537 31.418 46.5812V51.1996C31.418 51.8422 31.939 52.3632 32.5816 52.3632V61.6723C32.5816 62.3149 33.1026 62.8359 33.7452 62.8359H61.6724C62.315 62.8359 62.836 62.3149 62.836 61.6723V52.3632C63.4787 52.3632 63.9997 51.8422 63.9997 51.1996V46.5812C63.9995 45.1537 63.1305 43.8701 61.8052 43.34Z" fill="#E6AF78"/>
<path d="M32.582 51.2002V54.6911H33.7457C34.3883 54.6911 34.9093 55.2121 34.9093 55.8547V62.8366H38.4001V51.2002H32.582Z" fill="#D29B6E"/>
<path d="M62.8362 51.2002V54.6911H61.6726C61.0299 54.6911 60.5089 55.2121 60.5089 55.8547V62.8366H57.0181V51.2002H62.8362Z" fill="#D29B6E"/>
<path d="M61.8053 43.3395L55.1924 40.6943C54.0898 42.431 51.6006 45.7623 47.7088 47.7082C43.8171 45.7623 41.3278 42.431 40.2252 40.6943L33.6123 43.3395C32.287 43.8696 31.418 45.1532 31.418 46.5807V51.1991C31.418 51.8417 31.939 52.3627 32.5816 52.3627H37.2361V62.8354H58.1815V52.3627H62.836C63.4787 52.3627 63.9997 51.8417 63.9997 51.1991V46.5807C63.9997 45.1532 63.1307 43.8696 61.8053 43.3395Z" fill="#F7B73B"/>
<path d="M43.0543 37.5116C44.4991 38.0783 46.0656 38.4006 47.7088 38.4006C49.3521 38.4006 50.9186 38.0783 52.3633 37.5116V33.7461H43.0542V37.5116H43.0543Z" fill="#D29B6E"/>
<path d="M58.1819 25.6C58.1819 17.8959 49.8541 20.6013 44.0289 16.9787C43.4985 16.6489 42.7923 16.7915 42.4472 17.3121C41.5483 18.6682 39.7088 20.8992 37.3109 20.9446C35.9992 20.9695 34.9092 21.9422 34.9092 23.2542V23.2726C34.9092 24.558 35.9512 25.5998 37.2364 25.5998C37.2364 26.3998 37.3262 27.1788 37.4959 27.9273C38.5543 32.5911 42.725 36.0726 47.709 36.0726C52.693 36.0726 56.8638 32.5911 57.9221 27.9273C58.0921 27.179 58.1819 26.4 58.1819 25.6Z" fill="#F0C087"/>
<path d="M43.0547 25.6001V16.874C42.8158 16.9508 42.5954 17.0888 42.4472 17.3123C41.5483 18.6684 39.7088 20.8994 37.3109 20.9449C35.9992 20.9698 34.9092 21.9425 34.9092 23.2544V23.2729C34.9092 24.5581 35.9512 25.6001 37.2364 25.6001C37.2364 26.4 37.3262 27.179 37.4961 27.9276C38.5543 32.5914 42.7252 36.0729 47.7092 36.0729C48.7205 36.0729 49.6955 35.923 50.6208 35.6555C46.2525 34.3946 43.0547 30.3744 43.0547 25.6001Z" fill="#E6AF78"/>
<path d="M47.7091 31.4184C46.4773 31.4184 45.3 30.8372 44.4785 29.8241C44.0729 29.3247 44.1502 28.5922 44.649 28.1872C45.1502 27.7827 45.882 27.8599 46.2854 28.3582C47.0535 29.3037 48.3649 29.3037 49.1331 28.3582C49.5365 27.8599 50.2695 27.7826 50.7695 28.1872C51.2684 28.5923 51.3456 29.3247 50.94 29.8241C50.1181 30.8372 48.9409 31.4184 47.7091 31.4184Z" fill="#D29B6E"/>
<path d="M52.3633 25.6002C51.7202 25.6002 51.1997 25.0792 51.1997 24.4366V23.273C51.1997 22.6304 51.7202 22.1094 52.3633 22.1094C53.0065 22.1094 53.527 22.6304 53.527 23.273V24.4366C53.527 25.0792 53.0066 25.6002 52.3633 25.6002Z" fill="#64463C"/>
<path d="M43.0542 25.6002C42.4111 25.6002 41.8906 25.0792 41.8906 24.4366V23.273C41.8906 22.6304 42.4111 22.1094 43.0542 22.1094C43.6974 22.1094 44.2179 22.6304 44.2179 23.273V24.4366C44.2179 25.0792 43.6975 25.6002 43.0542 25.6002Z" fill="#64463C"/>
<path d="M37.2361 50.9998C37.2361 50.3826 36.9908 49.7907 36.5544 49.3542L31.9473 44.7471C31.6126 45.2876 31.418 45.9168 31.418 46.5811V51.1994C31.418 51.8421 31.939 52.3631 32.5816 52.3631H37.2361V50.9998Z" fill="#F2AB3E"/>
<path d="M58.1816 50.9998C58.1816 50.3826 58.4269 49.7907 58.8633 49.3542L63.4704 44.7471C63.8052 45.2876 63.9998 45.9168 63.9998 46.5811V51.1994C63.9998 51.8421 63.4788 52.3631 62.8362 52.3631H58.1816V50.9998Z" fill="#F2AB3E"/>
<path d="M11.4675 32.2474L17.4544 37.2365L13.7022 40.0507C13.1995 40.4279 12.488 40.3375 12.0953 39.8467L8.67683 35.5736C8.36033 35.1779 8.33621 34.6229 8.61733 34.2013L9.75433 32.4958C10.1381 31.9203 10.9361 31.8045 11.4675 32.2474Z" fill="#353535"/>
<path d="M23.4416 32.2474L17.4546 37.2365L21.2068 40.0507C21.7096 40.4279 22.4211 40.3375 22.8137 39.8467L26.2322 35.5736C26.5487 35.1779 26.5728 34.6229 26.2917 34.2013L25.1547 32.4958C24.7711 31.9203 23.973 31.8045 23.4416 32.2474Z" fill="#353535"/>
</svg>
