<svg width="16" height="16" viewBox="0 0 16 16" fill="none" xmlns="http://www.w3.org/2000/svg">
<g clip-path="url(#clip0)">
<path d="M12.8592 16C12.1935 16 11.3895 15.8331 10.5053 15.4995C8.56684 14.7687 6.4578 13.3243 4.56671 11.4332C2.67508 9.54154 1.23066 7.43195 0.499304 5.4935C-0.165322 3.73103 -0.166937 2.28446 0.495537 1.62253C0.590791 1.52727 0.687659 1.42502 0.787757 1.31954C1.39211 0.683978 2.07503 -0.0312349 2.98022 0.00105458C3.60394 0.0268862 4.20829 0.414361 4.82718 1.18447C6.65584 3.45872 5.83138 4.26919 4.87723 5.20882L4.70878 5.37565C4.55272 5.53171 4.25781 6.25446 7.00134 8.99799C7.89684 9.89349 8.66048 10.549 9.27075 10.9456C9.655 11.1953 10.3422 11.5731 10.6242 11.2911L10.7937 11.12C11.7323 10.168 12.5428 9.34618 14.8154 11.1732C15.5855 11.7921 15.9724 12.3959 15.9983 13.0207C16.0354 13.9254 15.3148 14.6099 14.6787 15.2137C14.5738 15.3138 14.4715 15.4107 14.3763 15.5054C14.0475 15.8348 13.5217 16 12.8592 16ZM2.91564 0.538137C2.27254 0.538137 1.69186 1.14949 1.17792 1.69034C1.0746 1.79904 0.974498 1.90452 0.876015 2.00301C0.382523 2.49596 0.432572 3.79131 1.00302 5.30407C1.70801 7.17256 3.10884 9.21433 4.94772 11.0532C6.78608 12.891 8.82677 14.2919 10.6958 14.9963C12.2086 15.5678 13.5039 15.6163 13.9963 15.1239C14.0948 15.0254 14.2003 14.9253 14.309 14.8225C14.8617 14.2972 15.4886 13.702 15.4612 13.0417C15.4424 12.5881 15.1119 12.0999 14.4791 11.5914C12.5853 10.0684 12.0557 10.606 11.1775 11.4967L11.0052 11.6705C10.5855 12.0908 9.90363 11.9977 8.978 11.396C8.33597 10.9784 7.54273 10.2993 6.6214 9.3774C4.34445 7.10098 3.61632 5.70769 4.32884 4.99355L4.50051 4.82403C5.39332 3.94576 5.93202 3.41567 4.40849 1.52082C3.89885 0.888479 3.41128 0.558049 2.95761 0.538675C2.94362 0.538137 2.92963 0.538137 2.91564 0.538137Z" fill="#959595"/>
</g>
<defs>
<clipPath id="clip0">
<rect width="16" height="16" fill="white"/>
</clipPath>
</defs>
</svg>
