<svg width="20" height="20" viewBox="0 0 20 20" fill="none" xmlns="http://www.w3.org/2000/svg">
<g id="24 / basic / newspaper">
<path id="icon" fill-rule="evenodd" clip-rule="evenodd" d="M3.33329 15V4.16667H13.3333V15C13.3333 15.2922 13.3834 15.5727 13.4755 15.8333H4.16663C3.70639 15.8333 3.33329 15.4602 3.33329 15ZM15.8333 17.5H4.16663C2.78591 17.5 1.66663 16.3807 1.66663 15V2.5H13.3333H14.1666H15L15 6.66667H18.3333V8.33333L18.3333 15C18.3333 16.3807 17.214 17.5 15.8333 17.5ZM15 8.33333H16.6666V15C16.6666 15.4602 16.2935 15.8333 15.8333 15.8333C15.3731 15.8333 15 15.4602 15 15L15 8.33333ZM8.33329 5.83333V9.16667H4.99996V5.83333H8.33329ZM11.6666 8.33333V6.66667H9.16663V8.33333H11.6666ZM11.6666 10V11.6667H4.99996V10H11.6666ZM11.6666 14.1667V12.5H4.99996V14.1667H11.6666Z" fill="#2A4F77"/>
</g>
</svg>
