<svg width="64" height="64" viewBox="0 0 64 64" fill="none" xmlns="http://www.w3.org/2000/svg">
<g clip-path="url(#clip0)">
<path d="M47 0C41.8309 0 37.5 4.33087 37.5 9.5C37.5 14.6691 41.8309 18.875 47 18.875C52.1691 18.875 56.5 14.6691 56.5 9.5C56.5 4.33087 52.1691 0 47 0Z" fill="#00E29F"/>
<path d="M33.75 44.749V64.0002H45.125V40.5586L33.75 44.749Z" fill="#00E29F"/>
<path d="M63.9601 29.6377C63.9851 30.0018 63.9392 30.3667 63.7528 30.6926L59.3856 38.3336C59.0414 38.9342 58.4866 39.2436 57.7048 39.2784C57.0145 39.2583 56.39 38.8609 56.0806 38.2421L55.3574 36.7937L48.875 39.1617V63.9999H62.125C63.1751 63.9999 64 63.1748 64 62.1249V29.7498L63.9601 29.6377Z" fill="#00E29F"/>
<path d="M56.8386 18.2462C54.4346 20.914 50.8649 22.6251 47 22.6251C43.1351 22.6251 39.5654 20.914 37.1613 18.2461C32.8434 21.3056 30 26.317 30 32.0001V35.1343L32.4683 37.1288L51.8724 30.0738L51.5904 29.5081C51.2809 28.8892 51.3378 28.1513 51.7369 27.5855C52.136 27.0233 52.9495 26.7395 53.6251 26.8091L62.3574 27.9022C62.901 27.9692 63.3511 28.2998 63.6513 28.7482C62.7959 24.4336 60.308 20.7046 56.8386 18.2462Z" fill="#00E29F"/>
<path d="M24.375 7.625C20.2386 7.625 16.875 10.9886 16.875 15.125C16.875 19.2614 20.2386 22.625 24.375 22.625C28.5114 22.625 31.875 19.2614 31.875 15.125C31.875 10.9886 28.5114 7.625 24.375 7.625Z" fill="#FAA017"/>
<path d="M22.2309 38.2021L15 41.8183V64.0004H30V44.4974L22.2309 38.2021Z" fill="#FAA017"/>
<path d="M24.375 26.3753C20.8729 26.3753 17.7784 24.7335 15.7136 22.2168C12.9984 24.6232 11.25 28.096 11.25 32.0003V35.3069L20.8228 30.5208C21.991 29.9312 23.476 30.0209 24.5783 30.7533L26.25 32.1042V32.0003C26.25 29.9028 26.5863 27.8868 27.1737 25.9803C26.2738 26.213 25.3466 26.3753 24.375 26.3753Z" fill="#FAA017"/>
<path d="M0 49.3195V49.3252V62.1252C0 63.1751 0.824875 64.0002 1.875 64.0002H11.25V43.6934L0 49.3195Z" fill="#F6515B"/>
<path d="M7.5 18.875C4.39825 18.875 1.875 21.3983 1.875 24.5C1.875 27.6017 4.39825 30.125 7.5 30.125C7.5705 30.125 7.636 30.1067 7.70575 30.1041C8.10313 26.7116 9.52925 23.537 11.8226 20.9447C10.7901 19.6919 9.24662 18.875 7.5 18.875Z" fill="#F6515B"/>
<path d="M7.5 35.3067V33.8748C5.04338 33.8748 2.82213 32.9045 1.14875 31.3525C0.43675 32.6654 0 34.1492 0 35.7498V40.931L7.79888 37.0318C7.62113 36.4848 7.5 35.9123 7.5 35.3067Z" fill="#F6515B"/>
</g>
<defs>
<clipPath id="clip0">
<rect width="64" height="64" fill="white"/>
</clipPath>
</defs>
</svg>
