<svg width="20" height="20" viewBox="0 0 20 20" fill="none" xmlns="http://www.w3.org/2000/svg">
<g id="24 / basic / pencil-create">
<path id="icon" fill-rule="evenodd" clip-rule="evenodd" d="M13.6978 1.66699C14.2434 1.66699 14.7664 1.88484 15.1484 2.26984L17.7325 4.85393C18.1172 5.23866 18.3333 5.76047 18.3333 6.30456C18.3333 6.84865 18.1172 7.37046 17.7325 7.75519L8.29788 17.1868C7.71581 17.8582 6.89071 18.2708 5.94546 18.3356H1.66663V17.5023L1.66933 13.9897C1.74032 13.111 2.14885 12.2939 2.77204 11.7448L12.2461 2.27085C12.6303 1.88435 13.1528 1.66699 13.6978 1.66699ZM5.88661 16.671C6.3318 16.6395 6.7462 16.4323 7.07895 16.0517L13.3805 9.75009L10.2519 6.62132L3.91338 12.9583C3.57575 13.2569 3.36688 13.6747 3.33329 14.0568V16.6694L5.88661 16.671ZM11.4305 5.44295L14.5591 8.57157L16.554 6.57668C16.6261 6.50451 16.6667 6.40662 16.6667 6.30456C16.6667 6.20249 16.6261 6.10461 16.554 6.03244L13.9676 3.44604C13.8962 3.37411 13.7991 3.33366 13.6977 3.33366C13.5964 3.33366 13.4993 3.37411 13.4279 3.44604L11.4305 5.44295Z" fill="#2A4F77"/>
</g>
</svg>
