<svg width="113" height="104" viewBox="0 0 113 104" fill="none" xmlns="http://www.w3.org/2000/svg">
<path d="M42.5664 58.6992V103.806H0.913086V68.1953C0.913086 48.9154 3.21517 34.959 7.81934 26.3262C13.8623 14.8158 23.4303 6.111 36.5234 0.211914L46.0195 15.3193C38.1061 18.6286 32.279 23.5924 28.5381 30.2109C24.7972 36.6855 22.7109 46.1816 22.2793 58.6992H42.5664ZM109.471 58.6992V103.806H67.8174V68.1953C67.8174 48.9154 70.1195 34.959 74.7236 26.3262C80.7666 14.8158 90.3346 6.111 103.428 0.211914L112.924 15.3193C105.01 18.6286 99.1833 23.5924 95.4424 30.2109C91.7015 36.6855 89.6152 46.1816 89.1836 58.6992H109.471Z" fill="#DBF5F8"/>
</svg>
