<svg width="65" height="64" viewBox="0 0 65 64" fill="none" xmlns="http://www.w3.org/2000/svg">
<path d="M16.8437 13.251L16.1387 14.251H23.8685L23.1635 13.251H16.8437Z" fill="#F6515B"/>
<path d="M22.7538 7.72656H17.2539V11.2265H22.7538V7.72656Z" fill="#F6515B"/>
<path d="M54.503 21.501C52.1571 21.5015 49.8942 22.3701 48.1505 23.9394C46.4067 25.5087 45.3052 27.6678 45.0583 30.0008H39.3134C39.0486 30.0019 38.7951 30.108 38.6084 30.2958L37.8384 31.0657V26.1659H43.0033C43.2685 26.1659 43.5229 26.0605 43.7104 25.873C43.8979 25.6854 44.0033 25.4311 44.0033 25.1659V22.9559C46.9553 22.6982 49.694 21.311 51.6481 19.0833C53.6023 16.8557 54.6211 13.9597 54.4921 10.9993C54.3632 8.03881 53.0964 5.24239 50.9559 3.19314C48.8155 1.14389 45.9666 0 43.0033 0C40.04 0 37.1911 1.14389 35.0507 3.19314C32.9102 5.24239 31.6434 8.03881 31.5145 10.9993C31.3855 13.9597 32.4043 16.8557 34.3585 19.0833C36.3126 21.311 39.0513 22.6982 42.0033 22.9559V24.1659H36.8384C36.5732 24.1659 36.3189 24.2712 36.1314 24.4588C35.9438 24.6463 35.8385 24.9007 35.8385 25.1659V33.0007C35.836 33.0256 35.836 33.0508 35.8385 33.0757L34.2885 34.6257C34.1092 34.809 34.0072 35.0542 34.0035 35.3106V37.5006H31.3136V33.8107C31.3111 33.6785 31.2824 33.5482 31.2292 33.4271C31.176 33.3061 31.0993 33.1969 31.0036 33.1057L29.5036 31.6057V25.1659C29.5036 24.9007 29.3983 24.6463 29.2107 24.4588C29.0232 24.2712 28.7688 24.1659 28.5036 24.1659H21.3388V21.9009C23.8816 21.5615 26.1967 20.2577 27.8053 18.2593C29.4139 16.2609 30.193 13.7207 29.9813 11.1641C29.7696 8.60742 28.5835 6.22991 26.6682 4.52323C24.7528 2.81655 22.2548 1.91127 19.6908 1.9946C17.1268 2.07793 14.6928 3.14351 12.8923 4.97095C11.0919 6.79839 10.0626 9.2479 10.0174 11.8129C9.9722 14.3779 10.9145 16.8622 12.6495 18.7519C14.3844 20.6416 16.7793 21.7923 19.3388 21.9659V25.1659C19.3388 25.4311 19.4442 25.6854 19.6317 25.873C19.8193 26.0605 20.0736 26.1659 20.3388 26.1659H27.5037V29.5858L26.7087 28.7958C26.522 28.608 26.2685 28.5019 26.0037 28.5008H17.9439C17.6883 26.2148 16.5671 24.1135 14.8106 22.6283C13.0542 21.1432 10.7957 20.3869 8.49903 20.5149C6.20239 20.6429 4.04192 21.6454 2.46133 23.3165C0.880736 24.9877 0 27.2006 0 29.5008C0 31.801 0.880736 34.0139 2.46133 35.685C4.04192 37.3561 6.20239 38.3586 8.49903 38.4866C10.7957 38.6146 13.0542 37.8584 14.8106 36.3732C16.5671 34.8881 17.6883 32.7867 17.9439 30.5008H25.5887L29.3136 34.2257V37.5006H21.0038C20.4734 37.5006 19.9647 37.7113 19.5896 38.0864C19.2146 38.4614 19.0038 38.9701 19.0038 39.5005V43.5005C19.0061 43.5812 19.0162 43.6616 19.0338 43.7405C19.0362 43.7503 19.0362 43.7606 19.0338 43.7705L24.4787 63.27C24.5377 63.4804 24.664 63.6657 24.8383 63.7975C25.0125 63.9293 25.2252 64.0005 25.4437 64H38.5634C38.7776 63.9951 38.9846 63.9215 39.1538 63.7901C39.323 63.6586 39.4456 63.4763 39.5034 63.27L44.9483 43.7705C44.9459 43.7606 44.9459 43.7503 44.9483 43.7405C44.9744 43.6624 44.9928 43.5821 45.0033 43.5005V39.5005C45.0033 38.9701 44.7926 38.4614 44.4175 38.0864C44.0424 37.7113 43.5337 37.5006 43.0033 37.5006H36.0035V35.7256L39.7284 32.0007H45.0583C45.2516 33.8269 45.97 35.5578 47.1266 36.9841C48.2832 38.4105 49.8284 39.471 51.5752 40.0374C53.322 40.6038 55.1955 40.6517 56.969 40.1755C58.7425 39.6992 60.34 38.7192 61.5681 37.3539C62.7962 35.9886 63.6022 34.2967 63.8887 32.4829C64.1752 30.669 63.9299 28.811 63.1824 27.1337C62.4349 25.4564 61.2172 24.0317 59.6769 23.032C58.1365 22.0323 56.3394 21.5005 54.503 21.501ZM39.0034 18.501C38.7382 18.501 38.4838 18.3957 38.2963 18.2081C38.1088 18.0206 38.0034 17.7663 38.0034 17.501V5.50132C38.0034 5.2361 38.1088 4.98176 38.2963 4.79422C38.4838 4.60669 38.7382 4.50134 39.0034 4.50134H47.0032C47.2684 4.50134 47.5228 4.60669 47.7103 4.79422C47.8978 4.98176 48.0032 5.2361 48.0032 5.50132V17.501C48.0032 17.7663 47.8978 18.0206 47.7103 18.2081C47.5228 18.3957 47.2684 18.501 47.0032 18.501H39.0034ZM14.209 16.2511C14.0261 16.2505 13.847 16.1998 13.6909 16.1045C13.5349 16.0093 13.408 15.873 13.324 15.7107C13.24 15.5483 13.2021 15.366 13.2144 15.1836C13.2267 15.0012 13.2888 14.8257 13.394 14.6761L15.3589 11.8912C15.2909 11.6984 15.2554 11.4956 15.2539 11.2912V7.66127C15.2552 7.14849 15.4595 6.65709 15.8221 6.2945C16.1847 5.93191 16.6761 5.72763 17.1889 5.72631H22.8188C23.3315 5.72763 23.8229 5.93191 24.1855 6.2945C24.5481 6.65709 24.7524 7.14849 24.7537 7.66127V11.2912C24.7522 11.4956 24.7167 11.6984 24.6487 11.8912L26.6137 14.6761C26.7188 14.8257 26.7809 15.0012 26.7932 15.1836C26.8056 15.366 26.7677 15.5483 26.6837 15.7107C26.5996 15.873 26.4727 16.0093 26.3167 16.1045C26.1607 16.1998 25.9815 16.2505 25.7987 16.2511H14.209ZM14.004 31.7507C14.0072 31.9012 13.9763 32.0505 13.9138 32.1874C13.8513 32.3243 13.7586 32.4454 13.6428 32.5415C13.527 32.6376 13.3909 32.7064 13.2448 32.7426C13.0987 32.7788 12.9463 32.7816 12.799 32.7507C11.6706 32.502 10.4954 32.5712 9.40406 32.9507C9.27293 32.9818 9.13882 32.9986 9.00407 33.0007C8.86631 33.0002 8.73013 32.9713 8.60408 32.9157C7.51273 32.5363 6.33751 32.467 5.20915 32.7157C5.06183 32.7466 4.90943 32.7438 4.76332 32.7076C4.61722 32.6714 4.48117 32.6026 4.36533 32.5065C4.2495 32.4104 4.15686 32.2893 4.09433 32.1524C4.03179 32.0155 4.00098 31.8662 4.00418 31.7157V27.0008C3.999 26.9577 3.999 26.914 4.00418 26.8708C3.97086 26.6216 4.03262 26.3691 4.17716 26.1634C4.32171 25.9577 4.53843 25.814 4.78416 25.7609C6.17819 25.4611 7.62576 25.523 8.98907 25.9409C10.3524 25.523 11.7999 25.4611 13.194 25.7609C13.4388 25.8195 13.6548 25.9634 13.8032 26.1668C13.9516 26.3702 14.0228 26.6198 14.004 26.8708C14.004 26.9108 14.004 31.7357 14.004 31.7357V31.7507ZM43.0033 39.5005V42.5005H21.0038V39.5005H43.0033ZM54.503 36.4056C53.4153 36.4056 52.3519 36.0831 51.4475 35.4787C50.543 34.8744 49.8381 34.0154 49.4218 33.0105C49.0056 32.0055 48.8966 30.8996 49.1088 29.8328C49.3211 28.7659 49.8449 27.7859 50.614 27.0167C51.3832 26.2476 52.3632 25.7238 53.4301 25.5115C54.4969 25.2993 55.6028 25.4082 56.6078 25.8245C57.6127 26.2408 58.4717 26.9457 59.076 27.8502C59.6804 28.7546 60.0029 29.818 60.0029 30.9057C60.0029 32.3644 59.4235 33.7633 58.392 34.7947C57.3606 35.8262 55.9617 36.4056 54.503 36.4056Z" fill="#113255"/>
<path fill-rule="evenodd" clip-rule="evenodd" d="M41.0182 10.1273C41.0783 10.0472 41.1726 10 41.2727 10H45.0909C45.1911 10 45.2854 10.0472 45.3455 10.1273L46.3 11.4C46.3413 11.4551 46.3636 11.5221 46.3636 11.5909V16.0455C46.3636 16.2986 46.2631 16.5414 46.0841 16.7204C45.905 16.8994 45.6623 17 45.4091 17H40.9545C40.7014 17 40.4586 16.8994 40.2796 16.7204C40.1006 16.5414 40 16.2986 40 16.0455V11.5909C40 11.5221 40.0223 11.4551 40.0636 11.4L41.0182 10.1273ZM41.4318 10.6364L40.6364 11.697V16.0455C40.6364 16.1298 40.6699 16.2108 40.7296 16.2704C40.7892 16.3301 40.8702 16.3636 40.9545 16.3636H45.4091C45.4935 16.3636 45.5744 16.3301 45.6341 16.2704C45.6938 16.2108 45.7273 16.1298 45.7273 16.0455V11.697L44.9318 10.6364H41.4318Z" fill="#FAA017"/>
<path fill-rule="evenodd" clip-rule="evenodd" d="M40 11.5909C40 11.4152 40.1425 11.2727 40.3182 11.2727H46.0455C46.2212 11.2727 46.3636 11.4152 46.3636 11.5909C46.3636 11.7666 46.2212 11.9091 46.0455 11.9091H40.3182C40.1425 11.9091 40 11.7666 40 11.5909Z" fill="#FAA017"/>
<path fill-rule="evenodd" clip-rule="evenodd" d="M41.9091 12.5455C42.0848 12.5455 42.2273 12.6879 42.2273 12.8636C42.2273 13.1168 42.3278 13.3596 42.5069 13.5386C42.6859 13.7176 42.9287 13.8182 43.1818 13.8182C43.435 13.8182 43.6778 13.7176 43.8568 13.5386C44.0358 13.3596 44.1364 13.1168 44.1364 12.8636C44.1364 12.6879 44.2788 12.5455 44.4545 12.5455C44.6303 12.5455 44.7727 12.6879 44.7727 12.8636C44.7727 13.2856 44.6051 13.6902 44.3068 13.9886C44.0084 14.2869 43.6038 14.4545 43.1818 14.4545C42.7599 14.4545 42.3552 14.2869 42.0569 13.9886C41.7585 13.6902 41.5909 13.2856 41.5909 12.8636C41.5909 12.6879 41.7334 12.5455 41.9091 12.5455Z" fill="#FAA017"/>
<path d="M56.5432 32.0954C56.2407 32.6616 56.1318 33.3114 56.2332 33.9453C56.7703 33.6399 57.217 33.1978 57.5279 32.6639C57.8387 32.1299 58.0027 31.5232 58.0032 30.9054C58.0032 30.8604 58.0032 30.8204 58.0032 30.7754C57.3795 31.0349 56.8641 31.501 56.5432 32.0954Z" fill="#F6515B"/>
<path d="M52.4629 29.9052C52.7873 29.2918 52.8847 28.5835 52.7379 27.9053C52.2132 28.2117 51.7773 28.6494 51.473 29.1754C51.1688 29.7014 51.0068 30.2976 51.0029 30.9052C51.0029 31.0102 51.0029 31.1152 51.0029 31.2202C51.6258 30.9619 52.1411 30.4978 52.4629 29.9052Z" fill="#F6515B"/>
<path d="M54.6826 27.416C54.9438 28.5524 54.7938 29.7445 54.2593 30.7807C53.7247 31.8169 52.8401 32.6301 51.7627 33.0759C52.0647 33.4577 52.443 33.7722 52.8735 33.9995C53.3039 34.2268 53.7771 34.3618 54.2626 34.3959C54.05 33.2654 54.2402 32.0962 54.8001 31.0914C55.3601 30.0867 56.2543 29.3098 57.3276 28.896C57.0258 28.4668 56.6314 28.111 56.1736 27.8548C55.7158 27.5987 55.2062 27.4487 54.6826 27.416Z" fill="#F6515B"/>
<path d="M10.0039 27.7357V30.7006C10.6638 30.5845 11.3354 30.5493 12.0039 30.5956V27.5957C11.334 27.5403 10.6596 27.5875 10.0039 27.7357Z" fill="#FAA017"/>
<path d="M6.00391 27.6008V30.6007C6.67235 30.5544 7.34395 30.5897 8.00386 30.7057V27.7358C7.34793 27.5896 6.67355 27.544 6.00391 27.6008Z" fill="#FAA017"/>
</svg>
