<svg width="278" height="293" viewBox="0 0 278 293" fill="none" xmlns="http://www.w3.org/2000/svg">
<path d="M102.3 50C33.4359 49.9993 5.02697 126.862 0.282256 185.583C-4.46246 244.305 51.485 293 102.3 293C180.136 293 247.245 245.877 269.096 191.312C317.751 69.8155 153.502 50.0005 102.3 50Z" fill="#FE747D" fill-opacity="0.25"/>
<path d="M140.389 145.904L98.2 134.397H59.7999L17.611 145.904C11.3462 147.612 7 153.303 7 159.796V254.397C7 257.048 9.14912 259.197 11.7999 259.197H151V159.796C151 153.303 146.654 147.612 140.389 145.904Z" fill="#2A4F77"/>
<path d="M103 115.202H55.0002V153.601H103V115.202Z" fill="#FAD098"/>
<path d="M55.0005 128.588C62.2094 132.286 70.3573 134.401 79.0002 134.401C87.6431 134.401 95.7915 132.286 103 128.588V115.201H55.0005V128.588V128.588Z" fill="#D7AF7D"/>
<path d="M122.2 62.4002V33.6006H35.8008V62.4008C30.4992 62.4008 26.2009 66.6985 26.2009 72.0006C26.2009 77.3023 30.4992 81.6005 35.8008 81.6005C35.8008 105.459 55.1419 124.801 79.0008 124.801C102.86 124.801 122.201 105.459 122.201 81.6005C127.502 81.6005 131.801 77.3023 131.801 72.0006C131.8 66.698 127.502 62.4002 122.2 62.4002Z" fill="#FFE1B4"/>
<path d="M59.8005 81.6005V33.6006H35.8008V62.4008C30.4992 62.4008 26.2009 66.6985 26.2009 72.0006C26.2009 77.3023 30.4992 81.6005 35.8008 81.6005C35.8008 105.459 55.1419 124.801 79.0008 124.801C83.1696 124.801 87.1869 124.178 91.001 123.076C72.9866 117.871 59.8005 101.29 59.8005 81.6005Z" fill="#FAD098"/>
<path d="M78.9988 105.599C73.9174 105.599 69.0612 103.201 65.6725 99.0218C63.9993 96.9619 64.318 93.9403 66.3758 92.2697C68.443 90.6032 71.462 90.9219 73.1259 92.9751C76.2944 96.8753 81.7038 96.8753 84.8728 92.9751C86.5414 90.9219 89.5604 90.6032 91.6229 92.2697C93.6807 93.9409 93.9994 96.9619 92.3262 99.0218C88.9365 103.201 84.0803 105.599 78.9988 105.599Z" fill="#D7AF7D"/>
<path d="M59.8004 81.6C57.1475 81.6 55.0005 79.4509 55.0005 76.8001V72.0001C55.0005 69.3493 57.1475 67.2002 59.8004 67.2002C62.4533 67.2002 64.6004 69.3493 64.6004 72.0001V76.8001C64.6004 79.4504 62.4533 81.6 59.8004 81.6Z" fill="#64463C"/>
<path d="M98.2003 81.6C95.5475 81.6 93.4004 79.4509 93.4004 76.8001V72.0001C93.4004 69.3493 95.5475 67.2002 98.2003 67.2002C100.853 67.2002 103 69.3493 103 72.0001V76.8001C103 79.4504 100.853 81.6 98.2003 81.6Z" fill="#64463C"/>
<path d="M111.312 57.8332C112.713 61.5451 116.681 63.2271 120.59 62.5418C121.113 62.4501 121.651 62.4021 122.201 62.4021C123.958 62.4021 125.584 62.909 127.001 63.7335V33.6019C127.001 26.4203 123.012 20.2339 117.173 16.9411C116.082 10.0694 110.179 4.80176 103.001 4.80176H64.6009C46.0441 4.80176 31.0007 19.8451 31.0007 38.4019V63.7335C32.4177 62.909 34.0434 62.4021 35.8007 62.4021C36.4179 62.4021 37.0196 62.4619 37.6012 62.5769C42.2764 63.4973 46.9572 60.9135 48.1272 56.2951L49.5591 43.9356C49.8875 41.0996 52.5935 39.1506 55.3722 39.8054C64.1951 41.8839 83.1216 45.0142 102.83 39.8755C105.524 39.1727 108.231 40.9898 108.689 43.7365L110.595 55.17C110.749 56.0945 110.992 56.985 111.312 57.8332Z" fill="#353535"/>
<path d="M7 159.798V254.4C7 257.051 9.14912 259.2 11.7999 259.2H35.7997V190.635C35.7997 185.298 34.0208 180.113 30.744 175.9L10.7429 150.184C8.4159 152.764 7 156.139 7 159.798Z" fill="#08384D"/>
<path d="M151 159.798V259.2H122.2V190.635C122.2 185.298 123.979 180.113 127.256 175.9L147.257 150.184C149.584 152.764 151 156.139 151 159.798Z" fill="#08384D"/>
<path d="M64.5999 4.80176C46.0431 4.80176 30.9998 19.8446 30.9998 38.4019V63.7335C32.4167 62.909 34.0425 62.4021 35.7997 62.4021C36.4169 62.4021 37.0186 62.4619 37.6003 62.5769C42.2754 63.4973 46.9563 60.9135 48.1267 56.2946L49.5586 43.935C49.8871 41.0991 52.5931 39.1501 55.3718 39.8049C56.634 40.1024 58.1515 40.418 59.7999 40.7304V33.6019C59.7999 17.696 72.6942 4.80176 88.6001 4.80176C88.6001 4.80176 64.5999 4.80176 64.5999 4.80176Z" fill="black"/>
<path d="M64.6472 201.598C61.9943 201.598 59.8235 199.449 59.8235 196.798C59.8235 194.147 61.9468 191.998 64.6002 191.998H64.6472C67.3 191.998 69.4471 194.147 69.4471 196.798C69.4471 199.449 67.3 201.598 64.6472 201.598Z" fill="#959595"/>
<path d="M64.6472 239.999C61.9943 239.999 59.8235 237.85 59.8235 235.199C59.8235 232.549 61.9468 230.399 64.6002 230.399H64.6472C67.3 230.399 69.4471 232.549 69.4471 235.199C69.4471 237.85 67.3 239.999 64.6472 239.999Z" fill="#959595"/>
<path d="M64.6472 220.797C61.9943 220.797 59.8235 218.648 59.8235 215.997C59.8235 213.346 61.9468 211.197 64.6002 211.197H64.6472C67.3 211.197 69.4471 213.346 69.4471 215.997C69.4471 218.648 67.3 220.797 64.6472 220.797Z" fill="#959595"/>
<path d="M83.8013 153.601H74.2014V259.2H83.8013V153.601Z" fill="#08384D"/>
<path d="M226.755 29.3083C227.368 27.6124 227.8 25.8557 227.8 24.0015C227.8 13.3977 217.055 4.80176 203.8 4.80176C190.546 4.80176 179.8 13.3977 179.8 24.0015C179.8 25.8557 180.233 27.6124 180.846 29.3083C163.2 37.8543 151 55.8795 151 76.8014C151 100.66 170.341 120.001 194.2 120.001H213.401C237.259 120.001 256.601 100.66 256.601 76.8014C256.6 55.8795 244.4 37.8543 226.755 29.3083Z" fill="#353535"/>
<path d="M184.6 57.6005C184.6 41.2836 196.234 27.6944 211.657 24.6486C209.086 24.2644 206.477 24.0009 203.8 24.0009C200.898 24.0009 198.071 24.2969 195.295 24.7476C194.607 22.9929 194.2 21.1408 194.2 19.201C194.2 13.5023 197.364 8.43889 202.293 4.92285C189.754 5.55655 179.8 13.8101 179.8 24.0015C179.8 25.8562 180.235 27.6113 180.849 29.3062C163.201 37.8516 151 55.8784 151 76.8014C151 100.66 170.341 120.001 194.2 120.001H203.8V91.2012L184.6 72.0014V57.6005H184.6Z" fill="black"/>
<path d="M261.947 178.778L229.034 165.613C225.39 164.155 223 160.625 223 156.7V139.199H184.6V156.7C184.6 160.625 182.21 164.155 178.565 165.613L145.652 178.778C140.185 180.965 136.6 186.26 136.6 192.148V211.199C136.6 213.85 138.749 215.999 141.4 215.999V254.399C141.4 257.05 143.549 259.199 146.2 259.199H261.4C264.051 259.199 266.2 257.05 266.2 254.399V215.999C268.85 215.999 271 213.85 271 211.199V192.148C270.999 186.26 267.414 180.965 261.947 178.778Z" fill="#E6AF78"/>
<path d="M141.401 211.201V225.601H146.201C148.852 225.601 151.001 227.75 151.001 230.401V259.201H165.401V211.201H141.401Z" fill="#D29B6E"/>
<path d="M266.199 211.201V225.601H261.399C258.749 225.601 256.6 227.75 256.6 230.401V259.201H242.2V211.201H266.199Z" fill="#D29B6E"/>
<path d="M261.947 178.775L234.669 167.864C230.12 175.028 219.852 188.77 203.799 196.796C187.745 188.77 177.477 175.028 172.929 167.864L145.651 178.775C140.184 180.962 136.599 186.257 136.599 192.146V211.196C136.599 213.847 138.748 215.996 141.399 215.996H160.599V259.196H246.999V215.996H266.199C268.85 215.996 270.999 213.847 270.999 211.196V192.146C270.999 186.257 267.414 180.962 261.947 178.775Z" fill="#F7B73B"/>
<path d="M184.599 154.735C190.559 157.073 197.021 158.402 203.799 158.402C210.577 158.402 217.039 157.073 222.999 154.735V139.202H184.599V154.735H184.599Z" fill="#D29B6E"/>
<path d="M247 105.6C247 73.8208 212.648 84.9809 188.619 70.0376C186.431 68.6769 183.518 69.2652 182.094 71.4128C178.387 77.0068 170.799 86.2097 160.907 86.3968C155.496 86.4994 151 90.512 151 95.924V95.9998C151 101.302 155.298 105.6 160.6 105.6C160.6 108.9 160.97 112.113 161.671 115.201C166.036 134.439 183.241 148.8 203.8 148.8C224.359 148.8 241.563 134.439 245.929 115.201C246.63 112.114 247 108.9 247 105.6Z" fill="#F0C087"/>
<path d="M184.6 105.601V69.6055C183.614 69.9221 182.705 70.4913 182.094 71.4132C178.386 77.0072 170.798 86.2101 160.907 86.3978C155.496 86.5004 151 90.513 151 95.9245V96.0008C151 101.302 155.298 105.601 160.599 105.601C160.599 108.9 160.97 112.114 161.67 115.202C166.036 134.44 183.24 148.801 203.799 148.801C207.971 148.801 211.993 148.182 215.81 147.079C197.791 141.878 184.6 125.294 184.6 105.601Z" fill="#E6AF78"/>
<path d="M203.8 129.601C198.719 129.601 193.863 127.204 190.474 123.025C188.801 120.965 189.119 117.943 191.177 116.272C193.244 114.604 196.263 114.923 197.927 116.978C201.096 120.878 206.505 120.878 209.674 116.978C211.338 114.923 214.362 114.603 216.424 116.272C218.482 117.944 218.801 120.965 217.128 123.025C213.737 127.204 208.881 129.601 203.8 129.601Z" fill="#D29B6E"/>
<path d="M223 105.601C220.347 105.601 218.2 103.452 218.2 100.801V96.0011C218.2 93.3503 220.347 91.2012 223 91.2012C225.653 91.2012 227.8 93.3503 227.8 96.0011V100.801C227.8 103.452 225.653 105.601 223 105.601Z" fill="#64463C"/>
<path d="M184.6 105.601C181.947 105.601 179.8 103.452 179.8 100.801V96.0011C179.8 93.3503 181.947 91.2012 184.6 91.2012C187.253 91.2012 189.4 93.3503 189.4 96.0011V100.801C189.4 103.452 187.253 105.601 184.6 105.601Z" fill="#64463C"/>
<path d="M160.599 210.375C160.599 207.828 159.587 205.387 157.787 203.586L138.783 184.582C137.402 186.812 136.599 189.407 136.599 192.147V211.198C136.599 213.849 138.748 215.998 141.399 215.998H160.599V210.375Z" fill="#F2AB3E"/>
<path d="M246.999 210.375C246.999 207.828 248.011 205.387 249.811 203.586L268.815 184.582C270.196 186.812 270.999 189.407 270.999 192.147V211.198C270.999 213.849 268.85 215.998 266.199 215.998H246.999V210.375Z" fill="#F2AB3E"/>
<path d="M54.3032 133.02L78.9996 153.6L63.5216 165.209C61.4477 166.765 58.5128 166.392 56.8932 164.368L42.7919 146.741C41.4864 145.109 41.3868 142.819 42.5465 141.08L47.2366 134.045C48.8196 131.671 52.1113 131.193 54.3032 133.02Z" fill="#353535"/>
<path d="M103.696 133.02L78.9993 153.6L94.4773 165.209C96.5511 166.765 99.486 166.392 101.106 164.368L115.207 146.741C116.512 145.109 116.612 142.819 115.452 141.08L110.762 134.045C109.18 131.671 105.888 131.193 103.696 133.02Z" fill="#353535"/>
</svg>
