<svg width="241" height="232" viewBox="0 0 241 232" fill="none" xmlns="http://www.w3.org/2000/svg">
<path d="M88.6453 19.6855C28.9731 19.685 4.356 86.8417 0.244582 138.148C-3.86683 189.453 44.6131 232 88.6453 232C156.092 232 214.244 190.827 233.179 143.153C275.34 36.9987 133.014 19.686 88.6453 19.6855Z" fill="#DDF1FA"/>
<g clip-path="url(#clip0)">
<path d="M223.266 217.422H16.5449V120.391H59.3153L119.906 59.2969L180.498 120.391H223.266V217.422Z" fill="#E6BE94"/>
<path d="M141.29 174.297H98.5205V217.422H141.29V174.297Z" fill="#996459"/>
<path d="M140.399 159.922H99.4115C98.9192 159.922 98.5205 160.324 98.5205 160.82V174.297H141.29V160.82C141.29 160.324 140.892 159.922 140.399 159.922Z" fill="#4BB9EC"/>
<path d="M152.802 30.5469L158.611 21.7593C159.338 20.6573 159.408 19.2396 158.788 18.0707C158.168 16.9019 156.961 16.1719 155.645 16.1719H120.004C118.034 16.1719 116.44 17.7792 116.44 19.7656V41.3281C116.44 43.3146 118.034 44.9219 120.004 44.9219H155.645C156.961 44.9219 158.169 44.1919 158.789 43.023C159.408 41.8542 159.338 40.4364 158.611 39.3345L152.802 30.5469Z" fill="#FF4F19"/>
<path d="M120.004 62.8906C118.034 62.8906 116.44 61.2833 116.44 59.2969V12.5781C116.44 10.5917 118.034 8.98438 120.004 8.98438C121.974 8.98438 123.568 10.5917 123.568 12.5781V59.2969C123.568 61.2833 121.974 62.8906 120.004 62.8906Z" fill="#5C546A"/>
<path d="M134.436 75.8901C134.985 74.5461 136.287 73.6719 137.728 73.6719H205.447C206.665 73.6719 207.8 74.2999 208.455 75.3353L233.404 114.867C234.103 115.976 234.145 117.376 233.522 118.527C232.896 119.675 231.698 120.39 230.397 120.39H176.934C175.987 120.39 175.083 120.011 174.414 119.337L135.209 79.806C134.188 78.7781 133.882 77.2342 134.436 75.8901Z" fill="#FF4F19"/>
<path d="M105.476 75.8901C104.926 74.5456 103.624 73.6719 102.183 73.6719H34.464C33.2459 73.6719 32.1112 74.2999 31.4567 75.3353L6.50762 114.867C5.80816 115.976 5.76628 117.376 6.38912 118.527C7.01596 119.675 8.21308 120.391 9.51488 120.391H62.9773C63.924 120.391 64.8289 120.011 65.4971 119.338L104.703 79.8064C105.723 78.7781 106.029 77.2342 105.476 75.8901Z" fill="#FF4F19"/>
<path d="M180.546 123.936C179.634 123.936 178.722 123.585 178.026 122.883L120.004 64.3792L61.9821 122.883C60.5898 124.287 58.3341 124.287 56.9419 122.883C55.5496 121.479 55.5496 119.205 56.9419 117.801L117.484 56.756C118.876 55.3522 121.132 55.3522 122.524 56.756L183.066 117.801C184.459 119.205 184.459 121.479 183.066 122.883C182.37 123.585 181.458 123.936 180.546 123.936Z" fill="#E3001E"/>
<path d="M120.005 141.953C131.815 141.953 141.39 132.299 141.39 120.391C141.39 108.482 131.815 98.8281 120.005 98.8281C108.194 98.8281 98.6196 108.482 98.6196 120.391C98.6196 132.299 108.194 141.953 120.005 141.953Z" fill="#FFEBB7"/>
<path d="M120.004 106.016C118.034 106.016 116.44 107.623 116.44 109.609V116.797H109.311C107.341 116.797 105.747 118.404 105.747 120.391C105.747 122.377 107.341 123.984 109.311 123.984H120.004C121.974 123.984 123.568 122.377 123.568 120.391V109.609C123.568 107.623 121.974 106.016 120.004 106.016Z" fill="#5C546A"/>
<path d="M173.368 143.75C173.368 138.788 169.379 134.766 164.458 134.766C159.536 134.766 155.547 138.788 155.547 143.75C155.547 144.365 155.61 144.966 155.727 145.547H155.547V159.922H173.368V145.547H173.188C173.306 144.966 173.368 144.365 173.368 143.75Z" fill="#4BB9EC"/>
<path d="M164.556 131.172C157.678 131.172 152.081 136.815 152.081 143.75V159.922C152.081 161.908 153.675 163.516 155.645 163.516H173.466C175.436 163.516 177.03 161.908 177.03 159.922V143.75C177.03 136.815 171.434 131.172 164.556 131.172ZM164.556 138.359C167.504 138.359 169.902 140.778 169.902 143.75V145.547H159.21V143.75C159.21 140.778 161.608 138.359 164.556 138.359ZM159.21 156.328V152.734H169.902V156.328H159.21Z" fill="#7E5C62"/>
<path d="M84.363 177.891H66.5422V199.453H84.363V177.891Z" fill="#4BB9EC"/>
<path d="M84.3623 174.297H66.5415C64.5714 174.297 62.9773 175.904 62.9773 177.891V199.453C62.9773 201.44 64.5714 203.047 66.5415 203.047H84.3623C86.3323 203.047 87.9264 201.44 87.9264 199.453V177.891C87.9264 175.904 86.3323 174.297 84.3623 174.297ZM80.7981 181.484V185.078H70.1056V181.484H80.7981ZM70.1056 195.859V192.266H80.7981V195.859H70.1056Z" fill="#7E5C62"/>
<path d="M52.1872 177.891H34.3665V199.453H52.1872V177.891Z" fill="#4BB9EC"/>
<path d="M52.1865 174.297H34.3657C32.3956 174.297 30.8015 175.904 30.8015 177.891V199.453C30.8015 201.44 32.3956 203.047 34.3657 203.047H52.1865C54.1566 203.047 55.7506 201.44 55.7506 199.453V177.891C55.7506 175.904 54.1566 174.297 52.1865 174.297ZM48.6223 181.484V185.078H37.9298V181.484H48.6223ZM37.9298 195.859V192.266H48.6223V195.859H37.9298Z" fill="#7E5C62"/>
<path d="M205.544 177.891H187.723V199.453H205.544V177.891Z" fill="#4BB9EC"/>
<path d="M205.544 174.297H187.723C185.753 174.297 184.159 175.904 184.159 177.891V199.453C184.159 201.44 185.753 203.047 187.723 203.047H205.544C207.514 203.047 209.108 201.44 209.108 199.453V177.891C209.108 175.904 207.514 174.297 205.544 174.297ZM201.979 181.484V185.078H191.287V181.484H201.979ZM191.287 195.859V192.266H201.979V195.859H191.287Z" fill="#7E5C62"/>
<path d="M173.369 177.891H155.548V199.453H173.369V177.891Z" fill="#4BB9EC"/>
<path d="M173.368 174.297H155.547C153.577 174.297 151.983 175.904 151.983 177.891V199.453C151.983 201.44 153.577 203.047 155.547 203.047H173.368C175.338 203.047 176.932 201.44 176.932 199.453V177.891C176.932 175.904 175.338 174.297 173.368 174.297ZM169.804 181.484V185.078H159.111V181.484H169.804ZM159.111 195.859V192.266H169.804V195.859H159.111Z" fill="#7E5C62"/>
<path d="M205.348 143.75C205.348 138.788 201.358 134.766 196.437 134.766C191.516 134.766 187.527 138.788 187.527 143.75C187.527 144.365 187.59 144.966 187.706 145.547H187.527V159.922H205.348V145.547H205.168C205.285 144.966 205.348 144.365 205.348 143.75Z" fill="#4BB9EC"/>
<path d="M196.535 131.172C189.657 131.172 184.06 136.815 184.06 143.75V159.922C184.06 161.908 185.654 163.516 187.624 163.516H205.445C207.415 163.516 209.009 161.908 209.009 159.922V143.75C209.009 136.815 203.413 131.172 196.535 131.172ZM196.535 138.359C199.483 138.359 201.881 140.778 201.881 143.75V145.547H191.189V143.75C191.189 140.778 193.587 138.359 196.535 138.359ZM191.189 156.328V152.734H201.881V156.328H191.189Z" fill="#7E5C62"/>
<path d="M52.0889 143.75C52.0889 138.788 48.0997 134.766 43.1785 134.766C38.2573 134.766 34.2681 138.788 34.2681 143.75C34.2681 144.365 34.3309 144.966 34.4476 145.547H34.2681V159.922H52.0889V145.547H51.9093C52.0261 144.966 52.0889 144.365 52.0889 143.75Z" fill="#4BB9EC"/>
<path d="M43.2761 131.172C36.3981 131.172 30.8015 136.815 30.8015 143.75V159.922C30.8015 161.908 32.3956 163.516 34.3657 163.516H52.1865C54.1566 163.516 55.7506 161.908 55.7506 159.922V143.75C55.7506 136.815 50.154 131.172 43.2761 131.172ZM43.2761 138.359C46.2241 138.359 48.6223 140.778 48.6223 143.75V145.547H37.9298V143.75C37.9298 140.778 40.3281 138.359 43.2761 138.359ZM37.9298 156.328V152.734H48.6223V156.328H37.9298Z" fill="#7E5C62"/>
<path d="M84.0715 143.75C84.0715 138.788 80.0823 134.766 75.1611 134.766C70.2399 134.766 66.2507 138.788 66.2507 143.75C66.2507 144.365 66.3136 144.966 66.4303 145.547H66.2507V159.922H84.0715V145.547H83.892C84.0087 144.966 84.0715 144.365 84.0715 143.75Z" fill="#4BB9EC"/>
<path d="M75.2578 131.172C68.3798 131.172 62.7832 136.815 62.7832 143.75V159.922C62.7832 161.908 64.3773 163.516 66.3474 163.516H84.1682C86.1382 163.516 87.7323 161.908 87.7323 159.922V143.75C87.7323 136.815 82.1352 131.172 75.2578 131.172ZM75.2578 138.359C78.2058 138.359 80.604 140.778 80.604 143.75V145.547H69.9115V143.75C69.9115 140.778 72.3093 138.359 75.2578 138.359ZM69.9115 156.328V152.734H80.604V156.328H69.9115Z" fill="#7E5C62"/>
<path d="M120.004 145.547C106.247 145.547 95.0547 134.262 95.0547 120.391C95.0547 106.519 106.247 95.2344 120.004 95.2344C133.761 95.2344 144.953 106.519 144.953 120.391C144.953 134.262 133.761 145.547 120.004 145.547ZM120.004 102.422C110.178 102.422 102.183 110.482 102.183 120.391C102.183 130.299 110.178 138.359 120.004 138.359C129.83 138.359 137.825 130.299 137.825 120.391C137.825 110.482 129.83 102.422 120.004 102.422Z" fill="#7E5C62"/>
<path d="M134.26 156.328H105.747C99.8512 156.328 95.0547 161.164 95.0547 167.109V217.422C95.0547 219.408 96.6488 221.016 98.6188 221.016C100.589 221.016 102.183 219.408 102.183 217.422V177.891H116.342V217.422H123.47V177.891H137.825V217.422C137.825 219.408 139.419 221.016 141.389 221.016C143.359 221.016 144.953 219.408 144.953 217.422V167.109C144.953 161.164 140.156 156.328 134.26 156.328ZM137.825 170.703H102.183V167.109C102.183 165.127 103.781 163.516 105.747 163.516H134.26C136.227 163.516 137.825 165.127 137.825 167.109V170.703Z" fill="#7E5C62"/>
<path d="M230.493 221.016H9.51484C7.54475 221.016 5.95068 219.408 5.95068 217.422C5.95068 215.435 7.54475 213.828 9.51484 213.828H230.493C232.463 213.828 234.057 215.435 234.057 217.422C234.057 219.408 232.463 221.016 230.493 221.016Z" fill="#5C546A"/>
</g>
<defs>
<clipPath id="clip0">
<rect width="228.106" height="230" fill="white" transform="translate(5.95068)"/>
</clipPath>
</defs>
</svg>
