<svg width="64" height="64" viewBox="0 0 64 64" fill="none" xmlns="http://www.w3.org/2000/svg">
<g clip-path="url(#clip0)">
<path d="M60.9727 60.5H2.97266V33.5H14.9728L31.9727 16.5L48.973 33.5H60.9727V60.5Z" fill="#E6BE94"/>
<path d="M37.9727 48.5H25.9727V60.5H37.9727V48.5Z" fill="#996459"/>
<path d="M37.7227 44.5H26.2227C26.0845 44.5 25.9727 44.6119 25.9727 44.75V48.5H37.9727V44.75C37.9727 44.6119 37.8608 44.5 37.7227 44.5Z" fill="#4BB9EC"/>
<path d="M41.2021 8.5L42.832 6.05475C43.0361 5.74812 43.0556 5.35363 42.8817 5.02838C42.7079 4.70313 42.3691 4.5 42 4.5H32C31.4472 4.5 31 4.94725 31 5.5V11.5C31 12.0528 31.4472 12.5 32 12.5H42C42.3691 12.5 42.708 12.2969 42.8819 11.9716C43.0557 11.6464 43.0361 11.2519 42.8321 10.9452L41.2021 8.5Z" fill="#FF4F19"/>
<path d="M32 17.5C31.4473 17.5 31 17.0527 31 16.5V3.5C31 2.94725 31.4473 2.5 32 2.5C32.5528 2.5 33 2.94725 33 3.5V16.5C33 17.0527 32.5528 17.5 32 17.5Z" fill="#5C546A"/>
<path d="M36.0491 21.1173C36.2033 20.7433 36.5686 20.5 36.973 20.5H55.973C56.3147 20.5 56.6331 20.6748 56.8167 20.9629L63.8167 31.9629C64.013 32.2715 64.0247 32.6611 63.85 32.9814C63.6742 33.3008 63.3382 33.4999 62.973 33.4999H47.973C47.7074 33.4999 47.4535 33.3944 47.266 33.2069L36.266 22.2069C35.9797 21.9209 35.8937 21.4913 36.0491 21.1173Z" fill="#FF4F19"/>
<path d="M27.9239 21.1173C27.7695 20.7431 27.4043 20.5 27 20.5H8.00001C7.65826 20.5 7.33989 20.6748 7.15626 20.9629L0.156262 31.9629C-0.0399884 32.2715 -0.0517383 32.6611 0.123012 32.9814C0.298887 33.3008 0.634762 33.5 1.00001 33.5H16C16.2656 33.5 16.5195 33.3945 16.707 33.207L27.707 22.207C27.9931 21.9209 28.0791 21.4913 27.9239 21.1173Z" fill="#FF4F19"/>
<path d="M48.9864 34.4865C48.7305 34.4865 48.4746 34.3889 48.2794 34.1935L32 17.9142L15.7208 34.1935C15.3301 34.5841 14.6973 34.5841 14.3066 34.1935C13.916 33.8029 13.916 33.17 14.3066 32.7794L31.293 15.793C31.6836 15.4023 32.3165 15.4023 32.7071 15.793L49.6935 32.7794C50.0841 33.17 50.0841 33.8029 49.6935 34.1935C49.498 34.3887 49.2423 34.4865 48.9864 34.4865Z" fill="#E3001E"/>
<path d="M32 39.5C35.3137 39.5 38 36.8137 38 33.5C38 30.1863 35.3137 27.5 32 27.5C28.6863 27.5 26 30.1863 26 33.5C26 36.8137 28.6863 39.5 32 39.5Z" fill="#FFEBB7"/>
<path d="M32 29.5C31.4473 29.5 31 29.9473 31 30.5V32.5H29C28.4473 32.5 28 32.9472 28 33.5C28 34.0528 28.4473 34.5 29 34.5H32C32.5528 34.5 33 34.0528 33 33.5V30.5C33 29.9473 32.5528 29.5 32 29.5Z" fill="#5C546A"/>
<path d="M46.9727 40C46.9727 38.6193 45.8534 37.5 44.4727 37.5C43.0919 37.5 41.9727 38.6193 41.9727 40C41.9727 40.1713 41.9903 40.3384 42.023 40.5H41.9727V44.5H46.9727V40.5H46.9223C46.9552 40.3384 46.9727 40.1713 46.9727 40Z" fill="#4BB9EC"/>
<path d="M44.5 36.5C42.5703 36.5 41 38.0703 41 40V44.5C41 45.0527 41.4473 45.5 42 45.5H47C47.5528 45.5 48 45.0527 48 44.5V40C48 38.0703 46.4297 36.5 44.5 36.5ZM44.5 38.5C45.3271 38.5 46 39.1729 46 40V40.5H43V40C43 39.1729 43.6729 38.5 44.5 38.5ZM43 43.5V42.5H46V43.5H43Z" fill="#7E5C62"/>
<path d="M22 49.5H17V55.5H22V49.5Z" fill="#4BB9EC"/>
<path d="M22 48.5H17C16.4473 48.5 16 48.9473 16 49.5V55.5C16 56.0528 16.4473 56.5 17 56.5H22C22.5528 56.5 23 56.0528 23 55.5V49.5C23 48.9473 22.5528 48.5 22 48.5ZM21 50.5V51.5H18V50.5H21ZM18 54.5V53.5H21V54.5H18Z" fill="#7E5C62"/>
<path d="M12.9727 49.5H7.97266V55.5H12.9727V49.5Z" fill="#4BB9EC"/>
<path d="M12.9727 48.5H7.97266C7.41991 48.5 6.97266 48.9473 6.97266 49.5V55.5C6.97266 56.0528 7.41991 56.5 7.97266 56.5H12.9727C13.5254 56.5 13.9727 56.0528 13.9727 55.5V49.5C13.9727 48.9473 13.5254 48.5 12.9727 48.5ZM11.9727 50.5V51.5H8.97266V50.5H11.9727ZM8.97266 54.5V53.5H11.9727V54.5H8.97266Z" fill="#7E5C62"/>
<path d="M56 49.5H51V55.5H56V49.5Z" fill="#4BB9EC"/>
<path d="M56 48.5H51C50.4473 48.5 50 48.9473 50 49.5V55.5C50 56.0528 50.4473 56.5 51 56.5H56C56.5528 56.5 57 56.0528 57 55.5V49.5C57 48.9473 56.5528 48.5 56 48.5ZM55 50.5V51.5H52V50.5H55ZM52 54.5V53.5H55V54.5H52Z" fill="#7E5C62"/>
<path d="M46.9727 49.5H41.9727V55.5H46.9727V49.5Z" fill="#4BB9EC"/>
<path d="M46.9727 48.5H41.9727C41.4199 48.5 40.9727 48.9473 40.9727 49.5V55.5C40.9727 56.0528 41.4199 56.5 41.9727 56.5H46.9727C47.5254 56.5 47.9727 56.0528 47.9727 55.5V49.5C47.9727 48.9473 47.5254 48.5 46.9727 48.5ZM45.9727 50.5V51.5H42.9727V50.5H45.9727ZM42.9727 54.5V53.5H45.9727V54.5H42.9727Z" fill="#7E5C62"/>
<path d="M55.9453 40C55.9453 38.6193 54.8261 37.5 53.4453 37.5C52.0646 37.5 50.9453 38.6193 50.9453 40C50.9453 40.1713 50.9629 40.3384 50.9957 40.5H50.9453V44.5H55.9453V40.5H55.8949C55.9277 40.3384 55.9453 40.1713 55.9453 40Z" fill="#4BB9EC"/>
<path d="M53.4727 36.5C51.5429 36.5 49.9727 38.0703 49.9727 40V44.5C49.9727 45.0527 50.4199 45.5 50.9727 45.5H55.9727C56.5254 45.5 56.9727 45.0527 56.9727 44.5V40C56.9727 38.0703 55.4024 36.5 53.4727 36.5ZM53.4727 38.5C54.2998 38.5 54.9727 39.1729 54.9727 40V40.5H51.9727V40C51.9727 39.1729 52.6455 38.5 53.4727 38.5ZM51.9727 43.5V42.5H54.9727V43.5H51.9727Z" fill="#7E5C62"/>
<path d="M12.9453 40C12.9453 38.6193 11.8261 37.5 10.4453 37.5C9.06456 37.5 7.94531 38.6193 7.94531 40C7.94531 40.1713 7.96294 40.3384 7.99569 40.5H7.94531V44.5H12.9453V40.5H12.8949C12.9277 40.3384 12.9453 40.1713 12.9453 40Z" fill="#4BB9EC"/>
<path d="M10.4727 36.5C8.54291 36.5 6.97266 38.0703 6.97266 40V44.5C6.97266 45.0527 7.41991 45.5 7.97266 45.5H12.9727C13.5254 45.5 13.9727 45.0527 13.9727 44.5V40C13.9727 38.0703 12.4024 36.5 10.4727 36.5ZM10.4727 38.5C11.2998 38.5 11.9727 39.1729 11.9727 40V40.5H8.97266V40C8.97266 39.1729 9.64553 38.5 10.4727 38.5ZM8.97266 43.5V42.5H11.9727V43.5H8.97266Z" fill="#7E5C62"/>
<path d="M21.918 40C21.918 38.6193 20.7987 37.5 19.418 37.5C18.0372 37.5 16.918 38.6193 16.918 40C16.918 40.1713 16.9356 40.3384 16.9683 40.5H16.918V44.5H21.918V40.5H21.8676C21.9003 40.3384 21.918 40.1713 21.918 40Z" fill="#4BB9EC"/>
<path d="M19.4453 36.5C17.5156 36.5 15.9453 38.0703 15.9453 40V44.5C15.9453 45.0527 16.3926 45.5 16.9453 45.5H21.9453C22.4981 45.5 22.9453 45.0527 22.9453 44.5V40C22.9453 38.0703 21.3749 36.5 19.4453 36.5ZM19.4453 38.5C20.2724 38.5 20.9453 39.1729 20.9453 40V40.5H17.9453V40C17.9453 39.1729 18.6181 38.5 19.4453 38.5ZM17.9453 43.5V42.5H20.9453V43.5H17.9453Z" fill="#7E5C62"/>
<path d="M32 40.5C28.1401 40.5 25 37.3599 25 33.5C25 29.6401 28.1401 26.5 32 26.5C35.8599 26.5 39 29.6401 39 33.5C39 37.3599 35.8599 40.5 32 40.5ZM32 28.5C29.2431 28.5 27 30.7429 27 33.5C27 36.2571 29.2431 38.5 32 38.5C34.7569 38.5 37 36.2571 37 33.5C37 30.7429 34.7569 28.5 32 28.5Z" fill="#7E5C62"/>
<path d="M36 43.5H28C26.3458 43.5 25 44.8457 25 46.5V60.5C25 61.0527 25.4473 61.5 26 61.5C26.5528 61.5 27 61.0527 27 60.5V49.5H30.9726V60.5H32.9726V49.5H37V60.5C37 61.0527 37.4473 61.5 38 61.5C38.5528 61.5 39 61.0527 39 60.5V46.5C39 44.8457 37.6543 43.5 36 43.5ZM37 47.5H27V46.5C27 45.9483 27.4483 45.5 28 45.5H36C36.5518 45.5 37 45.9483 37 46.5V47.5Z" fill="#7E5C62"/>
<path d="M63 61.5H1C0.44725 61.5 0 61.0527 0 60.5C0 59.9473 0.44725 59.5 1 59.5H63C63.5527 59.5 64 59.9473 64 60.5C64 61.0527 63.5527 61.5 63 61.5Z" fill="#5C546A"/>
</g>
<defs>
<clipPath id="clip0">
<rect width="64" height="64" fill="white"/>
</clipPath>
</defs>
</svg>
