<svg width="48" height="48" viewBox="0 0 48 48" fill="none" xmlns="http://www.w3.org/2000/svg">
<path fill-rule="evenodd" clip-rule="evenodd" d="M2 24C2 11.8497 11.8497 2 24 2C36.1503 2 46 11.8497 46 24C46 36.1503 36.1503 46 24 46C11.8497 46 2 36.1503 2 24Z" fill="#F2AB3E"/>
<path fill-rule="evenodd" clip-rule="evenodd" d="M34.6214 16.0858C35.4024 16.8669 35.4024 18.1332 34.6214 18.9142L22.2072 31.9142C21.4261 32.6953 20.1598 32.6953 19.3788 31.9142L13.3788 25.9142C12.5977 25.1332 12.5977 23.8669 13.3788 23.0858C14.1598 22.3048 15.4261 22.3048 16.2072 23.0858L20.793 27.6716L31.793 16.0858C32.574 15.3048 33.8403 15.3048 34.6214 16.0858Z" fill="white"/>
</svg>
