<svg width="20" height="20" viewBox="0 0 20 20" fill="none" xmlns="http://www.w3.org/2000/svg">
<path fill-rule="evenodd" clip-rule="evenodd" d="M14.9998 2.49992C14.0794 2.49992 13.3332 3.24611 13.3332 4.16658C13.3332 5.08706 14.0794 5.83325 14.9998 5.83325C15.9203 5.83325 16.6665 5.08706 16.6665 4.16658C16.6665 3.24611 15.9203 2.49992 14.9998 2.49992ZM11.6665 4.16658C11.6665 2.32564 13.1589 0.833252 14.9998 0.833252C16.8408 0.833252 18.3332 2.32564 18.3332 4.16658C18.3332 6.00753 16.8408 7.49992 14.9998 7.49992C13.1589 7.49992 11.6665 6.00753 11.6665 4.16658Z" fill="#113255"/>
<path fill-rule="evenodd" clip-rule="evenodd" d="M4.99984 8.33325C4.07936 8.33325 3.33317 9.07944 3.33317 9.99992C3.33317 10.9204 4.07936 11.6666 4.99984 11.6666C5.92031 11.6666 6.6665 10.9204 6.6665 9.99992C6.6665 9.07944 5.92031 8.33325 4.99984 8.33325ZM1.6665 9.99992C1.6665 8.15897 3.15889 6.66658 4.99984 6.66658C6.84079 6.66658 8.33317 8.15897 8.33317 9.99992C8.33317 11.8409 6.84079 13.3333 4.99984 13.3333C3.15889 13.3333 1.6665 11.8409 1.6665 9.99992Z" fill="#113255"/>
<path fill-rule="evenodd" clip-rule="evenodd" d="M14.9998 14.1666C14.0794 14.1666 13.3332 14.9128 13.3332 15.8333C13.3332 16.7537 14.0794 17.4999 14.9998 17.4999C15.9203 17.4999 16.6665 16.7537 16.6665 15.8333C16.6665 14.9128 15.9203 14.1666 14.9998 14.1666ZM11.6665 15.8333C11.6665 13.9923 13.1589 12.4999 14.9998 12.4999C16.8408 12.4999 18.3332 13.9923 18.3332 15.8333C18.3332 17.6742 16.8408 19.1666 14.9998 19.1666C13.1589 19.1666 11.6665 17.6742 11.6665 15.8333Z" fill="#113255"/>
<path fill-rule="evenodd" clip-rule="evenodd" d="M6.77693 11.1337C7.00865 10.736 7.51886 10.6015 7.9165 10.8333L12.9165 13.7499C13.3142 13.9816 13.4487 14.4918 13.2169 14.8895C12.9852 15.2871 12.475 15.4216 12.0774 15.1899L7.07737 12.2733C6.67973 12.0415 6.54521 11.5313 6.77693 11.1337Z" fill="#113255"/>
<path fill-rule="evenodd" clip-rule="evenodd" d="M13.2162 5.11016C13.4482 5.50766 13.314 6.01795 12.9165 6.24992L7.92322 9.35606C7.52572 9.58804 7.01543 9.45385 6.78346 9.05635C6.55148 8.65885 6.68567 8.14856 7.08317 7.91658L12.0765 4.81044C12.474 4.57847 12.9842 4.71265 13.2162 5.11016Z" fill="#113255"/>
</svg>
