<svg width="24" height="24" viewBox="0 0 24 24" fill="none" xmlns="http://www.w3.org/2000/svg">
<circle cx="12" cy="12" r="12" fill="#FFDCDE"/>
<path fill-rule="evenodd" clip-rule="evenodd" d="M17.5893 6.41083C17.9148 6.73626 17.9148 7.2639 17.5893 7.58934L7.58934 17.5893C7.2639 17.9148 6.73626 17.9148 6.41083 17.5893C6.08539 17.2639 6.08539 16.7363 6.41083 16.4108L16.4108 6.41083C16.7363 6.08539 17.2639 6.08539 17.5893 6.41083Z" fill="#FE747D"/>
<path fill-rule="evenodd" clip-rule="evenodd" d="M6.41083 6.41083C6.73626 6.08539 7.2639 6.08539 7.58934 6.41083L17.5893 16.4108C17.9148 16.7363 17.9148 17.2639 17.5893 17.5893C17.2639 17.9148 16.7363 17.9148 16.4108 17.5893L6.41083 7.58934C6.08539 7.2639 6.08539 6.73626 6.41083 6.41083Z" fill="#FE747D"/>
</svg>
