<svg width="144" height="144" viewBox="0 0 144 144" fill="none" xmlns="http://www.w3.org/2000/svg">
<circle cx="72" cy="72" r="72" fill="#DBF5F8"/>
<circle cx="72" cy="72" r="55" fill="#11BDCF" fill-opacity="0.15"/>
<path fill-rule="evenodd" clip-rule="evenodd" d="M36 71.75C36 52.0058 52.0058 36 71.75 36C91.4942 36 107.5 52.0058 107.5 71.75C107.5 91.4942 91.4942 107.5 71.75 107.5C52.0058 107.5 36 91.4942 36 71.75Z" fill="#11BDCF"/>
<path fill-rule="evenodd" clip-rule="evenodd" d="M89.0098 58.8896C90.279 60.1589 90.279 62.2166 89.0098 63.4858L68.8367 84.6108C67.5675 85.88 65.5097 85.88 64.2405 84.6108L54.4905 74.8608C53.2213 73.5916 53.2213 71.5339 54.4905 70.2647C55.7597 68.9954 57.8175 68.9954 59.0867 70.2647L66.5386 77.7166L84.4136 58.8896C85.6828 57.6204 87.7406 57.6204 89.0098 58.8896Z" fill="white"/>
</svg>
