<svg width="64" height="64" viewBox="0 0 64 64" fill="none" xmlns="http://www.w3.org/2000/svg">
<path d="M50.1556 24.9064L29.2781 12.7569C27.9621 11.9912 26.3363 11.9912 25.0203 12.7569L4.14281 24.9064C3.64656 25.1952 3.34131 25.7262 3.34131 26.3002V27.0659V27.9124L24.7481 42.6594C26.1938 43.6554 28.1046 43.6554 29.5503 42.6594L50.9571 27.9124V27.0659V26.3002C50.9571 25.7262 50.6518 25.1952 50.1556 24.9064Z" fill="#2A4F77"/>
<path d="M24.7481 42.6601L3.34131 27.9131V56.4826C3.34131 57.4176 4.09931 58.1756 5.03431 58.1756H49.2641C50.1991 58.1756 50.9571 57.4176 50.9571 56.4826V27.9131L29.5503 42.6601C28.1046 43.6561 26.1938 43.6561 24.7481 42.6601Z" fill="#DBF5F8"/>
<path d="M49.2641 58.6757H5.03431C3.82506 58.6757 2.84131 57.6917 2.84131 56.4827V26.3009C2.84131 25.5517 3.24356 24.8519 3.89131 24.4749L24.7688 12.3254C26.2371 11.4709 28.0613 11.4709 29.5293 12.3254L50.4068 24.4749C51.0546 24.8519 51.4568 25.5517 51.4568 26.3009V56.4827C51.4571 57.6919 50.4733 58.6757 49.2641 58.6757ZM27.1491 12.6844C26.4998 12.6844 25.8508 12.8529 25.2718 13.1897L4.39431 25.3392C4.05331 25.5377 3.84131 25.9064 3.84131 26.3009V56.4827C3.84131 57.1407 4.37656 57.6757 5.03431 57.6757H49.2638C49.9216 57.6757 50.4568 57.1404 50.4568 56.4827V26.3009C50.4568 25.9064 50.2448 25.5377 49.9038 25.3392L29.0263 13.1897C28.4476 12.8529 27.7983 12.6844 27.1491 12.6844Z" fill="#2A4F77"/>
<path d="M24.7482 42.6595C26.1939 43.6555 28.1047 43.6555 29.5504 42.6595L45.2744 31.8275V8.19727C45.2744 6.81652 44.1552 5.69727 42.7744 5.69727H11.5244C10.1437 5.69727 9.02441 6.81652 9.02441 8.19727V31.8275L24.7482 42.6595Z" fill="#E0EBFC"/>
<path d="M29.5503 42.6599C28.1046 43.6559 26.1938 43.6559 24.7481 42.6599L23.4628 41.7744L3.34131 55.6359V56.4824C3.34131 57.4174 4.09931 58.1754 5.03431 58.1754H49.2641C50.1991 58.1754 50.9571 57.4174 50.9571 56.4824V55.6359L30.8356 41.7744L29.5503 42.6599Z" fill="#DBF5F8"/>
<path d="M49.2641 58.6751H5.03431C3.82506 58.6751 2.84131 57.6913 2.84131 56.4823V55.6359C2.84131 55.4714 2.92231 55.3176 3.05756 55.2241L23.1791 41.3626C23.3501 41.2454 23.5756 41.2449 23.7466 41.3626L25.0318 42.2484C26.2983 43.1204 28.0001 43.1206 29.2668 42.2481L30.5518 41.3629C30.7228 41.2451 30.9483 41.2449 31.1193 41.3626L51.2408 55.2241C51.3763 55.3176 51.4571 55.4714 51.4571 55.6359V56.4823C51.4571 57.6916 50.4733 58.6751 49.2641 58.6751ZM3.84131 55.8986V56.4823C3.84131 57.1401 4.37656 57.6751 5.03431 57.6751H49.2638C49.9216 57.6751 50.4568 57.1398 50.4568 56.4823V55.8986L30.8353 42.3816L29.8338 43.0716V43.0719C28.2281 44.1781 26.0703 44.1779 24.4643 43.0719L23.4626 42.3816L3.84131 55.8986ZM29.5503 42.6599H29.5528H29.5503Z" fill="#2A4F77"/>
<path d="M40.2744 12.6973H14.0244C13.4722 12.6973 13.0244 12.2495 13.0244 11.6973C13.0244 11.145 13.4722 10.6973 14.0244 10.6973H40.2744C40.8267 10.6973 41.2744 11.145 41.2744 11.6973C41.2744 12.2495 40.8267 12.6973 40.2744 12.6973Z" fill="#11BDCF"/>
<path d="M40.2744 18.6973H14.0244C13.4722 18.6973 13.0244 18.2495 13.0244 17.6973C13.0244 17.145 13.4722 16.6973 14.0244 16.6973H40.2744C40.8267 16.6973 41.2744 17.145 41.2744 17.6973C41.2744 18.2495 40.8267 18.6973 40.2744 18.6973Z" fill="#11BDCF"/>
<path d="M40.2744 24.6973H14.0244C13.4722 24.6973 13.0244 24.2495 13.0244 23.6973C13.0244 23.145 13.4722 22.6973 14.0244 22.6973H40.2744C40.8267 22.6973 41.2744 23.145 41.2744 23.6973C41.2744 24.2495 40.8267 24.6973 40.2744 24.6973Z" fill="#11BDCF"/>
<path d="M40.2744 30.6973H14.0244C13.4722 30.6973 13.0244 30.2495 13.0244 29.6973C13.0244 29.145 13.4722 28.6973 14.0244 28.6973H40.2744C40.8267 28.6973 41.2744 29.145 41.2744 29.6973C41.2744 30.2495 40.8267 30.6973 40.2744 30.6973Z" fill="#11BDCF"/>
<path d="M49.2641 58.6758H5.03431C3.82506 58.6758 2.84131 57.6918 2.84131 56.4828V27.9133C2.84131 27.7275 2.94431 27.557 3.10881 27.4705C3.27306 27.384 3.47181 27.396 3.62506 27.5013L25.0318 42.248C26.2983 43.1205 28.0003 43.121 29.2666 42.248L50.6731 27.5013C50.8261 27.3963 51.0251 27.384 51.1893 27.4705C51.3538 27.557 51.4568 27.7273 51.4568 27.9133V56.4828C51.4571 57.692 50.4733 58.6758 49.2641 58.6758ZM3.84131 28.865V56.4828C3.84131 57.1408 4.37656 57.6758 5.03431 57.6758H49.2638C49.9216 57.6758 50.4568 57.1405 50.4568 56.4828V28.865L29.8338 43.072C28.2281 44.1783 26.0701 44.1788 24.4641 43.0718L3.84131 28.865Z" fill="#2A4F77"/>
<path d="M48.4573 55.4829C53.8538 55.4829 58.2285 51.1082 58.2285 45.7117C58.2285 40.3152 53.8538 35.9404 48.4573 35.9404C43.0608 35.9404 38.686 40.3152 38.686 45.7117C38.686 51.1082 43.0608 55.4829 48.4573 55.4829Z" fill="#FE747D"/>
<path d="M48.4573 52.9829C44.4478 52.9829 41.186 49.7209 41.186 45.7117C41.186 41.7024 44.4478 38.4404 48.4573 38.4404C52.4668 38.4404 55.7285 41.7024 55.7285 45.7117C55.7285 49.7209 52.4665 52.9829 48.4573 52.9829Z" fill="#FFDCDE"/>
<path d="M48.4573 55.9829C42.7938 55.9829 38.186 51.3752 38.186 45.7117C38.186 40.0482 42.7938 35.4404 48.4573 35.4404C54.121 35.4404 58.7285 40.0482 58.7285 45.7117C58.7285 51.3752 54.1208 55.9829 48.4573 55.9829ZM48.4573 36.4404C43.345 36.4404 39.186 40.5997 39.186 45.7117C39.186 50.8237 43.345 54.9829 48.4573 54.9829C53.5695 54.9829 57.7285 50.8237 57.7285 45.7117C57.7285 40.5997 53.5695 36.4404 48.4573 36.4404Z" fill="#3762CC"/>
<path d="M48.0106 46.2182L48.3651 52.5512C48.3909 53.0127 48.9506 53.2264 49.2776 52.8994L49.7096 52.4674C49.9186 52.2584 50.2574 52.2584 50.4661 52.4674L56.1441 58.1454C56.3531 58.3544 56.6919 58.3544 56.9006 58.1454L60.5018 54.5442C60.7108 54.3352 60.7108 53.9964 60.5018 53.7877L54.8239 48.1097C54.6149 47.9007 54.6149 47.5619 54.8239 47.3532L55.2559 46.9212C55.5829 46.5942 55.3691 46.0347 54.9076 46.0087L48.5746 45.6542C48.2561 45.6364 47.9929 45.8997 48.0106 46.2182Z" fill="#11BDCF"/>
<path d="M27.1494 43.9008C26.2084 43.9008 25.2677 43.6245 24.4647 43.071V43.0713L8.74066 32.2393C8.60516 32.1458 8.52441 31.992 8.52441 31.8275V8.19727C8.52441 6.54302 9.87016 5.19727 11.5244 5.19727H42.7744C44.4287 5.19727 45.7744 6.54302 45.7744 8.19727V31.8275C45.7744 31.992 45.6934 32.1458 45.5582 32.2393L29.8342 43.0713C29.0314 43.6243 28.0902 43.9008 27.1494 43.9008ZM9.52441 31.5648L25.0319 42.2475C26.2984 43.12 28.0004 43.1205 29.2667 42.2475L44.7742 31.5648V8.19727C44.7742 7.09452 43.8769 6.19727 42.7742 6.19727H11.5242C10.4214 6.19727 9.52416 7.09452 9.52416 8.19727V31.5648H9.52441Z" fill="#2A4F77"/>
</svg>
