<svg width="243" height="255" viewBox="0 0 243 255" fill="none" xmlns="http://www.w3.org/2000/svg">
<path d="M89.3813 42.6855C29.2137 42.685 4.39216 109.842 0.246613 161.148C-3.89894 212.453 44.9835 255 89.3813 255C157.388 255 216.023 213.827 235.115 166.153C277.626 59.9987 134.118 42.686 89.3813 42.6855Z" fill="#11BDCF" fill-opacity="0.15"/>
<path d="M177.892 122.301L176.706 132.97L175.906 140.158H75.2813L74.4817 132.97L73.2957 122.301C72.2415 112.806 73.6653 103.2 77.4286 94.4184C80.7434 86.6794 82.249 78.2862 81.8309 69.8775L81.2065 57.4432C80.9063 51.4278 81.8318 45.4142 83.927 39.7676C86.0221 34.1209 89.2431 28.959 93.3944 24.5954C97.5457 20.2317 102.541 16.7574 108.076 14.3834C113.611 12.0093 119.571 10.7852 125.594 10.7852C131.617 10.7852 137.577 12.0093 143.112 14.3834C148.647 16.7574 153.642 20.2317 157.793 24.5954C161.944 28.959 165.165 34.1209 167.261 39.7676C169.356 45.4142 170.281 51.4278 169.981 57.4432L169.357 69.8775C168.939 78.2862 170.444 86.6794 173.759 94.4184C177.524 103.199 178.947 112.806 177.892 122.301V122.301Z" fill="#8F4D2E"/>
<path d="M177.893 122.3L176.707 132.969H136.376V93.4375L143.563 79.0625V50.3125C143.559 41.649 140.711 33.2264 135.457 26.3376C130.204 19.4488 122.835 14.4745 114.481 12.1783C121.23 10.4459 128.292 10.3229 135.098 11.8193C141.903 13.3158 148.262 16.3898 153.662 20.7937C159.062 25.1977 163.352 30.8084 166.187 37.1739C169.022 43.5394 170.321 50.4817 169.982 57.4416L169.357 69.876C168.939 78.2846 170.445 86.6778 173.76 94.4168C177.524 103.198 178.948 112.804 177.893 122.3V122.3Z" fill="#82462A"/>
<path d="M145 125.781C144.339 125.782 143.685 125.652 143.074 125.399C142.464 125.146 141.909 124.776 141.442 124.308C140.974 123.841 140.604 123.286 140.351 122.676C140.098 122.065 139.968 121.411 139.969 120.75V97.0312H111.219V120.75C111.219 121.411 111.089 122.065 110.836 122.676C110.584 123.286 110.213 123.841 109.746 124.308C109.279 124.776 108.724 125.146 108.113 125.399C107.503 125.652 106.848 125.782 106.188 125.781H100.438V147.344H150.75V125.781H145Z" fill="#FEC9A3"/>
<path d="M127.761 115C132.211 114.951 136.513 113.399 139.969 110.595V97.0312H111.219V110.593C114.674 113.398 118.977 114.951 123.427 115H127.761Z" fill="#FEB784"/>
<path d="M157.938 57.5V75.4688C157.937 84.0468 154.53 92.2736 148.464 98.3392C142.399 104.405 134.172 107.812 125.594 107.812C117.016 107.812 108.789 104.405 102.723 98.3392C96.6576 92.2736 93.25 84.0468 93.25 75.4688V57.5C100.316 52.7912 106.03 46.3185 109.826 38.7227L111.219 35.9375L113.258 37.64C122.187 45.0807 132.481 50.7109 143.562 54.2162C148.256 55.7038 153.064 56.8021 157.938 57.5V57.5Z" fill="#FEC9A3"/>
<path d="M157.937 57.4986V75.4674C157.935 82.9746 155.323 90.2477 150.549 96.0409C145.774 101.834 139.134 105.787 131.765 107.223C135.507 103.55 138.477 99.1672 140.503 94.3314C142.529 89.4956 143.569 84.304 143.562 79.0611V54.2148C148.255 55.7024 153.063 56.8007 157.937 57.4986V57.4986Z" fill="#FEC093"/>
<path d="M109.422 71.875C108.356 71.875 107.313 71.5589 106.427 70.9665C105.541 70.3742 104.85 69.5323 104.442 68.5473C104.034 67.5623 103.927 66.4784 104.135 65.4327C104.343 64.387 104.856 63.4265 105.61 62.6726C106.364 61.9187 107.325 61.4053 108.37 61.1973C109.416 60.9893 110.5 61.0961 111.485 61.5041C112.47 61.9121 113.312 62.603 113.904 63.4895C114.496 64.376 114.813 65.4182 114.813 66.4844C114.811 67.9136 114.243 69.2838 113.232 70.2944C112.221 71.305 110.851 71.8735 109.422 71.875V71.875Z" fill="#7A432A"/>
<path d="M141.766 71.875C140.699 71.875 139.657 71.5589 138.771 70.9665C137.884 70.3742 137.193 69.5323 136.785 68.5473C136.377 67.5623 136.271 66.4784 136.479 65.4327C136.687 64.387 137.2 63.4265 137.954 62.6726C138.708 61.9187 139.668 61.4053 140.714 61.1973C141.76 60.9893 142.843 61.0961 143.829 61.5041C144.814 61.9121 145.655 62.603 146.248 63.4895C146.84 64.376 147.156 65.4182 147.156 66.4844C147.155 67.9136 146.586 69.2838 145.576 70.2944C144.565 71.305 143.195 71.8735 141.766 71.875Z" fill="#7A432A"/>
<path d="M125.594 89.8438C122.735 89.8405 119.995 88.7036 117.974 86.6825C115.953 84.6613 114.816 81.9209 114.812 79.0625H122C122 80.0156 122.379 80.9297 123.053 81.6037C123.727 82.2776 124.641 82.6562 125.594 82.6562C126.547 82.6562 127.461 82.2776 128.135 81.6037C128.809 80.9297 129.188 80.0156 129.188 79.0625H136.375C136.372 81.9209 135.235 84.6613 133.214 86.6825C131.193 88.7036 128.452 89.8405 125.594 89.8438V89.8438Z" fill="#F7A468"/>
<path d="M107.625 140.156H143.562V165.312H107.625V140.156Z" fill="#DBF5F8"/>
<path d="M198.803 219.071C196.253 219.495 193.636 219.001 191.417 217.675C189.198 216.35 187.522 214.28 186.687 211.834L162.951 167.303C164.462 171.821 164.795 176.65 163.917 181.333C163.04 186.016 160.982 190.398 157.937 194.062V222.812H93.2498V194.062C90.1613 190.355 88.082 185.914 87.2132 181.167C86.3444 176.421 86.7154 171.531 88.2904 166.97L64.1674 211.834C63.2415 214.556 61.2774 216.803 58.7027 218.085C56.1281 219.366 53.1514 219.579 50.4209 218.676C47.6904 217.773 45.4271 215.828 44.1239 213.264C42.8207 210.7 42.5831 207.726 43.4629 204.988L69.85 139.307C71.4534 135.313 74.216 131.89 77.7819 129.479C81.3479 127.068 85.5539 125.78 89.8582 125.781H104.031L125.594 165.312L147.156 125.781H161.275C165.591 125.784 169.808 127.082 173.379 129.506C176.951 131.93 179.713 135.369 181.31 139.379L207.396 204.988C207.873 206.478 208.023 208.054 207.837 209.607C207.651 211.161 207.133 212.657 206.317 213.993C205.502 215.328 204.409 216.473 203.113 217.349C201.816 218.226 200.346 218.813 198.803 219.071V219.071Z" fill="#2A4F77"/>
<path d="M40.3462 206.196L42.9382 172.5H64.5007V207.124C64.5007 210.331 63.2264 213.408 60.9581 215.676C58.6898 217.944 55.6133 219.219 52.4055 219.219C50.739 219.219 49.0904 218.874 47.5633 218.207C46.0361 217.54 44.6633 216.564 43.531 215.342C42.3987 214.119 41.5313 212.675 40.9833 211.101C40.4352 209.528 40.2183 207.858 40.3462 206.196V206.196Z" fill="#2A4F77"/>
<path d="M51.3922 120.076C50.3766 120.33 49.431 120.809 48.6252 121.477C47.8194 122.145 47.1739 122.986 46.7365 123.937C46.299 124.888 46.0808 125.925 46.0978 126.972C46.1148 128.019 46.3668 129.048 46.8349 129.985L50.125 136.562H37.2463C33.8989 136.563 30.5975 135.783 27.6034 134.286L24.0222 132.496C23.3648 132.167 22.6342 132.012 21.8999 132.045C21.1656 132.078 20.4519 132.298 19.8266 132.685C19.2013 133.071 18.6852 133.611 18.3272 134.253C17.9692 134.895 17.7813 135.618 17.7812 136.353V146.495C17.7813 147.83 18.153 149.138 18.8548 150.274C19.5565 151.409 20.5607 152.327 21.7546 152.924L27.6034 155.849C30.5975 157.346 33.8989 158.125 37.2463 158.125H64.5V136.562L59.5788 124.26C58.9506 122.691 57.7751 121.402 56.27 120.633C54.7648 119.864 53.032 119.666 51.3922 120.076V120.076Z" fill="#FEC9A3"/>
<path d="M42.9375 158.125H64.5V172.5H42.9375V158.125Z" fill="#DBF5F8"/>
<path d="M198.803 219.068C196.254 219.493 193.637 218.998 191.418 217.673C189.199 216.348 187.523 214.277 186.688 211.831L162.951 167.3C164.462 171.819 164.795 176.648 163.918 181.331C163.041 186.014 160.982 190.395 157.938 194.06V222.81H94.4319C124.094 203.44 149.12 178.859 170.125 127.684C175.233 129.978 179.245 134.173 181.311 139.377L207.397 204.985C207.873 206.476 208.024 208.051 207.838 209.605C207.651 211.159 207.133 212.654 206.318 213.99C205.503 215.326 204.41 216.471 203.113 217.347C201.817 218.223 200.347 218.81 198.803 219.068V219.068Z" fill="#08384D"/>
<path d="M175.906 208.438L139.969 201.25V150.938L175.906 158.125V208.438Z" fill="#A36548"/>
<path d="M190.281 208.438L226.219 201.25V150.938L190.281 158.125V208.438Z" fill="#8F4D2E"/>
<path d="M175.906 158.125H190.281V208.438H175.906V158.125Z" fill="#95573A"/>
<path d="M183.094 158.125C183.094 155.112 182.025 152.197 180.078 149.899C178.131 147.6 175.431 146.067 172.459 145.571L139.969 140.156V150.938L175.906 158.125H183.094C183.094 155.112 184.162 152.197 186.11 149.899C188.057 147.6 190.756 146.067 193.728 145.571L226.219 140.156V150.938L190.281 158.125H183.094Z" fill="#D4BD81"/>
<path d="M219.622 208.094L205.247 210.49C204.732 210.576 204.205 210.548 203.702 210.41C203.199 210.271 202.732 210.025 202.333 209.687C201.935 209.35 201.615 208.93 201.396 208.456C201.176 207.983 201.063 207.467 201.063 206.945V193.588C201.062 192.48 201.455 191.409 202.171 190.564C202.886 189.719 203.879 189.155 204.971 188.973L217.177 186.939C217.847 186.827 218.534 186.862 219.189 187.043C219.844 187.223 220.452 187.544 220.971 187.983C221.489 188.423 221.906 188.97 222.191 189.586C222.477 190.203 222.625 190.874 222.625 191.554V204.549C222.625 205.4 222.323 206.223 221.773 206.872C221.223 207.521 220.461 207.954 219.622 208.094Z" fill="#FEC9A3"/>
</svg>
