<svg width="64" height="64" viewBox="0 0 64 64" fill="none" xmlns="http://www.w3.org/2000/svg">
<path d="M47.5525 34.0316L47.2225 37.0003L47 39.0003H19L18.7775 37.0003L18.4475 34.0316C18.1541 31.3894 18.5503 28.7163 19.5975 26.2728C20.5199 24.1194 20.9388 21.7839 20.8225 19.4441L20.6487 15.9841C20.5652 14.3102 20.8227 12.6369 21.4057 11.0656C21.9887 9.4944 22.885 8.05805 24.0402 6.84382C25.1953 5.62959 26.5852 4.66282 28.1254 4.00222C29.6656 3.34162 31.3241 3.00098 33 3.00098C34.6759 3.00098 36.3343 3.34162 37.8746 4.00222C39.4148 4.66282 40.8047 5.62959 41.9598 6.84382C43.115 8.05805 44.0112 9.4944 44.5942 11.0656C45.1772 12.6369 45.4348 14.3102 45.3512 15.9841L45.1775 19.4441C45.0611 21.7839 45.4801 24.1194 46.4025 26.2728C47.45 28.7162 47.8462 31.3894 47.5525 34.0316Z" fill="#8F4D2E"/>
<path d="M47.5527 34.0312L47.2227 37H36.0002V26L38.0002 22V14C37.9989 11.5893 37.2065 9.24561 35.7447 7.32873C34.2828 5.41185 32.2322 4.0277 29.9077 3.38875C31.7858 2.90667 33.7508 2.87246 35.6446 3.28886C37.5383 3.70526 39.3077 4.56064 40.8103 5.78608C42.3129 7.01153 43.5067 8.57277 44.2955 10.344C45.0842 12.1153 45.446 14.0471 45.3515 15.9838L45.1777 19.4438C45.0614 21.7835 45.4803 24.119 46.4027 26.2725C47.4502 28.7159 47.8464 31.3891 47.5527 34.0312Z" fill="#82462A"/>
<path d="M38.4 35C38.2161 35.0001 38.034 34.964 37.8641 34.8936C37.6942 34.8233 37.5399 34.7202 37.4098 34.5902C37.2798 34.4601 37.1767 34.3058 37.1064 34.1359C37.036 33.966 36.9999 33.7839 37 33.6V27H29V33.6C29.0001 33.7839 28.964 33.966 28.8936 34.1359C28.8233 34.3058 28.7202 34.4601 28.5902 34.5902C28.4601 34.7202 28.3058 34.8233 28.1359 34.8936C27.966 34.964 27.7839 35.0001 27.6 35H26V41H40V35H38.4Z" fill="#FEC9A3"/>
<path d="M33.603 32C34.8412 31.9864 36.0384 31.5544 37 30.7741V27H29V30.7738C29.9615 31.5541 31.1587 31.9863 32.397 32H33.603Z" fill="#FEB784"/>
<path d="M42 16V21C42 23.3869 41.0518 25.6761 39.364 27.364C37.6761 29.0518 35.3869 30 33 30C30.6131 30 28.3239 29.0518 26.636 27.364C24.9482 25.6761 24 23.3869 24 21V16C25.9663 14.6897 27.5562 12.8886 28.6125 10.775L29 10L29.5675 10.4738C32.0522 12.5442 34.9163 14.1109 38 15.0863C39.306 15.5002 40.6438 15.8058 42 16Z" fill="#FEC9A3"/>
<path d="M41.9998 15.9997V20.9997C41.9993 23.0886 41.2726 25.1125 39.944 26.7245C38.6154 28.3365 36.7677 29.4365 34.7173 29.8359C35.7584 28.814 36.585 27.5944 37.1487 26.2488C37.7124 24.9032 38.0017 23.4586 37.9998 21.9997V15.0859C39.3058 15.4999 40.6436 15.8055 41.9998 15.9997Z" fill="#FEC093"/>
<path d="M28.5 20C28.2033 20 27.9133 19.912 27.6666 19.7472C27.42 19.5824 27.2277 19.3481 27.1142 19.074C27.0007 18.7999 26.9709 18.4983 27.0288 18.2074C27.0867 17.9164 27.2296 17.6491 27.4393 17.4393C27.6491 17.2296 27.9164 17.0867 28.2074 17.0288C28.4983 16.9709 28.7999 17.0007 29.074 17.1142C29.3481 17.2277 29.5824 17.42 29.7472 17.6666C29.912 17.9133 30 18.2033 30 18.5C29.9996 18.8977 29.8414 19.279 29.5602 19.5602C29.279 19.8414 28.8977 19.9996 28.5 20Z" fill="#7A432A"/>
<path d="M37.5 20C37.2033 20 36.9133 19.912 36.6666 19.7472C36.42 19.5824 36.2277 19.3481 36.1142 19.074C36.0006 18.7999 35.9709 18.4983 36.0288 18.2074C36.0867 17.9164 36.2296 17.6491 36.4393 17.4393C36.6491 17.2296 36.9164 17.0867 37.2074 17.0288C37.4983 16.9709 37.7999 17.0007 38.074 17.1142C38.3481 17.2277 38.5824 17.42 38.7472 17.6666C38.912 17.9133 39 18.2033 39 18.5C38.9996 18.8977 38.8414 19.279 38.5602 19.5602C38.279 19.8414 37.8977 19.9996 37.5 20Z" fill="#7A432A"/>
<path d="M33 25C32.2046 24.9991 31.4421 24.6828 30.8797 24.1203C30.3172 23.5579 30.0009 22.7954 30 22H32C32 22.2652 32.1054 22.5196 32.2929 22.7071C32.4804 22.8946 32.7348 23 33 23C33.2652 23 33.5196 22.8946 33.7071 22.7071C33.8946 22.5196 34 22.2652 34 22H36C35.9991 22.7954 35.6828 23.5579 35.1203 24.1203C34.5579 24.6828 33.7954 24.9991 33 25Z" fill="#F7A468"/>
<path d="M28 39H38V46H28V39Z" fill="#DBF5F8"/>
<path d="M53.3714 60.9588C52.662 61.0769 51.9337 60.9393 51.3163 60.5705C50.6989 60.2017 50.2324 59.6256 50.0002 58.945L43.3952 46.5537C43.8157 47.811 43.9083 49.1549 43.6642 50.4579C43.4201 51.761 42.8473 52.9802 42.0002 54V62H24.0002V54C23.1408 52.9684 22.5622 51.7325 22.3204 50.4118C22.0787 49.0911 22.1819 47.7304 22.6202 46.4613L15.9077 58.945C15.65 59.7026 15.1035 60.3278 14.3871 60.6844C13.6707 61.041 12.8424 61.1001 12.0826 60.8489C11.3228 60.5976 10.693 60.0564 10.3304 59.343C9.96774 58.6297 9.90163 57.8019 10.1464 57.04L17.4889 38.7637C17.9351 37.6522 18.7038 36.6997 19.6961 36.0289C20.6883 35.3582 21.8587 34.9998 23.0564 35H27.0002L33.0002 46L39.0002 35H42.9289C44.13 35.0008 45.3033 35.3618 46.2971 36.0363C47.2909 36.7108 48.0596 37.6679 48.5039 38.7837L55.7627 57.04C55.8953 57.4548 55.9371 57.8932 55.8853 58.3256C55.8335 58.7579 55.6893 59.1741 55.4625 59.5458C55.2356 59.9175 54.9315 60.236 54.5707 60.4798C54.2099 60.7236 53.8009 60.887 53.3714 60.9588Z" fill="#2A4F77"/>
<path d="M9.27897 57.3763L10.0002 48H16.0002V57.6344C16.0002 58.527 15.6456 59.3831 15.0145 60.0142C14.3833 60.6454 13.5272 61 12.6346 61C12.1709 61 11.7121 60.9042 11.2872 60.7185C10.8622 60.5329 10.4803 60.2614 10.1652 59.9212C9.8501 59.5809 9.60874 59.1792 9.45624 58.7413C9.30373 58.3033 9.24338 57.8386 9.27897 57.3763Z" fill="#2A4F77"/>
<path d="M12.3526 33.4126C12.07 33.4833 11.8069 33.6165 11.5827 33.8025C11.3584 33.9884 11.1788 34.2223 11.0571 34.487C10.9354 34.7516 10.8746 35.0402 10.8794 35.3315C10.8841 35.6228 10.9542 35.9092 11.0845 36.1698L12 38.0001H8.41638C7.48492 38.0002 6.56625 37.7833 5.73313 37.3668L4.73663 36.8685C4.55368 36.7771 4.35039 36.7339 4.14606 36.7431C3.94172 36.7523 3.74313 36.8135 3.56914 36.9211C3.39515 37.0286 3.25153 37.1788 3.15192 37.3574C3.05231 37.5361 3.00001 37.7372 3 37.9418V40.764C3 41.1354 3.10344 41.4995 3.29872 41.8155C3.49399 42.1315 3.7734 42.3868 4.10563 42.5529L5.73313 43.3668C6.56625 43.7833 7.48492 44.0002 8.41638 44.0001H16V38.0001L14.6306 34.5768C14.4558 34.1401 14.1287 33.7816 13.7099 33.5676C13.2911 33.3535 12.8089 33.2985 12.3526 33.4126Z" fill="#FEC9A3"/>
<path d="M10 44H16V48H10V44Z" fill="#DBF5F8"/>
<path d="M53.3716 60.958C52.6622 61.0762 51.9339 60.9386 51.3164 60.5698C50.699 60.201 50.2326 59.6249 50.0004 58.9443L43.3954 46.553C43.8159 47.8103 43.9085 49.1542 43.6643 50.4572C43.4202 51.7603 42.8475 52.9795 42.0004 53.9993V61.9993H24.3291C32.5829 56.6093 39.5466 49.7693 45.3916 35.5293C46.8128 36.1679 47.9292 37.335 48.5041 38.783L55.7629 57.0393C55.8954 57.4541 55.9373 57.8925 55.8855 58.3249C55.8337 58.7572 55.6895 59.1734 55.4626 59.5451C55.2358 59.9168 54.9317 60.2353 54.5709 60.4791C54.2101 60.7229 53.8011 60.8863 53.3716 60.958Z" fill="#08384D"/>
<path d="M47 58L37 56V42L47 44V58Z" fill="#A36548"/>
<path d="M51 58L61 56V42L51 44V58Z" fill="#8F4D2E"/>
<path d="M47 44H51V58H47V44Z" fill="#95573A"/>
<path d="M49 44C49 43.1617 48.7026 42.3506 48.1608 41.7109C47.6189 41.0713 46.8678 40.6446 46.0409 40.5067L37 39V42L47 44H49C49 43.1617 49.2974 42.3506 49.8392 41.7109C50.3811 41.0713 51.1322 40.6446 51.9591 40.5067L61 39V42L51 44H49Z" fill="#D4BD81"/>
<path d="M59.1644 57.9044L55.1644 58.5711C55.0211 58.595 54.8744 58.5874 54.7344 58.5488C54.5944 58.5102 54.4644 58.4416 54.3536 58.3478C54.2428 58.2539 54.1538 58.137 54.0927 58.0052C54.0316 57.8735 54 57.73 54 57.5848V53.8679C54 53.5598 54.1092 53.2616 54.3084 53.0265C54.5075 52.7914 54.7836 52.6346 55.0875 52.5839L58.484 52.0178C58.6705 51.9866 58.8616 51.9965 59.0439 52.0467C59.2262 52.0969 59.3953 52.1862 59.5396 52.3084C59.6839 52.4307 59.7998 52.5828 59.8793 52.7544C59.9588 52.926 60 53.1128 60 53.3019V56.918C60 57.1547 59.916 57.3838 59.763 57.5644C59.61 57.745 59.3979 57.8655 59.1644 57.9044Z" fill="#FEC9A3"/>
</svg>
