<svg width="20" height="20" viewBox="0 0 20 20" fill="none" xmlns="http://www.w3.org/2000/svg">
<path d="M16.6666 10C16.6666 8.08333 15.8333 6.41667 14.5833 5.16667L14.3333 2.25C14.1666 1 13.1666 0 11.8333 0H8.16658C6.91659 0 5.83325 1 5.66659 2.25L5.41659 5.16667C4.16659 6.33333 3.33325 8.08333 3.33325 10C3.33325 11.9167 4.16659 13.6667 5.41659 14.8333L5.66659 17.75C5.83325 19 6.91659 20 8.16658 20H11.7499C13.0833 20 14.0833 19 14.2499 17.75L14.4999 14.9167C15.8333 13.6667 16.6666 11.9167 16.6666 10ZM7.33325 2.41667C7.33325 2 7.74992 1.66667 8.16658 1.66667H11.8333C12.2499 1.66667 12.5833 2 12.6666 2.41667L12.8333 3.91667C11.9166 3.58333 10.9999 3.33333 9.99992 3.33333C8.99992 3.33333 8.08325 3.58333 7.24992 3.91667L7.33325 2.41667ZM4.99992 10C4.99992 7.25 7.24992 5 9.99992 5C12.7499 5 14.9999 7.25 14.9999 10C14.9999 11.5 14.3333 12.9167 13.2499 13.8333C12.4166 14.5833 11.2499 15 9.99992 15C7.24992 15 4.99992 12.75 4.99992 10ZM12.6666 17.5833C12.6666 18 12.2499 18.3333 11.8333 18.3333H8.16658C7.74992 18.3333 7.41659 18 7.33325 17.5833L7.16659 16.0833C7.99992 16.5 8.91658 16.6667 9.91658 16.6667C10.9166 16.6667 11.8333 16.4167 12.6666 16.0833V17.5833Z" fill="#2A4F77"/>
<path d="M10.6666 11.8333C10.8333 12 11.0833 12.0833 11.2499 12.0833C11.4166 12.0833 11.6666 12 11.8333 11.8333C12.1666 11.5 12.1666 11 11.8333 10.6667L10.8333 9.66667V7.5C10.8333 7 10.4999 6.66667 9.99992 6.66667C9.49992 6.66667 9.16658 7 9.16658 7.5V10C9.16658 10.25 9.24992 10.4167 9.41658 10.5833L10.6666 11.8333Z" fill="#2A4F77"/>
</svg>
