<svg width="80" height="80" viewBox="0 0 80 80" fill="none" xmlns="http://www.w3.org/2000/svg">
<path d="M76.6667 80H3.33328C1.5 80 0 78.5 0 76.6667V11.5C0 9.66675 1.5 8.16675 3.33328 8.16675H76.6666C78.5 8.16675 80 9.66675 80 11.5V76.6667C80 78.5 78.5 80 76.6667 80Z" fill="#E10550"/>
<path d="M74.1667 27.1667H5.83322C4.83322 27.1667 4.1665 27.8335 4.1665 28.8335V74.1667C4.1665 75.1667 4.83322 75.8335 5.83322 75.8335H62.4999L75.8332 62.5V28.8333C75.8332 28 75.1667 27.1667 74.1667 27.1667Z" fill="#E5E5E5"/>
<path d="M62.5 75.8333L75.8333 62.5H64C63.1667 62.5 62.5 63.1667 62.5 64V75.8333Z" fill="#959595"/>
<path d="M13.3333 18C15.2662 18 16.8332 16.433 16.8332 14.5C16.8332 12.567 15.2662 11 13.3333 11C11.4003 11 9.83325 12.567 9.83325 14.5C9.83325 16.433 11.4003 18 13.3333 18Z" fill="white"/>
<path d="M31.1666 18C33.0996 18 34.6666 16.433 34.6666 14.5C34.6666 12.567 33.0996 11 31.1666 11C29.2336 11 27.6666 12.567 27.6666 14.5C27.6666 16.433 29.2336 18 31.1666 18Z" fill="white"/>
<path d="M48.8332 18C50.7662 18 52.3333 16.433 52.3333 14.5C52.3333 12.567 50.7662 11 48.8332 11C46.9003 11 45.3333 12.567 45.3333 14.5C45.3333 16.433 46.9003 18 48.8332 18Z" fill="white"/>
<path d="M66.6666 18C68.5996 18 70.1666 16.433 70.1666 14.5C70.1666 12.567 68.5996 11 66.6666 11C64.7336 11 63.1666 12.567 63.1666 14.5C63.1666 16.433 64.7336 18 66.6666 18Z" fill="white"/>
<path d="M13.3333 16.3333C12.1666 16.3333 11.1666 15.3333 11.1666 14.1666V2.16656C11 1 12 0 13.3333 0C14.5 0 15.5 1 15.5 2.16672V14C15.5 15.3333 14.5 16.3333 13.3333 16.3333Z" fill="#2A4F77"/>
<path d="M31.1668 16.3333C30.0001 16.3333 29.0001 15.3333 29.0001 14.1666V2.16656C29.0001 1 30.0001 0 31.1668 0C32.3336 0 33.3336 1 33.3336 2.16672V14C33.3334 15.3333 32.3334 16.3333 31.1668 16.3333Z" fill="#2A4F77"/>
<path d="M48.8334 16.3333C47.6666 16.3333 46.6666 15.3333 46.6666 14.1666V2.16656C46.6668 1 47.6668 0 48.8334 0C50.0001 0 51.0001 1 51.0001 2.16672V14C51.1668 15.3333 50.1668 16.3333 48.8334 16.3333Z" fill="#2A4F77"/>
<path d="M66.6667 16.3333C65.5 16.3333 64.5 15.3333 64.5 14.1666V2.16656C64.5 1 65.5 0 66.6667 0C67.8334 0 68.8334 1 68.8334 2.16672V14C69 15.3333 68 16.3333 66.6667 16.3333Z" fill="#2A4F77"/>
<path d="M36.6668 32.1667H26.1667V41.6667H36.6668V32.1667Z" fill="#959595"/>
<path d="M53.8333 32.1667H43.3333V41.6667H53.8333V32.1667Z" fill="#959595"/>
<path d="M70.8333 32.1667H60.3333V41.6667H70.8333V32.1667Z" fill="#959595"/>
<path d="M19.6667 46.8333H9.16675V56.3332H19.6667V46.8333Z" fill="#959595"/>
<path d="M36.6666 46.8333H26.1666V56.3332H36.6666V46.8333Z" fill="#FFD15C"/>
<path d="M53.8333 46.8333H43.3333V56.3332H53.8333V46.8333Z" fill="#959595"/>
<path d="M70.8333 46.8333H60.3333V56.3332H70.8333V46.8333Z" fill="#959595"/>
<path d="M19.6667 61.3333H9.16675V70.8333H19.6667V61.3333Z" fill="#959595"/>
<path d="M36.6668 61.3333H26.1667V70.8333H36.6668V61.3333Z" fill="#959595"/>
<path d="M53.8333 61.3333H43.3333V70.8333H53.8333V61.3333Z" fill="#959595"/>
</svg>
