<svg width="66" height="62" viewBox="0 0 66 62" fill="none" xmlns="http://www.w3.org/2000/svg">
<path d="M47.9875 56.3188H44V52.3313H22V56.3188H18.0125C16.5 56.3188 15.2625 57.5563 15.2625 59.0688C15.2625 60.5813 16.5 61.8188 18.0125 61.8188H48.125C49.6375 61.8188 50.875 60.5813 50.875 59.0688C50.875 57.6938 49.5 56.3188 47.9875 56.3188Z" fill="#08384D"/>
<path d="M3.3 6.40649C3.3 6.40649 3.3 6.26899 3.4375 6.26899H31.075V2.96899H3.4375C1.5125 2.96899 0 4.61899 0 6.40649V39.819H3.3V6.40649Z" fill="#08384D"/>
<path d="M62.5625 2.96899H61.1875V6.26899H62.5625C62.7 6.26899 62.7 6.40649 62.7 6.40649V39.819H66V6.40649C66 4.61899 64.4875 2.96899 62.5625 2.96899Z" fill="#08384D"/>
<path d="M0 47.6561C0 49.5811 1.5125 51.0936 3.4375 51.0936H62.5625C64.4875 51.0936 66 49.5811 66 47.6561V41.1936H0V47.6561ZM58.85 44.0811C59.95 44.0811 60.775 45.0436 60.775 46.0061C60.775 47.1061 59.95 47.9311 58.85 47.9311C57.75 47.9311 56.925 47.1061 56.925 46.0061C56.7875 45.0436 57.75 44.0811 58.85 44.0811ZM52.25 44.0811C53.35 44.0811 54.175 45.0436 54.175 46.0061C54.175 47.1061 53.35 47.9311 52.25 47.9311C51.15 47.9311 50.325 47.1061 50.325 46.0061C50.1875 45.0436 51.15 44.0811 52.25 44.0811ZM45.65 44.0811C46.75 44.0811 47.575 45.0436 47.575 46.0061C47.575 47.1061 46.75 47.9311 45.65 47.9311C44.55 47.9311 43.725 47.1061 43.725 46.0061C43.5875 45.0436 44.55 44.0811 45.65 44.0811Z" fill="#08384D"/>
<path d="M20.625 28.1311L21.0375 28.5436L21.45 28.1311C21.175 28.1311 21.0375 28.1311 20.7625 28.1311C20.9 28.1311 20.7625 28.1311 20.625 28.1311Z" fill="black"/>
<path d="M9.76245 33.2186C9.62495 34.0436 9.21245 37.7561 9.07495 39.8186H18.7L18.975 34.1811C18.5625 34.0436 18.2875 33.7686 18.0125 33.3561L15.8125 29.5061C15.675 29.5061 15.5375 29.6436 15.4 29.6436C13.8875 30.3311 12.2375 31.0186 11.9625 31.1561C11.1375 31.5686 9.89995 32.2561 9.76245 33.2186Z" fill="black"/>
<path d="M26.5375 29.5061L24.3375 33.3561C24.0625 33.7686 23.7875 34.0436 23.375 34.1811L23.65 39.8186H33.275C33.1375 37.7561 32.725 34.0436 32.5875 33.2186C32.45 32.2561 31.2125 31.5686 30.3875 31.1561C29.975 31.0186 28.05 30.1936 26.5375 29.5061Z" fill="black"/>
<path d="M22.275 32.6687C22.4125 32.9437 22.8249 32.9437 23.0999 32.6687L25.3 28.9562L24.3375 27.8562L21.3125 30.1937L18.2875 27.8562L17.325 28.9562L19.525 32.6687C19.6625 32.9437 20.075 32.9437 20.35 32.6687L20.4875 32.3937L20.7625 32.9437L20.4875 39.9562H22.55L22.275 32.9437L22.55 32.3937L22.275 32.6687Z" fill="#2A4F77"/>
<path d="M14.4375 20.4311C14.575 21.3936 15.125 22.0811 15.675 22.0811H15.8125C16.3625 24.8311 18.5625 27.0311 21.0375 27.0311C23.5125 27.0311 25.575 24.9686 26.2625 22.0811H26.4C26.95 22.2186 27.5 21.3936 27.6375 20.4311C27.775 19.4686 27.5 18.6436 27.0875 18.5061C26.95 18.5061 26.95 18.5061 26.8125 18.5061C26.8125 18.3686 26.8125 18.2311 26.8125 18.2311C27.5 14.6561 25.85 13.2811 24.475 13.1436C24.3375 13.1436 24.2 13.1436 24.0625 13.1436C24.0625 12.3186 23.7875 11.7686 22.825 11.6311C21.175 11.4936 15.5375 12.1811 15.125 15.8936C15.125 15.8936 14.85 17.1311 14.9875 18.6436C14.4375 18.6436 14.3 19.4686 14.4375 20.4311Z" fill="#7C4231"/>
<path d="M34.925 13.6938H35.75V16.4438C35.75 16.8563 36.3 17.1313 36.575 16.8563L39.7375 13.6938H57.3375C58.7125 13.6938 59.8125 12.5938 59.8125 11.2188V2.5563C59.8125 1.1813 58.7125 0.0812988 57.3375 0.0812988H34.925C33.55 0.0812988 32.45 1.1813 32.45 2.5563V11.2188C32.45 12.5938 33.55 13.6938 34.925 13.6938ZM51.5625 5.0313C52.525 5.0313 53.3499 5.8563 53.3499 6.8188C53.3499 7.7813 52.525 8.6063 51.5625 8.6063C50.6 8.6063 49.775 7.7813 49.775 6.8188C49.6375 5.8563 50.4625 5.0313 51.5625 5.0313ZM46.1999 5.0313C47.1624 5.0313 47.9875 5.8563 47.9875 6.8188C47.9875 7.7813 47.1624 8.6063 46.1999 8.6063C45.2374 8.6063 44.4124 7.7813 44.4124 6.8188C44.2749 5.8563 45.0999 5.0313 46.1999 5.0313ZM40.8375 5.0313C41.8 5.0313 42.625 5.8563 42.625 6.8188C42.625 7.7813 41.8 8.6063 40.8375 8.6063C39.875 8.6063 39.05 7.7813 39.05 6.8188C38.9125 5.8563 39.7375 5.0313 40.8375 5.0313Z" fill="#FAA017"/>
</svg>
