<svg width="48" height="48" viewBox="0 0 48 48" fill="none" xmlns="http://www.w3.org/2000/svg">
<g clip-path="url(#clip0)">
<path d="M17.6001 30.8979L20.0382 17.1836H23.8477L21.4858 30.8979H17.6001Z" fill="#3C58BF"/>
<path d="M17.6001 30.8979L20.7239 17.1836H23.8477L21.4858 30.8979H17.6001Z" fill="#293688"/>
<path d="M35.2763 17.3322C34.5144 17.0274 33.2953 16.7227 31.7715 16.7227C27.962 16.7227 25.2191 18.6274 25.2191 21.3703C25.2191 23.4274 27.1239 24.4941 28.6477 25.1798C30.1715 25.8655 30.6287 26.3227 30.6287 26.9322C30.6287 27.8465 29.4096 28.3036 28.343 28.3036C26.8191 28.3036 25.981 28.075 24.6858 27.5417L24.1525 27.3131L23.6191 30.4369C24.5334 30.8179 26.2096 31.1988 27.962 31.1988C32.0001 31.1988 34.6668 29.2941 34.6668 26.3988C34.6668 24.7988 33.6763 23.5798 31.3906 22.5893C30.0191 21.9036 29.181 21.5227 29.181 20.8369C29.181 20.2274 29.8668 19.6179 31.3906 19.6179C32.6858 19.6179 33.6001 19.8465 34.2858 20.1512L34.6668 20.3036L35.2763 17.3322Z" fill="#3C58BF"/>
<path d="M35.2763 17.3322C34.5144 17.0274 33.2953 16.7227 31.7715 16.7227C27.962 16.7227 25.9049 18.6274 25.9049 21.3703C25.9049 23.4274 27.1239 24.4941 28.6477 25.1798C30.1715 25.8655 30.6287 26.3227 30.6287 26.9322C30.6287 27.8465 29.4096 28.3036 28.343 28.3036C26.8191 28.3036 25.981 28.075 24.6858 27.5417L24.1525 27.3131L23.6191 30.4369C24.5334 30.8179 26.2096 31.1988 27.962 31.1988C32.0001 31.1988 34.6668 29.2941 34.6668 26.3988C34.6668 24.7988 33.6763 23.5798 31.3906 22.5893C30.0191 21.9036 29.181 21.5227 29.181 20.8369C29.181 20.2274 29.8668 19.6179 31.3906 19.6179C32.6858 19.6179 33.6001 19.8465 34.2858 20.1512L34.6668 20.3036L35.2763 17.3322Z" fill="#293688"/>
<path d="M41.8285 17.1836C40.9143 17.1836 40.2285 17.2598 39.8476 18.1741L34.1333 30.8979H38.2476L39.0095 28.6122H43.8857L44.3428 30.8979H48L44.8 17.1836H41.8285V17.1836ZM40.0762 26.3265C40.3047 25.6407 41.6 22.2884 41.6 22.2884C41.6 22.2884 41.9047 21.4503 42.1333 20.9169L42.3619 22.2122C42.3619 22.2122 43.1238 25.6407 43.2762 26.4026H40.0762V26.3265Z" fill="#3C58BF"/>
<path d="M42.7428 17.1836C41.8285 17.1836 41.1428 17.2598 40.7619 18.1741L34.1333 30.8979H38.2476L39.0095 28.6122H43.8857L44.3428 30.8979H48L44.8 17.1836H42.7428V17.1836ZM40.0762 26.3265C40.3809 25.5645 41.6 22.2884 41.6 22.2884C41.6 22.2884 41.9047 21.4503 42.1333 20.9169L42.3619 22.2122C42.3619 22.2122 43.1238 25.6407 43.2762 26.4026H40.0762V26.3265Z" fill="#293688"/>
<path d="M10.5903 26.7816L10.2093 24.8007C9.5236 22.515 7.31407 20.0007 4.87598 18.7816L8.30455 30.9721H12.4188L18.5903 17.2578H14.476L10.5903 26.7816Z" fill="#3C58BF"/>
<path d="M10.5903 26.7816L10.2093 24.8007C9.5236 22.515 7.31407 20.0007 4.87598 18.7816L8.30455 30.9721H12.4188L18.5903 17.2578H15.2379L10.5903 26.7816Z" fill="#293688"/>
<path d="M0 17.1836L0.685714 17.336C5.5619 18.4788 8.91428 21.3741 10.2095 24.8026L8.8381 18.3265C8.60952 17.4122 7.92381 17.1836 7.08571 17.1836H0V17.1836Z" fill="#FFBC00"/>
<path d="M0 17.1836C4.87619 18.3265 8.91428 21.2979 10.2095 24.7265L8.91429 19.3169C8.68571 18.4026 7.92381 17.8693 7.08571 17.8693L0 17.1836Z" fill="#F7981D"/>
<path d="M0 17.1836C4.87619 18.3265 8.91428 21.2979 10.2095 24.7265L9.29524 21.755C9.06667 20.8407 8.7619 19.9265 7.69524 19.5455L0 17.1836Z" fill="#ED7C00"/>
<path d="M14.3998 26.3261L11.8093 23.7356L10.5902 26.6308L10.2855 24.7261C9.59977 22.4404 7.39024 19.9261 4.95215 18.707L8.38072 30.8975H12.495L14.3998 26.3261Z" fill="#051244"/>
<path d="M21.4858 30.8953L18.2096 27.543L17.6001 30.8953H21.4858Z" fill="#051244"/>
<path d="M30.2472 26.1758C30.552 26.4805 30.7044 26.7091 30.6282 27.0139C30.6282 27.9282 29.4091 28.3853 28.3425 28.3853C26.8187 28.3853 25.9806 28.1567 24.6853 27.6234L24.152 27.3948L23.6187 30.5186C24.5329 30.8996 26.2091 31.2805 27.9615 31.2805C30.3996 31.2805 32.3806 30.5948 33.5234 29.3758L30.2472 26.1758Z" fill="#051244"/>
<path d="M34.6665 30.8989H38.2475L39.0094 28.6132H43.8856L44.3427 30.8989H47.9998L46.7046 25.337L42.1332 20.918L42.3617 22.137C42.3617 22.137 43.1236 25.5656 43.276 26.3275H40.076C40.3808 25.5656 41.5998 22.2894 41.5998 22.2894C41.5998 22.2894 41.9046 21.4513 42.1332 20.918" fill="#051244"/>
</g>
<defs>
<clipPath id="clip0">
<rect width="48" height="48" fill="white"/>
</clipPath>
</defs>
</svg>
