<svg width="111" height="40" viewBox="0 0 111 40" fill="none" xmlns="http://www.w3.org/2000/svg">
<g clip-path="url(#clip0)">
<path d="M107.04 39H3.96067C1.77335 39 0 37.469 0 35.5801V11.1258C0 9.29301 1.67442 7.78534 3.79587 7.70901L106.875 4.00302C109.125 3.92216 111 5.47532 111 7.41985V35.5808C111 37.4688 109.227 39 107.04 39Z" fill="#11BDCF"/>
<path d="M17.3039 26.0628V31.108C17.3043 31.1501 17.2943 31.1916 17.2749 31.2289C17.2555 31.2662 17.2272 31.2981 17.1925 31.3219C15.6954 32.337 13.4122 33.0575 11.5081 33.0575C7.26501 33.0575 4.05771 29.9897 4.05771 25.9263C4.05771 21.8831 7.34436 18.8354 11.7464 18.8354C13.7267 18.8354 15.8172 19.5641 17.2499 20.7423C17.3017 20.7863 17.3339 20.8489 17.3396 20.9165C17.3453 20.9842 17.3241 21.0513 17.2805 21.1034L15.6163 23.1167C15.5948 23.1425 15.5682 23.1638 15.5384 23.1793C15.5085 23.1947 15.4758 23.2041 15.4422 23.2068C15.4087 23.2095 15.3749 23.2054 15.343 23.1949C15.311 23.1844 15.2814 23.1676 15.256 23.1455C14.2592 22.3114 12.9396 21.803 11.7262 21.803C9.43583 21.803 7.68321 23.596 7.68321 25.9263C7.68321 28.297 9.45529 30.0893 11.7658 30.0893C12.442 30.0893 13.2937 29.8598 14.0902 29.4833C14.134 29.4621 14.171 29.4289 14.1968 29.3877C14.2226 29.3464 14.2362 29.2986 14.2361 29.2499V26.0628C14.2361 26.0292 14.2427 25.996 14.2555 25.965C14.2684 25.9339 14.2872 25.9057 14.311 25.882C14.3348 25.8583 14.363 25.8395 14.394 25.8266C14.425 25.8138 14.4583 25.8072 14.4919 25.8073H17.0481C17.0817 25.8072 17.1149 25.8138 17.146 25.8266C17.177 25.8395 17.2052 25.8583 17.2289 25.882C17.2527 25.9057 17.2716 25.9339 17.2844 25.965C17.2973 25.996 17.3039 26.0292 17.3039 26.0628Z" fill="#113255"/>
<path d="M26.9076 28.9739H24.1182V32.8986H20.5733V18.9546H26.808C30.4922 18.9546 32.6036 20.7082 32.6036 23.8149C32.6036 25.9465 31.7078 27.4806 30.0745 28.297L33.0021 32.8986H28.9786L26.9076 28.9739ZM26.809 26.1856C28.3421 26.1856 29.2388 25.4088 29.2388 23.9347C29.2388 22.4807 28.3421 21.7432 26.809 21.7432H24.1182V26.1856H26.809Z" fill="#113255"/>
<path d="M38.9608 30.3281L37.945 32.8986H34.2996L40.3162 18.9546H43.9609L49.8361 32.8986H46.0521L45.056 30.3286L38.9608 30.3281ZM42.0289 22.4803L39.9958 27.6393H44.02L42.0289 22.4803Z" fill="#113255"/>
<path d="M57.9254 18.9546C62.3077 18.9546 65.3351 21.7836 65.3351 25.9263C65.3351 30.0496 62.2673 32.8981 57.7859 32.8981H51.9295V18.9546H57.9254ZM55.4754 30.0698H58.0048C60.1761 30.0698 61.7296 28.3966 61.7296 25.9465C61.7296 23.4763 60.0967 21.7836 57.8461 21.7836H55.4754V30.0698Z" fill="#113255"/>
<path d="M71.5521 21.7432V24.5123H78.2057V27.3007H71.5521V30.11H79.1422V32.8986H68.0069V18.9546H78.9221V21.7432H71.5521Z" fill="#113255"/>
<path d="M91.6927 29.9306V32.8986H82.2314V18.9546H85.7764V29.9306H91.6927Z" fill="#113255"/>
<path d="M101.375 32.8986H97.8495V28.4961L92.6905 18.9546H96.2354L99.6021 25.0298L102.889 18.9546H106.434L101.375 28.3966V32.8986Z" fill="#113255"/>
</g>
<defs>
<clipPath id="clip0">
<rect width="110.875" height="40" fill="white"/>
</clipPath>
</defs>
</svg>
