<svg xmlns="http://www.w3.org/2000/svg" viewBox="0 0 151 151"><defs><style>.cls-1{fill:#d4af37;}.cls-2{fill:#354428;}.cls-3{fill:#f0eccc;}.cls-4{fill:#3f3a34;}</style></defs><title>about_ico</title><g id="Layer_2" data-name="Layer 2"><g id="Layer_1-2" data-name="Layer 1"><g id="Home"><g id="Sec_about_us"><path class="cls-1" d="M49.41,76.43a29.06,29.06,0,0,1-1.64-3.93L36.53,70.63V56l11.23-1.87a29.06,29.06,0,0,1,1.64-3.93l-6.63-9.28L53.11,30.6l9.28,6.63a29.06,29.06,0,0,1,3.93-1.64l1.87-11.23H82.81l1.87,11.23a29.06,29.06,0,0,1,3.93,1.64l9.28-6.63,10.33,10.33-6.63,9.28a29.06,29.06,0,0,1,1.64,3.93L114.47,56V70.63L103.23,72.5a29.06,29.06,0,0,1-1.64,3.93l6.63,9.28L97.89,96l-9.28-6.63a28.75,28.75,0,0,1-3.93,1.64l-1.87,11.23H68.19L66.32,91.06a29.06,29.06,0,0,1-3.93-1.64L53.11,96,42.78,85.71Z"/><path class="cls-2" d="M75.5,151a7.31,7.31,0,1,1,7.31-7.31A7.32,7.32,0,0,1,75.5,151Zm0-9.74a2.44,2.44,0,1,0,2.44,2.44A2.44,2.44,0,0,0,75.5,141.26Z"/><path class="cls-2" d="M143.69,151a7.31,7.31,0,1,1,7.31-7.31A7.32,7.32,0,0,1,143.69,151Zm0-9.74a2.44,2.44,0,1,0,2.44,2.44A2.44,2.44,0,0,0,143.69,141.26Z"/><path class="cls-2" d="M7.31,151a7.31,7.31,0,1,1,7.31-7.31A7.32,7.32,0,0,1,7.31,151Zm0-9.74a2.44,2.44,0,1,0,2.44,2.44A2.44,2.44,0,0,0,7.31,141.26Z"/><path class="cls-2" d="M7.31,126.65a7.31,7.31,0,1,1,7.31-7.31A7.32,7.32,0,0,1,7.31,126.65Zm0-9.74a2.44,2.44,0,1,0,2.44,2.44A2.44,2.44,0,0,0,7.31,116.9Z"/><rect class="cls-2" x="73.06" y="109.6" width="4.87" height="21.92"/><path class="cls-2" d="M34.1,146.13H19.48v-4.87H34.1a12.19,12.19,0,0,0,12.18-12.18V99.85h4.87v29.23A17.07,17.07,0,0,1,34.1,146.13Z"/><path class="cls-2" d="M29.23,121.77H19.48V116.9h9.74a2.44,2.44,0,0,0,2.44-2.44V77.94h4.87v36.53A7.32,7.32,0,0,1,29.23,121.77Z"/><path class="cls-2" d="M143.69,126.65a7.31,7.31,0,1,1,7.31-7.31A7.32,7.32,0,0,1,143.69,126.65Zm0-9.74a2.44,2.44,0,1,0,2.44,2.44A2.44,2.44,0,0,0,143.69,116.9Z"/><path class="cls-2" d="M131.52,146.13H116.9a17.07,17.07,0,0,1-17-17V99.85h4.87v29.23a12.19,12.19,0,0,0,12.18,12.18h14.61Z"/><path class="cls-2" d="M131.52,121.77h-9.74a7.32,7.32,0,0,1-7.31-7.31V77.94h4.87v36.53a2.44,2.44,0,0,0,2.44,2.44h9.74Z"/><circle class="cls-3" cx="75.5" cy="63.58" r="17.22"/><path class="cls-4" d="M75.5,41.4A21.92,21.92,0,1,0,97.42,63.32,21.94,21.94,0,0,0,75.5,41.4ZM73.06,63.32a2.44,2.44,0,1,1,2.44,2.44A2.44,2.44,0,0,1,73.06,63.32Zm4.87,16.85v-10a7.31,7.31,0,1,0-4.87,0v10a17,17,0,1,1,4.87,0Z"/><path class="cls-4" d="M103.77,49.12l-4.35,2.19a26.53,26.53,0,0,1,1.5,3.6l.46,1.4L112,58.08V68.57l-10.65,1.78-.46,1.4a26.63,26.63,0,0,1-1.5,3.6l-.66,1.31,6.28,8.8-7.42,7.41-8.79-6.28-1.32.66a26.22,26.22,0,0,1-3.6,1.5l-1.4.46L80.74,99.85H70.26L68.48,89.2l-1.4-.46a26.47,26.47,0,0,1-3.6-1.5l-1.32-.66-8.79,6.28L44.5,84l-3.44,3.44L52.85,99.22l9.79-7q.76.34,1.51.63l2,11.86H84.87l2-11.86c.51-.2,1-.41,1.51-.63l9.79,7L111.4,86l-7-9.79c.23-.5.44-1,.63-1.51l11.86-2V54L105,52C104.67,51,104.25,50.06,103.77,49.12Z"/><path class="cls-4" d="M34.1,54V72.69l11.86,2c.37,1,.79,1.91,1.27,2.86l4.35-2.19a26.63,26.63,0,0,1-1.5-3.6l-.46-1.4L39,68.57V58.08L49.62,56.3l.46-1.4a26.53,26.53,0,0,1,1.5-3.6L52.24,50,46,41.2l7.42-7.41,8.79,6.28,1.32-.66a26.22,26.22,0,0,1,3.6-1.5l1.4-.46,1.78-10.65H80.74l1.78,10.65,1.4.46a26.47,26.47,0,0,1,3.6,1.5l1.32.66,8.79-6.28,8.87,8.87,3.44-3.44L98.15,27.42l-9.79,7q-.76-.34-1.51-.63l-2-11.86H66.13l-2,11.86c-.51.2-1,.41-1.51.63l-9.79-7L39.6,40.67l7,9.79c-.22.5-.44,1-.63,1.51Z"/><rect class="cls-4" x="73.06" y="31.66" width="4.87" height="4.87"/><rect class="cls-4" x="52.4" y="40.22" width="4.87" height="4.87" transform="translate(-14.1 51.27) rotate(-45)"/><rect class="cls-4" x="43.84" y="60.89" width="4.87" height="4.87"/><rect class="cls-4" x="52.4" y="81.55" width="4.87" height="4.87" transform="translate(-43.33 63.37) rotate(-45)"/><rect class="cls-4" x="73.06" y="90.11" width="4.87" height="4.87"/><rect class="cls-4" x="93.73" y="81.55" width="4.87" height="4.87" transform="translate(-31.22 92.6) rotate(-45)"/><rect class="cls-4" x="102.29" y="60.89" width="4.87" height="4.87"/><rect class="cls-4" x="93.73" y="40.22" width="4.87" height="4.87" transform="translate(-2 80.49) rotate(-45)"/><path class="cls-4" d="M131.52,34.1a19.67,19.67,0,0,0-2.55.19,21.87,21.87,0,0,0-29-18.43,26.77,26.77,0,0,0-48.89,0A21.87,21.87,0,0,0,22,34.26a20.18,20.18,0,0,0-2.55-.16,19.48,19.48,0,0,0,0,39h9.74V68.19H19.48A14.61,14.61,0,1,1,32,46.06l4.17-2.51a19.38,19.38,0,0,0-9.35-8A17,17,0,0,1,55.11,23.74l3.22-3.65A21.77,21.77,0,0,0,55.45,18a21.91,21.91,0,0,1,40.11,0A21.89,21.89,0,0,0,90.72,22l3.65,3.22a17,17,0,0,1,29.79,10.27,19.5,19.5,0,0,0-6.28,4.13l3.41,3.48a14.61,14.61,0,1,1,10.23,25.05h-9.74v4.87h9.74a19.48,19.48,0,1,0,0-39Z"/></g></g></g></g></svg>