<svg xmlns="http://www.w3.org/2000/svg" xmlns:xlink="http://www.w3.org/1999/xlink" viewBox="0 0 55.9 57.04"><defs><style>.cls-1{fill:none;}.cls-2{fill:#bfbfbf;}.cls-3{clip-path:url(#clip-path);}.cls-4{fill:#1c1e26;}</style><clipPath id="clip-path" transform="translate(-0.01)"><rect class="cls-1" width="56" height="57.05"/></clipPath></defs><title>Bankwise</title><g id="Layer_2" data-name="Layer 2"><g id="Layer_1-2" data-name="Layer 1"><g id="Home"><g id="Sec_solutions"><rect class="cls-2" x="5.36" y="25.47" width="6.36" height="21.47"/><path class="cls-2" d="M13.79,20v4.07a1.4,1.4,0,0,1-1.4,1.4H4.68a1.4,1.4,0,0,1-1.4-1.4V20Zm0,0" transform="translate(-0.01)"/><path class="cls-2" d="M13.79,52.41V48.34a1.4,1.4,0,0,0-1.4-1.4H4.68a1.4,1.4,0,0,0-1.4,1.4v4.07Zm0,0" transform="translate(-0.01)"/><rect class="cls-2" x="24.75" y="25.47" width="6.36" height="21.47"/><path class="cls-2" d="M33.19,20v4.07a1.4,1.4,0,0,1-1.4,1.4h-7.7a1.4,1.4,0,0,1-1.4-1.4V20Zm0,0" transform="translate(-0.01)"/><path class="cls-2" d="M33.19,52.41V48.34a1.4,1.4,0,0,0-1.4-1.4h-7.7a1.4,1.4,0,0,0-1.4,1.4v4.07Zm0,0" transform="translate(-0.01)"/><rect class="cls-2" x="44.14" y="25.47" width="6.36" height="21.47"/><path class="cls-2" d="M52.58,20v4.07a1.4,1.4,0,0,1-1.4,1.4h-7.7a1.4,1.4,0,0,1-1.4-1.4V20Zm0,0" transform="translate(-0.01)"/><path class="cls-2" d="M52.58,52.41V48.34a1.4,1.4,0,0,0-1.4-1.4h-7.7a1.4,1.4,0,0,0-1.4,1.4v4.07Zm0,0" transform="translate(-0.01)"/><path class="cls-2" d="M55.09,15,27.94.76.79,15Zm0,0" transform="translate(-0.01)"/><path class="cls-2" d="M3.34,14.55h49.2a1.55,1.55,0,0,1,1.55,1.55v2.35A1.55,1.55,0,0,1,52.54,20H3.34a1.55,1.55,0,0,1-1.55-1.55V16.1a1.55,1.55,0,0,1,1.55-1.55Zm0,0" transform="translate(-0.01)"/><g class="cls-3"><path class="cls-2" d="M54.09,56.28V54a1.58,1.58,0,0,0-1.58-1.58H3.37A1.58,1.58,0,0,0,1.79,54v2.3Zm0,0" transform="translate(-0.01)"/><path class="cls-4" d="M1.06,15.76a2.28,2.28,0,0,0,0,.34v2.35a2.33,2.33,0,0,0,1.51,2.17v3.45A2.17,2.17,0,0,0,4.6,26.23V46.18a2.17,2.17,0,0,0-2.07,2.16v3.44A2.35,2.35,0,0,0,1,54v2.3A.78.78,0,0,0,1.8,57H54.09a.78.78,0,0,0,.78-.78V54a2.35,2.35,0,0,0-1.51-2.19V48.32a2.17,2.17,0,0,0-2.07-2.16V26.23a2.17,2.17,0,0,0,2.07-2.16V20.62a2.33,2.33,0,0,0,1.51-2.17V16.11a2.28,2.28,0,0,0,0-.34.77.77,0,0,0,.63-1.41L28.3.09a.78.78,0,0,0-.72,0L.43,14.35a.78.78,0,0,0,.64,1.41Zm52.26.36v2.35a.78.78,0,0,1-.78.78H3.34a.78.78,0,0,1-.77-.78V16.11a.78.78,0,0,1,.77-.77h49.2a.78.78,0,0,1,.78.77ZM51.81,22H42.86v-1.2h8.94ZM49.74,46.18H44.93V26.25h4.81Zm-6.36,0a2.17,2.17,0,0,0-2.07,2.16v3.3H34v-3.3a2.17,2.17,0,0,0-2.07-2.16V26.23A2.17,2.17,0,0,0,34,24.07v-3.3h7.35v3.3a2.17,2.17,0,0,0,2.07,2.16Zm8.43,5.46H42.86V50.45h8.94Zm-28.34,0V50.45h8.94v1.18Zm-8.9,0v-3.3a2.17,2.17,0,0,0-2.07-2.16V26.24a2.17,2.17,0,0,0,2.07-2.16V20.77h7.36v3.3A2.17,2.17,0,0,0,24,26.22v20a2.17,2.17,0,0,0-2.07,2.16v3.3Zm-10.49,0V50.45H13v1.18ZM6.14,26.25h4.81V46.17H6.14ZM13,20.77v1.18H4.07V20.77Zm19.39,0v1.18H23.47V20.77Zm0,28.13H23.47v-.56a.62.62,0,0,1,.62-.62h7.7a.62.62,0,0,1,.62.62Zm-2.07-2.73H25.54V26.25h4.81Zm1.45-21.46h-7.7a.62.62,0,0,1-.62-.62v-.56h8.94v.56a.62.62,0,0,1-.62.62ZM4.07,24.07v-.56H13v.56a.62.62,0,0,1-.62.62H4.68a.62.62,0,0,1-.6-.63Zm.6,23.64h7.7a.62.62,0,0,1,.62.62v.56H4.07v-.56a.62.62,0,0,1,.6-.62ZM53.3,55.51H2.57V54a.8.8,0,0,1,.8-.8H52.51a.8.8,0,0,1,.8.8Zm-1.51-7.17v.56H42.86v-.56a.62.62,0,0,1,.62-.62H51.2a.62.62,0,0,1,.6.62ZM51.2,24.69H43.49a.62.62,0,0,1-.62-.62v-.56h8.94v.56a.62.62,0,0,1-.61.62ZM27.94,1.64,51,13.78H4.85Zm0,0" transform="translate(-0.01)"/></g></g></g></g></g></svg>