<svg xmlns="http://www.w3.org/2000/svg" viewBox="0 0 128 120.96"><defs><style>.cls-1{fill:#42c9ff;}.cls-2{fill:#fe902f;}.cls-3{fill:#ef6117;}.cls-4{fill:#261d38;}.cls-5{fill:#fff;}.cls-6{fill:#ffc803;}.cls-7{fill:#ffc801;}.cls-8{fill:#2f78eb;}.cls-9{fill:none;stroke:#ffc801;stroke-miterlimit:10;stroke-width:3px;}.cls-10{fill:#311e32;}</style></defs><title>blockchain</title><g id="Layer_2" data-name="Layer 2"><g id="Layer_1-2" data-name="Layer 1"><rect class="cls-1" x="62.54" y="64.45" width="1.36" height="5.49"/><path class="cls-2" d="M76.85,51.88a13.43,13.43,0,1,1-4.58-10.1A13.43,13.43,0,0,1,76.85,51.88Z"/><path class="cls-3" d="M76.85,51.88a13.43,13.43,0,0,1-23.18,9.24l1.56-1.58,17-17.77A13.41,13.41,0,0,1,76.85,51.88Z"/><path class="cls-1" d="M94.95,15.61h0v8.71H68.66V16.37h0c0-.06,0-.13,0-.19a5.29,5.29,0,0,1,.84-2.86,6,6,0,0,1,5.11-2.74,6.1,6.1,0,0,1,4.34,1.78,8.35,8.35,0,0,1,7.69-4.82A8.1,8.1,0,0,1,95,15.38C95,15.46,95,15.53,94.95,15.61Z"/><rect class="cls-1" x="33.41" y="70.79" width="59.68" height="37.6"/><rect class="cls-4" x="34.71" y="72.04" width="56.3" height="34.37"/><rect class="cls-1" x="58.16" y="107.15" width="10.19" height="8.83"/><polygon class="cls-1" points="58.16 114.51 44.4 120.28 46.32 120.96 62.29 115.98 62.29 114.51 58.16 114.51"/><polygon class="cls-1" points="68.25 114.51 82.01 120.28 80.09 120.96 64.12 115.98 64.12 114.51 68.25 114.51"/><rect class="cls-5" x="2.94" y="107.94" width="24.8" height="9.29"/><rect class="cls-6" x="2.94" y="116.01" width="24.8" height="1.22"/><rect class="cls-1" x="4.74" y="110.84" width="0.81" height="2.42"/><rect class="cls-1" x="6.44" y="110.84" width="0.81" height="2.42"/><rect class="cls-1" x="8.14" y="110.84" width="0.81" height="2.42"/><rect class="cls-1" x="9.84" y="110.84" width="0.81" height="2.42"/><rect class="cls-1" x="11.54" y="110.84" width="0.81" height="2.42"/><rect class="cls-1" x="13.24" y="110.84" width="0.81" height="2.42"/><path class="cls-1" d="M45.7,11.13a3.15,3.15,0,1,0,3.15,3.15A3.15,3.15,0,0,0,45.7,11.13Zm0,5a1.81,1.81,0,1,1,1.81-1.81A1.81,1.81,0,0,1,45.7,16.09Z"/><rect class="cls-7" x="3.4" y="47.07" width="22.03" height="22.03"/><rect class="cls-3" x="7.04" y="50.71" width="14.74" height="14.74"/><path class="cls-5" d="M25.43,42.62v4.45H21.59v-3.9a7.37,7.37,0,1,0-14.74,0v3.9H3.4V42.62a11,11,0,0,1,22,0Z"/><circle class="cls-4" cx="14.41" cy="55.53" r="3.41"/><rect class="cls-4" x="12.63" y="56.44" width="3.56" height="7.43" rx="1.78" ry="1.78"/><rect class="cls-7" y="2.22" width="38.17" height="8.04"/><rect class="cls-8" x="3.74" y="5.28" width="0.51" height="3.11"/><rect class="cls-8" x="5.21" y="5.28" width="0.51" height="3.11"/><rect class="cls-8" x="6.68" y="5.28" width="0.51" height="3.11"/><rect class="cls-8" x="8.15" y="5.28" width="0.51" height="3.11"/><rect class="cls-8" x="9.63" y="5.28" width="0.51" height="3.11"/><polygon class="cls-5" points="38.17 3.63 1.93 3.63 1.93 10.26 0 10.26 0 2.22 38.17 2.22 38.17 3.63"/><circle class="cls-3" cx="34.26" cy="6.83" r="0.99"/><rect class="cls-7" y="10.26" width="38.17" height="8.04"/><rect class="cls-3" x="3.74" y="13.32" width="0.51" height="3.11"/><rect class="cls-3" x="5.21" y="13.32" width="0.51" height="3.11"/><rect class="cls-3" x="6.68" y="13.32" width="0.51" height="3.11"/><rect class="cls-3" x="8.15" y="13.32" width="0.51" height="3.11"/><rect class="cls-3" x="9.63" y="13.32" width="0.51" height="3.11"/><polygon class="cls-5" points="38.17 11.67 1.93 11.67 1.93 18.3 0 18.3 0 10.26 38.17 10.26 38.17 11.67"/><circle class="cls-3" cx="34.26" cy="14.87" r="0.99"/><rect class="cls-7" y="18.3" width="38.17" height="8.04"/><rect class="cls-4" x="3.74" y="21.36" width="0.51" height="3.11"/><rect class="cls-4" x="5.21" y="21.36" width="0.51" height="3.11"/><rect class="cls-4" x="6.68" y="21.36" width="0.51" height="3.11"/><rect class="cls-4" x="8.15" y="21.36" width="0.51" height="3.11"/><rect class="cls-4" x="9.63" y="21.36" width="0.51" height="3.11"/><polygon class="cls-5" points="38.17 19.71 1.93 19.71 1.93 26.34 0 26.34 0 18.3 38.17 18.3 38.17 19.71"/><circle class="cls-3" cx="34.26" cy="22.91" r="0.99"/><path class="cls-4" d="M89.09,24.32H68.66V16.37h0c0-.06,0-.13,0-.19a5.29,5.29,0,0,1,.84-2.86,9,9,0,0,1,.53.74,8.77,8.77,0,0,1,10.61,3.75,6.72,6.72,0,0,1,8.46,6.5Z"/><circle class="cls-7" cx="63.42" cy="51.88" r="12.57"/><path class="cls-3" d="M70.77,43.4a11.22,11.22,0,0,0-18.55,7.93c0,.15,0,.31,0,.46v.08a11.18,11.18,0,0,0,3,7.67h0a10.58,10.58,0,0,0,1.13,1A11.22,11.22,0,0,0,70.77,43.4ZM63.42,62.18a10.21,10.21,0,0,1-6.22-2.1,10.28,10.28,0,0,1-4.08-8.21.71.71,0,0,1,0-.08c0-.15,0-.31,0-.46A10.3,10.3,0,1,1,63.42,62.18Z"/><path class="cls-3" d="M65.8,51.4a2.91,2.91,0,0,0,1.43-2.57,2.59,2.59,0,0,0-2.46-2.54l-.34,0H61.68l-2.81,0v1.47h1a.65.65,0,0,1,.65.65v6.88a.65.65,0,0,1-.65.65h-1v1.51h5.19a4.53,4.53,0,0,0,.71-.1,3.23,3.23,0,0,0,2.85-3.2A3,3,0,0,0,65.8,51.4ZM65.44,49a1.71,1.71,0,0,1-1.85,1.74H62.27V47.73S65.44,47.41,65.44,49Zm-1.58,6.8H62.27V52.21c1.74,0,3.49.3,3.49,1.82A1.8,1.8,0,0,1,63.85,55.84Z"/><rect class="cls-3" x="61.68" y="44.58" width="1.03" height="2.01"/><rect class="cls-3" x="63.74" y="44.58" width="1.03" height="2.01"/><rect class="cls-3" x="61.68" y="57.05" width="1.03" height="2.01"/><rect class="cls-3" x="63.74" y="57.05" width="1.03" height="2.01"/><circle class="cls-1" cx="98.64" cy="55.42" r="5.52"/><circle class="cls-3" cx="98.64" cy="55.42" r="3.04"/><path class="cls-7" d="M123.81,48.24a1.9,1.9,0,0,1-.66-.94,1.39,1.39,0,0,1-.08-.5,1.12,1.12,0,0,1,.1-.47,1.39,1.39,0,0,1,.29-.38,1.65,1.65,0,0,1,.44-.26,1.84,1.84,0,0,1,1.14-.11h0a7.52,7.52,0,0,0,.21-1.75,1.9,1.9,0,0,1-1.1-.37,1.23,1.23,0,0,1-.34-1.74,1.89,1.89,0,0,1,.87-.76h0a7.49,7.49,0,0,0-.86-1.54h0a1.83,1.83,0,0,1-1.09.34,1.52,1.52,0,0,1-.51-.08,1,1,0,0,1-.21-.1.92.92,0,0,1-.2-.14,1.33,1.33,0,0,1-.39-.89,1.87,1.87,0,0,1,.25-1.12h0a7.47,7.47,0,0,0-1.6-.74h0a1.93,1.93,0,0,1-.69.93,1.55,1.55,0,0,1-.45.23,1,1,0,0,1-.47,0,1.18,1.18,0,0,1-.45-.15,1.92,1.92,0,0,1-.39-.33,1.85,1.85,0,0,1-.45-1.06h0a7.47,7.47,0,0,0-1.73.34h0a1.88,1.88,0,0,1,0,1.15,1.54,1.54,0,0,1-.1.24,1.33,1.33,0,0,1-.13.22,1.13,1.13,0,0,1-.36.31,1,1,0,0,1-.46.14,1.49,1.49,0,0,1-.5,0,1.92,1.92,0,0,1-1-.59h0a7.54,7.54,0,0,0-1.2,1.3h0a1.9,1.9,0,0,1,.66.94,1.39,1.39,0,0,1,.08.5,1.12,1.12,0,0,1-.1.47,1.39,1.39,0,0,1-.29.38,1.65,1.65,0,0,1-.44.26,1.84,1.84,0,0,1-1.14.11h0a7.52,7.52,0,0,0-.21,1.75,1.9,1.9,0,0,1,1.1.37,1.23,1.23,0,0,1,.34,1.74,1.89,1.89,0,0,1-.87.76h0a7.49,7.49,0,0,0,.86,1.54h0a1.83,1.83,0,0,1,1.09-.34,1.52,1.52,0,0,1,.51.08,1,1,0,0,1,.21.1.92.92,0,0,1,.2.14,1.33,1.33,0,0,1,.39.89,1.87,1.87,0,0,1-.25,1.12h0a7.47,7.47,0,0,0,1.6.74h0a1.93,1.93,0,0,1,.69-.93,1.54,1.54,0,0,1,.45-.23,1,1,0,0,1,.47,0,1.18,1.18,0,0,1,.45.15,1.92,1.92,0,0,1,.39.33,1.86,1.86,0,0,1,.45,1.06h0a7.47,7.47,0,0,0,1.73-.34h0a1.88,1.88,0,0,1,0-1.15,1.55,1.55,0,0,1,.1-.24,1.33,1.33,0,0,1,.13-.22,1.13,1.13,0,0,1,.36-.31,1,1,0,0,1,.46-.14,1.49,1.49,0,0,1,.5,0,1.92,1.92,0,0,1,1,.59h0a7.54,7.54,0,0,0,1.2-1.3Z"/><circle class="cls-3" cx="117.74" cy="43.83" r="4.13"/><rect class="cls-5" x="97" y="48.71" width="22.38" height="1.36" transform="translate(-9.89 63.6) rotate(-31.4)"/><circle class="cls-7" cx="114.61" cy="74.57" r="9.9"/><rect class="cls-5" x="112.17" y="75.38" width="4.88" height="9.06"/><path class="cls-4" d="M109.18,82.84H120a0,0,0,0,1,0,0v8.07a5.44,5.44,0,0,1-5.44,5.44h0a5.44,5.44,0,0,1-5.44-5.44V82.84A0,0,0,0,1,109.18,82.84Z"/><circle class="cls-5" cx="114.61" cy="74.57" r="5.66"/><rect class="cls-5" x="95.37" y="7.49" width="23.66" height="1.32"/><path class="cls-7" d="M98.26,8.15A6.61,6.61,0,0,1,101,2.78L99.73,1.66a8.28,8.28,0,0,0,0,13L101,13.52A6.61,6.61,0,0,1,98.26,8.15Z"/><rect class="cls-7" x="46.42" y="74.95" width="16.56" height="0.85"/><rect class="cls-7" x="46.42" y="77.54" width="21.74" height="0.85"/><rect class="cls-7" x="46.42" y="80.14" width="22.84" height="0.85"/><rect class="cls-7" x="46.42" y="82.73" width="16.56" height="0.85"/><rect class="cls-7" x="46.42" y="85.32" width="16.56" height="0.85"/><rect class="cls-7" x="46.42" y="87.91" width="23.45" height="0.85"/><rect class="cls-7" x="46.42" y="90.5" width="23.45" height="0.85"/><rect class="cls-7" x="46.42" y="93.09" width="16.56" height="0.85"/><rect class="cls-7" x="46.42" y="95.68" width="19.52" height="0.85"/><rect class="cls-7" x="46.42" y="98.27" width="10.28" height="0.85"/><rect class="cls-7" x="46.42" y="100.86" width="10.28" height="0.85"/><rect class="cls-7" x="46.42" y="103.45" width="16.56" height="0.85"/><rect class="cls-7" x="42.49" y="74.95" width="3.21" height="0.85"/><rect class="cls-7" x="38.16" y="74.95" width="3.65" height="0.85"/><rect class="cls-7" x="42.49" y="77.54" width="3.21" height="0.85"/><rect class="cls-7" x="38.16" y="77.54" width="3.65" height="0.85"/><rect class="cls-7" x="42.49" y="80.14" width="3.21" height="0.85"/><rect class="cls-7" x="38.16" y="80.14" width="3.65" height="0.85"/><rect class="cls-7" x="42.49" y="82.73" width="3.21" height="0.85"/><rect class="cls-7" x="38.16" y="82.73" width="3.65" height="0.85"/><rect class="cls-7" x="42.49" y="85.32" width="3.21" height="0.85"/><rect class="cls-7" x="38.16" y="85.32" width="3.65" height="0.85"/><rect class="cls-7" x="42.49" y="87.91" width="3.21" height="0.85"/><rect class="cls-7" x="38.16" y="87.91" width="3.65" height="0.85"/><rect class="cls-7" x="42.49" y="90.5" width="3.21" height="0.85"/><rect class="cls-7" x="38.16" y="90.5" width="3.65" height="0.85"/><rect class="cls-7" x="42.49" y="93.09" width="3.21" height="0.85"/><rect class="cls-7" x="38.16" y="93.09" width="3.65" height="0.85"/><rect class="cls-7" x="42.49" y="95.68" width="3.21" height="0.85"/><rect class="cls-7" x="38.16" y="95.68" width="3.65" height="0.85"/><rect class="cls-7" x="42.49" y="98.27" width="3.21" height="0.85"/><rect class="cls-7" x="38.16" y="98.27" width="3.65" height="0.85"/><rect class="cls-7" x="42.49" y="100.86" width="3.21" height="0.85"/><rect class="cls-7" x="38.16" y="100.86" width="3.65" height="0.85"/><rect class="cls-7" x="42.49" y="103.45" width="3.21" height="0.85"/><rect class="cls-7" x="38.16" y="103.45" width="3.65" height="0.85"/><rect class="cls-5" x="73.42" y="74.95" width="15.88" height="10.79"/><polygon class="cls-8" points="74.27 81.04 77.38 77.97 78.48 79 81.12 77.39 81.97 77.81 84.09 76.26 86.27 77.54 88.45 76.48 88.45 82.37 74.27 84.69 74.27 81.04"/><rect class="cls-7" x="37.48" y="58.83" width="1.36" height="11.11"/><rect class="cls-7" x="25.43" y="56.1" width="10.68" height="1.36"/><rect class="cls-7" x="18.23" y="87.84" width="14.33" height="1.36"/><rect class="cls-7" x="13.73" y="96.1" width="1.36" height="11.83"/><path class="cls-1" d="M46.38,11.27H45V8.81A5,5,0,0,1,50,3.86H71A5,5,0,0,1,76,8.81H74.61A3.59,3.59,0,0,0,71,5.22H50a3.59,3.59,0,0,0-3.59,3.59Z"/><path class="cls-1" d="M118.42,35.12h-1.36V29.05a5.46,5.46,0,0,0-5.46-5.46h-7.19V22.23h7.19a6.83,6.83,0,0,1,6.82,6.82Z"/><path class="cls-1" d="M99,55.8l-9.91,6.1a4.94,4.94,0,0,0-2.34,4.22v3.83H85.39V66.12a6.29,6.29,0,0,1,3-5.37l9.91-6.1Z"/><path class="cls-1" d="M103.49,76.48a5.65,5.65,0,0,1-5.64-5.64V60.54h1.36V70.84a4.29,4.29,0,0,0,4.28,4.28Z"/><rect class="cls-1" x="113.93" y="82.84" width="1.36" height="16.63"/><rect class="cls-4" x="113.93" y="97.31" width="1.36" height="2.16"/><rect class="cls-1" x="93.09" y="101.88" width="18.71" height="1.36"/><path class="cls-7" d="M14.41,96.78A8.27,8.27,0,0,1,8.14,83.13l1,.89a6.91,6.91,0,0,0,10.44,9.05l1,.9A8.27,8.27,0,0,1,14.41,96.78Z"/><path class="cls-7" d="M22.87,43.09v4H21.59v-3.9a7.37,7.37,0,1,0-14.74,0v3.9H5.57v-4a8.65,8.65,0,0,1,17.3,0Z"/><path class="cls-7" d="M32.31,26.34v6.29a8.81,8.81,0,0,1-8.81,8.8H18.9a4.52,4.52,0,0,0-4.46,3.84,4.42,4.42,0,0,0-.05.67v1.12H13V45.94a5.5,5.5,0,0,1,0-.67,5.88,5.88,0,0,1,5.83-5.2h4.6a7.45,7.45,0,0,0,7.45-7.44V26.34Z"/><path class="cls-1" d="M114.61,112.24a9.69,9.69,0,0,1-9.68-9.68h1.36a8.32,8.32,0,1,0,15-4.92l1.1-.8a9.68,9.68,0,0,1-7.81,15.41Z"/><line class="cls-9" x1="48.84" y1="44.8" x2="42.77" y2="41.17"/><line class="cls-9" x1="54.96" y1="38.87" x2="51.52" y2="32.69"/><line class="cls-9" x1="63.22" y1="36.79" x2="63.34" y2="29.72"/><line class="cls-9" x1="71.42" y1="39.12" x2="75.06" y2="33.06"/><line class="cls-9" x1="77.36" y1="45.25" x2="83.53" y2="41.8"/><rect class="cls-1" x="38.17" y="13.6" width="4.65" height="1.36"/><path class="cls-7" d="M116.34,0a8.15,8.15,0,1,0,8.15,8.15A8.15,8.15,0,0,0,116.34,0Zm0,13.35a5.2,5.2,0,1,1,5.21-5.21A5.21,5.21,0,0,1,116.34,13.35Z"/><path class="cls-4" d="M116.34,19.81a11.68,11.68,0,0,1-11.25-8.59l.66-.18a11,11,0,0,0,21.57-2.89H128A11.67,11.67,0,0,1,116.34,19.81Z"/><path class="cls-7" d="M98.47,47.57H97.11V39.51a2.63,2.63,0,0,1,2.62-2.62A1.27,1.27,0,0,0,101,35.62v-10h1.36v10a2.63,2.63,0,0,1-2.62,2.62,1.27,1.27,0,0,0-1.26,1.26Z"/><path class="cls-5" d="M83.08,50.31l-.89-2.57a.18.18,0,0,0-.35,0l-.89,2.57a.18.18,0,0,1-.12.12l-2.36.74a.18.18,0,0,0,0,.35l2.36.74a.18.18,0,0,1,.12.12l.89,2.57a.18.18,0,0,0,.35,0l.89-2.57a.18.18,0,0,1,.12-.12l2.36-.74a.18.18,0,0,0,0-.35l-2.36-.74A.18.18,0,0,1,83.08,50.31Z"/><path class="cls-5" d="M115.68,57l-.89-2.57a.18.18,0,0,0-.35,0L113.55,57a.18.18,0,0,1-.12.12l-2.36.74a.18.18,0,0,0,0,.35l2.36.74a.18.18,0,0,1,.12.12l.89,2.57a.18.18,0,0,0,.35,0l.89-2.57a.18.18,0,0,1,.12-.12l2.36-.74a.18.18,0,0,0,0-.35l-2.36-.74A.18.18,0,0,1,115.68,57Z"/><path class="cls-5" d="M48.18,62.11l-.86-2.48a.18.18,0,0,0-.34,0l-.86,2.48a.18.18,0,0,1-.12.11l-2.27.71a.18.18,0,0,0,0,.34L46,64a.18.18,0,0,1,.12.11L47,66.57a.18.18,0,0,0,.34,0l.86-2.48A.18.18,0,0,1,48.3,64l2.27-.71a.18.18,0,0,0,0-.34l-2.27-.71A.18.18,0,0,1,48.18,62.11Z"/><path class="cls-5" d="M24.94,77.23l-.64-1.85a.13.13,0,0,0-.25,0l-.64,1.85a.13.13,0,0,1-.09.08l-1.69.53a.13.13,0,0,0,0,.25l1.69.53a.13.13,0,0,1,.09.08L24,80.55a.13.13,0,0,0,.25,0l.64-1.85a.13.13,0,0,1,.09-.08l1.69-.53a.13.13,0,0,0,0-.25L25,77.32A.13.13,0,0,1,24.94,77.23Z"/><rect class="cls-5" x="32.56" y="70.79" width="0.85" height="37.6"/><rect class="cls-5" x="62.4" y="40.1" width="0.85" height="60.53" transform="translate(133.19 7.54) rotate(90)"/><rect class="cls-10" x="58.16" y="108.39" width="10.19" height="2.15"/><rect class="cls-1" x="73.42" y="87.91" width="15.88" height="0.85"/><rect class="cls-1" x="73.42" y="90.5" width="15.88" height="0.85"/><rect class="cls-1" x="73.42" y="93.09" width="15.88" height="0.85"/><rect class="cls-1" x="73.42" y="95.68" width="15.88" height="0.85"/><rect class="cls-1" x="73.42" y="98.27" width="15.88" height="0.85"/><rect class="cls-1" x="73.42" y="100.86" width="15.88" height="0.85"/><rect class="cls-1" x="73.42" y="103.45" width="15.88" height="0.85"/><path class="cls-5" d="M87.39,24.32h0A5,5,0,0,0,79.78,20a7.06,7.06,0,0,0-10.46-3.7,9.29,9.29,0,0,0-17.75,3l0,0v5H87.39Z"/><path class="cls-1" d="M38.16,54.43a2.36,2.36,0,1,0,2.36,2.36A2.36,2.36,0,0,0,38.16,54.43Zm0,3.71a1.36,1.36,0,1,1,1.36-1.36A1.36,1.36,0,0,1,38.16,58.14Z"/><path class="cls-5" d="M114.61,99.25a3.31,3.31,0,1,0,3.31,3.31A3.31,3.31,0,0,0,114.61,99.25Zm0,5a1.7,1.7,0,1,1,1.7-1.7A1.7,1.7,0,0,1,114.61,104.26Z"/><path class="cls-7" d="M101.68,19.77a3.15,3.15,0,1,0,3.15,3.15A3.15,3.15,0,0,0,101.68,19.77Zm0,5a1.81,1.81,0,1,1,1.81-1.81A1.81,1.81,0,0,1,101.68,24.72Z"/><path class="cls-5" d="M74.64,51.88a11.22,11.22,0,0,1-19.4,7.67l.64-.66A10.3,10.3,0,1,0,70.14,44.07l.64-.66A11.2,11.2,0,0,1,74.64,51.88Z"/><path class="cls-2" d="M55.87,58.89l-.63.66h0a11.18,11.18,0,0,1-3-7.67v-.08c0-.15,0-.31,0-.46h.92c0,.15,0,.31,0,.46a.71.71,0,0,0,0,.08A10.26,10.26,0,0,0,55.87,58.89Z"/><polygon class="cls-5" points="25.43 69.09 3.4 69.09 3.4 47.07 5.57 46.9 5.57 66.66 22.71 66.66 25.43 69.09"/><rect class="cls-1" x="13.73" y="56.03" width="1.36" height="28.84"/><rect class="cls-4" x="13.73" y="81.7" width="1.36" height="3.16"/><circle class="cls-5" cx="14.41" cy="88.52" r="4.13"/><circle class="cls-7" cx="14.41" cy="88.52" r="2.38"/><rect class="cls-3" x="29.25" y="87.84" width="3.31" height="1.36"/><rect class="cls-3" x="37.48" y="67.73" width="1.36" height="2.21"/><rect class="cls-3" x="13.73" y="105.84" width="1.36" height="2.09"/><path class="cls-3" d="M14.43,45.27a4.42,4.42,0,0,0-.05.67v1.12H13V45.94a5.5,5.5,0,0,1,0-.67Z"/><rect class="cls-3" x="30.95" y="26.34" width="1.36" height="2.02"/><rect class="cls-4" x="38.17" y="13.6" width="2.32" height="1.36"/><rect class="cls-4" x="85.39" y="67.67" width="1.36" height="2.27"/><rect class="cls-4" x="93.09" y="101.88" width="3.2" height="1.36"/><rect class="cls-4" x="62.54" y="67.67" width="1.36" height="2.27"/><polygon class="cls-4" points="74.27 82.09 77.28 80.7 78.58 81.39 80.93 79.54 81.9 79.54 83.99 77.39 86.22 79.97 88.45 78.86 88.45 84.69 74.27 84.69 74.27 82.09"/><rect class="cls-3" x="25.43" y="56.1" width="3.82" height="1.36"/><circle class="cls-7" cx="24.07" cy="100.32" r="1.2"/><circle class="cls-7" cx="34.26" cy="45.59" r="1.2"/><circle class="cls-5" cx="89.3" cy="33.06" r="1.2"/><circle class="cls-7" cx="101" cy="89.2" r="1.2"/><circle class="cls-5" cx="43.83" cy="29.72" r="1.2"/><circle class="cls-5" cx="3.74" cy="78.39" r="1.2"/><circle class="cls-5" cx="100.67" cy="114.51" r="1.2"/></g></g></svg>