<svg xmlns="http://www.w3.org/2000/svg" xmlns:xlink="http://www.w3.org/1999/xlink" viewBox="0 0 112.97 121.1"><defs><style>.cls-1{fill:#fbb03b;}.cls-2{fill:none;}.cls-3{fill:#1e2a35;}.cls-4{fill:#1f2b37;}.cls-5{fill:#a67c52;}.cls-6{isolation:isolate;}.cls-7{clip-path:url(#clip-path);}.cls-8{clip-path:url(#clip-path-2);}.cls-9{clip-path:url(#clip-path-3);}.cls-10{fill:#d4af37;}.cls-11{clip-path:url(#clip-path-4);}.cls-12{clip-path:url(#clip-path-5);}.cls-13{clip-path:url(#clip-path-6);}.cls-14{clip-path:url(#clip-path-7);}.cls-15{fill:#ccb572;}.cls-16{fill:#909ca4;}.cls-17{fill:#a7b4bd;}.cls-18{fill:#8d98a0;}.cls-19{fill:#e1f3ff;}.cls-20{fill:#5b7ea6;}.cls-21{clip-path:url(#clip-path-8);}.cls-22{fill:#32465c;}.cls-23{fill:#34485f;}.cls-24{fill:#364b63;}.cls-25{fill:#384e66;}.cls-26{fill:#3a506a;}.cls-27{fill:#3c536d;}.cls-28{fill:#3e5671;}.cls-29{clip-path:url(#clip-path-9);}.cls-30{fill:#2a3a4a;}.cls-31{clip-path:url(#clip-path-10);}.cls-32{fill:#1b252f;}.cls-33{fill:#1c2631;}.cls-34{fill:#1d2732;}.cls-35{fill:#1d2934;}.cls-36{fill:#202c38;}.cls-37{fill:#212d3a;}.cls-38{fill:#222e3b;}.cls-39{fill:#22303d;}.cls-40{fill:#23313e;}.cls-41{fill:#243240;}.cls-42{clip-path:url(#clip-path-11);}.cls-43{fill:#161e26;}.cls-44{fill:#172028;}.cls-45{fill:#263543;}.cls-46{clip-path:url(#clip-path-12);}.cls-47{fill:#1a242e;}.cls-48{fill:#19232c;}.cls-49{fill:#18222b;}.cls-50{fill:#182029;}.cls-51{fill:#171f28;}.cls-52{clip-path:url(#clip-path-13);}.cls-53{fill:#151d25;}.cls-54{fill:#e94d3e;}.cls-55{fill:#fff;}.cls-56{fill:#3598db;}.cls-57{fill:#6186b0;}.cls-58{fill:#273544;}.cls-59{fill:#496584;}.cls-60{fill:#c94235;}.cls-61{clip-path:url(#clip-path-14);}.cls-62{fill:#872d24;}.cls-63{fill:#8c2e25;}.cls-64{fill:#903026;}.cls-65{fill:#953128;}.cls-66{fill:#9a3329;}.cls-67{fill:#9e342a;}.cls-68{fill:#a3362b;}.cls-69{fill:#a8372d;}.cls-70{fill:#822b23;}.cls-71{fill:#7e2a21;}.cls-72{fill:#792820;}.cls-73{fill:#263442;}.cls-74{clip-path:url(#clip-path-15);}.cls-75{clip-path:url(#clip-path-16);}.cls-76{fill:#172029;}.cls-77{clip-path:url(#clip-path-17);}.cls-78{clip-path:url(#clip-path-18);}.cls-79{fill:#2072bc;}.cls-80{fill:#67c3ff;}</style><clipPath id="clip-path"><path class="cls-1" d="M5.83,14.5l5.75-3.34c2.93-1.71,6.91-1.61,11.33.62l-5.75,3.34C12.75,12.89,8.77,12.8,5.83,14.5Z"/></clipPath><clipPath id="clip-path-2"><path class="cls-1" d="M20.72,4.21,23.6,2.54l.29-.17L26.47.87C28.81-.49,32-.3,35.61,1.76A25.43,25.43,0,0,1,43.87,10l-5.75,3.34a25.43,25.43,0,0,0-8.26-8.25C26.28,3,23.05,2.85,20.72,4.21Z"/></clipPath><clipPath id="clip-path-3"><path class="cls-1" d="M40.33,11.62l5.75-3.34c3.78-2.19,9-1.89,14.77,1.45L55.1,13.06C49.33,9.73,44.1,9.42,40.33,11.62Z"/></clipPath><clipPath id="clip-path-4"><path class="cls-1" d="M55.1,13.06l5.75-3.34c11.22,6.48,20.32,22,20.7,35L75.8,48.05C75.43,35,66.32,19.54,55.1,13.06Z"/></clipPath><clipPath id="clip-path-5"><path class="cls-5" d="M75.81,48.05l5.75-3.34a12.8,12.8,0,0,1,5.72,1.85L81.54,49.9A12.81,12.81,0,0,0,75.81,48.05Z"/></clipPath><clipPath id="clip-path-6"><path class="cls-5" d="M109.59,98l-5.75,3.34c2.08-1.21,3.37-3.78,3.38-7.43,0-7.34-5.14-16.28-11.54-20l5.75-3.34c6.4,3.69,11.56,12.63,11.54,20C113,94.23,111.67,96.8,109.59,98Z"/></clipPath><clipPath id="clip-path-7"><path class="cls-5" d="M81.54,49.9l5.75-3.34C94.9,51,101,61.61,101,70.37l-5.75,3.34C95.3,65,89.15,54.29,81.54,49.9Z"/></clipPath><clipPath id="clip-path-8"><path class="cls-2" d="M104.73,91.51l0,13.78a.29.29,0,0,1-.17.24.9.9,0,0,1-.82,0,.29.29,0,0,1-.17-.24l0-13.78a.29.29,0,0,0,.17.24.9.9,0,0,0,.82,0A.29.29,0,0,0,104.73,91.51Z"/></clipPath><clipPath id="clip-path-9"><path class="cls-2" d="M90.2,83.09l0,13.78a.29.29,0,0,1-.17.24.9.9,0,0,1-.82,0,.29.29,0,0,1-.17-.24l0-13.78a.29.29,0,0,0,.17.24.9.9,0,0,0,.82,0A.29.29,0,0,0,90.2,83.09Z"/></clipPath><clipPath id="clip-path-10"><path class="cls-2" d="M68.53,101.24l17.11-9.94a.74.74,0,0,1,.74.07l-17.11,9.95A.74.74,0,0,0,68.53,101.24Z"/></clipPath><clipPath id="clip-path-11"><path class="cls-2" d="M107.48,109.43l-17.11,9.94a.73.73,0,0,0,.3-.67l17.11-9.95A.73.73,0,0,1,107.48,109.43Z"/></clipPath><clipPath id="clip-path-12"><path class="cls-2" d="M89.64,113.07l17.11-9.95a2.3,2.3,0,0,1,1,1.8l-17.11,9.94A2.29,2.29,0,0,0,89.64,113.07Z"/></clipPath><clipPath id="clip-path-13"><path class="cls-3" d="M89.64,113.07a2.29,2.29,0,0,1,1,1.8v3.84c0,.66-.47.93-1,.6L69.26,107.55a2.29,2.29,0,0,1-1-1.8v-3.84c0-.66.47-.93,1-.6Z"/></clipPath><clipPath id="clip-path-14"><path class="cls-2" d="M25.89,115.46q0,.65,0,1.3A3.16,3.16,0,0,1,24,119.35a9.93,9.93,0,0,1-9,0,3.19,3.19,0,0,1-1.88-2.63v-1.3A3.19,3.19,0,0,0,15,118a9.93,9.93,0,0,0,9,0A3.16,3.16,0,0,0,25.89,115.46Z"/></clipPath><clipPath id="clip-path-15"><path class="cls-2" d="M.5,75.29l.7-.41.7-.41A1.07,1.07,0,0,1,3,74.58l-1.41.82A1.07,1.07,0,0,0,.5,75.29Z"/></clipPath><clipPath id="clip-path-16"><path class="cls-2" d="M39.94,120.18l-.07,0-.49.29-.56.33-.07,0-.21.12a1.06,1.06,0,0,0,.44-1l1.41-.82A1.06,1.06,0,0,1,39.94,120.18Z"/></clipPath><clipPath id="clip-path-17"><path class="cls-2" d="M37.52,96.15l1.41-.82A3.33,3.33,0,0,1,40.44,98L39,98.77A3.33,3.33,0,0,0,37.52,96.15Z"/></clipPath><clipPath id="clip-path-18"><path class="cls-4" d="M37.52,96.15A3.33,3.33,0,0,1,39,98.77L39,120c0,1-.68,1.35-1.52.87L1.51,100.14A3.33,3.33,0,0,1,0,97.52L.06,76.27c0-1,.68-1.35,1.52-.87Z"/></clipPath></defs><title>ESD_app</title><g id="Layer_2" data-name="Layer 2"><g id="Layer_1-2" data-name="Layer 1"><g class="cls-6"><g class="cls-6"><path class="cls-1" d="M5.83,14.5l5.75-3.34c2.93-1.71,6.91-1.61,11.33.62l-5.75,3.34C12.75,12.89,8.77,12.8,5.83,14.5Z"/><g class="cls-7"><g class="cls-6"><path class="cls-1" d="M5.83,14.5l5.75-3.34a8.35,8.35,0,0,1,.9-.45L6.74,14a8.47,8.47,0,0,0-.9.45Z"/><path class="cls-1" d="M6.74,14l5.75-3.34a8.83,8.83,0,0,1,2.16-.61L8.9,13.44A8.87,8.87,0,0,0,6.74,14Z"/><path class="cls-1" d="M8.9,13.44l5.75-3.34A10.47,10.47,0,0,1,16.94,10l-5.75,3.34a10.45,10.45,0,0,0-2.29.09Z"/><path class="cls-1" d="M11.19,13.35,16.94,10a13.28,13.28,0,0,1,2.59.45L13.77,13.8a13.29,13.29,0,0,0-2.59-.45Z"/><path class="cls-1" d="M13.77,13.8l5.75-3.34a18,18,0,0,1,3.32,1.29l-5.75,3.34a18,18,0,0,0-3.32-1.29Z"/><path class="cls-1" d="M17.09,15.09l5.75-3.34.08,0-5.75,3.34-.08,0Z"/></g></g></g><g class="cls-6"><path class="cls-1" d="M20.72,4.21,23.6,2.54l.29-.17L26.47.87C28.81-.49,32-.3,35.61,1.76A25.43,25.43,0,0,1,43.87,10l-5.75,3.34a25.43,25.43,0,0,0-8.26-8.25C26.28,3,23.05,2.85,20.72,4.21Z"/><g class="cls-8"><g class="cls-6"><path class="cls-1" d="M20.72,4.21,26.47.87a6.2,6.2,0,0,1,.66-.33L21.38,3.87a6,6,0,0,0-.66.33Z"/><path class="cls-1" d="M21.38,3.87,27.14.53A6.5,6.5,0,0,1,28.73.08L23,3.43a6.5,6.5,0,0,0-1.59.45Z"/><path class="cls-1" d="M23,3.43,28.73.08A7.66,7.66,0,0,1,30.41,0L24.65,3.36A7.72,7.72,0,0,0,23,3.43Z"/><path class="cls-1" d="M24.65,3.36,30.41,0a9.74,9.74,0,0,1,1.9.33L26.55,3.69a9.78,9.78,0,0,0-1.9-.33Z"/><path class="cls-1" d="M26.55,3.69,32.3.35a13.25,13.25,0,0,1,2.45,1L29,4.65a13.23,13.23,0,0,0-2.45-1Z"/><path class="cls-1" d="M29,4.65,34.75,1.3q.42.21.85.46A24.59,24.59,0,0,1,43,8.8l-5.75,3.34a24.6,24.6,0,0,0-7.44-7q-.43-.25-.85-.46Z"/><path class="cls-1" d="M37.29,12.14,43,8.8q.43.6.83,1.21l-5.75,3.34q-.4-.62-.82-1.22Z"/></g></g></g><g class="cls-6"><path class="cls-1" d="M40.33,11.62l5.75-3.34c3.78-2.19,9-1.89,14.77,1.45L55.1,13.06C49.33,9.73,44.1,9.42,40.33,11.62Z"/><g class="cls-9"><g class="cls-6"><path class="cls-1" d="M40.33,11.62l5.75-3.34a10,10,0,0,1,1.08-.54l-5.75,3.34a9.91,9.91,0,0,0-1.08.54Z"/><path class="cls-1" d="M41.41,11.07l5.75-3.34A10.5,10.5,0,0,1,49.73,7L44,10.35a10.52,10.52,0,0,0-2.57.72Z"/><path class="cls-1" d="M44,10.35,49.73,7a12.43,12.43,0,0,1,2.71-.1l-5.75,3.34a12.42,12.42,0,0,0-2.71.1Z"/><path class="cls-1" d="M46.69,10.25,52.44,6.9a15.75,15.75,0,0,1,3.06.53l-5.75,3.34a15.74,15.74,0,0,0-3.06-.53Z"/><path class="cls-1" d="M49.75,10.77l5.75-3.34a21.42,21.42,0,0,1,4,1.54l-5.75,3.34a21.39,21.39,0,0,0-4-1.54Z"/><path class="cls-1" d="M53.71,12.31,59.46,9q.69.35,1.39.75L55.1,13.06q-.7-.41-1.39-.75Z"/></g></g></g><path class="cls-10" d="M55.1,13.06c11.22,6.48,20.32,22,20.7,35a7,7,0,0,0-5.52,2,16.82,16.82,0,0,0-5.48-5.48c-4.71-2.72-8.53-.54-8.54,4.87a13.3,13.3,0,0,0,.13,1.78c-6.06-3.06-10.87-.06-10.89,7,0,7.35,5.14,16.3,11.53,20L61.69,81,18.14,55.82C8.5,50.26.72,36.76.75,25.69.78,15,8,10.51,17.17,15.13A19.25,19.25,0,0,1,17,12.44C17,4.3,22.76,1,29.86,5.11a25.43,25.43,0,0,1,8.26,8.25C41.9,9.43,48.09,9,55.1,13.06Z"/><g class="cls-6"><path class="cls-1" d="M55.1,13.06l5.75-3.34c11.22,6.48,20.32,22,20.7,35L75.8,48.05C75.43,35,66.32,19.54,55.1,13.06Z"/><g class="cls-11"><g class="cls-6"><path class="cls-1" d="M55.1,13.06l5.75-3.34a39.78,39.78,0,0,1,12,11.38l-5.75,3.34a39.78,39.78,0,0,0-12-11.38Z"/><path class="cls-1" d="M67.14,24.44l5.75-3.34a50.61,50.61,0,0,1,3,4.77l-5.75,3.34a50.48,50.48,0,0,0-3-4.77Z"/><path class="cls-1" d="M70.15,29.21l5.75-3.34c.75,1.35,1.44,2.74,2.06,4.14l-5.75,3.34c-.62-1.4-1.31-2.79-2.06-4.14Z"/><path class="cls-1" d="M72.22,33.35,78,30c.58,1.31,1.09,2.63,1.54,4l-5.75,3.34c-.45-1.33-1-2.65-1.54-4Z"/><path class="cls-1" d="M73.76,37.32,79.51,34a42.39,42.39,0,0,1,1.16,4.08l-5.75,3.34a42.23,42.23,0,0,0-1.16-4.08Z"/><path class="cls-1" d="M74.92,41.39l5.75-3.34a35.85,35.85,0,0,1,.76,4.63L75.67,46a36,36,0,0,0-.76-4.63Z"/><path class="cls-1" d="M75.67,46l5.75-3.34q.1,1,.13,2L75.8,48.05q0-1-.13-2Z"/></g></g></g></g><g class="cls-6"><g class="cls-6"><path class="cls-5" d="M75.81,48.05l5.75-3.34a12.8,12.8,0,0,1,5.72,1.85L81.54,49.9A12.81,12.81,0,0,0,75.81,48.05Z"/><g class="cls-12"><g class="cls-6"><path class="cls-5" d="M75.81,48.05l5.75-3.34h.17L76,48.06Z"/><path class="cls-5" d="M76,48.06l5.75-3.34a10.82,10.82,0,0,1,2.1.36l-5.75,3.34a10.76,10.76,0,0,0-2.1-.36Z"/><path class="cls-5" d="M78.08,48.42l5.75-3.34a13.87,13.87,0,0,1,2.57,1l-5.75,3.34a13.88,13.88,0,0,0-2.57-1Z"/><path class="cls-5" d="M80.64,49.42l5.75-3.34q.44.22.89.48L81.54,49.9q-.45-.26-.89-.48Z"/></g></g></g><polygon class="cls-5" points="95.27 73.71 101.02 70.37 101.43 70.6 95.68 73.94 95.27 73.71"/><g class="cls-6"><path class="cls-5" d="M109.59,98l-5.75,3.34c2.08-1.21,3.37-3.78,3.38-7.43,0-7.34-5.14-16.28-11.54-20l5.75-3.34c6.4,3.69,11.56,12.63,11.54,20C113,94.23,111.67,96.8,109.59,98Z"/><g class="cls-13"><g class="cls-6"><path class="cls-5" d="M95.68,73.94l5.75-3.34a22.18,22.18,0,0,1,6.7,6.33l-5.75,3.34a22.17,22.17,0,0,0-6.7-6.33Z"/><path class="cls-5" d="M102.38,80.27l5.75-3.34a28,28,0,0,1,1.69,2.67l-5.75,3.34a28.1,28.1,0,0,0-1.69-2.67Z"/><path class="cls-5" d="M104.07,82.94l5.75-3.34c.42.75.8,1.52,1.15,2.3l-5.75,3.34c-.34-.78-.73-1.55-1.15-2.3Z"/><path class="cls-5" d="M105.22,85.24,111,81.9c.32.73.61,1.46.86,2.2l-5.75,3.34c-.25-.74-.54-1.48-.86-2.2Z"/><path class="cls-5" d="M106.07,87.45l5.75-3.34a23.48,23.48,0,0,1,.64,2.27l-5.75,3.34c-.17-.75-.39-1.51-.64-2.27Z"/><path class="cls-5" d="M106.72,89.72l5.75-3.34a19.91,19.91,0,0,1,.42,2.59l-5.75,3.34a19.9,19.9,0,0,0-.42-2.59Z"/><path class="cls-5" d="M107.14,92.31,112.89,89q.08.81.07,1.61c0,3.65-1.3,6.22-3.38,7.43l-5.75,3.34c2.08-1.21,3.37-3.78,3.38-7.43q0-.79-.07-1.61Z"/></g></g></g><g class="cls-6"><path class="cls-5" d="M81.54,49.9l5.75-3.34C94.9,51,101,61.61,101,70.37l-5.75,3.34C95.3,65,89.15,54.29,81.54,49.9Z"/><g class="cls-14"><g class="cls-6"><path class="cls-5" d="M81.54,49.9l5.75-3.34a26.36,26.36,0,0,1,8,7.53L89.5,57.43a26.37,26.37,0,0,0-8-7.53Z"/><path class="cls-5" d="M89.5,57.43l5.75-3.34a33.56,33.56,0,0,1,2,3.18l-5.75,3.34a33.54,33.54,0,0,0-2-3.18Z"/><path class="cls-5" d="M91.52,60.61l5.75-3.34c.5.9,1,1.81,1.37,2.75l-5.75,3.34c-.41-.93-.87-1.85-1.37-2.75Z"/><path class="cls-5" d="M92.89,63.35,98.64,60c.38.87.73,1.75,1,2.63L93.91,66c-.3-.88-.64-1.76-1-2.63Z"/><path class="cls-5" d="M93.91,66l5.75-3.34a28,28,0,0,1,.77,2.71l-5.75,3.34A28.11,28.11,0,0,0,93.91,66Z"/><path class="cls-5" d="M94.68,68.69l5.75-3.34a23.88,23.88,0,0,1,.5,3.09l-5.75,3.34a23.88,23.88,0,0,0-.5-3.09Z"/><path class="cls-5" d="M95.18,71.79l5.75-3.34q.09,1,.09,1.92l-5.75,3.34c0-.63,0-1.27-.09-1.92Z"/></g></g></g><path class="cls-15" d="M81.54,49.9C89.15,54.29,95.3,65,95.27,73.71l.41.23c6.4,3.69,11.56,12.63,11.54,20S102,104.24,95.6,100.54L75.69,89l.12-41A12.81,12.81,0,0,1,81.54,49.9Z"/></g><g class="cls-6"><polygon class="cls-16" points="56.67 64.91 62.42 61.56 62.29 107.76 56.54 111.1 56.67 64.91"/><polygon class="cls-17" points="46.47 41.19 52.22 37.84 67.67 64.59 61.92 67.94 46.47 41.19"/><polygon class="cls-18" points="30.92 50.04 36.68 46.7 52.22 37.84 46.47 41.19 30.92 50.04"/><polygon class="cls-19" points="46.47 41.19 61.92 67.94 56.67 64.91 56.54 111.1 36.04 99.27 36.17 53.07 30.92 50.04 46.47 41.19"/></g><path class="cls-20" d="M104.73,91.55a.27.27,0,0,0-.16-.27.9.9,0,0,0-.82,0,.29.29,0,0,0-.17.24h0l0,13.78v.08h0l0,0v0h0l0,0h0l.06,0h0l.1,0h.56l0,0h0l.07,0h0l0,0,0,0,0,0,0,0,0,0v0a.19.19,0,0,0,0-.06l0-13.78A.18.18,0,0,1,104.73,91.55Zm-1.14,0h0Zm0,.07h0Zm.06.07h0Zm1-.1h0v0Z"/><g class="cls-6"><g class="cls-6"><g class="cls-21"><g class="cls-6"><path class="cls-22" d="M104.73,91.51l0,13.78a.28.28,0,0,1-.16.23l0-13.78a.28.28,0,0,0,.16-.23Z"/><path class="cls-23" d="M104.58,91.74l0,13.78h0l-.07,0,0-13.78.07,0Z"/><path class="cls-24" d="M104.49,91.78l0,13.78-.08,0,0-13.78.08,0Z"/><path class="cls-25" d="M104.41,91.81l0,13.78-.09,0,0-13.78.09,0Z"/><path class="cls-26" d="M104.33,91.83l0,13.78h-.1l0-13.78Z"/><path class="cls-27" d="M104.22,91.84l0,13.78h-.15l0-13.78Z"/><path class="cls-28" d="M104.07,91.84l0,13.78-.22,0,0-13.78a.88.88,0,0,0,.22,0Z"/><path class="cls-27" d="M103.85,91.79l0,13.78-.11,0h0l0-13.78h0l.11,0Z"/><path class="cls-26" d="M103.74,91.74l0,13.78-.06,0,0-13.78.07,0Z"/><path class="cls-25" d="M103.67,91.69l0,13.78,0,0,0-13.78,0,0Z"/><path class="cls-24" d="M103.63,91.65l0,13.78,0-.05,0-13.78,0,.05Z"/><path class="cls-23" d="M103.6,91.59l0,13.78a.2.2,0,0,1,0-.06l0-13.78a.21.21,0,0,0,0,.06Z"/><path class="cls-22" d="M103.58,91.53l0,13.78v0l0-13.78a.14.14,0,0,0,0,0Z"/></g></g></g><path class="cls-20" d="M104.56,91.27a.25.25,0,0,1,0,.47.9.9,0,0,1-.82,0,.25.25,0,0,1,0-.47A.91.91,0,0,1,104.56,91.27Z"/></g><path class="cls-20" d="M90.19,83.12a.27.27,0,0,0-.16-.27.9.9,0,0,0-.82,0,.29.29,0,0,0-.17.24h0l0,13.78v.08h0l0,0v0h0l0,0h0l.06,0h0l.1,0h.65l.07,0h0l0,0,0,0,0,0,0,0,0,0v0a.21.21,0,0,0,0-.06l0-13.78A.18.18,0,0,1,90.19,83.12Zm-1.14,0h0Zm0,.07h0Zm.06.07h0Zm1-.1h0v0Z"/><g class="cls-6"><g class="cls-6"><g class="cls-29"><g class="cls-6"><path class="cls-22" d="M90.2,83.09l0,13.78a.28.28,0,0,1-.16.23l0-13.78a.28.28,0,0,0,.16-.23Z"/><path class="cls-23" d="M90,83.32,90,97.1h0l-.07,0,0-13.78.07,0Z"/><path class="cls-24" d="M90,83.36l0,13.78-.08,0,0-13.78.08,0Z"/><path class="cls-25" d="M89.87,83.39l0,13.78-.09,0,0-13.78.09,0Z"/><path class="cls-26" d="M89.79,83.41l0,13.78h-.1l0-13.78Z"/><path class="cls-27" d="M89.69,83.42l0,13.78h-.15l0-13.78Z"/><path class="cls-28" d="M89.54,83.42l0,13.78-.22,0,0-13.78a.87.87,0,0,0,.22,0Z"/><path class="cls-27" d="M89.32,83.37l0,13.78-.11,0h0l0-13.78h0l.11,0Z"/><path class="cls-26" d="M89.2,83.32l0,13.78-.07,0,0-13.78.06,0Z"/><path class="cls-25" d="M89.13,83.27l0,13.78,0,0,0-13.78,0,0Z"/><path class="cls-24" d="M89.09,83.22l0,13.78L89,97l0-13.78,0,.05Z"/><path class="cls-23" d="M89.06,83.17,89,97a.24.24,0,0,1,0-.06l0-13.78a.22.22,0,0,0,0,.06Z"/><path class="cls-22" d="M89,83.11l0,13.78v0l0-13.78v0Z"/></g></g></g><path class="cls-20" d="M90,82.85a.25.25,0,0,1,0,.47.9.9,0,0,1-.82,0,.25.25,0,0,1,0-.47A.9.9,0,0,1,90,82.85Z"/></g><path class="cls-30" d="M107.78,104.81s0-.09,0-.13h0l0-.1,0-.1,0-.05h0v0l0-.08,0-.08,0-.07h0l0-.08,0-.08,0-.08h0l0-.05-.05-.08-.06-.08h0l0-.06-.08-.1,0,0,0,0-.06-.06-.08-.07-.06,0-.19-.13L86.38,91.36h0l-.14-.07,0,0h0l-.08,0h-.33l0,0,0,0-17.11,9.94h0a.73.73,0,0,0-.31.67v3.84a2.29,2.29,0,0,0,1,1.8L89.61,119.3a.69.69,0,0,0,.81,0l-.06.05,17.11-9.94a.73.73,0,0,0,.3-.67v-3.84S107.78,104.85,107.78,104.81Zm-39.19-3.59.08,0h0Zm.17,0h0Zm.18,0,.1,0h0Z"/><g class="cls-6"><g class="cls-6"><g class="cls-31"><g class="cls-6"><path class="cls-32" d="M68.53,101.24l17.11-9.94,0,0-17.11,9.94,0,0Z"/><path class="cls-33" d="M68.57,101.22l17.11-9.94,0,0L68.62,101.2l0,0Z"/><path class="cls-34" d="M68.62,101.2l17.11-9.94h0l-17.11,9.94Z"/><path class="cls-35" d="M68.67,101.18l17.11-9.94h0l-17.11,9.95Z"/><path class="cls-3" d="M68.72,101.17l17.11-9.95h.05l-17.11,9.94Z"/><path class="cls-4" d="M68.77,101.17l17.11-9.94h.06l-17.11,9.94Z"/><path class="cls-36" d="M68.82,101.17l17.11-9.94H86l-17.11,9.95Z"/><path class="cls-37" d="M68.88,101.17,86,91.23h.07L69,101.18Z"/><path class="cls-38" d="M69,101.18l17.11-9.94.08,0L69,101.2l-.08,0Z"/><path class="cls-39" d="M69,101.2l17.11-9.94.09,0-17.11,9.94-.09,0Z"/><path class="cls-40" d="M69.12,101.23l17.11-9.94.14.07L69.26,101.3l-.14-.07Z"/><path class="cls-41" d="M69.26,101.3l17.11-9.94h0l-17.11,9.95Z"/></g></g></g><g class="cls-6"><g class="cls-42"><g class="cls-6"><path class="cls-43" d="M90.67,118.71l17.11-9.95a.73.73,0,0,1-.3.67l-17.11,9.94a.73.73,0,0,0,.3-.67Z"/></g></g></g><polygon class="cls-44" points="90.68 114.87 107.8 104.92 107.78 108.76 90.67 118.71 90.68 114.87"/><polygon class="cls-45" points="69.28 101.31 86.39 91.36 106.75 103.12 89.64 113.07 69.28 101.31"/><g class="cls-6"><g class="cls-46"><g class="cls-6"><path class="cls-41" d="M89.64,113.07l17.11-9.95a1.76,1.76,0,0,1,.32.25L90,113.31a1.69,1.69,0,0,0-.33-.25Z"/><path class="cls-40" d="M90,113.31l17.11-9.95.12.13-17.11,9.95-.12-.13Z"/><path class="cls-39" d="M90.09,113.44l17.11-9.95.08.1-17.11,9.94-.08-.1Z"/><path class="cls-38" d="M90.17,113.54l17.11-9.94.07.09-17.11,9.94-.07-.09Z"/><path class="cls-37" d="M90.24,113.62l17.11-9.94.06.08-17.11,9.94-.06-.08Z"/><path class="cls-36" d="M90.29,113.71l17.11-9.94.05.08-17.11,9.94,0-.08Z"/><path class="cls-4" d="M90.34,113.78l17.11-9.94,0,.08-17.11,9.94,0-.08Z"/><path class="cls-3" d="M90.39,113.86l17.11-9.94,0,.08-17.11,9.94,0-.08Z"/><path class="cls-35" d="M90.43,113.94,107.54,104l0,.08L90.47,114l0-.08Z"/><path class="cls-34" d="M90.47,114l17.11-9.94,0,.08L90.5,114.09l0-.08Z"/><path class="cls-33" d="M90.5,114.09l17.11-9.94,0,.08-17.11,9.95,0-.08Z"/><path class="cls-32" d="M90.54,114.17l17.11-9.95,0,.08-17.11,9.94,0-.08Z"/><path class="cls-47" d="M90.57,114.25l17.11-9.94,0,.08-17.11,9.94,0-.08Z"/><path class="cls-48" d="M90.59,114.33l17.11-9.94,0,.09-17.11,9.94,0-.09Z"/><path class="cls-49" d="M90.62,114.42l17.11-9.94,0,.1-17.11,9.94,0-.1Z"/><path class="cls-50" d="M90.64,114.51l17.11-9.94,0,.11-17.11,9.94,0-.11Z"/><path class="cls-51" d="M90.66,114.62l17.11-9.94s0,.09,0,.13l-17.11,9.94s0-.09,0-.13Z"/><path class="cls-43" d="M90.68,114.75l17.11-9.94s0,.08,0,.12l-17.11,9.94s0-.08,0-.12Z"/></g></g></g><g class="cls-6"><path class="cls-3" d="M89.64,113.07a2.29,2.29,0,0,1,1,1.8v3.84c0,.66-.47.93-1,.6L69.26,107.55a2.29,2.29,0,0,1-1-1.8v-3.84c0-.66.47-.93,1-.6Z"/><g class="cls-52"><path class="cls-30" d="M69.93,107a1.6,1.6,0,0,1-.72-1.25v-2.67c0-.46.33-.65.73-.41l19.05,11a1.6,1.6,0,0,1,.72,1.25v2.67c0,.46-.33.65-.73.41L69.93,107Zm19.72,6.09L69.28,101.31c-.58-.33-1-.07-1,.6v3.83a2.29,2.29,0,0,0,1,1.8L89.62,119.3c.58.33,1,.06,1-.6v-3.83a2.3,2.3,0,0,0-1-1.8Z"/><path class="cls-53" d="M71.78,107a2.1,2.1,0,0,1-1-1.65c0-.61.43-.85,1-.55a2.1,2.1,0,0,1,1,1.65c0,.61-.43.85-1,.55Zm3.83,2.21a2.1,2.1,0,0,1-1-1.65c0-.61.43-.85,1-.55a2.1,2.1,0,0,1,1,1.65c0,.61-.43.85-1,.55Zm3.83,2.21a2.11,2.11,0,0,1-1-1.65c0-.61.43-.85,1-.55a2.1,2.1,0,0,1,1,1.65c0,.61-.43.85-1,.55Zm3.79,2.19a2.1,2.1,0,0,1-1-1.65c0-.61.43-.85,1-.55a2.1,2.1,0,0,1,1,1.65c0,.61-.43.85-1,.55Zm3.83,2.21a2.11,2.11,0,0,1-1-1.65c0-.61.43-.85,1-.55a2.1,2.1,0,0,1,1,1.65c0,.61-.43.85-1,.55ZM89,113.64l-19.05-11c-.4-.23-.73,0-.73.41v2.67a1.6,1.6,0,0,0,.72,1.25L89,118c.4.23.73,0,.73-.41V114.9a1.6,1.6,0,0,0-.72-1.25Z"/><path class="cls-54" d="M71.79,104.78c-.53-.31-1-.06-1,.55a2.1,2.1,0,0,0,1,1.65c.53.3,1,.06,1-.55a2.1,2.1,0,0,0-1-1.65Z"/><path class="cls-55" d="M75.62,107c-.53-.31-1-.06-1,.55a2.1,2.1,0,0,0,1,1.65c.53.3,1,.06,1-.55a2.1,2.1,0,0,0-1-1.65Z"/><path class="cls-54" d="M83.24,111.39c-.53-.31-1-.06-1,.55a2.1,2.1,0,0,0,1,1.65c.53.31,1,.06,1-.55a2.1,2.1,0,0,0-1-1.65Z"/><path class="cls-55" d="M87.07,113.6c-.53-.3-1-.06-1,.55a2.11,2.11,0,0,0,1,1.65c.53.3,1,.06,1-.55a2.1,2.1,0,0,0-1-1.65Z"/><path class="cls-56" d="M79.45,109.2c-.53-.3-1-.06-1,.55a2.11,2.11,0,0,0,1,1.65c.53.3,1,.06,1-.55a2.1,2.1,0,0,0-1-1.65Z"/></g></g></g><path class="cls-57" d="M77.69,99.9l2.65-1.54,14.14,8.17-2.65,1.54L77.69,99.9Zm4.83-2.81.87-.51,14.14,8.17-.87.5L82.52,97.1Zm18.39,7.77L83.19,94.64l-8.48,4.93,17.71,10.23,8.48-4.93Z"/><polygon class="cls-58" points="97.53 104.76 83.38 96.59 82.52 97.1 96.66 105.27 97.53 104.76 97.53 104.76"/><polygon class="cls-59" points="94.48 106.53 80.34 98.36 77.69 99.9 91.83 108.07 94.48 106.53 94.48 106.53"/><path class="cls-60" d="M25.88,115.63a3.08,3.08,0,0,0-1.87-2.8,9.92,9.92,0,0,0-9,0,3.16,3.16,0,0,0-1.85,2.6h0v1.3A3.19,3.19,0,0,0,15,119.35l.47.24.17.07.28.12h0c.22.09.45.16.69.23l.05,0,.16,0,.4.1.1,0,.16,0,.34.06.14,0,.15,0,.32,0,.15,0h.14l.32,0H20l.43,0h.23l.72-.1h0l.2,0,.35-.08.25-.07.33-.09.07,0,.11,0,.5-.19.18-.08c.21-.09.41-.19.6-.3l.08,0,.16-.11.23-.16.18-.14.2-.16,0,0,.23-.23,0,0,.12-.15,0-.07.15-.22.06-.09,0,0c0-.07.06-.13.09-.2l.05-.11v0c0-.06,0-.13.05-.19s0-.08,0-.13v0c0-.07,0-.14,0-.2s0-.09,0-.13v-.05h0q0-.65,0-1.3C25.89,115.52,25.88,115.57,25.88,115.63Zm-1.19,2-.07.05.07-.05Zm.46-.43-.16.16.17-.16Zm.21-.26-.08.1.08-.1Zm.24-.36-.08.13.08-.13Zm.16-.35-.06.14.06-.15Zm.1-.35s0,.1,0,.15,0-.1,0-.15Z"/><g class="cls-6"><g class="cls-61"><g class="cls-6"><path class="cls-62" d="M25.89,115.46v0Z"/><path class="cls-63" d="M25.89,115.51v1.3a2.2,2.2,0,0,1,0,.37v-1.3a2.16,2.16,0,0,0,0-.37Z"/><path class="cls-64" d="M25.85,115.88v1.3a2.35,2.35,0,0,1-.1.36v-1.3a2.31,2.31,0,0,0,.1-.36Z"/><path class="cls-65" d="M25.74,116.24v1.3a2.51,2.51,0,0,1-.17.36v-1.3a2.64,2.64,0,0,0,.17-.36Z"/><path class="cls-66" d="M25.58,116.6v1.3a3,3,0,0,1-.26.38V117a3.13,3.13,0,0,0,.26-.38Z"/><path class="cls-67" d="M25.32,117v1.3a3.7,3.7,0,0,1-.39.42v-1.3a3.68,3.68,0,0,0,.4-.42Z"/><path class="cls-68" d="M24.92,117.4v1.3a5,5,0,0,1-.81.6V118a5,5,0,0,0,.81-.6Z"/><path class="cls-69" d="M24.12,118v1.3l-.08,0a7.17,7.17,0,0,1-1.4.61v-1.3A7.21,7.21,0,0,0,24,118l.08,0Z"/><path class="cls-68" d="M22.65,118.66V120a9.18,9.18,0,0,1-1.21.3V119a9.2,9.2,0,0,0,1.21-.3Z"/><path class="cls-67" d="M21.44,119v1.3c-.27,0-.54.09-.81.11v-1.3q.41,0,.81-.11Z"/><path class="cls-66" d="M20.63,119.07v1.3l-.71,0v-1.3l.71,0Z"/><path class="cls-65" d="M19.92,119.12v1.3h-.65v-1.3Z"/><path class="cls-64" d="M19.27,119.12v1.3l-.63,0v-1.3l.63,0Z"/><path class="cls-63" d="M18.64,119.09v1.3l-.62-.07V119l.62.07Z"/><path class="cls-62" d="M18,119v1.3l-.63-.11v-1.3L18,119Z"/><path class="cls-70" d="M17.39,118.91v1.3l-.66-.16v-1.3l.66.16Z"/><path class="cls-71" d="M16.73,118.75v1.3c-.27-.08-.52-.16-.77-.26v-1.3q.37.15.77.26Z"/><path class="cls-72" d="M16,118.49v1.3a6.94,6.94,0,0,1-.92-.44,3.19,3.19,0,0,1-1.88-2.63v-1.3A3.19,3.19,0,0,0,15,118a6.92,6.92,0,0,0,.92.44Z"/></g></g></g><path class="cls-36" d="M22.43,117.1h2.79c1.2-1.38.8-3.11-1.21-4.27a9.44,9.44,0,0,0-5-1.07l-2.41,2Z"/><path class="cls-30" d="M22.43,117.1l-5.86-3.38,2.41-2a8.88,8.88,0,0,0-4,1.07c-2.48,1.44-2.47,3.78,0,5.22a9.93,9.93,0,0,0,9,0,4.59,4.59,0,0,0,1.18-.95Z"/><g class="cls-6"><polygon class="cls-59" points="22.47 102.33 23.31 101.84 23.27 116.61 22.43 117.1 22.47 102.33"/><polygon class="cls-45" points="16.61 98.95 17.46 98.46 23.31 101.84 22.47 102.33 16.61 98.95"/><polygon class="cls-57" points="22.47 102.33 22.43 117.1 16.57 113.72 16.61 98.95 22.47 102.33"/></g><path class="cls-73" d="M40.44,97.83c0-.06,0-.13,0-.2v-.06l0-.09,0-.14,0-.12h0l0-.12,0-.12,0-.12h0l0-.1-.06-.11L40,96.5l0,0v0l0-.07-.08-.12-.09-.13h0l-.1-.12-.15-.17h0l-.2-.18-.09-.08a2.23,2.23,0,0,0-.31-.21L3,74.59l-.07,0-.17-.08,0,0h0l-.05,0-.11,0H2.09l-.07,0-.07,0,0,0-.7.41-.7.41h0a1.06,1.06,0,0,0-.45,1L0,97.52a3.32,3.32,0,0,0,.84,2,2.71,2.71,0,0,0,.67.58L37.45,120.9a1.42,1.42,0,0,0,.62.2.77.77,0,0,0,.56-.18l-.1.08.21-.12.07,0,.56-.33.49-.29.07,0a1.06,1.06,0,0,0,.44-1L40.44,98S40.44,97.87,40.44,97.83Zm-1.65,22.9a.94.94,0,0,1-.08.12A.94.94,0,0,0,38.79,120.73Zm.07-.14,0-.08a1.21,1.21,0,0,1,0,.12ZM1,75.2H1Zm.28.06h0l-.09,0Zm-.54,0h0l-.1,0Z"/><g class="cls-6"><g class="cls-6"><g class="cls-74"><g class="cls-6"><path class="cls-47" d="M.5,75.29l1.41-.82,0,0-1.41.82,0,0Z"/><path class="cls-32" d="M.54,75.27l1.41-.82.07,0-1.41.82-.07,0Z"/><path class="cls-33" d="M.61,75.24,2,74.43l.07,0-1.41.82-.07,0Z"/><path class="cls-34" d="M.68,75.22l1.41-.82.07,0L.75,75.2l-.07,0Z"/><path class="cls-35" d="M.75,75.2l1.41-.82h.08l-1.41.82Z"/><path class="cls-3" d="M.83,75.19l1.41-.82h.08l-1.41.82Z"/><path class="cls-4" d="M.92,75.19l1.41-.82h.09L1,75.2Z"/><path class="cls-36" d="M1,75.2l1.41-.82h.1l-1.41.82Z"/><path class="cls-37" d="M1.1,75.21l1.41-.82.11,0-1.41.82-.11,0Z"/><path class="cls-38" d="M1.21,75.24l1.41-.82.13,0-1.41.82-.13,0Z"/><path class="cls-39" d="M1.33,75.28l1.41-.82.17.08-1.41.82-.17-.08Z"/><path class="cls-40" d="M1.51,75.36l1.41-.82.07,0-1.41.82-.07,0Z"/></g></g></g><g class="cls-6"><g class="cls-75"><g class="cls-6"><path class="cls-43" d="M39,120l1.41-.82a1.06,1.06,0,0,1-.44,1l-1.41.82a1.06,1.06,0,0,0,.44-1Z"/></g></g></g><polygon class="cls-76" points="39.03 98.77 40.44 97.95 40.38 119.2 38.97 120.02 39.03 98.77"/><polygon class="cls-73" points="1.58 75.4 2.99 74.58 38.93 95.33 37.52 96.15 1.58 75.4"/><g class="cls-6"><g class="cls-77"><g class="cls-6"><path class="cls-40" d="M37.52,96.15l1.41-.82a2.59,2.59,0,0,1,.6.49l-1.41.82a2.65,2.65,0,0,0-.6-.49Z"/><path class="cls-39" d="M38.12,96.64l1.41-.82.15.17-1.41.82-.15-.17Z"/><path class="cls-38" d="M38.27,96.81,39.68,96l.11.14-1.41.82-.11-.14Z"/><path class="cls-37" d="M38.38,96.95l1.41-.82.09.13-1.41.82-.09-.13Z"/><path class="cls-36" d="M38.47,97.08l1.41-.82.08.12-1.41.82-.08-.12Z"/><path class="cls-4" d="M38.54,97.2,40,96.38l.07.12-1.41.82-.07-.12Z"/><path class="cls-3" d="M38.61,97.31,40,96.5l.06.12-1.41.82-.06-.12Z"/><path class="cls-35" d="M38.68,97.43l1.41-.82.06.11-1.41.82-.06-.11Z"/><path class="cls-34" d="M38.73,97.54l1.41-.82.05.11-1.41.82-.05-.11Z"/><path class="cls-33" d="M38.78,97.66l1.41-.82,0,.12-1.41.82,0-.12Z"/><path class="cls-32" d="M38.83,97.78,40.24,97l0,.12-1.41.82,0-.12Z"/><path class="cls-47" d="M38.88,97.89l1.41-.82,0,.12L38.92,98l0-.12Z"/><path class="cls-48" d="M38.92,98l1.41-.82,0,.13L39,98.15l0-.13Z"/><path class="cls-49" d="M39,98.15l1.41-.82,0,.14L39,98.29l0-.14Z"/><path class="cls-50" d="M39,98.29l1.41-.82,0,.16L39,98.45c0-.05,0-.11,0-.16Z"/><path class="cls-51" d="M39,98.45l1.41-.82c0,.07,0,.13,0,.2L39,98.64c0-.06,0-.13,0-.2Z"/><path class="cls-43" d="M39,98.64l1.41-.82s0,.09,0,.13L39,98.77s0-.08,0-.13Z"/></g></g></g><g class="cls-6"><path class="cls-4" d="M37.52,96.15A3.33,3.33,0,0,1,39,98.77L39,120c0,1-.68,1.35-1.52.87L1.51,100.14A3.33,3.33,0,0,1,0,97.52L.06,76.27c0-1,.68-1.35,1.52-.87Z"/><g class="cls-78"><path class="cls-30" d="M18,108.69v-.84l2.94,1.7v.84L18,108.69ZM1.74,97.57l.06-20.26L37.3,97.81l-.06,20.26L1.74,97.57Zm35.79-1.42L1.58,75.4c-.84-.48-1.52-.1-1.52.87L0,97.52a3.34,3.34,0,0,0,1.51,2.62l35.94,20.75c.84.48,1.52.09,1.52-.87L39,98.77a3.34,3.34,0,0,0-1.51-2.62Z"/><path class="cls-55" d="M15,103.26l0-13.35,20.43,11.8,0,13.36L15,103.26ZM4.2,83.65v-3.2l9,5.18v3.2l0,13.36L4.17,97l0-13.35ZM15,89.91v-3.2L35.49,98.5v3.2L15,89.91Zm22.25,7.9-34.62-20,0,19.3,34.61,20,.05-19.3Z"/><polygon class="cls-54" points="20.96 109.54 18.02 107.84 18.01 108.69 20.95 110.38 20.96 109.54 20.96 109.54"/><path class="cls-79" d="M6.65,84.39V82.53l1.61.93v1.85l-1.61-.93Zm2.18,1.26V83.79l1.61.93v1.85l-1.61-.93ZM11,86.9V85.05l1.61.93v1.85L11,86.9Zm2.17-1.27-9-5.18v3.2l9,5.18v-3.2Z"/><path class="cls-80" d="M4.68,96.12v-.8l7.91,4.57v.8L4.68,96.12Zm0-7.55V85.45L12.62,90v3.12L4.7,88.57Zm8.48.26-9-5.18L4.17,97l9,5.18,0-13.36Z"/><path class="cls-19" d="M15.58,102V98.9L34.89,110v3.12L15.58,102Zm0-3.95v-.8l19.29,11.14v.8L15.6,98.07Zm0-1.6v-.8L34.9,106.81v.8L15.6,96.47Zm0-1.6V91.75l19.29,11.14V106L15.61,94.87Zm19.87,6.84L15,89.91l0,13.35,20.43,11.8,0-13.36Z"/><path class="cls-56" d="M28.94,97.25V95.4l1.61.93v1.85l-1.61-.93Zm2.18,1.26V96.66l1.61.93v1.85l-1.61-.93Zm2.18,1.26V97.92l1.61.93v1.85l-1.61-.93Zm2.19-1.27L15.06,86.71v3.2l20.43,11.8V98.5Z"/><polygon class="cls-54" points="34.92 98.85 33.31 97.92 33.3 99.77 34.91 100.7 34.92 98.85 34.92 98.85"/><polygon class="cls-55" points="32.74 97.59 31.13 96.66 31.12 98.51 32.73 99.44 32.74 97.59 32.74 97.59"/><polygon class="cls-55" points="30.56 96.33 28.94 95.4 28.94 97.25 30.55 98.18 30.56 96.33 30.56 96.33"/><polygon class="cls-54" points="12.63 85.98 11.02 85.05 11.02 86.91 12.63 87.83 12.63 85.98 12.63 85.98"/><polygon class="cls-55" points="10.45 84.72 8.84 83.79 8.83 85.64 10.45 86.58 10.45 84.72 10.45 84.72"/><polygon class="cls-55" points="8.27 83.46 6.66 82.53 6.65 84.39 8.27 85.32 8.27 83.46 8.27 83.46"/><polygon class="cls-55" points="12.62 90.02 4.71 85.45 4.7 88.57 12.61 93.14 12.62 90.02 12.62 90.02"/><polygon class="cls-55" points="34.91 102.89 15.61 91.75 15.61 94.87 34.9 106 34.91 102.89 34.91 102.89"/><polygon class="cls-55" points="34.89 110.04 15.59 98.9 15.59 102.02 34.88 113.16 34.89 110.04 34.89 110.04"/><polygon class="cls-79" points="12.59 99.89 4.68 95.32 4.68 96.12 12.59 100.69 12.59 99.89 12.59 99.89"/><polygon class="cls-80" points="34.9 106.81 15.6 95.67 15.6 96.47 34.89 107.61 34.9 106.81 34.9 106.81"/><polygon class="cls-80" points="34.89 108.41 15.6 97.27 15.6 98.07 34.89 109.21 34.89 108.41 34.89 108.41"/></g></g></g><polygon class="cls-76" points="2.64 97.13 1.74 97.57 1.79 77.31 2.68 77.83 2.64 97.13"/><polygon class="cls-73" points="37.25 117.11 37.24 118.07 1.74 97.57 2.64 97.13 37.25 117.11"/></g></g></svg>