<svg xmlns="http://www.w3.org/2000/svg" viewBox="0 0 132.7 47.4"><defs><style>.cls-1{fill:#f0f0f0;}.cls-2{fill:#d4af37;}</style></defs><title>finsys</title><g id="Layer_2" data-name="Layer 2"><g id="Layer_1-2" data-name="Layer 1"><path class="cls-1" d="M4.6,21.25V36.6H0V.8H20.9V5.2H4.6V16.95H19.3v4.3Z"/><path class="cls-1" d="M30.75,3.65a3.13,3.13,0,0,1-.95,2.3,3.26,3.26,0,0,1-4.6,0,3.13,3.13,0,0,1-1-2.3,3.13,3.13,0,0,1,1-2.3,3.26,3.26,0,0,1,4.6,0A3.14,3.14,0,0,1,30.75,3.65ZM29.8,12.1V36.6H25.2V12.1Z"/><path class="cls-1" d="M35.8,12.1h4.4v3.4h.2a8.16,8.16,0,0,1,3.22-3,9.23,9.23,0,0,1,4.53-1.2,9.05,9.05,0,0,1,6.92,2.58q2.43,2.58,2.43,7.32V36.6H52.9V21.5q-.15-6-6.05-6a5.75,5.75,0,0,0-4.6,2.22A8.06,8.06,0,0,0,40.4,23V36.6H35.8Z"/><path class="cls-2" d="M85.8,27a9.31,9.31,0,0,1-3.45,7.55,13.18,13.18,0,0,1-8.5,2.8A12.56,12.56,0,0,1,66,34.8a13.29,13.29,0,0,1-4.7-7.1l4.4-1.8a11.39,11.39,0,0,0,1.25,2.9A9.39,9.39,0,0,0,68.82,31a8.47,8.47,0,0,0,2.38,1.45,7.28,7.28,0,0,0,2.75.53,7.91,7.91,0,0,0,5.15-1.62,5.3,5.3,0,0,0,2-4.33,5.17,5.17,0,0,0-1.65-3.85q-1.55-1.55-5.8-3T68.3,18.1q-5.7-2.9-5.7-8.55A8.72,8.72,0,0,1,65.75,2.8,11.5,11.5,0,0,1,73.6,0a12.06,12.06,0,0,1,7.1,2.1,9.84,9.84,0,0,1,4,5.15L80.4,9A6.35,6.35,0,0,0,78,5.72a7.68,7.68,0,0,0-8.87.17A4.37,4.37,0,0,0,67.3,9.55a4.23,4.23,0,0,0,1.45,3.2q1.6,1.35,6.95,3.2t7.78,4.53A9.67,9.67,0,0,1,85.8,27Z"/><path class="cls-2" d="M111.45,12.1,96.1,47.4H91.35L97,35l-10.1-23h5l7.3,17.6h.1l7.1-17.6Z"/><path class="cls-2" d="M132.7,29.8a6.64,6.64,0,0,1-2.8,5.4,11.06,11.06,0,0,1-7,2.2,11.18,11.18,0,0,1-6.5-1.92,10.6,10.6,0,0,1-4-5.08l4.1-1.75a7.6,7.6,0,0,0,2.63,3.42,6.38,6.38,0,0,0,3.78,1.23,6.65,6.65,0,0,0,3.67-1A2.7,2.7,0,0,0,128,30.1q0-2.35-3.6-3.45l-4.2-1Q113,23.8,113,18.7a6.37,6.37,0,0,1,2.72-5.37,12.5,12.5,0,0,1,12.85-.47A8.42,8.42,0,0,1,132.3,17l-4.1,1.7a5.17,5.17,0,0,0-2.28-2.42,7.14,7.14,0,0,0-3.53-.88,5.91,5.91,0,0,0-3.22.9,2.59,2.59,0,0,0-1.43,2.2q0,2.1,4,3l3.7.95Q132.7,24.25,132.7,29.8Z"/></g></g></svg>