<svg xmlns="http://www.w3.org/2000/svg" viewBox="0 0 488 488">
	<path d="M476,0H220c-4.418,0-8,3.582-8,8v150.752l-27.16-20.64c-2.859-2.17-6.813-2.17-9.672,0L7.2,265.6c-0.072,0.048-0.104,0.12-0.168,0.168c-0.064,0.048-0.312,0.272-0.464,0.416c-0.168,0.169-0.325,0.348-0.472,0.536l-0.168,0.2c-0.168,0.208-0.376,0.384-0.528,0.608c-0.175,0.3-0.332,0.61-0.472,0.928c-0.125,0.237-0.237,0.48-0.336,0.728c-0.056,0.16-0.16,0.304-0.216,0.472C4.134,270.414,4.007,271.204,4,272v0.072v208c0,0.144,0.048,0.288,0.056,0.432c0.032,0.651,0.142,1.296,0.328,1.92c0,0.048,0,0.112,0,0.16c0,0.048,0.12,0.2,0.16,0.304c0.088,0.224,0.192,0.416,0.296,0.624c0.166,0.354,0.355,0.696,0.568,1.024c0.187,0.253,0.387,0.496,0.6,0.728l0.072,0.08c0.128,0.136,0.216,0.296,0.352,0.424c0.136,0.128,0.376,0.304,0.56,0.456c0.253,0.207,0.521,0.397,0.8,0.568c0.216,0.128,0.384,0.304,0.608,0.408c0.064,0.04,0.144,0,0.208,0.056l0.504,0.208c0.921,0.355,1.901,0.537,2.888,0.536h336c0.971-0.016,1.93-0.208,2.832-0.568c0.168-0.072,0.336-0.128,0.504-0.208c0.168-0.08,0.136,0,0.2-0.048c0.224-0.112,0.4-0.288,0.608-0.416c0.277-0.171,0.545-0.358,08-0.56c0.198-0.143,0.388-0.298,0.568-0.464c0.136-0.128,0.224-0.28,0.352-0.424l0.072-0.08c0.208-0.24,0.416-0.464,0.6-0.72c0.213-0.331,0.402-0.675,0.568-1.032c0.104-0.216,0.208-0.4,0.296-0.624c0.04-0.104,0.12-0.184,0.152-0.296c0.005-0.053,0.005-0.107,0-0.16c0.184-0.625,0.292-1.269,0.32-1.92c0.051-0.141,0.094-0.286,0.128-0.432V352h120c4.418,0,8-3.582,8-8V8C484,3.582,480.418,0,476,0z M180,154.528l32,24.32V264H35.776L180,154.528zM212,280v64c0,4.418,3.582,8,8,8h25.6l-24.16,21.392l-36.28-27.68c-2.862-2.178-6.826-2.178-9.688,0l-36.368,27.64L33.176,280H212z M20,289.712l105.848,93.296L20,463.832V289.712z M35.744,472l144.544-109.872L324.32,472H35.744zM340,463.784l-105.304-80.8L269.72,352H340V463.784z M468,336H348.064l-80.624-0.616c-0.402,0.048-0.8,0.123-1.192,0.224L228,335.424V16h240V336z"/>
	<rect x="252" y="104" width="192" height="16"/>
	<rect x="252" y="136" width="192" height="16"/>
	<rect x="252" y="168" width="192" height="16"/>
	<rect x="252" y="200" width="192" height="16"/>
	<rect x="252" y="232" width="192" height="16"/>
	<rect x="252" y="264" width="192" height="16"/>
	<rect x="252" y="296" width="192" height="16"/>
	<rect x="396" y="32" width="16" height="16"/>
	<rect x="428" y="32" width="16" height="16"/>
</svg>
