<svg xmlns="http://www.w3.org/2000/svg" viewBox="0 0 212.17 47.53"><defs><style>.cls-1{fill:#d4af37;}.cls-2{fill:#f0f0f0;}</style></defs><title>lms</title><g id="Layer_2" data-name="Layer 2"><g id="Layer_1-2" data-name="Layer 1"><path class="cls-1" d="M143.77,36.66h-20.1V.86h4.6v31.4h15.5Z"/><path class="cls-1" d="M153.17,36.66h-4.6V.86h4.6l12.45,21.8h.2L178.27.86h4.6v35.8h-4.6V15.41l.2-6h-.2l-11.2,19.65h-2.7L153.17,9.41H153l.2,6Z"/><path class="cls-1" d="M212.17,27.11a9.3,9.3,0,0,1-3.45,7.55,13.18,13.18,0,0,1-8.5,2.8,12.56,12.56,0,0,1-7.85-2.6,13.28,13.28,0,0,1-4.7-7.1l4.4-1.8a11.39,11.39,0,0,0,1.25,2.9,9.39,9.39,0,0,0,1.88,2.22,8.47,8.47,0,0,0,2.38,1.45,7.28,7.28,0,0,0,2.75.53,7.91,7.91,0,0,0,5.15-1.62,5.29,5.29,0,0,0,2-4.33,5.17,5.17,0,0,0-1.65-3.85q-1.55-1.55-5.8-3t-5.35-2.1q-5.7-2.9-5.7-8.55a8.72,8.72,0,0,1,3.15-6.75A11.5,11.5,0,0,1,200,.06a12.06,12.06,0,0,1,7.1,2.1,9.83,9.83,0,0,1,4,5.15l-4.3,1.8a6.37,6.37,0,0,0-2.37-3.33,7.68,7.68,0,0,0-8.87.17,4.37,4.37,0,0,0-1.85,3.65,4.23,4.23,0,0,0,1.45,3.2q1.6,1.35,6.95,3.2t7.78,4.53A9.67,9.67,0,0,1,212.17,27.11Z"/><path class="cls-2" d="M36.9,18.75a18.19,18.19,0,0,1-5.31,13.34A17.78,17.78,0,0,1,18.45,37.5,17.67,17.67,0,0,1,5.31,32.09,18.19,18.19,0,0,1,0,18.75,18.19,18.19,0,0,1,5.31,5.41,17.67,17.67,0,0,1,18.45,0,17.59,17.59,0,0,1,31.58,5.46,18.13,18.13,0,0,1,36.9,18.75Zm-32.19,0A14.21,14.21,0,0,0,8.62,29a13.17,13.17,0,0,0,9.83,4.06A13,13,0,0,0,28.23,29a14,14,0,0,0,4-10.28,14,14,0,0,0-4-10.28,13,13,0,0,0-9.78-4.06A13.17,13.17,0,0,0,8.62,8.47,14.22,14.22,0,0,0,4.71,18.75Z"/><path class="cls-2" d="M54.35,37.5a10.59,10.59,0,0,1-4.94-1.15A8.63,8.63,0,0,1,46,33.29h-.2L46,36.7V47.53H41.36V12.13h4.41v3.41H46a8.64,8.64,0,0,1,3.43-3.06,10.9,10.9,0,0,1,13.16,2.66A13.42,13.42,0,0,1,66,24.42a13.3,13.3,0,0,1-3.46,9.28A10.55,10.55,0,0,1,54.35,37.5Zm-.75-4.21a7.19,7.19,0,0,0,5.57-2.51,9,9,0,0,0,2.26-6.37A9.16,9.16,0,0,0,59.16,18,7.49,7.49,0,0,0,48,18a9.29,9.29,0,0,0-2.21,6.37A9.35,9.35,0,0,0,48,30.83,7.31,7.31,0,0,0,53.59,33.29Z"/><path class="cls-2" d="M81.27,37.5a11.75,11.75,0,0,1-8.92-3.71,13.1,13.1,0,0,1-3.51-9.37,13.34,13.34,0,0,1,3.41-9.35A11.28,11.28,0,0,1,81,11.33a11.21,11.21,0,0,1,8.7,3.54q3.23,3.53,3.23,9.9l0,.5H73.55A8,8,0,0,0,76,31.08a7.7,7.7,0,0,0,5.51,2.21q4.41,0,6.92-4.41l4.11,2a12.26,12.26,0,0,1-4.59,4.86A12.69,12.69,0,0,1,81.27,37.5Zm-7.37-16H88a6.12,6.12,0,0,0-2.08-4.24,7.28,7.28,0,0,0-5-1.68,6.69,6.69,0,0,0-4.49,1.6A7.66,7.66,0,0,0,73.9,21.46Z"/><path class="cls-2" d="M97.11,12.13h4.41v3.41h.2a8.21,8.21,0,0,1,3.23-3,9.27,9.27,0,0,1,4.54-1.2,9.08,9.08,0,0,1,6.94,2.58q2.43,2.58,2.43,7.34V36.7h-4.61V21.56q-.15-6-6.07-6a5.77,5.77,0,0,0-4.61,2.23,8.08,8.08,0,0,0-1.86,5.34V36.7H97.11Z"/></g></g></svg>