<svg xmlns="http://www.w3.org/2000/svg" xmlns:xlink="http://www.w3.org/1999/xlink" viewBox="0 0 170.92 45.3"><defs><style>.cls-1{fill:#00b441;}.cls-2{fill:url(#linear-gradient);}.cls-3{fill:#7dd432;}.cls-4{fill:#0070c6;}.cls-5{fill:#141915;}</style><linearGradient id="linear-gradient" x1="160.22" y1="34.52" x2="175.86" y2="7.43" gradientUnits="userSpaceOnUse"><stop offset="0" stop-color="#00aaf2"/><stop offset="1" stop-color="#1d81d6"/><stop offset="1"/></linearGradient></defs><title>mifos</title><g id="Layer_2" data-name="Layer 2"><g id="Layer_1-2" data-name="Layer 1"><path class="cls-1" d="M130.19,45.3c.85-.89,1.68-1.8,2.54-2.67q7.33-7.34,14.67-14.66c.38-.38.66-1,1.39-.27q8.73,8.83,17.51,17.6Z"/><path class="cls-2" d="M159.28,16.18c-2,2-4.06,4-6.12,6-.45.43-.3.63.05,1,1.53,1.48,3,3,4.55,4.49l13.16,13.06V4.58Z"/><path class="cls-3" d="M130.26,0h35.8c.08.41-.26.54-.45.72L149.06,17.28c-.46.46-.77.93-1.51.19C141.88,11.75,136.16,6.06,130.46.36A2.32,2.32,0,0,1,130.26,0Z"/><path class="cls-4" d="M125.61,40.58V4.87c.47,0,.63.34.85.56l16.41,16.37c.46.45.95.75.19,1.49-5.68,5.6-11.32,11.26-17,16.9C126,40.29,125.89,40.36,125.61,40.58Z"/><path class="cls-5" d="M30.74,16.17l-2.84,5.72q-4.13,8.32-8.25,16.64c-.2.41-.25,1-.93,1s-.62-.57-.81-.95Q12.56,27.85,7.24,17.14c-.19-.39-.4-.78-.78-1.53-.4,2.9-.75,5.42-1.09,7.94-.66,4.91-1.31,9.82-2,14.73-.06.4.18,1.13-.52,1.19a10.26,10.26,0,0,1-2.66-.09c-.36-.07-.07-.63,0-1Q2.35,22.85,4.58,7.27c.05-.35-.13-.92.45-1s.52.53.69.86q4.41,8.86,8.8,17.72l4.19,8.41a2.94,2.94,0,0,0,.87-1.38q6-12.17,12-24.35c.1-.2.19-.4.3-.6s.21-.77.69-.67.26.52.3.79q.72,4.77,1.4,9.54c1,7.29,2.06,14.59,3.14,21.87.14.92-.13,1-.93,1-2.15,0-2.2,0-2.5-2.07-1-6.85-1.89-13.71-2.82-20.57L31,16.26Z"/><path class="cls-5" d="M79,14.29a12.68,12.68,0,0,0-12.78,13,12.79,12.79,0,1,0,25.57-.16A12.66,12.66,0,0,0,79,14.29Zm0,22.82a9.52,9.52,0,0,1-9.57-9.77,9.56,9.56,0,1,1,19.11-.13C88.59,32.9,84.54,37.11,79,37.11Z"/><path class="cls-5" d="M54.3,28.56c0-3.31,0-6.62,0-9.93,0-.83-.23-1.16-1.06-1a4.47,4.47,0,0,1-.67,0,1.59,1.59,0,0,1-1.5-2.4c.27-.55.79-.29,1.19-.3,2,0,2,0,2-2,0-1.21,0-2.42.12-3.62.23-2.94,2-4.52,4.95-4.43.93,0,1.85.27,2.78.39.67.09.84.45.85,1.09,0,2,.07,2-1.85,1.63a7.05,7.05,0,0,0-2,0,1.57,1.57,0,0,0-1.51,1.45,44.72,44.72,0,0,0-.16,5c0,.62.36.59.78.59,1.16,0,2.33.05,3.49,0,1.32-.08.82.86.87,1.46s.25,1.39-.9,1.29-2.06,0-3.08,0-1.2.24-1.19,1.18c0,5.68,0,11.36,0,17,0,.63,0,1.26,0,1.88s.35,1.51-.24,1.73a5.62,5.62,0,0,1-2.52.06c-.65-.08-.37-.72-.38-1.11C54.29,35.09,54.3,31.82,54.3,28.56Z"/><path class="cls-5" d="M102.57,40.1a8.91,8.91,0,0,1-6.41-2.58c-.63-.61-.81-1.1-.05-1.71a2.69,2.69,0,0,0,.53-.6c.46-.67.84-.87,1.49-.12A6.1,6.1,0,0,0,101.58,37a4.94,4.94,0,0,0,4.85-1.88,3.72,3.72,0,0,0-.5-4.77,11.55,11.55,0,0,0-3.11-2.06,25.73,25.73,0,0,1-3.33-2,6.76,6.76,0,0,1-2.26-8.66,6.92,6.92,0,0,1,8.61-2.89A13.05,13.05,0,0,1,109.46,17c.58.47.54.81,0,1.22a1.83,1.83,0,0,0-.38.38c-.64.9-1.21,1.09-2.14.19a5.32,5.32,0,0,0-4.15-1.54,3.55,3.55,0,0,0-3.17,2.12,3.07,3.07,0,0,0,.82,3.55,12.9,12.9,0,0,0,3.12,2.29c1.08.62,2.2,1.2,3.22,1.9,3,2.06,4,4.94,3,8.15A7.28,7.28,0,0,1,102.57,40.1Z"/><path class="cls-5" d="M46.26,27.27c0,3.66,0,7.33,0,11,0,1-.22,1.43-1.25,1.25a2.47,2.47,0,0,0-.8,0c-1,.16-1.16-.31-1.16-1.2,0-6.61,0-13.23,0-19.84,0-.89,0-1.79,0-2.68,0-.69.19-.91.9-.92,2.28,0,2.28-.08,2.28,2.21Q46.26,22.17,46.26,27.27Z"/><path class="cls-5" d="M47.26,7.4a2.58,2.58,0,1,1-2.62-2.6A2.57,2.57,0,0,1,47.26,7.4Z"/></g></g></svg>