<svg xmlns="http://www.w3.org/2000/svg" viewBox="0 0 168.45 36.6"><defs><style>.cls-1{fill:#f0f0f0;}.cls-2{fill:#d4af37;}</style></defs><title>minsure</title><g id="Layer_2" data-name="Layer 2"><g id="Layer_1-2" data-name="Layer 1"><path class="cls-1" d="M4.6,35.8H0V0H4.6L17.05,21.8h.2L29.7,0h4.6V35.8H29.7V14.55l.2-6h-.2L18.5,28.2H15.8L4.6,8.55H4.4l.2,6Z"/><path class="cls-2" d="M46.1,35.8H41.5V0h4.6Z"/><path class="cls-2" d="M52.5,11.3h4.4v3.4h.2a8.18,8.18,0,0,1,3.22-3,9.24,9.24,0,0,1,4.53-1.2,9.06,9.06,0,0,1,6.93,2.58q2.42,2.58,2.42,7.32V35.8H69.6V20.7q-.15-6-6.05-6a5.75,5.75,0,0,0-4.6,2.22,8.07,8.07,0,0,0-1.85,5.33V35.8H52.5Z"/><path class="cls-2" d="M98.1,29a6.64,6.64,0,0,1-2.8,5.4,11.06,11.06,0,0,1-7.05,2.2,11.19,11.19,0,0,1-6.5-1.92,10.61,10.61,0,0,1-4-5.08l4.1-1.75a7.62,7.62,0,0,0,2.63,3.42,6.38,6.38,0,0,0,3.78,1.23,6.66,6.66,0,0,0,3.68-1A2.7,2.7,0,0,0,93.4,29.3q0-2.35-3.6-3.45l-4.2-1q-7.15-1.8-7.15-6.9a6.37,6.37,0,0,1,2.72-5.38A12.5,12.5,0,0,1,94,12,8.43,8.43,0,0,1,97.7,16.2l-4.1,1.7a5.17,5.17,0,0,0-2.27-2.42,7.14,7.14,0,0,0-3.53-.87,5.9,5.9,0,0,0-3.22.9,2.59,2.59,0,0,0-1.43,2.2q0,2.1,3.95,3l3.7.95Q98.1,23.45,98.1,29Z"/><path class="cls-2" d="M123.6,35.8h-4.4V32.4H119a8.18,8.18,0,0,1-3.23,3,9.23,9.23,0,0,1-4.52,1.2A9.05,9.05,0,0,1,104.32,34q-2.43-2.57-2.43-7.32V11.3h4.6V26.4q.15,6,6,6a5.75,5.75,0,0,0,4.6-2.22A8.05,8.05,0,0,0,119,24.85V11.3h4.6Z"/><path class="cls-2" d="M133.8,35.8h-4.6V11.3h4.4v4h.2A6.65,6.65,0,0,1,136.67,12a8,8,0,0,1,4.28-1.37,8.62,8.62,0,0,1,3.4.6l-1.4,4.45a7.65,7.65,0,0,0-2.7-.35,6,6,0,0,0-4.52,2.1,7,7,0,0,0-1.93,4.9Z"/><path class="cls-2" d="M156.85,36.6a11.71,11.71,0,0,1-8.9-3.7,13.06,13.06,0,0,1-3.5-9.35,13.31,13.31,0,0,1,3.4-9.33,12.23,12.23,0,0,1,17.38-.2q3.23,3.53,3.23,9.88l-.05.5H149.15a8,8,0,0,0,2.4,5.8,7.67,7.67,0,0,0,5.5,2.2q4.4,0,6.9-4.4l4.1,2a12.2,12.2,0,0,1-4.58,4.85A12.65,12.65,0,0,1,156.85,36.6Zm-7.35-16h14.05a6.11,6.11,0,0,0-2.08-4.22,7.26,7.26,0,0,0-5-1.67A6.67,6.67,0,0,0,152,16.3,7.65,7.65,0,0,0,149.5,20.6Z"/></g></g></svg>