<svg xmlns="http://www.w3.org/2000/svg" viewBox="0 0 166 32.06"><defs><style>.cls-1{fill:#3ba66b;}.cls-2{fill:#d5b74f;}.cls-3{fill:#a50758;}.cls-4{fill:#b19997;}.cls-5{fill:#4083b5;}.cls-6{fill:#ba5b7c;}.cls-7{fill:#7a85b5;}.cls-8{fill:#e56432;}.cls-9{fill:#e5b207;}.cls-10{fill:#00b060;}.cls-11{fill:#8bcb9d;}.cls-12{fill:#8bbccc;}.cls-13{fill:#d6d093;}.cls-14{fill:#db0201;}.cls-15{fill:#e2ba82;}.cls-16{fill:#0077c3;}.cls-17{fill:#594f9f;}.cls-18{fill:#b5d4da;}</style></defs><title>multi_chain</title><g id="Layer_2" data-name="Layer 2"><g id="Layer_1-2" data-name="Layer 1"><circle cx="16.03" cy="16.03" r="16.03"/><path class="cls-1" d="M10.21,16.12c-.26.77-.91.8-1.54.77s-1.16-.3-1-1,.74-.77,1.34-.65S10.13,15.38,10.21,16.12Z"/><path class="cls-2" d="M13.47,10.25c-.09.51-.29.93-.73.84-.78-.15-1.1-.86-1.28-1.53s.29-.92.82-.83C13.12,8.89,13.15,9.74,13.47,10.25Z"/><path class="cls-3" d="M26.33,17c-.61-.13-1-.51-.92-1.13a.91.91,0,0,1,1-.78.93.93,0,0,1,.93.88C27.38,16.62,26.94,16.94,26.33,17Z"/><path class="cls-4" d="M17.27,16.22c1.13-.87,2.3-.76,3.79-.38C19.71,17.11,18.43,16.23,17.27,16.22Z"/><path class="cls-5" d="M13.46,21.87c-.28.6-.41,1.4-1.23,1.54a.68.68,0,0,1-.77-.89c.2-.65.51-1.39,1.34-1.46C13.21,21,13.48,21.38,13.46,21.87Z"/><path class="cls-6" d="M24.31,16.17c-.21.71-.77.74-1.34.68s-1.25-.2-1-1,.91-.55,1.45-.55S24.32,15.54,24.31,16.17Z"/><path class="cls-7" d="M20.51,22.54c0,.47-.19.87-.65.84-.88-.05-1-.86-1.27-1.5a.63.63,0,0,1,.62-.82C20,21.16,20.27,21.9,20.51,22.54Z"/><path class="cls-8" d="M20.52,9.69c-.28.61-.56,1.34-1.37,1.38a.64.64,0,0,1-.52-.88c.27-.62.39-1.47,1.33-1.41C20.38,8.8,20.59,9.18,20.52,9.69Z"/><path class="cls-9" d="M11.76,6.8c.07.76-.26,1.1-.74,1.18a.9.9,0,0,1-1.14-.85,1,1,0,0,1,1.88-.34Z"/><path class="cls-10" d="M6.54,16.15c-.11.51-.37.86-.94.82a.88.88,0,0,1-.88-.89.89.89,0,0,1,1.08-.93A.86.86,0,0,1,6.54,16.15Z"/><path class="cls-11" d="M14.63,16.1a4.9,4.9,0,0,1-3.64.15C12.34,15.18,13.48,15.57,14.63,16.1Z"/><path class="cls-12" d="M13.42,20.61c.07-1.79,1-2.63,2.15-4A5.3,5.3,0,0,1,13.42,20.61Z"/><path class="cls-13" d="M15.5,15.21c-1.1-.67-1.36-1.65-1.95-2.36-.28-.35-.37-.77.08-1s.73.21.86.55C14.81,13.26,15.58,13.94,15.5,15.21Z"/><path class="cls-14" d="M21.26,6.08c.52.14.91.43.89,1A.91.91,0,0,1,21,8a.82.82,0,0,1-.72-1A.94.94,0,0,1,21.26,6.08Z"/><path class="cls-15" d="M18.57,12c.07,1.34-1.16,2-1.54,3.1l-.56-.27L18,11.74Z"/><path class="cls-16" d="M9.91,25.06a.91.91,0,0,1,.87-.91.83.83,0,0,1,1,.78.87.87,0,0,1-1,1C10.26,26,10,25.59,9.91,25.06Z"/><path class="cls-17" d="M21.17,26a.91.91,0,0,1-.86-.92.8.8,0,0,1,.82-.91.88.88,0,0,1,1,1A.93.93,0,0,1,21.17,26Z"/><path class="cls-18" d="M18.76,20.78a5.44,5.44,0,0,1-2.09-3.57A5.47,5.47,0,0,1,18.76,20.78Z"/><path d="M57.25,26.15H55V13.1q0-1.55.19-3.79h-.05a12.15,12.15,0,0,1-.58,1.89l-6.65,15H46.77L40.14,11.31a11.61,11.61,0,0,1-.58-2H39.5q.11,1.17.11,3.81v13h-2.2V6.7h3l6,13.57a17.39,17.39,0,0,1,.9,2.33h.08q.58-1.6.94-2.39L54.4,6.7h2.85Z"/><path d="M73.3,26.15H71.07V24H71a4.57,4.57,0,0,1-4.29,2.52q-5,0-5-5.92v-8.3H64v8q0,4.4,3.37,4.4A3.41,3.41,0,0,0,70,23.41a4.6,4.6,0,0,0,1.05-3.14v-8H73.3Z"/><path d="M80,26.15H77.79V5.58H80Z"/><path d="M91,26a4.29,4.29,0,0,1-2.08.43q-3.65,0-3.65-4.07V14.16H82.85v-1.9h2.39V8.87L87.46,9v3.25H91v1.9h-3.5V22a3.24,3.24,0,0,0,.48,2,1.89,1.89,0,0,0,1.57.6A2.34,2.34,0,0,0,91,24.12Z"/><path d="M95.08,8.73a1.41,1.41,0,0,1-1-.41,1.37,1.37,0,0,1-.42-1,1.43,1.43,0,0,1,1.44-1.45,1.44,1.44,0,0,1,1,.41,1.45,1.45,0,0,1,0,2.06A1.42,1.42,0,0,1,95.08,8.73Zm1.09,17.42H93.94V12.26h2.23Z"/><path d="M114.21,25.34a11.41,11.41,0,0,1-5.37,1.14,8.67,8.67,0,0,1-6.65-2.67,9.87,9.87,0,0,1-2.5-7,10.34,10.34,0,0,1,2.81-7.54,9.53,9.53,0,0,1,7.12-2.88,11.4,11.4,0,0,1,4.59.8V9.6a9.29,9.29,0,0,0-4.61-1.17,7.08,7.08,0,0,0-5.43,2.24,8.44,8.44,0,0,0-2.08,6A8,8,0,0,0,104,22.32a6.63,6.63,0,0,0,5.11,2.11,9.58,9.58,0,0,0,5.07-1.3Z"/><path d="M129.41,26.15h-2.23v-8q0-4.34-3.23-4.34a3.52,3.52,0,0,0-2.74,1.25,4.68,4.68,0,0,0-1.11,3.22v7.87h-2.23V5.58h2.23v9h.05a5.06,5.06,0,0,1,4.56-2.63q4.7,0,4.69,5.66Z"/><path d="M143.54,26.15h-2.23V24h-.05a4.66,4.66,0,0,1-4.28,2.5,4.57,4.57,0,0,1-3.25-1.1,3.81,3.81,0,0,1-1.17-2.92q0-3.89,4.59-4.53l4.17-.58q0-3.54-2.86-3.54a6.84,6.84,0,0,0-4.53,1.71V13.24a8.62,8.62,0,0,1,4.72-1.3q4.9,0,4.9,5.18Zm-2.23-7-3.35.46a5.47,5.47,0,0,0-2.33.77,2.21,2.21,0,0,0-.79,1.95,2.12,2.12,0,0,0,.73,1.66,2.81,2.81,0,0,0,1.93.65,3.57,3.57,0,0,0,2.73-1.16,4.15,4.15,0,0,0,1.08-2.94Z"/><path d="M148.88,8.73a1.41,1.41,0,0,1-1-.41,1.37,1.37,0,0,1-.42-1,1.43,1.43,0,0,1,1.44-1.45,1.44,1.44,0,0,1,1,.41,1.45,1.45,0,0,1,0,2.06A1.42,1.42,0,0,1,148.88,8.73ZM150,26.15h-2.23V12.26H150Z"/><path d="M166,26.15h-2.23V18.23q0-4.42-3.23-4.42a3.51,3.51,0,0,0-2.76,1.25,4.66,4.66,0,0,0-1.09,3.17v7.92h-2.23V12.26h2.23v2.31h.05a5,5,0,0,1,4.56-2.63,4.25,4.25,0,0,1,3.49,1.47A6.57,6.57,0,0,1,166,17.66Z"/></g></g></svg>