<svg xmlns="http://www.w3.org/2000/svg" viewBox="0 0 53 53"><defs><style>.cls-1{fill:#1c1e26;}.cls-2{fill:#bfbfbf;}.cls-3{fill:#f0eccc;}</style></defs><title>oLMS</title><g id="Layer_2" data-name="Layer 2"><g id="Layer_1-2" data-name="Layer 1"><g id="Home"><g id="Sec_solutions"><circle class="cls-1" cx="26.5" cy="21.37" r="12.82"/><path class="cls-2" d="M51.29,25.8V18.65a2.55,2.55,0,1,0-1.69-4.82L45.77,9a2.53,2.53,0,0,0,.39-1.35,2.56,2.56,0,0,0-4.4-1.79L35,2.8a2.31,2.31,0,0,0,0-.23,2.56,2.56,0,0,0-5-.85H20.36a2.56,2.56,0,0,0-5,.85,2.48,2.48,0,0,0,0,.31L11.18,5A2.56,2.56,0,0,0,7.23,8.19L3.4,13a2.53,2.53,0,0,0-.84-.15,2.56,2.56,0,0,0-.85,5v5.44a2.56,2.56,0,1,0,3.07,3.68l4.67.85A2.56,2.56,0,0,0,12,29.92h.1L13.7,34a2.56,2.56,0,1,0,3.77,3.4l7.34,2.1a2.56,2.56,0,0,0,1.69,2.25V48a2.56,2.56,0,1,0,1.71,0v-6.3a2.54,2.54,0,0,0,.72-4.42l1-3.06,7.67,2.56a2.56,2.56,0,0,0,1.7,2.36V48A2.56,2.56,0,1,0,41,48V39.16a2.52,2.52,0,0,0,1.54-3.29l6.56-5.47a2.54,2.54,0,0,0,1.3.37,2.56,2.56,0,0,0,.85-5Zm-36.76,1.5a2.48,2.48,0,0,0,0-.3l7-3.64,2.17,7Zm-1.91-2.42L11.43,15.8l5.86-.29a2.56,2.56,0,0,0,2.27,1.58L21,21.71l-7.28,3.77A2.57,2.57,0,0,0,12.62,24.88ZM4.93,14.41a2.5,2.5,0,0,0-.2-.37L8.57,9.25l.3.09.63,4.84Zm5.63-5.3A2.56,2.56,0,0,0,12,6.84a2.48,2.48,0,0,0,0-.31l4.24-2.12a2.55,2.55,0,0,0,3.2.29l5.31,4-3.84,3.59a2.53,2.53,0,0,0-3.62,1.53l-6,.3ZM30.14,3.59,25.95,7.49,20.51,3.42h9.56C30.1,3.48,30.11,3.53,30.14,3.59Zm2.38,12.15L25.64,19.3,22,15.63a2.5,2.5,0,0,0,0-2.12l4.06-3.79,6.54,4.91a2.54,2.54,0,0,0-.13.76A2.61,2.61,0,0,0,32.52,15.74Zm-12-1.2a.85.85,0,1,1-.85-.85A.86.86,0,0,1,20.52,14.53ZM24,20.13l-1.51.78-1-3.33Zm-1,2.44,2.27-1.17,4,4a2.52,2.52,0,0,0,.74,3.11l-1.19,3.57L25.67,31Zm8.58,4.78a.85.85,0,1,1,.85-.85A.86.86,0,0,1,31.63,27.35Zm0-3.42a2.52,2.52,0,0,0-1.1.26l-3.62-3.62,6.39-3.32a2.52,2.52,0,0,0,3,.33l3.89,3.24L33.33,24.6A2.55,2.55,0,0,0,31.63,23.94Zm10.75-14a2.43,2.43,0,0,0,2.05.17l3.83,4.79a2.54,2.54,0,0,0-.39,1.35,2.5,2.5,0,0,0,0,.4l-6.05,3.3-4.41-3.68a2.49,2.49,0,0,0,0-1.87ZM49.13,26l-5.86-4.89,5.46-3a2.54,2.54,0,0,0,.85.5V25.8A2.57,2.57,0,0,0,49.13,26ZM35.9,15.39a.85.85,0,1,1-.85-.85A.86.86,0,0,1,35.9,15.39ZM41.65,22l6.13,5.11L34.51,25.9Zm9.64-5.76a.85.85,0,1,1-.85-.85A.86.86,0,0,1,51.29,16.24ZM43.6,6.84a.85.85,0,1,1-.85.85A.86.86,0,0,1,43.6,6.84Zm-2.54.62c0,.08,0,.15,0,.23a2.55,2.55,0,0,0,.2,1l-5,4.47A2.52,2.52,0,0,0,35,12.82a2.55,2.55,0,0,0-1.42.43L27.34,8.54l4-3.71a2.52,2.52,0,0,0,1.17.3,2.55,2.55,0,0,0,1.83-.78ZM32.48,1.71a.85.85,0,1,1-.85.85A.86.86,0,0,1,32.48,1.71ZM18,1.71a.85.85,0,1,1-.85.85A.86.86,0,0,1,18,1.71ZM9.4,6a.85.85,0,1,1-.85.85A.86.86,0,0,1,9.4,6ZM2.56,14.53a.85.85,0,1,1-.85.85A.86.86,0,0,1,2.56,14.53Zm0,12a.85.85,0,1,1,.85-.85A.86.86,0,0,1,2.56,26.5Zm.85-3.26V17.79A2.56,2.56,0,0,0,5,16.12l4.71-.24L10.91,25a2.57,2.57,0,0,0-1.16,1.06l-4.67-.85A2.56,2.56,0,0,0,3.42,23.24Zm7.69,4.12a.85.85,0,1,1,.85.85A.86.86,0,0,1,11.11,27.35Zm2.54,1.92a2.52,2.52,0,0,0,.32-.34L24.3,32.37l1.52,4.91a2.58,2.58,0,0,0-.55.56l-7.34-2.1a2.56,2.56,0,0,0-2.55-2.4h-.1Zm1.73,7.49a.85.85,0,1,1,.85-.85A.86.86,0,0,1,15.39,36.76Zm12,14.53a.85.85,0,1,1,.85-.85A.86.86,0,0,1,27.35,51.29Zm0-11.11a.85.85,0,1,1,.85-.85A.86.86,0,0,1,27.35,40.18Zm0-3.64L26.3,33l2,.68Zm4.29-7.47A2.56,2.56,0,0,0,34,27.57l14,1.27c0,.09,0,.17.08.25l-6.56,5.47a2.52,2.52,0,0,0-3.31.63l-7.68-2.56Zm8.5,22.23a.85.85,0,1,1,.85-.85A.86.86,0,0,1,40.18,51.29Zm0-13.68a.85.85,0,1,1,.85-.85A.86.86,0,0,1,40.18,37.61Zm10.26-8.55a.85.85,0,1,1,.85-.85A.86.86,0,0,1,50.43,29.06Z"/><rect class="cls-3" x="1.71" width="1.71" height="1.71"/><rect class="cls-3" x="1.71" y="3.42" width="1.71" height="1.71"/><rect class="cls-3" x="3.42" y="1.71" width="1.71" height="1.71"/><rect class="cls-3" y="1.71" width="1.71" height="1.71"/><rect class="cls-3" x="44.45" y="39.32" width="1.71" height="1.71"/><rect class="cls-3" x="44.45" y="42.74" width="1.71" height="1.71"/><rect class="cls-3" x="46.16" y="41.03" width="1.71" height="1.71"/><rect class="cls-3" x="42.74" y="41.03" width="1.71" height="1.71"/><rect class="cls-3" x="49.58" y="3.42" width="1.71" height="1.71"/><rect class="cls-3" x="49.58" y="6.84" width="1.71" height="1.71"/><rect class="cls-3" x="51.29" y="5.13" width="1.71" height="1.71"/><rect class="cls-3" x="47.87" y="5.13" width="1.71" height="1.71"/><rect class="cls-3" x="10.26" y="41.03" width="1.71" height="1.71"/><rect class="cls-3" x="10.26" y="44.45" width="1.71" height="1.71"/><rect class="cls-3" x="11.97" y="42.74" width="1.71" height="1.71"/><rect class="cls-3" x="8.55" y="42.74" width="1.71" height="1.71"/><rect class="cls-3" x="5.13" y="31.63" width="1.71" height="1.71"/><rect class="cls-3" x="5.13" y="35.05" width="1.71" height="1.71"/><rect class="cls-3" x="6.84" y="33.34" width="1.71" height="1.71"/><rect class="cls-3" x="3.42" y="33.34" width="1.71" height="1.71"/></g></g></g></g></svg>