<svg xmlns="http://www.w3.org/2000/svg" viewBox="0 0 62.74 57.44"><defs><style>.cls-1{fill:#bfbfbf;}.cls-2{fill:#6d6c6b;}.cls-3,.cls-4{fill:#d4af37;}.cls-3{opacity:0.8;}.cls-5{fill:#1c1e26;}</style></defs><title>OMinsure</title><g id="Layer_2" data-name="Layer 2"><g id="Layer_1-2" data-name="Layer 1"><g id="Home"><g id="Sec_solutions"><circle class="cls-1" cx="30.32" cy="21.95" r="5.23"/><circle class="cls-1" cx="50.19" cy="28.22" r="4.18"/><path class="cls-1" d="M18.82,27.18l-2.37-4.73A5.16,5.16,0,0,0,15.72,21l0-.07h0a5.18,5.18,0,0,0-8.32,0h0l0,.07a5.16,5.16,0,0,0-.73,1.47L4.18,27.18H7.34a5.18,5.18,0,0,0,8.32,0Z"/><path class="cls-2" d="M60.65,32.41a1,1,0,0,1-1-1,24.94,24.94,0,0,0-2.09-10,1,1,0,0,1,1.89-.9l0,.06A27,27,0,0,1,61.7,31.37,1,1,0,0,1,60.65,32.41Z"/><path class="cls-2" d="M11.5,15.42a1,1,0,0,1-.79-1.73A27.17,27.17,0,0,1,31.37,4.18a1,1,0,0,1,0,2.09,25.08,25.08,0,0,0-19.08,8.78A1,1,0,0,1,11.5,15.42Z"/><path class="cls-3" d="M46.47,1.63,46,1.37l-.46.27a9.89,9.89,0,0,1-6.86,1.16V13a6.77,6.77,0,0,0,1,3.56,7.06,7.06,0,0,0,3.3,2.8l3,1.26,3-1.25a7.06,7.06,0,0,0,3.3-2.8,6.77,6.77,0,0,0,1-3.56V2.79a9.89,9.89,0,0,1-6.86-1.16Z"/><path class="cls-4" d="M46,20.58l3-1.25a7.06,7.06,0,0,0,3.3-2.8,6.77,6.77,0,0,0,1-3.56V2.79a9.89,9.89,0,0,1-6.86-1.16L46,1.37Z"/><path class="cls-1" d="M61,41l-7-7a5.22,5.22,0,0,0-7.38,0l-1.9,1.8a2.72,2.72,0,0,1-3.8,0l0,0L39.74,34.5,34,28.78a5.22,5.22,0,0,0-7.39,0l-6,6-5.48-3.94a5.23,5.23,0,0,0-7.39,0L1.69,37a2.22,2.22,0,0,0,3.14,3.14l2.49-2.56L4.18,50.19H7.32v4.18a2.09,2.09,0,1,0,4.18,0,2.09,2.09,0,0,0,4.18,0V50.19h3.14L15.68,37.57l3.5,1.81a3.19,3.19,0,0,0,1.46.36l.17,0,0,0H21a2.22,2.22,0,0,0,1.57-.65l.28-.28,3.25-3.25V54.37a2.09,2.09,0,1,0,4.18,0,2.09,2.09,0,1,0,4.18,0V35.55l2.09,2.09,1.24,1.24,1.79,1.79a4.47,4.47,0,0,0,6.33.16l.05-.05v13.6a2.09,2.09,0,1,0,4.18,0,2.09,2.09,0,0,0,4.18,0V40.78l3.53,3.33A2.22,2.22,0,1,0,61,41Z"/><path class="cls-5" d="M42.59,20.57l3,1.3a1,1,0,0,0,.82,0l3-1.3a8.12,8.12,0,0,0,3.78-3.32A8.23,8.23,0,0,0,54.38,13V2.51a1,1,0,0,0-1-1l-.21,0A8.55,8.55,0,0,1,47,.42L46.56.14l-.09,0-.09,0a1,1,0,0,0-.72,0l-.09,0-.09,0L45,.42A8.54,8.54,0,0,1,38.9,1.48a1,1,0,0,0-1.25,1V13a8.23,8.23,0,0,0,1.16,4.21,8.12,8.12,0,0,0,3.79,3.32ZM52.29,3.71V13a6.14,6.14,0,0,1-.86,3.14,6,6,0,0,1-2.81,2.47l-1.55.67V2.79A10.61,10.61,0,0,0,52.29,3.71Zm-12.55,0A10.6,10.6,0,0,0,45,2.79V19.32l-1.55-.67a6,6,0,0,1-2.81-2.47A6.14,6.14,0,0,1,39.74,13Z"/><path class="cls-5" d="M59.61,31.37a1,1,0,1,0,2.09,0,27,27,0,0,0-2.26-10.88,1,1,0,1,0-1.94.78l0,.06A24.94,24.94,0,0,1,59.61,31.37Z"/><path class="cls-5" d="M10.71,13.69a1,1,0,1,0,1.59,1.36A25.08,25.08,0,0,1,31.37,6.27a1,1,0,0,0,0-2.09A27.17,27.17,0,0,0,10.71,13.69Z"/><path class="cls-5" d="M54.83,33.2a6.34,6.34,0,0,0-1.29-1,5.23,5.23,0,1,0-6.52.14,6.2,6.2,0,0,0-1,.83L44.08,35a1.67,1.67,0,0,1-2.36,0l-7-7a6.23,6.23,0,0,0-1-.79,6.27,6.27,0,1,0-6.93,0,6.27,6.27,0,0,0-1,.79l-5.33,5.33-4.69-3.37a6.27,6.27,0,0,0-.87-.69,6.35,6.35,0,0,0,1.16-1h2.66a1,1,0,0,0,.94-1.51l-2.33-4.66a6.12,6.12,0,0,0-.8-1.62,1,1,0,0,0-.23-.3,6.23,6.23,0,0,0-9.86.1l-.11.15a6.24,6.24,0,0,0-.84,1.66L3.25,26.71a1,1,0,0,0,.93,1.52H6.85a6.3,6.3,0,0,0,1.15,1,6.25,6.25,0,0,0-.93.76L1,36.18A3.26,3.26,0,0,0,5.38,41L3.17,49.86a1,1,0,0,0,1,1.31H6.27V54.3a3.13,3.13,0,0,0,5.23,2.32,3.13,3.13,0,0,0,5.23-2.32V51.17h2.09a1,1,0,0,0,1-1.3L17.26,39.49l1.44.75a4.13,4.13,0,0,0,2,.47H21a3.29,3.29,0,0,0,2.31-1L25.1,38V54.3a3.13,3.13,0,0,0,5.23,2.32,3.13,3.13,0,0,0,5.23-2.32V38l3.35,3.35A5.53,5.53,0,0,0,45,42.61V54.3a3.13,3.13,0,0,0,5.23,2.32,3.13,3.13,0,0,0,5.23-2.32V43.13l1.75,1.65a3.26,3.26,0,0,0,4.62-4.62Zm-4.63-8.11a3.14,3.14,0,1,1-3.14,3.14h0A3.14,3.14,0,0,1,50.19,25.09ZM30.32,17.77A4.18,4.18,0,1,1,26.14,22,4.18,4.18,0,0,1,30.32,17.77ZM8.18,26.56a1,1,0,0,0-.84-.42H5.88l1.61-3.22.06-.15a4.19,4.19,0,0,1,.58-1.17l.06-.07a4.14,4.14,0,0,1,6.65,0l.05.07a4.15,4.15,0,0,1,.58,1.17l.06.15,1.61,3.22H15.67a1,1,0,0,0-.84.42,4.13,4.13,0,0,1-3,1.64,5.94,5.94,0,0,0-.64,0,4.13,4.13,0,0,1-3-1.64ZM59.48,43.64a1.2,1.2,0,0,1-.85-.36L55.1,39.94a1,1,0,0,0-1.77.77V54.3a1,1,0,1,1-2.09,0V46.48a1,1,0,1,0-2.09,0V54.3a1,1,0,1,1-2.09,0V40.71a1,1,0,0,0-1.76-.76,3.44,3.44,0,0,1-4.87,0l0-.05-5.12-5.12a1,1,0,0,0-1.79.74V54.3a1,1,0,1,1-2.09,0V41.75a1,1,0,1,0-2.09,0V54.3a1,1,0,1,1-2.09,0V35.48a1,1,0,0,0-1.79-.74l-3.53,3.53a1.18,1.18,0,0,1-.76.35h-.36l-.1,0a2.15,2.15,0,0,1-1-.24l-3.5-1.81a1,1,0,0,0-1.5,1.18l2.82,11.32H15.68a1,1,0,0,0-1,1V54.3a1,1,0,1,1-2.09,0V50.12a1,1,0,1,0-2.09,0V54.3a1,1,0,1,1-2.09,0V50.12a1,1,0,0,0-1-1H5.52L8.34,37.75a1,1,0,0,0-1.77-1L4.09,39.31a1.17,1.17,0,1,1-1.66-1.66l6.12-6.18A4.14,4.14,0,0,1,11,30.29l.47,0,.47,0a4.14,4.14,0,0,1,2.48,1.18l.13.11,5.48,3.94a1,1,0,0,0,1.35-.11l6-6a4.18,4.18,0,0,1,5.91,0l7,7a3.75,3.75,0,0,0,5.26.07l1.92-1.82a4.28,4.28,0,0,1,5.91,0l7,7a1.17,1.17,0,0,1-.83,2Z"/></g></g></g></g></svg>