<svg xmlns="http://www.w3.org/2000/svg" viewBox="0 0 44.63 62.89"><defs><style>.cls-1{fill:#f2e7c3;}.cls-2{fill:#f0eccc;}.cls-3{fill:#3f3a34;}</style></defs><title>services</title><g id="Layer_2" data-name="Layer 2"><g id="Layer_1-2" data-name="Layer 1"><g id="Home"><g id="Sec_services"><polygon class="cls-1" points="11.46 24.79 7.1 23.33 7.1 17.25 11.46 15.79 9.4 11.68 13.71 7.38 17.82 9.43 19.27 5.07 25.36 5.07 26.81 9.43 30.92 7.38 35.22 11.68 33.17 15.79 37.53 17.25 37.53 23.33 33.17 24.79 35.22 28.89 30.92 33.2 26.81 31.14 25.36 35.5 19.27 35.5 17.82 31.14 13.71 33.2 9.4 28.89 11.46 24.79"/><rect class="cls-2" x="23.33" y="42.6" width="2.03" height="7.1"/><rect class="cls-2" x="23.33" y="38.55" width="2.03" height="2.03"/><rect class="cls-2" x="19.27" y="42.6" width="2.03" height="7.1"/><rect class="cls-2" x="19.27" y="38.55" width="2.03" height="2.03"/><circle class="cls-2" cx="22.31" cy="20.29" r="7.86"/><path class="cls-3" d="M30.43,20.29a8.11,8.11,0,1,0-8.11,8.11A8.12,8.12,0,0,0,30.43,20.29Zm-8.11,6.09a6.09,6.09,0,1,1,6.09-6.09A6.09,6.09,0,0,1,22.31,26.37Z"/><path class="cls-3" d="M22.31,16.23a4.06,4.06,0,1,0,4.06,4.06A4.06,4.06,0,0,0,22.31,16.23Zm0,6.09a2,2,0,1,1,2-2A2,2,0,0,1,22.31,22.32Z"/><rect class="cls-3" x="21.3" y="8.12" width="2.03" height="2.03"/><rect class="cls-3" x="13.41" y="11.39" width="2.03" height="2.03" transform="translate(-4.54 13.83) rotate(-45)"/><rect class="cls-3" x="10.14" y="19.27" width="2.03" height="2.03"/><rect class="cls-3" x="13.41" y="27.16" width="2.03" height="2.03" transform="translate(-15.7 18.45) rotate(-45)"/><rect class="cls-3" x="21.3" y="30.43" width="2.03" height="2.03"/><rect class="cls-3" x="29.19" y="27.16" width="2.03" height="2.03" transform="translate(-11.08 29.61) rotate(-45)"/><rect class="cls-3" x="32.46" y="19.27" width="2.03" height="2.03"/><rect class="cls-3" x="29.19" y="11.38" width="2.03" height="2.03" transform="translate(0.08 24.99) rotate(-45)"/><path class="cls-3" d="M37.65,6.11A22.1,22.1,0,0,0,21.06,0,22.36,22.36,0,0,0,0,22,22.07,22.07,0,0,0,6.72,38.25a17.34,17.34,0,0,1,5.45,12.42v4.1H32.46v-4A17.61,17.61,0,0,1,38,38.21a22.28,22.28,0,0,0-.3-32.1ZM30.43,52.75H14.2v-2H30.43s0,0,0,.07v2Zm6.1-16a19.87,19.87,0,0,0-6,11.93H14.09A19.58,19.58,0,0,0,8.14,36.8,20.06,20.06,0,0,1,2,22,20.28,20.28,0,0,1,36.26,7.58a20.26,20.26,0,0,1,.27,29.18Z"/><path class="cls-3" d="M22.31,60.86c-2.8,0-5.07-1.82-5.07-4.06h-2c0,3.36,3.19,6.09,7.1,6.09s7.1-2.73,7.1-6.09h-2C27.39,59,25.11,60.86,22.31,60.86Z"/><polygon class="cls-3" points="33.49 14.83 32.85 16.75 36.52 17.98 36.52 22.6 31.74 24.19 33.99 28.7 30.72 31.96 26.22 29.71 24.63 34.49 20 34.49 18.41 29.71 13.91 31.96 10.12 28.18 8.69 29.61 13.51 34.43 17.23 32.57 18.54 36.52 26.09 36.52 27.4 32.57 31.12 34.43 36.46 29.09 34.6 25.38 38.54 24.06 38.54 16.51 33.49 14.83"/><polygon class="cls-3" points="11.78 23.82 8.11 22.6 8.11 17.98 12.89 16.38 10.64 11.88 13.91 8.61 18.41 10.86 20 6.09 24.63 6.09 26.22 10.86 30.72 8.61 34.51 12.4 35.94 10.96 31.12 6.14 27.4 8 26.09 4.06 18.54 4.06 17.23 8 13.51 6.14 8.17 11.48 10.03 15.2 6.09 16.51 6.09 24.06 11.14 25.75 11.78 23.82"/></g></g></g></g></svg>