<svg xmlns="http://www.w3.org/2000/svg" viewBox="0 0 53.76 47.18"><defs><style>.cls-1{fill:#7d8287;}.cls-2{fill:#fbfaf1;}.cls-3{fill:#1c1e26;}</style></defs><title>sv_api</title><g id="Layer_2" data-name="Layer 2"><g id="Layer_1-2" data-name="Layer 1"><g id="Home"><g id="Sec_services"><path class="cls-1" d="M26.55,11.6a12.83,12.83,0,1,0,25.66,0Zm0,0"/><path class="cls-2" d="M34.53,1.55H32.43a1.79,1.79,0,0,0-1.79,1.79V9.81a1.79,1.79,0,0,0,1.79,1.79h2.11a1.79,1.79,0,0,0,1.79-1.79V3.34a1.79,1.79,0,0,0-1.79-1.79Zm0,0"/><path class="cls-3" d="M53.76,11.6A1.55,1.55,0,0,0,52.2,10H49.72c0-.08,0-.15,0-.23V3.34A3.35,3.35,0,0,0,46.39,0H44.28a3.35,3.35,0,0,0-3.34,3.34V9.81c0,.08,0,.16,0,.23H37.86c0-.08,0-.15,0-.23V3.34A3.35,3.35,0,0,0,34.53,0H32.42a3.35,3.35,0,0,0-3.34,3.34V9.81c0,.08,0,.16,0,.23H26.55A1.55,1.55,0,0,0,25,11.6,14.4,14.4,0,0,0,38,25.91v7.22a10.93,10.93,0,1,1-21.86,0V19.29c0-6-3.06-10.79-8.19-12.94a1.55,1.55,0,1,0-1.2,2.87C10.69,10.86,13,14.63,13,19.29V33.14a14,14,0,1,0,28.08,0V25.87A14.4,14.4,0,0,0,53.76,11.6ZM44,9.81V3.34a.24.24,0,0,1,.23-.23h2.11a.24.24,0,0,1,.23.23V9.81a.24.24,0,0,1-.23.23H44.28A.24.24,0,0,1,44,9.81Zm-11.85,0V3.34a.24.24,0,0,1,.23-.23h2.11a.24.24,0,0,1,.23.23V9.81a.24.24,0,0,1-.23.23H32.42a.24.24,0,0,1-.23-.23Zm7.18,13.06a11.24,11.24,0,0,1-8.12-3.46h6.28a1.55,1.55,0,1,0,0-3.11h-8.4a11.15,11.15,0,0,1-.93-3.15H50.54a11.29,11.29,0,0,1-11.17,9.72Zm0,0"/><path d="M2.47,5.45l-.07,0A1.55,1.55,0,0,0,.71,8l.07,0A1.55,1.55,0,1,0,2.47,5.45Zm0,0"/></g></g></g></g></svg>