<svg xmlns="http://www.w3.org/2000/svg" viewBox="0 0 56 40.25"><defs><style>.cls-1{fill:#5d647f;}.cls-2{fill:#ffd100;}.cls-3{fill:#b8bac0;}.cls-4{fill:#8a8895;}.cls-5{fill:#ff4f19;}.cls-6{fill:#ff9500;}</style></defs><title>sv_payment</title><g id="Layer_2" data-name="Layer 2"><g id="Layer_1-2" data-name="Layer 1"><g id="Home"><g id="Sec_services"><path class="cls-1" d="M51.63,0H4.37A4.38,4.38,0,0,0,0,4.37v31.5a4.38,4.38,0,0,0,4.37,4.37H51.63A4.38,4.38,0,0,0,56,35.87V4.37A4.38,4.38,0,0,0,51.63,0Zm0,0"/><path class="cls-2" d="M19.25,17.5H8.75A1.75,1.75,0,0,1,7,15.75v-7A1.75,1.75,0,0,1,8.75,7h10.5A1.75,1.75,0,0,1,21,8.75v7a1.75,1.75,0,0,1-1.75,1.75Zm0,0"/><path class="cls-3" d="M13.12,28.87H8.75A1.75,1.75,0,0,1,7,27.12v-.87A1.75,1.75,0,0,1,8.75,24.5h4.37a1.75,1.75,0,0,1,1.75,1.75v.87a1.75,1.75,0,0,1-1.75,1.75Zm0,0"/><path class="cls-3" d="M24.5,28.87H20.12a1.75,1.75,0,0,1-1.75-1.75v-.87a1.75,1.75,0,0,1,1.75-1.75H24.5a1.75,1.75,0,0,1,1.75,1.75v.87a1.75,1.75,0,0,1-1.75,1.75Zm0,0"/><path class="cls-3" d="M35.87,28.87H31.5a1.75,1.75,0,0,1-1.75-1.75v-.87A1.75,1.75,0,0,1,31.5,24.5h4.37a1.75,1.75,0,0,1,1.75,1.75v.87a1.75,1.75,0,0,1-1.75,1.75Zm0,0"/><path class="cls-3" d="M47.25,28.87H42.88a1.75,1.75,0,0,1-1.75-1.75v-.87a1.75,1.75,0,0,1,1.75-1.75h4.37A1.75,1.75,0,0,1,49,26.25v.87a1.75,1.75,0,0,1-1.75,1.75Zm0,0"/><path class="cls-4" d="M25.38,34.13H7.88a.88.88,0,1,1,0-1.75h17.5a.88.88,0,0,1,0,1.75Zm0,0"/><path class="cls-4" d="M36.75,34.13H28.87a.88.88,0,0,1,0-1.75h7.88a.88.88,0,0,1,0,1.75Zm0,0"/><path class="cls-5" d="M40.25,15.75a5.25,5.25,0,1,1,0-7"/><path class="cls-6" d="M21,13.12H12.25V11.37H21V9.62H12.25V7H10.5V17.5h1.75V14.88H21Zm0,0"/><path class="cls-2" d="M49,12.25A5.25,5.25,0,1,1,43.75,7,5.25,5.25,0,0,1,49,12.25Zm0,0"/></g></g></g></g></svg>