<?xml version="1.0" encoding="utf-8"?>
<!-- Generator: Adobe Illustrator 21.0.0, SVG Export Plug-In . SVG Version: 6.00 Build 0)  -->
<svg version="1.1" id="Layer_1" xmlns="http://www.w3.org/2000/svg" xmlns:xlink="http://www.w3.org/1999/xlink" x="0px" y="0px"
	 viewBox="0 0 198 42.7" style="enable-background:new 0 0 198 42.7;" xml:space="preserve">
<style type="text/css">
	.st0{fill:#3B96DC;}
</style>
<g>
	<g>
		<path class="st0" d="M197.9,35.5c-0.2-0.3-0.5-0.6-0.7-0.8c-1-1.3-2-2.5-3.1-3.7c-0.1-0.1-0.2-0.2-0.3-0.4c-0.6-0.8-1.3-1.7-2-2.4
			c-0.1-0.2-0.3-0.4-0.4-0.5c0,0,0-0.1-0.1-0.1c-1-1-1.7-2.1-2.7-3.1c-0.2-0.2-0.1-0.4,0-0.5s0.4-0.1,0.6-0.2
			c0.9-0.4,1.6-0.9,2.3-1.5c0.4-0.3,0.7-0.7,1-1.1c0.5-0.8,0.9-1.6,1.2-2.5c0.2-0.8,0.4-1.6,0.4-2.4c0-0.6,0-1.2-0.1-1.8
			c-0.2-0.7-0.3-1.4-0.6-2.1c-0.3-0.8-0.7-1.5-1.3-2.2c-0.2-0.4-0.6-0.7-0.9-0.9c-0.1-0.1-0.4-0.2-0.5-0.4c-0.5-0.3-1-0.6-1.5-0.8
			c-0.4-0.2-0.9-0.3-1.3-0.4c-0.5-0.2-1.1-0.3-1.6-0.4c-3.9-0.1-7.8,0-11.7,0c-0.3,0-0.4,0.1-0.4,0.5v28.1c0,0.4,0.1,0.5,0.5,0.5
			c1.8,0,3.7,0,5.5,0c0.6,0,0.6,0,0.6-0.6V25.2c0-0.1-0.1-0.4,0.1-0.4s0.3,0.2,0.4,0.3l0.1,0.1c0.3,0.5,0.6,0.9,1,1.3
			c0.4,0.4,0.7,0.9,1,1.4c0.5,0.6,1,1.2,1.5,1.9s0.9,1.2,1.4,1.8c0.6,0.8,1.1,1.5,1.8,2.3c0.5,0.6,0.9,1.2,1.4,1.8
			c0.2,0.2,0.4,0.3,0.7,0.3c1.2,0,2.4,0,3.6,0c1.3,0,2.7,0,4,0c0.1,0,0.3,0,0.3-0.1S197.9,35.6,197.9,35.5z M187,16.3
			c-0.1,1.3-0.8,2.4-2,2.9c-1.2,0.4-2.5,0.5-3.8,0.4c-0.3,0-0.3-0.2-0.3-0.4v-3.4c0-1.1,0-2.2,0-3.3c0-0.3,0.1-0.5,0.4-0.4
			c0.7,0,1.5-0.1,2.2,0c1.2,0.1,2.3,0.6,3,1.6c0.4,0.5,0.6,1.1,0.6,1.7C187,15.7,187,16,187,16.3z"/>
		<path class="st0" d="M170.3,6.9c0,1.7,0,3.5,0,5.2c0,0.4-0.1,0.5-0.5,0.5H161c-0.6,0-0.6,0-0.6,0.6c0,1.5,0,3.1,0,4.7
			c0,0.5,0,0.5,0.5,0.5h8.4c0.6,0,0.6,0,0.6,0.6c0,1.6,0,3.2,0,4.8c0,0.6,0,0.6-0.6,0.6h-8.3c-0.5,0-0.5,0-0.5,0.5
			c0,1.6,0,3.1,0,4.7c0,0.4,0.1,0.5,0.5,0.5h8.8c0.6,0,0.6,0,0.6,0.6c0,1.7,0,3.3,0,5c0,0.3-0.1,0.4-0.4,0.4h-16.1
			c-0.1-0.1-0.1-0.3-0.1-0.5c0-9.2,0-18.4,0-27.6c-0.1-0.3,0-0.6,0.1-0.9c0.3-0.2,0.5-0.1,0.8-0.1c5,0,10,0,15,0
			C169.8,6.8,170.1,6.7,170.3,6.9z"/>
		<path class="st0" d="M93.7,21.4c0-4.7,0-9.3,0-13.9c0-0.6,0-0.6,0.6-0.6h15.4c0.6,0,0.6,0,0.6,0.6c0,1.5,0,3.1,0,4.7
			c0,0.5,0,0.5-0.5,0.5h-8.8c-0.5,0-0.5,0-0.5,0.6c0,1.5,0,3.1,0,4.6c0,0.6,0,0.6,0.7,0.6h8.3c0.5,0,0.5,0,0.5,0.5
			c0,1.6,0,3.3,0,4.9c0,0.4-0.1,0.5-0.5,0.5h-8.5c-0.5,0-0.5,0-0.5,0.5c0,1.6,0,3.1,0,4.7c0,0.5,0,0.5,0.5,0.5h8.8
			c0.6,0,0.6,0,0.6,0.6c0,1.6,0,3.2,0,4.9c0,0.4-0.1,0.5-0.5,0.5H94.3c-0.5,0-0.5,0-0.5-0.5C93.7,30.7,93.7,26,93.7,21.4z"/>
		<path class="st0" d="M91.3,6.9c0,1.8,0,3.5,0,5.3c0,0.4-0.1,0.4-0.5,0.4h-5.8c-0.6,0-0.6,0-0.6,0.6c0,7.3,0,14.5,0,21.8
			c0,0.1,0,0.3,0,0.4c0,0.6,0,0.6-0.6,0.6h-5.4c-0.7,0-0.7,0-0.7-0.7c0-4.9,0-9.9,0-14.8c0-2.4,0-4.8,0-7.2c0-0.6-0.1-0.7-0.7-0.7
			c-2,0-3.9,0-5.9,0c-0.4,0-0.5-0.1-0.5-0.5c0-1.7,0-3.5,0-5.2c0.2-0.2,0.4-0.1,0.6-0.1c6.3,0,12.6,0,18.8,0
			C90.6,6.8,91,6.7,91.3,6.9z"/>
		<path class="st0" d="M134,21.4c0-4.6,0-9.2,0-13.9c0-0.6,0-0.6,0.6-0.6h5.4c0.6,0,0.6,0,0.6,0.6c0,7.3,0,14.6,0,21.9
			c0,0.6,0,0.6,0.6,0.6h8.8c0.5,0,0.5,0,0.5,0.5c0,1.7,0,3.3,0,5c0,0.4-0.1,0.5-0.5,0.5h-15.6c-0.5,0-0.5,0-0.5-0.5
			C134,30.7,134,26,134,21.4z"/>
		<path class="st0" d="M114.2,21.4c0-4.7,0-9.3,0-13.9c0-0.6,0-0.6,0.6-0.6h5.5c0.5,0,0.5,0,0.5,0.5c0,7.3,0,14.7,0,22
			c0,0.6,0,0.6,0.6,0.6h8.8c0.5,0,0.5,0,0.5,0.5c0,1.6,0,3.3,0,4.9c0,0.5,0,0.5-0.5,0.5h-15.5c-0.5,0-0.5,0-0.5-0.5
			C114.2,30.7,114.2,26.1,114.2,21.4z"/>
	</g>
	<g>
		<path class="st0" d="M62.3,10.8c0,0,0-0.1,0-0.1c0-0.2-0.1-0.5-0.2-0.7c-0.2-0.7-0.5-1.5-1-2.1c-0.4-0.6-0.9-1-1.4-1.4
			c-0.3-0.2-0.6-0.4-0.9-0.5c-0.4-0.2-0.9-0.3-1.3-0.4h-0.3c-0.2,0-0.4-0.1-0.5-0.1H43.2c-0.3,0-0.4-0.1-0.5-0.4
			c0-0.1,0-0.2-0.1-0.3c0-0.1,0-0.2,0-0.3c-0.2-0.6-0.5-1.1-0.8-1.7c-0.3-0.4-0.6-0.8-1-1.1c-0.5-0.5-1.1-0.8-1.7-1.1
			c-0.1-0.1-0.3-0.1-0.5-0.2s-0.4-0.1-0.6-0.2h-0.4C37.5,0,37.4,0,37.2,0c-4.5,0-9,0-13.5,0H7C6.4-0.1,5.8,0,5.2,0.1
			c-0.2,0-0.5,0-0.7,0.1C3.8,0.4,3.2,0.7,2.7,1.1C2.1,1.5,1.6,1.9,1.2,2.5C0.8,3,0.6,3.5,0.4,4.1C0.1,4.7,0,5.3,0,5.8
			c0,5.6,0,11.3,0,16.9c0,0.7,0,1.4,0.2,2.1c0,0,0,0,0,0.1s0,0,0,0c0.2,0.6,0.4,1.2,0.8,1.8c0,0.1,0.1,0.2,0.2,0.3
			c0.1,0.1,0.2,0.3,0.3,0.4c0.2,0.3,0.4,0.5,0.7,0.7c0.3,0.3,0.7,0.6,1.1,0.8c0.3,0.2,0.7,0.3,1.1,0.5c0.6,0.2,1.2,0.2,1.8,0.3
			c0.4,0,0.4,0,0.4,0.4c0,1.8,0.1,3.7,0.1,5.5c0,0.6,0.2,1.2,0.7,1.6C8,37.5,9,37.5,9.7,37l1-0.8c0.3-0.3,0.7-0.5,1.1-0.9
			c0.1-0.1,0.3-0.3,0.4-0.4l0.4-0.3c0.1-0.1,0.3-0.2,0.4-0.3c0.2-0.1,0.3-0.3,0.4-0.3c0-0.1,0.1-0.1,0.2-0.2
			c0.1-0.1,0.2-0.2,0.4-0.3c0.2-0.1,0.3-0.3,0.4-0.3c0.2-0.2,0.5-0.4,0.7-0.6l0.1-0.1c0.2-0.1,0.4-0.2,0.5-0.4
			c0.3-0.2,0.5-0.5,0.8-0.7c0.1-0.1,0.3-0.2,0.4-0.3l0.3-0.2l0.9-0.8c0.1-0.2,0.4-0.2,0.5-0.4c0.2-0.2,0.5-0.3,0.8-0.3
			c0.1,0,0.3,0.1,0.3,0.2c0.1,0.5,0.3,1,0.5,1.4c0.1,0.3,0.3,0.5,0.4,0.7c0.3,0.5,0.7,0.9,1.1,1.3c0.4,0.3,0.8,0.6,1.2,0.9
			c0.1,0.1,0.2,0.1,0.2,0.1c0.3,0.2,0.7,0.3,1.1,0.4c0.3,0,0.6,0.2,0.9,0.2c0.2,0,0.4,0.1,0.5,0.1H37c2.2,0,4.3,0,6.5,0
			c0.1,0,0.3,0.1,0.4,0.2c0.2,0.2,0.4,0.4,0.7,0.5c0.1,0.2,0.3,0.3,0.5,0.4s0.4,0.3,0.6,0.5c0.2,0.1,0.4,0.3,0.6,0.5
			c0.1,0,0.1,0.1,0.2,0.1c0.8,0.7,1.6,1.3,2.4,2c0.5,0.5,1.1,0.9,1.7,1.4c0.2,0.1,0.3,0.3,0.5,0.4l0.3,0.3l1.4,1.2
			c0.3,0.3,0.7,0.4,1.2,0.4l0,0c0.3,0,0.6-0.1,0.9-0.3c0.1-0.1,0.3-0.2,0.4-0.4l0.3-0.4c0.1-0.2,0.2-0.5,0.2-0.7c0-0.5,0-1,0.1-1.5
			c0-0.8,0-1.6,0.1-2.4v-0.6c0.1-0.4,0.1-0.9,0.1-1.3c0-0.2,0.1-0.3,0.3-0.3c0.3,0,0.6,0,0.9-0.1c0.4-0.1,0.8-0.1,1.1-0.3
			c0.4-0.2,0.8-0.3,1.2-0.6c0.6-0.4,1.2-0.9,1.7-1.5l0.1-0.3c0.1-0.1,0.2-0.1,0.2-0.2c0.1-0.2,0.2-0.3,0.3-0.4
			c0-0.1,0.1-0.2,0.1-0.3c0.2-0.3,0.3-0.7,0.4-1.1c0.1-0.3,0.1-0.6,0.2-0.9s0.1-0.5,0.1-0.7C62.4,22.5,62.5,16.6,62.3,10.8z
			 M58.5,28.5c0,0.9-0.6,1.8-1.4,2.2c-0.1,0.1-0.3,0.1-0.4,0.1c-1,0.1-2,0.1-3,0.1c-0.4,0-0.7,0.2-1,0.5c-0.1,0.1-0.2,0.2-0.3,0.3
			C52.1,32.1,52,32.5,52,33c0,1.1-0.2,2.3-0.1,3.4c0,0.1,0,0.2,0,0.2s-0.2,0-0.2-0.1c-0.4-0.4-0.8-0.7-1.2-1
			c-0.2-0.2-0.5-0.3-0.7-0.5l-0.6-0.5c-0.2-0.1-0.3-0.2-0.4-0.3s-0.4-0.3-0.6-0.5s-0.4-0.3-0.6-0.5s-0.3-0.3-0.5-0.5
			s-0.4-0.3-0.6-0.5c-0.4-0.3-0.7-0.6-1.1-0.9c-0.1,0-0.1-0.1-0.2-0.1c-0.5-0.2-1-0.3-1.6-0.3H26.2c-0.3,0-0.7,0-1-0.1
			c-0.3-0.1-0.6-0.2-0.9-0.4c-0.1-0.1-0.3-0.3-0.4-0.4c-0.2-0.3-0.3-0.6-0.4-0.9c-0.1-0.2-0.1-0.3-0.1-0.5V11.4
			c0-0.5,0.2-0.9,0.5-1.3c0.2-0.1,0.4-0.3,0.5-0.5c0.1,0,0.2-0.1,0.3-0.2c0.2,0,0.4,0,0.5-0.2h31.6c0.3,0.2,0.7,0.3,1,0.6
			c0.1,0.1,0.2,0.2,0.3,0.2c0.4,0.5,0.5,1.1,0.5,1.7C58.5,17.3,58.5,22.9,58.5,28.5z"/>
		<path class="st0" d="M33.8,19.8c0,0,0,0.1,0,0.1c-0.1,0.3-0.2,0.5-0.3,0.7c-0.1,0.1-0.1,0.2-0.2,0.3c-0.1,0.2-0.3,0.4-0.5,0.5
			c-1,0.7-2.3,0.7-3.3,0c-0.5-0.3-0.8-0.8-1-1.3c0-0.2-0.1-0.4-0.1-0.6c0-0.6,0.2-1.2,0.5-1.7c0.1-0.1,0.2-0.2,0.2-0.3
			c0.3-0.3,0.8-0.5,1.2-0.7c0.5-0.2,1.1-0.2,1.6,0c0.3,0.1,0.6,0.2,0.8,0.4c0.3,0.2,0.6,0.5,0.8,0.9c0.1,0.2,0.2,0.4,0.2,0.5
			C33.8,19,33.8,19.4,33.8,19.8z"/>
		<path class="st0" d="M43.6,19.3c0,0.2,0,0.4-0.1,0.6c0,0.2-0.2,0.3-0.2,0.5c-0.1,0.2-0.2,0.4-0.3,0.5c-0.1,0.2-0.3,0.4-0.5,0.5
			c-1.3,0.9-3.1,0.6-4-0.7c-0.3-0.4-0.4-0.8-0.4-1.2c-0.1-0.6,0.1-1.2,0.5-1.7c0.1-0.1,0.2-0.2,0.2-0.3c0.4-0.4,1-0.7,1.6-0.8
			c1.3-0.2,2.5,0.5,3,1.7c0,0.1,0,0.2,0.1,0.3C43.6,18.9,43.6,19.1,43.6,19.3z"/>
		<path class="st0" d="M53,20.3c-0.1,0.3-0.3,0.6-0.5,0.8c-0.1,0-0.1,0.1-0.2,0.2c-0.4,0.3-0.8,0.6-1.3,0.7C50.7,22,50.4,22,50.1,22
			c-0.5-0.1-1-0.3-1.4-0.6c-0.2-0.2-0.3-0.3-0.5-0.5c-0.5-0.6-0.7-1.5-0.4-2.3c0.1-0.4,0.3-0.7,0.5-1c0-0.1,0.1-0.1,0.2-0.1
			c0.6-0.5,1.3-0.8,2-0.8c0.3,0,0.6,0.1,0.9,0.2l0.4,0.1c0.4,0.2,0.7,0.6,1,0.9c0.2,0.3,0.3,0.7,0.3,1C53.2,19.4,53.2,19.9,53,20.3z
			"/>
	</g>
</g>
</svg>
