<svg xmlns="http://www.w3.org/2000/svg" viewBox="0 0 198 42.67"><defs><style>.cls-1{fill:#3b96dc;}</style></defs><title>teller</title><g id="Layer_2" data-name="Layer 2"><g id="Layer_1-2" data-name="Layer 1"><path class="cls-1" d="M197.87,35.51a5.92,5.92,0,0,0-.74-.85c-1-1.27-2-2.52-3.11-3.74a1.86,1.86,0,0,1-.34-.39,27.73,27.73,0,0,0-2-2.42,1.93,1.93,0,0,0-.44-.54c0-.05,0-.1-.05-.14-1-1-1.73-2.15-2.67-3.13-.2-.2-.15-.36,0-.54s.41-.12.58-.22A9.37,9.37,0,0,0,191.44,22a8.22,8.22,0,0,0,1-1.13,8.1,8.1,0,0,0,1.18-2.54,9.06,9.06,0,0,0,.41-2.42,9.31,9.31,0,0,0-.05-1.83,18.88,18.88,0,0,0-.58-2.13,8,8,0,0,0-1.27-2.18,3.11,3.11,0,0,0-.95-.93c-.14-.14-.36-.19-.47-.36a13.32,13.32,0,0,0-1.46-.8c-.42-.15-.88-.25-1.3-.41a5,5,0,0,0-1.61-.36c-3.89-.05-7.78,0-11.69,0-.34,0-.44.12-.44.46V35.45c0,.36.12.47.47.47,1.83,0,3.67,0,5.5,0,.63,0,.64,0,.64-.63V25.21c0-.14-.07-.36.08-.41s.25.17.36.29l.1.15a15.18,15.18,0,0,0,1,1.32c.39.42.66.91,1,1.35.51.61,1,1.24,1.47,1.86s.9,1.18,1.35,1.78c.59.76,1.15,1.54,1.76,2.28.47.58.91,1.17,1.37,1.76a.76.76,0,0,0,.68.32c1.18,0,2.37,0,3.55,0,1.34,0,2.67,0,4,0,.12,0,.27.05.34-.1S197.92,35.6,197.87,35.51ZM187,16.33a3.39,3.39,0,0,1-2,2.91,10.6,10.6,0,0,1-3.84.41c-.29,0-.27-.2-.27-.39V15.87c0-1.08,0-2.18,0-3.28,0-.32.1-.46.44-.44.73,0,1.46-.07,2.17,0a4,4,0,0,1,3,1.57,2.86,2.86,0,0,1,.56,1.69C187,15.73,187,16,187,16.33Z"/><path class="cls-1" d="M170.29,6.9c0,1.75,0,3.5,0,5.25,0,.37-.14.46-.48.46H161c-.58,0-.58,0-.58.57q0,2.32,0,4.65c0,.51,0,.53.52.53h8.36c.57,0,.57,0,.57.58q0,2.38,0,4.76c0,.59,0,.59-.61.59h-8.32c-.52,0-.52,0-.52.52,0,1.57,0,3.15,0,4.72,0,.36.12.47.47.47h8.84c.59,0,.59,0,.59.57,0,1.65,0,3.3,0,4.95,0,.31-.1.41-.41.41H153.81c-.15-.13-.11-.3-.11-.47,0-9.2,0-18.4,0-27.6a1.9,1.9,0,0,1,.08-.94c.25-.19.54-.11.8-.11,5,0,10,0,15,0C169.81,6.81,170.07,6.72,170.29,6.9Z"/><path class="cls-1" d="M93.74,21.36q0-7,0-13.9c0-.58,0-.58.58-.58h15.36c.56,0,.56,0,.56.56q0,2.32,0,4.65c0,.51,0,.51-.53.51h-8.84c-.53,0-.53,0-.53.55q0,2.29,0,4.57c0,.63,0,.63.65.63h8.28c.52,0,.52,0,.52.52,0,1.65,0,3.3,0,4.95,0,.36-.11.47-.47.47h-8.47c-.52,0-.52,0-.52.52q0,2.34,0,4.68c0,.49,0,.5.51.5h8.81c.59,0,.59,0,.59.57,0,1.62,0,3.25,0,4.87,0,.38-.11.49-.49.49H94.25c-.51,0-.51,0-.51-.53Q93.74,28.37,93.74,21.36Z"/><path class="cls-1" d="M91.34,6.91c0,1.75,0,3.5,0,5.25,0,.35-.12.45-.46.45H85.09c-.56,0-.56,0-.56.56q0,10.91,0,21.81c0,.12,0,.25,0,.37,0,.57,0,.57-.59.57H78.58c-.66,0-.66,0-.66-.65q0-7.4,0-14.8,0-3.6,0-7.2c0-.6-.07-.66-.67-.66-2,0-3.92,0-5.88,0-.38,0-.49-.12-.49-.5,0-1.74,0-3.47,0-5.21.16-.17.37-.11.57-.11,6.27,0,12.55,0,18.82,0C90.63,6.78,91,6.66,91.34,6.91Z"/><path class="cls-1" d="M134,21.38q0-6.93,0-13.86c0-.63,0-.63.65-.63H140c.6,0,.6,0,.6.59q0,10.94,0,21.88c0,.63,0,.63.64.63H150c.52,0,.53,0,.53.52,0,1.65,0,3.3,0,4.95,0,.36-.12.47-.48.47H134.48c-.47,0-.49,0-.49-.52Q134,28.38,134,21.38Z"/><path class="cls-1" d="M114.2,21.4q0-7,0-13.94c0-.58,0-.58.58-.58h5.51c.51,0,.52,0,.52.53q0,11,0,22c0,.62,0,.62.62.62h8.77c.52,0,.52,0,.52.53q0,2.45,0,4.91c0,.48,0,.49-.52.49H114.72c-.51,0-.52,0-.52-.53Q114.2,28.39,114.2,21.4Z"/><path class="cls-1" d="M62.35,10.75s0-.09,0-.12c0-.24-.11-.47-.16-.72a6.19,6.19,0,0,0-1-2.08,5.42,5.42,0,0,0-1.44-1.42,6.42,6.42,0,0,0-.94-.54,8.05,8.05,0,0,0-1.3-.45h-.27a2,2,0,0,0-.54-.07H43.24c-.35,0-.41-.06-.46-.4a1.58,1.58,0,0,0-.09-.35.83.83,0,0,0,0-.25,7.94,7.94,0,0,0-.82-1.66,9.71,9.71,0,0,0-1-1.15A6.93,6.93,0,0,0,39.13.43C39,.36,38.82.36,38.68.27s-.41-.09-.59-.16H37.7A1.75,1.75,0,0,0,37.2,0c-4.49,0-9,0-13.49,0H7A6.63,6.63,0,0,0,5.18.1,2.08,2.08,0,0,0,4.5.23a5.4,5.4,0,0,0-1.82.83,6.17,6.17,0,0,0-1.5,1.45A7.38,7.38,0,0,0,.36,4.1,5.43,5.43,0,0,0,0,5.85c0,5.63,0,11.26,0,16.89a6.52,6.52,0,0,0,.19,2.08s0,0,0,.06,0,0,0,0A5.64,5.64,0,0,0,1,26.65c0,.12.14.17.17.27a4.79,4.79,0,0,0,.32.38,2.54,2.54,0,0,0,.66.66,6.13,6.13,0,0,0,1.1.78,5.74,5.74,0,0,0,1.1.46,6.33,6.33,0,0,0,1.75.25c.37,0,.4,0,.4.38,0,1.84.06,3.69.11,5.53A2.08,2.08,0,0,0,7.31,37a2,2,0,0,0,2.39,0l1-.79c.31-.33.73-.53,1.05-.87.15-.12.28-.26.45-.38l.42-.33a5.13,5.13,0,0,0,.4-.33c.16-.09.27-.25.43-.33a.21.21,0,0,1,.16-.16,4.79,4.79,0,0,1,.38-.32c.17-.09.25-.28.43-.33.21-.21.46-.4.67-.59l.11-.11a1.27,1.27,0,0,0,.5-.38c.3-.19.52-.47.82-.67a4.82,4.82,0,0,0,.38-.32l.27-.22.93-.77c.15-.17.38-.24.51-.43a.89.89,0,0,1,.79-.25.26.26,0,0,1,.27.24,6.47,6.47,0,0,0,.46,1.44c.11.25.26.48.38.72a6,6,0,0,0,1.09,1.27,12.5,12.5,0,0,0,1.23.9c.07.06.16.06.24.1a4.68,4.68,0,0,0,1.08.4c.3,0,.57.22.88.17a1.91,1.91,0,0,0,.53.07h11.4c2.17,0,4.33,0,6.5,0a1.08,1.08,0,0,1,.37.2,5.46,5.46,0,0,0,.66.54c.14.19.35.27.5.43s.42.26.56.5a3.71,3.71,0,0,1,.61.48,1.16,1.16,0,0,1,.15.11c.77.69,1.57,1.32,2.36,2,.54.48,1.11.93,1.65,1.42.21.07.31.28.5.38l.33.27,1.37,1.15a1.77,1.77,0,0,0,1.18.41h0a2.41,2.41,0,0,0,.9-.25c.14-.12.35-.19.43-.38l.33-.43a1.34,1.34,0,0,0,.24-.73c0-.5,0-1,.06-1.47,0-.8,0-1.61.09-2.4V36.4a12.1,12.1,0,0,0,.09-1.34c0-.21.09-.28.28-.28A2.4,2.4,0,0,0,57,34.7a5.75,5.75,0,0,0,1.13-.27,9.22,9.22,0,0,0,1.24-.56,7.12,7.12,0,0,0,1.7-1.47l.11-.27a.68.68,0,0,0,.22-.24,1.34,1.34,0,0,1,.27-.43,1.72,1.72,0,0,1,.12-.32,3.41,3.41,0,0,0,.37-1.1c.07-.28.12-.59.19-.88s.06-.48.06-.72C62.36,22.55,62.48,16.65,62.35,10.75ZM58.49,28.53a2.34,2.34,0,0,1-1.42,2.17.82.82,0,0,1-.41.15,18.14,18.14,0,0,1-3,.1,1.56,1.56,0,0,0-1,.47c-.11.09-.2.2-.3.28A1.79,1.79,0,0,0,52,32.95c0,1.14-.16,2.26-.11,3.4,0,.07,0,.17,0,.22s-.17,0-.24-.09c-.4-.36-.84-.67-1.24-1-.21-.2-.45-.35-.66-.53l-.59-.53c-.15-.11-.28-.24-.43-.33s-.41-.33-.61-.5-.4-.3-.57-.48-.33-.28-.47-.45-.41-.33-.61-.5c-.4-.27-.72-.64-1.13-.9a.37.37,0,0,0-.19-.09,3.12,3.12,0,0,0-1.57-.25H26.16a8.65,8.65,0,0,1-1-.06,1.77,1.77,0,0,1-.89-.43c-.14-.11-.26-.25-.4-.36a7.29,7.29,0,0,1-.41-.89,1.51,1.51,0,0,1-.09-.47V11.39a2.43,2.43,0,0,1,.48-1.31,1,1,0,0,0,.5-.48,2.65,2.65,0,0,0,.32-.17.77.77,0,0,0,.5-.16H56.73c.31.2.71.27,1,.59.07.1.16.22.31.22a2.55,2.55,0,0,1,.5,1.66C58.47,17.33,58.49,22.93,58.49,28.53Z"/><path class="cls-1" d="M33.76,19.79a.6.6,0,0,0,0,.14,3.74,3.74,0,0,1-.32.72,2,2,0,0,1-.19.26,1.36,1.36,0,0,1-.5.5,2.92,2.92,0,0,1-3.34,0,2.71,2.71,0,0,1-1-1.31c0-.22-.11-.41-.11-.62a2.58,2.58,0,0,1,.53-1.66c.07-.1.2-.17.24-.3a3,3,0,0,1,1.2-.68,2.59,2.59,0,0,1,1.62,0,4,4,0,0,1,.84.4,3.43,3.43,0,0,1,.75.88,2.68,2.68,0,0,1,.24.54A2.87,2.87,0,0,1,33.76,19.79Z"/><path class="cls-1" d="M43.61,19.33a2,2,0,0,1-.09.59c0,.19-.15.31-.17.48a2,2,0,0,1-.32.51,1.72,1.72,0,0,1-.51.48,2.93,2.93,0,0,1-4-.66,2.39,2.39,0,0,1-.42-1.24,2.31,2.31,0,0,1,.53-1.7c.07-.09.15-.2.22-.3a2.88,2.88,0,0,1,1.56-.78,2.81,2.81,0,0,1,3,1.67,2.06,2.06,0,0,0,.07.26A2.5,2.5,0,0,1,43.61,19.33Z"/><path class="cls-1" d="M53,20.25a2.33,2.33,0,0,1-.51.82.23.23,0,0,0-.16.16,2.67,2.67,0,0,1-1.34.66,2.23,2.23,0,0,1-.85.07,3.21,3.21,0,0,1-1.42-.56,6.18,6.18,0,0,1-.48-.51,2.36,2.36,0,0,1-.43-2.29,3.71,3.71,0,0,1,.52-1,.29.29,0,0,1,.17-.12,2.91,2.91,0,0,1,2.05-.79,3.09,3.09,0,0,1,.94.24l.36.12a3.53,3.53,0,0,1,1,.94,3.52,3.52,0,0,1,.33,1A2.57,2.57,0,0,1,53,20.25Z"/></g></g></svg>