<svg width="128" height="128" viewBox="0 0 128 128" fill="none" xmlns="http://www.w3.org/2000/svg">
<path fill-rule="evenodd" clip-rule="evenodd" d="M63.6 56.736L60.648 56.716L60.296 56.856L60.008 56.832L59.588 56.988L59.5 57.208L59.992 57.924L60.188 58.684L60.484 59.784L60.172 60.236L60.124 60.464L60.36 61.144L60.616 61.832L60.908 62.232L60.96 62.872L60.844 63.716L60.516 64.216L59.936 64.96L59.696 65.42L59.36 66.444L59.296 66.928L58.96 68L58.804 69L58.884 69.712L59.368 69.492L59.96 69.3L60.596 69.336L61.18 69.852L61.336 69.768L65.336 69.72L66.008 70.26L68.408 70.424L70.244 69.956L69.6 69.236L68.96 68.312L69.092 64.712H71.164L71.084 64.312L71.248 63.888L71.084 63.356L71.2 62.8L71.1 62.448L70.648 62.384L70.028 62.548L69.592 62.524L69.344 62.628L69.42 61.276L69.1 60.876L69.036 60.176L69.188 59.488L68.992 59.056V58.34H67.792L67.88 57.94H67.372L67.316 58.136L66.692 58.176L66.44 58.84L66.284 59.12L65.732 58.964L65.404 59.12L64.74 59.212L64.364 58.62L64.144 58.252L63.856 57.572L63.62 56.728L63.6 56.736ZM59.712 56.512L59.744 56.02L59.908 55.736L60.28 55.496L59.88 55.096L59.576 55.284L59.176 55.776L59.448 56.628L59.7 56.504L59.712 56.512Z" fill="#00F400" stroke="#474746" stroke-width="0.25" stroke-miterlimit="10"/>
<path fill-rule="evenodd" clip-rule="evenodd" d="M77.856 53.248L77.804 52.808L77.272 52.732L76.96 53.38L76.356 53.292L76.6 53.808V54.004L76.952 55.088V55.136H77.052L77.42 54.736L77.82 54.148L78.064 53.908V53.54L77.852 53.276L77.856 53.248Z" fill="#00F400" stroke="#474746" stroke-width="0.25" stroke-miterlimit="10"/>
<path fill-rule="evenodd" clip-rule="evenodd" d="M50.884 36.844L50.12 36.188H49.768L49.432 36.516L49.22 36.86L48.728 36.96L48.52 37.46L48.184 37.592L48.056 38.18L48.356 38.516L48.712 38.916L48.744 39.472L48.948 39.704L48.908 42.308L49.152 43.108L49.98 42.976L50.032 41.148L50.004 40.428L50.196 39.716L50.496 39.36L50.98 38.664L50.876 38.36L51.072 37.904L50.84 37.232L50.884 36.832V36.844Z" fill="#00F400" stroke="#474746" stroke-width="0.25" stroke-miterlimit="10"/>
<path fill-rule="evenodd" clip-rule="evenodd" d="M47.6601 33.14H47.0201L46.7761 32.928L46.2281 33.084L45.3001 33.556L45.1121 33.912L44.3401 34.42L44.2001 34.712L43.8001 34.944L43.3081 34.8L43.0281 35.08L42.8801 35.856L42.0801 36.792L42.1081 37.192L41.8281 37.676L41.8921 38.332L42.3441 38.58L42.5161 38.956L42.9601 39.192L43.3121 38.916L43.7801 38.864L44.4601 39.16L44.3281 38.308L44.3521 37.66L46.0841 37.612L46.5241 37.692L46.8441 37.512L47.3041 37.604L48.1801 37.628L48.5161 37.496L48.7241 36.996L49.2161 36.896L49.4281 36.552L49.4521 35.776L48.3041 35.52L48.2721 34.972L47.7041 34.232L47.6001 33.688L47.6801 33.14H47.6601Z" fill="#00F400" stroke="#474746" stroke-width="0.25" stroke-miterlimit="10"/>
<path fill-rule="evenodd" clip-rule="evenodd" d="M72.248 70.188L72.068 70.104L71.5 70.36H71.2L70.56 70.8L70.1961 70.332L68.6641 70.732L67.9281 70.764L67.772 74.8L66.804 74.84L66.688 78.152L66.9521 78.316L67.4841 79.4L67.36 80.088L67.568 80.488L68.2641 80.376L68.772 79.868L69.248 79.52L69.5081 78.98L70 78.72L70.4 78.856L70.848 79.176L71.648 79.228L72.2881 78.964L72.404 78.612L72.6 78.072L73.1321 77.98L73.4521 77.556L73.812 76.792L74.7321 75.948L76.148 75.112L75.5521 74.604L74.7961 74.432L74.5441 73.708V73.308L74.1441 73.184L73.08 71.94L72.792 71.284L72.604 71.084L72.26 70.176L72.248 70.188Z" fill="#00F400" stroke="#474746" stroke-width="0.25" stroke-miterlimit="10"/>
<path fill-rule="evenodd" clip-rule="evenodd" d="M71.132 40.296L71.052 40.24L70.708 39.912L70.632 39.56L70.788 39.092V38.624L70.196 37.92L70.076 37.436L69.444 37.624L68.952 38.084L68.24 39.32L67.312 39.844L66.344 39.78L66.064 39.88L66.164 40.28L65.648 40.68L65.228 41.124L63.976 41.56L63.728 41.304L63.556 41.28L63.376 41.576L62.556 41.656L62.056 42.8L61.82 43.016L61.752 43.892L61.852 44.368L61.78 44.704L62.252 45.3L62.336 45.7L62.712 46.288L63.172 46.652L63.22 47.168L63.328 47.496L63.844 46.444L64.444 45.84L65.116 46.036L65.764 46.092L65.844 45.292L66.244 44.712L66.78 44.352L67.608 44.752L68.248 45.152L68.984 45.264L69.732 45.488L70 44.8L70.132 44.712L70.592 44.828L71.7 44.26L72.1 44.508L72.42 44.464L72.568 44.196L72.936 44.096L73.692 44.212L74.34 44.244L74.668 44.12L74.504 43.76L73.748 43.308L73.484 42.628L73.06 42.136L72.4 41.56V41.192L71.84 40.74L71.132 40.296Z" fill="#00F400" stroke="#474746" stroke-width="0.25" stroke-miterlimit="10"/>
<path fill-rule="evenodd" clip-rule="evenodd" d="M41.896 38.304L41.496 38.476L41.256 38.616L41.112 38.132L40.824 38.264L40.652 38.24L40.464 38.568H39.692L39.412 38.4L39.284 38.504L39.076 38.596L38.996 38.996L39.224 39.464L39.472 40.372L39.072 40.504L38.984 40.66L39.056 40.884L38.992 41.384H38.836L38.788 41.712L38.884 42.26L38.664 42.76L38.96 43.072L39.272 43.144L39.716 43.6L39.74 44.052L39.652 44.192L39.568 45.124L39.756 45.16L40.748 44.76L41.448 44.432L42.648 44.236H43.288L43.984 44.456H44.444L44.484 44.004L44.056 43.028L44.32 41.752L44.72 40.8L44.46 39.2L43.78 38.904L43.312 38.956L42.96 39.232L42.516 38.996L42.344 38.62L41.892 38.372L41.896 38.304Z" fill="#00F400" stroke="#474746" stroke-width="0.25" stroke-miterlimit="10"/>
<path fill-rule="evenodd" clip-rule="evenodd" d="M62.156 37.716L62.188 36.96L62.108 36.212L61.708 35.484L61.428 35.548L61.396 35.912L61.796 36.36L61.688 36.568L61.648 36.944L60.8 37.82L60.544 38.544L60.412 39.132L60.2 39.388L60.004 40.188L59.48 40.656L59.324 41.232L59.1 41.692L59.012 42.156L58.332 42.556L57.764 42.088H57.388L56.8 42.748H56.504L56.036 43.848L55.78 44.648V44.956L56.036 45.12L56.24 45.628L56.7 45.82L57.1 46.572L56.952 47.468L58.584 47.492L59.06 47.416L59.668 47.572L60.264 47.424L60.388 47.484L61.652 47.532L62.452 47.828L63.252 48.096L63.328 47.484L63.22 47.156L63.172 46.64L62.712 46.276L62.336 45.688L62.252 45.288L61.78 44.692L61.852 44.356L61.752 43.88L61.82 43.004L62.056 42.788L62.556 41.64L62.704 41.34L62.384 40.54L62.236 40.072L61.804 39.884L61.2 39.24L61.404 38.708L61.864 38.812L62.144 38.74H62.7L62.144 37.708L62.156 37.716Z" fill="#00F400" stroke="#474746" stroke-width="0.25" stroke-miterlimit="10"/>
<path fill-rule="evenodd" clip-rule="evenodd" d="M73.7 44.224L72.944 44.108L72.576 44.208L72.428 44.476L72.108 44.52L71.708 44.272L70.6 44.84L70.14 44.724L70 44.8L69.708 45.492L68.96 45.268L68.224 45.156L67.584 44.756L66.756 44.356L66.22 44.716L65.82 45.296L65.74 46.096L65.68 46.784L65.388 47.392L65.188 48.096L65.068 49.104L65.124 49.744L64.96 50.144L64.936 50.544L64.82 50.904L64.156 51.456L63.696 52.036L63.264 53.136L63.288 54.072L63.032 54.432L62.444 54.988L61.852 55.7L61.484 55.496L61.42 55.176H60.876L60.532 55.612L60.272 55.496L59.9 55.736L59.736 56.02L59.704 56.512L59.452 56.636L59.58 56.988L60 56.832L60.288 56.856L60.64 56.716L63.592 56.736L63.828 57.58L64.116 58.26L64.336 58.628L64.712 59.22L65.376 59.128L65.704 58.972L66.256 59.128L66.412 58.848L66.664 58.184L67.288 58.144L67.344 57.948H67.852L67.764 58.348H68.964V59.064L69.16 59.496L69.008 60.184L69.072 60.884L69.392 61.284L69.316 62.636L69.564 62.532L70 62.556L70.62 62.392L71.072 62.456L71.416 62.48L71.464 62.832L71.932 62.808L72.564 62.916L72.884 63.424L73.684 63.588L74.3 63.228L74.512 63.824L75.264 63.98L75.616 64.464L76.016 65.088H76.776L76.728 63.888L76.452 64.092L75.76 63.648L75.5 63.452L75.656 62.312L75.86 60.968L75.648 60.468L75.94 59.748L76.212 59.608L77.556 59.42L77.728 59.468L77.78 59.28L77.5 58.976L77.376 58.352L76.776 57.732L76.44 56.932L76.632 56.456L76.368 55.816L76.564 54.004V53.808L76.32 53.292L76.416 52.668L76.556 52.584L76.596 51.904L76.884 51.592V50.732L77.124 50.3L77.172 49.388L77.384 48.864L77.76 48.272L78.16 47.972L78.48 47.572L78.08 47.416L78.132 46.096L77.236 45.344L77 44.86L76.44 45.096L75.976 45.024L75.712 45.212L75.26 45.072L74.648 44.136L74.32 44.26L73.672 44.228L73.7 44.224Z" fill="#00F400" stroke="#474746" stroke-width="0.25" stroke-miterlimit="10"/>
<path fill-rule="evenodd" clip-rule="evenodd" d="M65.764 46.092L65.116 46.036L64.444 45.84L63.844 46.444L63.328 47.496L63.252 48.108L62.452 47.84L61.652 47.544L60.388 47.496L60.316 47.996L60.592 48.576L61.34 48.488L61.592 48.708L61.16 50.028L61.636 50.7L61.74 51.584L61.612 52.34L61.308 52.872L60.42 52.824L59.888 52.284L59.808 52.784L59.128 52.924L58.78 53.208L59.16 53.956L58.4 54.588L59.2 55.788L59.6 55.296L59.904 55.108L60.304 55.508L60.564 55.624L60.908 55.188H61.452L61.516 55.508L61.884 55.712L62.476 55L63.064 54.444L63.32 54.084L63.296 53.148L63.728 52.048L64.188 51.468L64.852 50.916L64.968 50.556L64.992 50.156L65.156 49.756L65.1 49.116L65.22 48.108L65.42 47.404L65.712 46.796L65.772 46.108L65.764 46.092Z" fill="#00F400" stroke="#474746" stroke-width="0.25" stroke-miterlimit="10"/>
<path fill-rule="evenodd" clip-rule="evenodd" d="M90.2601 37.068L89.8241 36.756L90.3841 36.484L90.4001 36L90.1521 35.648L89.8561 35.928L89.4321 35.828L89.1041 36.328L88.7841 36.86L88.8721 37.172L88.9001 37.516H89.4561L89.6921 37.44L89.9241 37.636L90.2681 37.032L90.2601 37.068Z" fill="#00F400" stroke="#474746" stroke-width="0.25" stroke-miterlimit="10"/>
<path fill-rule="evenodd" clip-rule="evenodd" d="M55.2 8.12801L54.56 8.19201L54.16 7.92801H53.16L52.276 8.40001L51.8 8.22801L50.252 8.32801L48.652 8.53201L47.752 8.88401L47.16 9.36001L46.144 9.55601L45.236 10.188L45.58 10.924L45.636 11.616L45.956 12.816L46.208 13.052L46.028 13.496L44.784 13.684L44.34 14.104L43.792 14.2L43.744 15.036L42.612 15.48L42.212 16.056L41.412 16.356L40.444 16.528L38.868 17.364V18.704V18.784L38.844 19.004L42.444 21.752L45.724 24.228L49.036 26.704L49.272 27.228L49.888 27.556L50.34 27.736V28.46L51.428 28.352L52.816 27.844L55.704 25.6L59.024 23.436L58.58 22.724L57.78 22.2L57.332 22.404L56.98 21.772L56.928 21.288L56.34 20.46L56.716 19.984L56.608 19.272L56.724 18.648L56.644 18.132L56.788 17.208L56.724 16.68L56.388 15.68L55.92 13.656L55.336 13.2V12.932L54.536 12.252L54.4 11.404L54.976 10.768L55.172 9.81601L54.984 8.71601L55.164 8.12801H55.2Z" fill="#00F400" stroke="#474746" stroke-width="0.25" stroke-miterlimit="10"/>
<path fill-rule="evenodd" clip-rule="evenodd" d="M74.56 14.88L73.6 14.556L72.656 14.252H71.38L71.06 14.8L71.24 15.284L71.044 16L71.388 16.92L71.624 20.952L71.804 25.124H83.44L83.256 24.896L82.056 23.88L82 23.128L82.18 22.932L81.2 21.68L80.84 21.032L80.44 20.416L79.6 18.644L78.912 17.504L78.412 16.304L78.504 16.2L79.332 17.8L79.804 18.308L80.16 18.672L80.364 18.472L80.584 17.884L80.716 17.032L80.944 16.572L80.824 16.284L80.124 14.636L79.684 14.916L78.928 14.848L78.128 14.588L77.94 14.956L77.628 14.4L76.932 14.252L76.096 14.348L75.728 14.668L75.024 15.032L74.564 14.848L74.56 14.88Z" fill="#00F400" stroke="#474746" stroke-width="0.25" stroke-miterlimit="10"/>
<path fill-rule="evenodd" clip-rule="evenodd" d="M86.76 32.564L86.184 32L85.856 30.96L85.2 29.656L84.732 30.304L84.012 30.492L83.716 30.836L83.676 31.6L83.324 33.264L83.448 33.72L84.62 33.96L84.888 33.108L85.512 33.6L86.088 33.336L86.332 33.576H87.012L87.9 34.032L88.176 34.432L88.628 34.792L89.072 35.456L89.424 35.824L89.848 35.924L90.144 35.644L89.636 35.3L89.308 34.9L88.744 34.244L88.16 33.596L86.76 32.528V32.564Z" fill="#00F400" stroke="#474746" stroke-width="0.25" stroke-miterlimit="10"/>
<path fill-rule="evenodd" clip-rule="evenodd" d="M84.888 33.1L84.62 33.952L83.448 33.712L83.332 34.688L82.964 35.804L82.4 36.36L82 37.232L81.908 37.696L81.448 38.008L81.18 39.208V39.344L81.212 40.232L81.064 40.576L80.54 40.6L80.212 41.248L80.828 41.328L81.344 41.88L81.524 42.336L81.992 42.6L82.596 43.828L83.124 44.028V44.656L83.468 45.036H84.164L85.452 45.996H85.764L86 45.96L86.22 46.092L86.892 46.184L87.18 45.708L88.092 45.232L88.492 45.632H89.2L89.472 45.272H90.112L90.988 44.472L92.292 44.424L95.04 41.02H94.192L90.892 39.676L90.492 39.276L90.116 38.736L89.716 38.104L89.924 37.704L89.692 37.508L89.456 37.584H88.9L88.872 37.24L88.784 36.928L89.104 36.396L89.432 35.896L89.08 35.528L88.628 34.8L88.176 34.44L87.9 34.04L87.012 33.6H86.332L86.088 33.36L85.512 33.624L84.888 33.108V33.1Z" fill="#00F400" stroke="#474746" stroke-width="0.25" stroke-miterlimit="10"/>
<path fill-rule="evenodd" clip-rule="evenodd" d="M60.4 47.496L60.276 47.436L59.68 47.584L59.072 47.428L58.596 47.504V48.872H57.148L56.8 48.936L56.604 49.78L56.36 50.608L56.136 50.972L56.112 51.348L56.712 52.52L57.376 53.456L58.4 54.604L59.164 53.972L58.784 53.224L59.132 52.94L59.812 52.8L59.892 52.3L60.424 52.84L61.312 52.888L61.616 52.356L61.744 51.6L61.64 50.716L61.164 50.044L61.596 48.724L61.344 48.504L60.596 48.592L60.32 48.012L60.392 47.512L60.4 47.496Z" fill="#00F400" stroke="#474746" stroke-width="0.25" stroke-miterlimit="10"/>
<path fill-rule="evenodd" clip-rule="evenodd" d="M47.3081 37.576L46.8481 37.484L46.5281 37.664L46.0881 37.584L44.3561 37.632L44.3321 38.28L44.4641 39.132L44.7241 40.732L44.3241 41.684L44.0601 42.96L44.4881 43.936L44.4481 44.388L45.3401 44.708L46.2441 44.38L46.7921 43.98L48.3641 43.316L48.1361 42.916L47.8721 42.196L47.7921 41.636L48.0121 40.612L47.7681 40.212L47.6681 39.316V38.508L47.2681 37.928L47.3401 37.576H47.3081Z" fill="#00F400" stroke="#474746" stroke-width="0.25" stroke-miterlimit="10"/>
<path fill-rule="evenodd" clip-rule="evenodd" d="M35.832 35.96L35.684 36.016L35.144 35.928L35.068 36.06L34.848 36.084L34.132 35.804H33.66L33.632 36.204L33.528 36.32L33.6 36.696L33.444 36.844H33.224L32.96 37.032L32.656 37.008L32.208 37.568L32.504 37.748L32.64 38L32.748 38.5L32.996 38.724L33.248 38.868L33.648 39.312L34.084 39.984L34.616 39.484L34.74 39.172L34.912 38.928L35.184 38.904L35.42 38.688H36.22L36.492 39.088L36.704 39.564L36.672 39.892L36.828 40.184V40.584L37.096 40.52L37.308 40.492L37.572 40.364L37.972 41.06L37.896 41.52L38.092 41.756H38.372L38.584 41.296L38.864 41.332H39.02L39.084 40.832L39.012 40.608L39.1 40.452L39.5 40.32L39.252 39.412L39.024 38.944L39.104 38.544L39.312 38.452L39.008 38.124L39.064 37.788L38.932 37.656L38.72 37.764L38.768 37.396L38.976 37.108L38.576 36.632L38.46 36.32L38.24 36.068L38 36.084L37.76 36.24L37.432 36.388L37.164 36.632L36.736 36.54L36.468 36.256L36.304 36.224L36.04 36.368H35.88L35.832 35.968V35.96Z" fill="#00F400" stroke="#474746" stroke-width="0.25" stroke-miterlimit="10"/>
<path fill-rule="evenodd" clip-rule="evenodd" d="M30.544 35.156H31.444L31.692 35H31.872L32.24 34.74L32.668 34.976L33.092 35L33.528 34.748L33.332 34.42L33.004 34.608H32.692L32.292 34.328H31.98L31.752 34.6L30.672 34.632L30.532 35.14L30.544 35.156Z" fill="#00F400" stroke="#474746" stroke-width="0.25" stroke-miterlimit="10"/>
<path fill-rule="evenodd" clip-rule="evenodd" d="M33.66 35.796L31.82 35.748L31.552 35.876L31.224 35.836L30.692 36.024L30.748 36.264L31.052 36.508V36.68L31.272 37L31.672 37.076L32.196 37.552L32.644 36.992L32.948 37.016L33.212 36.828H33.432L33.588 36.68L33.516 36.304L33.62 36.188L33.648 35.788L33.66 35.796Z" fill="#00F400" stroke="#474746" stroke-width="0.25" stroke-miterlimit="10"/>
<path fill-rule="evenodd" clip-rule="evenodd" d="M58.58 47.504L56.948 47.48L56.612 48.748L56.792 48.92L57.14 48.856H58.588V47.488L58.58 47.504Z" fill="#00F400" stroke="#474746" stroke-width="0.25" stroke-miterlimit="10"/>
<path fill-rule="evenodd" clip-rule="evenodd" d="M89.2 45.624H88.512L88.112 45.224L87.2 45.716L86.912 46.192L86.24 46.1L86.02 45.968L85.784 46.004H85.472L84.184 45.044H83.488L83.144 44.664V44.036L82.616 43.836L81.952 44.584L81.348 45.264L81.832 46.064L81.952 46.636L82.404 47.932L82.044 48.76L81.56 49.516L81.272 49.976V50L81.512 50.424L81.444 51.272L85.044 53.584L85.104 54.236L86.52 55.368L86.92 54.992L87.124 54.236L87.452 53.788L87.608 52.988L87.984 52.904L88.24 52.432L88.944 51.98L88.352 51.044L88.32 46.912L89.18 45.624H89.2Z" fill="#00F400" stroke="#474746" stroke-width="0.25" stroke-miterlimit="10"/>
<path fill-rule="evenodd" clip-rule="evenodd" d="M38.856 41.356L38.576 41.32L38.364 41.78H38.084L37.888 41.544L37.964 41.084L37.564 40.388L37.3 40.516L37.088 40.544L36.62 41.076L36.172 41.692L36.112 42.02L35.876 42.38L36.54 43.108L37.392 43.732L38.292 44.592L39.328 45.132H39.588L39.672 44.2L39.76 44.06L39.716 43.6L39.292 43.124L38.98 43.052L38.684 42.74L38.904 42.24L38.8 41.684L38.848 41.356H38.856Z" fill="#00F400" stroke="#474746" stroke-width="0.25" stroke-miterlimit="10"/>
<path fill-rule="evenodd" clip-rule="evenodd" d="M71.364 14.268L71.108 13.9L70.148 13.768L69.828 13.572H69.468L69.108 13.06L67.804 12.832L67.156 12.98L66.508 13.512L66.24 14.064L66.516 14.932L66.084 15.448L65.632 15.744L64.572 15.176L63.2 14.708L62.332 14.488L61.832 13.48L60.544 12.98L59.744 12.792L59.344 12.888L58.212 12.488L58.188 13.356L57.728 13.684L57.448 14.044L56.8 14.488L56.92 14.956L56.848 15.432L56.388 15.692L56.724 16.692L56.788 17.22L56.644 18.144L56.724 18.66L56.608 19.284L56.716 19.996L56.34 20.472L56.928 21.3L56.98 21.784L57.332 22.416L57.78 22.212L58.58 22.736L59.024 23.448L60.58 23.94L61.148 24.556L61.828 24.156L62.8 23.516L66.768 25.688L70.768 27.86V27.384H71.9L71.816 25.112L71.636 20.94L71.4 16.908L71.056 15.988L71.252 15.292L71.06 14.8L71.364 14.26V14.268Z" fill="#00F400" stroke="#474746" stroke-width="0.25" stroke-miterlimit="10"/>
<path fill-rule="evenodd" clip-rule="evenodd" d="M74.2721 84.716L74.4761 84.356L75.0281 84.172L75.2241 83.804L75.5601 83.256L75.2481 82.912L74.8481 82.568L74.4001 82.8L73.8401 83.244L73.2761 83.956L73.9321 84.824L74.2841 84.72L74.2721 84.716Z" fill="#00F400" stroke="#474746" stroke-width="0.25" stroke-miterlimit="10"/>
<path fill-rule="evenodd" clip-rule="evenodd" d="M45.244 10.176H44.844L43.868 9.92L42.968 9.996L42.4 9.504H41.704L41.392 10.208L40.736 11.408L40.024 11.876L39.052 12.4L38.42 13.164L38.272 13.764L37.872 14.728L38.076 16.14L37.248 17.084L36.756 17.388L35.956 18.156L35.052 18.288L34.552 18.724L33.904 19.88L33.24 20.28L32.872 20.976L32.84 21.6L32.56 22.264L32.232 22.444L31.664 23.168L31.304 23.968L31.364 24.368L31.028 24.964L30.628 25.268L30.564 25.792L32.8 25.688L32.932 25.288L33.332 24.78L33.692 23.216L35.076 21.984L35.6 20.548L35.904 20.456L36.248 19.572L37.048 19.456L37.392 19.604H37.84L38.16 19.34L38.756 19.308V18.696H38.904V17.356L40.48 16.52L41.448 16.348L42.248 16.048L42.648 15.472L43.78 15.028L43.828 14.192L44.376 14.096L44.8 13.676L46.044 13.488L46.224 13.044L45.972 12.808L45.652 11.608L45.6 10.912L45.256 10.176H45.244Z" fill="#00F400" stroke="#474746" stroke-width="0.25" stroke-miterlimit="10"/>
<path fill-rule="evenodd" clip-rule="evenodd" d="M97.032 65.44L96.824 64.696L96.58 64.212L96.26 63.728L95.908 64.236L95.852 64.916L95.268 65.716L94.868 65.576L94.972 66.068L94.644 66.632L93.792 67.332L93.192 67.976L92.752 67.996L92.352 68.2L91.788 68.428L91.296 68.48L91.12 69.2L90.72 69.84V70.88L90.86 71.592L91.056 72.136L90.916 72.856L90.392 73.716L90.368 74.092L89.9 74.292L89.668 75.092L89.704 75.892L90 76.8V77.808L90.216 78.408L90.96 78.808L91.492 79.096L92.388 78.62L93.188 78.348L93.744 77.028L94.244 75.456L95.008 73.308L95.604 71.74L96.088 70.42L96.22 69.464L96.508 69.2L96.628 68.716L96.492 67.88L96.704 67.544L96.992 68.208L97.188 67.872L97.328 67.332L97.096 66.796L97.032 65.44Z" fill="#00F400" stroke="#474746" stroke-width="0.25" stroke-miterlimit="10"/>
<path fill-rule="evenodd" clip-rule="evenodd" d="M51.488 28.344L50.4 28.452V27.728L49.948 27.548L49.332 27.22L49.096 26.696L45.784 24.22L42.504 21.744H41.012L41.412 26.64L41.856 31.532L42.02 31.68L41.8 32.48H37.824L37.668 32.736L37.268 32.66L36.704 32.88L36.016 32.572L35.704 32.596L35.524 33.268L35.188 33.472L35.2201 34.176L35.408 34.824L35.776 35.144L35.88 35.6L35.832 35.96L35.88 36.36H36.044L36.308 36.216L36.472 36.248L36.74 36.532L37.168 36.624L37.436 36.38L37.7641 36.232L38.004 36.076L38.2 36.1L38.42 36.352L38.536 36.664L38.936 37.14L38.728 37.428L38.68 37.796L38.8921 37.688L39.024 37.82L38.968 38.156L39.272 38.484L39.4 38.38L39.672 38.552H40.444L40.632 38.224L40.804 38.248L41.092 38.116L41.236 38.6L41.476 38.46L41.876 38.288L41.812 37.632L42.092 37.148L42.064 36.748L42.864 35.812L43.012 35.036L43.292 34.756L43.768 34.912L44.168 34.68L44.308 34.388L45.08 33.88L45.268 33.524L46.196 33.052L46.744 32.896L46.988 33.108H47.628L48.26 33.06L48.628 32.66L49.98 32.564L50.86 32.38L50.94 31.684L51.48 30.932L51.456 28.316L51.488 28.344Z" fill="#00F400" stroke="#474746" stroke-width="0.25" stroke-miterlimit="10"/>
<path fill-rule="evenodd" clip-rule="evenodd" d="M87.6281 62.276L87.4881 61.768L86.6681 62.432L85.5681 62.868H84.9721L84.6041 63.212L83.9121 63.236L83.6441 63.384L82.4441 63.064L82.0441 63.104L81.7761 64.176L81.8881 65.472H82.0001L82.3441 65.832L82.7201 66.652L82.7441 68.112L82.3041 68.36L81.9681 69.16L81.3521 68.452L81.3121 67.652L81.5481 67.12L81.5081 66.668L81.1081 66.384L80.8401 66.48L80.2801 65.94L77.2401 66.876L77.304 67.676L77.356 68.076L78.156 68.052L78.604 68.3L78.8121 68.576L79.2761 68.66L79.7761 69.02L79.7121 70.456L79.4841 71.256L79.4001 72.108L79.5401 72.444L79.4001 73.112L79.2441 73.216L78.948 74.016L77.8521 75.304L78.2521 76.904L78.456 77.704L78.212 78.968L78.268 79.368L78.3761 79.876L78.424 80.376H79.1641L79.2841 79.776L79.048 79.704L79.0001 79.228L79.448 78.8L80.6481 78.184L81.4761 77.808L81.9081 77.408L82.0801 76.94L81.8601 76.744L82.0561 76.216L82.1481 75.104L82.0001 75.2V74.864L81.8441 74.2L81.4161 73.34L81.5481 72.54L81.9481 72.276L82.6761 71.476L83.0761 71.272L84.2761 70.052L85.4241 69.504L86.3521 69.068L87.0161 68.372L87.4441 67.572L87.7801 66.772L87.6321 66.216L87.6641 64.444L87.5801 63.444L87.6561 62.312L87.6281 62.276Z" fill="#00F400" stroke="#474746" stroke-width="0.25" stroke-miterlimit="10"/>
<path fill-rule="evenodd" clip-rule="evenodd" d="M42.488 21.744L38.888 18.996L38.848 20.712L35.648 20.652L35.6 23.556L34.684 23.664L34.428 24.244L34.584 25.884H30.74L30.52 26.26L31.02 26.752L31.264 27.284L31.148 27.852L31.264 28.4L31.348 29.524L31.2 30.6L30.912 31.156L30.984 31.772L31.328 31.4L31.82 31.5L32.304 31.252H32.864L33.332 31.58L33.976 31.884L34.568 32.72L35.208 33.52L35.544 33.316L35.724 32.644L36.036 32.62L36.724 32.928L37.288 32.708L37.688 32.784L37.844 32.528H41.82L42.04 31.728L41.876 31.58L41.432 26.688L41.032 21.792H42.524L42.488 21.744Z" fill="#00F400" stroke="#474746" stroke-width="0.25" stroke-miterlimit="10"/>
<path fill-rule="evenodd" clip-rule="evenodd" d="M81.6 66L81.628 65.572L81.404 65.236L81.436 64.744L81.168 63.908L81.472 63.276V61.908L81.136 61.176L81.172 61.056L80.984 60.744L80.008 60.532L80.464 61.04L80.696 61.996L80.516 62.308L80.292 63.228L80.456 64.172L80.128 64.572L79.792 65.62L80.3 65.916L80.86 66.456L81.128 66.36L81.528 66.644L81.568 67.096L81.332 67.628L81.372 68.428L81.988 69.136L82.324 68.336L82.764 68.088L82.74 66.628L82.364 65.808L82.02 65.448H81.96V65.604L82.152 65.644L82.332 66.252L82.296 66.392L81.96 65.956L81.78 66.236L81.6 66Z" fill="#00F400" stroke="#474746" stroke-width="0.25" stroke-miterlimit="10"/>
<path fill-rule="evenodd" clip-rule="evenodd" d="M70.232 69.94L68.4 70.4L66 70.236L65.328 69.696L61.328 69.744L61.172 69.828L60.588 69.312L59.952 69.276L59.36 69.468L58.876 69.688L58.924 70.556L59.704 71.664L59.908 72.376L60.4 73.736L60.884 74.672L61.26 75.14L61.368 75.764V77.116L61.648 78.86L61.86 79.688L62.04 80.788L62.392 81.616L63.072 82.476L63.564 81.92L63.936 82.224L64.072 82.716L64.5 82.796L65.1 83.008L65.624 82.928L66.508 82.344L66.688 78.156L66.804 74.844L67.772 74.804L67.928 70.76L68.664 70.728L70.196 70.328L70.56 70.796L71.2 70.36H71.492L72.06 70.104V70L71.66 69.744L71.024 69.68L70.224 69.932L70.232 69.94Z" fill="#00F400" stroke="#474746" stroke-width="0.25" stroke-miterlimit="10"/>
<path fill-rule="evenodd" clip-rule="evenodd" d="M60.58 23.94L59.024 23.448L55.704 25.6L52.876 27.824L51.488 28.332L51.512 30.948L50.972 31.7L50.892 32.396L50.012 32.58L48.66 32.676L48.292 33.076L47.66 33.124L47.58 33.672L47.708 34.188L48.276 34.928L48.308 35.476L49.456 35.732L49.432 36.508L49.768 36.18H50.12L50.884 36.836L50.948 35.82L51.236 35.368L51.368 34.712L51.628 34.468L52.696 34.336L53.696 34.736L54.072 35.168H54.572L55.048 34.892L56.248 35.472L56.756 35.448L57.34 34.964L57.92 34.996L58.208 34.84L58.74 34.908L59.512 35.236L60.284 34.604L60.52 34.652L61.208 35.892L61.388 35.868L61.42 35.504L61.7 35.44L61.792 34.908L61.152 34.884V34.152L60.732 33.728L61.132 32.236L62.376 31.2V29.724L62.704 27.42L62.912 26.928L62.512 26.528L62.488 26.168L62.112 25.872L61.832 24.108L61.152 24.508L60.584 23.892L60.58 23.94Z" fill="#00F400" stroke="#474746" stroke-width="0.25" stroke-miterlimit="10"/>
<path fill-rule="evenodd" clip-rule="evenodd" d="M61.392 35.912L61.212 35.936L60.524 34.696L60.288 34.648L59.516 35.28L58.744 34.952L58.212 34.884L57.924 35.04L57.344 35.008L56.76 35.492L56.252 35.516L55.052 34.936L54.576 35.212H54.076L53.7 34.78L52.7 34.38L51.632 34.512L51.372 34.756L51.24 35.412L50.952 35.864L50.888 36.88L50.844 37.28L51.076 37.952L50.88 38.408L50.984 38.712L50.5 39.408L50.2 39.764L50.008 40.476L50.036 41.196L49.984 43.024H50.864H51.616L52.32 43.772L52.656 44.572L53.192 45.276L53.992 45.3L54.392 45.048L54.768 45.112L55.808 44.712L56.064 43.912L56.532 42.812H56.828L57.416 42.148H57.792L58.36 42.616L59.04 42.216L59.128 41.752L59.352 41.292L59.508 40.716L60.032 40.248L60.228 39.448L60.44 39.192L60.572 38.604L60.828 37.88L61.664 37.004L61.704 36.628L61.812 36.42L61.412 35.972L61.392 35.912Z" fill="#00F400" stroke="#474746" stroke-width="0.25" stroke-miterlimit="10"/>
<path fill-rule="evenodd" clip-rule="evenodd" d="M77.764 51.356L77.16 51.708L76.92 51.592L76.632 51.904L76.592 52.584L76.452 52.668L76.356 53.292L76.96 53.38L77.272 52.732L77.804 52.808L78.092 52.66L78.16 51.996L77.76 51.356H77.764Z" fill="#00F400" stroke="#474746" stroke-width="0.25" stroke-miterlimit="10"/>
<path fill-rule="evenodd" clip-rule="evenodd" d="M38.896 18.696H38.748V19.308L38.152 19.34L37.832 19.604H37.396L37.052 19.456L36.252 19.572L35.908 20.456L35.604 20.548L35.112 21.972L33.708 23.2L33.348 24.764L32.948 25.272L32.816 25.672L30.604 25.76L30.556 26.244L30.776 25.868H34.62L34.464 24.228L34.72 23.648L35.6 23.556L35.636 20.652L38.836 20.712L38.876 18.996L38.9 18.776V18.696H38.896Z" fill="#00F400" stroke="#474746" stroke-width="0.25" stroke-miterlimit="10"/>
<path fill-rule="evenodd" clip-rule="evenodd" d="M83.676 31.6L83.732 30.844L84.028 30.5L84.748 30.312L85.2 29.656L84.636 29.256L84.236 28.98L83.824 27.6L83.62 26.428L83.824 26.224L83.424 25.108H71.804L71.888 27.38H70.756V27.856L70.952 32.356L70.092 32.284L69.664 33.12L69.42 33.816L69.632 34.08L69.32 34.432L69.444 34.9L69.2 35.376L69.104 35.776L69.456 35.712L69.668 36.152L69.692 36.808L70.072 37.144V37.424L70.192 37.908L70.8 38.624V39.092L70.644 39.56L70.72 39.912L71.064 40.24L71.144 40.296L71.456 40.164L71.792 39.952L72.028 38.944L72.292 38.42L73.012 38.264L73.184 38.576L73.72 39.232L73.988 39.328L74.352 39.14L75.064 39.172L75.212 39.412H76.204L76.228 39.172L76.744 38.96L76.836 38.632L77.2 38.4L78.052 39.064L78.56 38.948L79.036 38.148L79.568 37.524L79.46 36.844L79.216 36.516L79.816 36.452L79.872 36.204L80.34 36.28L80.24 37.116L80.38 37.916L80.912 38.364L81.036 38.764V39.328L81.176 39.352V39.216L81.444 38.016L81.904 37.704L81.996 37.24L82.396 36.368L82.98 35.812L83.348 34.696L83.464 33.72L83.34 33.264L83.692 31.6H83.676Z" fill="#00F400" stroke="#474746" stroke-width="0.25" stroke-miterlimit="10"/>
<path fill-rule="evenodd" clip-rule="evenodd" d="M81.036 38.748L80.912 38.348L80.4 37.912L80.26 37.112L80.36 36.276L79.892 36.2L79.836 36.448L79.236 36.512L79.48 36.84L79.588 37.52L79.056 38.144L78.58 38.944L78.072 39.06L77.2 38.4L76.824 38.636L76.732 38.964L76.216 39.176L76.192 39.416H75.2L75.052 39.176L74.34 39.144L73.976 39.332L73.708 39.236L73.172 38.58L73 38.268L72.28 38.424L72 38.944L71.764 39.952L71.428 40.164L71.116 40.296L71.804 40.74L72.4 41.2V41.568L73.08 42.156L73.504 42.648L73.768 43.328L74.524 43.78L74.688 44.14L75.3 45.076L75.752 45.216L76.016 45.028L76.48 45.1L77.04 44.864L77.276 45.348L78.172 46.1L78.572 45.788L79.212 46.044L80.012 45.772H80.716L81.324 45.248L81.928 44.568L82.592 43.82L82 42.592L81.532 42.328L81.352 41.872L80.836 41.32L80.22 41.24L80.548 40.592L81.072 40.568L81.22 40.224L81.188 39.336L81.048 39.312V38.748H81.036Z" fill="#00F400" stroke="#474746" stroke-width="0.25" stroke-miterlimit="10"/>
<path fill-rule="evenodd" clip-rule="evenodd" d="M35.2 33.492L34.56 32.692L33.968 31.856L33.324 31.552L32.856 31.224H32.296L31.812 31.472L31.32 31.372L30.976 31.744L30.732 32.324L30.232 33.124L29.788 33.336L30.28 33.736L30.68 34.62L31.76 34.588L31.988 34.316H32.3L32.7 34.596H33.012L33.34 34.408L33.536 34.736L33.1 34.988L32.676 34.964L32.248 34.728L31.88 34.988H31.7L31.452 35.144H30.552L30.7 36.012L31.232 35.824L31.56 35.864L31.828 35.736L33.668 35.784H34.14L34.856 36.064L35.076 36.04L35.152 35.908L35.692 35.996L35.84 35.94L35.888 35.58L35.804 35.144L35.436 34.824L35.248 34.176L35.2 33.492Z" fill="#00F400" stroke="#474746" stroke-width="0.25" stroke-miterlimit="10"/>
<path fill-rule="evenodd" clip-rule="evenodd" d="M37.068 40.536L36.8 40.6V40.2L36.644 39.908L36.676 39.58L36.464 39.104L36.192 38.704H35.392L35.156 38.92L34.884 38.944L34.712 39.188L34.588 39.5L34.056 40L34.172 40.844L34.344 41.244L34.86 41.848L35.6 42.288L35.872 42.372L36.108 42.012L36.168 41.684L36.616 41.068L37.084 40.536H37.068Z" fill="#00F400" stroke="#474746" stroke-width="0.25" stroke-miterlimit="10"/>
<path fill-rule="evenodd" clip-rule="evenodd" d="M78.2641 79.388L77.788 79.172L77.504 79.256L77.388 79.584L77.092 80.008V80.408L77.632 81.02L78.2081 80.9L78.4361 80.4L78.3881 79.9L78.28 79.392L78.2641 79.388Z" fill="#00F400" stroke="#474746" stroke-width="0.25" stroke-miterlimit="10"/>
<path fill-rule="evenodd" clip-rule="evenodd" d="M70.764 27.86L66.764 25.688L62.8 23.516L61.824 24.136L62.104 25.9L62.48 26.196L62.504 26.556L62.904 26.956L62.696 27.448L62.4 29.736V31.212L61.156 32.28L60.756 33.772L61.176 34.196V34.928L61.816 34.952L61.724 35.484L62.124 36.212L62.204 36.96L62.172 37.716L62.728 38.748H62.172L61.892 38.82L61.432 38.716L61.2 39.24L61.792 39.904L62.224 40.092L62.372 40.56L62.692 41.36L62.544 41.66L63.364 41.58L63.544 41.284L63.716 41.308L63.964 41.564L65.216 41.128L65.636 40.684L66.152 40.284L66.052 39.884L66.332 39.784L67.3 39.848L68.228 39.324L68.932 38.088L69.424 37.628L70.056 37.44V37.16L69.676 36.824L69.652 36.168L69.44 35.728L69.088 35.792L69.184 35.392L69.432 34.92L69.308 34.452L69.62 34.1L69.408 33.836L69.652 33.14L70.08 32.304L70.94 32.376L70.744 27.876L70.764 27.86Z" fill="#00F400" stroke="#474746" stroke-width="0.25" stroke-miterlimit="10"/>
<path fill-rule="evenodd" clip-rule="evenodd" d="M48.184 37.6L47.308 37.576L47.236 37.928L47.636 38.508V39.336L47.736 40.232L47.98 40.632L47.76 41.656L47.84 42.216L48.104 42.936L48.332 43.336L49.132 43.088L48.888 42.288L48.928 39.684L48.724 39.452L48.692 38.896L48.336 38.496L48.036 38.16L48.184 37.6Z" fill="#00F400" stroke="#474746" stroke-width="0.25" stroke-miterlimit="10"/>
<path fill-rule="evenodd" clip-rule="evenodd" d="M58.22 12.496L57.852 12.316L57.6 11.776H57.108L56.912 11.152L57.512 10.576L57.6 9.58399L57.264 9.29999V8.76399L57.716 8.19199L57.64 7.97199L56.836 8.39999V7.81999L56.172 7.67999L55.2 8.12799L55.02 8.71599L55.208 9.81599L55.012 10.768L54.4 11.404L54.508 12.26L55.308 12.94V13.208L55.904 13.668L56.4 15.692L56.86 15.432L56.932 14.956L56.812 14.488L57.456 14.052L57.736 13.692L58.196 13.364L58.22 12.496Z" fill="#00F400" stroke="#474746" stroke-width="0.25" stroke-miterlimit="10"/>
<path fill-rule="evenodd" clip-rule="evenodd" d="M78.1161 51.2L77.7641 51.34L78.1641 51.98L78.0961 52.644L77.8081 52.792L77.8601 53.232L78.0721 53.496V53.864L77.8281 54.104L77.4281 54.692L77.0601 55.092H76.9601L76.9041 55.576L77.0921 55.74L77.0521 56.224L77.2401 56.672L77.0041 57.108L77.8041 57.88L77.8721 58.576L78.3561 59.74L78.4041 59.772L78.8041 59.96L79.4361 60.16L79.9961 60.496L80.9721 60.708L81.1601 61.02L81.2241 60.796L81.7321 61.404L81.7801 62.604L82.1001 63.04L82.5001 63L83.7001 63.32L83.9681 63.172L84.6601 63.148L85.0281 62.804H85.6241L86.7241 62.368L87.5441 61.704L87.1841 61.46L86.7841 60.344L86.4561 59.628L86.5361 59.088L86.4881 58.744L86.7721 58.056L86.7481 57.76L86.1201 57.36L86.0681 56.72L86.5521 55.316L85.1361 54.184L85.0761 53.532L81.4761 51.22L80.9841 51.72L80.6481 52.236L81.0481 52.636L80.4721 52.916L80.3521 52.784L79.7681 52.856L79.3161 53.112L79.0481 52.668L79.2361 51.868L79.2761 51.188H78.1761L78.1161 51.2Z" fill="#00F400" stroke="#474746" stroke-width="0.25" stroke-miterlimit="10"/>
<path fill-rule="evenodd" clip-rule="evenodd" d="M81.3241 45.248L80.7161 45.772H80.0121L79.2121 46.044L78.5721 45.788L78.1721 46.1L78.1201 47.42L78.5201 47.576L78.2001 47.976L77.8001 48.276L77.4241 48.868L77.2121 49.392L77.1641 50.304L76.9241 50.736V51.596L77.1641 51.712L77.7681 51.36L78.1201 51.22H79.2201L79.1601 50.8L79.6241 50.136L80.2561 49.972L80.6841 49.7L81.2001 49.92L81.2481 50.004V49.948L81.5361 49.488L82.0201 48.732L82.3801 47.904L81.9281 46.608L81.8081 46.036L81.3241 45.236V45.248Z" fill="#00F400" stroke="#474746" stroke-width="0.25" stroke-miterlimit="10"/>
<path fill-rule="evenodd" clip-rule="evenodd" d="M65.828 89.56L66.264 89.536L66.876 89.1L67.696 88.92L68.704 88.468L69.104 88.528L69.692 88.388L70.7 88.608L71.184 88.396L71.752 88.56L71.9 88.248L72.392 88.184L73.424 87.748L74.188 87.232L74.916 86.552L76.116 85.388L76.732 84.588L77.052 84.004L77.5 83.432L77.708 83.268L78.4 82.68L78.688 82.172L78.876 81.232L79.18 80.404H78.44L78.212 80.904L77.636 81.024L77.076 80.4V80L77.372 79.576L77.488 79.248L77.772 79.164L78.248 79.38L78.192 78.98L78.436 77.716L78.232 76.916L77.832 75.316L77.316 75.208L76.98 75.34L76.512 75.152H76.112L74.696 75.988L73.776 76.832L73.416 77.596L73.096 78.02L72.564 78.112L72.368 78.652L72.252 79.004L71.612 79.268L70.812 79.216L70.364 78.896L69.964 78.76L69.472 79.02L69.212 79.56L68.736 79.908L68.264 80.4L67.568 80.512L67.36 80.112L67.484 79.424L66.952 78.34L66.688 78.176L66.508 82.364L65.624 82.948L65.1 83.028L64.5 82.816L64.072 82.736L63.936 82.244L63.564 81.94L63.072 82.496L63.704 83.964L64.148 84.924L64.712 85.972V86.844L64.392 87.048L64.656 87.808L64.616 88.472L64.72 88.784L64.78 88.628L65.156 89.136H65.468L65.844 89.536L65.828 89.56ZM74.272 84.716L73.92 84.82L73.264 83.952L73.828 83.24L74.4 82.8L74.868 82.572L75.268 82.916L75.58 83.26L75.244 83.808L75.048 84.176L74.496 84.36L74.292 84.72L74.272 84.716Z" fill="#00F400" stroke="#474746" stroke-width="0.25" stroke-miterlimit="10"/>
<path fill-rule="evenodd" clip-rule="evenodd" d="M78.044 59.8L77.708 59.712L77.764 59.464L77.592 59.416L76.248 59.604L75.976 59.744L75.684 60.464L75.896 60.964L75.692 62.308L75.536 63.448L75.796 63.644L76.488 64.088L76.764 63.884L76.812 65.084H76.052L75.652 64.46L75.3 63.976L74.548 63.82L74.336 63.224L73.72 63.584L72.92 63.42L72.6 62.912L71.968 62.804L71.5 62.828L71.452 62.476L71.108 62.452L71.208 62.804L71.084 63.356L71.248 63.888L71.084 64.312L71.164 64.712H69.092L68.96 68.312L69.6 69.236L70.224 69.94L71.024 69.688L71.66 69.752L72.06 70.008V70.104L72.24 70.188L73.34 70.312L73.648 70.44L74 70.4L74.576 69.664L75.468 68.728L75.828 68.648L75.968 68.248L76.544 67.8L77.304 67.644L77.24 66.844L80.28 65.908L79.772 65.612L80.108 64.564L80.436 64.164L80.272 63.22L80.496 62.3L80.676 61.988L80.444 61.032L80 60.54L79.44 60.204L78.8 60L78.4 59.812L78.352 59.78L78.424 59.968L78.26 60.036L78.048 59.796L78.044 59.8Z" fill="#00F400" stroke="#474746" stroke-width="0.25" stroke-miterlimit="10"/>
<path fill-rule="evenodd" clip-rule="evenodd" d="M77.8641 75.304L78.9601 74L79.2561 73.2L79.4121 73.096L79.5521 72.428L79.4121 72.092L79.4961 71.24L79.7241 70.44L79.7881 69.004L79.2881 68.644L78.8241 68.56L78.6161 68.284L78.1681 68.036L77.3681 68.06L77.316 67.66L76.556 67.816L75.98 68.264L75.8401 68.664L75.48 68.744L74.588 69.68L74 70.4L73.664 70.424L73.356 70.296L72.256 70.172L72.6 71.08L72.788 71.28L73.076 71.936L74.14 73.18L74.54 73.304V73.704L74.792 74.428L75.548 74.6L76.144 75.108H76.5441L77.0121 75.296L77.348 75.164L77.8641 75.272V75.304Z" fill="#00F400" stroke="#474746" stroke-width="0.25" stroke-miterlimit="10"/>
<path fill-rule="evenodd" clip-rule="evenodd" d="M91.268 38.224L90.8 37.748L90.596 37.28L90.26 37.068L89.916 37.672L89.708 38.072L90.108 38.704L90.484 39.244L90.884 39.644L94.184 40.988H95.032L92.276 44.4L90.972 44.448L90.096 45.248H89.456L89.184 45.608L88.324 46.896L88.356 51.028L88.948 51.964L89.168 51.692L89.408 51.096L90.504 49.724L91.44 48.856L92.924 47.732L93.916 46.816L95.072 45.264L95.9 43.996L96.72 42.34L97.292 40.888L97.736 39.616L97.972 38.416L98.172 38.016L98.136 37.42L98.204 36.764L98.164 36.444H97.784L97.336 36.844L96.808 36.96L96.36 37.132H96.04L95.472 37.172L95.128 37.388L94.636 37.46L93.776 37.812L92.696 37.944L91.768 38.232L91.268 38.224Z" fill="#00F400" stroke="#474746" stroke-width="0.25" stroke-miterlimit="10"/>
<path d="M7.92801 104.524H4.72801L4.07601 106.432H2.70001L5.70001 98.26H6.99201L9.96001 106.432H8.57601L7.92801 104.524ZM5.12801 103.384H7.52801L6.32801 99.896H6.29601L5.12801 103.384Z" fill="#353535"/>
<path d="M11.2 106.432V101.372H10.252V100.36H11.2V99.652C11.1817 99.3706 11.2204 99.0885 11.3139 98.8224C11.4074 98.5564 11.5537 98.312 11.744 98.104C11.9501 97.9144 12.1924 97.7685 12.4564 97.675C12.7204 97.5815 13.0005 97.5424 13.28 97.56C13.414 97.5605 13.5477 97.5712 13.68 97.592C13.816 97.612 13.968 97.64 14.136 97.68L13.996 98.732L13.748 98.692C13.656 98.692 13.556 98.692 13.452 98.692C13.3296 98.6827 13.2067 98.7004 13.0919 98.744C12.9772 98.7875 12.8734 98.8558 12.788 98.944C12.6274 99.1498 12.5477 99.4074 12.564 99.668V100.376H13.8V101.388H12.54V106.448L11.2 106.432Z" fill="#353535"/>
<path d="M17.796 101.6L17.2 101.568C16.9659 101.56 16.7343 101.618 16.532 101.736C16.3573 101.855 16.2188 102.019 16.132 102.212V106.432H14.768V100.36H16L16.088 101.24C16.2248 100.954 16.4277 100.704 16.68 100.512C16.8326 100.403 17.0051 100.326 17.1877 100.284C17.3703 100.242 17.5593 100.237 17.744 100.268C17.8105 100.279 17.876 100.295 17.94 100.316L17.796 101.6Z" fill="#353535"/>
<path d="M20.2 98.872H18.836V97.672H20.2V98.872ZM20.2 106.432H18.836V100.36H20.2V106.432Z" fill="#353535"/>
<path d="M24.236 105.456C24.5424 105.466 24.8415 105.362 25.076 105.164C25.1851 105.075 25.2728 104.963 25.3324 104.835C25.392 104.708 25.4219 104.569 25.42 104.428H26.656V104.464C26.6628 104.746 26.6034 105.026 26.4826 105.281C26.3617 105.536 26.1827 105.759 25.96 105.932C25.4774 106.345 24.8592 106.566 24.224 106.552C23.8376 106.575 23.4511 106.509 23.0945 106.358C22.7379 106.208 22.4208 105.977 22.168 105.684C21.676 105.063 21.422 104.287 21.452 103.496V103.3C21.4226 102.51 21.6766 101.735 22.168 101.116C22.4202 100.822 22.7372 100.591 23.0939 100.44C23.4507 100.29 23.8375 100.224 24.224 100.248C24.8762 100.22 25.5135 100.449 26 100.884C26.2203 101.086 26.3936 101.334 26.5077 101.611C26.6217 101.887 26.6737 102.185 26.66 102.484V102.516H25.42C25.4238 102.361 25.3967 102.206 25.3404 102.061C25.2841 101.916 25.1997 101.784 25.092 101.672C24.9821 101.557 24.849 101.466 24.7014 101.406C24.5538 101.346 24.3952 101.318 24.236 101.324C24.0207 101.305 23.8043 101.347 23.6118 101.445C23.4194 101.544 23.2586 101.694 23.148 101.88C22.9214 102.311 22.8111 102.793 22.828 103.28V103.476C22.8097 103.965 22.92 104.451 23.148 104.884C23.2568 105.072 23.4168 105.226 23.6093 105.327C23.8018 105.428 24.0191 105.473 24.236 105.456Z" fill="#353535"/>
<path d="M31.412 106.432C31.364 106.28 31.324 106.128 31.292 105.984C31.2609 105.839 31.2395 105.692 31.228 105.544C31.0367 105.833 30.7857 106.077 30.492 106.26C30.1856 106.453 29.8302 106.554 29.468 106.552C29.2029 106.572 28.9365 106.538 28.6844 106.454C28.4324 106.369 28.1997 106.235 28 106.06C27.8276 105.884 27.6937 105.674 27.607 105.443C27.5202 105.212 27.4824 104.966 27.496 104.72C27.4869 104.452 27.5456 104.185 27.6665 103.945C27.7874 103.706 27.9668 103.5 28.188 103.348C28.7755 102.987 29.4597 102.815 30.148 102.856H31.2V102.324C31.2081 102.187 31.1874 102.05 31.1392 101.922C31.0909 101.794 31.0162 101.677 30.92 101.58C30.6995 101.388 30.4121 101.29 30.12 101.308C29.8535 101.294 29.5906 101.373 29.376 101.532C29.2887 101.601 29.2187 101.689 29.1715 101.79C29.1243 101.891 29.1012 102.001 29.104 102.112H27.804V102.076C27.7963 101.827 27.8507 101.58 27.9625 101.357C28.0742 101.134 28.2397 100.943 28.444 100.8C28.9515 100.41 29.5808 100.213 30.22 100.244C30.8375 100.219 31.4435 100.416 31.928 100.8C32.1485 100.99 32.3221 101.229 32.4352 101.498C32.5483 101.766 32.5978 102.057 32.58 102.348V105.048C32.5788 105.289 32.5962 105.53 32.632 105.768C32.6654 105.998 32.7189 106.224 32.792 106.444L31.412 106.432ZM29.74 105.456C30.0679 105.46 30.39 105.37 30.668 105.196C30.9027 105.061 31.0889 104.855 31.2 104.608V103.712H30.12C29.7885 103.693 29.4614 103.795 29.2 104C29.0944 104.083 29.009 104.188 28.9501 104.309C28.8912 104.43 28.8604 104.562 28.86 104.696C28.8552 104.799 28.8731 104.902 28.9125 104.997C28.9519 105.093 29.0118 105.178 29.088 105.248C29.2715 105.397 29.5042 105.471 29.74 105.456Z" fill="#353535"/>
<path d="M35.248 100.36L35.324 101.236C35.5114 100.937 35.768 100.687 36.072 100.508C36.3833 100.333 36.7351 100.244 37.092 100.248C37.3655 100.233 37.6392 100.276 37.8945 100.375C38.1498 100.475 38.3808 100.628 38.572 100.824C38.9653 101.335 39.1536 101.974 39.1 102.616V106.432H37.736V102.628C37.7701 102.279 37.67 101.93 37.456 101.652C37.3386 101.549 37.2016 101.47 37.0532 101.42C36.9048 101.371 36.748 101.352 36.592 101.364C36.3435 101.36 36.0982 101.421 35.88 101.54C35.6715 101.659 35.4946 101.826 35.364 102.028V106.428H34V100.36H35.248Z" fill="#353535"/>
<path d="M49.764 98.26V103.74C49.7873 104.132 49.7193 104.525 49.5652 104.886C49.4111 105.248 49.1752 105.569 48.876 105.824C48.2138 106.332 47.3936 106.59 46.56 106.552C45.7391 106.591 44.932 106.331 44.288 105.82C43.9935 105.563 43.7617 105.242 43.6106 104.881C43.4594 104.521 43.3929 104.13 43.416 103.74V98.26H44.8V103.736C44.782 103.973 44.816 104.211 44.8996 104.433C44.9832 104.656 45.1144 104.857 45.284 105.024C45.6457 105.327 46.1089 105.481 46.58 105.456C47.0645 105.481 47.5415 105.328 47.92 105.024C48.0943 104.86 48.2296 104.66 48.3162 104.437C48.4027 104.214 48.4382 103.974 48.42 103.736V98.26H49.764Z" fill="#353535"/>
<path d="M54.24 101.6L53.66 101.58C53.4259 101.572 53.1943 101.63 52.992 101.748C52.8163 101.866 52.6776 102.031 52.592 102.224V106.444H51.2V100.36H52.448L52.536 101.24C52.6716 100.953 52.8748 100.703 53.128 100.512C53.3693 100.336 53.6614 100.243 53.96 100.248C54.0372 100.242 54.1148 100.242 54.192 100.248C54.2585 100.259 54.324 100.275 54.388 100.296L54.24 101.6Z" fill="#353535"/>
<path d="M60.528 103.6C60.5642 104.362 60.3461 105.115 59.908 105.74C59.7025 106.004 59.4363 106.215 59.132 106.354C58.8277 106.493 58.4942 106.557 58.16 106.54C57.8164 106.547 57.4765 106.467 57.172 106.308C56.8866 106.147 56.647 105.916 56.476 105.636L56.34 106.436H55.2V97.68H56.564V101.052C56.7399 100.805 56.9697 100.601 57.236 100.456C57.5194 100.312 57.8342 100.24 58.152 100.248C58.4967 100.234 58.8394 100.308 59.1474 100.463C59.4555 100.619 59.7187 100.85 59.912 101.136C60.3562 101.834 60.5728 102.653 60.532 103.48L60.528 103.6ZM59.164 103.48C59.1877 102.95 59.0747 102.422 58.836 101.948C58.7381 101.762 58.5888 101.608 58.4058 101.504C58.2228 101.401 58.0139 101.352 57.804 101.364C57.536 101.355 57.2714 101.426 57.044 101.568C56.8348 101.707 56.6675 101.901 56.56 102.128V104.676C56.6637 104.905 56.8301 105.101 57.04 105.24C57.274 105.38 57.5435 105.449 57.816 105.44C58.0158 105.455 58.2161 105.417 58.3966 105.33C58.577 105.243 58.7314 105.11 58.844 104.944C59.076 104.535 59.187 104.069 59.164 103.6V103.48Z" fill="#353535"/>
<path d="M65.36 106.432C65.3104 106.285 65.269 106.135 65.236 105.984C65.2049 105.839 65.1835 105.692 65.172 105.544C64.9818 105.833 64.7306 106.078 64.436 106.26C64.1298 106.454 63.7743 106.555 63.412 106.552C63.1489 106.57 62.8848 106.536 62.6349 106.451C62.385 106.367 62.1543 106.234 61.956 106.06C61.7823 105.885 61.6473 105.675 61.5598 105.444C61.4723 105.213 61.4342 104.966 61.448 104.72C61.4394 104.451 61.4986 104.185 61.6203 103.945C61.7419 103.705 61.9221 103.5 62.144 103.348C62.73 102.987 63.413 102.815 64.1 102.856H65.16V102.324C65.1681 102.187 65.1474 102.05 65.0992 101.922C65.051 101.794 64.9763 101.677 64.88 101.58C64.7712 101.484 64.6445 101.411 64.5072 101.364C64.3699 101.317 64.2247 101.298 64.08 101.308C63.8147 101.294 63.5529 101.373 63.34 101.532C63.252 101.6 63.1812 101.689 63.1333 101.789C63.0854 101.89 63.0617 102.001 63.064 102.112H61.752V102.076C61.7452 101.826 61.8009 101.579 61.914 101.356C62.0272 101.133 62.1942 100.942 62.4 100.8C62.9076 100.41 63.5369 100.213 64.176 100.244C64.7927 100.215 65.3997 100.406 65.888 100.784C66.1073 100.975 66.2798 101.214 66.3922 101.483C66.5045 101.751 66.5537 102.042 66.536 102.332V105.032C66.5368 105.273 66.5542 105.513 66.588 105.752C66.6208 105.982 66.6758 106.208 66.752 106.428L65.36 106.432ZM63.684 105.456C64.0131 105.46 64.3363 105.369 64.616 105.196C64.8547 105.062 65.0451 104.856 65.16 104.608V103.712H64.08C63.744 103.691 63.4122 103.795 63.148 104.004C63.0436 104.088 62.9592 104.193 62.9011 104.314C62.843 104.434 62.8125 104.566 62.812 104.7C62.8072 104.803 62.8252 104.906 62.8646 105.001C62.904 105.097 62.9639 105.182 63.04 105.252C63.221 105.399 63.4512 105.472 63.684 105.456Z" fill="#353535"/>
<path d="M69.2 100.36L69.276 101.236C69.4639 100.936 69.722 100.686 70.028 100.508C70.3375 100.332 70.6883 100.243 71.044 100.248C71.3176 100.233 71.5912 100.276 71.8465 100.375C72.1018 100.475 72.3329 100.628 72.524 100.824C72.9173 101.335 73.1057 101.974 73.052 102.616V106.432H71.692V102.628C71.725 102.278 71.6234 101.929 71.408 101.652C71.2906 101.549 71.1537 101.47 71.0052 101.42C70.8568 101.371 70.7 101.352 70.544 101.364C70.2955 101.36 70.0503 101.421 69.832 101.54C69.6235 101.659 69.4466 101.826 69.316 102.028V106.428H67.952V100.36H69.2Z" fill="#353535"/>
<path d="M81.928 104.328C81.9324 104.17 81.9009 104.013 81.8358 103.869C81.7706 103.725 81.6736 103.597 81.552 103.496C81.1503 103.211 80.6941 103.012 80.212 102.912C79.4516 102.744 78.7339 102.422 78.104 101.964C77.8675 101.782 77.6776 101.546 77.5497 101.276C77.4218 101.007 77.3595 100.71 77.368 100.412C77.3636 100.097 77.4338 99.785 77.5728 99.5021C77.7118 99.2192 77.9158 98.9731 78.168 98.784C78.7769 98.3361 79.5208 98.1102 80.276 98.144C81.063 98.1073 81.8352 98.3671 82.44 98.872C82.6974 99.0816 82.9034 99.3474 83.0421 99.6491C83.1808 99.9507 83.2485 100.28 83.24 100.612V100.648H81.932C81.9387 100.457 81.9039 100.267 81.83 100.091C81.7561 99.9149 81.6449 99.7569 81.504 99.628C81.1685 99.3485 80.74 99.2057 80.304 99.228C79.8955 99.2017 79.4904 99.3161 79.156 99.552C79.028 99.6507 78.925 99.7782 78.8555 99.9242C78.786 100.07 78.7519 100.23 78.756 100.392C78.7573 100.547 78.7976 100.698 78.8731 100.833C78.9486 100.968 79.0569 101.082 79.188 101.164C79.6336 101.434 80.1199 101.629 80.628 101.744C81.3623 101.909 82.0474 102.245 82.628 102.724C82.8525 102.924 83.0301 103.171 83.1484 103.448C83.2666 103.724 83.3224 104.023 83.312 104.324C83.3225 104.64 83.2549 104.953 83.1154 105.236C82.9759 105.519 82.7686 105.764 82.512 105.948C81.881 106.375 81.129 106.587 80.368 106.552C79.5651 106.568 78.7779 106.329 78.12 105.868C77.8151 105.667 77.5683 105.389 77.4041 105.063C77.2399 104.736 77.164 104.373 77.184 104.008V103.976H78.496C78.4813 104.19 78.521 104.404 78.6112 104.598C78.7014 104.793 78.8393 104.961 79.012 105.088C79.4104 105.348 79.8805 105.477 80.356 105.456C80.7702 105.481 81.1818 105.375 81.532 105.152C81.6608 105.058 81.7643 104.933 81.8334 104.79C81.9025 104.646 81.935 104.487 81.928 104.328Z" fill="#353535"/>
<path d="M84.304 103.34C84.2724 102.533 84.5355 101.743 85.044 101.116C85.3085 100.841 85.6257 100.623 85.9766 100.474C86.3274 100.325 86.7047 100.248 87.086 100.248C87.4672 100.248 87.8445 100.325 88.1954 100.474C88.5462 100.623 88.8634 100.841 89.128 101.116C89.643 101.74 89.9094 102.532 89.876 103.34V103.46C89.9114 104.271 89.6449 105.066 89.128 105.692C88.8628 105.966 88.5455 106.183 88.1947 106.331C87.8439 106.48 87.4669 106.556 87.086 106.556C86.7051 106.556 86.328 106.48 85.9773 106.331C85.6265 106.183 85.3091 105.966 85.044 105.692C84.5338 105.066 84.2706 104.275 84.304 103.468V103.34ZM85.668 103.456C85.6467 103.96 85.7673 104.461 86.016 104.9C86.1371 105.072 86.2977 105.212 86.4843 105.308C86.6708 105.405 86.8779 105.456 87.088 105.456C87.2981 105.456 87.5051 105.405 87.6917 105.308C87.8782 105.212 88.0388 105.072 88.16 104.9C88.4133 104.462 88.5368 103.961 88.516 103.456V103.336C88.5348 102.836 88.4114 102.341 88.16 101.908C88.0467 101.726 87.8868 101.578 87.6969 101.479C87.507 101.38 87.294 101.333 87.08 101.344C86.8682 101.333 86.6574 101.38 86.47 101.479C86.2826 101.578 86.1257 101.727 86.016 101.908C85.7696 102.342 85.6491 102.837 85.668 103.336V103.456Z" fill="#353535"/>
<path d="M92.52 106.432H91.156V97.68H92.52V106.432Z" fill="#353535"/>
<path d="M97.828 105.544C97.6544 105.85 97.4051 106.106 97.104 106.288C96.6993 106.511 96.2332 106.596 95.7759 106.531C95.3185 106.466 94.8946 106.255 94.568 105.928C94.1516 105.375 93.9498 104.69 94 104V100.36H95.36V104C95.3239 104.39 95.4136 104.781 95.616 105.116C95.7125 105.226 95.8331 105.312 95.9684 105.367C96.1037 105.423 96.2501 105.446 96.396 105.436C96.6821 105.445 96.9661 105.384 97.224 105.26C97.4447 105.142 97.6266 104.963 97.748 104.744V100.344H99.112V106.416H97.912L97.828 105.544Z" fill="#353535"/>
<path d="M102.248 98.884V100.36H103.336V101.372H102.248V104.728C102.23 104.921 102.289 105.114 102.412 105.264C102.47 105.318 102.538 105.36 102.612 105.387C102.686 105.415 102.765 105.427 102.844 105.424C102.918 105.423 102.991 105.417 103.064 105.404C103.132 105.39 103.199 105.371 103.264 105.348L103.412 106.348C103.286 106.415 103.151 106.465 103.012 106.496C102.848 106.533 102.68 106.552 102.512 106.552C102.292 106.567 102.071 106.535 101.864 106.458C101.658 106.382 101.469 106.262 101.312 106.108C100.996 105.721 100.844 105.226 100.888 104.728V101.372H99.96V100.36H100.888V98.884H102.248Z" fill="#353535"/>
<path d="M106 98.872H104.64V97.672H106V98.872ZM106 106.432H104.64V100.36H106V106.432Z" fill="#353535"/>
<path d="M107.276 103.34C107.244 102.533 107.508 101.743 108.016 101.116C108.281 100.841 108.598 100.623 108.95 100.474C109.301 100.325 109.678 100.248 110.06 100.248C110.442 100.248 110.819 100.325 111.17 100.474C111.522 100.623 111.839 100.841 112.104 101.116C112.616 101.741 112.881 102.533 112.848 103.34V103.46C112.883 104.27 112.618 105.065 112.104 105.692C111.839 105.966 111.521 106.183 111.17 106.332C110.819 106.48 110.441 106.557 110.06 106.557C109.679 106.557 109.301 106.48 108.95 106.332C108.599 106.183 108.282 105.966 108.016 105.692C107.506 105.066 107.243 104.275 107.276 103.468V103.34ZM108.64 103.456C108.619 103.96 108.739 104.461 108.988 104.9C109.109 105.072 109.27 105.212 109.456 105.308C109.643 105.405 109.85 105.456 110.06 105.456C110.27 105.456 110.477 105.405 110.664 105.308C110.85 105.212 111.011 105.072 111.132 104.9C111.389 104.463 111.514 103.962 111.492 103.456V103.336C111.512 102.835 111.387 102.34 111.132 101.908C111.013 101.734 110.853 101.592 110.666 101.493C110.479 101.395 110.271 101.343 110.06 101.343C109.849 101.343 109.641 101.395 109.454 101.493C109.267 101.592 109.107 101.734 108.988 101.908C108.742 102.342 108.621 102.837 108.64 103.336V103.456Z" fill="#353535"/>
<path d="M115.272 100.36L115.352 101.236C115.538 100.936 115.795 100.686 116.1 100.508C116.411 100.332 116.763 100.242 117.12 100.248C117.393 100.232 117.666 100.275 117.921 100.375C118.176 100.474 118.406 100.627 118.596 100.824C118.992 101.333 119.182 101.973 119.128 102.616V106.432H117.764V102.628C117.799 102.278 117.697 101.929 117.48 101.652C117.363 101.548 117.227 101.47 117.079 101.42C116.932 101.371 116.775 101.352 116.62 101.364C116.375 101.359 116.134 101.418 115.918 101.534C115.703 101.651 115.522 101.821 115.392 102.028V106.428H114.028V100.36H115.272Z" fill="#353535"/>
<path d="M123.96 104.8C123.961 104.698 123.937 104.596 123.89 104.505C123.844 104.414 123.776 104.335 123.692 104.276C123.383 104.089 123.041 103.966 122.684 103.912C122.096 103.814 121.535 103.592 121.04 103.26C120.86 103.127 120.714 102.953 120.617 102.751C120.519 102.55 120.472 102.328 120.48 102.104C120.481 101.852 120.539 101.604 120.652 101.378C120.764 101.153 120.927 100.956 121.128 100.804C121.611 100.426 122.215 100.234 122.828 100.264C123.462 100.231 124.088 100.425 124.592 100.812C124.798 100.97 124.963 101.176 125.072 101.413C125.181 101.649 125.23 101.908 125.216 102.168V102.2H123.908C123.91 102.079 123.885 101.958 123.836 101.847C123.787 101.736 123.715 101.637 123.624 101.556C123.515 101.46 123.388 101.387 123.251 101.34C123.114 101.293 122.969 101.274 122.824 101.284C122.555 101.266 122.287 101.345 122.072 101.508C121.991 101.573 121.925 101.655 121.88 101.748C121.835 101.842 121.812 101.944 121.812 102.048C121.808 102.146 121.829 102.244 121.871 102.332C121.914 102.421 121.977 102.498 122.056 102.556C122.361 102.732 122.698 102.846 123.048 102.892C123.656 102.984 124.235 103.211 124.744 103.556C124.923 103.692 125.067 103.869 125.163 104.073C125.259 104.276 125.305 104.499 125.296 104.724C125.3 104.984 125.241 105.242 125.123 105.474C125.005 105.706 124.832 105.906 124.62 106.056C124.099 106.418 123.474 106.598 122.84 106.568C122.163 106.606 121.497 106.389 120.972 105.96C120.762 105.795 120.594 105.583 120.481 105.341C120.367 105.1 120.312 104.835 120.32 104.568V104.536H121.6C121.595 104.685 121.627 104.834 121.694 104.968C121.76 105.102 121.858 105.217 121.98 105.304C122.241 105.47 122.547 105.554 122.856 105.544C123.137 105.559 123.415 105.489 123.656 105.344C123.749 105.287 123.826 105.207 123.88 105.112C123.933 105.017 123.961 104.909 123.96 104.8Z" fill="#353535"/>
<path d="M41.172 116.4H37.2V120.232H36.532V112.052H41.732V112.624H37.2V115.824H41.172V116.4Z" fill="#353535"/>
<path d="M42.48 117.096C42.4464 116.298 42.7085 115.516 43.216 114.9C43.4634 114.629 43.7646 114.412 44.1003 114.264C44.4361 114.116 44.799 114.04 45.166 114.04C45.533 114.04 45.896 114.116 46.2317 114.264C46.5675 114.412 46.8686 114.629 47.116 114.9C47.6219 115.517 47.8838 116.299 47.852 117.096V117.284C47.8859 118.082 47.6254 118.865 47.12 119.484C46.8716 119.754 46.5699 119.97 46.2339 120.117C45.8979 120.265 45.535 120.341 45.168 120.341C44.8011 120.341 44.4381 120.265 44.1021 120.117C43.7662 119.97 43.4644 119.754 43.216 119.484C42.7079 118.866 42.4458 118.083 42.48 117.284V117.096ZM43.152 117.28C43.1314 117.913 43.3198 118.536 43.688 119.052C43.8648 119.275 44.0897 119.455 44.346 119.579C44.6023 119.703 44.8833 119.768 45.168 119.768C45.4527 119.768 45.7337 119.703 45.99 119.579C46.2463 119.455 46.4713 119.275 46.648 119.052C47.022 118.538 47.216 117.915 47.2 117.28V117.096C47.2195 116.466 47.0296 115.847 46.66 115.336C46.4924 115.102 46.2694 114.914 46.0112 114.788C45.7529 114.661 45.4673 114.601 45.18 114.612C44.8931 114.6 44.6077 114.66 44.3499 114.786C44.0921 114.913 43.8701 115.102 43.704 115.336C43.3375 115.848 43.1492 116.466 43.168 117.096L43.152 117.28Z" fill="#353535"/>
<path d="M53.232 119.232C53.0456 119.574 52.7689 119.857 52.432 120.052C52.0753 120.25 51.6721 120.35 51.264 120.34C50.98 120.355 50.6965 120.303 50.4356 120.19C50.1747 120.077 49.9434 119.905 49.76 119.688C49.3973 119.256 49.216 118.583 49.216 117.668V114.152H49.888V117.688C49.8391 118.248 49.9724 118.809 50.268 119.288C50.3948 119.449 50.5583 119.577 50.7449 119.661C50.9315 119.745 51.1356 119.783 51.34 119.772C51.7736 119.796 52.2028 119.675 52.56 119.428C52.8729 119.192 53.0982 118.858 53.2 118.48V114.152H53.876V120.224H53.28L53.232 119.232Z" fill="#353535"/>
<path d="M56.244 114.152L56.308 115.212C56.4888 114.854 56.7658 114.553 57.108 114.344C57.4637 114.134 57.8713 114.029 58.284 114.04C58.564 114.021 58.8446 114.066 59.1049 114.17C59.3653 114.275 59.5988 114.437 59.788 114.644C60.1761 115.19 60.3589 115.856 60.304 116.524V120.224H59.6V116.524C59.6474 115.999 59.5055 115.474 59.2 115.044C59.0577 114.896 58.8849 114.781 58.6936 114.706C58.5022 114.631 58.297 114.599 58.092 114.612C57.6758 114.593 57.2668 114.725 56.94 114.984C56.6332 115.246 56.4095 115.593 56.296 115.98V120.224H55.624V114.152H56.244Z" fill="#353535"/>
<path d="M61.784 117.236C61.7422 116.416 61.9575 115.604 62.4 114.912C62.587 114.632 62.8426 114.406 63.1423 114.253C63.4421 114.1 63.7759 114.027 64.112 114.04C64.496 114.029 64.8759 114.122 65.212 114.308C65.5294 114.495 65.7958 114.758 65.988 115.072V111.472H66.656V120.228H66.06L66.004 119.348C65.8129 119.658 65.544 119.913 65.224 120.088C64.8766 120.266 64.4902 120.354 64.1 120.344C63.7728 120.36 63.4466 120.296 63.1502 120.156C62.8538 120.017 62.5961 119.806 62.4 119.544C61.9598 118.908 61.7432 118.144 61.784 117.372V117.236ZM62.456 117.356C62.4253 117.973 62.5785 118.586 62.896 119.116C63.0418 119.33 63.2409 119.503 63.4737 119.618C63.7066 119.732 63.9651 119.784 64.224 119.768C64.6078 119.783 64.9871 119.681 65.312 119.476C65.6056 119.275 65.8392 118.999 65.988 118.676V115.8C65.8451 115.464 65.6211 115.168 65.336 114.94C65.0173 114.709 64.6293 114.593 64.236 114.612C63.9686 114.6 63.7029 114.661 63.4679 114.789C63.233 114.918 63.0379 115.108 62.904 115.34C62.5832 115.919 62.4282 116.575 62.456 117.236V117.356Z" fill="#353535"/>
<path d="M72.288 120.224C72.244 120.016 72.212 119.824 72.192 119.688C72.1746 119.538 72.1652 119.387 72.164 119.236C71.9282 119.566 71.6221 119.839 71.268 120.036C70.8805 120.247 70.4451 120.354 70.004 120.348C69.7548 120.364 69.505 120.33 69.2689 120.249C69.0328 120.168 68.815 120.041 68.628 119.876C68.4619 119.712 68.3322 119.516 68.2475 119.299C68.1627 119.081 68.1247 118.849 68.136 118.616C68.1315 118.348 68.1961 118.083 68.3236 117.847C68.4511 117.611 68.6372 117.411 68.864 117.268C69.4505 116.904 70.1345 116.728 70.824 116.764H72.164V116C72.1767 115.81 72.1475 115.62 72.0783 115.443C72.0092 115.266 71.9019 115.107 71.764 114.976C71.4319 114.713 71.0146 114.582 70.592 114.608C70.1755 114.591 69.7654 114.715 69.428 114.96C69.2868 115.056 69.1708 115.185 69.09 115.335C69.0093 115.486 68.966 115.653 68.964 115.824H68.348V115.788C68.3464 115.553 68.4019 115.321 68.51 115.112C68.618 114.902 68.7751 114.723 68.968 114.588C69.4413 114.217 70.0312 114.027 70.632 114.052C71.2087 114.026 71.7757 114.206 72.232 114.56C72.4389 114.742 72.6016 114.969 72.7077 115.223C72.8137 115.478 72.8603 115.753 72.844 116.028V119.012C72.8438 119.221 72.8558 119.429 72.88 119.636C72.9078 119.839 72.9493 120.039 73.004 120.236L72.288 120.224ZM70.084 119.748C70.5339 119.755 70.9771 119.638 71.364 119.408C71.7108 119.204 71.9893 118.902 72.164 118.54V117.272H70.8C70.2834 117.249 69.7726 117.389 69.34 117.672C69.1749 117.775 69.0381 117.917 68.9424 118.086C68.8466 118.255 68.7949 118.446 68.792 118.64C68.7876 118.79 68.8157 118.939 68.8744 119.077C68.9331 119.215 69.021 119.339 69.132 119.44C69.3976 119.662 69.7388 119.772 70.084 119.748Z" fill="#353535"/>
<path d="M75.68 112.596V114.152H77.012V114.7H75.68V118.656C75.6529 118.954 75.7277 119.253 75.892 119.504C75.9638 119.585 76.0527 119.65 76.1523 119.692C76.2518 119.735 76.3596 119.756 76.468 119.752C76.5746 119.758 76.6814 119.758 76.788 119.752C76.888 119.752 77.008 119.728 77.144 119.704L77.244 120.204C77.1165 120.26 76.9819 120.297 76.844 120.316C76.6841 120.343 76.5222 120.356 76.36 120.356C76.1746 120.368 75.989 120.338 75.8166 120.269C75.6443 120.2 75.4896 120.093 75.364 119.956C75.0942 119.587 74.9677 119.132 75.008 118.676V114.72H73.956V114.172H75.008V112.616L75.68 112.596Z" fill="#353535"/>
<path d="M79.2 112.4H78.532V111.456H79.2V112.4ZM79.2 120.212H78.532V114.152H79.2V120.212Z" fill="#353535"/>
<path d="M80.672 117.096C80.6384 116.298 80.9005 115.516 81.408 114.9C81.6554 114.629 81.9566 114.412 82.2924 114.264C82.6281 114.116 82.9911 114.04 83.358 114.04C83.725 114.04 84.088 114.116 84.4237 114.264C84.7595 114.412 85.0607 114.629 85.308 114.9C85.8139 115.517 86.0758 116.299 86.044 117.096V117.284C86.0779 118.082 85.8174 118.865 85.312 119.484C85.0636 119.754 84.7619 119.97 84.4259 120.117C84.0899 120.265 83.727 120.341 83.36 120.341C82.9931 120.341 82.6302 120.265 82.2942 120.117C81.9582 119.97 81.6564 119.754 81.408 119.484C80.8999 118.866 80.6378 118.083 80.672 117.284V117.096ZM81.348 117.28C81.326 117.913 81.5129 118.536 81.88 119.052C82.0568 119.275 82.2817 119.455 82.538 119.579C82.7943 119.703 83.0753 119.768 83.36 119.768C83.6447 119.768 83.9257 119.703 84.182 119.579C84.4383 119.455 84.6633 119.275 84.84 119.052C85.2083 118.536 85.3967 117.913 85.376 117.28V117.096C85.3955 116.466 85.2056 115.847 84.836 115.336C84.661 115.111 84.4369 114.929 84.1807 114.803C83.9246 114.678 83.6432 114.613 83.358 114.613C83.0729 114.613 82.7915 114.678 82.5353 114.803C82.2792 114.929 82.0551 115.111 81.88 115.336C81.5146 115.849 81.3277 116.467 81.348 117.096V117.28Z" fill="#353535"/>
<path d="M88.04 114.152L88.104 115.212C88.2848 114.854 88.5618 114.553 88.904 114.344C89.2593 114.133 89.6671 114.028 90.08 114.04C90.36 114.022 90.6405 114.066 90.9008 114.171C91.1611 114.275 91.3946 114.437 91.584 114.644C91.9722 115.19 92.1549 115.856 92.1 116.524V120.224H91.424V116.524C91.4714 115.999 91.3295 115.474 91.024 115.044C90.8816 114.896 90.7087 114.781 90.5174 114.706C90.3261 114.632 90.121 114.6 89.916 114.612C89.4987 114.594 89.0887 114.726 88.76 114.984C88.4558 115.248 88.2336 115.594 88.12 115.98V120.224H87.444V114.152H88.04Z" fill="#353535"/>
</svg>
