<?xml version="1.0" encoding="utf-8"?>
<!-- Generator: Adobe Illustrator 19.1.0, SVG Export Plug-In . SVG Version: 6.00 Build 0)  -->
<svg version="1.1" id="Layer_1" xmlns="http://www.w3.org/2000/svg" xmlns:xlink="http://www.w3.org/1999/xlink" x="0px" y="0px"
	 viewBox="0 0 293.3 268.7" style="enable-background:new 0 0 293.3 268.7;" xml:space="preserve">
<g>
	<circle style="fill:#F3C736;" cx="18.5" cy="91.8" r="8.8"/>
	<circle style="fill:#F05F4E;" cx="146.7" cy="134.3" r="8.8"/>
	<circle style="fill:#F3C736;" cx="275.1" cy="177.1" r="8.8"/>
	<circle style="fill:#F3C736;" cx="69.1" cy="220.3" r="42.3"/>
	<circle style="fill:#F05F4E;" cx="69.1" cy="220.3" r="21.9"/>
	<circle style="fill:#F3C736;" cx="225.1" cy="48.5" r="42.5"/>
	<circle style="fill:#FFFFFF;" cx="225.1" cy="48.5" r="22.8"/>
	<g>
		<path style="fill:#222222;" d="M225.3,76.1c15.1,0,27.4-12.3,27.4-27.4c0-15.1-12.3-27.4-27.4-27.4c-15.1,0-27.4,12.3-27.4,27.4
			C198,63.8,210.2,76.1,225.3,76.1L225.3,76.1z M225.3,33.3c8.5,0,15.4,6.9,15.4,15.4c0,8.5-6.9,15.4-15.4,15.4
			c-8.5,0-15.4-6.9-15.4-15.4C209.9,40.3,216.8,33.3,225.3,33.3L225.3,33.3z M69.1,192.5c-15.1,0-27.4,12.3-27.4,27.4
			c0,15.1,12.3,27.4,27.4,27.4c15.1,0,27.4-12.3,27.4-27.4C96.4,204.8,84.2,192.5,69.1,192.5L69.1,192.5z M69.1,235.3
			c-8.5,0-15.4-6.9-15.4-15.4c0-8.5,6.9-15.4,15.4-15.4c8.5,0,15.4,6.9,15.4,15.4C84.5,228.4,77.6,235.3,69.1,235.3L69.1,235.3z
			 M277.5,159c-7.4-18.2-25.4-30.6-45.2-30.6h-68.3c-2.5-7.2-9.3-12.3-17.3-12.3c-8,0-14.8,5.2-17.3,12.3H61.1
			c-14.3,0-27.3-8.5-33.3-21.2c5.3-3.2,8.8-9,8.8-15.6c0-6.6-3.5-12.4-8.8-15.6c6-12.7,19-21.2,33.3-21.2h115.9
			c3,24.1,23.5,42.8,48.4,42.8c26.9,0,48.8-21.9,48.8-48.8S252.2,0,225.3,0c-24.9,0-45.4,18.7-48.4,42.8H61.1
			c-19.9,0-37.9,12.4-45.2,30.6C6.9,74.6,0,82.3,0,91.5s6.9,16.9,15.8,18.1c7.4,18.2,25.4,30.6,45.2,30.6h68.3
			c2.5,7.2,9.3,12.3,17.3,12.3c8,0,14.8-5.2,17.3-12.3h68.3c14.3,0,27.3,8.5,33.3,21.2c-5.3,3.2-8.8,9-8.8,15.6
			c0,6.6,3.5,12.4,8.8,15.6c-6,12.7-19,21.2-33.3,21.2H117.5c-2.9-24.1-23.5-42.8-48.4-42.8c-26.9,0-48.8,21.9-48.8,48.8
			s21.9,48.8,48.8,48.8c24.9,0,45.4-18.7,48.4-42.8h114.8c19.9,0,37.9-12.4,45.2-30.6c8.9-1.2,15.8-8.9,15.8-18.1
			C293.3,167.9,286.4,160.2,277.5,159L277.5,159z M225.3,11.9c20.3,0,36.8,16.5,36.8,36.8c0,20.3-16.5,36.8-36.8,36.8
			c-20.3,0-36.8-16.5-36.8-36.8C188.5,28.5,205,11.9,225.3,11.9L225.3,11.9z M19.3,97.8c-0.1,0-0.1,0-0.1,0c-0.3,0-0.6,0.1-0.9,0.1
			c-3.5,0-6.4-2.9-6.4-6.4c0-3.5,2.9-6.4,6.4-6.4c0.3,0,0.6,0,0.8,0.1c0.1,0,0.1,0,0.2,0c3,0.5,5.4,3.1,5.4,6.3
			C24.6,94.7,22.3,97.3,19.3,97.8L19.3,97.8z M146.7,140.7c-3.5,0-6.4-2.8-6.4-6.4c0-3.5,2.8-6.4,6.4-6.4c3.5,0,6.4,2.8,6.4,6.4
			C153,137.8,150.2,140.7,146.7,140.7L146.7,140.7z M69.1,256.7c-20.3,0-36.8-16.5-36.8-36.8s16.5-36.8,36.8-36.8
			c20.3,0,36.8,16.5,36.8,36.8S89.4,256.7,69.1,256.7L69.1,256.7z M275,183.5c-0.3,0-0.6,0-0.8-0.1c-0.1,0-0.1,0-0.2,0
			c-3-0.5-5.3-3.1-5.3-6.3c0-3.2,2.3-5.8,5.4-6.3c0.1,0,0.1,0,0.1,0c0.3,0,0.6-0.1,0.9-0.1c3.5,0,6.4,2.9,6.4,6.4
			C281.4,180.6,278.5,183.5,275,183.5L275,183.5z M275,183.5"/>
	</g>
</g>
</svg>
