<?xml version="1.0" encoding="utf-8"?>
<!-- Generator: Adobe Illustrator 19.1.0, SVG Export Plug-In . SVG Version: 6.00 Build 0)  -->
<svg version="1.1" id="Layer_1" xmlns="http://www.w3.org/2000/svg" xmlns:xlink="http://www.w3.org/1999/xlink" x="0px" y="0px"
	 viewBox="0 0 171.8 175" style="enable-background:new 0 0 171.8 175;" xml:space="preserve">
<g id="chopper">
	<path style="fill:#3874AB;" d="M80,84L43,67.1l0.8-3.7h36.9l-0.6,2.4C80,66.6,80,67.3,80,68.2V84L80,84z"/>
	<path style="fill:#3874AB;" d="M101.5,116.9c-8.2,0-15.3-6.4-16.1-14.5l-0.2-2.1h7.1c1.6,0,2.8-1.3,2.8-2.8c0-1.5-1-3-2.6-3h-7.2
		V81.2h16.6c1.6,0,2.8-1.3,2.8-2.8c0-1.5-1.3-2.8-2.8-2.8H85.4v-7.4c0-2.7,2.3-5,5-5h24.6c1,0,2.1,0,3.3,0.3l1.5,0.3v24.4
		c0,5.6,4.5,10.1,10.1,10.1h31.7l0.4,1.4c1,3.9,1.5,7.8,1.5,12c0,2.7-2.3,5-5,5H101.5z"/>
	<polygon style="fill:#FFFFFF;" points="8.4,47.5 18.6,60.7 8.4,73.8 	"/>
	<polygon style="fill:#FFFFFF;" points="10.3,68.2 16.2,60.7 10.3,53.1 	"/>
	<path style="fill:#FFB424;" d="M129.5,92.8c-2.5,0-4.5-2-4.5-4.5v-24l2.4,0.7c13.5,3.7,24.6,12.8,30.5,25.1l1.3,2.7H129.5z"/>
	<path style="fill:#231F20;" d="M78.8,146.4c-1.6,0-2.8-1.3-2.8-2.8c0-1.6,1.3-2.8,2.8-2.8h24.3v-18.2l-1.9,0
		c-11.7-0.2-21.3-9.9-21.3-21.7V90.1L23.2,64.2L7.8,83.6c-0.8,0.9-1.7,1.1-2.3,1.1c-1.3,0-2.7-1-2.8-2.9l0-42.4
		c0-1.9,1.4-2.8,2.6-2.8c0.9,0,1.8,0.4,2.6,1.2l15.6,20l73.2-0.2V34.2H33.9c-1.6,0-2.8-1.3-2.8-2.8c0-1.6,1.3-2.8,2.8-2.8h131
		c1.6,0,2.8,1.3,2.8,2.8c0,1.6-1.3,2.8-2.8,2.8h-62.8v23.4h12.5c29.8,0,54,24.2,54,54c0,5.7-4.8,10.6-10.6,10.6H139v18.2H154
		l10.2-8.2c0.5-0.4,1.2-0.7,1.9-0.7c0.9,0,1.7,0.4,2.2,1.2l0.1,0.1l0.1,0.1c0.4,0.5,0.7,1.2,0.6,1.9c-0.1,0.8-0.4,1.4-1,1.9
		l-10.7,8.9c-0.8,0.4-1.4,0.7-2,0.7H78.8z M108.5,140.5h25.1v-18.2h-25.1V140.5z M85.4,102.4c0.8,8.1,7.9,14.5,16.1,14.5h56.9
		c2.7,0,5-2.3,5-5c0-4.2-0.5-8.2-1.5-12l-0.4-1.4h-31.7c-5.6,0-10.1-4.5-10.1-10.1V63.8l-1.5-0.3c-1.2-0.3-2.2-0.3-3.3-0.3H90.3
		c-2.7,0-5,2.3-5,5v7.4h16.6c1.6,0,2.8,1.3,2.8,2.8c0,1.6-1.3,2.8-2.8,2.8H85.4v13.3h7.1c1.5,0,2.6,1.6,2.6,3c0,1.5-1.3,2.8-2.8,2.8
		h-7.1L85.4,102.4z M125,88.3c0,2.5,2,4.5,4.5,4.5h29.8L158,90c-6.1-12.2-17.3-21.4-30.5-25.1l-2.4-0.7V88.3z M43,67.1L80,84V68.2
		c0-0.9,0-1.7,0.2-2.4l0.6-2.4H43.8L43,67.1z M8.4,73.8l10.3-13.2L8.4,47.5V73.8z"/>
</g>
</svg>
