<?xml version="1.0" encoding="utf-8"?>
<!-- Generator: Adobe Illustrator 19.1.0, SVG Export Plug-In . SVG Version: 6.00 Build 0)  -->
<svg version="1.1" id="Layer_1" xmlns="http://www.w3.org/2000/svg" xmlns:xlink="http://www.w3.org/1999/xlink" x="0px" y="0px"
	 viewBox="0 0 171.8 175" style="enable-background:new 0 0 171.8 175;" xml:space="preserve">
<g id="crane">
	<polygon style="fill:#FFB424;" points="92.8,153.6 134.8,152.5 120.5,52.9 104.6,46 	"/>
	<path style="fill:#85644D;" d="M45.8,152.7H32.6c-2.6,0-4.6,1.6-4.6,3.5c0,1.9,2.1,3.5,4.6,3.5h0.6c2.6,0,4.6,1.6,4.6,3.5
		c0,1.9-2.1,3.5-4.6,3.5H4.6c-2.6,0-4.6,1.6-4.6,3.5c0,1.9,2.1,3.5,4.6,3.5H109c2.6,0,4.6-1.6,4.6-3.5c0-1.9-2.1-3.5-4.6-3.5h-7.9
		c-2.6,0-4.6-1.6-4.6-3.5c0-1.9,2.1-3.5,4.6-3.5h31.1c2.6,0,4.6-1.6,4.6-3.5c0-1.9-2.1-3.5-4.6-3.5H45.8z M45.8,152.7"/>
	<path style="fill:#85644D;" d="M128.2,174.7c-2.1,0-3.9-1.7-3.9-3.8c0-2.1,1.7-3.8,3.9-3.8h11.9c2.1,0,3.9,1.7,3.9,3.8
		c0,2.1-1.7,3.8-3.9,3.8H128.2z M128.2,174.7"/>
	<path style="fill:#231F20;" d="M137.6,155.6h-49l12.6-111.1l22.9,11.4L137.6,155.6z M95.1,149.1h35.9l-12.2-89.8L106,53L95.1,149.1
		z M95.1,149.1"/>
	<path style="fill:#231F20;" d="M132.4,153.7c-0.6,0-1.2-0.2-1.7-0.6l-37.9-27.9l27.3-34.2l-19.1-17c-1.2-1.1-1.3-2.9-0.2-4.1
		c1.1-1.2,2.9-1.3,4.1-0.2l23.2,20.6l-26.9,33.8l33,24.3c1.3,1,1.6,2.8,0.6,4.1C134.2,153.3,133.3,153.7,132.4,153.7L132.4,153.7z
		 M132.4,153.7"/>
	<path style="fill:#DB5446;" d="M143.9,69.8L71.7,36.5l2.9-6.8l72.3,33.3L143.9,69.8z M143.9,69.8"/>
	<path style="fill:#231F20;" d="M61,158.2c-1.6,0-2.8-1.3-2.8-2.9V62.1c0-1.6,1.2-2.9,2.8-2.9c1.6,0,2.8,1.3,2.8,2.9v93.2
		C63.8,156.9,62.6,158.2,61,158.2L61,158.2z M61,158.2"/>
	<path style="fill:#231F20;" d="M63.1,66.5c-6.9-1-13.6-4.2-18.9-9.5c-13.1-13.1-13.1-34.4,0-47.5C49.5,4.1,56.2,1,63.2,0l15,33.2
		L63.1,66.5z M63.1,66.5"/>
	<g>
		<defs>
			<rect id="SVGID_1_" width="171.8" height="175"/>
		</defs>
		<clipPath id="SVGID_2_">
			<use xlink:href="#SVGID_1_"  style="overflow:visible;"/>
		</clipPath>
		<rect x="55" y="149.2" style="clip-path:url(#SVGID_2_);fill:#231F20;" width="116.9" height="9.1"/>
	</g>
</g>
</svg>
