<?xml version="1.0" encoding="utf-8"?>
<!-- Generator: Adobe Illustrator 19.1.0, SVG Export Plug-In . SVG Version: 6.00 Build 0)  -->
<svg version="1.1" id="Layer_1" xmlns="http://www.w3.org/2000/svg" xmlns:xlink="http://www.w3.org/1999/xlink" x="0px" y="0px"
	 viewBox="0 0 171.8 175" style="enable-background:new 0 0 171.8 175;" xml:space="preserve">
<g>
	<path style="fill:#FFFFFF;" d="M22.9,130.7c0-6.1,0-12.3,0-18.4c0-1.4-0.4-1.7-1.7-1.7c-4.7,0.1-9.4,0-14.1,0.1
		c-1.1,0-1.4-0.3-1.4-1.4c0-4.3-0.1-4.3,4.3-4.3c8.6,0,17.3,0,25.9,0c1.9,0,3.5,0.2,4.1,2.3c0.3,1,1.1,0.5,1.6,0.5
		c8.6,0,17.2,0.1,25.7,0c1.8,0,3,0.5,4.2,1.8c4.6,4.7,9.4,9.3,14,14.1c0.9,0.9,1.7,1.1,2.8,0.9c18-3.2,36.1-6.3,54.1-9.5
		c6.7-1.2,12.2,3.2,11.8,9.6c-0.2,3.5-2,6.1-5.1,7.9c-14.3,8.3-28.6,16.7-42.9,25c-6.1,3.6-12.3,7.1-18.3,10.7
		c-3.4,2-6.8,2.1-10.3,0.3c-8.2-4.2-16.5-8.2-24.7-12.4c-3.4-1.8-6.8-2.9-10.7-2.5c-1.2,0.1-2.4-0.3-2.9,1.5c-0.2,1-1.4,1.4-2.5,1.4
		c-10.1,0-20.1,0-30.2,0c-0.9,0-1.1-0.3-1.1-1.1c-0.2-4.6-0.3-4.6,4.2-4.6c3.5,0,7,0,10.5,0c2.4,0,2.4,0,2.4-2.3
		C22.9,142.5,22.9,136.6,22.9,130.7z"/>
	<path style="fill:#FFFFFF;" d="M148.7,44.9c0,6,0.1,12,0,18c0,1.7,0.5,2,2.1,2c4.5-0.1,9.1,0,13.6-0.1c1.3,0,1.6,0.4,1.6,1.6
		c0,4.2,0,4.2-4.2,4.2c-8.8,0-17.5,0-26.3,0c-1.5,0-2.6-0.5-3.2-1.7c-0.5-1-1.3-1.2-2.3-1.2c-8.5,0-17,0-25.5,0
		c-1.6,0-2.7-0.5-3.8-1.6c-4.9-5.1-9.8-10.1-14.7-15.1c-0.8-0.8-1.5-1.1-2.6-0.9c-18.2,3.2-36.4,6.3-54.7,9.5
		c-4.9,0.9-9.3-1.4-10.9-5.9c-1.6-4.4,0.1-8.9,4.4-11.4c20.6-12,41.1-23.9,61.7-35.9c3.2-1.9,6.3-1.7,9.5-0.1
		c9.6,4.9,19.1,9.8,28.7,14.8c2.9,1.5,6,0.5,8.9,0.7c0.6,0.1,0.5-0.6,0.5-0.9c0.2-1.3,1-1.9,2.4-1.9c10.2,0,20.5,0,30.7,0
		c0.9,0,1.2,0.2,1.2,1.2c0.2,4.6,0.2,4.6-4.3,4.6c-3.8,0-7.6,0-11.4,0c-1.2,0-1.5,0.3-1.5,1.5C148.7,32.5,148.7,38.7,148.7,44.9z"/>
	<rect x="5.6" y="105.7" style="fill:#FFB424;" width="19.4" height="48.3"/>
	<rect x="146.7" y="19" style="fill:#FFB424;" width="19.4" height="48.3"/>
	<rect x="25.1" y="105.7" style="fill:#85644D;" width="13.4" height="46"/>
	<rect x="133.4" y="20.2" style="fill:#85644D;" width="13.4" height="46"/>
	<path style="fill:#231F20;" d="M22.9,130.7c0-6.1,0-12.3,0-18.4c0-1.4-0.4-1.7-1.7-1.7c-4.7,0.1-9.4,0-14.1,0.1
		c-1.1,0-1.4-0.3-1.4-1.4c0-4.3-0.1-4.3,4.3-4.3c8.6,0,17.3,0,25.9,0c1.9,0,3.5,0.2,4.1,2.3c0.3,1,1.1,0.5,1.6,0.5
		c8.6,0,17.2,0.1,25.7,0c1.8,0,3,0.5,4.2,1.8c4.6,4.7,9.4,9.3,14,14.1c0.9,0.9,1.7,1.1,2.8,0.9c18-3.2,36.1-6.3,54.1-9.5
		c6.7-1.2,12.2,3.2,11.8,9.6c-0.2,3.5-2,6.1-5.1,7.9c-14.3,8.3-28.6,16.7-42.9,25c-6.1,3.6-12.3,7.1-18.3,10.7
		c-3.4,2-6.8,2.1-10.3,0.3c-8.2-4.2-16.5-8.2-24.7-12.4c-3.4-1.8-6.8-2.9-10.7-2.5c-1.2,0.1-2.4-0.3-2.9,1.5c-0.2,1-1.4,1.4-2.5,1.4
		c-10.1,0-20.1,0-30.2,0c-0.9,0-1.1-0.3-1.1-1.1c-0.2-4.6-0.3-4.6,4.2-4.6c3.5,0,7,0,10.5,0c2.4,0,2.4,0,2.4-2.3
		C22.9,142.5,22.9,136.6,22.9,130.7z M92.1,129.6c-0.1,0.2-0.3,0.4-0.4,0.6c0.7,0.5,1.4,0.9,2,1.4c4.6,4.6,4.8,11.4,0.4,15.8
		c-4.4,4.4-11.2,4.3-15.8-0.3c-3.9-3.9-7.7-7.7-11.6-11.6c-2.9-2.9-2.8-2.8,0-5.8c0.9-1,1.4-1,2.4,0c4.4,4.5,8.9,9,13.4,13.4
		c1.6,1.6,3.5,2.2,5.7,1.4c3.7-1.4,4.7-5.8,1.8-8.7c-7.2-7.2-14.4-14.4-21.6-21.6c-0.6-0.6-1.2-0.8-2.1-0.8c-8.2,0-16.3,0-24.5,0
		c-1.3,0-1.7,0.3-1.7,1.7c0.1,9.9,0,19.9,0,29.8c0,2.8,0,2.8,2.9,2.8c1.1,0,2.2,0.1,3.2,0c2.2-0.2,4,0.4,6,1.4
		c9.3,4.7,18.6,9.3,27.9,14c2,1,3.6,0.9,5.5-0.2c20-11.7,40.1-23.4,60.1-35.1c2.7-1.6,3.5-3.1,2.8-5c-0.8-2.1-2.4-2.7-5.5-2.1
		c-0.1,0-0.1,0-0.2,0c-12.1,2.1-24.3,4.2-36.4,6.3C101.6,128,96.8,128.8,92.1,129.6z M34.3,130.6c0-5.4,0-10.7,0-16.1
		c0-3.9,0-3.8-3.9-3.9c-1.7-0.1-1.9,0.6-1.9,2c0.1,11.4,0,22.7,0,34.1c0,4,0,3.9,3.9,4c1.3,0,1.8-0.3,1.8-1.7
		C34.3,142.9,34.3,136.7,34.3,130.6z"/>
	<path style="fill:#231F20;" d="M148.7,44.9c0,6,0.1,12,0,18c0,1.7,0.5,2,2.1,2c4.5-0.1,9.1,0,13.6-0.1c1.3,0,1.6,0.4,1.6,1.6
		c0,4.2,0,4.2-4.2,4.2c-8.8,0-17.5,0-26.3,0c-1.5,0-2.6-0.5-3.2-1.7c-0.5-1-1.3-1.2-2.3-1.2c-8.5,0-17,0-25.5,0
		c-1.6,0-2.7-0.5-3.8-1.6c-4.9-5.1-9.8-10.1-14.7-15.1c-0.8-0.8-1.5-1.1-2.6-0.9c-18.2,3.2-36.4,6.3-54.7,9.5
		c-4.9,0.9-9.3-1.4-10.9-5.9c-1.6-4.4,0.1-8.9,4.4-11.4c20.6-12,41.1-23.9,61.7-35.9c3.2-1.9,6.3-1.7,9.5-0.1
		c9.6,4.9,19.1,9.8,28.7,14.8c2.9,1.5,6,0.5,8.9,0.7c0.6,0.1,0.5-0.6,0.5-0.9c0.2-1.3,1-1.9,2.4-1.9c10.2,0,20.5,0,30.7,0
		c0.9,0,1.2,0.2,1.2,1.2c0.2,4.6,0.2,4.6-4.3,4.6c-3.8,0-7.6,0-11.4,0c-1.2,0-1.5,0.3-1.5,1.5C148.7,32.5,148.7,38.7,148.7,44.9z
		 M79.5,45c0.1-0.2,0.2-0.4,0.4-0.6c-0.7-0.5-1.4-0.9-2-1.5c-4.6-4.6-4.7-11.4-0.3-15.8c4.4-4.3,11.2-4.2,15.7,0.3
		c3.9,3.9,7.7,7.7,11.6,11.6c2.9,2.9,2.9,2.9,0,5.9c-0.9,0.9-1.3,1-2.2,0c-4.4-4.5-8.8-8.9-13.3-13.3c-2.4-2.4-5.6-2.5-7.8-0.4
		c-2.2,2.2-2.2,5.5,0.1,7.9c7.2,7.4,14.4,14.7,21.6,22.1c0.5,0.6,1.1,0.8,1.9,0.8c8.3,0,16.7,0,25,0c1,0,1.3-0.3,1.3-1.3
		c0-10.5,0-21.1,0-31.6c0-1.1-0.2-1.5-1.4-1.4c-2.1,0.1-4.2,0-6.3,0c-0.6,0-1.1,0-1.7-0.3C111.8,22,101.4,16.6,91,11.2
		c-1.6-0.8-3-0.7-4.5,0.2C66.1,23.3,45.7,35.2,25.3,47.1c-2.1,1.2-2.9,2.9-2.2,4.7c0.7,1.9,2.4,2.7,4.8,2.3
		c14.2-2.5,28.4-4.9,42.5-7.4C73.5,46.1,76.5,45.6,79.5,45z M143,44.8c0-5.4,0-10.7,0-16.1c0-3.9,0-3.8-3.9-3.9
		c-1.7-0.1-1.9,0.6-1.9,2c0.1,11.3,0,22.6,0,33.9c0,4.2,0,4.1,4.1,4.2c1.4,0,1.6-0.5,1.6-1.7C142.9,57.1,143,51,143,44.8z"/>
	<path style="fill:#DB5446;" d="M78.5,70.6c1.7,0.1,4,0.5,5.8,1.9c1.2,0.9,1.9,0.7,3-0.1c7.2-4.6,16.7-0.6,18.3,7.7
		c0.7,3.8-0.4,7.1-3.1,9.8c-4.8,4.7-9.7,9.3-14.6,13.9c-1.5,1.5-2.9,1.4-4.5-0.2c-4.6-4.4-9.2-8.8-13.8-13.2
		c-3.7-3.6-4.8-8.3-3-12.7C68.4,73.5,72.9,70.6,78.5,70.6z"/>
	<path style="fill:#DB5446;" d="M77.2,76.3c-2.1,0.1-4.1,1.2-5.2,3.5c-1,2-0.6,4.4,1.1,6.1c3.9,3.8,7.9,7.6,11.8,11.3
		c0.6,0.5,1,0.7,1.6,0.1c4-3.9,8.1-7.7,12.1-11.6c2.2-2.2,1.9-5.7-0.5-7.8c-2.6-2.3-6.3-2.2-9,0.3c-3.2,2.9-3.6,2.9-6.8,0
		C81.1,77,79.5,76.3,77.2,76.3z"/>
	<path style="fill:#3874AB;" d="M52.5,65.4c-0.9,1.5-1.7,2.9-2.6,4.3c-0.2,0.3-0.5-0.1-0.8-0.2c-4.6-1.7-4.7-2.1-2.1-6.2
		c0.6-1,1.1-1.1,2-0.4c0.8,0.7,1.8,1.2,2.6,1.8C52,65,52.2,65.2,52.5,65.4z"/>
	<path style="fill:#3874AB;" d="M126.8,108.3c-1,1.7-1.8,3.2-2.8,4.6c-0.4,0.6-1,0-1.3-0.3c-1.1-1-3.3-1.2-3.2-2.8
		c0-1.3,1.3-2.6,2.1-3.8c0.5-0.7,1,0,1.4,0.2C124.1,106.9,125.6,107.3,126.8,108.3z"/>
	<path style="fill:#3874AB;" d="M45.7,79.9c-0.3-0.1-0.5-0.1-0.7-0.1c-1.3-0.4-3.3,0-3.7-1.1c-0.7-1.5,0.5-3.3,0.9-4.9
		c0.2-0.6,0.5-0.7,1.1-0.4c0.3,0.1,0.6,0.2,0.8,0.3c4.1,1.4,4.1,1.5,2.6,5.6C46.5,79.8,46.2,80.1,45.7,79.9z"/>
	<path style="fill:#3874AB;" d="M131.5,87.5c0,3,0,3-2.8,2.8c-2.9-0.2-2.9-0.2-2.9-3c0-2.5,0-2.5,2.5-2.7c0.1,0,0.1,0,0.2,0
		C131.9,84.5,131.4,83.9,131.5,87.5z"/>
	<path style="fill:#3874AB;" d="M40,88c0-2.9,0-2.9,2.9-2.8c2.8,0.2,2.8,0.2,2.8,3c0,2.4,0,2.4-2.4,2.6c-0.1,0-0.1,0-0.2,0
		C39.4,91.1,40.2,91.4,40,88z"/>
	<path style="fill:#3874AB;" d="M125.7,79.4c-0.5,0.1-0.8,0-0.9-0.5c0-0.2,0-0.4-0.1-0.5c-1.2-4.4-1.2-4.3,3.2-5.5
		c0.7-0.2,1.1-0.1,1.3,0.7c0,0.2,0.1,0.3,0.1,0.5C130.9,78.6,130.5,79.2,125.7,79.4z"/>
	<path style="fill:#3874AB;" d="M130.5,97.3c-0.1,0.4-0.1,0.6-0.1,0.7c-0.9,4.6-1.7,4.9-5.9,2.9c-0.1-0.1-0.3-0.1-0.3-0.2
		c-0.7-1.6,0.6-3,0.7-4.5c0-0.7,0.6-0.7,1.2-0.6c1.2,0.2,2.4,0.5,3.7,0.7C130.5,96.5,130.6,96.9,130.5,97.3z"/>
	<path style="fill:#3874AB;" d="M45.8,96.1c1-0.1,1,0.7,1,1.2c0,1.4,1.8,2.8,0.4,4c-1,0.9-2.6,1-4,1.5c-0.5,0.2-0.8,0-0.9-0.5
		c-0.1-0.4-0.3-0.8-0.4-1.2c-0.3-1.3-1.4-2.9-0.7-3.7C42.3,96.2,44.4,96.6,45.8,96.1z"/>
</g>
</svg>
