<?xml version="1.0" encoding="utf-8"?>
<!-- Generator: Adobe Illustrator 19.1.0, SVG Export Plug-In . SVG Version: 6.00 Build 0)  -->
<svg version="1.1" id="Layer_1" xmlns="http://www.w3.org/2000/svg" xmlns:xlink="http://www.w3.org/1999/xlink" x="0px" y="0px"
	 viewBox="0 0 131.2 86.5" style="enable-background:new 0 0 131.2 86.5;" xml:space="preserve">
<g>
	<g>
		<defs>
			<rect id="SVGID_1_" width="131.2" height="86.5"/>
		</defs>
		<clipPath id="SVGID_2_">
			<use xlink:href="#SVGID_1_"  style="overflow:visible;"/>
		</clipPath>
		<path style="clip-path:url(#SVGID_2_);fill:#F4C737;" d="M2.4,43.5l14.1-41l16.8,5.7l-14.1,41L2.4,43.5z M2.4,43.5"/>
		<path style="clip-path:url(#SVGID_2_);fill:#2C2F33;" d="M45.4,6l-1.6,0.8c-2,1-4.4,1.1-6.5,0.4l-2.7-1c-0.2-0.1-0.3-0.2-0.5-0.2
			L17.3,0.3c-1.3-0.4-2.6,0.2-3.1,1.5l-14.1,41C-0.1,43.4,0,44,0.2,44.6c0.3,0.6,0.8,1,1.4,1.2l16.7,5.7c0.3,0.1,0.5,0.1,0.8,0.1
			c1,0,1.9-0.6,2.3-1.6l13.3-38.6l0.9,0.3c3.3,1.2,7.1,1,10.3-0.6l1.6-0.8c2-1,4.4-1.1,6.5-0.4l30.8,10.6c-0.3,1.3-1,2.8-2.1,3.6
			c-1.3,0.9-3.3,0.9-5.8,0l-13.7-4.7c-0.6-0.2-1.3-0.2-1.9,0.2c-0.6,0.3-1,0.9-1.2,1.5c0,0.1-1.9,7.2-8,10.4
			c-3.8,2.1-8.6,2.1-14.2,0.2c-1.3-0.4-2.6,0.2-3.1,1.5c-0.4,1.3,0.2,2.6,1.5,3.1c3.2,1.1,6.2,1.7,9,1.7c3.3,0,6.2-0.7,9-2.2
			c5.4-2.9,8.2-8,9.5-11.1l11.5,3.9c4.1,1.4,7.5,1.2,10.1-0.6c4.2-2.9,4.5-8.9,4.5-9.2c0-1.1-0.6-2-1.6-2.4L55.6,5.4
			C52.3,4.3,48.6,4.5,45.4,6L45.4,6z M17.7,46.2L5.5,42L18,5.6l12.2,4.2L17.7,46.2z M17.7,46.2"/>
		<path style="clip-path:url(#SVGID_2_);fill:#FE5F4A;" d="M112.5,49.5l-19-38.9l15.9-7.8l19,38.9L112.5,49.5z M112.5,49.5"/>
		<path style="clip-path:url(#SVGID_2_);fill:#2C2F33;" d="M109.6,49l-5.7,5.3c-5.2,4.8-11.1,8.8-17.4,11.9L55.9,81.1
			c-1.3,0.7-3,0.1-3.6-1.3c-0.7-1.3-0.1-3,1.3-3.6l0.4-0.2l16.7-8.1c1.2-0.6,1.7-2,1.1-3.2c-0.6-1.2-2-1.7-3.2-1.1l-16.7,8.1
			l-8.4,4.1c-1.3,0.7-3,0.1-3.6-1.3c-0.3-0.6-0.4-1.4-0.1-2.1c0.2-0.7,0.7-1.2,1.4-1.5l6.3-3.1l18.1-8.9c1.2-0.6,1.7-2,1.1-3.2
			c-0.6-1.2-2-1.7-3.2-1.1l-18.1,8.9l-0.7,0.3l-8.7,4.2c-0.6,0.3-1.4,0.4-2.1,0.1c-0.7-0.2-1.2-0.7-1.5-1.4c-0.7-1.3-0.1-3,1.3-3.6
			l3-1.5l6.1-3l1.7-0.8l14-6.9c1.2-0.6,1.7-2,1.1-3.2c-0.6-1.2-2-1.7-3.2-1.1L41,54.1l-6.7,3.3c-1.3,0.6-3,0.1-3.6-1.3
			c-0.3-0.6-0.4-1.4-0.1-2.1c0.2-0.7,0.7-1.2,1.4-1.5l11.6-5.7c1.2-0.6,1.7-2,1.1-3.2c-0.6-1.2-2-1.7-3.2-1.1l-11.6,5.7
			C28,49,26.7,50.6,26,52.5c-0.6,1.9-0.5,4,0.3,5.8c0.6,1.1,1.4,2.1,2.3,2.8c-1.7,2.2-2.1,5.3-0.8,7.9c0.9,1.8,2.4,3.2,4.3,3.8
			c0.8,0.3,1.6,0.4,2.4,0.4c0,1.2,0.2,2.4,0.8,3.5c1.3,2.7,4,4.2,6.8,4.2c1.1,0,2.2-0.2,3.3-0.8l1.7-0.8c0.1,0.9,0.3,1.8,0.7,2.6
			c1.3,2.7,4,4.2,6.8,4.2c1.1,0,2.2-0.2,3.3-0.8l30.5-14.9c6.8-3.3,13-7.6,18.6-12.7l6.8-6.3l15.6-7.6c1.2-0.6,1.7-2,1.1-3.2
			L111.6,1.8c-0.3-0.6-0.8-1-1.4-1.2c-0.6-0.2-1.3-0.2-1.8,0.1L92.4,8.4c-1.2,0.6-1.7,2-1.1,3.2L109.6,49z M108.3,6.1l16.9,34.6
			l-11.6,5.7L96.7,11.7L108.3,6.1z M108.3,6.1"/>
	</g>
</g>
</svg>
