<?xml version="1.0" encoding="utf-8"?>
<!-- Generator: Adobe Illustrator 19.1.0, SVG Export Plug-In . SVG Version: 6.00 Build 0)  -->
<svg version="1.1" id="Layer_1" xmlns="http://www.w3.org/2000/svg" xmlns:xlink="http://www.w3.org/1999/xlink" x="0px" y="0px"
	 viewBox="0 0 86.4 86.4" style="enable-background:new 0 0 86.4 86.4;" xml:space="preserve">
<g>
	<polygon style="fill:#CDD6E0;" points="54.7,68.3 32.1,68.3 34.6,63.9 40.9,53.5 45.7,53.5 52,63.9 	"/>
	<path style="fill:#B8CAD8;" d="M52,63.9c-2.7,0.9-5.8,1.3-8.6,1.3s-5.9-0.5-8.6-1.3l6.3-10.3h4.9L52,63.9z"/>
	<path style="fill:#FFD15C;" d="M70.4,4v31.3c0,14.9-12.1,27-27.2,27S16,50.2,16,35.3V4H70.4z"/>
	<g>
		<path style="fill:#F8B64C;" d="M17.6,43.8l-3.2-1.3l-9.7-3.6C1.8,37.8,0,35.1,0,32.1V13.7c0-4,3.2-7.2,7.2-7.2h9v7.2h-9v18.5l0,0
			l6.3,2.3l2.7,1.1C16.2,38.5,16.7,41.2,17.6,43.8z"/>
		<path style="fill:#F8B64C;" d="M86.4,13.7v18.5c0,3.1-2,5.8-4.7,6.8l-9.4,3.6l-3.2,1.3c0.9-2.5,1.3-5.4,1.3-8.1l2.7-1.1l5.9-2.3
			l0,0V13.7h-8.8V6.5h8.8C83.2,6.5,86.4,9.7,86.4,13.7z"/>
		<path style="fill:#F8B64C;" d="M70.4,0H16.2c-1.1,0-2,0.9-2,2s0.9,2,2,2h54.2c1.1,0,2-0.9,2-2S71.5,0,70.4,0z"/>
	</g>
	<path style="fill:#37303D;" d="M65.2,68.3H21.4c-2,0-3.6,1.6-3.6,3.6v14.6h51V71.9C68.8,69.9,67.2,68.3,65.2,68.3z"/>
	<rect x="16.2" y="4" style="fill:#FFC550;" width="54.2" height="2.7"/>
	<g>
		<rect x="13.5" y="6.5" style="fill:#F4AB42;" width="2.7" height="7.2"/>
		<path style="fill:#F4AB42;" d="M16.2,35.7c0,2.9,0.5,5.6,1.4,8.3l-3.2-1.3c-0.5-2.3-0.9-4.7-0.9-7.2v-0.7L16.2,35.7z"/>
		<rect x="70.4" y="6.5" style="fill:#F4AB42;" width="2.7" height="7.2"/>
		<path style="fill:#F4AB42;" d="M70.4,35.5l2.7-1.1v0.9c0,2.5-0.4,4.9-0.9,7.2L69,43.8C70.1,41.2,70.4,38.4,70.4,35.5z"/>
	</g>
	<polygon style="fill:#FF7058;" points="38,34 30.8,28.8 23.6,34 23.6,4 38,4 	"/>
</g>
</svg>
