<?xml version="1.0" encoding="utf-8"?>
<!-- Generator: Adobe Illustrator 19.1.0, SVG Export Plug-In . SVG Version: 6.00 Build 0)  -->
<svg version="1.1" id="Layer_1" xmlns="http://www.w3.org/2000/svg" xmlns:xlink="http://www.w3.org/1999/xlink" x="0px" y="0px"
	 viewBox="0 0 105.1 168.3" style="enable-background:new 0 0 105.1 168.3;" xml:space="preserve">
<g>
	<g>
		<path style="fill:#FFFFFF;" d="M89.7,15.4C79.8,5.5,66.6,0,52.6,0C23.6,0,0,23.6,0,52.6v63.2c0,29,23.6,52.6,52.6,52.6
			s52.6-23.6,52.6-52.6V52.6C105.1,38.5,99.6,25.3,89.7,15.4z M96.2,115.8c0,24.1-19.6,43.6-43.6,43.6S8.9,139.9,8.9,115.8V52.6
			c0-24.1,19.6-43.6,43.6-43.6c11.7,0,22.6,4.5,30.9,12.8c8.2,8.2,12.8,19.2,12.8,30.9V115.8z"/>
		<path style="fill:#FFFFFF;" d="M52.6,27.6c-2.5,0-4.5,2-4.5,4.5v10.5c0,2.5,2,4.5,4.5,4.5c2.5,0,4.5-2,4.5-4.5V32.1
			C57,29.6,55,27.6,52.6,27.6z"/>
		<path style="fill:#FFFFFF;" d="M52.6,50c-2.5,0-4.5,2-4.5,4.5v1.3c0,2.5,2,4.5,4.5,4.5c2.5,0,4.5-2,4.5-4.5v-1.3
			C57,52,55,50,52.6,50z"/>
	</g>
</g>
</svg>
