<svg xmlns="http://www.w3.org/2000/svg" xmlns:xlink="http://www.w3.org/1999/xlink" viewBox="0 0 495.85 343.26"><defs><style>.cls-1{fill:none;}.cls-2{fill:#07838c;}.cls-3{clip-path:url(#clip-path);}.cls-4{fill:#4c8056;}.cls-5{fill:#fff;}</style><clipPath id="clip-path"><path class="cls-1" d="M435.71,26.23c-8.54-16.75-19.83-27-38.17-12-14.66,12.08-29.06,14-47.5,7-20.56-7.76-43.8-6.48-60.57,8.5-13.2,11.87-24.76,10.23-36.89,4C234.11,24.33,216.52,15.41,196,28c-6.07,3.73-10.31,0-15.14-4C151.94.16,119.27-5.2,97,9.78,77.85,22.66,61.06,76.15,71.42,99.87c6.92,15.88,2.38,31.49-5.29,40.39-25,29-35.45,60.06-24.65,97.61-13.27,31.28,6.37,31.87,28,29.08,28.66-3.63,45.74,11.3,58.23,34.33,24.55,45.36,24.65,46,72.23,33.87,7.8-2,15.06-1.62,22.5-2.43,16.53-1.79,29.7-10.48,31.45-25.62,2.72-23.22,18.12-36.32,33.15-49.08,12-10.14,28.51-20.18,41.69.21,9.34,14.51,15,6.39,20.82-2.24,17.31-25.77,24.86-56.42,45.09-81.35,21.22-26.15,19-67.85,56.33-85.18,8.56-4,10.44-22.73,3.29-28.77C442.61,50.82,441.57,37.78,435.71,26.23Z"/></clipPath></defs><title>nigeria</title><g id="Layer_2" data-name="Layer 2"><g id="Layer_1-2" data-name="Layer 1"><g id="Policies"><g id="NIjacontent"><path class="cls-2" d="M437.27,25c-8.61-16.89-20-27.27-38.48-12.08C384,25.12,369.49,27,350.89,20c-20.73-7.82-44.16-6.54-61.07,8.57-13.31,12-25,10.32-37.2,4.07-18.62-9.53-36.36-18.52-57-5.83-6.12,3.76-10.39,0-15.26-4C151.14-1.26,118.2-6.67,95.74,8.44,76.44,21.42,59.5,75.36,70,99.27c7,16,2.4,31.75-5.33,40.73-25.23,29.28-35.74,60.55-24.85,98.42C26.39,270,46.2,270.56,68,267.74c28.9-3.66,46.12,11.39,58.71,34.61,24.75,45.73,24.85,46.4,72.83,34.15,7.86-2,15.19-1.63,22.68-2.45,16.66-1.8,30-10.57,31.72-25.83,2.74-23.41,18.27-36.62,33.42-49.49,12.08-10.22,28.74-20.34,42,.21,9.41,14.63,15.11,6.44,21-2.26,17.45-26,25.06-56.89,45.46-82,21.4-26.37,19.14-68.42,56.8-85.88,8.63-4,10.53-22.91,3.32-29C444.23,49.82,443.18,36.67,437.27,25Z"/><g class="cls-3"><path class="cls-4" d="M384.71,342.61h94a17.1,17.1,0,0,0,17.1-17.1V17.74A17.1,17.1,0,0,0,478.75.65H17.1A17.1,17.1,0,0,0,0,17.74V325.51a17.1,17.1,0,0,0,17.1,17.1H384.71Z"/><rect class="cls-5" x="153.88" y="0.65" width="188.08" height="341.97"/></g></g></g></g></g></svg>