<?xml version="1.0" encoding="utf-8"?>
<!-- Generator: Adobe Illustrator 19.1.0, SVG Export Plug-In . SVG Version: 6.00 Build 0)  -->
<svg version="1.1" id="Layer_1" xmlns="http://www.w3.org/2000/svg" xmlns:xlink="http://www.w3.org/1999/xlink" x="0px" y="0px"
	 viewBox="0 0 100.6 100.6" style="enable-background:new 0 0 100.6 100.6;" xml:space="preserve">
<g>
	<polyline style="fill:#FFB92E;" points="40.1,59.6 40.1,52.5 50.8,52.5 51,52.5 52.2,52.5 53.4,52.5 53.6,52.5 58.9,52.5 
		59.1,52.5 60.4,52.5 61.5,52.5 61.7,52.5 70,52.5 71.1,59.6 	"/>
	<rect x="15.2" y="30.4" style="fill:#CCC3A8;" width="22.4" height="7.2"/>
	<path style="fill:#C9B585;" d="M20.9,38.4v-6.3c0-1.4,1.1-2.5,2.5-2.5h-4.1c-1.4,0-2.5,1.1-2.5,2.5v6.3c0,1.4,1.1,2.5,2.5,2.5h4.1
		C22,41,20.9,39.8,20.9,38.4z"/>
	<path style="fill:#FFB92E;" d="M91,12.7h2.4h3.4c1.3,0,2.3,1,2.3,2.3c0,1.3-1,2.3-2.3,2.3h-8.9H71.3h-8.9l-0.5-4.5h23.9"/>
	<polygon style="fill:#EF9A1D;" points="63.3,11.9 63.8,16.4 69.7,16.4 69.2,11.9 	"/>
	<rect x="82.9" y="58.5" style="fill:#DB5446;" width="14.5" height="8.7"/>
	<rect x="82.9" y="67.2" style="fill:#D64330;" width="14.5" height="4.7"/>
	<path style="fill:#3874AB;" d="M4.1,78.7h11.2v10.1h6.4V78.7H62v10.1h6.4V78.7h28.1c1.4,0,2.5,1.1,2.5,2.5v15.2
		c0,1.4-1.1,2.5-2.5,2.5H4.1c-1.4,0-2.5-1.1-2.5-2.5V81.2C1.6,79.8,2.7,78.7,4.1,78.7z"/>
	<g>
		<polyline style="fill:#7C7A75;" points="40.1,42.8 40.1,40.2 40.1,37.6 37.6,37.6 37.6,37.6 15.3,37.6 15.3,37.6 12.8,37.6 
			12.8,40.2 12.8,57.1 12.8,59.6 15.3,59.6 15.3,59.6 37.6,59.6 37.6,59.6 40.1,59.6 40.1,57.1 40.1,47.9 		"/>
		<path style="fill:#7C7A75;" d="M59.3,69.2c0-1.8,1.4-3.2,3.2-3.2h5.3c1.8,0,3.2,1.4,3.2,3.2s-1.4,3.2-3.2,3.2h-5.3
			C60.7,72.3,59.3,70.9,59.3,69.2z"/>
		<path style="fill:#7C7A75;" d="M12.7,69.2c0-1.8,1.4-3.2,3.2-3.2h5.3c1.8,0,3.2,1.4,3.2,3.2s-1.4,3.2-3.2,3.2h-5.3
			C14.1,72.3,12.7,70.9,12.7,69.2z"/>
	</g>
	<g>
		<path style="fill:#CCC3A8;" d="M53.7,66h20.1c1.8,0,3.2-1.4,3.2-3.2s-1.4-3.2-3.2-3.2h-20h-0.6h-2.2H33.1h-2.2h-0.6h-20
			c-1.8,0-3.2,1.4-3.2,3.2S8.5,66,10.2,66h20h0.6h2.2h15.3"/>
		<rect x="62" y="72.3" style="fill:#CCC3A8;" width="6.4" height="16.5"/>
		<rect x="15.3" y="72.3" style="fill:#CCC3A8;" width="6.4" height="16.5"/>
	</g>
	<path style="fill:#7C7A75;" d="M87.5,17.3v1.8v2.4v1.8c0,1.5,1.2,2.7,2.7,2.7h0.7c1.5,0,2.7-1.2,2.7-2.7v-1.8v-2.4v-1.8H87.5z"/>
	<g>
		<path style="fill:#6B6861;" d="M18.4,58.8v-2.5V39.4c0-1.4,1.1-2.5,2.5-2.5h-4.1c-1.4,0-2.5,1.1-2.5,2.5v16.9v2.5h2.5l0,0H21l0,0
			H18.4z"/>
		<path style="fill:#6B6861;" d="M65,69.4c0-1.8,1.4-3.2,3.2-3.2h-4.1c-1.8,0-3.2,1.4-3.2,3.2s1.4,3.2,3.2,3.2h4.1
			C66.4,72.6,65,71.2,65,69.4z"/>
		<path style="fill:#6B6861;" d="M18.3,69.4c0-1.8,1.4-3.2,3.2-3.2h-4.1c-1.8,0-3.2,1.4-3.2,3.2s1.4,3.2,3.2,3.2h4.1
			C19.7,72.6,18.3,71.2,18.3,69.4z"/>
	</g>
	<path style="fill:#C9B585;" d="M12.7,63.1c0-1.8,1.4-3.2,3.2-3.2h-4.1c-1.8,0-3.2,1.4-3.2,3.2s1.4,3.2,3.2,3.2h4.1
		C14.1,66.2,12.7,64.8,12.7,63.1z"/>
	<g>
		<path style="fill:#231F20;" d="M96.5,77.1H69.9v-3.7c1.6-0.8,2.6-2.4,2.6-4.3c0-0.6-0.1-1.1-0.3-1.6h1.5c2.6,0,4.8-2.1,4.8-4.8
			c0-2.6-2.1-4.8-4.8-4.8h-1.3l-0.9-5.8c-0.1-0.8-0.8-1.3-1.6-1.3h-2.3l-1.4-13.4c0-0.1,0-0.1,0-0.2l-1-9L64.9,25l0,0l-0.7-6.2h21.7
			v4.5c0,1.8,1.1,3.3,2.7,3.9v19.1c-1.4,0.6-2.4,2-2.4,3.7c0,0.7,0.2,1.4,0.5,2L83,56.9h-0.1c-0.9,0-1.6,0.7-1.6,1.6v8.7v4.7
			c0,0.9,0.7,1.6,1.6,1.6h14.5c0.9,0,1.6-0.7,1.6-1.6v-4.7v-8.7c0-0.9-0.7-1.6-1.6-1.6h-0.1l-3.6-4.8c0.3-0.6,0.5-1.3,0.5-2
			c0-1.7-1-3.1-2.4-3.7V27.5c1.9-0.4,3.3-2.1,3.3-4.1v-4.5h1.7c2.1,0,3.9-1.7,3.9-3.9s-1.7-3.9-3.9-3.9H91c-0.9,0-1.6,0.7-1.6,1.6
			c0,0.9,0.7,1.6,1.6,1.6h5.8c0.4,0,0.7,0.3,0.7,0.7s-0.3,0.7-0.7,0.7H63.9l-0.1-1.4h22.2c0.9,0,1.6-0.7,1.6-1.6s-0.7-1.6-1.6-1.6
			H63.4L63,7.9c-0.1-0.8-0.8-1.4-1.6-1.4h-3.6V1.6c0-0.9-0.7-1.6-1.6-1.6s-1.6,0.7-1.6,1.6v4.9h-3.6c-0.8,0-1.5,0.6-1.6,1.4
			l-4.6,43.1h-3.2v-3c0-0.9-0.7-1.6-1.6-1.6s-1.6,0.7-1.6,1.6v4.6v5.5h-1H15.3h-1V39.2h1c0,0,0,0,0,0h22.2c0,0,0,0,0,0h1v3.6
			c0,0.9,0.7,1.6,1.6,1.6s1.6-0.7,1.6-1.6v-5.2c0-0.9-0.7-1.6-1.6-1.6h-0.9v-5.6c0-0.9-0.7-1.6-1.6-1.6h-9.5V24
			c0-0.9-0.7-1.6-1.6-1.6S25,23.1,25,24v4.9h-9.7c-0.9,0-1.6,0.7-1.6,1.6V36h-0.9c-0.9,0-1.6,0.7-1.6,1.6v20.4h-1
			c-2.6,0-4.8,2.1-4.8,4.8c0,2.6,2.1,4.8,4.8,4.8h1.1c-0.2,0.5-0.3,1-0.3,1.6c0,1.9,1.1,3.5,2.6,4.3v3.7H4.1C1.9,77.1,0,79,0,81.2
			v15.2c0,2.3,1.9,4.1,4.1,4.1h92.3c2.3,0,4.1-1.9,4.1-4.1V81.2C100.6,79,98.7,77.1,96.5,77.1z M90.6,50.8
			C90.5,50.8,90.5,50.8,90.6,50.8c-0.1,0-0.1,0.1-0.1,0.1c0,0-0.1,0-0.1,0c0,0,0,0-0.1,0c-0.1,0-0.1,0-0.2,0c-0.1,0-0.1,0-0.2,0
			c0,0,0,0-0.1,0c0,0-0.1,0-0.1,0c0,0-0.1,0-0.1,0c0,0,0,0,0,0c0,0,0,0-0.1,0c-0.2-0.2-0.3-0.4-0.3-0.7c0-0.5,0.4-0.8,0.8-0.8
			s0.8,0.4,0.8,0.8C91,50.4,90.8,50.6,90.6,50.8C90.6,50.8,90.6,50.8,90.6,50.8z M95.8,65.6H84.5V60h11.3V65.6z M95.8,70.3H84.5
			v-1.5h11.3V70.3z M87,56.9l2.2-2.9c0,0,0.1,0,0.1,0c0,0,0,0,0.1,0c0.1,0,0.2,0,0.3,0.1c0,0,0.1,0,0.1,0c0.1,0,0.2,0,0.3,0
			c0,0,0,0,0,0c0,0,0,0,0,0c0.1,0,0.2,0,0.3,0c0,0,0.1,0,0.1,0c0.1,0,0.2,0,0.3-0.1c0,0,0,0,0.1,0c0,0,0.1,0,0.1,0l2.2,2.9L87,56.9
			L87,56.9z M91.8,23.3c0,0.6-0.5,1.1-1.1,1.1h-0.7c-0.6,0-1.1-0.5-1.1-1.1v-4.5h2.8L91.8,23.3L91.8,23.3z M16.8,32h19.2v4H16.8V32z
			 M63.6,78.7v-4.8h3.2v4.8v8.6h-3.2V78.7z M69.4,69.2c0,0.9-0.7,1.6-1.6,1.6h-5.3c-0.9,0-1.6-0.7-1.6-1.6s0.7-1.6,1.6-1.6h5.3
			C68.7,67.6,69.4,68.3,69.4,69.2z M51.8,16.1l2.2,2.1l-2.7,2.6L51.8,16.1z M53.7,30.9L49.9,34l0.6-5.7L53.7,30.9z M56.3,32.9
			l3.9,3.1h-7.7L56.3,32.9z M58.8,30.9l3.2-2.6l0.6,5.7L58.8,30.9z M56.3,28.8l-2.5-2.1h5.1L56.3,28.8z M59.5,39.2l-3.3,2.2L53,39.2
			H59.5z M63.3,40.5l0.7,6.4l-4.9-3.4L63.3,40.5z M61.2,20.9l-2.7-2.6l2.2-2.1L61.2,20.9z M59.4,23.6h-6.3l3.1-3.1L59.4,23.6z
			 M49.2,40.5l4.3,2.9l-4.9,3.4L49.2,40.5z M56.3,45.3l8.1,5.6H48.2L56.3,45.3z M60,9.6l0.3,2.5l-4,3.9l-4-3.9l0.3-2.5H60z
			 M41.7,54.1h4.6h19.9h0h2.4l0.6,3.9H41.7V54.1z M8.6,62.8c0-0.9,0.7-1.6,1.6-1.6h2.6h2.5c0,0,0,0,0,0h22.2c0,0,0,0,0,0h2.5h31l0,0
			c0,0,0,0,0,0h2.7c0.9,0,1.6,0.7,1.6,1.6c0,0.9-0.7,1.6-1.6,1.6h-6h-5.3h-8.9c-0.9,0-1.6,0.7-1.6,1.6s0.7,1.6,1.6,1.6H58
			c-0.2,0.5-0.3,1-0.3,1.6c0,1.9,1.1,3.5,2.6,4.3v3.7H23.3v-3.7c1.6-0.8,2.6-2.4,2.6-4.3c0-0.6-0.1-1.1-0.3-1.6h22.7
			c0.9,0,1.6-0.7,1.6-1.6s-0.7-1.6-1.6-1.6H21.1h-5.3h-5.6C9.4,64.4,8.6,63.7,8.6,62.8z M16.9,78.7v-4.8h3.2v4.8v8.6h-3.2V78.7z
			 M21.1,67.6c0.9,0,1.6,0.7,1.6,1.6s-0.7,1.6-1.6,1.6h-5.3c-0.9,0-1.6-0.7-1.6-1.6s0.7-1.6,1.6-1.6H21.1z M97.4,96.5
			c0,0.5-0.4,1-1,1H4.1c-0.5,0-1-0.4-1-1V81.2c0-0.5,0.4-1,1-1h9.6v7h-2.2c-0.9,0-1.6,0.7-1.6,1.6s0.7,1.6,1.6,1.6h3.7h6.4h5
			c0.9,0,1.6-0.7,1.6-1.6s-0.7-1.6-1.6-1.6h-3.5v-7h37.1v7h-4.9c-0.9,0-1.6,0.7-1.6,1.6s0.7,1.6,1.6,1.6H62h6.4h5.1
			c0.9,0,1.6-0.7,1.6-1.6s-0.7-1.6-1.6-1.6h-3.5v-7h26.5c0.5,0,1,0.4,1,1L97.4,96.5L97.4,96.5z"/>
		<path style="fill:#231F20;" d="M80.4,87.3h-2c-0.9,0-1.6,0.7-1.6,1.6s0.7,1.6,1.6,1.6h2c0.9,0,1.6-0.7,1.6-1.6
			S81.3,87.3,80.4,87.3z"/>
		<path style="fill:#231F20;" d="M33.7,41.7h-15c-0.9,0-1.6,0.7-1.6,1.6s0.7,1.6,1.6,1.6h15c0.9,0,1.6-0.7,1.6-1.6
			S34.5,41.7,33.7,41.7z"/>
		<path style="fill:#231F20;" d="M33.7,47h-15c-0.9,0-1.6,0.7-1.6,1.6s0.7,1.6,1.6,1.6h15c0.9,0,1.6-0.7,1.6-1.6S34.5,47,33.7,47z"
			/>
		<path style="fill:#231F20;" d="M33.7,52.3h-15c-0.9,0-1.6,0.7-1.6,1.6s0.7,1.6,1.6,1.6h15c0.9,0,1.6-0.7,1.6-1.6
			S34.5,52.3,33.7,52.3z"/>
	</g>
</g>
</svg>
