<svg xmlns="http://www.w3.org/2000/svg" viewBox="0 0 328.57 400"><defs><style>.cls-1{fill:#07838c;}.cls-2{fill:#ffa511;}.cls-3{fill:#ffdc13;}.cls-4{fill:#f08015;}.cls-5{fill:#e5af17;}.cls-6{fill:#098979;}</style></defs><title>quality</title><g id="Layer_2" data-name="Layer 2"><g id="Layer_1-2" data-name="Layer 1"><g id="Policies"><g id="Quality"><path class="cls-1" d="M49.51,293.48,0,357.14,57.14,350l14.29,50,50-64.29.23-.29a219,219,0,0,0-32.37-26.91A221,221,0,0,0,49.51,293.48Z"/><path class="cls-1" d="M279.06,293.48a221.4,221.4,0,0,0-39.77,15,218.5,218.5,0,0,0-32.36,26.91L257.14,400l14.29-50,57.14,7.14Z"/><path class="cls-2" d="M314.29,178.57c0-29.93,18.65-65.14,4.66-89.29-14.42-24.94-54.74-26.21-79.66-40.63C215.12,34.65,194.21,0,164.29,0s-50.84,34.66-75,48.64C64.35,63.06,24,64.35,9.62,89.26c-14,24.16,4.66,59.38,4.66,89.31s-18.65,65.14-4.66,89.29C24,292.79,64.36,294.06,89.29,308.49c24.16,14,45.07,48.66,75,48.66s50.84-34.66,75-48.64c24.94-14.43,65.24-15.71,79.66-40.63C332.94,243.71,314.29,208.5,314.29,178.57Z"/><circle class="cls-3" cx="164.29" cy="178.57" r="121.43"/><path class="cls-1" d="M235.16,150h-49l-15.13-46.55a7.14,7.14,0,0,0-13.57,0L142.36,150H93.41a7.14,7.14,0,0,0-4.2,12.92l39.6,28.78-15.13,46.56a7.14,7.14,0,0,0,11,8l39.61-28.78,39.6,28.77a7.14,7.14,0,0,0,11-8l-15.13-46.56,39.6-28.78A7.14,7.14,0,0,0,235.16,150Z"/><path class="cls-4" d="M318.95,89.29c-.31-.54-.71-1-1-1.5a343.29,343.29,0,0,1-37.21,56.5A121.36,121.36,0,0,1,79.29,265.2a344.67,344.67,0,0,1-65,6.23c-.77,0-1.52,0-2.29-.06C28,292.93,65.56,294.79,89.29,308.52c24.16,14,45.07,48.63,75,48.63s50.84-34.66,75-48.64c24.94-14.43,65.24-15.71,79.66-40.63,14-24.16-4.66-59.38-4.66-89.31S332.94,113.43,318.95,89.29Z"/><path class="cls-5" d="M206.51,212.49l8.37,25.76a7.14,7.14,0,0,1-11,8l-24-17.44A340.61,340.61,0,0,1,79.26,265.22,121.34,121.34,0,0,0,280.71,144.29,344.67,344.67,0,0,1,206.51,212.49Z"/><path class="cls-6" d="M214.89,238.25l-8.37-25.76q-12.9,8.75-26.62,16.3l24,17.44a7.14,7.14,0,0,0,11-8Z"/><path class="cls-6" d="M267.86,335.71a124.4,124.4,0,0,1,53.51,12.14l-42.31-54.39a221.4,221.4,0,0,0-39.77,15,218.5,218.5,0,0,0-32.36,26.91L216,347A124.19,124.19,0,0,1,267.86,335.71Z"/><path class="cls-6" d="M89.29,308.51a221.43,221.43,0,0,0-39.77-15l-2.21,2.86a92.64,92.64,0,0,1,38.41,75.06A93.7,93.7,0,0,1,85,382.57l36.43-46.86.23-.29A219.13,219.13,0,0,0,89.29,308.51Z"/></g></g></g></g></svg>