<?xml version="1.0" encoding="utf-8"?>
<!-- Generator: Adobe Illustrator 19.1.0, SVG Export Plug-In . SVG Version: 6.00 Build 0)  -->
<svg version="1.1" id="Layer_1" xmlns="http://www.w3.org/2000/svg" xmlns:xlink="http://www.w3.org/1999/xlink" x="0px" y="0px"
	 viewBox="0 0 171.8 175" style="enable-background:new 0 0 171.8 175;" xml:space="preserve">
<g id="ship">
	<path style="fill:#FFB424;" d="M103.8,164.3c-2.6,0-5.1-1.1-6.8-2.9c-2.8-2.8-6.6-4.4-10.6-4.4c-4,0-7.8,1.6-11.1,4.5
		c-1.7,1.7-4.3,2.8-6.9,2.8c-2.6,0-5.1-1.1-6.8-2.9c-2.9-2.8-6.9-4.4-10.9-4.4c-3.9,0-7.7,1.6-10.8,4.5c-1.8,1.8-4.3,2.8-6.9,2.8
		c-2.6,0-5.1-1.1-6.8-2.9c-3.1-2.9-6.5-4.3-10.5-4.3c-0.9,0-1.9,0.1-2.8,0.2l-2.2,0.3V106h106.1v24.8l-2.9-1.9
		c-2.7-1.7-4.1-4.6-4.1-8.1c0-1.6-1.3-2.8-2.8-2.8s-2.8,1.3-2.8,2.8c0,8.5,6.9,15.4,15.4,15.4c8.5,0,15.4-6.9,15.4-15.4
		c0-1.6-1.3-2.8-2.8-2.8c-1.6,0-2.8,1.3-2.8,2.8c0,3-1.6,6.2-4,8.1l-3,2.3V106h39.3l-26.8,57.8l-2.3-1.8c-1-0.8-2-1.6-2.9-2.5
		c-2.5-1.6-5.3-2.4-8.2-2.4c-4,0-7.9,1.6-10.8,4.4C108.9,163.3,106.4,164.3,103.8,164.3z"/>
	<rect x="27.8" y="65.7" style="fill:#DB5446;" width="99.1" height="34.7"/>
	<rect x="41.2" y="34.8" style="fill:#FFFFFF;" width="66.5" height="25.3"/>
	<rect x="58.3" y="10.5" style="fill:#FFC10D;" width="13.4" height="18.8"/>
	<g>
		<path style="fill:#ECF0F1;" d="M59.7,78.4h-9.1c-2.6,0-4.7,2.1-4.7,4.7c0,2.6,2.1,4.7,4.7,4.7h9.1c2.6,0,4.7-2.1,4.7-4.7
			C64.4,80.5,62.3,78.4,59.7,78.4z"/>
		<path style="fill:#ECF0F1;" d="M104,78.4h-9.1c-2.6,0-4.7,2.1-4.7,4.7c0,2.6,2.1,4.7,4.7,4.7h9.1c2.6,0,4.7-2.1,4.7-4.7
			C108.7,80.5,106.6,78.4,104,78.4z"/>
		<path style="fill:#3874AB;" d="M78.9,42.8h-9.1c-2.6,0-4.7,2.1-4.7,4.7c0,2.6,2.1,4.7,4.7,4.7h9.1c2.6,0,4.7-2.1,4.7-4.7
			C83.6,44.9,81.5,42.8,78.9,42.8z"/>
		<path style="fill:#231F20;" d="M68.1,170.1c-4.1,0-8.1-1.7-10.7-4.4c-1.7-1.8-4.2-2.9-6.8-2.9c-2.6,0-5.1,1-6.9,2.8
			c-3,2.8-6.6,4.4-10.6,4.4c-4,0-8-1.6-11.2-4.4c-1.9-1.7-4.4-2.7-6.8-2.7c-2.5,0-4.8,0.9-6.7,2.7c-0.6,0.6-1.3,0.9-2,0.9
			s-1.4-0.3-2-0.9c-1.1-1.1-1.2-2.8-0.1-4l0.5-0.5v-57.9c0-1.6,1.3-2.8,2.8-2.8h14.7V62.9c0-1.6,1.3-2.8,2.8-2.8h10.5V32
			c0-1.6,1.3-2.8,2.8-2.8h14.3V7.7c0-1.6,1.3-2.8,2.8-2.8h19c1.6,0,2.8,1.3,2.8,2.8v21.5h33.3c1.6,0,2.8,1.3,2.8,2.8v28.1h16.2
			c1.6,0,2.8,1.3,2.8,2.8v37.5h33.3c1.1,0,1.8,0.6,2.2,1.2c0.6,0.8,0.7,1.9,0.3,2.8l-25,55l3,2.2c3.3-2.9,7.2-4.4,11.1-4.4
			c4,0,7.7,1.6,10.4,4.5c0.6,0.6,0.9,1.3,0.9,2c0,0.7-0.4,1.4-1,2c-0.6,0.6-1.3,0.9-2,0.9c-0.7,0-1.4-0.3-2-0.9
			c-1.7-1.8-4.1-2.8-6.7-2.8c-2.6,0-5.1,1-6.9,2.8c-2.8,2.8-6.8,4.5-11,4.5c-4.1,0-8-1.6-10.7-4.4c-1.7-1.8-4.1-2.9-6.8-2.9
			c-2.6,0-5.1,1-6.9,2.8c-3,2.9-6.8,4.5-10.8,4.5c-4,0-7.9-1.6-11-4.5c-1.6-1.7-4.1-2.8-6.7-2.8c-2.6,0-5.1,1-6.9,2.8
			C75.1,169.3,70.9,170.1,68.1,170.1z M86.4,157c4,0,7.8,1.6,10.7,4.5c1.6,1.8,4.1,2.8,6.7,2.8c2.6,0,5.1-1,6.9-2.8
			c2.9-2.8,6.8-4.4,10.8-4.4c2.9,0,5.8,0.8,8.2,2.4c1,1,2.3,2,3.3,2.8l1.9,1.5l26.8-57.8h-39.2v25.1l3-2.3c2.4-1.9,4-5,4-8.1
			c0-1.6,1.3-2.8,2.8-2.8c1.6,0,2.8,1.3,2.8,2.8c0,8.5-6.9,15.4-15.4,15.4c-8.5,0-15.4-6.9-15.4-15.4c0-1.6,1.3-2.8,2.8-2.8
			s2.8,1.3,2.8,2.8c0,3.4,1.5,6.4,4.1,8.1l2.9,1.9V106H10.7v51.6l2.2-0.3c1-0.2,1.9-0.2,2.8-0.2c4,0,7.4,1.4,10.6,4.4
			c1.6,1.7,4.1,2.8,6.7,2.8c2.6,0,5.1-1,6.9-2.8c3.1-2.9,6.8-4.5,10.8-4.5c4,0,8,1.6,11,4.5c1.6,1.8,4.1,2.8,6.7,2.8
			c2.6,0,5.1-1,6.9-2.8C78.5,158.6,82.4,157,86.4,157z M27.8,100.4h99.1V65.7H27.8V100.4z M41.2,60.1h66.5V34.8H41.2V60.1z
			 M58.3,29.2h13.4V10.5H58.3V29.2z"/>
	</g>
</g>
</svg>
