<svg width="64" height="85" viewBox="0 0 64 85" fill="none" xmlns="http://www.w3.org/2000/svg">
<path fill-rule="evenodd" clip-rule="evenodd" d="M59.2864 52.978C46.9219 69.4033 15.9973 58.3496 0.128418 51.4157C0.128418 51.4157 12.3056 -14.992 43.4228 4.62216C43.431 4.62212 43.4392 4.6238 43.4467 4.62709C43.4542 4.63037 43.4609 4.63519 43.4665 4.64124C43.472 4.64728 43.4762 4.65442 43.4788 4.66219C43.4815 4.66996 43.4824 4.67819 43.4817 4.68636C42.0206 4.26685 40.5076 4.0561 38.9875 4.06038C37.3457 4.00875 35.7048 4.18886 34.1134 4.5954C32.6871 4.95139 31.2888 5.41095 29.9294 5.97043C27.5736 7.21492 25.3537 8.7014 23.3058 10.4058C22.1778 11.5377 21.211 12.8195 20.4327 14.2152C19.6369 15.5831 19.2059 17.1325 19.1807 18.7148C19.1968 20.1808 19.5175 21.6274 20.1224 22.9629C20.6752 24.1893 21.4832 25.2837 22.4926 26.1731C23.4822 27.0566 24.6904 27.6588 25.9916 27.9173C27.2987 28.1763 28.6488 28.1194 29.9294 27.7514C31.2841 27.3508 32.5398 26.671 33.6158 25.7557C34.5339 24.9355 35.2405 23.9059 35.6756 22.7542C36.1174 21.6305 36.3915 20.4479 36.4889 19.2445C36.5229 18.2094 36.3965 17.1752 36.1144 16.1788C35.8019 15.179 35.571 14.1555 35.4242 13.1184C35.4716 11.9358 35.936 10.8081 36.735 9.93498C37.6001 9.03845 38.6448 8.33469 39.8007 7.86977C41.5049 7.21552 43.3753 7.13091 45.1316 7.62859C46.888 8.12627 48.4359 9.17948 49.5435 10.6305C53.6044 17.3772 49.795 24.2523 49.046 25.4347C51.0416 24.6161 73.2988 34.4232 59.2864 52.978Z" fill="#AF0404"/>
<path fill-rule="evenodd" clip-rule="evenodd" d="M31.9894 15.4938C31.6327 14.8331 31.1494 14.2492 30.5669 13.7754C29.9844 13.3016 29.3143 12.9473 28.5948 12.7326C27.8753 12.518 27.1206 12.4472 26.3737 12.5244C25.6269 12.6016 24.9026 12.8252 24.2422 13.1825C22.8929 13.8881 21.8749 15.0956 21.4075 16.5448C20.9401 17.9939 21.0608 19.5687 21.7436 20.9297C22.4755 22.2682 23.7053 23.2645 25.1665 23.7027C26.6278 24.1408 28.2029 23.9856 29.5505 23.2706C30.8981 22.5557 31.9098 21.3385 32.3663 19.8829C32.8228 18.4272 32.6874 16.8503 31.9894 15.4938ZM28.3031 18.9287C28.0332 19.395 27.6687 19.7996 27.233 20.1165C26.7695 20.4278 26.2368 20.6207 25.6814 20.6782C25.1472 20.7539 24.6026 20.6662 24.1191 20.4268C23.5744 20.0849 23.1238 19.6122 22.8083 19.0518C22.4866 18.5311 22.3667 17.9106 22.4713 17.3076C22.5623 16.7997 22.7435 16.3123 23.0063 15.8683C23.1699 15.4934 23.4569 15.1856 23.8195 14.9963C24.3131 14.7341 24.8659 14.6032 25.4246 14.6164C25.9985 14.6161 26.5586 14.7916 27.0297 15.1193C27.4348 15.3707 27.7756 15.7133 28.0248 16.1198C28.2842 16.5605 28.4551 17.0475 28.5278 17.5537C28.6083 18.0243 28.5292 18.5083 28.3031 18.9287Z" fill="#AF0404"/>
<path d="M1.72814 71.8323C2.40819 71.2978 3.16364 70.8669 3.9699 70.5536C4.62397 70.3028 5.31397 70.1583 6.01371 70.1256C6.61261 70.1019 7.21083 70.1871 7.7793 70.377C8.29354 70.5447 8.7724 70.8059 9.19177 71.1475C9.58861 71.4697 9.91929 71.8658 10.1655 72.3138C10.4019 72.7264 10.5496 73.1838 10.5989 73.6568C10.6359 74.0784 10.5923 74.5033 10.4705 74.9087C10.3363 75.3441 10.11 75.7455 9.80706 76.0858C9.44718 76.4848 9.01746 76.8148 8.53904 77.0595C7.92958 77.3703 7.27938 77.5936 6.60759 77.723C7.12579 77.813 7.62393 77.9941 8.07892 78.258C8.44796 78.474 8.76706 78.7658 9.01521 79.114C9.24323 79.4338 9.40013 79.7986 9.47534 80.1841C9.57043 80.6837 9.54686 81.1986 9.40653 81.6874C9.26621 82.1762 9.01305 82.6253 8.66745 82.9983C8.23731 83.4623 7.72829 83.8464 7.16402 84.1326C6.56987 84.4372 5.93593 84.6569 5.28072 84.7853C4.63333 84.9186 3.97238 84.9743 3.31182 84.9512C2.82209 84.932 2.33673 84.8511 1.86725 84.7104C1.45701 84.597 1.07454 84.4003 0.743688 84.1326C0.444935 83.8802 0.221035 83.5509 0.0963043 83.1802C-0.0302297 82.7561 -0.0302297 82.3043 0.0963043 81.8801L1.84049 75.3688C1.87897 75.2316 1.90934 75.0923 1.93145 74.9515C1.93145 74.7857 1.97425 74.6198 1.98495 74.4486C1.99565 74.2774 1.98495 74.1062 1.98495 73.951C1.98359 73.8163 1.95444 73.6834 1.89935 73.5604C1.86668 73.4709 1.80017 73.3977 1.71412 73.3567C1.62808 73.3157 1.52937 73.3101 1.43922 73.3411L1.38037 73.2287C1.64703 73.0274 1.94538 72.8719 2.26317 72.7686C2.56673 72.6565 2.88666 72.595 3.21017 72.5867C3.60699 72.5703 3.99869 72.6809 4.32837 72.9024C4.60931 73.1037 4.82805 73.38 4.95971 73.6996C5.09774 74.0396 5.17035 74.4026 5.17372 74.7696C5.18 75.152 5.13502 75.5335 5.03996 75.9039L4.61729 77.4126C5.05528 77.3671 5.47758 77.2243 5.85338 76.9947C6.22917 76.7652 6.54899 76.4547 6.7895 76.0858C7.009 75.7411 7.16147 75.3581 7.23892 74.9569C7.31861 74.5536 7.34023 74.141 7.30313 73.7317C7.24747 73.2106 7.07758 72.7082 6.80555 72.2603C6.55954 71.824 6.18623 71.473 5.7355 71.2545C5.2196 71.0321 4.64679 70.9779 4.09831 71.0993C3.31086 71.2831 2.57772 71.6497 1.9582 72.1694L1.72814 71.8323ZM6.00836 81.2006C6.11799 80.7876 6.18609 80.3646 6.21167 79.938C6.24179 79.5629 6.20187 79.1856 6.09396 78.8251C6.00295 78.5277 5.81449 78.2695 5.55894 78.0921C5.23324 77.91 4.84938 77.862 4.48888 77.9584L3.21017 82.7094C3.08618 83.0518 3.053 83.4205 3.11386 83.7795C3.13373 83.8846 3.17999 83.983 3.24831 84.0653C3.31663 84.1477 3.40476 84.2113 3.50443 84.2503C3.70509 84.2944 3.91498 84.262 4.09296 84.1593C4.36105 84.0173 4.60051 83.8268 4.7992 83.5976C5.06837 83.2928 5.30008 82.9569 5.48938 82.5971C5.71694 82.1531 5.89287 81.6846 6.01371 81.2006H6.00836Z" fill="#14121A"/>
<path d="M18.3247 76.6529C18.7687 76.6054 19.2175 76.6698 19.6302 76.8402C19.8265 76.9141 20.0021 77.0345 20.1419 77.191C20.2816 77.3476 20.3814 77.5356 20.4327 77.739C20.5392 78.2749 20.4986 78.8296 20.315 79.3441C20.315 79.3923 20.2508 79.5635 20.1652 79.8792C20.0796 80.1948 19.9886 80.4944 19.8977 80.8369L19.6409 81.7892C19.5606 82.0835 19.5178 82.2493 19.5018 82.2868C19.464 82.3943 19.4496 82.5087 19.4598 82.6222C19.4699 82.7357 19.5043 82.8458 19.5606 82.9449C19.6739 83.1231 19.8525 83.2498 20.0582 83.298C20.1621 83.3286 20.2713 83.3363 20.3785 83.3206C20.4856 83.3049 20.5881 83.2662 20.6788 83.207C20.8857 83.0748 21.067 82.9063 21.2138 82.7095C21.3725 82.5033 21.5088 82.2809 21.6205 82.046C21.7151 81.8505 21.7956 81.6485 21.8612 81.4414L22.2625 81.5484C22.1259 82.0776 21.9246 82.588 21.6633 83.0679C21.4661 83.4324 21.2051 83.7586 20.8928 84.031C20.6132 84.2783 20.2826 84.4609 19.9244 84.566C19.5474 84.6654 19.1587 84.7139 18.7688 84.7105C17.5168 84.7105 16.7196 84.352 16.3772 83.6404C16.0988 83.9816 15.7503 84.259 15.3553 84.4536C14.9074 84.6581 14.419 84.7587 13.9268 84.7479C13.3723 84.7675 12.8257 84.6122 12.3645 84.3038C11.9519 84.0149 11.6189 83.6266 11.3961 83.1749C11.1653 82.6957 11.0308 82.1758 11.0002 81.6447C10.9657 81.1052 11.0162 80.5635 11.15 80.0397C11.3334 79.3242 11.6452 78.648 12.0702 78.044C12.4393 77.5235 12.9201 77.0921 13.4773 76.7813C14.0396 76.4776 14.6593 76.2953 15.2964 76.2463C16.0162 76.1883 16.7406 76.2571 17.4365 76.4496L17.8806 76.5941C18.0174 76.6411 18.1593 76.6716 18.3033 76.685L18.3247 76.6529ZM16.1846 82.5061C16.1884 82.3008 16.2135 82.0964 16.2595 81.8962C16.3344 81.5163 16.4414 81.083 16.5805 80.5907C16.7196 80.0985 16.8587 79.6277 16.9978 79.1676C17.1369 78.7074 17.2386 78.2901 17.3242 77.9263C17.4019 77.6755 17.4274 77.4115 17.3991 77.1505C17.3798 77.0874 17.3408 77.0321 17.2879 76.9927C17.235 76.9532 17.1708 76.9317 17.1048 76.9312C16.7449 76.9636 16.4025 77.1013 16.1204 77.3271C15.8225 77.5623 15.5627 77.842 15.3499 78.1564C15.1182 78.4896 14.9261 78.8487 14.7775 79.2264C14.6352 79.5641 14.5155 79.9109 14.419 80.2644C14.1932 80.9224 14.1236 81.624 14.2157 82.3135C14.2388 82.5099 14.31 82.6976 14.4229 82.86C14.5358 83.0224 14.687 83.1544 14.8631 83.2445C14.9962 83.2995 15.1399 83.3241 15.2837 83.3165C15.4276 83.3089 15.5679 83.2693 15.6945 83.2006C15.8211 83.1319 15.9308 83.0359 16.0156 82.9194C16.1003 82.803 16.1581 82.6691 16.1846 82.5275V82.5061Z" fill="#14121A"/>
<path d="M23.9746 76.38C24.38 76.5997 24.8301 76.7242 25.2907 76.7438C25.799 76.7813 26.2859 76.8081 26.7514 76.8188C27.0138 76.8401 27.2736 76.8866 27.5272 76.9579C27.7432 77.0236 27.9313 77.1591 28.0622 77.3431C28.2077 77.5772 28.282 77.8486 28.2762 78.1242C28.2605 78.5749 28.1831 79.0214 28.0461 79.4511C28.0461 79.4992 27.9873 79.6705 27.907 79.9861C27.8268 80.3018 27.7412 80.5854 27.6502 80.9224C27.5593 81.2595 27.4683 81.5752 27.3881 81.8587C27.3078 82.1423 27.265 82.3135 27.2543 82.351C27.2145 82.4551 27.1987 82.5669 27.2079 82.6781C27.2172 82.7892 27.2513 82.8968 27.3078 82.993C27.4326 83.1718 27.6192 83.298 27.8316 83.3474C28.044 83.3968 28.2672 83.3659 28.4581 83.2605C28.6773 83.1394 28.8731 82.9799 29.0359 82.7897C29.2101 82.5945 29.3626 82.381 29.4907 82.153C29.6019 81.9664 29.6899 81.767 29.7529 81.5591L29.9936 81.6126C29.8671 82.1317 29.6766 82.6331 29.4265 83.1053C29.2243 83.468 28.962 83.7936 28.6507 84.0684C28.3723 84.3144 28.0437 84.497 27.6877 84.6034C27.3087 84.7024 26.9183 84.751 26.5267 84.7479C25.5315 84.7479 24.8253 84.5232 24.3866 84.0684C23.9478 83.6136 23.8515 82.902 24.0281 81.9283C24.0673 81.7571 24.1369 81.4682 24.2367 81.0615C24.3437 80.6603 24.4615 80.2269 24.5899 79.7775L24.959 78.4773C25.0714 78.0654 25.157 77.7711 25.2051 77.5838C24.9549 77.5557 24.7066 77.5128 24.4615 77.4554C24.2326 77.4113 24.0073 77.3505 23.7873 77.2735C23.6536 78.0065 23.477 78.7984 23.2523 79.6437C23.0433 80.4607 22.7915 81.2661 22.4979 82.0567H22.1662C22.2785 81.7892 22.3909 81.4628 22.5086 81.0829C22.6263 80.7031 22.7387 80.2964 22.851 79.8577C22.9634 79.419 23.065 78.9696 23.1613 78.4987C23.2576 78.0279 23.3486 77.5624 23.4182 77.1077C23.078 76.9216 22.7602 76.6972 22.4712 76.4389C22.1549 76.1595 21.8983 75.8192 21.7168 75.4384C21.5485 75.1085 21.494 74.7324 21.5616 74.3683C21.6117 74.0509 21.7405 73.7511 21.9361 73.4962C22.1119 73.2704 22.3558 73.1072 22.6317 73.0307C22.759 72.9927 22.8941 72.9885 23.0235 73.0185C23.153 73.0485 23.2724 73.1117 23.37 73.202C23.6527 73.4961 23.8393 73.8693 23.905 74.272C24.0374 74.9778 24.0573 75.7001 23.9639 76.4121L23.9746 76.38Z" fill="#14121A"/>
<path d="M35.6221 79.2317C35.1026 79.1694 34.5987 79.0135 34.1347 78.7716L33.0647 78.2366C32.775 78.0945 32.4698 77.9868 32.1551 77.9155C31.8834 77.861 31.6018 77.8833 31.3419 77.9798C31.0323 78.1263 30.7761 78.3657 30.6089 78.6646L30.3307 78.4773C30.6568 77.8846 31.048 77.3301 31.4971 76.8241C31.8288 76.4621 32.2129 76.1519 32.6367 75.9038C32.9636 75.712 33.3291 75.595 33.7067 75.5614C34.039 75.5393 34.3725 75.5774 34.6912 75.6738C35.0483 75.7792 35.3874 75.9379 35.697 76.1446C35.9748 76.3274 36.2394 76.5294 36.4889 76.7492L37.0667 77.2842C37.1703 77.3952 37.3043 77.4733 37.4519 77.5089C37.6484 77.5432 37.8505 77.5032 38.019 77.3966C38.1689 77.3003 38.3294 77.1826 38.5006 77.0488L38.8323 77.434C38.3775 77.8406 37.9548 78.1938 37.5589 78.5041C37.163 78.8144 36.7671 79.114 36.3819 79.3762C35.9966 79.6383 35.5686 79.9112 35.1352 80.1948L33.6532 81.1418H34.0117H34.3488C34.6319 81.1547 34.9091 81.2276 35.162 81.3558C35.4295 81.4842 35.697 81.6233 36.0073 81.7785C36.3177 81.9336 36.6119 82.0781 36.9383 82.2279C37.2781 82.3793 37.6389 82.4785 38.0083 82.5221C38.2078 82.5373 38.4081 82.5373 38.6076 82.5221C38.7915 82.5195 38.9732 82.4813 39.1426 82.4098C39.3344 82.3361 39.5146 82.2352 39.6776 82.1102C39.895 81.9386 40.0956 81.747 40.2769 81.5377L40.5337 81.7785C39.8474 82.693 39.0329 83.5039 38.1154 84.1861C37.5201 84.6393 36.793 84.8854 36.0448 84.887C35.6187 84.8781 35.1965 84.8041 34.7928 84.6676C34.4108 84.5373 34.0358 84.3873 33.6693 84.2182C33.3162 84.0523 32.9844 83.8865 32.6848 83.726C32.4174 83.5827 32.1382 83.4628 31.8502 83.3675C31.6283 83.2909 31.3897 83.2761 31.16 83.3247C31.0451 83.3562 30.938 83.4116 30.8459 83.4872C30.7537 83.5628 30.6784 83.6569 30.625 83.7634C30.5322 83.8962 30.46 84.0423 30.411 84.1968C30.3581 84.3633 30.2937 84.526 30.2184 84.6837L29.8492 84.5392C30.0497 83.8823 30.3749 83.2701 30.8069 82.7362C31.2221 82.2353 31.6943 81.7846 32.214 81.3932C32.7477 80.9915 33.3071 80.6251 33.8886 80.2964C34.4397 79.9701 35.0336 79.6116 35.6221 79.2317Z" fill="#14121A"/>
<path d="M46.5153 81.5859C46.3787 82.1151 46.1774 82.6254 45.9161 83.1054C45.7174 83.4689 45.4567 83.7948 45.1456 84.0684C44.866 84.3157 44.5354 84.4984 44.1772 84.6034C43.8001 84.7028 43.4115 84.7514 43.0216 84.7479C42.0264 84.7479 41.3202 84.5232 40.8815 84.0684C40.4427 83.6136 40.3464 82.9021 40.5016 81.9283C40.5765 81.5484 40.6781 81.1258 40.8173 80.6603C40.9564 80.1948 41.0794 79.74 41.2078 79.3067C41.3362 78.8733 41.4486 78.4827 41.5342 78.1349C41.6111 77.8987 41.6349 77.6484 41.6037 77.402C41.5894 77.3563 41.5659 77.3141 41.5345 77.2779C41.5032 77.2418 41.4647 77.2125 41.4215 77.1919C41.3783 77.1714 41.3314 77.1599 41.2835 77.1583C41.2357 77.1567 41.1881 77.165 41.1436 77.1826L41.0741 77.0488C41.4308 76.7671 41.8486 76.5729 42.2939 76.4817C42.7147 76.3853 43.1519 76.3853 43.5726 76.4817C43.7853 76.5384 43.9902 76.621 44.1826 76.7278C44.3695 76.8365 44.5217 76.9961 44.6213 77.1879C44.7416 77.4291 44.8056 77.6943 44.8085 77.9637C44.8087 78.3548 44.7455 78.7433 44.6213 79.1141L44.541 79.4083C44.4982 79.5688 44.4447 79.7614 44.3752 79.9968C44.3056 80.2323 44.2361 80.473 44.1612 80.7298C44.0863 80.9867 44.0221 81.2328 43.9632 81.4575L43.7973 82.046C43.763 82.1396 43.7379 82.2364 43.7224 82.3349C43.6831 82.4397 43.6684 82.5521 43.6795 82.6634C43.6906 82.7748 43.7273 82.8821 43.7866 82.977C43.9018 83.1477 44.0747 83.2711 44.2735 83.3247C44.3851 83.3573 44.5024 83.366 44.6176 83.3504C44.7328 83.3347 44.8434 83.295 44.9423 83.2338C45.1623 83.1114 45.3595 82.9522 45.5255 82.7629C45.6979 82.5677 45.8486 82.3542 45.9749 82.1263C46.0851 81.9385 46.1748 81.7394 46.2424 81.5324L46.4992 81.5859H46.5153ZM44.2147 72.2015C44.4554 72.1985 44.6942 72.2459 44.9156 72.3406C45.1308 72.4283 45.3257 72.5594 45.488 72.7258C45.6466 72.8923 45.7735 73.0863 45.8625 73.2983C45.9552 73.5166 46.0025 73.7514 46.0017 73.9885C46.0044 74.2253 45.9583 74.4601 45.8663 74.6782C45.7742 74.8964 45.6382 75.0933 45.4666 75.2565C45.302 75.4277 45.1041 75.5634 44.8852 75.6554C44.6662 75.7474 44.4308 75.7937 44.1933 75.7915C43.9559 75.7946 43.7207 75.7472 43.5031 75.6524C43.2924 75.564 43.1 75.437 42.936 75.2779C42.7683 75.1166 42.637 74.9214 42.5507 74.7054C42.4565 74.4858 42.4091 74.2489 42.4116 74.0099C42.4081 73.7725 42.4555 73.5371 42.5507 73.3197C42.6397 73.1051 42.7707 72.9105 42.936 72.7472C43.0982 72.5832 43.2908 72.4524 43.5031 72.362C43.7256 72.2569 43.9686 72.2021 44.2147 72.2015Z" fill="#14121A"/>
<path d="M57.9809 81.6394C57.8541 82.1685 57.6599 82.6791 57.4031 83.1588C57.2024 83.524 56.9399 83.8517 56.6273 84.1272C56.3505 84.3756 56.0214 84.5585 55.6643 84.6623C55.2853 84.7613 54.8949 84.8099 54.5033 84.8067C53.5081 84.8067 52.8019 84.582 52.3631 84.1272C51.9244 83.6725 51.8281 82.9609 52.0047 81.9871C52.0421 81.7678 52.0956 81.5217 52.1705 81.2434C52.2454 80.9652 52.3203 80.7084 52.4006 80.4035C52.4809 80.0985 52.5558 79.8684 52.636 79.5795L52.85 78.8412C52.9552 78.5269 52.9552 78.187 52.85 77.8728C52.8101 77.7473 52.7406 77.6333 52.6476 77.5402C52.5545 77.4471 52.4404 77.3777 52.315 77.3377C52.0582 77.2521 51.78 77.3698 51.4215 77.6802C50.9767 78.2005 50.6695 78.8241 50.528 79.4939V79.5314L49.6452 82.7148C49.5808 82.9578 49.5432 83.2072 49.5328 83.4585C49.5346 83.7789 49.6613 84.086 49.886 84.3145L49.8271 84.6088C49.5596 84.6462 49.2921 84.673 49.0727 84.6944C48.8465 84.7104 48.6194 84.7104 48.3932 84.6944C48.0507 84.6886 47.7105 84.6364 47.382 84.5392C47.1071 84.4606 46.8626 84.3001 46.6811 84.0791C46.4972 83.8297 46.3895 83.5324 46.3708 83.223C46.343 82.7705 46.3918 82.3164 46.5153 81.8801L47.3071 78.9535C47.3508 78.8213 47.3813 78.6851 47.3981 78.5469C47.3981 78.3917 47.4409 78.2259 47.4569 78.0547C47.473 77.8835 47.4569 77.7176 47.4569 77.5571C47.4576 77.4245 47.4303 77.2932 47.3767 77.1719C47.3637 77.1253 47.341 77.082 47.31 77.0448C47.2791 77.0076 47.2406 76.9774 47.1971 76.9561C47.1536 76.9349 47.1061 76.9231 47.0578 76.9216C47.0094 76.92 46.9613 76.9288 46.9166 76.9472L46.8417 76.8027C47.1123 76.6092 47.4097 76.456 47.7244 76.3479C48.0316 76.2383 48.3561 76.1857 48.6821 76.1928C48.9663 76.1869 49.2486 76.2397 49.5114 76.3479C49.731 76.4454 49.9278 76.5875 50.0893 76.7653C50.2477 76.9409 50.3728 77.144 50.4584 77.3645C50.5516 77.5974 50.611 77.8424 50.635 78.0921C50.7935 77.749 51.0149 77.4387 51.2877 77.1772C51.5418 76.9318 51.8302 76.7246 52.1438 76.5619C52.4416 76.4058 52.7606 76.294 53.0908 76.2302C53.4082 76.1699 53.7327 76.1573 54.0538 76.1928C54.4025 76.2272 54.7409 76.3309 55.049 76.4977C55.3483 76.6577 55.6065 76.8848 55.8034 77.1612C56.0092 77.4611 56.1328 77.8098 56.1618 78.1724C56.1969 78.6305 56.1387 79.091 55.9906 79.526C55.9906 79.5742 55.9318 79.7454 55.8515 80.0289L55.5947 80.9599C55.4984 81.2916 55.4182 81.6019 55.3433 81.8908L55.2148 82.3777C55.1761 82.4857 55.1609 82.6008 55.1701 82.7152C55.1793 82.8296 55.2128 82.9407 55.2684 83.0411C55.3922 83.2195 55.5779 83.3456 55.7894 83.395C56.0009 83.4445 56.2232 83.4137 56.4133 83.3086C56.6321 83.1825 56.8276 83.0196 56.9911 82.8271C57.1635 82.6298 57.3142 82.4146 57.4406 82.1851C57.5471 81.995 57.6332 81.7941 57.6974 81.5859L57.9809 81.6394Z" fill="#14121A"/>
<path d="M64 81.5859C63.8611 82.1143 63.6599 82.6243 63.4008 83.1054C63.1986 83.468 62.9363 83.7936 62.625 84.0684C62.3474 84.3156 62.0185 84.4983 61.6619 84.6034C61.283 84.7025 60.8926 84.751 60.5009 84.7479C59.5058 84.7479 58.7995 84.5232 58.3608 84.0684C57.9221 83.6136 57.8258 82.902 57.981 81.9283C58.0559 81.5484 58.1629 81.1257 58.2966 80.6603C58.4304 80.1948 58.5641 79.74 58.6925 79.3067C58.8209 78.8733 58.928 78.4827 59.0136 78.1349C59.0914 77.8989 59.117 77.6488 59.0885 77.402C59.0735 77.3567 59.0495 77.315 59.0181 77.2793C58.9866 77.2436 58.9482 77.2146 58.9052 77.1941C58.8622 77.1737 58.8155 77.1621 58.7679 77.1601C58.7204 77.1581 58.6729 77.1657 58.6283 77.1826L58.5534 77.0488C58.9128 76.7681 59.332 76.574 59.7786 76.4817C60.1994 76.3853 60.6366 76.3853 61.0574 76.4817C61.2682 76.5388 61.4712 76.6214 61.6619 76.7278C61.8505 76.8361 62.0044 76.9957 62.106 77.1879C62.2244 77.4295 62.2866 77.6947 62.2879 77.9637C62.2876 78.3543 62.2263 78.7424 62.106 79.114C62.106 79.1515 62.0632 79.2478 62.0204 79.4083C61.9776 79.5688 61.9241 79.7614 61.8545 79.9968C61.785 80.2322 61.7208 80.473 61.6459 80.7298C61.571 80.9866 61.5014 81.2328 61.4426 81.4575L61.2767 82.046C61.2452 82.1405 61.2202 82.237 61.2018 82.3349C61.1651 82.4401 61.1518 82.5521 61.1629 82.663C61.174 82.7739 61.2092 82.8811 61.266 82.9769C61.3812 83.1477 61.554 83.2711 61.7529 83.3247C61.8623 83.3567 61.977 83.3661 62.0902 83.3523C62.2033 83.3385 62.3125 83.3018 62.411 83.2445C62.6302 83.1234 62.8259 82.9639 62.9888 82.7736C63.1613 82.5783 63.312 82.3649 63.4382 82.1369C63.5506 81.9503 63.6404 81.7509 63.7057 81.5431L63.9625 81.5966L64 81.5859ZM61.6994 72.2015C61.9401 72.199 62.1787 72.2463 62.4003 72.3406C62.614 72.4282 62.8071 72.5594 62.9674 72.7258C63.1276 72.8921 63.2563 73.0861 63.3473 73.2983C63.4382 73.5169 63.4837 73.7517 63.481 73.9885C63.4846 74.2234 63.441 74.4567 63.3528 74.6745C63.2645 74.8923 63.1334 75.0902 62.9672 75.2563C62.8011 75.4225 62.6032 75.5536 62.3854 75.6419C62.1676 75.7301 61.9344 75.7737 61.6994 75.7701C61.462 75.7737 61.2267 75.7262 61.0092 75.631C60.7969 75.5426 60.6028 75.4156 60.4367 75.2565C60.2691 75.0952 60.1378 74.9 60.0515 74.684C59.9598 74.4636 59.9125 74.2272 59.9124 73.9885C59.9138 73.7531 59.9617 73.5203 60.0536 73.3036C60.1454 73.0869 60.2793 72.8905 60.4474 72.7258C60.6116 72.5616 60.806 72.4308 61.0199 72.3406C61.2341 72.2468 61.4656 72.1994 61.6994 72.2015Z" fill="#14121A"/>
</svg>
