<svg width="100" height="32" viewBox="0 0 100 32" fill="none" xmlns="http://www.w3.org/2000/svg">
<path d="M96.3358 32H3.5646C1.59601 32 0 30.6003 0 28.8733V6.51505C0 4.83932 1.50697 3.46088 3.41628 3.39109L96.1871 0.00276127C98.2123 -0.0711681 99.9 1.34887 99.9 3.12672V28.8739C99.9004 30.6001 98.3044 32 96.3358 32Z" fill="#11BDCF"/>
<path d="M19.0002 19.2188V23.3146C19.0006 23.3487 18.9925 23.3824 18.9767 23.4127C18.9609 23.443 18.938 23.4689 18.9098 23.4883C17.6945 24.3123 15.841 24.8973 14.2951 24.8973C10.8506 24.8973 8.24683 22.4067 8.24683 19.108C8.24683 15.8257 10.915 13.3516 14.4886 13.3516C16.0962 13.3516 17.7933 13.9431 18.9564 14.8996C18.9984 14.9353 19.0246 14.9861 19.0293 15.041C19.0339 15.0959 19.0166 15.1505 18.9812 15.1927L17.6303 16.8272C17.6128 16.8481 17.5912 16.8654 17.567 16.878C17.5427 16.8905 17.5162 16.8981 17.4889 16.9003C17.4617 16.9025 17.4343 16.8992 17.4084 16.8906C17.3824 16.8821 17.3584 16.8685 17.3378 16.8506C16.5286 16.1734 15.4573 15.7607 14.4722 15.7607C12.6129 15.7607 11.1901 17.2163 11.1901 19.108C11.1901 21.0326 12.6287 22.4876 14.5044 22.4876C15.0533 22.4876 15.7447 22.3013 16.3913 21.9956C16.4269 21.9784 16.4569 21.9515 16.4779 21.918C16.4988 21.8845 16.5099 21.8457 16.5097 21.8062V19.2188C16.5097 19.1916 16.5151 19.1646 16.5256 19.1394C16.536 19.1142 16.5513 19.0913 16.5706 19.0721C16.5899 19.0528 16.6128 19.0375 16.638 19.0271C16.6631 19.0167 16.6901 19.0114 16.7174 19.0114H18.7926C18.8199 19.0114 18.8468 19.0167 18.872 19.0271C18.8972 19.0375 18.9201 19.0528 18.9394 19.0721C18.9587 19.0913 18.974 19.1142 18.9844 19.1394C18.9949 19.1646 19.0002 19.1916 19.0002 19.2188V19.2188Z" fill="#113255"/>
<path d="M26.797 21.5831H24.5326V24.7692H21.6548V13.4492H26.7162C29.707 13.4492 31.4211 14.8728 31.4211 17.3949C31.4211 19.1254 30.6939 20.3707 29.368 21.0335L31.7446 24.7692H28.4783L26.797 21.5831ZM26.717 19.3194C27.9616 19.3194 28.6896 18.6889 28.6896 17.4921C28.6896 16.3118 27.9616 15.713 26.717 15.713H24.5326V19.3194H26.717Z" fill="#113255"/>
<path d="M36.5817 22.6824L35.757 24.7692H32.7976L37.682 13.4492H40.6408L45.4104 24.7692H42.3385L41.5299 22.6828L36.5817 22.6824ZM39.0724 16.3114L37.4219 20.4996H40.6888L39.0724 16.3114Z" fill="#113255"/>
<path d="M51.9774 13.4492C55.535 13.4492 57.9927 15.7459 57.9927 19.109C57.9927 22.4563 55.5022 24.7688 51.8642 24.7688H47.1099V13.4492H51.9774ZM49.9885 22.4727H52.0419C53.8045 22.4727 55.0657 21.1143 55.0657 19.1254C55.0657 17.12 53.7401 15.7459 51.913 15.7459H49.9885V22.4727Z" fill="#113255"/>
<path d="M63.0399 15.713V17.9611H68.4414V20.2247H63.0399V22.5053H69.2016V24.7692H60.1619V13.4492H69.0229V15.713H63.0399Z" fill="#113255"/>
<path d="M79.3902 22.3597V24.7692H71.7095V13.4492H74.5873V22.3597H79.3902Z" fill="#113255"/>
<path d="M87.2504 24.7692H84.3884V21.1952L80.2002 13.4492H83.078L85.8112 18.3812L88.4793 13.4492H91.3571L87.2504 21.1143V24.7692Z" fill="#113255"/>
</svg>
