<svg width="172" height="45" viewBox="0 0 172 45" fill="none" xmlns="http://www.w3.org/2000/svg">
<g clip-path="url(#clip0)">
<path d="M171.592 38.866C171.588 40.491 170.94 42.0483 169.791 43.1973C168.642 44.3464 167.085 44.9939 165.46 44.9982H6.13217C4.50714 44.9939 2.94989 44.3464 1.80082 43.1973C0.651748 42.0483 0.00430094 40.491 0 38.866V10.9752C0.0142174 9.33645 0.659385 7.76617 1.80141 6.59077C2.94343 5.41536 4.49448 4.72523 6.13217 4.66382L165.46 -0.00183748C166.259 -0.0274247 167.055 0.108443 167.8 0.397633C168.545 0.686823 169.224 1.12339 169.797 1.6812C170.369 2.23902 170.823 2.90661 171.132 3.64402C171.44 4.38143 171.597 5.1735 171.592 5.97281V38.866Z" fill="#11BDCF"/>
<path d="M22.052 24.7181V30.4157C22.0518 30.4626 22.0404 30.5088 22.0186 30.5504C21.9969 30.592 21.9655 30.6277 21.9271 30.6547C20.0003 31.8875 17.7721 32.5676 15.4853 32.6209C10.6784 32.6372 7.06104 29.1665 7.06104 24.5605C7.06104 19.9546 10.787 16.5273 15.7514 16.5273C18.0136 16.5385 20.2075 17.303 21.9868 18.6999C22.0442 18.7503 22.0796 18.821 22.0857 18.897C22.0918 18.9731 22.068 19.0485 22.0194 19.1073L20.1347 21.3885C20.1101 21.4176 20.0801 21.4414 20.0463 21.4588C20.0125 21.4761 19.9756 21.4866 19.9378 21.4897C19.8999 21.4927 19.8618 21.4882 19.8257 21.4764C19.7896 21.4647 19.7561 21.4459 19.7273 21.4211C18.6132 20.4759 17.2118 19.936 15.7514 19.8894C15.1408 19.8849 14.5355 20.0032 13.9715 20.2374C13.4075 20.4717 12.8965 20.817 12.4687 21.2528C12.041 21.6887 11.7053 22.2061 11.4818 22.7744C11.2582 23.3426 11.1512 23.9501 11.1673 24.5605C11.1497 25.1771 11.2567 25.7909 11.482 26.3651C11.7072 26.9393 12.046 27.4621 12.4781 27.9023C12.9101 28.3425 13.4266 28.691 13.9965 28.9269C14.5664 29.1627 15.1781 29.2812 15.7949 29.2751C16.711 29.2322 17.6081 28.9991 18.4292 28.5907C18.4782 28.5657 18.5194 28.5276 18.5482 28.4806C18.5769 28.4336 18.5921 28.3796 18.5921 28.3246V24.7181C18.5921 24.6403 18.623 24.5657 18.678 24.5107C18.733 24.4557 18.8076 24.4248 18.8854 24.4248H21.7804C21.8544 24.4302 21.9235 24.4636 21.9739 24.518C22.0243 24.5724 22.0522 24.6439 22.052 24.7181Z" fill="#2A4F77"/>
<path d="M32.9314 28.0149H29.7702V32.4579H25.7563V16.6631H32.8173C36.9941 16.6631 39.384 18.651 39.384 22.1706C39.384 24.5822 38.3683 26.3203 36.5162 27.2437L39.8348 32.4579H35.3049L32.9314 28.0149ZM32.8173 24.8538C34.5554 24.8538 35.5711 23.9739 35.5711 22.3064C35.5711 20.6389 34.5554 19.8242 32.8173 19.8242H29.7702V24.8538H32.8173Z" fill="#2A4F77"/>
<path d="M46.5861 29.5466L45.4346 32.4579H41.3066L48.1177 16.6631H52.2457L58.9047 32.4579H54.6193L53.4895 29.5466H46.5861ZM50.0622 20.6389L47.7593 26.4995H52.3163L50.0622 20.6389Z" fill="#2A4F77"/>
<path d="M68.0677 16.6631C73.0321 16.6631 76.4648 19.8677 76.4648 24.5605C76.4648 29.2533 72.9886 32.4579 67.8939 32.4579H61.2783V16.6631H68.0677ZM65.2922 29.2533H68.16C70.6205 29.2533 72.3803 27.3577 72.3803 24.5822C72.3803 21.8067 70.5282 19.8677 67.9808 19.8677H65.265L65.2922 29.2533Z" fill="#2A4F77"/>
<path d="M83.5041 19.8242V22.9582H91.043V26.1193H83.5041V29.3294H92.1022V32.4851H79.4902V16.6631H91.8523V19.8242H83.5041Z" fill="#2A4F77"/>
<path d="M106.322 29.0958V32.4579H95.5947V16.6631H99.6086V29.0958H106.322Z" fill="#2A4F77"/>
<path d="M117.288 32.4579H113.296V27.4718L107.452 16.6631H111.466L115.268 23.5448L118.994 16.6631H123.007L117.288 27.3577V32.4579Z" fill="#2A4F77"/>
<path d="M128.439 30.742C128.45 30.9931 128.409 31.2438 128.319 31.4782C128.228 31.7127 128.09 31.9258 127.913 32.104C127.736 32.2822 127.523 32.4217 127.29 32.5135C127.056 32.6054 126.805 32.6476 126.554 32.6376C126.182 32.6355 125.819 32.5234 125.511 32.3154C125.203 32.1075 124.963 31.8131 124.822 31.4691C124.68 31.1252 124.644 30.7471 124.717 30.3825C124.79 30.0179 124.969 29.6831 125.232 29.4202C125.495 29.1573 125.83 28.978 126.195 28.9049C126.559 28.8318 126.937 28.8683 127.281 29.0096C127.625 29.1509 127.92 29.3907 128.127 29.699C128.335 30.0073 128.447 30.3702 128.45 30.742H128.439Z" fill="#2A4F77"/>
<path d="M142.811 32.4579L135.549 22.7355V32.4579H131.779V16.6631H135.321L142.61 26.4398V16.6631H146.357V32.4579H142.811Z" fill="#2A4F77"/>
<path d="M164.385 24.4411V30.5841C162.435 31.8735 160.16 32.5852 157.823 32.6372C153.016 32.6372 149.383 29.1665 149.383 24.5606C149.383 19.9547 153.103 16.5274 158.073 16.5274C160.449 16.5217 162.75 17.3524 164.575 18.8738L162.315 21.5895C161.149 20.5258 159.635 19.9217 158.057 19.8895C157.447 19.8849 156.841 20.0032 156.278 20.2375C155.714 20.4718 155.203 20.8172 154.776 21.2531C154.349 21.6891 154.014 22.2066 153.791 22.7748C153.568 23.343 153.461 23.9504 153.478 24.5606C153.461 25.1771 153.568 25.7909 153.793 26.3651C154.018 26.9393 154.357 27.4622 154.789 27.9024C155.221 28.3426 155.738 28.691 156.307 28.9269C156.877 29.1628 157.489 29.2812 158.106 29.2751C159.083 29.2257 160.037 28.9643 160.903 28.5093V24.4411H164.385Z" fill="#2A4F77"/>
</g>
<defs>
<clipPath id="clip0">
<rect width="171.592" height="45" fill="white"/>
</clipPath>
</defs>
</svg>
