<svg width="43" height="380" viewBox="0 0 43 380" fill="none" xmlns="http://www.w3.org/2000/svg">
<g opacity="0.1">
<path d="M32.68 354.966L32.68 362.468L19.737 370.623L21.715 373.415L32.68 373.415L32.68 380L1.978 380L1.978 373.415L16.039 373.415C15.437 372.978 14.835 372.542 14.233 372.106C13.631 371.67 13.029 371.234 12.427 370.798L1.978 362.381L1.978 355.054L15.566 365.913L32.68 354.966Z" fill="white"/>
<path d="M8.772 341.749C8.772 338.464 9.70367 335.862 11.567 333.943C13.4017 332.024 16.0247 331.064 19.436 331.064L22.532 331.064L22.532 346.416C24.338 346.358 25.757 345.82 26.789 344.802C27.821 343.755 28.337 342.316 28.337 340.484C28.337 338.973 28.1937 337.591 27.907 336.341C27.5917 335.062 27.1187 333.754 26.488 332.416L31.433 332.416C32.0063 333.608 32.422 334.844 32.68 336.123C32.9667 337.402 33.11 338.958 33.11 340.79C33.11 343.174 32.68 345.282 31.82 347.114C30.9313 348.945 29.6127 350.384 27.864 351.431C26.0867 352.478 23.8363 353.001 21.113 353.001C18.3897 353.001 16.1107 352.536 14.276 351.606C12.4413 350.646 11.0653 349.323 10.148 347.637C9.23067 345.951 8.772 343.988 8.772 341.749ZM13.33 341.706C13.33 342.985 13.7313 344.032 14.534 344.846C15.3367 345.66 16.5837 346.14 18.275 346.285L18.275 337.17C16.8703 337.199 15.695 337.591 14.749 338.347C13.803 339.074 13.33 340.194 13.33 341.706Z" fill="white"/>
<path d="M9.202 330.048L9.202 322.94L22.403 318.448C23.0623 318.215 23.7217 318.041 24.381 317.924C25.0403 317.808 25.7427 317.721 26.488 317.663L26.488 317.532C25.7427 317.444 25.0403 317.328 24.381 317.183C23.7217 317.037 23.0623 316.848 22.403 316.616L9.202 312.211L9.202 305.233L35.69 315.307C38.1267 316.238 39.947 317.561 41.151 319.276C42.3837 320.992 43 322.983 43 325.251C43 326.007 42.957 326.647 42.871 327.17C42.8137 327.693 42.742 328.159 42.656 328.566L37.582 328.566C37.6393 328.275 37.6967 327.897 37.754 327.432C37.8113 326.967 37.84 326.487 37.84 325.993C37.84 324.626 37.4243 323.55 36.593 322.765C35.7903 321.98 34.8157 321.384 33.669 320.977L32.508 320.585L9.202 330.048Z" fill="white"/>
<path d="M32.68 262.358L32.68 270.731L9.46 284.295L9.46 284.469C10.922 284.411 12.384 284.353 13.846 284.295C15.308 284.207 16.77 284.135 18.232 284.077L32.68 284.077L32.68 289.964L1.978 289.964L1.978 281.634L24.983 268.114L24.983 267.984C23.5783 268.042 22.1737 268.1 20.769 268.158C19.3643 268.216 17.9453 268.26 16.512 268.289L1.97799 268.289L1.97799 262.358L32.68 262.358Z" fill="white"/>
<path d="M20.898 233.378C24.7967 233.378 27.8067 234.425 29.928 236.518C32.0493 238.583 33.11 241.403 33.11 244.979C33.11 247.189 32.637 249.166 31.691 250.91C30.745 252.626 29.369 253.978 27.563 254.966C25.7283 255.955 23.5067 256.449 20.898 256.449C16.9993 256.449 14.0037 255.417 11.911 253.353C9.81833 251.288 8.772 248.454 8.772 244.848C8.772 242.609 9.245 240.632 10.191 238.917C11.137 237.202 12.513 235.85 14.319 234.861C16.125 233.872 18.318 233.378 20.898 233.378ZM20.898 249.82C23.22 249.82 24.983 249.442 26.187 248.686C27.3623 247.901 27.95 246.636 27.95 244.892C27.95 243.176 27.3623 241.941 26.187 241.185C24.983 240.4 23.22 240.007 20.898 240.007C18.576 240.007 16.8417 240.4 15.695 241.185C14.5197 241.941 13.932 243.191 13.932 244.935C13.932 246.651 14.5197 247.901 15.695 248.686C16.8417 249.442 18.576 249.82 20.898 249.82Z" fill="white"/>
<path d="M27.993 217.977C27.993 217.25 27.9357 216.552 27.821 215.883C27.6777 215.215 27.4913 214.546 27.262 213.877L32.035 213.877C32.3503 214.575 32.6083 215.447 32.809 216.494C33.0097 217.512 33.11 218.631 33.11 219.852C33.11 221.277 32.8807 222.556 32.422 223.69C31.9633 224.795 31.175 225.682 30.057 226.35C28.939 226.99 27.3623 227.31 25.327 227.31L14.018 227.31L14.018 230.406L11.309 230.406L9.15899 226.83L4.21399 224.955L4.21399 220.812L9.202 220.812L9.202 214.139L14.018 214.139L14.018 220.812L25.327 220.812C26.2157 220.812 26.8893 220.55 27.348 220.027C27.778 219.503 27.993 218.82 27.993 217.977Z" fill="white"/>
<path d="M8.77199 199.285C8.77199 195.999 9.70366 193.397 11.567 191.478C13.4017 189.559 16.0247 188.6 19.436 188.6L22.532 188.6L22.532 203.951C24.338 203.893 25.757 203.355 26.789 202.338C27.821 201.291 28.337 199.852 28.337 198.02C28.337 196.508 28.1937 195.127 27.907 193.877C27.5917 192.598 27.1187 191.289 26.488 189.952L31.433 189.952C32.0063 191.144 32.422 192.38 32.68 193.659C32.9667 194.938 33.11 196.494 33.11 198.325C33.11 200.71 32.68 202.817 31.82 204.649C30.9313 206.481 29.6127 207.92 27.864 208.967C26.0867 210.013 23.8363 210.537 21.113 210.537C18.3897 210.537 16.1107 210.072 14.276 209.141C12.4413 208.182 11.0653 206.859 10.148 205.173C9.23066 203.486 8.77199 201.524 8.77199 199.285ZM13.33 199.241C13.33 200.521 13.7313 201.567 14.534 202.381C15.3367 203.195 16.5837 203.675 18.275 203.821L18.275 194.706C16.8703 194.735 15.695 195.127 14.749 195.883C13.803 196.61 13.33 197.729 13.33 199.241Z" fill="white"/>
<path d="M24.166 153.117C26.8893 153.117 29.068 154.12 30.702 156.127C32.3073 158.104 33.11 160.924 33.11 164.587C33.11 167.873 32.4937 170.809 31.261 173.397L25.198 173.397C25.8287 171.914 26.4163 170.388 26.961 168.818C27.477 167.219 27.735 165.634 27.735 164.064C27.735 162.436 27.434 161.287 26.832 160.619C26.2013 159.921 25.413 159.572 24.467 159.572C23.693 159.572 23.0337 159.848 22.489 160.401C21.9443 160.924 21.4427 161.636 20.984 162.538C20.4967 163.439 19.9807 164.471 19.436 165.634C19.092 166.361 18.6907 167.146 18.232 167.989C17.7447 168.832 17.157 169.646 16.469 170.431C15.7523 171.187 14.8923 171.813 13.889 172.307C12.8857 172.801 11.6817 173.048 10.277 173.048C7.52499 173.048 5.38933 172.103 3.86999 170.213C2.32199 168.324 1.54799 165.75 1.54799 162.494C1.54799 160.866 1.73432 159.325 2.10699 157.871C2.47966 156.417 3.00999 154.876 3.69799 153.248L8.77199 155.385C8.19866 156.81 7.75433 158.089 7.43899 159.223C7.12366 160.357 6.96599 161.52 6.96599 162.712C6.96599 163.962 7.25266 164.922 7.82599 165.59C8.39933 166.259 9.14466 166.594 10.062 166.594C11.1513 166.594 12.0113 166.099 12.642 165.111C13.2727 164.122 14.0467 162.654 14.964 160.706C15.7093 159.107 16.4833 157.755 17.286 156.65C18.0887 155.516 19.0347 154.644 20.124 154.033C21.2133 153.423 22.5607 153.117 24.166 153.117Z" fill="white"/>
<path d="M8.77199 134.722C8.77199 132.048 9.80399 129.881 11.868 128.224C13.9033 126.567 16.9133 125.738 20.898 125.738C24.9113 125.738 27.95 126.596 30.014 128.311C32.078 130.027 33.11 132.222 33.11 134.897C33.11 136.612 32.809 137.979 32.207 138.996C31.5763 140.014 30.874 140.843 30.1 141.482L30.1 141.831C31.304 141.599 32.4507 141.482 33.54 141.482L43 141.482L43 147.981L9.202 147.981L9.202 142.704L12.255 141.788L12.255 141.482C11.309 140.843 10.492 139.985 9.80399 138.909C9.11599 137.833 8.77199 136.438 8.77199 134.722ZM13.889 136.816C13.889 138.502 14.4193 139.694 15.48 140.392C16.512 141.09 18.0743 141.453 20.167 141.482L20.855 141.482C23.1197 141.482 24.8683 141.148 26.101 140.479C27.305 139.781 27.907 138.531 27.907 136.729C27.907 135.246 27.305 134.156 26.101 133.458C24.8683 132.731 23.1053 132.367 20.812 132.367C16.1967 132.367 13.889 133.85 13.889 136.816Z" fill="white"/>
<path d="M8.77199 110.569C8.77199 107.284 9.70366 104.682 11.567 102.763C13.4017 100.844 16.0247 99.8843 19.436 99.8843L22.532 99.8843L22.532 115.236C24.338 115.178 25.757 114.64 26.789 113.622C27.821 112.576 28.337 111.136 28.337 109.305C28.337 107.793 28.1937 106.412 27.907 105.161C27.5917 103.882 27.1187 102.574 26.488 101.236L31.433 101.236C32.0063 102.428 32.422 103.664 32.68 104.943C32.9667 106.223 33.11 107.778 33.11 109.61C33.11 111.994 32.68 114.102 31.82 115.934C30.9313 117.765 29.6127 119.205 27.864 120.251C26.0867 121.298 23.8363 121.821 21.113 121.821C18.3897 121.821 16.1107 121.356 14.276 120.426C12.4413 119.466 11.0653 118.143 10.148 116.457C9.23066 114.771 8.77199 112.808 8.77199 110.569ZM13.33 110.526C13.33 111.805 13.7313 112.852 14.534 113.666C15.3367 114.48 16.5837 114.96 18.275 115.105L18.275 105.99C16.8703 106.019 15.695 106.412 14.749 107.168C13.803 107.894 13.33 109.014 13.33 110.526Z" fill="white"/>
<path d="M8.72899 84.8459C8.72899 81.6476 9.41699 79.2054 10.793 77.519C12.1403 75.8036 14.2187 74.9459 17.028 74.9459L32.68 74.9459L32.68 79.4815L29.498 80.7463L29.498 80.9208C30.7593 81.9384 31.6767 83.0142 32.25 84.1481C32.8233 85.282 33.11 86.8375 33.11 88.8146C33.11 90.9371 32.508 92.6961 31.304 94.0917C30.1 95.4873 28.2223 96.1851 25.671 96.1851C23.177 96.1851 21.3423 95.2983 20.167 93.5247C18.9917 91.7512 18.3323 89.0908 18.189 85.5437L18.06 81.4005L17.028 81.4005C15.7953 81.4005 14.8923 81.7349 14.319 82.4036C13.7457 83.0432 13.459 83.9445 13.459 85.1075C13.459 86.2705 13.631 87.4045 13.975 88.5093C14.2903 89.6142 14.6917 90.719 15.179 91.8239L10.836 93.9609C10.2053 92.7106 9.70366 91.3005 9.33099 89.7305C8.92966 88.1604 8.72899 86.5322 8.72899 84.8459ZM21.801 81.4005L21.887 83.93C21.9443 86.0234 22.317 87.4772 23.005 88.2913C23.693 89.1054 24.596 89.5124 25.714 89.5124C26.6887 89.5124 27.391 89.2216 27.821 88.6402C28.2223 88.0587 28.423 87.3027 28.423 86.3723C28.423 84.9767 28.0217 83.7992 27.219 82.8397C26.3877 81.8802 25.2267 81.4005 23.736 81.4005L21.801 81.4005Z" fill="white"/>
<path d="M-1.39091e-05 61.7961L14.62 61.7961C15.5087 61.7961 16.3973 61.8397 17.286 61.9269C18.146 61.985 19.0203 62.0577 19.909 62.145L19.909 62.0577C19.307 61.6216 18.705 61.1709 18.103 60.7057C17.501 60.2405 16.9133 59.7463 16.34 59.2229L9.20199 52.5502L9.20199 45.2233L19.393 54.6872L32.68 44.6564L32.68 52.1577L23.177 59.0048L25.37 61.796L32.68 61.796L32.68 68.2943L-1.36251e-05 68.2943L-1.39091e-05 61.7961Z" fill="white"/>
<path d="M8.77199 31.4367C8.77199 28.1512 9.70365 25.549 11.567 23.6301C13.4017 21.7112 16.0247 20.7517 19.436 20.7517L22.532 20.7517L22.532 36.1032C24.338 36.0451 25.757 35.5072 26.789 34.4896C27.821 33.4429 28.337 32.0037 28.337 30.1719C28.337 28.66 28.1937 27.279 27.907 26.0288C27.5917 24.7495 27.1187 23.4411 26.488 22.1036L31.433 22.1036C32.0063 23.2957 32.422 24.5314 32.68 25.8107C32.9667 27.09 33.11 28.6455 33.11 30.4772C33.11 32.8614 32.68 34.9693 31.82 36.801C30.9313 38.6328 29.6127 40.0719 27.864 41.1187C26.0867 42.1653 23.8363 42.6887 21.113 42.6887C18.3897 42.6887 16.1107 42.2235 14.276 41.2931C12.4413 40.3336 11.0653 39.0107 10.148 37.3244C9.23065 35.638 8.77199 33.6754 8.77199 31.4367ZM13.33 31.3931C13.33 32.6724 13.7313 33.7191 14.534 34.5332C15.3367 35.3473 16.5837 35.827 18.275 35.9724L18.275 26.8574C16.8703 26.8865 15.695 27.279 14.749 28.0349C13.803 28.7618 13.33 29.8812 13.33 31.3931Z" fill="white"/>
<path d="M8.77198 2.1806C8.77198 1.86078 8.78632 1.48279 8.81499 1.04666C8.84365 0.610565 8.88665 0.261657 8.94399 -3.09085e-05L14.964 0.479736C14.9067 0.71231 14.8637 1.01761 14.835 1.39557C14.7777 1.77356 14.749 2.10791 14.749 2.39865C14.749 3.50351 14.9497 4.56476 15.351 5.58237C15.7237 6.60001 16.34 7.42862 17.2 8.06827C18.06 8.67883 19.2353 8.98416 20.726 8.98416L32.68 8.98416L32.68 15.4824L9.20199 15.4824L9.20199 10.5542L13.158 9.5947L13.158 9.28943C11.954 8.59164 10.922 7.63217 10.062 6.41101C9.20199 5.18988 8.77198 3.77972 8.77198 2.1806Z" fill="white"/>
</g>
</svg>
