<svg width="824" height="510" viewBox="0 0 824 510" fill="none" xmlns="http://www.w3.org/2000/svg">
<path d="M5 336C5 336 5 439.001 5 505" stroke="url(#paint0_linear)" stroke-width="10" stroke-linecap="round" stroke-linejoin="round"/>
<path d="M30 115.718C30 97.3277 44.2325 82.0741 62.5787 80.8019L752.579 32.9537C772.813 31.5505 790 47.5867 790 67.8699V465C790 484.33 774.33 500 755 500H65C45.67 500 30 484.33 30 465V115.718Z" stroke="url(#paint1_linear)" stroke-width="10"/>
<path d="M682.5 5H778.5C800.591 5 818.5 22.9086 818.5 45V179" stroke="url(#paint2_linear)" stroke-width="10" stroke-linecap="round" stroke-linejoin="round"/>
<defs>
<linearGradient id="paint0_linear" x1="5.5" y1="336" x2="5.5" y2="505" gradientUnits="userSpaceOnUse">
<stop stop-color="#FAA017"/>
<stop offset="1" stop-color="#F6515B"/>
</linearGradient>
<linearGradient id="paint1_linear" x1="410" y1="25" x2="410" y2="505" gradientUnits="userSpaceOnUse">
<stop stop-color="#FAA017"/>
<stop offset="1" stop-color="#F6515B"/>
</linearGradient>
<linearGradient id="paint2_linear" x1="692" y1="5" x2="818" y2="136" gradientUnits="userSpaceOnUse">
<stop stop-color="#FAA017"/>
<stop offset="0.932602" stop-color="#F6515B"/>
</linearGradient>
</defs>
</svg>
