<svg width="741" height="576" viewBox="0 0 741 576" fill="none" xmlns="http://www.w3.org/2000/svg">
<g opacity="0.4">
<path d="M521.952 260.724L565.711 216.965C557.932 221.41 550.736 226.717 544.207 232.746L537.733 239.219C531.704 245.721 526.397 252.945 521.952 260.724Z" fill="#FAA017"/>
<path d="M508.892 295.508L600.495 203.905C597.967 204.405 595.466 205.017 592.994 205.683L510.67 288.006C509.975 290.479 509.392 292.979 508.892 295.508Z" fill="#FAA017"/>
<path d="M506.559 318.791C506.559 319.041 506.559 319.291 506.559 319.541L624.502 201.6C624.252 201.6 624.002 201.6 623.752 201.6C622.057 201.6 620.362 201.655 618.667 201.711L506.67 313.706C506.615 315.401 506.559 317.068 506.559 318.791Z" fill="#FAA017"/>
<path d="M508.394 339.436L644.452 203.379C642.812 203.102 641.145 202.824 639.506 202.602L507.644 334.462C507.838 336.157 508.088 337.796 508.394 339.436Z" fill="#FAA017"/>
<path d="M512.838 356.715L661.705 207.85C660.26 207.35 658.815 206.905 657.371 206.461L511.477 352.353C511.894 353.825 512.338 355.27 512.838 356.715Z" fill="#FAA017"/>
<path d="M519.311 371.969L676.985 214.297C675.707 213.658 674.429 213.019 673.123 212.436L517.422 368.107C518.033 369.413 518.644 370.691 519.311 371.969Z" fill="#FAA017"/>
<path d="M527.424 385.553L690.543 222.436C689.404 221.658 688.265 220.88 687.126 220.13L525.146 382.108C525.896 383.275 526.646 384.414 527.424 385.553Z" fill="#FAA017"/>
<path d="M537.065 397.64L702.63 232.077C701.629 231.16 700.601 230.271 699.573 229.41L534.37 394.611C535.259 395.639 536.148 396.64 537.065 397.64Z" fill="#FAA017"/>
<path d="M548.123 408.308L713.299 243.134C712.437 242.106 711.548 241.078 710.631 240.078L545.067 405.641C546.067 406.557 547.095 407.446 548.123 408.308Z" fill="#FAA017"/>
<path d="M560.626 417.532L722.551 255.61C721.801 254.443 721.05 253.304 720.245 252.192L557.181 415.254C558.32 416.032 559.459 416.81 560.626 417.532Z" fill="#FAA017"/>
<path d="M574.657 425.232L730.22 269.671C729.608 268.366 728.997 267.088 728.358 265.81L570.795 423.37C572.073 424.009 573.351 424.621 574.657 425.232Z" fill="#FAA017"/>
<path d="M590.438 431.175L736.193 285.451C735.748 283.978 735.304 282.533 734.832 281.116L586.104 429.842C587.521 430.286 588.966 430.731 590.438 431.175Z" fill="#FAA017"/>
<path d="M608.332 434.981L739.972 303.342C739.75 301.675 739.5 300.036 739.222 298.369L603.386 434.203C605.025 434.509 606.665 434.759 608.332 434.981Z" fill="#FAA017"/>
<path d="M623.78 436.007C625.586 436.007 627.391 435.952 629.17 435.868L740.861 324.178C740.944 322.4 741 320.594 741 318.788C741 318.649 741 318.483 741 318.344L623.363 435.979C623.474 435.979 623.641 436.007 623.78 436.007Z" fill="#FAA017"/>
<path d="M654.981 431.786L736.777 349.991C737.471 347.519 738.082 344.99 738.582 342.462L647.423 433.62C649.979 433.092 652.508 432.481 654.981 431.786Z" fill="#FAA017"/>
<path d="M725.191 377.578L682.57 420.198C700.213 409.946 714.939 395.221 725.191 377.578Z" fill="#FAA017"/>
<path d="M10.5352 455.946L40.5129 425.969C35.1908 429.01 30.2488 432.648 25.7775 436.776L21.3424 441.211C17.215 445.7 13.5764 450.624 10.5352 455.946Z" fill="#004680"/>
<path d="M1.59326 479.77L64.3366 417.027C62.5987 417.371 60.8971 417.788 59.1955 418.24L2.80613 474.629C2.33546 476.33 1.93721 478.05 1.59326 479.77Z" fill="#004680"/>
<path d="M0 495.718C0 495.881 0 496.062 0 496.225L80.7734 415.452C80.6105 415.452 80.4295 415.452 80.2665 415.452C79.108 415.452 77.9313 415.488 76.7908 415.525L0.0723979 492.242C0.0361929 493.401 0 494.559 0 495.718Z" fill="#004680"/>
<path d="M1.25006 509.874L94.4237 416.702C93.3013 416.503 92.1608 416.322 91.0385 416.177L0.725098 506.489C0.869918 507.611 1.05093 508.752 1.25006 509.874Z" fill="#004680"/>
<path d="M4.29095 521.693L106.244 419.741C105.267 419.397 104.271 419.089 103.275 418.8L3.34961 518.724C3.63925 519.72 3.9651 520.716 4.29095 521.693Z" fill="#004680"/>
<path d="M8.72572 532.138L116.707 424.158C115.838 423.706 114.951 423.289 114.064 422.873L7.44043 529.495C7.85679 530.401 8.27316 531.27 8.72572 532.138Z" fill="#004680"/>
<path d="M14.3005 541.442L126.011 429.733C125.233 429.19 124.454 428.665 123.658 428.158L12.7256 539.089C13.2325 539.904 13.7574 540.682 14.3005 541.442Z" fill="#004680"/>
<path d="M20.8904 549.735L134.284 436.342C133.597 435.727 132.909 435.111 132.203 434.514L19.062 547.653C19.6594 548.359 20.2568 549.047 20.8904 549.735Z" fill="#004680"/>
<path d="M28.4573 557.028L141.58 443.907C140.983 443.201 140.367 442.495 139.752 441.807L26.3574 555.199C27.0634 555.833 27.7513 556.43 28.4573 557.028Z" fill="#004680"/>
<path d="M37.0198 563.367L147.916 452.472C147.409 451.676 146.884 450.898 146.341 450.119L34.6665 561.792C35.4449 562.317 36.2233 562.842 37.0198 563.367Z" fill="#004680"/>
<path d="M46.6328 568.614L153.166 462.082C152.75 461.195 152.333 460.308 151.881 459.439L43.9717 567.347C44.8587 567.782 45.7457 568.216 46.6328 568.614Z" fill="#004680"/>
<path d="M57.439 572.688L157.256 472.872C156.967 471.876 156.641 470.881 156.315 469.903L54.4702 571.747C55.4296 572.091 56.4253 572.398 57.439 572.688Z" fill="#004680"/>
<path d="M69.6953 575.296L159.846 485.146C159.701 484.006 159.52 482.866 159.321 481.743L66.292 574.771C67.4325 574.988 68.5548 575.151 69.6953 575.296Z" fill="#004680"/>
<path d="M80.2668 576.001C81.5158 576.001 82.7468 575.965 83.9597 575.911L160.443 499.428C160.497 498.197 160.533 496.967 160.533 495.736C160.533 495.627 160.533 495.536 160.533 495.428L79.959 576.001C80.0676 576.001 80.1762 576.001 80.2668 576.001Z" fill="#004680"/>
<path d="M101.646 573.121L157.673 517.095C158.144 515.393 158.56 513.673 158.922 511.936L96.4863 574.37C98.2242 574.008 99.9439 573.574 101.646 573.121Z" fill="#004680"/>
<path d="M149.727 535.994L120.527 565.193C132.62 558.151 142.703 548.068 149.727 535.994Z" fill="#004680"/>
<path d="M317.446 40.2598L347.25 10.4561C341.959 13.4796 337.046 17.0971 332.6 21.2005L328.191 25.6099C324.087 30.0553 320.47 34.9686 317.446 40.2598Z" fill="#F6515B"/>
<path d="M308.556 63.9456L370.936 1.56641C369.208 1.90836 367.516 2.3223 365.824 2.77224L309.761 58.8343C309.312 60.526 308.898 62.2178 308.556 63.9456Z" fill="#F6515B"/>
<path d="M306.972 79.8007C306.972 79.9627 306.972 80.1426 306.972 80.3046L387.296 0C387.134 0 386.954 0 386.792 0C385.622 0 384.47 0.0359948 383.336 0.0719897L307.062 76.3452C307.008 77.497 306.972 78.6488 306.972 79.8007Z" fill="#F6515B"/>
<path d="M308.215 93.8755L400.849 1.24263C399.733 1.04466 398.599 0.864683 397.483 0.720703L307.693 90.51C307.837 91.6258 308.017 92.7596 308.215 93.8755Z" fill="#F6515B"/>
<path d="M311.238 105.626L412.601 4.26399C411.629 3.92204 410.639 3.61608 409.649 3.32812L310.302 102.674C310.608 103.664 310.914 104.654 311.238 105.626Z" fill="#F6515B"/>
<path d="M315.647 116.011L423.003 8.65575C422.139 8.22381 421.257 7.79187 420.375 7.37793L314.369 113.383C314.783 114.265 315.197 115.147 315.647 116.011Z" fill="#F6515B"/>
<path d="M321.19 125.262L432.253 14.1996C431.48 13.6596 430.706 13.1377 429.914 12.6338L319.624 122.922C320.128 123.714 320.65 124.488 321.19 125.262Z" fill="#F6515B"/>
<path d="M327.741 133.505L440.478 20.7689C439.794 20.157 439.11 19.5451 438.408 18.9512L325.923 131.435C326.517 132.119 327.129 132.821 327.741 133.505Z" fill="#F6515B"/>
<path d="M335.282 140.756L447.75 28.2899C447.156 27.588 446.544 26.8861 445.932 26.2021L333.194 138.938C333.878 139.55 334.562 140.162 335.282 140.756Z" fill="#F6515B"/>
<path d="M343.778 147.038L454.031 36.786C453.527 35.9941 453.006 35.2202 452.466 34.4463L341.438 145.491C342.212 146.012 342.986 146.534 343.778 147.038Z" fill="#F6515B"/>
<path d="M353.335 152.276L459.251 46.361C458.837 45.4792 458.423 44.5973 457.973 43.7334L350.689 151.016C351.571 151.448 352.453 151.862 353.335 152.276Z" fill="#F6515B"/>
<path d="M364.079 156.325L463.318 57.0873C463.03 56.0975 462.706 55.1076 462.382 54.1357L361.127 155.389C362.099 155.731 363.089 156.037 364.079 156.325Z" fill="#F6515B"/>
<path d="M376.281 158.917L465.909 69.2898C465.765 68.1559 465.585 67.0221 465.387 65.9062L372.897 158.395C374.013 158.593 375.147 158.773 376.281 158.917Z" fill="#F6515B"/>
<path d="M386.792 159.619C388.034 159.619 389.257 159.583 390.463 159.529L466.503 83.4901C466.557 82.2663 466.594 81.0425 466.594 79.8187C466.594 79.7107 466.594 79.6207 466.594 79.5127L386.486 159.619C386.576 159.601 386.684 159.619 386.792 159.619Z" fill="#F6515B"/>
<path d="M408.029 156.74L463.732 101.037C464.2 99.3457 464.613 97.636 464.973 95.9082L402.899 157.981C404.627 157.621 406.337 157.208 408.029 156.74Z" fill="#F6515B"/>
<path d="M455.831 119.827L426.801 148.857C438.823 141.874 448.848 131.849 455.831 119.827Z" fill="#F6515B"/>
</g>
</svg>
