<svg width="440" height="380" viewBox="0 0 440 380" fill="none" xmlns="http://www.w3.org/2000/svg">
<g filter="url(#filter0_d)">
<rect x="99" y="282" width="72" height="72" rx="10" fill="#004680"/>
</g>
<g clip-path="url(#clip0)">
<path d="M159 325.115V340.52C159 341.247 158.222 341.745 157.504 341.478C154.051 340.193 150.526 339.551 147 339.551C143.252 339.551 139.505 340.277 135.846 341.729C135.577 341.836 135.29 341.894 135 341.894C134.71 341.894 134.423 341.836 134.153 341.729C127.054 338.912 119.617 338.828 112.496 341.478C111.778 341.745 111 341.247 111 340.52V325.115C111 324.591 111.329 324.114 111.842 323.91C115.503 322.457 119.25 321.732 122.999 321.732C127.036 321.732 131.074 322.574 135 324.258C142.573 321.009 150.557 320.894 158.158 323.91C158.671 324.114 159 324.591 159 325.115V325.115Z" fill="url(#paint0_linear)"/>
<path d="M157.504 339.368C154.051 338.083 150.526 337.441 147 337.441C143.252 337.441 139.505 338.167 135.846 339.619C135.577 339.726 135.29 339.784 135 339.784C134.71 339.784 134.423 339.726 134.153 339.619C127.054 336.802 119.617 336.718 112.496 339.368C111.778 339.636 111 339.138 111 338.41V340.52C111 341.248 111.778 341.745 112.496 341.478C119.617 338.828 127.054 338.912 134.153 341.729C134.423 341.836 134.71 341.894 135 341.894C135.29 341.894 135.577 341.836 135.846 341.729C139.505 340.277 143.252 339.551 147 339.551C150.526 339.551 154.051 340.193 157.504 341.478C158.222 341.745 159 341.248 159 340.52V338.41C159 339.138 158.222 339.636 157.504 339.368Z" fill="#F6515B"/>
<path d="M157.623 324.565V337.321C157.623 338.048 156.89 338.546 156.213 338.279C152.958 336.994 149.636 336.352 146.312 336.352C143.107 336.352 139.902 336.949 136.759 338.145C136.197 338.359 135.602 338.475 135 338.475C134.398 338.475 133.802 338.358 133.239 338.144C126.839 335.71 120.179 335.756 113.788 338.278C113.111 338.546 112.377 338.048 112.377 337.321V324.565C112.377 324.041 112.688 323.564 113.171 323.36C116.621 321.907 120.155 321.182 123.688 321.182C127.494 321.182 131.299 322.024 135 323.708C142.139 320.459 149.664 320.344 156.829 323.36C157.312 323.564 157.623 324.041 157.623 324.565V324.565Z" fill="#FFDCDE"/>
<path d="M157.623 324.565V337.321C157.623 338.048 156.89 338.546 156.213 338.279C152.958 336.994 149.636 336.352 146.312 336.352C143.107 336.352 139.902 336.949 136.759 338.145C136.197 338.359 135.602 338.475 135 338.475C134.398 338.475 133.802 338.358 133.239 338.144C126.839 335.71 120.179 335.756 113.788 338.278C113.111 338.546 112.377 338.048 112.377 337.321V324.565C112.377 324.041 112.688 323.564 113.171 323.36C116.621 321.907 120.155 321.182 123.688 321.182C127.494 321.182 131.299 322.024 135 323.708C142.139 320.459 149.664 320.344 156.829 323.36C157.312 323.564 157.623 324.041 157.623 324.565V324.565Z" fill="#FFDCDE"/>
<path d="M157.623 323.707V336.462C157.623 337.19 156.89 337.688 156.213 337.42C152.958 336.135 149.636 335.494 146.312 335.494C143.107 335.494 139.902 336.091 136.759 337.286C136.197 337.5 135.602 337.616 135 337.616C134.398 337.616 133.802 337.5 133.239 337.286C126.839 334.852 120.179 334.897 113.788 337.42C113.111 337.688 112.377 337.19 112.377 336.462V323.706C112.377 323.182 112.688 322.706 113.171 322.502C116.621 321.049 120.155 320.323 123.688 320.323C127.494 320.323 131.299 321.165 135 322.85C142.139 319.601 149.664 319.485 156.829 322.502C157.312 322.706 157.623 323.183 157.623 323.707V323.707Z" fill="#FFDCDE"/>
<path d="M112.377 323.045V335.801C112.377 336.529 113.11 337.027 113.787 336.759C117.042 335.474 120.364 334.832 123.688 334.832C126.893 334.832 130.098 335.429 133.241 336.625C133.803 336.839 134.398 336.955 135 336.955C135.602 336.955 136.198 336.839 136.761 336.624C143.161 334.191 149.821 334.236 156.212 336.759C156.889 337.026 157.622 336.529 157.622 335.801V323.045C157.622 322.521 157.312 322.045 156.829 321.841C153.378 320.388 149.844 319.662 146.312 319.662C142.506 319.662 138.701 320.504 135 322.189C127.861 318.94 120.335 318.824 113.171 321.841C112.687 322.045 112.377 322.521 112.377 323.045V323.045Z" fill="#FFDCDE"/>
<path d="M113.171 320.757C112.688 320.961 112.377 321.438 112.377 321.962V334.717C112.377 335.445 113.111 335.943 113.788 335.675C120.768 332.919 128.068 333.119 135 336.275C135 326.009 135 331.371 135 321.105C127.863 317.856 120.337 317.74 113.171 320.757V320.757Z" fill="url(#paint1_linear)"/>
<path d="M156.829 320.758C149.664 317.741 142.138 317.857 135 321.106V336.276C141.933 333.12 149.233 332.92 156.212 335.676C156.889 335.944 157.623 335.446 157.623 334.718C157.623 325.257 157.623 331.424 157.623 321.963C157.623 321.439 157.312 320.962 156.829 320.758V320.758Z" fill="url(#paint2_linear)"/>
<path d="M114.598 322.795C114.147 322.985 113.856 323.43 113.856 323.92V334.819C113.856 335.5 114.542 335.965 115.175 335.715C121.698 333.139 128.521 333.326 135 336.275C135 326.68 135 332.714 135 323.119C128.329 320.083 121.295 319.974 114.598 322.795V322.795Z" fill="#F5F5F5"/>
<path d="M115.779 323.197C117.772 322.49 119.787 322.051 121.81 321.878C121.998 321.862 122.159 322.012 122.159 322.201V322.97C122.159 323.138 122.03 323.277 121.862 323.292C119.895 323.465 117.936 323.908 115.997 324.619C115.787 324.696 115.564 324.54 115.564 324.316V323.502C115.564 323.365 115.65 323.242 115.779 323.197V323.197Z" fill="#BEC3D2"/>
<path d="M127.165 322.329V323.101C127.165 323.296 126.992 323.448 126.799 323.421C125.653 323.26 124.506 323.19 123.362 323.212C123.18 323.215 123.03 323.07 123.03 322.889V322.124C123.03 321.948 123.171 321.803 123.346 321.8C124.525 321.778 125.706 321.848 126.886 322.008C127.046 322.03 127.165 322.168 127.165 322.329V322.329Z" fill="#BEC3D2"/>
<path d="M131.141 323.224V324.027C131.141 324.246 130.928 324.403 130.719 324.335C129.916 324.072 129.104 323.855 128.293 323.684C128.143 323.652 128.035 323.521 128.035 323.368V322.586C128.035 322.382 128.221 322.228 128.42 322.268C129.255 322.438 130.089 322.654 130.916 322.915C131.05 322.957 131.141 323.083 131.141 323.224V323.224Z" fill="#BEC3D2"/>
<path d="M115.779 326.171C116.317 325.981 116.857 325.81 117.399 325.658C117.606 325.6 117.811 325.754 117.811 325.969V326.765C117.811 326.909 117.716 327.035 117.577 327.075C117.048 327.228 116.521 327.4 115.997 327.593C115.787 327.67 115.564 327.513 115.564 327.289V326.477C115.564 326.34 115.65 326.217 115.779 326.171V326.171Z" fill="#BEC3D2"/>
<path d="M125.012 325.112V325.877C125.012 326.06 124.86 326.208 124.677 326.2C124.255 326.182 123.833 326.177 123.411 326.184C121.964 326.208 120.515 326.378 119.075 326.693C118.874 326.737 118.683 326.581 118.683 326.374V325.595C118.683 325.443 118.79 325.31 118.939 325.278C120.415 324.966 121.901 324.797 123.387 324.772C123.826 324.764 124.265 324.77 124.703 324.788C124.876 324.795 125.012 324.939 125.012 325.112V325.112Z" fill="#BEC3D2"/>
<path d="M131.142 326.197V327C131.142 327.219 130.928 327.375 130.72 327.308C129.218 326.817 127.697 326.486 126.172 326.316C126.008 326.297 125.883 326.16 125.883 325.995V325.225C125.883 325.034 126.049 324.883 126.239 324.903C127.807 325.072 129.371 325.401 130.916 325.888C131.051 325.931 131.142 326.056 131.142 326.197V326.197Z" fill="#BEC3D2"/>
<path d="M115.779 329.142C117.765 328.439 119.785 327.998 121.81 327.825C121.998 327.809 122.159 327.959 122.159 328.148V328.916C122.159 329.084 122.03 329.223 121.862 329.238C119.893 329.411 117.929 329.855 115.997 330.564C115.787 330.641 115.564 330.484 115.564 330.26V329.448C115.564 329.311 115.65 329.188 115.779 329.142V329.142Z" fill="#BEC3D2"/>
<path d="M131.141 329.169V329.972C131.141 330.191 130.928 330.348 130.72 330.28C128.311 329.494 125.856 329.117 123.411 329.157C123.394 329.157 123.377 329.158 123.361 329.158C123.179 329.161 123.03 329.016 123.03 328.835V328.069C123.03 327.893 123.171 327.749 123.347 327.746C123.36 327.746 123.374 327.746 123.387 327.745C125.908 327.703 128.436 328.078 130.916 328.86C131.05 328.902 131.141 329.028 131.141 329.169V329.169Z" fill="#BEC3D2"/>
<path d="M115.779 332.116C116.317 331.926 116.857 331.755 117.399 331.603C117.606 331.545 117.811 331.699 117.811 331.914V332.71C117.811 332.855 117.716 332.98 117.577 333.02C117.049 333.174 116.521 333.346 115.997 333.539C115.787 333.616 115.564 333.459 115.564 333.235V332.422C115.564 332.285 115.65 332.162 115.779 332.116V332.116Z" fill="#BEC3D2"/>
<path d="M127.165 331.248V332.019C127.165 332.217 126.99 332.366 126.794 332.339C125.668 332.181 124.539 332.111 123.411 332.13C121.964 332.154 120.515 332.324 119.075 332.639C118.874 332.683 118.683 332.527 118.683 332.32V331.541C118.683 331.389 118.789 331.256 118.939 331.224C120.415 330.912 121.901 330.743 123.387 330.718C124.554 330.699 125.722 330.768 126.886 330.927C127.046 330.949 127.165 331.086 127.165 331.248Z" fill="#BEC3D2"/>
<path d="M156.212 335.676C156.889 335.944 157.623 335.446 157.623 334.718C157.623 325.257 157.623 331.424 157.623 321.963C157.623 321.439 157.312 320.962 156.829 320.758C149.664 317.741 142.139 317.857 135 321.106C133.671 320.501 132.329 320.005 130.977 319.617L129.89 322.659C129.788 322.945 129.998 323.222 130.27 323.241L141.274 334.245C146.253 333.265 151.312 333.741 156.212 335.676V335.676Z" fill="#F5F5F5"/>
<path d="M157.162 300.615L152.492 295.945L154.119 294.317C154.358 294.078 154.731 294.038 155.015 294.22C156.569 295.217 157.889 296.538 158.886 298.091C159.069 298.375 159.029 298.748 158.79 298.987L157.162 300.615Z" fill="url(#paint3_linear)"/>
<path d="M157.162 300.615L158.79 298.987C158.828 298.949 158.861 298.906 158.89 298.861C158.871 298.792 158.842 298.725 158.802 298.663C157.805 297.109 156.484 295.789 154.931 294.792C154.646 294.609 154.274 294.649 154.035 294.888L152.735 296.188L157.162 300.615Z" fill="url(#paint4_linear)"/>
<path d="M158.886 298.091C158.717 297.827 158.538 297.572 158.351 297.322C158.308 297.434 158.242 297.537 158.154 297.626L156.164 299.616L157.162 300.614L158.789 298.987C159.028 298.748 159.068 298.375 158.886 298.091V298.091Z" fill="#F6515B"/>
<path d="M154.798 303.465L157.547 300.716C157.654 300.609 157.654 300.435 157.547 300.328L152.778 295.559C152.67 295.452 152.497 295.452 152.39 295.559L149.641 298.308L154.798 303.465Z" fill="#FFDCDE"/>
<path d="M151.025 296.92V307.238L156.19 302.076L151.03 296.916L151.025 296.92Z" fill="url(#paint5_linear)"/>
<path d="M156.025 301.961L151.146 297.082C150.902 296.837 150.902 296.441 151.146 296.197C151.391 295.953 151.787 295.953 152.031 296.197L156.91 301.076C157.154 301.32 157.154 301.716 156.91 301.961C156.665 302.205 156.269 302.205 156.025 301.961Z" fill="url(#paint6_linear)"/>
<path d="M132.449 315.499L129.89 322.659C129.766 323.005 130.101 323.339 130.447 323.216L137.606 320.656C139.035 319.228 133.878 314.071 132.449 315.499V315.499Z" fill="url(#paint7_linear)"/>
<path d="M133.698 316.686L129.931 322.98C129.925 322.99 129.921 323 129.916 323.01C130.011 323.188 130.226 323.295 130.447 323.216L137.606 320.657C137.617 320.646 137.627 320.634 137.637 320.623C138.062 318.953 135.093 315.57 133.698 316.686V316.686Z" fill="url(#paint8_linear)"/>
<path d="M155.233 303.029L137.606 320.656C137.538 320.538 137.453 320.426 137.351 320.325C136.72 319.694 135.697 319.694 135.066 320.325C135.038 320.353 135.148 320.237 135.148 320.237C135.696 319.602 135.669 318.642 135.066 318.04C134.463 317.437 133.503 317.409 132.869 317.958C132.869 317.958 132.752 318.067 132.78 318.039C133.411 317.408 133.411 316.385 132.78 315.754C132.679 315.653 132.568 315.568 132.449 315.499L150.077 297.872L155.233 303.029Z" fill="url(#paint9_linear)"/>
<path d="M153.794 301.591L135.148 320.237C135.696 319.603 135.669 318.643 135.066 318.04C134.463 317.437 133.503 317.41 132.869 317.958L151.515 299.312L153.794 301.591Z" fill="url(#paint10_linear)"/>
<path d="M132.78 318.04C132.752 318.068 132.869 317.959 132.869 317.959C133.503 317.41 134.463 317.438 135.066 318.04C135.669 318.643 135.696 319.603 135.148 320.238C135.148 320.238 135.038 320.354 135.066 320.326C135.697 319.695 136.72 319.695 137.351 320.326C137.452 320.427 137.538 320.539 137.606 320.657L155.233 303.03L150.69 298.486L133.055 316.121C133.391 316.735 133.3 317.52 132.78 318.04Z" fill="url(#paint11_linear)"/>
<path d="M131.335 321.772C131.064 321.501 130.761 321.283 130.441 321.118L129.89 322.66C129.766 323.006 130.101 323.341 130.447 323.217L131.989 322.666C131.823 322.345 131.606 322.042 131.335 321.772V321.772Z" fill="url(#paint12_linear)"/>
<path d="M149.262 298.683L149.274 308.992L154.427 303.839L149.267 298.679L149.262 298.683Z" fill="url(#paint13_linear)"/>
<path d="M154.261 303.723L149.382 298.845C149.138 298.6 149.138 298.204 149.382 297.96C149.626 297.715 150.023 297.715 150.267 297.96L155.146 302.838C155.39 303.083 155.39 303.479 155.146 303.723C154.901 303.968 154.505 303.968 154.261 303.723Z" fill="url(#paint14_linear)"/>
<path d="M114.361 314.166V314.166C114.361 314.411 114.162 314.61 113.917 314.61H111.946C111.701 314.61 111.502 314.411 111.502 314.166C111.502 313.921 111.701 313.722 111.946 313.722H113.917C114.162 313.722 114.361 313.921 114.361 314.166Z" fill="#00E29F" stroke="#00E29F" stroke-width="1.00392"/>
<path d="M130.848 297.678H130.848C130.602 297.678 130.403 297.479 130.403 297.234V295.264C130.403 295.018 130.602 294.819 130.848 294.819C131.093 294.819 131.292 295.018 131.292 295.264V297.234C131.292 297.479 131.093 297.678 130.848 297.678Z" fill="#00E29F" stroke="#00E29F" stroke-width="1.00392"/>
<path d="M117.168 301.115L118.561 302.508C118.735 302.682 119.016 302.682 119.19 302.508C119.19 302.508 119.19 302.508 119.19 302.508M117.168 301.115L119.545 301.525C119.914 301.894 119.914 302.494 119.545 302.863L119.19 302.508M117.168 301.115C116.995 300.942 116.995 300.66 117.168 300.487M117.168 301.115V300.487M119.19 302.508C119.363 302.335 119.363 302.053 119.19 301.88L117.797 300.487C117.797 300.487 117.797 300.487 117.797 300.487C117.623 300.313 117.342 300.313 117.168 300.487C117.168 300.487 117.168 300.487 117.168 300.487M119.19 302.508L117.168 300.487" fill="#00E29F" stroke="#00E29F" stroke-width="1.00392"/>
<path d="M143.134 302.508L144.527 301.115L144.882 301.47L144.527 301.115C144.701 300.942 144.701 300.66 144.527 300.487L143.134 302.508ZM143.134 302.508C142.96 302.682 142.679 302.682 142.506 302.508C142.332 302.335 142.332 302.053 142.506 301.88L143.899 300.487C144.072 300.313 144.354 300.313 144.527 300.487L143.134 302.508Z" fill="#92F37F" stroke="#00E29F" stroke-width="1.00392"/>
</g>
<g filter="url(#filter1_d)">
<rect x="214" y="219" width="72" height="72" rx="10" fill="#F6515B"/>
</g>
<path d="M255.906 265.875V274.875C255.906 275.651 255.276 276.281 254.5 276.281H245.5C244.724 276.281 244.094 275.651 244.094 274.875V265.875C244.094 265.099 244.724 264.469 245.5 264.469H254.5C255.276 264.469 255.906 265.099 255.906 265.875Z" fill="#113255"/>
<path d="M269.781 233.719H230.219C227.893 233.719 226 235.612 226 237.938V263.062C226 265.388 227.893 267.281 230.219 267.281H269.781C272.107 267.281 274 265.388 274 263.062V237.938C274 235.612 272.107 233.719 269.781 233.719Z" fill="#11BDCF"/>
<path d="M271.188 237.938V263.062C271.188 263.838 270.557 264.469 269.781 264.469H230.219C229.443 264.469 228.812 263.838 228.812 263.062V237.938C228.812 237.162 229.443 236.531 230.219 236.531H269.781C270.557 236.531 271.188 237.162 271.188 237.938Z" fill="white"/>
<path d="M266.406 274.875C266.406 275.651 265.776 276.281 265 276.281H235C234.224 276.281 233.594 275.651 233.594 274.875C233.594 274.099 234.224 273.469 235 273.469H265C265.776 273.469 266.406 274.099 266.406 274.875Z" fill="#11BDCF"/>
<path d="M232.505 242.869C231.979 242.343 231.935 241.468 232.505 240.881C233.424 239.988 234.906 240.649 234.906 241.875C234.906 243.121 233.388 243.753 232.505 242.869V242.869Z" fill="#F6515B"/>
<path d="M246.457 243.281H237.73C236.826 243.281 236.094 242.652 236.094 241.875C236.094 241.098 236.826 240.469 237.73 240.469H246.457C247.361 240.469 248.094 241.098 248.094 241.875C248.094 242.652 247.361 243.281 246.457 243.281Z" fill="#555555"/>
<path d="M233.5 249.281C232.731 249.281 232.094 248.657 232.094 247.875C232.094 247.036 232.823 246.392 233.639 246.476C234.393 246.539 234.979 247.238 234.899 248.013C234.842 248.702 234.234 249.281 233.5 249.281V249.281Z" fill="#FAA017"/>
<path d="M246.457 249.281H237.73C236.826 249.281 236.094 248.652 236.094 247.875C236.094 247.098 236.826 246.469 237.73 246.469H246.457C247.361 246.469 248.094 247.098 248.094 247.875C248.094 248.652 247.361 249.281 246.457 249.281Z" fill="#555555"/>
<path d="M232.505 254.869C231.671 254.037 232.174 252.601 233.361 252.475C234.629 252.359 235.366 253.813 234.587 254.767C234.072 255.399 233.101 255.465 232.505 254.869V254.869Z" fill="#00E29F"/>
<path d="M246.457 255.281H237.73C236.826 255.281 236.094 254.652 236.094 253.875C236.094 253.098 236.826 252.469 237.73 252.469H246.457C247.361 252.469 248.094 253.098 248.094 253.875C248.094 254.652 247.361 255.281 246.457 255.281Z" fill="#555555"/>
<path d="M259.75 256.031C264.255 256.031 267.906 252.38 267.906 247.875C267.906 243.37 264.255 239.719 259.75 239.719C255.245 239.719 251.594 243.37 251.594 247.875C251.594 252.38 255.245 256.031 259.75 256.031Z" fill="#FAA017"/>
<path d="M267.906 247.875H259.75V239.719C264.247 239.719 267.906 243.378 267.906 247.875Z" fill="#DBF5F8"/>
<path d="M241.75 261.281H239.5C238.723 261.281 238.094 260.652 238.094 259.875C238.094 259.098 238.723 258.469 239.5 258.469H241.75C242.527 258.469 243.156 259.098 243.156 259.875C243.156 260.652 242.527 261.281 241.75 261.281Z" fill="#F5F5F5"/>
<path d="M255.25 261.281H253C252.223 261.281 251.594 260.652 251.594 259.875C251.594 259.098 252.223 258.469 253 258.469H255.25C256.027 258.469 256.656 259.098 256.656 259.875C256.656 260.652 256.027 261.281 255.25 261.281Z" fill="#FAA017"/>
<g filter="url(#filter2_d)">
<rect x="349" y="139" width="72" height="72" rx="10" fill="#113255"/>
</g>
<path d="M368.039 153.371C368.039 153.371 368.763 156.057 370.845 156.182C370.845 156.182 368.065 157.142 368.019 159.195C368.019 159.195 367.472 156.316 365.276 156.212C365.276 156.213 367.833 155.825 368.039 153.371Z" fill="#FAA017"/>
<path d="M363.435 156.974C363.435 156.974 363.947 158.874 365.42 158.962C365.42 158.962 363.454 159.641 363.42 161.093C363.42 161.093 363.033 159.056 361.48 158.983C361.48 158.983 363.289 158.709 363.435 156.974Z" fill="#FAA017"/>
<path d="M363.435 151.318C363.435 151.318 363.947 153.219 365.42 153.307C365.42 153.307 363.454 153.986 363.42 155.438C363.42 155.438 363.033 153.401 361.48 153.328C361.48 153.328 363.289 153.054 363.435 151.318V151.318Z" fill="#FAA017"/>
<path d="M404.722 198.999H378.857C376.598 198.999 374.76 197.161 374.76 194.902V187.621C374.76 187.445 374.902 187.302 375.079 187.302C375.254 187.302 375.397 187.445 375.397 187.621V194.902C375.397 196.81 376.949 198.362 378.857 198.362H404.722C406.63 198.362 408.182 196.81 408.182 194.902V158.375C408.182 156.467 406.63 154.915 404.722 154.915H378.857C376.949 154.915 375.397 156.467 375.397 158.375V184.807C375.397 184.983 375.254 185.125 375.079 185.125C374.902 185.125 374.76 184.983 374.76 184.807V158.375C374.76 156.116 376.598 154.278 378.857 154.278H404.722C406.981 154.278 408.819 156.116 408.819 158.375V194.902C408.819 197.161 406.981 198.999 404.722 198.999V198.999Z" fill="#353535"/>
<path d="M375.079 187.621V194.904C375.079 196.99 376.77 198.682 378.857 198.682H404.723C406.809 198.682 408.501 196.99 408.501 194.904V158.376C408.501 156.289 406.809 154.598 404.723 154.598H378.857C376.77 154.598 375.079 156.289 375.079 158.376V187.621Z" fill="#FCEACF"/>
<path d="M396.256 163.192H408.535V158.376C408.535 156.289 406.843 154.598 404.757 154.598H378.891C376.805 154.598 375.113 156.289 375.113 158.376V163.192H396.256V163.192Z" fill="#11BDCF"/>
<path d="M377.351 157.041V152.525C377.351 151.881 377.873 151.358 378.518 151.358H378.614C379.259 151.358 379.781 151.881 379.781 152.525V157.041C379.781 157.686 379.259 158.208 378.614 158.208H378.518C377.873 158.208 377.351 157.686 377.351 157.041Z" fill="#113255"/>
<path d="M382.654 157.041V152.525C382.654 151.881 383.176 151.358 383.821 151.358H383.917C384.562 151.358 385.085 151.881 385.085 152.525V157.041C385.085 157.686 384.562 158.208 383.917 158.208H383.821C383.176 158.208 382.654 157.686 382.654 157.041Z" fill="#113255"/>
<path d="M387.957 157.041V152.525C387.957 151.881 388.48 151.358 389.124 151.358H389.221C389.866 151.358 390.388 151.881 390.388 152.525V157.041C390.388 157.686 389.866 158.208 389.221 158.208H389.124C388.48 158.208 387.957 157.686 387.957 157.041V157.041Z" fill="#113255"/>
<path d="M393.261 157.041V152.525C393.261 151.881 393.783 151.358 394.428 151.358H394.524C395.169 151.358 395.691 151.881 395.691 152.525V157.041C395.691 157.686 395.169 158.208 394.524 158.208H394.428C393.783 158.208 393.261 157.686 393.261 157.041Z" fill="#113255"/>
<path d="M398.563 157.041V152.525C398.563 151.881 399.086 151.358 399.731 151.358H399.827C400.472 151.358 400.994 151.881 400.994 152.525V157.041C400.994 157.686 400.472 158.208 399.827 158.208H399.731C399.086 158.208 398.563 157.686 398.563 157.041Z" fill="#113255"/>
<path d="M403.867 157.041V152.525C403.867 151.881 404.389 151.358 405.034 151.358H405.131C405.775 151.358 406.298 151.881 406.298 152.525V157.041C406.298 157.686 405.775 158.208 405.131 158.208H405.034C404.389 158.208 403.867 157.686 403.867 157.041Z" fill="#113255"/>
<path d="M381.775 163.016L382.461 161.658C382.957 160.677 382.564 159.481 381.583 158.985C380.602 158.489 379.406 158.882 378.909 159.863L378.223 161.221L381.775 163.016Z" fill="#F6515B"/>
<path d="M381.775 163.334C381.727 163.334 381.678 163.323 381.632 163.3L378.08 161.505C377.923 161.425 377.86 161.234 377.94 161.077L378.626 159.719C379.2 158.583 380.591 158.126 381.727 158.7C382.277 158.978 382.686 159.454 382.879 160.039C383.071 160.625 383.024 161.251 382.746 161.801L382.06 163.159C382.003 163.27 381.891 163.334 381.775 163.334ZM378.651 161.08L381.635 162.588L382.178 161.514C382.379 161.115 382.414 160.662 382.274 160.238C382.135 159.814 381.839 159.47 381.44 159.268C380.618 158.852 379.61 159.183 379.194 160.006L378.651 161.08Z" fill="#353535"/>
<path d="M381.775 163.016L365.567 194.824L362.016 193.029L378.223 161.221L381.775 163.016Z" fill="#11BDCF"/>
<path d="M365.567 195.143C365.519 195.143 365.47 195.132 365.424 195.109L361.872 193.314C361.797 193.275 361.739 193.209 361.713 193.128C361.687 193.048 361.693 192.96 361.732 192.885L377.94 161.077C378.02 160.921 378.21 160.859 378.367 160.938L381.919 162.733C381.994 162.771 382.052 162.837 382.078 162.918C382.104 162.998 382.097 163.086 382.059 163.161L365.851 194.969C365.795 195.08 365.683 195.143 365.567 195.143V195.143ZM362.444 192.89L365.428 194.398L381.347 163.157L378.363 161.649L362.444 192.89Z" fill="#353535"/>
<path d="M370.093 177.178L362.016 193.03L365.567 194.825L373.645 178.973L370.093 177.178Z" fill="#F6515B"/>
<path d="M365.567 195.142C365.519 195.142 365.47 195.131 365.424 195.108L361.872 193.312C361.797 193.274 361.739 193.208 361.713 193.127C361.687 193.047 361.693 192.959 361.732 192.884L369.81 177.032C369.889 176.876 370.08 176.814 370.236 176.893L373.788 178.688C373.864 178.726 373.921 178.793 373.947 178.873C373.973 178.954 373.967 179.041 373.928 179.116L365.851 194.968C365.795 195.078 365.683 195.142 365.567 195.142ZM362.444 192.888L365.428 194.397L373.217 179.112L370.233 177.604L362.444 192.888Z" fill="#353535"/>
<path d="M365.567 194.824L362.016 193.029L361.468 198.523L365.567 194.824Z" fill="#FAA017"/>
<path d="M361.468 198.841C361.419 198.841 361.37 198.83 361.325 198.807C361.207 198.748 361.138 198.623 361.152 198.492L361.699 192.998C361.709 192.893 361.77 192.8 361.862 192.75C361.955 192.7 362.065 192.698 362.159 192.745L365.711 194.54C365.804 194.587 365.869 194.678 365.883 194.782C365.896 194.886 365.858 194.99 365.78 195.06L361.682 198.759C361.622 198.813 361.545 198.841 361.468 198.841V198.841ZM362.286 193.522L361.866 197.735L365.009 194.899L362.286 193.522Z" fill="#353535"/>
<path d="M400.349 175.799C400.349 176.089 400.25 176.38 400.047 176.617L398.895 177.956C398.763 178.111 398.6 178.225 398.423 178.297C397.941 177.686 397.395 177.127 396.797 176.631C396.844 176.521 396.91 176.416 396.992 176.32L398.143 174.981C398.594 174.455 399.386 174.396 399.913 174.847C400.202 175.094 400.349 175.445 400.349 175.799V175.799Z" fill="#959595"/>
<path d="M402.76 184.053C402.76 190.088 397.868 194.98 391.832 194.98C385.797 194.98 380.905 190.088 380.905 184.053C380.905 178.018 385.797 173.125 391.832 173.125C397.868 173.125 402.76 178.018 402.76 184.053V184.053Z" fill="#353535"/>
<path d="M384.527 178.852C383.481 180.319 382.864 182.112 382.864 184.051C382.864 189.004 386.879 193.019 391.832 193.019C396.785 193.019 400.8 189.004 400.8 184.051C400.8 179.098 396.785 175.083 391.832 175.083C389.471 175.083 387.324 175.997 385.723 177.488L384.527 178.852Z" fill="#DDF1FA"/>
<path d="M389.872 167.33H388.766C388.181 167.33 387.707 167.804 387.707 168.389V169.563C387.707 170.148 388.181 170.622 388.766 170.622H394.899C395.484 170.622 395.959 170.148 395.959 169.563V168.389C395.959 167.804 395.484 167.33 394.899 167.33H389.872Z" fill="#353535"/>
<path d="M393.315 170.663V173.267C392.831 173.2 392.335 173.167 391.832 173.167C391.329 173.167 390.833 173.2 390.348 173.267V170.663H393.315Z" fill="#353535"/>
<path d="M394.898 170.941H388.765C388.005 170.941 387.387 170.323 387.387 169.563V168.389C387.387 167.63 388.005 167.012 388.765 167.012H394.898C395.658 167.012 396.276 167.63 396.276 168.389V169.563C396.276 170.323 395.658 170.941 394.898 170.941ZM388.765 167.648C388.357 167.648 388.024 167.981 388.024 168.389V169.563C388.024 169.972 388.356 170.304 388.765 170.304H394.898C395.307 170.304 395.639 169.972 395.639 169.563V168.389C395.639 167.981 395.307 167.648 394.898 167.648H388.765Z" fill="#353535"/>
<path d="M391.832 175.853C391.734 175.853 391.655 175.932 391.655 176.03V176.39C391.655 176.487 391.734 176.567 391.832 176.567C391.93 176.567 392.009 176.487 392.009 176.39V176.03C392.009 175.932 391.93 175.853 391.832 175.853Z" fill="#353535"/>
<path d="M391.832 191.527C391.734 191.527 391.655 191.607 391.655 191.705V192.065C391.655 192.163 391.734 192.242 391.832 192.242C391.93 192.242 392.009 192.163 392.009 192.065V191.705C392.009 191.607 391.93 191.527 391.832 191.527Z" fill="#353535"/>
<path d="M400.027 184.047C400.027 183.95 399.948 183.87 399.85 183.87H399.49C399.392 183.87 399.312 183.95 399.312 184.047C399.312 184.145 399.392 184.224 399.49 184.224H399.85C399.948 184.225 400.027 184.145 400.027 184.047Z" fill="#353535"/>
<path d="M384.352 184.047C384.352 183.95 384.272 183.87 384.174 183.87H383.814C383.716 183.87 383.637 183.95 383.637 184.047C383.637 184.145 383.716 184.224 383.814 184.224H384.174C384.272 184.225 384.352 184.145 384.352 184.047Z" fill="#353535"/>
<path d="M397.626 178.253C397.558 178.184 397.445 178.184 397.376 178.253L397.121 178.508C397.052 178.577 397.052 178.689 397.121 178.758C397.19 178.828 397.303 178.828 397.372 178.758L397.626 178.504C397.696 178.435 397.696 178.323 397.626 178.253V178.253Z" fill="#353535"/>
<path d="M386.542 189.338C386.473 189.269 386.361 189.269 386.292 189.338L386.037 189.593C385.968 189.662 385.968 189.774 386.037 189.843C386.106 189.912 386.219 189.912 386.288 189.843L386.542 189.589C386.612 189.52 386.612 189.407 386.542 189.338Z" fill="#353535"/>
<path d="M397.626 189.843C397.696 189.774 397.696 189.662 397.626 189.593L397.372 189.338C397.303 189.269 397.19 189.269 397.121 189.338C397.052 189.407 397.052 189.52 397.121 189.589L397.376 189.843C397.445 189.912 397.558 189.912 397.626 189.843V189.843Z" fill="#353535"/>
<path d="M386.542 178.758C386.612 178.689 386.612 178.577 386.542 178.508L386.288 178.253C386.219 178.184 386.106 178.184 386.037 178.253C385.968 178.322 385.968 178.435 386.037 178.504L386.292 178.758C386.361 178.828 386.473 178.828 386.542 178.758Z" fill="#353535"/>
<path d="M397.626 189.843C397.557 189.912 397.445 189.912 397.376 189.843L397.122 189.589C397.052 189.519 397.052 189.407 397.122 189.338C397.191 189.269 397.303 189.269 397.372 189.338L397.626 189.592C397.696 189.661 397.696 189.773 397.626 189.843Z" fill="#353535"/>
<path d="M391.183 181.362V183.048C391.37 182.926 391.593 182.855 391.832 182.855C392.071 182.855 392.294 182.926 392.481 183.048V177.958C392.481 177.598 392.19 177.309 391.832 177.309C391.474 177.309 391.183 177.599 391.183 177.958V181.362Z" fill="#F6515B"/>
<path d="M393.028 184.053C393.028 184.713 392.493 185.249 391.832 185.249C391.172 185.249 390.636 184.713 390.636 184.053C390.636 183.392 391.172 182.856 391.832 182.856C392.493 182.856 393.028 183.392 393.028 184.053Z" fill="#FCEACF"/>
<path d="M391.832 185.566C390.997 185.566 390.318 184.887 390.318 184.051C390.318 183.216 390.997 182.537 391.832 182.537C392.667 182.537 393.347 183.216 393.347 184.051C393.347 184.887 392.667 185.566 391.832 185.566ZM391.832 183.174C391.348 183.174 390.954 183.567 390.954 184.051C390.954 184.536 391.348 184.929 391.832 184.929C392.316 184.929 392.71 184.536 392.71 184.051C392.71 183.567 392.316 183.174 391.832 183.174Z" fill="#353535"/>
<g filter="url(#filter3_d)">
<rect x="214" y="62" width="72" height="72" rx="10" fill="#113255"/>
</g>
<path d="M272.594 74.5H250H227.406C226.629 74.5 226 75.129 226 75.9062V105.438L228.812 108.25H250H271.188L274 105.438V75.9062C274 75.129 273.371 74.5 272.594 74.5Z" fill="#F6515B"/>
<path d="M250 105.438H226V118.094C226 118.871 226.629 119.5 227.406 119.5H250H272.594C273.371 119.5 274 118.871 274 118.094V105.438H250Z" fill="#11BDCF"/>
<path d="M266.875 111.062H250H233.031C232.254 111.062 231.625 111.691 231.625 112.469C231.625 113.246 232.254 113.875 233.031 113.875H250H266.875C267.652 113.875 268.281 113.246 268.281 112.469C268.281 111.691 267.652 111.062 266.875 111.062Z" fill="#113255"/>
<path d="M259.161 88.7632L250 83.2663L245.099 80.3256C244.663 80.0647 244.122 80.0578 243.682 80.3078C243.241 80.5577 242.969 81.0247 242.969 81.5314V98.4064C242.969 98.9131 243.241 99.3801 243.682 99.63C244.122 99.8798 244.663 99.8729 245.099 99.6122L250 96.6714L259.161 91.1747C259.584 90.9206 259.844 90.4633 259.844 89.969C259.844 89.4746 259.584 89.0172 259.161 88.7632V88.7632Z" fill="white"/>
<g filter="url(#filter4_d)">
<rect x="99" y="2" width="72" height="72" rx="10" fill="#11BDCF"/>
</g>
<path d="M126.938 59.5625C124.527 59.5625 121.564 57.8525 120.357 55.7638L112.294 41.7987C111.091 39.71 111.091 36.29 112.294 34.2012L120.376 20.2362C121.564 18.1475 124.527 16.4375 126.938 16.4375H143.063C145.474 16.4375 148.437 18.1475 149.644 20.2362L157.707 34.2012C158.911 36.29 158.911 39.71 157.707 41.7987L149.644 55.7638C148.437 57.8525 145.474 59.5625 143.063 59.5625H126.938Z" fill="#004680"/>
<path d="M127.501 58.0824C125.251 58.0824 122.494 56.4887 121.373 54.5424L113.873 41.5374C112.748 39.5949 112.748 36.4074 113.873 34.4612L121.373 21.4599C122.487 19.5137 125.251 17.9199 127.501 17.9199H142.501C144.751 17.9199 147.507 19.5137 148.628 21.4599L156.128 34.4612C157.253 36.4074 157.253 39.5949 156.128 41.5374L148.628 54.5424C147.503 56.4887 144.747 58.0824 142.501 58.0824H127.501Z" fill="white"/>
<path d="M127.501 58.0824C125.251 58.0824 122.494 56.4887 121.373 54.5424L113.873 41.5374C112.748 39.5949 112.748 36.4074 113.873 34.4612L121.373 21.4599C122.487 19.5137 125.251 17.9199 127.501 17.9199H142.501C144.751 17.9199 147.507 19.5137 148.628 21.4599L156.128 34.4612C157.253 36.4074 157.253 39.5949 156.128 41.5374L148.628 54.5424C147.503 56.4887 144.747 58.0824 142.501 58.0824H127.501Z" fill="#11BDCF"/>
<path d="M128.25 56.1055C126.225 56.1055 123.75 54.6693 122.723 52.9143L115.973 41.1918C114.96 39.4368 114.96 36.5643 115.973 34.8168L122.704 23.0868C123.72 21.3318 126.207 19.8955 128.232 19.8955H141.769C143.794 19.8955 146.269 21.3318 147.297 23.0868L154.047 34.8093C155.059 36.5643 155.059 39.4368 154.047 41.1843L147.297 52.9068C146.28 54.6618 143.794 56.098 141.769 56.098L128.25 56.1055Z" fill="#800054"/>
<path d="M115.587 40.4346C115.682 40.6938 115.799 40.9447 115.936 41.1846L122.704 52.9071C123.721 54.6621 126.207 56.0983 128.232 56.0983H141.769C143.794 56.0983 146.269 54.6621 147.297 52.9071L154.047 41.1846C154.184 40.9447 154.3 40.6938 154.396 40.4346H115.587Z" fill="white"/>
<path d="M120.799 49.625L122.704 52.925C123.72 54.68 126.206 56.1162 128.231 56.1162H141.769C143.794 56.1162 146.269 54.68 147.296 52.925L149.201 49.625H120.799Z" fill="#F2AB3E"/>
<path d="M125.146 45.1732C125.221 45.507 125.461 45.6532 125.843 45.6532C126.226 45.6532 126.376 45.4995 126.376 45.2595C126.376 45.0195 126.215 44.8845 125.652 44.742C124.752 44.532 124.527 44.2057 124.527 43.7595C124.527 43.1857 124.958 42.792 125.738 42.792C126.616 42.792 126.965 43.2645 127.013 43.7482H126.308C126.275 43.5457 126.162 43.3245 125.735 43.3245C125.446 43.3245 125.27 43.4445 125.27 43.677C125.27 43.9095 125.412 43.9995 125.945 44.1232C126.905 44.352 127.115 44.7082 127.115 45.1732C127.115 45.777 126.661 46.1895 125.787 46.1895C124.913 46.1895 124.501 45.777 124.426 45.1732H125.146Z" fill="#004680"/>
<path d="M128.813 43.4248H127.808V42.8398H130.526V43.4248H129.525V46.1436H128.813V43.4248Z" fill="#004680"/>
<path d="M132.142 44.8198V46.1436H131.445V42.8398H132.896C133.616 42.8398 134.021 43.2373 134.021 43.7473C134.032 43.9111 133.991 44.0741 133.905 44.2139C133.819 44.3536 133.692 44.4631 133.541 44.5273C133.702 44.5873 133.95 44.7598 133.95 45.3486V45.4986C133.941 45.7098 133.957 45.9213 133.999 46.1286H133.305C133.243 45.8837 133.22 45.6306 133.237 45.3786V45.3298C133.237 44.9548 133.144 44.7973 132.615 44.7973L132.142 44.8198ZM132.142 44.2536H132.75C133.125 44.2536 133.29 44.1036 133.29 43.8261C133.29 43.5486 133.125 43.4098 132.75 43.4098H132.142V44.2536Z" fill="#004680"/>
<path d="M137.389 44.7186H135.81V45.5586H137.554L137.467 46.1436H135.116V42.8398H137.46V43.4248H135.81V44.1336H137.389V44.7186Z" fill="#004680"/>
<path d="M139.28 45.3799L139.021 46.1299H138.32L139.445 42.8262H140.341L141.511 46.1299H140.761L140.491 45.3799H139.28ZM140.334 44.7949C140.097 44.0974 139.959 43.6699 139.869 43.3549C139.786 43.6812 139.621 44.1987 139.434 44.7949H140.334Z" fill="#004680"/>
<path d="M142.41 42.8398H143.115V44.3136C143.332 44.0586 144.011 43.3161 144.427 42.8398H145.282L143.958 44.2123L145.331 46.1436H144.476L143.463 44.6736L143.115 45.0073V46.1323H142.41V42.8398Z" fill="#004680"/>
<path d="M131.689 36.9932C130.974 36.2492 130.375 35.4023 129.911 34.4807C129.479 33.4451 129.362 32.3052 129.574 31.2032C129.797 30.0944 130.28 29.0545 130.984 28.1695C130.959 28.559 131.013 28.9495 131.142 29.3179C131.271 29.6863 131.472 30.0252 131.734 30.3145C131.602 29.5677 131.638 28.8007 131.839 28.0695C132.041 27.3384 132.404 26.6615 132.9 26.0882C133.916 24.9585 135.208 24.1132 136.65 23.6357C135.945 24.3857 135.851 25.537 136.129 26.5157C136.406 27.4945 136.984 28.3532 137.505 29.242C138.026 30.1307 138.518 31.0495 138.548 32.062C138.847 31.5449 139.098 31.0013 139.298 30.4382C139.506 29.8693 139.549 29.253 139.421 28.6607C139.949 29.2957 140.295 30.0615 140.423 30.877C140.556 31.7462 140.566 32.6299 140.453 33.502C140.362 34.4654 140.059 35.3967 139.564 36.2282C138.921 37.1698 137.983 37.8705 136.898 38.2195C135 38.527 133.125 38.2495 131.689 36.9932Z" fill="#FF0000"/>
<path d="M134.017 38.1287C136.53 39.1262 139.012 36.1262 137.625 33.8387C137.625 33.8087 137.595 33.8087 137.595 33.7787C137.719 35.0349 137.411 35.9537 136.845 36.4749C137.149 35.7249 136.935 34.8812 136.567 34.1462C136.2 33.4112 135.679 32.7962 135.281 32.1212C134.884 31.4462 134.576 30.6212 134.76 29.8262C134.027 30.3859 133.508 31.1801 133.29 32.0762C133.082 32.9837 133.191 33.9349 133.597 34.7724C133.359 34.6056 133.16 34.3891 133.014 34.1379C132.868 33.8867 132.778 33.6068 132.75 33.3174C132.248 33.9063 131.981 34.6592 132 35.4324C132 36.6249 132.945 37.6974 134.017 38.1287Z" fill="#EAB732"/>
<g filter="url(#filter5_d)">
<rect x="12" y="139" width="72" height="72" rx="10" fill="#FCA40B"/>
</g>
<g clip-path="url(#clip1)">
<path d="M71.25 154C71.25 152.725 70.2749 151.75 68.9999 151.75H35.25C33.975 151.75 33 152.725 33 154V176.425C33 177.7 33.975 178.675 35.25 178.675H69C70.275 178.675 71.25 177.7 71.25 176.425V154H71.25Z" fill="#DBF5F8"/>
<path d="M69 179.425H35.25C33.5999 179.425 32.25 178.075 32.25 176.425V154C32.2499 152.35 33.5999 151 35.25 151H69C70.65 151 71.9999 152.35 71.9999 154V176.425C71.9999 178.075 70.6499 179.425 69 179.425ZM35.25 152.5C34.425 152.5 33.75 153.175 33.75 154V176.425C33.75 177.25 34.425 177.925 35.25 177.925H69C69.8249 177.925 70.5 177.25 70.5 176.425V154C70.5 153.175 69.8249 152.5 69 152.5H35.25Z" fill="#113255"/>
<path d="M67.275 157.975C67.275 156.7 66.2999 155.725 65.0249 155.725H31.2749C29.9999 155.725 29.0249 156.7 29.0249 157.975V180.4C29.0249 181.675 29.9999 182.65 31.2749 182.65H65.0249C66.2999 182.65 67.275 181.675 67.275 180.4V157.975Z" fill="#FAA017"/>
<path d="M65.0254 183.4H31.2754C29.6253 183.4 28.2754 182.05 28.2754 180.4V157.975C28.2754 156.325 29.6254 154.975 31.2754 154.975H65.0254C66.6754 154.975 68.0253 156.325 68.0253 157.975V180.4C68.0254 182.05 66.6754 183.4 65.0254 183.4ZM31.2754 156.475C30.4504 156.475 29.7754 157.15 29.7754 157.975V180.4C29.7754 181.225 30.4504 181.9 31.2754 181.9H65.0254C65.8503 181.9 66.5253 181.225 66.5253 180.4V157.975C66.5253 157.15 65.8503 156.475 65.0254 156.475H31.2754V156.475Z" fill="#113255"/>
<path d="M63.975 161.65C63.975 160.375 62.9249 159.325 61.65 159.325H27.075C25.7999 159.325 24.75 160.375 24.75 161.65V186.85H63.975V161.65Z" fill="#11BDCF"/>
<path d="M63.975 187.6H24.75C24.3 187.6 24 187.3 24 186.85V161.65C24 159.925 25.35 158.575 27.075 158.575H61.65C63.3749 158.575 64.725 159.925 64.725 161.65V186.85C64.725 187.225 64.35 187.6 63.975 187.6ZM25.5 186.1H63.225V161.65C63.225 160.75 62.5499 160.075 61.65 160.075H27.075C26.175 160.075 25.5 160.75 25.5 161.65V186.1Z" fill="#113255"/>
<path d="M27.8252 183.7V163.225C27.8252 162.775 28.2002 162.475 28.5752 162.475H60.0002C60.4502 162.475 60.7502 162.85 60.7502 163.225V183.775H27.8252V183.7Z" fill="#DBF5F8"/>
<path d="M44.3252 181.3C48.8815 181.3 52.5751 177.606 52.5751 173.05C52.5751 168.493 48.8815 164.8 44.3252 164.8C39.7688 164.8 36.0752 168.493 36.0752 173.05C36.0752 177.606 39.7688 181.3 44.3252 181.3Z" fill="#F6515B"/>
<path d="M44.3247 182.05C39.3747 182.05 35.3247 178 35.3247 173.05C35.3247 168.1 39.3747 164.05 44.3247 164.05C49.2747 164.05 53.3247 168.1 53.3247 173.05C53.3247 178 49.2747 182.05 44.3247 182.05ZM44.3247 165.55C40.1997 165.55 36.8247 168.925 36.8247 173.05C36.8247 177.175 40.1997 180.55 44.3247 180.55C48.4497 180.55 51.8247 177.175 51.8247 173.05C51.8247 168.925 48.4497 165.55 44.3247 165.55Z" fill="#113255"/>
<path d="M54.6747 199H33.2247C32.7746 199 32.4746 198.7 32.4746 198.25C32.4746 197.8 32.7746 197.5 33.2247 197.5H54.5997C55.0497 197.5 55.3497 197.8 55.3497 198.25C55.4246 198.7 55.0497 199 54.6747 199Z" fill="#113255"/>
<path d="M35.5503 198.249H52.3502L48.6752 193.149H39.2253L35.5503 198.249Z" fill="#DBF5F8"/>
<path d="M52.3498 199.001H35.5498C35.2498 199.001 35.0248 198.851 34.8748 198.626C34.7247 198.401 34.7997 198.101 34.9498 197.876L38.6248 192.776C38.7748 192.551 38.9998 192.476 39.2248 192.476H48.6747C48.8997 192.476 49.1247 192.626 49.2747 192.776L52.9497 197.876C53.0997 198.101 53.1747 198.401 53.0247 198.626C52.9498 198.851 52.6498 199.001 52.3498 199.001ZM36.9748 197.501H50.8498L48.2248 193.901H39.5998L36.9748 197.501Z" fill="#113255"/>
<path d="M24.75 186.85V190.9C24.75 192.175 25.8 193.225 27.075 193.225H61.6499C62.9249 193.225 63.9749 192.175 63.9749 190.9V186.85H24.75Z" fill="#DBF5F8"/>
<path d="M61.65 193.9H27.075C25.35 193.9 24 192.55 24 190.825V186.775C24 186.325 24.3 186.025 24.75 186.025H63.975C64.4251 186.025 64.7251 186.325 64.7251 186.775V190.825C64.725 192.55 63.3 193.9 61.65 193.9ZM25.5 187.6V190.9C25.5 191.8 26.175 192.475 27.075 192.475H61.65C62.55 192.475 63.225 191.8 63.225 190.9V187.6H25.5Z" fill="#113255"/>
<path d="M49.875 189.325H48.375V190.9H49.875V189.325Z" fill="#113255"/>
<path d="M44.7002 189.325H43.2002V190.9H44.7002V189.325Z" fill="#113255"/>
<path d="M39.5249 189.325H38.0249V190.9H39.5249V189.325Z" fill="#113255"/>
<path d="M42.0752 169.226V176.876L48.3001 173.051L42.0752 169.226Z" fill="#DBF5F8"/>
</g>
<defs>
<filter id="filter0_d" x="87" y="280" width="100" height="100" filterUnits="userSpaceOnUse" color-interpolation-filters="sRGB">
<feFlood flood-opacity="0" result="BackgroundImageFix"/>
<feColorMatrix in="SourceAlpha" type="matrix" values="0 0 0 0 0 0 0 0 0 0 0 0 0 0 0 0 0 0 127 0"/>
<feOffset dx="2" dy="12"/>
<feGaussianBlur stdDeviation="7"/>
<feColorMatrix type="matrix" values="0 0 0 0 0 0 0 0 0 0 0 0 0 0 0 0 0 0 0.25 0"/>
<feBlend mode="normal" in2="BackgroundImageFix" result="effect1_dropShadow"/>
<feBlend mode="normal" in="SourceGraphic" in2="effect1_dropShadow" result="shape"/>
</filter>
<filter id="filter1_d" x="205" y="219" width="100" height="101" filterUnits="userSpaceOnUse" color-interpolation-filters="sRGB">
<feFlood flood-opacity="0" result="BackgroundImageFix"/>
<feColorMatrix in="SourceAlpha" type="matrix" values="0 0 0 0 0 0 0 0 0 0 0 0 0 0 0 0 0 0 127 0"/>
<feOffset dx="5" dy="15"/>
<feGaussianBlur stdDeviation="7"/>
<feColorMatrix type="matrix" values="0 0 0 0 0 0 0 0 0 0 0 0 0 0 0 0 0 0 0.25 0"/>
<feBlend mode="normal" in2="BackgroundImageFix" result="effect1_dropShadow"/>
<feBlend mode="normal" in="SourceGraphic" in2="effect1_dropShadow" result="shape"/>
</filter>
<filter id="filter2_d" x="340" y="139" width="100" height="101" filterUnits="userSpaceOnUse" color-interpolation-filters="sRGB">
<feFlood flood-opacity="0" result="BackgroundImageFix"/>
<feColorMatrix in="SourceAlpha" type="matrix" values="0 0 0 0 0 0 0 0 0 0 0 0 0 0 0 0 0 0 127 0"/>
<feOffset dx="5" dy="15"/>
<feGaussianBlur stdDeviation="7"/>
<feColorMatrix type="matrix" values="0 0 0 0 0 0 0 0 0 0 0 0 0 0 0 0 0 0 0.25 0"/>
<feBlend mode="normal" in2="BackgroundImageFix" result="effect1_dropShadow"/>
<feBlend mode="normal" in="SourceGraphic" in2="effect1_dropShadow" result="shape"/>
</filter>
<filter id="filter3_d" x="202" y="60" width="100" height="100" filterUnits="userSpaceOnUse" color-interpolation-filters="sRGB">
<feFlood flood-opacity="0" result="BackgroundImageFix"/>
<feColorMatrix in="SourceAlpha" type="matrix" values="0 0 0 0 0 0 0 0 0 0 0 0 0 0 0 0 0 0 127 0"/>
<feOffset dx="2" dy="12"/>
<feGaussianBlur stdDeviation="7"/>
<feColorMatrix type="matrix" values="0 0 0 0 0 0 0 0 0 0 0 0 0 0 0 0 0 0 0.25 0"/>
<feBlend mode="normal" in2="BackgroundImageFix" result="effect1_dropShadow"/>
<feBlend mode="normal" in="SourceGraphic" in2="effect1_dropShadow" result="shape"/>
</filter>
<filter id="filter4_d" x="87" y="0" width="100" height="100" filterUnits="userSpaceOnUse" color-interpolation-filters="sRGB">
<feFlood flood-opacity="0" result="BackgroundImageFix"/>
<feColorMatrix in="SourceAlpha" type="matrix" values="0 0 0 0 0 0 0 0 0 0 0 0 0 0 0 0 0 0 127 0"/>
<feOffset dx="2" dy="12"/>
<feGaussianBlur stdDeviation="7"/>
<feColorMatrix type="matrix" values="0 0 0 0 0 0 0 0 0 0 0 0 0 0 0 0 0 0 0.25 0"/>
<feBlend mode="normal" in2="BackgroundImageFix" result="effect1_dropShadow"/>
<feBlend mode="normal" in="SourceGraphic" in2="effect1_dropShadow" result="shape"/>
</filter>
<filter id="filter5_d" x="0" y="137" width="100" height="100" filterUnits="userSpaceOnUse" color-interpolation-filters="sRGB">
<feFlood flood-opacity="0" result="BackgroundImageFix"/>
<feColorMatrix in="SourceAlpha" type="matrix" values="0 0 0 0 0 0 0 0 0 0 0 0 0 0 0 0 0 0 127 0"/>
<feOffset dx="2" dy="12"/>
<feGaussianBlur stdDeviation="7"/>
<feColorMatrix type="matrix" values="0 0 0 0 0 0 0 0 0 0 0 0 0 0 0 0 0 0 0.25 0"/>
<feBlend mode="normal" in2="BackgroundImageFix" result="effect1_dropShadow"/>
<feBlend mode="normal" in="SourceGraphic" in2="effect1_dropShadow" result="shape"/>
</filter>
<linearGradient id="paint0_linear" x1="125.268" y1="322.778" x2="155.783" y2="354.082" gradientUnits="userSpaceOnUse">
<stop stop-color="#FF7044"/>
<stop offset="1" stop-color="#F92814"/>
</linearGradient>
<linearGradient id="paint1_linear" x1="121.424" y1="325.86" x2="129.582" y2="334.018" gradientUnits="userSpaceOnUse">
<stop stop-color="#F9F7FC"/>
<stop offset="1" stop-color="#F0DDFC"/>
</linearGradient>
<linearGradient id="paint2_linear" x1="142.209" y1="323.619" x2="149.952" y2="333.574" gradientUnits="userSpaceOnUse">
<stop stop-color="#F9F7FC"/>
<stop offset="1" stop-color="#F0DDFC"/>
</linearGradient>
<linearGradient id="paint3_linear" x1="154.462" y1="295.566" x2="157.91" y2="299.014" gradientUnits="userSpaceOnUse">
<stop stop-color="#FF7044"/>
<stop offset="1" stop-color="#F92814"/>
</linearGradient>
<linearGradient id="paint4_linear" x1="155.768" y1="298.094" x2="156.214" y2="293.064" gradientUnits="userSpaceOnUse">
<stop stop-color="#FF7044" stop-opacity="0"/>
<stop offset="1" stop-color="#FFA425"/>
</linearGradient>
<linearGradient id="paint5_linear" x1="152.545" y1="301.103" x2="155.05" y2="297.324" gradientUnits="userSpaceOnUse">
<stop stop-color="#F0DDFC" stop-opacity="0"/>
<stop offset="0.2889" stop-color="#C8B7E0" stop-opacity="0.289"/>
<stop offset="0.5915" stop-color="#A595C8" stop-opacity="0.592"/>
<stop offset="0.8395" stop-color="#8F81B8" stop-opacity="0.84"/>
<stop offset="1" stop-color="#8779B3"/>
</linearGradient>
<linearGradient id="paint6_linear" x1="154.336" y1="298.741" x2="153.595" y2="299.548" gradientUnits="userSpaceOnUse">
<stop stop-color="#F9F7FC"/>
<stop offset="1" stop-color="#F0DDFC"/>
</linearGradient>
<linearGradient id="paint7_linear" x1="130.478" y1="317.469" x2="135.634" y2="322.625" gradientUnits="userSpaceOnUse">
<stop stop-color="#FFDAAA"/>
<stop offset="0.4213" stop-color="#FFD8A8"/>
<stop offset="0.6519" stop-color="#FED1A0"/>
<stop offset="0.8359" stop-color="#FDC592"/>
<stop offset="0.9951" stop-color="#FCB47F"/>
<stop offset="1" stop-color="#FCB37E"/>
</linearGradient>
<linearGradient id="paint8_linear" x1="133.854" y1="321.237" x2="130.458" y2="316.567" gradientUnits="userSpaceOnUse">
<stop stop-color="#FFDAAA" stop-opacity="0"/>
<stop offset="0.2507" stop-color="#FFE7C8" stop-opacity="0.251"/>
<stop offset="0.5543" stop-color="#FFF4E6" stop-opacity="0.554"/>
<stop offset="0.8148" stop-color="#FFFCF8" stop-opacity="0.815"/>
<stop offset="1" stop-color="white"/>
</linearGradient>
<linearGradient id="paint9_linear" x1="140.718" y1="307.229" x2="145.874" y2="312.385" gradientUnits="userSpaceOnUse">
<stop stop-color="#FFDA45"/>
<stop offset="1" stop-color="#FFA425"/>
</linearGradient>
<linearGradient id="paint10_linear" x1="142.06" y1="308.482" x2="146.157" y2="312.579" gradientUnits="userSpaceOnUse">
<stop stop-color="#FFDA45"/>
<stop offset="1" stop-color="#FFA425"/>
</linearGradient>
<linearGradient id="paint11_linear" x1="144.505" y1="311.382" x2="140.277" y2="304.241" gradientUnits="userSpaceOnUse">
<stop stop-color="#FFDA45" stop-opacity="0"/>
<stop offset="1" stop-color="#FCEE21"/>
</linearGradient>
<linearGradient id="paint12_linear" x1="130.519" y1="322.274" x2="131.834" y2="323.59" gradientUnits="userSpaceOnUse">
<stop stop-color="#7E8595"/>
<stop offset="1" stop-color="#555A66"/>
</linearGradient>
<linearGradient id="paint13_linear" x1="149.956" y1="306.474" x2="153.756" y2="296.009" gradientUnits="userSpaceOnUse">
<stop stop-color="#FFDA45" stop-opacity="0"/>
<stop offset="1" stop-color="#B53759"/>
</linearGradient>
<linearGradient id="paint14_linear" x1="152.572" y1="300.504" x2="151.832" y2="301.31" gradientUnits="userSpaceOnUse">
<stop stop-color="#F9F7FC"/>
<stop offset="1" stop-color="#F0DDFC"/>
</linearGradient>
<clipPath id="clip0">
<rect width="48" height="48" fill="white" transform="translate(111 294)"/>
</clipPath>
<clipPath id="clip1">
<rect width="48" height="48" fill="white" transform="translate(24 151)"/>
</clipPath>
</defs>
</svg>
