<svg width="344" height="518" viewBox="0 0 344 518" fill="none" xmlns="http://www.w3.org/2000/svg">
<path d="M227.979 0C273.142 0 309.747 36.6055 309.747 81.7678C309.747 126.93 273.142 163.536 227.979 163.536C182.817 163.536 146.212 126.93 146.212 81.7678C146.212 36.6055 182.817 0 227.979 0ZM227.979 131.428C255.408 131.428 277.64 109.196 277.64 81.7678C277.64 54.3395 255.408 32.1074 227.979 32.1074C200.551 32.1074 178.319 54.3395 178.319 81.7678C178.319 109.196 200.551 131.428 227.979 131.428Z" fill="#FAA017"/>
<path d="M201.507 517.013C255.33 517.013 305.934 496.048 344 457.994L342.177 456.172C264.611 533.739 138.417 533.739 60.8502 456.172C23.2753 418.597 2.58133 368.639 2.58133 315.515C2.58133 262.39 23.2753 212.42 60.8502 174.858L59.0277 173.035C20.9616 211.101 0.00915527 261.705 0.00915527 315.528C0.00915527 369.35 20.9745 419.954 59.0277 458.02C97.0809 496.061 147.685 517.013 201.507 517.013Z" fill="#D5D5D5"/>
<path d="M201.507 503.066C249.565 503.066 297.61 484.777 334.189 448.197L332.367 446.374C260.216 518.526 142.812 518.526 70.6479 446.374C-1.50314 374.223 -1.50314 256.807 70.6479 184.656L68.8255 182.833C-4.33383 255.992 -4.33383 375.038 68.8255 448.21C105.405 484.777 153.463 503.066 201.507 503.066Z" fill="#D5D5D5"/>
<path d="M201.508 489.288C247.924 489.288 291.561 471.205 324.392 438.386L322.57 436.564C290.23 468.904 247.239 486.703 201.521 486.703C155.79 486.703 112.799 468.891 80.4718 436.564C48.1318 404.224 30.3331 361.233 30.3331 315.515C30.3331 269.784 48.1447 226.793 80.4718 194.466L78.6492 192.644C45.831 225.462 27.7479 269.112 27.7479 315.528C27.7479 361.944 45.831 405.581 78.6492 438.412C111.455 471.205 155.092 489.288 201.508 489.288Z" fill="#D5D5D5"/>
<path d="M201.508 475.341C242.456 475.341 283.405 459.753 314.582 428.576L312.759 426.754C251.414 488.099 151.602 488.099 90.2565 426.754C28.9113 365.409 28.9113 265.596 90.2565 204.251L88.434 202.429C26.0806 264.782 26.0806 366.236 88.434 428.576C119.611 459.753 160.559 475.341 201.508 475.341Z" fill="#D5D5D5"/>
<path d="M201.508 461.485C238.902 461.485 276.308 447.254 304.784 418.778L302.961 416.956C247.019 472.898 156.009 472.898 100.08 416.956C44.1375 361.013 44.1375 270.004 100.08 214.074L98.2573 212.252C41.3197 269.19 41.3197 361.854 98.2573 418.791C126.707 447.254 164.114 461.485 201.508 461.485Z" fill="#D5D5D5"/>
<path d="M201.507 447.628C235.359 447.628 269.212 434.741 294.973 408.98L293.15 407.157C242.624 457.684 160.404 457.684 109.877 407.157C85.3959 382.676 71.9143 350.129 71.9143 315.514C71.9143 280.899 85.3959 248.353 109.877 223.871L108.055 222.049C83.0821 247.008 69.3421 280.214 69.3421 315.514C69.3421 350.814 83.095 384.02 108.055 408.98C133.815 434.741 167.655 447.628 201.507 447.628Z" fill="#D5D5D5"/>
<path d="M201.507 433.772C231.805 433.772 262.103 422.243 285.175 399.17L283.353 397.348C238.229 442.471 164.811 442.471 119.688 397.348C74.5644 352.224 74.5644 278.806 119.688 233.683L117.865 231.86C71.7337 277.992 71.7337 353.051 117.865 399.183C140.912 422.23 171.21 433.772 201.507 433.772Z" fill="#D5D5D5"/>
<path d="M121.11 163.768L128.568 171.213V163.768H121.11Z" fill="#D5D5D5"/>
<path d="M107.305 163.768L128.568 185.03V177.585L114.75 163.768H107.305Z" fill="#D5D5D5"/>
<path d="M65.9689 163.768L128.568 226.354V219.025L73.3106 163.768H65.9689Z" fill="#D5D5D5"/>
<path d="M79.67 163.768L128.568 212.652V205.207L87.1152 163.768H79.67Z" fill="#D5D5D5"/>
<path d="M93.4876 163.768L128.568 198.848V191.39L100.933 163.768H93.4876Z" fill="#D5D5D5"/>
</svg>
