<svg xmlns="http://www.w3.org/2000/svg" viewBox="0 0 16 16.02"><defs><style>.cls-1{fill:#00a99d;}</style></defs><title>verified</title><g id="Layer_2" data-name="Layer 2"><g id="landingPages"><g id="Profile_vendor"><g id="Hero"><g id="Verified"><path class="cls-1" d="M15.9,9.26l-.32-.43a1.45,1.45,0,0,1,0-1.74l.32-.43A.57.57,0,0,0,16,6.18a.59.59,0,0,0-.3-.39l-.49-.26A1.46,1.46,0,0,1,14.4,4l.09-.53A.55.55,0,0,0,14.36,3a.57.57,0,0,0-.45-.21l-.56,0A1.54,1.54,0,0,1,12,1.66l-.14-.51A.63.63,0,0,0,11,.77L10.5,1a1.57,1.57,0,0,1-.6.12A1.56,1.56,0,0,1,8.76.6L8.4.2A.62.62,0,0,0,7.95,0a.59.59,0,0,0-.46.21l-.37.4A1.53,1.53,0,0,1,6,1.12,1.66,1.66,0,0,1,5.41,1L4.9.8a.85.85,0,0,0-.23,0,.6.6,0,0,0-.58.43l-.14.52A1.54,1.54,0,0,1,2.56,2.82L2,2.84a.63.63,0,0,0-.45.23.55.55,0,0,0-.12.47l.1.52A1.47,1.47,0,0,1,.79,5.63L.31,5.9a.59.59,0,0,0-.3.39.62.62,0,0,0,.1.48l.32.43a1.45,1.45,0,0,1,0,1.74l-.32.43A.57.57,0,0,0,0,9.85a.56.56,0,0,0,.3.39l.49.26A1.49,1.49,0,0,1,1.62,12l-.1.53a.6.6,0,0,0,.13.47.56.56,0,0,0,.43.22l.56,0A1.52,1.52,0,0,1,4,14.36l.16.52a.6.6,0,0,0,.58.42.58.58,0,0,0,.23,0l.51-.21a1.55,1.55,0,0,1,.59-.12,1.52,1.52,0,0,1,1.14.5l.37.4a.63.63,0,0,0,.91,0l.36-.4A1.53,1.53,0,0,1,10,14.91a1.49,1.49,0,0,1,.58.11l.51.2a.5.5,0,0,0,.22,0,.61.61,0,0,0,.59-.43l.14-.52a1.49,1.49,0,0,1,1.37-1.08l.55,0a.59.59,0,0,0,.45-.23.55.55,0,0,0,.12-.47l-.1-.53a1.48,1.48,0,0,1,.76-1.57l.48-.26a.62.62,0,0,0,.3-.39A.65.65,0,0,0,15.9,9.26ZM13,5.9l-6,5.88a1.2,1.2,0,0,1-1.66,0L2.94,9.28A1.17,1.17,0,0,1,4.6,7.65L6.27,9.31l5.12-5.07a1.2,1.2,0,0,1,1.67,0A1.17,1.17,0,0,1,13,5.9Z"/></g></g></g></g></g></svg>