<svg xmlns="http://www.w3.org/2000/svg" viewBox="0 0 150 44.86"><defs><style>.cls-1{fill:#b9b9b9;}.cls-2{fill:#1e1e1e;}</style></defs><g id="Layer_2" data-name="Layer 2"><g id="Layer_1-2" data-name="Layer 1"><path class="cls-1" d="M70.13,0H97.61V43.59c0,.62.17,1.27-.91,1.25-3.75-.07-7.5,0-11.24-.05A29.26,29.26,0,0,1,82,42.62a49.53,49.53,0,0,1-7.41-8.23c-2.49-3.2-4.82-6.53-7.87-9.26a22.29,22.29,0,0,0-3.39-2.35,22.67,22.67,0,0,0,4.56-1.14,18.37,18.37,0,0,0,3.91-2c7.12-4.79,6.19-14.19.86-18C71.87,1,71,.55,70.13,0Z"/><path class="cls-1" d="M14.51,0H45.24q0,21.78,0,43.55c0,1-.22,1.3-1.24,1.27-2.63-.08-5.26,0-7.89,0a15.17,15.17,0,0,1-5.55-7.29c-3-7.19-6.16-14.33-9.24-21.5C19.05,10.69,16.79,5.35,14.51,0Z"/><path class="cls-2" d="M146.05,44.79l-12.89,0a6.2,6.2,0,0,0,2.35-2.14,7.74,7.74,0,0,0,.79-3.74q0-15.93,0-31.85V6.35l-.17,0L119.45,44.8l-2.74,0c-.11-.3-.19-.61-.32-.9q-2.91-6.65-5.83-13.27l-5.79-13.16q0-8.49,0-17c.41.25.46.71.63,1.09q5.42,12.35,10.81,24.7c1.4,3.22,2.77,6.45,4.2,9.78.19-.41.34-.69.46-1Q126.44,22.13,132,9.21c1.31-3.05,2.75-6.06,3.89-9.19h9.52c.19.09.15.23,0,.32-2,1.38-2.38,3.45-2.37,5.68,0,10.89,0,21.78,0,32.67C143.06,41.27,143.72,43.41,146.05,44.79Z"/><path class="cls-1" d="M135.91,0c-1.14,3.13-2.58,6.14-3.89,9.19q-5.57,12.93-11.16,25.85c-.12.28-.27.56-.46,1-1.43-3.33-2.8-6.56-4.2-9.78q-5.4-12.36-10.81-24.7c-.17-.38-.22-.84-.63-1.09V0Z"/><path class="cls-1" d="M22.34,44.79,0,44.82V29.31c.64.17.51-.43.62-.68C2.1,25.28,3.53,21.92,5,18.56Q7.4,12.94,9.8,7.33a.74.74,0,0,1,.43.53Q17,23.57,23.75,39.26C24.83,41.76,24.45,43,22.34,44.79Z"/><path class="cls-2" d="M22.34,44.79c2.11-1.75,2.49-3,1.41-5.53Q17,23.54,10.23,7.86a.74.74,0,0,0-.43-.53Q7.38,12.94,5,18.56C3.53,21.92,2.1,25.28.63,28.63c-.11.25,0,.85-.62.68v-6a3,3,0,0,0,.27-.45Q5.05,11.79,9.8.73A1.09,1.09,0,0,0,10,0h4.54c2.28,5.33,4.54,10.67,6.83,16,3.08,7.17,6.22,14.31,9.24,21.5a15.17,15.17,0,0,0,5.55,7.29Z"/><path class="cls-2" d="M85.46,44.79H73.84a1,1,0,0,0-.13-.29A173.65,173.65,0,0,1,60.78,27.56c-2.1-3.07-4.61-4.45-8.24-3.93h-.11l0-1.86c2.47-.15,5,.1,7.43-.21,4.14-.52,7.3-2.3,8.68-6.47a14.6,14.6,0,0,0,.62-3.59c.33-5.12-1.8-9.58-6.58-11.09-.15,0-.48-.08-.21-.4h7.79c.85.53,1.74,1,2.55,1.59,5.33,3.81,6.26,13.21-.86,18a18.37,18.37,0,0,1-3.91,2,22.67,22.67,0,0,1-4.56,1.14,22.29,22.29,0,0,1,3.39,2.35c3.05,2.73,5.38,6.06,7.87,9.26A49.53,49.53,0,0,0,82,42.62,29.26,29.26,0,0,0,85.46,44.79Z"/><path class="cls-1" d="M62.34,0c-.27.32.06.35.21.4,4.78,1.51,6.91,6,6.58,11.09a14.6,14.6,0,0,1-.62,3.59c-1.38,4.17-4.54,6-8.68,6.47-2.47.31-5,.06-7.43.21q0-10.88,0-21.76Z"/><path class="cls-1" d="M146.05,44.79c-2.33-1.38-3-3.52-3-6.1,0-10.89,0-21.78,0-32.67,0-2.23.34-4.3,2.37-5.68.12-.09.16-.23,0-.32H150c0,14.48,0,29,0,43.45,0,1.07-.23,1.5-1.36,1.36A24.78,24.78,0,0,0,146.05,44.79Z"/><path class="cls-1" d="M10,0A1.09,1.09,0,0,1,9.8.73Q5,11.79.28,22.83a3,3,0,0,1-.27.45C0,15.8,0,8.33,0,.85,0,.23.07,0,.8,0,3.86.05,6.91,0,10,0Z"/><path class="cls-1" d="M119.45,44.8,136.14,6.31l.17,0V7q0,15.93,0,31.85a7.74,7.74,0,0,1-.79,3.74,6.2,6.2,0,0,1-2.35,2.14Z"/><path class="cls-1" d="M52.43,23.64h.11c3.63-.52,6.14.86,8.24,3.93A173.65,173.65,0,0,0,73.71,44.49a1,1,0,0,1,.13.29l-20.62,0c-.56,0-.85-.11-.85-.76Q52.43,33.85,52.43,23.64Z"/><path class="cls-1" d="M104.77,17.44l5.79,13.16q2.91,6.63,5.83,13.27c.13.29.21.6.32.9-3.72,0-7.43,0-11.14.06-.94,0-.82-.55-.82-1.12V22.82C104.75,21,104.77,19.24,104.77,17.44Z"/></g></g></svg>