<?xml version="1.0" encoding="utf-8"?>
<!-- Generator: Adobe Illustrator 25.0.1, SVG Export Plug-In . SVG Version: 6.00 Build 0)  -->
<svg version="1.1" id="Layer_1" xmlns="http://www.w3.org/2000/svg" xmlns:xlink="http://www.w3.org/1999/xlink" x="0px" y="0px"
	 viewBox="0 0 150 44.9" style="enable-background:new 0 0 150 44.9;" xml:space="preserve">
<g>
	<path d="M-0.2,45.3H46V-0.5H-0.2V45.3z M0.7,29.2C0.8,29.2,0.8,29.1,0.7,29.2c0.1-0.2,0.1-0.4,0.1-0.5c1.5-3.4,2.9-6.7,4.4-10.1
		c1.6-3.8,3.2-7.5,4.8-11.2c0.2,0.1,0.4,0.3,0.4,0.5c4.5,10.5,9,20.9,13.5,31.4c0.5,1.1,0.7,1.9,0.6,2.7s-0.6,1.5-1.4,2.3H0.7V29.2z
		 M45,44.3h-9.2c-2.2-1.8-3.9-4.1-4.9-6.8c-3-7.2-6.2-14.3-9.2-21.5C19.4,10.9,17.2,5.7,15,0.5h30V44.3z M10.2,0.5
		c0,0.1-0.1,0.2-0.1,0.2C7,8,3.9,15.2,0.7,22.4V0.5H10.2z"/>
	<path d="M52.1,45.3h46.2V-0.5H52.1V45.3z M53.1,23.6c2.7-0.3,4.8,0.5,6.5,2.2c0.5,0.5,1,1.1,1.4,1.8c3.9,5.8,8.2,11.4,12.8,16.7
		H53.1V23.6z M97.4,44.3H84.9c-0.9-0.5-1.8-1.1-2.6-1.7c-0.3-0.3-0.7-0.6-1-0.9C79,39.5,76.8,37,75,34.4c-2.5-3.2-4.8-6.5-7.9-9.3
		c-1-0.9-2.2-1.6-3.4-2.3l0,0c1.6-0.2,3.1-0.6,4.6-1.1c0.7-0.3,1.4-0.5,2-0.9c0.6-0.3,1.3-0.7,1.9-1.1c0.7-0.4,1.2-0.9,1.7-1.4
		c5.2-5,4-13.1-0.9-16.6c-0.5-0.4-1.1-0.7-1.7-1.1h26.1C97.4,0.6,97.4,44.3,97.4,44.3z M63.1,0.5c0.7,0.2,1.4,0.6,2,0.9
		c3.2,2,4.6,5.8,4.3,10c-0.1,1.2-0.3,2.4-0.6,3.6c-0.9,2.6-2.4,4.3-4.5,5.3c-0.2,0.1-0.5,0.2-0.7,0.3c-0.4,0.2-0.8,0.3-1.3,0.4
		s-1,0.2-1.5,0.3c-0.2,0-0.5,0.1-0.7,0.1c-2.3,0.3-4.7,0.1-7,0.2V0.5H63.1z"/>
	<path d="M104-0.5v45.8h46.2V-0.5H104z M105.1,0.5H136c-1.1,3-2.5,5.8-3.7,8.7c-2,4.6-4,9.2-5.9,13.7c-1.7,4-3.5,8.1-5.2,12.1
		c-0.1,0.3-0.3,0.6-0.5,1c-1.4-3.3-2.8-6.5-4.2-9.8c-3.6-8.2-7.2-16.5-10.8-24.7C105.5,1.2,105.4,0.9,105.1,0.5
		C105.1,0.6,105.1,0.6,105.1,0.5z M136.4,6.4h0.2V39c0,0.2,0,0.5,0,0.8c0,0.6-0.1,1.1-0.3,1.7c-0.1,0.4-0.3,0.9-0.5,1.3
		c-0.4,0.6-0.9,1.2-1.6,1.6h-14.3L136.4,6.4z M105,0.5L105,0.5v16.9l0,0l5.8,13.2c1,2.2,2,4.4,2.9,6.6c1,2.2,1.9,4.4,2.9,6.6
		c0.1,0.1,0.1,0.3,0.1,0.4H105V0.5z M149.3,44.3h-3.7c-1.5-1.2-2.1-2.8-2.2-4.7c0-0.3,0-0.6,0-1V6c0-1,0.1-1.9,0.3-2.8V3.1
		c0-0.1,0.1-0.2,0.1-0.3s0.1-0.2,0.1-0.4c0-0.1,0.1-0.2,0.2-0.3c0.1-0.2,0.3-0.4,0.4-0.7c0.1-0.1,0.2-0.2,0.2-0.3
		c0.1-0.1,0.2-0.2,0.3-0.3s0.3-0.3,0.5-0.4h3.8L149.3,44.3L149.3,44.3z"/>
</g>
</svg>
