<?xml version="1.0" encoding="utf-8"?>
<!-- Generator: Adobe Illustrator 25.0.1, SVG Export Plug-In . SVG Version: 6.00 Build 0)  -->
<svg version="1.1" id="Layer_1" xmlns="http://www.w3.org/2000/svg" xmlns:xlink="http://www.w3.org/1999/xlink" x="0px" y="0px"
	 viewBox="0 0 150 32.7" style="enable-background:new 0 0 150 32.7;" xml:space="preserve">
<style type="text/css">
	.st0{fill:#FFFFFF;}
</style>
<g id="Layer_2_1_">
	<g id="Layer_1-2">
		<path class="st0" d="M0,13.4C0,9.5,0,5.5,0,1.6c0-0.8,0.3-1.1,1.1-1.1c3.2,0,6.4,0,9.6,0c4.4,0,7.9,1.9,9.9,5.8
			c2.4,4.5,2.5,9.9,0.1,14.5c-1.7,3.4-5.2,5.6-9,5.6c-3.6,0.1-7.2,0-10.8,0.1c-0.8,0-0.9-0.4-0.9-1C0,21.4,0,17.4,0,13.4z M5.4,13.4
			c0,2.5,0,4.9,0,7.4c0,0.6,0.2,0.9,0.9,0.9c1.5,0,3,0,4.6,0c2.6,0.1,4.9-1.7,5.5-4.3c0.8-2.6,0.7-5.4-0.2-8c-0.8-2.6-3.3-4.4-6-4.2
			c-1.2,0-2.5,0-3.7,0c-0.7,0-0.9,0.2-0.9,0.9C5.5,8.5,5.5,11,5.4,13.4L5.4,13.4z"/>
		<path class="st0" d="M82.6,18.3h0.4c0.6-0.1,1.2,0,1.8,0.1c0.7,0.2,0.4,1.1,0.7,1.6c0.4,1.1,1.3,1.9,2.4,2.2
			c1.8,0.5,3.7,0.5,5.4,0c1.3-0.3,2.2-1.4,2.3-2.7c0-1.3-0.6-2.2-2.1-2.8c-1.9-0.6-3.8-1.1-5.7-1.5c-1-0.3-2-0.6-3-1
			c-2.5-0.8-4.2-3.1-4.3-5.7c-0.4-2.8,1-5.6,3.5-7c2.2-1.2,4.7-1.7,7.1-1.5c2.3,0,4.5,0.7,6.3,2.1c1.5,1.2,2.6,3,2.8,5
			c0.1,0.7-0.1,0.9-0.8,0.9c-1.2,0-2.4,0-3.6,0c-0.5,0.1-0.9-0.2-1-0.7c-0.5-1.7-2.1-2.9-3.9-2.9c-1.2-0.2-2.4,0-3.5,0.4
			C86.7,5.2,86,6.2,86,7.3c0,1.1,0.7,2,1.8,2.3c1.6,0.6,3.3,1,5,1.3c1.5,0.3,3,0.8,4.5,1.4c5.4,2.4,4.7,9.5,1.4,12.2
			c-1.6,1.3-3.5,2.1-5.5,2.3c-2.7,0.4-5.4,0.1-8-0.8c-2.9-1-5-3.7-5.3-6.8c-0.1-0.7,0.1-1,0.8-1S82,18.3,82.6,18.3z"/>
		<path class="st0" d="M122.2,23.3c-2.2,2.3-5.7,2.7-8.4,1.1c-3.1-1.5-4.5-4.2-4.6-7.6c-0.1-1.9,0.2-3.8,1.1-5.5
			c1.9-3.5,6.1-5,9.8-3.5c0.8,0.4,1.4,0.8,2,1.5c0.4-1.5,0.4-1.5,1.9-1.5c0.8,0,1.6,0,2.4,0c0.6,0,0.9,0.2,0.9,0.8
			c0,5.6,0.1,11.2-0.1,16.8c-0.1,4.3-2.9,7-7.2,7.3c-1.9,0.2-3.7,0.1-5.6-0.4c-2.3-0.5-4.2-2.3-4.8-4.6c-0.2-0.7,0-1,0.7-0.9
			c1.2,0,2.3,0,3.5,0c0.4,0,0.8,0.2,1,0.6c0.9,1.4,3,1.9,5,1.3c1.5-0.5,2.3-1.6,2.3-3.5C122.2,24.5,122.2,24,122.2,23.3z
			 M122.4,16.3c0.1-1.1-0.3-2.3-0.9-3.2c-1.3-1.8-3.8-2.2-5.6-0.9c-0.4,0.3-0.7,0.6-1,1c-0.9,1.5-1.1,3.3-0.6,5
			c0.5,2.1,2.6,3.4,4.7,2.9c0.1,0,0.2,0,0.3-0.1C121.4,20.5,122.4,18.9,122.4,16.3L122.4,16.3z"/>
		<path class="st0" d="M32.6,26.9c-5.2,0.2-9.6-3.9-9.8-9.2c0-0.2,0-0.5,0-0.7c-0.2-5.3,3.9-9.7,9.2-9.9c0.2,0,0.4,0,0.6,0
			c5.3-0.1,9.6,4.1,9.8,9.3c0,0.2,0,0.4,0,0.5c0.2,5.2-3.8,9.6-9.1,9.8C33.1,26.9,32.9,26.9,32.6,26.9z M37.2,17
			c0.1-1-0.1-2-0.5-2.9c-0.5-1.8-2.3-3-4.1-2.9c-1.8,0-3.5,1.2-4,2.9C28,16,28,17.9,28.5,19.8c0.4,1.9,2.1,3.2,4.1,3.2
			c2,0.1,3.7-1.2,4.2-3.1C37.1,18.9,37.2,18,37.2,17z"/>
		<path class="st0" d="M134.1,9.8c1.3-1.6,3.3-2.6,5.3-2.6c3.5-0.2,6.4,2.5,6.6,6c0,0.1,0,0.2,0,0.2c0.1,4.1,0,8.1,0,12.2
			c0,0.6-0.2,0.8-0.8,0.8c-1.1,0-2.3,0-3.4,0c-0.8,0-1-0.3-1-1c0-3.2,0-6.4,0-9.5v-0.4c0-2.4-1-3.6-2.9-3.7c-2-0.1-3.6,1.4-3.8,3.4
			c0,0.1,0,0.2,0,0.3c-0.1,2.9,0,5.9,0,8.8c0,0.4,0,0.7,0,1.1c0.1,0.9-0.2,1.2-1.1,1.1c-1.1-0.1-2.1,0-3.2,0c-0.6,0-0.8-0.2-0.8-0.8
			c0-5.7,0-11.4,0-17.1c0-0.6,0.2-0.8,0.8-0.8c1.1,0,2.2,0,3.3,0c0.7,0,0.9,0.3,0.9,0.9C134.1,9,134.1,9.4,134.1,9.8z"/>
		<path class="st0" d="M73.9,24.7c-0.2,0-0.3,0.1-0.4,0.2c-2.2,2.4-5,2.5-7.8,1.5c-2.1-0.8-3.5-2.9-3.5-5.2c-0.2-4.2,0-8.4-0.1-12.7
			c0-0.6,0.3-0.8,0.8-0.8c1,0,2.1,0,3.1,0s1.2,0.2,1.2,1.2c0,3.2,0,6.4,0,9.5c0,0.3,0,0.6,0,1c0,1.8,0.7,2.8,2.2,3.1
			c1.6,0.3,3.3-0.5,3.9-2.1c0.3-0.7,0.4-1.4,0.4-2.1c0-3.1,0-6.3,0-9.4c0-0.9,0.3-1.2,1.2-1.2c1,0.1,2,0.1,2.9,0c0.8,0,1,0.2,1,1
			c0,4.8,0,9.6,0,14.4c0,0.7,0,1.4,0,2.1s-0.2,1.1-1,1.1c-0.9-0.1-1.9-0.1-2.8,0c-0.8,0.1-1.2-0.3-1.1-1.1
			C74,25.1,74,24.9,73.9,24.7z"/>
		<path class="st0" d="M58.5,14.3c-0.2,0-0.4,0-0.6,0c-1,0.2-2-0.3-2.3-1.3c-0.9-1.9-3.7-2.1-5.4-0.8C47.9,14,48,20,50,21.8
			c1.5,1.4,5.5,1.5,6.2-1.4c0.1-0.5,0.5-0.8,1-0.7c1.1,0,2.1,0,3.2,0c0.8,0,0.9,0.3,0.8,1c-0.4,2.4-2,4.4-4.2,5.4
			c-4.1,1.9-9,0.8-11.8-2.8c-3.1-4.1-2.6-12,2.9-15c3.5-1.9,8.5-1.3,11.1,1.6c0.9,1,1.5,2.2,1.8,3.5c0.2,0.6-0.1,0.9-0.7,0.9
			L58.5,14.3L58.5,14.3z"/>
		<path class="st0" d="M107.7,17.1c0,2.8,0,5.6,0,8.4c0,0.7-0.2,1-1,1c-1.1,0-2.2,0-3.3,0c-0.6,0-0.9-0.2-0.9-0.8c0-5.7,0-11.3,0-17
			c0-0.6,0.2-0.9,0.8-0.8c1.1,0,2.3,0,3.4,0c0.7,0,0.9,0.3,0.9,1C107.7,11.5,107.7,14.3,107.7,17.1z"/>
		<path class="st0" d="M105.2,0.6c0.6,0,1.2,0,1.9,0c0.4,0,0.7,0.2,0.7,0.6c0,1.2,0,2.3,0,3.5c0,0.5-0.2,0.7-0.7,0.7
			c-1.2,0-2.4,0-3.6,0c-0.5,0-0.8-0.2-0.8-0.7c0-1.1,0-2.2,0-3.3c0-0.6,0.3-0.8,0.8-0.8S104.6,0.6,105.2,0.6L105.2,0.6z"/>
		<path class="st0" d="M150,9.3c0,1.1-1,2-2.1,1.9c-1.1,0-2-1-1.9-2.1c0-1.1,0.9-1.9,2-1.9C149.1,7.2,150,8.1,150,9.3
			C150,9.3,150,9.3,150,9.3z M148.9,10.5c0.5-0.3,0.7-0.9,0.6-1.5c-0.2-0.8-1-1.3-1.8-1.1c0,0-0.1,0-0.1,0c-0.8,0.2-1.2,1.1-1,1.9
			c0.2,0.8,1.1,1.2,1.9,1C148.6,10.7,148.7,10.6,148.9,10.5L148.9,10.5z"/>
		<path class="st0" d="M148.9,10.5c-0.4,0-0.7-0.3-0.9-0.6c-0.2,0.1-0.1,0.6-0.5,0.5s-0.2-0.4-0.2-0.6s0-0.5,0-0.8s0-0.6,0.3-0.7
			c0.4-0.1,0.8,0,1.1,0.2c0.3,0.2,0.3,0.5,0.2,0.8c0,0,0,0,0,0C148.5,9.7,148.9,10,148.9,10.5L148.9,10.5z"/>
	</g>
</g>
</svg>
