<svg xmlns="http://www.w3.org/2000/svg" viewBox="0 0 150 32.72"><g id="Layer_2" data-name="Layer 2"><g id="Layer_1-2" data-name="Layer 1"><path d="M0,13.41C0,9.46,0,5.51,0,1.56,0,.71.27.43,1.12.44c3.21,0,6.42,0,9.64,0,4.44,0,7.87,1.89,9.87,5.85a15.43,15.43,0,0,1,.07,14.48,10,10,0,0,1-9,5.57c-3.59.15-7.2,0-10.8.06-.77,0-.86-.36-.86-1Q0,19.42,0,13.41Zm5.45,0c0,2.47,0,4.93,0,7.39,0,.63.18.92.86.9,1.52,0,3,0,4.55,0a5.48,5.48,0,0,0,5.48-4.26,13.22,13.22,0,0,0-.21-8,5.87,5.87,0,0,0-6-4.24c-1.25,0-2.5,0-3.74,0-.71,0-.94.23-.93.93C5.49,8.53,5.47,11,5.47,13.39Z"/><path d="M82.62,18.26h.45a6,6,0,0,1,1.85.08c.67.24.45,1.08.69,1.63a3.72,3.72,0,0,0,2.44,2.19,9.29,9.29,0,0,0,5.45,0,2.9,2.9,0,0,0,2.27-2.66c0-1.34-.56-2.18-2.06-2.78A44.06,44.06,0,0,0,88,15.19a22.59,22.59,0,0,1-3-1,6.35,6.35,0,0,1-4.3-5.72,7,7,0,0,1,3.53-7A12.93,12.93,0,0,1,91.36,0a10.61,10.61,0,0,1,6.32,2.1,7.8,7.8,0,0,1,2.84,5c.12.66-.08.92-.77.9-1.19,0-2.38,0-3.57,0a.87.87,0,0,1-1-.69,4,4,0,0,0-3.89-2.88,7,7,0,0,0-3.51.43A2.59,2.59,0,0,0,86,7.32a2.41,2.41,0,0,0,1.77,2.31,30.59,30.59,0,0,0,5,1.33,25.29,25.29,0,0,1,4.49,1.45c5.44,2.37,4.7,9.54,1.45,12.18a10.14,10.14,0,0,1-5.54,2.27,17,17,0,0,1-8-.83,8,8,0,0,1-5.29-6.8c-.09-.67.09-1,.83-1S82,18.26,82.62,18.26Z"/><path d="M122.19,23.29a6.9,6.9,0,0,1-8.45,1.13c-3.08-1.53-4.48-4.2-4.59-7.59a10.53,10.53,0,0,1,1.11-5.52,7.78,7.78,0,0,1,9.8-3.53,6.47,6.47,0,0,1,2,1.46c.39-1.49.39-1.49,1.93-1.49.8,0,1.61,0,2.41,0,.59,0,.87.2.87.82,0,5.59.09,11.17-.05,16.75-.12,4.34-2.89,7-7.24,7.33a15.08,15.08,0,0,1-5.56-.42,6.42,6.42,0,0,1-4.79-4.58c-.19-.69,0-.95.7-.94,1.16,0,2.32,0,3.48,0a1.15,1.15,0,0,1,1,.58c.91,1.36,3,1.88,5,1.29,1.53-.45,2.32-1.63,2.35-3.48C122.2,24.54,122.19,24,122.19,23.29Zm.21-7a5.06,5.06,0,0,0-.9-3.18,4,4,0,0,0-6.56.12,6.14,6.14,0,0,0-.55,5,3.92,3.92,0,0,0,5,2.84C121.37,20.47,122.39,18.9,122.4,16.24Z"/><path d="M32.64,26.94a9.46,9.46,0,0,1-9.75-9.84,9.54,9.54,0,0,1,9.82-9.88,9.54,9.54,0,0,1,9.75,9.87A9.47,9.47,0,0,1,32.64,26.94Zm4.55-9.89a6.93,6.93,0,0,0-.46-2.94,4.07,4.07,0,0,0-4.13-2.89,4.06,4.06,0,0,0-4,2.94,9.08,9.08,0,0,0-.08,5.6,4.07,4.07,0,0,0,4.1,3.18,4.17,4.17,0,0,0,4.23-3.15A7.41,7.41,0,0,0,37.19,17.05Z"/><path d="M134.11,9.8a6.94,6.94,0,0,1,5.33-2.58,6.29,6.29,0,0,1,6.6,6.2c.09,4.07,0,8.14,0,12.21,0,.57-.21.8-.79.78-1.13,0-2.26,0-3.39,0-.76,0-1-.29-1-1,0-3.17,0-6.35,0-9.53v-.44c0-2.41-1-3.65-2.91-3.69a3.56,3.56,0,0,0-3.76,3.65c-.07,2.94,0,5.88,0,8.82a9.55,9.55,0,0,0,0,1.07c.09.85-.24,1.17-1.11,1.12-1.06-.06-2.14,0-3.21,0-.57,0-.79-.21-.79-.78q0-8.55,0-17.1c0-.59.25-.79.81-.78,1.1,0,2.2,0,3.3,0,.68,0,.9.28.85.91C134.08,9,134.11,9.42,134.11,9.8Z"/><path d="M73.93,24.68c-.23,0-.31.11-.41.21-2.24,2.38-5,2.53-7.79,1.46a5.37,5.37,0,0,1-3.49-5.17c-.15-4.22-.05-8.44-.07-12.66,0-.59.26-.78.81-.77,1,0,2.09,0,3.12,0s1.21.25,1.19,1.16c0,3.18,0,6.36,0,9.54,0,.32,0,.65,0,1,0,1.83.72,2.79,2.21,3.09a3.5,3.5,0,0,0,3.93-2.07,5.53,5.53,0,0,0,.38-2.09c0-3.15,0-6.3,0-9.45,0-.91.29-1.21,1.18-1.16a24,24,0,0,0,2.94,0c.79,0,1,.24,1,1,0,4.81,0,9.63,0,14.44,0,.72,0,1.43,0,2.14s-.19,1.14-1,1.08a22.58,22.58,0,0,0-2.85,0c-.84.06-1.15-.27-1.06-1.07A3.71,3.71,0,0,0,73.93,24.68Z"/><path d="M58.46,14.26c-.21,0-.42,0-.63,0A1.89,1.89,0,0,1,55.56,13c-.88-1.92-3.65-2.13-5.41-.77C47.93,14,48,20.05,50,21.81c1.55,1.41,5.47,1.47,6.18-1.39a.88.88,0,0,1,1-.73q1.61,0,3.21,0c.77,0,.92.32.78,1a7.37,7.37,0,0,1-4.22,5.42,9.82,9.82,0,0,1-11.82-2.8c-3.08-4.13-2.6-12,2.89-15,3.53-1.91,8.48-1.26,11.13,1.56a7.81,7.81,0,0,1,1.81,3.52c.17.65-.08.88-.7.86H58.46Z"/><path d="M107.67,17.07c0,2.79,0,5.58,0,8.37,0,.73-.21,1-1,1-1.1-.05-2.2,0-3.3,0-.59,0-.87-.16-.87-.8q0-8.5,0-17c0-.6.21-.86.83-.85,1.13,0,2.27,0,3.39,0,.73,0,.92.29.91.95C107.66,11.49,107.67,14.28,107.67,17.07Z"/><path d="M105.15.61c.63,0,1.25,0,1.87,0,.44,0,.65.18.65.63,0,1.16,0,2.31,0,3.47,0,.51-.25.66-.72.66-1.21,0-2.43,0-3.64,0-.52,0-.76-.2-.76-.73,0-1.1,0-2.19,0-3.29,0-.59.28-.77.83-.75s1.18,0,1.77,0Z"/><path d="M150,9.33a2,2,0,1,1-2-2.09A2,2,0,0,1,150,9.33Zm-1.13,1.14A1.34,1.34,0,0,0,149.43,9a1.5,1.5,0,0,0-1.94-1.08,1.48,1.48,0,1,0,1.37,2.57Z"/><path d="M148.86,10.48c-.45,0-.66-.3-.91-.6-.2.15-.13.6-.52.47s-.21-.38-.23-.61,0-.53,0-.79,0-.62.34-.73a1.13,1.13,0,0,1,1.08.2.56.56,0,0,1,.17.79c-.32.46.16.84.08,1.26Z"/></g></g></svg>