<svg xmlns="http://www.w3.org/2000/svg" viewBox="0 0 150 51.08"><g id="Layer_2" data-name="Layer 2"><g id="Layer_1-2" data-name="Layer 1"><path d="M86.28,6.52a4,4,0,0,1-3.35-.82A11.9,11.9,0,0,0,70,4.49a11.56,11.56,0,0,0-6.77,10.75,11.53,11.53,0,0,0,6,10.71A11.89,11.89,0,0,0,81.9,25.9c1.37-.79,2.54-2.07,4.37-1.69.47.09,1.14-.23,1.37.3s-.35,1-.71,1.39a15.34,15.34,0,0,1-8.32,4.69,15.54,15.54,0,0,1-18.27-12A15.34,15.34,0,0,1,72.46.33,14.76,14.76,0,0,1,86.65,4.81c.41.43,1.21.86,1,1.43C87.38,7,86.47,6.47,86.28,6.52Z"/><path d="M78.13,8.14c1,0,1.9-.05,2.84,0,.62.05,1.73-.38,1.61.81-.11,1-.25,2.24-1.71,2.3s-2.79,0-4.18,0a10.33,10.33,0,0,0-1.67.07,1.94,1.94,0,0,0-1.88,2.14,1.92,1.92,0,0,0,2.06,2c2,.06,3.9,0,5.86,0,.52,0,1.22-.19,1.48.46a1.55,1.55,0,0,1-.61,1.63,2.53,2.53,0,0,1-1.23.81c-2.65.31-5.37.75-7.9-.33-1.22-.53-1.48-.23-1.8.83-.38,1.27-.65,2.64-1.88,3.45-.67.44-1.46.87-2.18.43-.87-.53-.17-1.32,0-1.93.91-2.75,1.89-5.48,2.83-8.22,1.19-3.43,2.68-4.5,6.32-4.51Z"/><path d="M40.28,44.34c0-1.73,0-3.45,0-5.17a1.33,1.33,0,0,1,1.52-1.53,25.88,25.88,0,0,1,5.49.31,6.47,6.47,0,0,1-.8,12.78c-1.6.12-3.22,0-4.84.06-1,0-1.37-.53-1.36-1.45Zm2.69,0h0c0,1.05,0,2.11,0,3.16,0,.55.15,1,.8,1.07,1.81.12,3.6,0,4.92-1.47a4.08,4.08,0,0,0,.64-4.52c-.72-1.79-2.24-2.36-4-2.47C43.08,39.94,43,40,43,42.29Z"/><path d="M17.17,37.56a6.74,6.74,0,0,1,7,6.59,7,7,0,0,1-14,.18A6.78,6.78,0,0,1,17.17,37.56Zm0,2.43a4.17,4.17,0,0,0-4.26,4.35,4.22,4.22,0,0,0,4.2,4.3A4.33,4.33,0,0,0,17.15,40Z"/><path d="M32,37.56a6.74,6.74,0,0,1,7,6.65,7,7,0,0,1-14,.07A6.8,6.8,0,0,1,32,37.56ZM31.8,40a4.33,4.33,0,1,0,4.34,4.27A4.17,4.17,0,0,0,31.8,40Z"/><path d="M0,44.74c0-1.45,0-2.9,0-4.35,0-1.81.71-2.61,2.47-2.7,2.06-.1,4.12,0,6.18,0,.85,0,1.39.33,1.38,1.27s-.7,1.13-1.49,1.13c-1.5,0-3,0-4.51,0-1.17,0-1.54.52-1.56,1.63s.33,1.67,1.52,1.6,2.23,0,3.34,0c.83,0,1.77-.12,1.79,1.16s-1,1.23-1.87,1.25c-1.06,0-2.12.05-3.18,0s-1.67.37-1.59,1.55c.06.77,0,1.55,0,2.33s-.4,1.2-1.23,1.2S0,50.42,0,49.58C0,48,0,46.35,0,44.74Z"/><path d="M90.17,47.12a6.69,6.69,0,0,0,.63-3.69c0-1.5,0-3,0-4.51,0-.59.18-1.16.94-1.1s.71.62.71,1.12q0,5.27,0,10.53c0,.44,0,1-.52,1.13-.72.23-1.14-.29-1.53-.77-1.92-2.39-3.82-4.79-5.74-7.18a5,5,0,0,0-1.64-1.43V48a8.49,8.49,0,0,1,0,1c-.07.67.21,1.67-.87,1.66s-.81-1-.82-1.68c0-3.18,0-6.35,0-9.53,0-.57-.21-1.32.57-1.58s1.25.34,1.67.86q3,3.77,6,7.58A8,8,0,0,1,90.17,47.12Z"/><path d="M72.83,37.59a6.6,6.6,0,0,1,6.6,6.76,6.72,6.72,0,0,1-6.89,6.7,6.73,6.73,0,0,1,.29-13.46Zm0,11.77a4.82,4.82,0,0,0,4.88-5,5.17,5.17,0,0,0-5.13-5.27,4.93,4.93,0,0,0-4.83,5.31A4.81,4.81,0,0,0,72.8,49.36Z"/><path d="M112.55,50.75c-1.11,0-2.23,0-3.34,0s-1.43-.41-1.42-1.4c0-3.45,0-6.9,0-10.35a1.16,1.16,0,0,1,1.33-1.32c2.29,0,4.57,0,6.85,0,.56,0,1.22.06,1.2.84s-.67.79-1.23.8c-1.61,0-3.23.07-4.84,0-1.46-.06-1.62.78-1.6,1.92s0,2.17,1.59,2.11c1.34,0,2.68,0,4,0,.61,0,1.35,0,1.32.91s-.74.72-1.28.73c-1.39,0-2.79,0-4.18,0-1.7,0-1.43,1.18-1.44,2.21s-.17,2.1,1.41,2.07,3.45,0,5.18,0c.53,0,1.27-.08,1.24.74s-.76.67-1.29.68C114.89,50.77,113.72,50.75,112.55,50.75Z"/><path d="M118.89,44.24c0-1.67,0-3.34,0-5,0-1,.44-1.55,1.49-1.56a22.31,22.31,0,0,1,5.16.29,4.13,4.13,0,0,1,3.39,3.83,4.29,4.29,0,0,1-3,4.15,9.68,9.68,0,0,1-3.63.41c-1.22-.08-1.77.43-1.65,1.66a1.4,1.4,0,0,1,0,.5c-.17.76.48,2.13-.9,2.08s-.75-1.39-.8-2.18c-.08-1.39,0-2.78,0-4.17Zm4.13-4.9c-.73.25-2.09-.57-2.33.93a19.24,19.24,0,0,0,0,3.48.83.83,0,0,0,.85.86,9.75,9.75,0,0,0,3.95-.24,2.49,2.49,0,0,0,0-4.75A6.72,6.72,0,0,0,123,39.34Z"/><path d="M145.24,37.6a5.63,5.63,0,0,1,3.06.81c.5.29,1.25.53.8,1.36s-1,.31-1.44.06a5.89,5.89,0,0,0-2.56-.73c-1.21,0-2.44.23-2.7,1.68s.75,2,1.89,2.33A26.44,26.44,0,0,1,148,44.26a3.28,3.28,0,0,1,2,2.83,3.35,3.35,0,0,1-1.81,3.18c-2,1.25-5.86.77-7.53-.88-.31-.31-.53-.58-.22-1a.8.8,0,0,1,1.29-.17,5.82,5.82,0,0,0,4.42,1.11,2.05,2.05,0,0,0,2.06-1.64c.24-1.15-.51-1.76-1.47-2.11s-1.92-.56-2.88-.86c-2.64-.84-3.57-2-3.2-4.12C141,38.79,142.73,37.6,145.24,37.6Z"/><path d="M101.44,49.36a4.5,4.5,0,0,0,3.08-1c.46-.35,1-.68,1.41,0s-.13.91-.5,1.24a7.05,7.05,0,0,1-7.7.54A6.77,6.77,0,0,1,94.57,43a6.62,6.62,0,0,1,5.71-5.34,7,7,0,0,1,5.07,1.23c.39.3.92.58.54,1.2s-.88.51-1.43.17a5.43,5.43,0,0,0-4.42-.95,5.08,5.08,0,0,0-3.81,5.53A4.86,4.86,0,0,0,101.44,49.36Z"/><path d="M60.48,37.59a6.37,6.37,0,0,1,4.06,1.28c.4.29.91.58.51,1.2s-.89.48-1.43.14a5.34,5.34,0,0,0-4.42-1,4.82,4.82,0,0,0-3.7,4.07,4.94,4.94,0,0,0,2,5.16,5.26,5.26,0,0,0,5.55.29c.64-.3,1.4-1.6,2-.4.55,1-.73,1.44-1.45,1.83a6.71,6.71,0,0,1-9.51-8.38A6.51,6.51,0,0,1,60.48,37.59Z"/><path d="M133.59,44.9c0-1.33,0-2.67,0-4,.05-1.15-.45-1.64-1.59-1.56a3.84,3.84,0,0,1-.83,0c-.7-.11-1.82.31-1.8-.88,0-1,1.06-.78,1.72-.79,2.34,0,4.68,0,7,0,.63,0,1.51-.11,1.45.9s-.85.71-1.43.75a10,10,0,0,1-1.34,0c-1.08-.06-1.47.46-1.46,1.51,0,2.72,0,5.45,0,8.17,0,.67.21,1.64-.91,1.61-1,0-.79-.93-.8-1.56,0-1.39,0-2.78,0-4.17Z"/><path d="M86.3,8.14c.5.23,1.6-.46,1.66.83s-1.52,2.34-3.34,2.31c-.48,0-1.19.26-1.22-.66C83.36,9.12,84.47,8.13,86.3,8.14Z"/></g></g></svg>