<?xml version="1.0" encoding="utf-8"?>
<!-- Generator: Adobe Illustrator 25.0.1, SVG Export Plug-In . SVG Version: 6.00 Build 0)  -->
<svg version="1.1" id="Layer_1" xmlns="http://www.w3.org/2000/svg" xmlns:xlink="http://www.w3.org/1999/xlink" x="0px" y="0px"
	 viewBox="0 0 150 51.1" style="enable-background:new 0 0 150 51.1;" xml:space="preserve">
<style type="text/css">
	.st0{fill:#FFFFFF;}
</style>
<g id="Layer_2_1_">
	<g id="Layer_1-2">
		<path class="st0" d="M86.3,6.5c-1.2,0.2-2.4-0.1-3.3-0.8C79.2,2.8,74.2,2.3,70,4.5c-4.2,1.9-6.9,6.1-6.8,10.8
			c-0.2,4.4,2.1,8.6,6,10.7c3.9,2.4,8.8,2.4,12.7-0.1c1.4-0.8,2.5-2.1,4.4-1.7c0.5,0.1,1.1-0.2,1.4,0.3s-0.3,1-0.7,1.4
			c-2.2,2.4-5.1,4.1-8.3,4.7c-8.3,1.7-16.5-3.7-18.3-12c-1.8-8.3,3.5-16.4,11.8-18.2c0.1,0,0.2,0,0.3-0.1c5.2-1.2,10.6,0.5,14.2,4.5
			c0.4,0.4,1.2,0.9,1,1.4C87.4,7,86.5,6.5,86.3,6.5z"/>
		<path class="st0" d="M78.1,8.1c1,0,1.9-0.1,2.8,0c0.6,0.1,1.7-0.4,1.6,0.8c-0.1,1-0.2,2.2-1.7,2.3s-2.8,0-4.2,0
			c-0.6,0-1.1,0-1.7,0.1c-1.1,0-1.9,0.9-1.9,2c0,0.1,0,0.1,0,0.2c0,1.1,0.8,2,1.8,2c0.1,0,0.2,0,0.2,0c2,0.1,3.9,0,5.9,0
			c0.5,0,1.2-0.2,1.5,0.5c0.1,0.6-0.1,1.3-0.6,1.6c-0.3,0.4-0.7,0.7-1.2,0.8c-2.7,0.3-5.4,0.8-7.9-0.3c-1.2-0.5-1.5-0.2-1.8,0.8
			c-0.4,1.3-0.7,2.6-1.9,3.5c-0.7,0.4-1.5,0.9-2.2,0.4c-0.9-0.5-0.2-1.3,0-1.9c0.9-2.8,1.9-5.5,2.8-8.2c1.2-3.4,2.7-4.5,6.3-4.5
			L78.1,8.1z"/>
		<path class="st0" d="M40.3,44.3c0-1.7,0-3.5,0-5.2c-0.1-0.7,0.4-1.4,1.1-1.5c0.1,0,0.3,0,0.4,0c1.8-0.1,3.7,0,5.5,0.3
			c3.5,0.7,5.7,4.2,5,7.7c-0.6,2.8-2.9,4.9-5.8,5.1c-1.6,0.1-3.2,0-4.8,0.1c-1,0-1.4-0.5-1.4-1.5L40.3,44.3z M43,44.3L43,44.3
			c0,1,0,2.1,0,3.2c0,0.5,0.2,1,0.8,1.1c1.8,0.1,3.6,0,4.9-1.5c1.1-1.2,1.4-3,0.6-4.5c-0.7-1.8-2.2-2.4-4-2.5
			C43.1,39.9,43,40,43,42.3L43,44.3z"/>
		<path class="st0" d="M17.2,37.6c3.7-0.1,6.9,2.8,7,6.5c0,0,0,0.1,0,0.1c0,3.9-3,7-6.9,7.1s-7-3-7.1-6.9c0-3.7,3-6.8,6.8-6.8
			C17,37.6,17.1,37.6,17.2,37.6z M17.2,40c-2.3-0.1-4.2,1.8-4.3,4.1c0,0.1,0,0.2,0,0.3c0,2.3,1.8,4.3,4.1,4.3c0,0,0,0,0.1,0
			c2.4-0.2,4.2-2.2,4-4.6C21,41.9,19.3,40.2,17.2,40L17.2,40z"/>
		<path class="st0" d="M32,37.6c3.7-0.1,6.9,2.8,7,6.5c0,0.1,0,0.1,0,0.2c0,3.9-3.1,7-7,7s-7-3.1-7-7c0-3.8,3.1-6.8,6.9-6.7
			C31.9,37.6,32,37.6,32,37.6z M31.8,40c-2.4,0-4.3,1.9-4.3,4.3c0,2.4,1.9,4.3,4.3,4.3s4.3-1.9,4.3-4.3c0,0,0,0,0,0
			c0.1-2.3-1.8-4.2-4.1-4.3C32,40,31.9,40,31.8,40z"/>
		<path class="st0" d="M0,44.7c0-1.5,0-2.9,0-4.3c0-1.8,0.7-2.6,2.5-2.7c2.1-0.1,4.1,0,6.2,0C9.5,37.7,10,38,10,39s-0.7,1.1-1.5,1.1
			c-1.5,0-3,0-4.5,0c-1.2,0-1.5,0.5-1.6,1.6s0.3,1.7,1.5,1.6s2.2,0,3.3,0c0.8,0,1.8-0.1,1.8,1.2s-1,1.2-1.9,1.2c-1.1,0-2.1,0-3.2,0
			s-1.7,0.4-1.6,1.5c0.1,0.8,0,1.5,0,2.3s-0.4,1.2-1.2,1.2S0,50.4,0,49.6C0,48,0,46.3,0,44.7z"/>
		<path class="st0" d="M90.2,47.1c0.6-1.1,0.8-2.4,0.6-3.7c0-1.5,0-3,0-4.5c0-0.6,0.2-1.2,0.9-1.1s0.7,0.6,0.7,1.1c0,3.5,0,7,0,10.5
			c0,0.4,0,1-0.5,1.1c-0.7,0.2-1.1-0.3-1.5-0.8c-1.9-2.4-3.8-4.8-5.7-7.2c-0.4-0.6-1-1.1-1.6-1.4V48c0,0.3,0,0.7,0,1
			c-0.1,0.7,0.2,1.7-0.9,1.7s-0.8-1-0.8-1.7c0-3.2,0-6.3,0-9.5c0-0.6-0.2-1.3,0.6-1.6s1.2,0.3,1.7,0.9c2,2.5,4,5,6,7.6
			C89.8,46.6,90,46.8,90.2,47.1z"/>
		<path class="st0" d="M72.8,37.6c3.6,0,6.6,3,6.6,6.6c0,0.1,0,0.1,0,0.2c0,3.7-3,6.7-6.7,6.7c-0.1,0-0.1,0-0.2,0
			c-3.7-0.1-6.7-3.2-6.6-6.9S69.1,37.5,72.8,37.6L72.8,37.6z M72.8,49.4c2.7,0,4.8-2.1,4.9-4.8c0-0.1,0-0.2,0-0.2
			c0.1-2.9-2.2-5.2-5.1-5.3c0,0,0,0-0.1,0c-2.7,0-4.9,2.3-4.8,5c0,0.1,0,0.2,0,0.3c-0.1,2.7,2,4.9,4.7,5
			C72.5,49.4,72.7,49.4,72.8,49.4L72.8,49.4z"/>
		<path class="st0" d="M112.6,50.8c-1.1,0-2.2,0-3.3,0s-1.4-0.4-1.4-1.4c0-3.5,0-6.9,0-10.3c-0.1-0.6,0.3-1.2,1-1.3
			c0.1,0,0.2,0,0.4,0c2.3,0,4.6,0,6.8,0c0.6,0,1.2,0.1,1.2,0.8s-0.7,0.8-1.2,0.8c-1.6,0-3.2,0.1-4.8,0c-1.5-0.1-1.6,0.8-1.6,1.9
			s0,2.2,1.6,2.1c1.3,0,2.7,0,4,0c0.6,0,1.3,0,1.3,0.9s-0.7,0.7-1.3,0.7c-1.4,0-2.8,0-4.2,0c-1.7,0-1.4,1.2-1.4,2.2
			s-0.2,2.1,1.4,2.1s3.4,0,5.2,0c0.5,0,1.3-0.1,1.2,0.7s-0.8,0.7-1.3,0.7C114.9,50.8,113.7,50.8,112.6,50.8z"/>
		<path class="st0" d="M118.9,44.2c0-1.7,0-3.3,0-5c0-1,0.4-1.5,1.5-1.6c1.7-0.1,3.5,0,5.2,0.3c1.9,0.3,3.3,1.9,3.4,3.8
			c0,1.9-1.2,3.6-3,4.2c-1.2,0.4-2.4,0.5-3.6,0.4c-1.2-0.1-1.8,0.4-1.7,1.7c0,0.2,0,0.3,0,0.5c-0.2,0.8,0.5,2.1-0.9,2.1
			s-0.8-1.4-0.8-2.2C118.9,47,118.9,45.6,118.9,44.2L118.9,44.2z M123,39.3c-0.7,0.2-2.1-0.6-2.3,0.9c-0.1,1.2-0.1,2.3,0,3.5
			c0,0.5,0.3,0.8,0.8,0.9c0,0,0,0,0.1,0c1.3,0.2,2.7,0.1,3.9-0.2c1.3-0.4,2-1.8,1.6-3.1c-0.2-0.8-0.9-1.4-1.6-1.6
			C124.7,39.4,123.8,39.3,123,39.3L123,39.3z"/>
		<path class="st0" d="M145.2,37.6c1.1,0,2.1,0.3,3.1,0.8c0.5,0.3,1.2,0.5,0.8,1.4s-1,0.3-1.4,0.1c-0.8-0.4-1.7-0.7-2.6-0.7
			c-1.2,0-2.4,0.2-2.7,1.7s0.8,2,1.9,2.3c1.3,0.3,2.5,0.7,3.7,1.1c1.2,0.5,1.9,1.6,2,2.8c0.1,1.3-0.6,2.6-1.8,3.2
			c-2,1.2-5.9,0.8-7.5-0.9c-0.3-0.3-0.5-0.6-0.2-1c0.2-0.4,0.7-0.5,1.1-0.3c0.1,0,0.1,0.1,0.2,0.2c1.3,1,2.9,1.4,4.4,1.1
			c1,0,1.9-0.7,2.1-1.6c0.2-1.2-0.5-1.8-1.5-2.1s-1.9-0.6-2.9-0.9c-2.6-0.8-3.6-2-3.2-4.1C141,38.8,142.7,37.6,145.2,37.6z"/>
		<path class="st0" d="M101.4,49.4c1.1,0.1,2.2-0.3,3.1-1c0.5-0.3,1-0.7,1.4,0s-0.1,0.9-0.5,1.2c-2.2,1.7-5.3,1.9-7.7,0.5
			c-2.5-1.5-3.7-4.3-3.2-7.1c0.5-2.8,2.8-5,5.7-5.3c1.8-0.3,3.6,0.2,5.1,1.2c0.4,0.3,0.9,0.6,0.5,1.2s-0.9,0.5-1.4,0.2
			c-1.3-0.9-2.9-1.3-4.4-1c-2.5,0.6-4.1,3-3.8,5.5C96.4,47.5,98.7,49.5,101.4,49.4C101.4,49.4,101.4,49.4,101.4,49.4z"/>
		<path class="st0" d="M60.5,37.6c1.5-0.1,2.9,0.4,4.1,1.3c0.4,0.3,0.9,0.6,0.5,1.2s-0.9,0.5-1.4,0.1c-1.3-1-2.9-1.3-4.4-1
			c-2,0.5-3.4,2.1-3.7,4.1c-0.4,2,0.3,4,2,5.2c1.6,1.1,3.8,1.3,5.5,0.3c0.6-0.3,1.4-1.6,2-0.4c0.6,1-0.7,1.4-1.5,1.8
			c-3.2,1.8-7.3,0.7-9.1-2.5c-1-1.8-1.1-3.9-0.4-5.8C55.1,39.1,57.7,37.5,60.5,37.6z"/>
		<path class="st0" d="M133.6,44.9c0-1.3,0-2.7,0-4c0.1-1.2-0.4-1.6-1.6-1.6c-0.3,0-0.6,0-0.8,0c-0.7-0.1-1.8,0.3-1.8-0.9
			c0-1,1.1-0.8,1.7-0.8c2.3,0,4.7,0,7,0c0.6,0,1.5-0.1,1.4,0.9s-0.9,0.7-1.4,0.8c-0.4,0-0.9,0-1.3,0c-1.1-0.1-1.5,0.5-1.5,1.5
			c0,2.7,0,5.5,0,8.2c0,0.7,0.2,1.6-0.9,1.6c-1,0-0.8-0.9-0.8-1.6C133.6,47.7,133.6,46.3,133.6,44.9L133.6,44.9z"/>
		<path class="st0" d="M86.3,8.1C86.8,8.4,87.9,7.7,88,9s-1.5,2.3-3.3,2.3c-0.5,0-1.2,0.3-1.2-0.7C83.4,9.1,84.5,8.1,86.3,8.1z"/>
	</g>
</g>
</svg>
