<?xml version="1.0" encoding="utf-8"?>
<!-- Generator: Adobe Illustrator 25.0.1, SVG Export Plug-In . SVG Version: 6.00 Build 0)  -->
<svg version="1.1" id="Layer_1" xmlns="http://www.w3.org/2000/svg" xmlns:xlink="http://www.w3.org/1999/xlink" x="0px" y="0px"
	 viewBox="0 0 75.7 75.7" style="enable-background:new 0 0 75.7 75.7;" xml:space="preserve">
<g id="Layer_2_1_">
	<g id="Layer_1-2">
		<path d="M0,37.8C0,25.4,0,13,0,0.5C0,0.1,0.1,0,0.5,0h74.7c0.6,0,0.5-0.1,0.5,0.5c0,24.9,0,49.8,0,74.7c0,0.4-0.1,0.5-0.5,0.5
			c-24.9,0-49.8,0-74.7,0c-0.4,0-0.5-0.1-0.5-0.5C0,62.8,0,50.3,0,37.8z M62.2,20.4c0-3,0-6.1,0-9.1c0-0.3-0.1-0.5-0.4-0.5
			c-6,0-12.1,0-18.1,0c-0.3,0-0.4,0.1-0.4,0.4c0,6.1,0,12.1,0,18.2c0,0.3,0.1,0.4,0.4,0.4c6.1,0,12.1,0,18.2,0
			c0.3,0,0.4-0.1,0.4-0.4C62.2,26.4,62.2,23.4,62.2,20.4z M35.1,49c0.8-0.2,1.5-0.8,1.7-1.6c0.4-1.1,0.1-2.3-0.7-3.1
			c-0.9-0.9-2.2-1.4-3.4-1.3c-1.2,0-2.4,0-3.7,0.1c-0.3,0-0.5,0.1-0.5,0.4c0,3.9,0,7.7,0,11.6c0,0.3,0.1,0.4,0.4,0.4h5.5
			c0.2,0,0.5-0.1,0.7-0.2c1.5-0.8,2.3-2.5,2-4.1C37,50.1,36.2,49.3,35.1,49z M16.5,51.5c0-1,0-2.1,0-3.1c0-0.2,0-0.3-0.3-0.3
			c-1.2,0-2.5,0-3.7,0c-0.2,0-0.3,0.1-0.3,0.3s0.1,0.7,0.1,1.1c0,0.2,0.1,0.3,0.3,0.3c0.5,0,0.9,0,1.4,0c0.2,0,0.3,0.1,0.3,0.3
			c0,1.2,0,2.3,0,3.5c0,0.2-0.1,0.3-0.3,0.3l-1.3,0.2c-1.2,0.3-2.3-0.5-2.6-1.7c-0.2-0.7-0.3-1.5-0.3-2.2c-0.1-1.2,0-2.3,0.4-3.4
			c0.4-1.1,1.5-1.9,2.7-1.8c1,0,1.9,0.2,2.8,0.5c0.3,0.1,0.4,0,0.4-0.3c0-0.3,0-0.6,0-0.9c0-0.3-0.1-0.5-0.4-0.6
			c-1.1-0.4-2.3-0.5-3.4-0.4c-2,0.1-3.8,1.4-4.3,3.4c-0.6,2-0.6,4.1,0,6.2c0.3,1.7,1.8,2.9,3.5,2.9c1.6,0.1,3.2-0.1,4.8-0.5
			c0.2-0.1,0.3-0.2,0.3-0.4C16.5,53.5,16.5,52.5,16.5,51.5z M51.2,46.9c0-0.3,0-0.5,0-0.7s-0.1-0.4-0.4-0.4c-0.5,0-1.1,0-1.7,0
			c-0.3,0-0.4,0.1-0.4,0.4c0,0.7,0,1.4,0,2.1c0,2.3,0,4.6,0,6.9c0,0.4,0.1,0.5,0.5,0.5s1,0,1.5,0s0.5,0,0.5-0.5c0-2,0-4,0-5.9
			c0-0.2,0.1-0.5,0.3-0.6c0.7-0.4,1.5-0.7,2.4-0.7c0.6-0.1,1.2,0.4,1.3,1c0,0.1,0,0.2,0,0.3c0,2,0,4,0,6c0,0.3,0.1,0.4,0.4,0.4
			c0.6,0,1.1,0,1.7,0c0.3,0,0.4-0.1,0.4-0.4c0-2.1,0-4.2,0-6.3c0.1-1.7-1.2-3.1-2.9-3.1c-0.3,0-0.5,0-0.8,0.1
			C53.2,46,52.2,46.3,51.2,46.9z M44.6,54.4c0,0.3,0,0.5,0,0.8s0.1,0.4,0.4,0.4c0.5,0,1,0,1.4,0s0.5-0.1,0.5-0.4c0-2.3,0-4.6,0-7
			c0-0.5-0.2-1.1-0.6-1.4c-0.4-0.5-1-0.8-1.6-0.9c-1.4-0.3-2.9-0.2-4.3,0.3c-1,0.3-1,0.3-1,1.4s0,0.9,0.9,0.7
			c0.9-0.3,1.9-0.5,2.8-0.4c0.7,0,1.2,0.5,1.2,1.2c0,0,0,0,0,0c0,0.3-0.1,0.4-0.3,0.4c-0.8,0-1.6,0-2.3,0.1
			c-0.8,0.1-1.6,0.4-2.2,0.8c-0.9,0.8-1.2,2.1-0.7,3.3c0.2,0.9,0.8,1.6,1.7,1.8c0.6,0.2,1.3,0.3,2,0.1C43.3,55.4,44,55,44.6,54.4z
			 M23.5,50.4c0-1.6,0-3.2,0-4.8c0-0.4,0.1-0.5,0.5-0.5c0.7,0,1.4,0,2.2,0c0.2,0,0.3-0.1,0.4-0.3c0-0.5,0.1-0.9,0.2-1.3
			c0-0.2,0-0.3-0.3-0.3h-8.4c-0.2,0-0.3,0.1-0.3,0.3c0,0.5,0,0.9,0,1.3s0.1,0.4,0.4,0.4c0.8,0,1.7,0,2.5,0c0.5,0,0.5-0.1,0.5,0.5V55
			c0,0.6,0,0.6,0.5,0.6h1.3c0.5,0,0.5,0,0.5-0.5L23.5,50.4z M59.6,49.4c0,1.9,0,3.9,0,5.8c0,0.4,0.1,0.5,0.4,0.4c0.5,0,1.1,0,1.6,0
			c0.3,0,0.4-0.1,0.4-0.3c0-4,0-7.9,0-11.8c0-0.3-0.1-0.3-0.4-0.3c-0.6,0-1.1,0-1.7,0c-0.3,0-0.4,0.1-0.4,0.4
			C59.7,45.4,59.6,47.4,59.6,49.4L59.6,49.4z M68.3,45.8h-2.7c-0.2,0-0.3,0.1-0.4,0.2c-0.9,1.3-1.8,2.5-2.8,3.8
			c-0.1,0.1-0.1,0.4,0,0.5c1.1,1.7,2.2,3.3,3.2,5c0.1,0.2,0.3,0.3,0.6,0.3h1.7c0.2,0,0.4,0.1,0.5-0.1s-0.1-0.3-0.2-0.4
			c-1-1.5-2-3-3.1-4.5c-0.2-0.2-0.2-0.5,0-0.7c0.7-0.9,1.4-1.8,2.1-2.7L68.3,45.8z"/>
		<path d="M31,51.8c0-0.5,0-1,0-1.4c0-0.2,0.1-0.4,0.3-0.3c0.6,0,1.2,0,1.8,0c0.9,0.1,1.6,0.9,1.6,1.8c0.1,0.8-0.4,1.6-1.2,1.7
			c-0.1,0-0.1,0-0.2,0c-0.7,0.1-1.4,0-2.1,0c-0.2,0-0.2-0.1-0.2-0.3L31,51.8z"/>
		<path d="M31,46.6c0-0.4,0-0.8,0-1.2c0-0.2,0-0.4,0.3-0.4c0.6,0,1.2,0,1.8,0c0.6,0,1.1,0.4,1.2,1c0.2,0.6,0,1.3-0.5,1.8
			c-0.2,0.2-0.4,0.3-0.7,0.4h-1.8c-0.2,0-0.3-0.1-0.3-0.3C31,47.5,31,47,31,46.6z"/>
		<path d="M44.5,52.1c0.2,0.7-0.3,1-0.9,1.3c-0.6,0.4-1.4,0.4-2.1,0.1c-0.3-0.2-0.5-0.5-0.5-0.9c-0.1-0.8,0.5-1.5,1.3-1.6
			c0.1,0,0.1,0,0.2,0c0.5,0,1,0,1.5,0.1c0.3,0,0.5,0.2,0.4,0.5C44.5,51.7,44.5,51.9,44.5,52.1z"/>
	</g>
</g>
</svg>
