<svg xmlns="http://www.w3.org/2000/svg" xmlns:xlink="http://www.w3.org/1999/xlink" viewBox="0 0 150 43.15"><defs><style>.cls-1{fill:#fff;}.cls-1,.cls-2{fill-rule:evenodd;}.cls-3{mask:url(#mask);}.cls-4{mask:url(#mask-2-2);}</style><mask id="mask" x="89.92" y="14.25" width="21.11" height="28.9" maskUnits="userSpaceOnUse"><g id="mask-2"><polygon id="path-1" class="cls-1" points="111.03 43.15 89.92 43.15 89.92 14.24 111.03 14.24 111.03 43.15"/></g></mask><mask id="mask-2-2" x="96.35" y="0" width="40.01" height="42.54" maskUnits="userSpaceOnUse"><g id="mask-4"><polygon id="path-3" class="cls-1" points="96.35 0 136.35 0 136.35 42.54 96.35 42.54 96.35 0"/></g></mask></defs><g id="Layer_2" data-name="Layer 2"><g id="Layer_1-2" data-name="Layer 1"><g id="Home"><g id="Style-Guide---Homepage"><g id="Group-30"><g id="_--Marketing_Logos_HubSpot-Primary" data-name="--Marketing/Logos/HubSpot-Primary"><g id="Marketing_Logos_HubSpot-Primary" data-name="Marketing/Logos/HubSpot-Primary"><polygon id="Fill-1" class="cls-2" points="16.25 7.14 16.25 19.31 5.23 19.31 5.23 7.14 0 7.14 0 36.19 5.23 36.19 5.23 24.42 16.25 24.42 16.25 36.19 21.48 36.19 21.48 7.14 16.25 7.14"/><path id="Fill-2" class="cls-2" d="M38.21,26.8a4.33,4.33,0,1,1-8.65,0V14.36H24.61V26.8a9.28,9.28,0,1,0,18.55,0V14.36H38.21Z"/><path id="Fill-4" class="cls-2" d="M75,15.64c0-2.55,1.67-3.36,3.49-3.36a7.34,7.34,0,0,1,4.67,2.51l3.25-3.88a10.16,10.16,0,0,0-7.6-3.77c-5.39,0-9.28,3.2-9.28,8.5,0,9.84,11.85,6.72,11.85,12.22a3.44,3.44,0,0,1-3.48,3.2c-2.94,0-3.89-1.46-5.24-3L69,31.87a10.59,10.59,0,0,0,8.56,4.33c5.11,0,9.23-3.24,9.23-8.3C86.81,17,75,20.38,75,15.64"/><path id="Fill-6" class="cls-2" d="M148.26,31.55c-2.94,0-3.77-1.28-3.77-3.25V19.57h4.56V15.15h-4.56V9.32l-5,2.29V29.38c0,4.54,3.09,6.84,7.33,6.84a9.92,9.92,0,0,0,2-.16L150,31.47c-.55,0-1.19.08-1.74.08"/><path id="Fill-8" class="cls-2" d="M57.06,31.14a5.72,5.72,0,1,1,5.63-5.72,5.68,5.68,0,0,1-5.63,5.72m0-16.63a7.56,7.56,0,0,0-5.83,2.37V7.32h-5V25c0,6.63,4.73,11.18,10,11.18A11,11,0,0,0,67.41,25.36,10.59,10.59,0,0,0,57.09,14.51"/><g id="Group-12"><g class="cls-3"><path id="Fill-10" class="cls-2" d="M100.69,30.76A5.72,5.72,0,1,1,106.32,25a5.68,5.68,0,0,1-5.63,5.72M111,25.1A10.94,10.94,0,0,0,100,14.25c-5.31,0-10,4.54-10,11.17V43.15h5V33.58A7.55,7.55,0,0,0,100.72,36,10.6,10.6,0,0,0,111,25.1"/></g></g><g id="Group-15"><g class="cls-4"><path id="Fill-13" class="cls-2" d="M125.41,30.65A5.69,5.69,0,1,1,131,25a5.64,5.64,0,0,1-5.61,5.69M127.09,14V8.94a3.92,3.92,0,0,0,2.21-3.52V5.31a3.87,3.87,0,0,0-3.83-3.9h-.12a3.88,3.88,0,0,0-3.84,3.9v.11a3.93,3.93,0,0,0,2.22,3.52V14a10.88,10.88,0,0,0-5.17,2.31L104.85,5.49A4.86,4.86,0,0,0,105,4.4a4.33,4.33,0,1,0-8.66,0,4.36,4.36,0,0,0,4.32,4.4,4.28,4.28,0,0,0,2.13-.59l13.48,10.64a11.24,11.24,0,0,0,.17,12.49l-4.1,4.16a3.41,3.41,0,0,0-1-.17,3.61,3.61,0,1,0,3.56,3.61,3.89,3.89,0,0,0-.16-1l4-4.12a10.76,10.76,0,0,0,6.63,2.29A11.11,11.11,0,0,0,127.09,14"/></g></g></g></g></g></g></g></g></g></svg>