<?xml version="1.0" encoding="utf-8"?>
<!-- Generator: Adobe Illustrator 25.0.1, SVG Export Plug-In . SVG Version: 6.00 Build 0)  -->
<svg version="1.1" id="Layer_1" xmlns="http://www.w3.org/2000/svg" xmlns:xlink="http://www.w3.org/1999/xlink" x="0px" y="0px"
	 viewBox="0 0 150 43.2" style="enable-background:new 0 0 150 43.2;" xml:space="preserve">
<style type="text/css">
	.st0{fill-rule:evenodd;clip-rule:evenodd;fill:#FFFFFF;}
</style>
<g id="Layer_2_1_">
	<g id="Layer_1-2">
		<g id="Home">
			<g id="Style-Guide---Homepage">
				<g id="Group-30">
					<g id="_--Marketing_Logos_HubSpot-Primary">
						<g id="Marketing_Logos_HubSpot-Primary">
							<polygon id="Fill-1" class="st0" points="16.2,7.1 16.2,19.3 5.2,19.3 5.2,7.1 0,7.1 0,36.2 5.2,36.2 5.2,24.4 16.2,24.4 
								16.2,36.2 21.5,36.2 21.5,7.1 							"/>
							<path id="Fill-2" class="st0" d="M38.2,26.8c0.1,2.4-1.7,4.4-4.1,4.5s-4.4-1.7-4.5-4.1c0-0.1,0-0.3,0-0.4V14.4h-4.9v12.4
								c-0.2,5.1,3.8,9.4,9,9.6s9.4-3.8,9.6-9c0-0.2,0-0.4,0-0.6V14.4h-5V26.8z"/>
							<path id="Fill-4" class="st0" d="M75,15.6c0-2.6,1.7-3.4,3.5-3.4c1.8,0.2,3.5,1.1,4.7,2.5l3.2-3.9c-1.9-2.3-4.6-3.7-7.6-3.8
								c-5.4,0-9.3,3.2-9.3,8.5c0,9.8,11.8,6.7,11.8,12.2c-0.1,1.8-1.7,3.2-3.5,3.2c-2.9,0-3.9-1.5-5.2-3L69,31.9
								c2,2.7,5.2,4.3,8.6,4.3c5.1,0,9.2-3.2,9.2-8.3C86.8,17,75,20.4,75,15.6"/>
							<path id="Fill-6" class="st0" d="M148.3,31.5c-2.9,0-3.8-1.3-3.8-3.2v-8.7h4.6v-4.4h-4.6V9.3l-5,2.3v17.8
								c0,4.5,3.1,6.8,7.3,6.8c0.7,0,1.3,0,2-0.2l1.2-4.6C149.4,31.5,148.8,31.5,148.3,31.5"/>
							<path id="Fill-8" class="st0" d="M57.1,31.1c-3.2,0-5.8-2.5-5.8-5.6s2.5-5.8,5.6-5.8c3.2,0,5.8,2.5,5.8,5.6c0,0,0,0.1,0,0.1
								C62.7,28.6,60.2,31.1,57.1,31.1 M57.1,14.5c-2.2-0.1-4.3,0.8-5.8,2.4V7.3h-5V25c0,6.6,4.7,11.2,10,11.2
								c6.1,0.1,11.1-4.7,11.2-10.8c0,0,0,0,0,0C67.6,19.5,62.9,14.7,57.1,14.5"/>
							<g id="Group-12">
								<g>
									<path id="Fill-10" class="st0" d="M100.7,30.8c-3.2,0-5.8-2.5-5.8-5.6s2.5-5.8,5.6-5.8c3.2,0,5.8,2.5,5.8,5.6c0,0,0,0,0,0
										C106.3,28.1,103.8,30.7,100.7,30.8 M111,25.1c0-6-5-10.9-11-10.9c-5.3,0-10,4.5-10,11.2v17.7h5v-9.6
										c1.5,1.6,3.6,2.5,5.7,2.4C106.6,35.8,111.2,30.9,111,25.1"/>
								</g>
							</g>
							<g id="Group-15">
								<g>
									<path id="Fill-13" class="st0" d="M125.4,30.6c-3.1,0.1-5.7-2.4-5.8-5.6c-0.1-3.1,2.4-5.7,5.6-5.8c3.1-0.1,5.7,2.4,5.8,5.6
										c0,0,0,0.1,0,0.1C131,28.1,128.5,30.7,125.4,30.6C125.4,30.7,125.4,30.7,125.4,30.6 M127.1,14V8.9c1.3-0.7,2.2-2,2.2-3.5
										V5.3c0-2.1-1.7-3.9-3.8-3.9h-0.1c-2.1,0-3.9,1.8-3.8,3.9v0.1c0,1.5,0.9,2.9,2.2,3.5V14c-1.9,0.3-3.7,1.1-5.2,2.3L104.8,5.5
										c0.1-0.4,0.1-0.7,0.2-1.1c0-2.4-1.9-4.3-4.3-4.3S96.3,2,96.3,4.4c0,2.4,1.9,4.4,4.3,4.4c0,0,0,0,0,0c0.7,0,1.5-0.2,2.1-0.6
										l13.5,10.6c-2.5,3.8-2.4,8.7,0.2,12.5l-4.1,4.2c-0.3-0.1-0.7-0.2-1-0.2c-2,0-3.6,1.6-3.7,3.6c0,2,1.6,3.6,3.6,3.7
										c2,0,3.6-1.6,3.7-3.6c0,0,0,0,0,0c0-0.3-0.1-0.7-0.2-1l4-4.1c1.9,1.5,4.2,2.3,6.6,2.3c6.1,0.1,11.2-4.8,11.3-10.9
										C136.7,19.6,132.6,14.8,127.1,14"/>
								</g>
							</g>
						</g>
					</g>
				</g>
			</g>
		</g>
	</g>
</g>
</svg>
