<svg xmlns="http://www.w3.org/2000/svg" xmlns:xlink="http://www.w3.org/1999/xlink" width="88.104" height="75" viewBox="0 0 88.104 75">
  <defs>
    <clipPath id="clip-path">
      <path id="Clip_10" data-name="Clip 10" d="M0,0H22.747V22.8H0Z" transform="translate(0.02 0.129)" fill="none"/>
    </clipPath>
  </defs>
  <g id="Group_16" data-name="Group 16" transform="translate(-0.292)">
    <path id="Fill_1" data-name="Fill 1" d="M32,35.828c.65-7.911.092-14.3.085-20.69,0-2.36-.348-2.721-2.751-2.719a118.789,118.789,0,0,0-14.746,1.138c-4.443.559-8.851,1.342-13.242,2.224-.421.085-.993.379-1.27-.078s.245-.837.487-1.2A28.46,28.46,0,0,1,14.55,3.783C28.863-1.663,43.038-1.352,56.866,5.517a26.5,26.5,0,0,1,10.19,8.825c.251.365.737.77.5,1.21-.323.589-.914.172-1.373.083a160.888,160.888,0,0,0-26.171-3.2c-3.764-.1-3.743.013-3.922,3.722-.475,9.823.073,19.637.154,29.454.012,1.485-.455,1.945-1.8,1.822a8.528,8.528,0,0,0-1.068-.007c-1,.035-1.419-.332-1.4-1.449C32.044,42.087,32,38.2,32,35.828" transform="translate(10.929)"/>
    <path id="Fill_3" data-name="Fill 3" d="M24.69.025a12.779,12.779,0,0,1,3.142.151C29.661.636,30.4,1.5,30.389,3.386c-.016,2.541-.785,4.969-1.256,7.439-1.088,5.7-2.547,11.306-4.008,16.917-.3,1.169-.753,1.55-2.007,1.232A38.217,38.217,0,0,1,6.766,20.805,18.8,18.8,0,0,1,.095,8.788,11.385,11.385,0,0,1,0,7.432c-.012-4.052.33-4.471,4.242-5.2A131.51,131.51,0,0,1,24.69.025" transform="translate(8.649 16.071)"/>
    <path id="Fill_5" data-name="Fill 5" d="M5.756.009a148.906,148.906,0,0,1,22.136,2.4,2.391,2.391,0,0,1,2.261,2.2,16.039,16.039,0,0,1-4.172,13.749c-5.029,5.716-11.64,8.788-18.937,10.645-.942.24-1.3-.148-1.538-.956A218.509,218.509,0,0,1,.1,4.427C-.394,1.61.992.136,3.91.013c.614-.026,1.231,0,1.846,0" transform="translate(50.435 16.071)"/>
    <path id="Fill_7" data-name="Fill 7" d="M11.392,7.463c-1.29,4.866-2.518,9.292-3.61,13.751-.326,1.333-.93,1.828-2.277,1.734a33.835,33.835,0,0,0-4.073-.006c-1.316.068-1.7-.3-1.257-1.639,1.358-4.129,2.612-8.291,3.907-12.44.774-2.48,1.584-4.949,2.3-7.444A1.686,1.686,0,0,1,8.321,0c2.111.067,4.226.045,6.338.01A1.473,1.473,0,0,1,16.327,1.16q3.15,10.242,6.35,20.469c.279.893.08,1.323-.932,1.3-1.609-.031-3.222-.059-4.829.011-1.123.049-1.6-.43-1.864-1.475-1.048-4.217-2.16-8.418-3.252-12.624-.086-.331-.194-.655-.409-1.381" transform="translate(21.565 52.041)"/>
    <g id="Group_11" data-name="Group 11" transform="translate(65.63 51.276)">
      <path id="Clip_10-2" data-name="Clip 10" d="M0,0H22.747V22.8H0Z" transform="translate(0.02 0.129)" fill="none"/>
      <g id="Group_11-2" data-name="Group 11" clip-path="url(#clip-path)">
        <path id="Fill_9" data-name="Fill 9" d="M11.238,7.843c-.537,2.052-1.047,4-1.556,5.943-.665,2.542-1.36,5.078-1.978,7.631a1.518,1.518,0,0,1-1.769,1.372c-1.455-.065-2.915,0-4.373-.018-1.7-.016-1.792-.118-1.3-1.689C2.091,15.159,3.921,9.235,5.794,3.324,7-.469,6.083.055,10.335.013,11.743,0,13.151.047,14.558,0a1.55,1.55,0,0,1,1.765,1.227q3.121,10.094,6.3,20.17c.3.954.081,1.4-1,1.381-1.558-.033-3.121-.071-4.674.015-1.2.066-1.693-.458-1.962-1.535-1-3.992-2.047-7.972-3.1-11.952a2.306,2.306,0,0,0-.657-1.464" transform="translate(0.02 0.129)"/>
      </g>
    </g>
    <path id="Fill_12" data-name="Fill 12" d="M11.433.021c3.227,0,6.455.04,9.68-.021,1.253-.023,1.728.453,1.675,1.7-.062,1.48-.055,2.967,0,4.448.042,1.162-.374,1.7-1.573,1.647-1.46-.06-2.927.049-4.385-.028-1.276-.067-1.663.48-1.648,1.716.048,4.04.021,8.081.015,12.121,0,1.969-.07,2.042-2.055,2.086-1.26.028-2.524-.046-3.781.022-1.344.074-1.874-.409-1.846-1.85.079-4.141-.012-8.285.049-12.427.019-1.288-.435-1.735-1.671-1.669-1.408.075-2.825-.04-4.234.03C.385,7.866-.048,7.308,0,6.075c.062-1.48.058-2.967,0-4.448C-.038.442.422-.013,1.6,0c3.277.049,6.555.017,9.832.017" transform="translate(44.357 51.276)"/>
    <path id="Fill_14" data-name="Fill 14" d="M11.479.017c3.227,0,6.455.031,9.682-.017,1.154-.017,1.669.373,1.629,1.544-.053,1.537-.041,3.078-.006,4.616.024,1.029-.448,1.419-1.462,1.4-1.613-.035-3.229.037-4.84-.019-1.111-.039-1.51.381-1.5,1.478.043,4.07-.027,8.142.041,12.212.02,1.192-.331,1.754-1.573,1.729-1.663-.033-3.326-.025-4.989-.025-1.141,0-1.1-.811-1.1-1.563-.01-3.872,0-7.745-.007-11.617,0-2.2-.007-2.2-2.293-2.2-1.261,0-2.521-.018-3.782-.007C.4,7.552-.006,7.161.007,6.281.03,4.643.042,3,0,1.367-.026.3.516,0,1.494.009c3.328.024,6.656.009,9.985.009" transform="translate(0.292 52.041)"/>
  </g>
</svg>
