<svg width="1170" height="227" viewBox="0 0 1170 227" fill="none" xmlns="http://www.w3.org/2000/svg">
<rect y="0.338867" width="1170" height="226" rx="4" fill="#2A4F77"/>
<mask id="mask0" mask-type="alpha" maskUnits="userSpaceOnUse" x="0" y="0" width="1170" height="226">
<rect width="1170" height="226" rx="4" fill="white"/>
</mask>
<g mask="url(#mask0)">
<path d="M167.834 174.932C132.681 152.915 31.0911 113.232 -2.52603 152.915C-36.1431 192.598 -42.0538 199.834 -2.52603 237.837C37.0018 275.84 382.408 263.703 372.803 237.837C363.199 211.971 202.987 196.949 167.834 174.932Z" fill="#11BDCF"/>
<path d="M1143.08 92.286C1093.91 193.673 1024.61 74.3819 921.65 69.3729C818.684 64.3639 921.65 -60.0249 1024.61 -60.0249C1071.9 -60.0249 1137.27 -88.9977 1171.04 -36.498C1204.8 16.0017 1192.26 -9.1012 1143.08 92.286Z" fill="#FE747D"/>
<path d="M393.659 52.1351L402.274 51.523L397.347 42.5986L405.043 42.2926L401.354 33.6865" stroke="#11BDCF" stroke-linecap="round" stroke-linejoin="round"/>
<path d="M727.996 69.8125L719.479 71.2693L725.251 79.655L717.629 80.72L722.151 88.9221" stroke="#11BDCF" stroke-linecap="round" stroke-linejoin="round"/>
<path d="M594.545 212.725L588.026 215.014L593.7 220.853L587.842 222.702L592.499 228.566" stroke="#11BDCF" stroke-linecap="round" stroke-linejoin="round"/>
<path d="M441.476 193.48C441.476 196.09 443.593 198.206 446.206 198.206C448.818 198.206 450.936 196.09 450.936 193.48C450.936 190.871 448.818 188.755 446.206 188.755C443.593 188.755 441.476 190.871 441.476 193.48Z" stroke="#11BDCF" stroke-linecap="round" stroke-linejoin="round"/>
<path d="M656.185 21.114C656.185 23.7238 658.303 25.8394 660.915 25.8394C663.528 25.8394 665.646 23.7238 665.646 21.114C665.646 18.5043 663.528 16.3887 660.915 16.3887C658.303 16.3887 656.185 18.5043 656.185 21.114Z" stroke="#11BDCF" stroke-linecap="round" stroke-linejoin="round"/>
<path d="M616.701 187.457C617.119 187.455 617.528 187.576 617.877 187.807C618.225 188.037 618.497 188.366 618.658 188.751C618.82 189.136 618.862 189.561 618.781 189.97C618.7 190.38 618.499 190.756 618.204 191.052C617.908 191.347 617.532 191.548 617.122 191.628C616.712 191.709 616.287 191.666 615.901 191.506C615.516 191.345 615.187 191.073 614.956 190.725C614.725 190.377 614.603 189.968 614.606 189.55C614.606 188.995 614.827 188.463 615.22 188.07C615.613 187.678 616.146 187.457 616.701 187.457V187.457Z" stroke="#11BDCF" stroke-linecap="round" stroke-linejoin="round"/>
<path d="M436.88 91.1748C437.298 91.1724 437.707 91.2942 438.056 91.5246C438.404 91.755 438.676 92.0838 438.837 92.469C438.998 92.8542 439.041 93.2786 438.96 93.6882C438.879 94.0978 438.678 94.4741 438.383 94.7693C438.087 95.0645 437.71 95.2653 437.3 95.3462C436.89 95.427 436.466 95.3843 436.08 95.2234C435.694 95.0625 435.365 94.7907 435.135 94.4426C434.904 94.0945 434.782 93.6857 434.785 93.2682C434.788 92.714 435.01 92.1834 435.402 91.7915C435.794 91.3996 436.325 91.1781 436.88 91.1748V91.1748Z" stroke="#11BDCF" stroke-linecap="round" stroke-linejoin="round"/>
<path d="M678.562 183.124C678.993 183.126 679.413 183.256 679.77 183.497C680.127 183.738 680.405 184.079 680.568 184.478C680.731 184.876 680.773 185.314 680.687 185.736C680.602 186.158 680.393 186.545 680.088 186.848C679.782 187.152 679.393 187.358 678.97 187.441C678.548 187.524 678.11 187.48 677.712 187.315C677.314 187.15 676.974 186.871 676.735 186.512C676.496 186.154 676.368 185.734 676.368 185.303C676.368 185.016 676.425 184.732 676.535 184.466C676.646 184.201 676.808 183.96 677.011 183.758C677.215 183.555 677.457 183.395 677.723 183.286C677.989 183.178 678.274 183.122 678.562 183.124Z" stroke="#11BDCF" stroke-linecap="round" stroke-linejoin="round"/>
<path d="M484.697 224.268C484.697 224.268 477.099 227.206 474.428 221.073" stroke="#11BDCF" stroke-linecap="round" stroke-linejoin="round"/>
<path d="M457.982 1.80898C458.142 2.2728 458.421 2.68637 458.792 3.00802C459.163 3.32966 459.612 3.54803 460.094 3.64113C460.576 3.73422 461.074 3.69875 461.538 3.53829C462.002 3.37783 462.416 3.09805 462.737 2.72712C463.1 2.23308 463.42 1.70883 463.693 1.16016C463.831 0.885256 464.025 0.641435 464.261 0.443585C464.496 0.245736 464.77 0.098008 465.065 0.00942261C465.409 -0.0241343 465.756 0.0237881 466.077 0.149293C466.399 0.274797 466.686 0.47434 466.916 0.731695C467.381 1.24157 467.872 1.72778 468.386 2.18848C468.949 2.60305 469.63 2.82672 470.329 2.82672C471.028 2.82672 471.708 2.60305 472.271 2.18848" stroke="#11BDCF" stroke-linecap="round" stroke-linejoin="round"/>
<path d="M625.365 160.366C625.053 160.597 624.805 160.904 624.644 161.257C624.484 161.611 624.415 161.999 624.446 162.386C624.489 162.774 624.632 163.144 624.862 163.46C625.092 163.776 625.401 164.026 625.757 164.186C626.215 164.351 626.687 164.474 627.167 164.553C627.43 164.576 627.682 164.669 627.897 164.822C628.113 164.974 628.284 165.181 628.394 165.421C628.503 165.661 628.547 165.926 628.521 166.188C628.495 166.451 628.4 166.702 628.245 166.916C627.955 167.381 627.693 167.863 627.461 168.36C627.282 168.888 627.277 169.459 627.447 169.99C627.616 170.521 627.952 170.984 628.404 171.31" stroke="#11BDCF" stroke-linecap="round" stroke-linejoin="round"/>
<path d="M727.579 210.313C727.837 210.871 728.237 211.35 728.741 211.703C729.244 212.056 729.832 212.27 730.444 212.322C731.057 212.374 731.673 212.263 732.228 212.001C732.784 211.738 733.26 211.333 733.609 210.827C733.986 210.145 734.306 209.432 734.564 208.697C734.713 208.345 734.93 208.026 735.204 207.759C735.477 207.492 735.802 207.282 736.158 207.142C736.587 207.047 737.034 207.055 737.46 207.166C737.886 207.276 738.279 207.486 738.608 207.779C739.242 208.361 739.913 208.901 740.618 209.395C741.37 209.799 742.23 209.959 743.077 209.854C743.925 209.749 744.718 209.383 745.348 208.807" stroke="#11BDCF" stroke-linecap="round" stroke-linejoin="round"/>
<path d="M658.477 96.1943C657.881 96.3379 657.334 96.636 656.891 97.0585C656.448 97.4809 656.124 98.0127 655.952 98.6002C655.781 99.1877 655.767 99.8101 655.914 100.404C656.06 100.999 656.361 101.544 656.786 101.985C657.363 102.511 657.981 102.99 658.636 103.417C658.954 103.624 659.227 103.893 659.438 104.209C659.649 104.525 659.793 104.88 659.861 105.253C659.866 105.685 659.769 106.112 659.577 106.499C659.386 106.887 659.105 107.223 658.759 107.481C658.071 107.991 657.412 108.539 656.786 109.122C656.202 109.788 655.85 110.626 655.784 111.509C655.718 112.392 655.94 113.273 656.418 114.019" stroke="#11BDCF" stroke-linecap="round" stroke-linejoin="round"/>
<path d="M882.31 52.1351L890.925 51.523L885.999 42.5986L893.695 42.2926L890.006 33.6865" stroke="#11BDCF" stroke-linecap="round" stroke-linejoin="round"/>
<path d="M1083.2 212.725L1076.68 215.014L1082.35 220.853L1076.49 222.702L1081.15 228.566" stroke="#11BDCF" stroke-linecap="round" stroke-linejoin="round"/>
<path d="M930.127 193.48C930.127 196.09 932.245 198.206 934.857 198.206C937.47 198.206 939.587 196.09 939.587 193.48C939.587 190.871 937.47 188.755 934.857 188.755C932.245 188.755 930.127 190.871 930.127 193.48Z" stroke="#11BDCF" stroke-linecap="round" stroke-linejoin="round"/>
<path d="M1144.84 21.114C1144.84 23.7238 1146.95 25.8394 1149.57 25.8394C1152.18 25.8394 1154.3 23.7238 1154.3 21.114C1154.3 18.5043 1152.18 16.3887 1149.57 16.3887C1146.95 16.3887 1144.84 18.5043 1144.84 21.114Z" stroke="#11BDCF" stroke-linecap="round" stroke-linejoin="round"/>
<path d="M1105.35 187.457C1105.77 187.455 1106.18 187.576 1106.53 187.807C1106.88 188.037 1107.15 188.366 1107.31 188.751C1107.47 189.136 1107.51 189.561 1107.43 189.97C1107.35 190.38 1107.15 190.756 1106.86 191.052C1106.56 191.347 1106.18 191.548 1105.77 191.628C1105.36 191.709 1104.94 191.666 1104.55 191.506C1104.17 191.345 1103.84 191.073 1103.61 190.725C1103.38 190.377 1103.25 189.968 1103.26 189.55C1103.26 188.995 1103.48 188.463 1103.87 188.07C1104.26 187.678 1104.8 187.457 1105.35 187.457V187.457Z" stroke="#11BDCF" stroke-linecap="round" stroke-linejoin="round"/>
<path d="M925.532 91.1748C925.95 91.1724 926.359 91.2942 926.707 91.5246C927.056 91.755 927.328 92.0838 927.489 92.469C927.65 92.8542 927.693 93.2786 927.612 93.6882C927.531 94.0978 927.33 94.4741 927.035 94.7693C926.739 95.0645 926.362 95.2653 925.952 95.3462C925.542 95.427 925.117 95.3843 924.732 95.2234C924.346 95.0625 924.017 94.7907 923.786 94.4426C923.556 94.0945 923.434 93.6857 923.436 93.2682C923.44 92.714 923.661 92.1834 924.054 91.7915C924.446 91.3996 924.977 91.1781 925.532 91.1748V91.1748Z" stroke="#11BDCF" stroke-linecap="round" stroke-linejoin="round"/>
<path d="M1167.21 183.124C1167.64 183.126 1168.06 183.256 1168.42 183.497C1168.78 183.738 1169.06 184.079 1169.22 184.478C1169.38 184.876 1169.42 185.314 1169.34 185.736C1169.25 186.158 1169.04 186.545 1168.74 186.848C1168.43 187.152 1168.04 187.358 1167.62 187.441C1167.2 187.524 1166.76 187.48 1166.36 187.315C1165.97 187.15 1165.63 186.871 1165.39 186.512C1165.15 186.154 1165.02 185.734 1165.02 185.303C1165.02 185.016 1165.08 184.732 1165.19 184.466C1165.3 184.201 1165.46 183.96 1165.66 183.758C1165.87 183.555 1166.11 183.395 1166.37 183.286C1166.64 183.178 1166.93 183.122 1167.21 183.124Z" stroke="#11BDCF" stroke-linecap="round" stroke-linejoin="round"/>
<path d="M973.348 224.268C973.348 224.268 965.751 227.206 963.079 221.073" stroke="#11BDCF" stroke-linecap="round" stroke-linejoin="round"/>
<path d="M946.634 1.80898C946.794 2.2728 947.073 2.68637 947.444 3.00802C947.814 3.32966 948.263 3.54803 948.745 3.64113C949.227 3.73422 949.726 3.69875 950.19 3.53829C950.654 3.37783 951.067 3.09805 951.388 2.72712C951.751 2.23308 952.071 1.70883 952.344 1.16016C952.483 0.885256 952.676 0.641435 952.912 0.443585C953.148 0.245736 953.422 0.098008 953.717 0.00942261C954.06 -0.0241343 954.407 0.0237881 954.729 0.149293C955.05 0.274797 955.337 0.47434 955.567 0.731695C956.033 1.24157 956.523 1.72778 957.038 2.18848C957.6 2.60305 958.281 2.82672 958.98 2.82672C959.679 2.82672 960.36 2.60305 960.922 2.18848" stroke="#11BDCF" stroke-linecap="round" stroke-linejoin="round"/>
<path d="M1114.02 160.366C1113.7 160.597 1113.46 160.904 1113.3 161.257C1113.14 161.611 1113.07 161.999 1113.1 162.386C1113.14 162.774 1113.28 163.144 1113.51 163.46C1113.74 163.776 1114.05 164.026 1114.41 164.186C1114.87 164.351 1115.34 164.474 1115.82 164.553C1116.08 164.576 1116.33 164.669 1116.55 164.822C1116.76 164.974 1116.94 165.181 1117.05 165.421C1117.16 165.661 1117.2 165.926 1117.17 166.188C1117.15 166.451 1117.05 166.702 1116.9 166.916C1116.61 167.381 1116.34 167.863 1116.11 168.36C1115.93 168.888 1115.93 169.459 1116.1 169.99C1116.27 170.521 1116.6 170.984 1117.06 171.31" stroke="#11BDCF" stroke-linecap="round" stroke-linejoin="round"/>
<path d="M1147.13 96.1943C1146.53 96.3379 1145.99 96.636 1145.54 97.0585C1145.1 97.4809 1144.78 98.0127 1144.6 98.6002C1144.43 99.1877 1144.42 99.8101 1144.57 100.404C1144.71 100.999 1145.01 101.544 1145.44 101.985C1146.01 102.511 1146.63 102.99 1147.29 103.417C1147.61 103.624 1147.88 103.893 1148.09 104.209C1148.3 104.525 1148.44 104.88 1148.51 105.253C1148.52 105.685 1148.42 106.112 1148.23 106.499C1148.04 106.887 1147.76 107.223 1147.41 107.481C1146.72 107.991 1146.06 108.539 1145.44 109.122C1144.85 109.788 1144.5 110.626 1144.44 111.509C1144.37 112.392 1144.59 113.273 1145.07 114.019" stroke="#11BDCF" stroke-linecap="round" stroke-linejoin="round"/>
<path d="M265.311 69.8125L256.794 71.2693L262.566 79.655L254.944 80.72L259.466 88.9221" stroke="#11BDCF" stroke-linecap="round" stroke-linejoin="round"/>
<path d="M131.861 212.725L125.341 215.014L131.015 220.853L125.158 222.702L129.814 228.566" stroke="#11BDCF" stroke-linecap="round" stroke-linejoin="round"/>
<path d="M193.501 21.114C193.501 23.7238 195.618 25.8394 198.231 25.8394C200.843 25.8394 202.961 23.7238 202.961 21.114C202.961 18.5043 200.843 16.3887 198.231 16.3887C195.618 16.3887 193.501 18.5043 193.501 21.114Z" stroke="#11BDCF" stroke-linecap="round" stroke-linejoin="round"/>
<path d="M154.017 187.457C154.435 187.455 154.844 187.576 155.192 187.807C155.541 188.037 155.813 188.366 155.974 188.751C156.135 189.136 156.178 189.561 156.097 189.97C156.016 190.38 155.815 190.756 155.519 191.052C155.224 191.347 154.847 191.548 154.437 191.628C154.027 191.709 153.602 191.666 153.217 191.506C152.831 191.345 152.502 191.073 152.271 190.725C152.041 190.377 151.919 189.968 151.921 189.55C151.921 188.995 152.142 188.463 152.535 188.07C152.928 187.678 153.461 187.457 154.017 187.457V187.457Z" stroke="#11BDCF" stroke-linecap="round" stroke-linejoin="round"/>
<path d="M215.877 183.124C216.308 183.126 216.729 183.256 217.086 183.497C217.443 183.738 217.72 184.079 217.884 184.478C218.047 184.876 218.088 185.314 218.003 185.736C217.917 186.158 217.708 186.545 217.403 186.848C217.097 187.152 216.709 187.358 216.286 187.441C215.863 187.524 215.425 187.48 215.027 187.315C214.629 187.15 214.289 186.871 214.05 186.512C213.811 186.154 213.684 185.734 213.684 185.303C213.684 185.016 213.74 184.732 213.851 184.466C213.961 184.201 214.123 183.96 214.327 183.758C214.531 183.555 214.773 183.395 215.039 183.286C215.305 183.178 215.59 183.122 215.877 183.124Z" stroke="#11BDCF" stroke-linecap="round" stroke-linejoin="round"/>
<path d="M22.0122 224.268C22.0122 224.268 14.4145 227.206 11.743 221.073" stroke="#11BDCF" stroke-linecap="round" stroke-linejoin="round"/>
<path d="M-4.70246 1.80898C-4.54268 2.2728 -4.26336 2.68637 -3.89264 3.00802C-3.52192 3.32966 -3.07289 3.54803 -2.5908 3.64113C-2.1087 3.73422 -1.61055 3.69875 -1.14654 3.53829C-0.682536 3.37783 -0.269052 3.09805 0.0522531 2.72712C0.415148 2.23308 0.734934 1.70883 1.0081 1.16016C1.1466 0.885256 1.33972 0.641435 1.5757 0.443585C1.81167 0.245736 2.08555 0.098008 2.38058 0.00942261C2.72415 -0.0241343 3.0708 0.0237881 3.39234 0.149293C3.71387 0.274797 4.00121 0.47434 4.23099 0.731695C4.69645 1.24157 5.18726 1.72778 5.70154 2.18848C6.2641 2.60305 6.94478 2.82672 7.64385 2.82672C8.34292 2.82672 9.02362 2.60305 9.58618 2.18848" stroke="#11BDCF" stroke-linecap="round" stroke-linejoin="round"/>
<path d="M162.681 160.366C162.369 160.597 162.121 160.904 161.96 161.257C161.799 161.611 161.731 161.999 161.762 162.386C161.804 162.774 161.948 163.144 162.178 163.46C162.408 163.776 162.716 164.026 163.073 164.186C163.53 164.351 164.002 164.474 164.482 164.553C164.745 164.576 164.997 164.669 165.213 164.822C165.428 164.974 165.6 165.181 165.709 165.421C165.819 165.661 165.863 165.926 165.837 166.188C165.811 166.451 165.715 166.702 165.56 166.916C165.27 167.381 165.009 167.863 164.776 168.36C164.597 168.888 164.592 169.459 164.762 169.99C164.932 170.521 165.267 170.984 165.72 171.31" stroke="#11BDCF" stroke-linecap="round" stroke-linejoin="round"/>
<path d="M264.895 210.313C265.152 210.871 265.553 211.35 266.056 211.703C266.559 212.056 267.147 212.27 267.76 212.322C268.372 212.374 268.988 212.263 269.544 212.001C270.1 211.738 270.576 211.333 270.924 210.827C271.302 210.145 271.621 209.432 271.88 208.697C272.028 208.345 272.246 208.026 272.519 207.759C272.793 207.492 273.117 207.282 273.473 207.142C273.903 207.047 274.349 207.055 274.775 207.166C275.201 207.276 275.595 207.486 275.924 207.779C276.557 208.361 277.228 208.901 277.934 209.395C278.686 209.799 279.545 209.959 280.392 209.854C281.24 209.749 282.034 209.383 282.664 208.807" stroke="#11BDCF" stroke-linecap="round" stroke-linejoin="round"/>
<path d="M195.792 96.1943C195.197 96.3379 194.65 96.636 194.206 97.0585C193.763 97.4809 193.439 98.0127 193.268 98.6002C193.096 99.1877 193.083 99.8101 193.229 100.404C193.375 100.999 193.676 101.544 194.101 101.985C194.678 102.511 195.297 102.99 195.951 103.417C196.27 103.624 196.543 103.893 196.754 104.209C196.964 104.525 197.108 104.88 197.177 105.253C197.182 105.685 197.084 106.112 196.893 106.499C196.701 106.887 196.42 107.223 196.074 107.481C195.386 107.991 194.728 108.539 194.101 109.122C193.517 109.788 193.166 110.626 193.099 111.509C193.033 112.392 193.256 113.273 193.733 114.019" stroke="#11BDCF" stroke-linecap="round" stroke-linejoin="round"/>
<path d="M1147.66 77.8828C1142.59 77.8809 1137.63 79.3815 1133.41 82.1949C1129.19 85.0083 1125.9 89.0081 1123.96 93.6884C1122.01 98.3687 1121.5 103.519 1122.49 108.489C1123.48 113.458 1125.92 118.023 1129.51 121.607C1133.1 125.19 1137.67 127.63 1142.64 128.62C1147.62 129.609 1152.78 129.102 1157.47 127.164C1162.16 125.225 1166.16 121.942 1168.98 117.729C1171.8 113.517 1173.31 108.564 1173.31 103.498C1173.31 96.7059 1170.61 90.1921 1165.8 85.3887C1160.99 80.5853 1154.47 77.8854 1147.66 77.8828ZM1147.66 114.935C1145.39 114.937 1143.18 114.267 1141.29 113.01C1139.4 111.753 1137.93 109.965 1137.06 107.873C1136.19 105.781 1135.97 103.478 1136.41 101.257C1136.85 99.0355 1137.94 96.995 1139.55 95.3935C1141.15 93.792 1143.19 92.7016 1145.42 92.2602C1147.64 91.8188 1149.95 92.0463 1152.04 92.914C1154.14 93.7816 1155.93 95.2503 1157.19 97.1343C1158.45 99.0182 1159.12 101.233 1159.12 103.498C1159.11 106.53 1157.91 109.438 1155.76 111.582C1153.61 113.726 1150.7 114.932 1147.66 114.935Z" fill="#FE747D"/>
<path d="M288.78 243.073L338.622 216.225C339.342 215.833 339.943 215.258 340.361 214.559C340.779 213.86 341 213.063 341 212.251C341 211.439 340.779 210.642 340.361 209.943C339.943 209.244 339.342 208.669 338.622 208.278L288.827 181.305C288.128 180.919 287.338 180.72 286.537 180.729C285.736 180.738 284.951 180.954 284.26 181.356C283.569 181.758 282.997 182.331 282.601 183.019C282.204 183.708 281.997 184.487 282 185.278V239.146C282.005 239.929 282.217 240.697 282.613 241.375C283.009 242.053 283.577 242.618 284.261 243.014C284.944 243.41 285.72 243.623 286.513 243.634C287.305 243.644 288.086 243.451 288.78 243.073ZM292.438 224.561V199.879C292.432 199.512 292.525 199.149 292.708 198.829C292.89 198.509 293.155 198.243 293.476 198.057C293.797 197.872 294.162 197.774 294.534 197.774C294.906 197.773 295.271 197.871 295.592 198.056L318.392 210.35C318.72 210.531 318.994 210.796 319.184 211.116C319.375 211.437 319.475 211.802 319.475 212.173C319.475 212.545 319.375 212.91 319.184 213.23C318.994 213.551 318.72 213.815 318.392 213.996L295.545 226.384C295.225 226.558 294.865 226.646 294.5 226.64C294.135 226.633 293.778 226.533 293.465 226.349C293.151 226.165 292.891 225.903 292.711 225.59C292.531 225.276 292.437 224.922 292.438 224.561Z" fill="#11BDCF"/>
<path d="M11.0562 8.42265L14.2321 15.433C14.3801 15.6275 14.5938 15.7611 14.8331 15.8086C15.0723 15.8561 15.3206 15.8142 15.5313 15.6909C15.742 15.5676 15.9005 15.3714 15.977 15.139C16.0536 14.9067 16.043 14.6543 15.9471 14.4293L12.7712 7.40296C12.6359 7.17981 12.4192 7.01837 12.1672 6.95292C11.9152 6.88747 11.6476 6.92317 11.4214 7.05244C11.1952 7.18861 11.0306 7.40769 10.9625 7.66339C10.8943 7.91909 10.9279 8.19136 11.0562 8.42265Z" fill="#DBF5F8"/>
<path d="M8.70588 16.1018C9.46826 18.2527 10.6084 20.2493 12.0723 21.9969C12.2619 22.1809 12.5152 22.2837 12.779 22.2837C13.0427 22.2837 13.2961 22.1809 13.4856 21.9969C13.6653 21.8049 13.7654 21.5513 13.7654 21.2879C13.7654 21.0244 13.6653 20.7709 13.4856 20.5789L13.0092 19.9894C13.0092 20.0849 13.0092 19.9894 13.0092 19.9894C12.9634 19.943 12.9258 19.8891 12.8981 19.83C12.8152 19.7359 12.7408 19.6346 12.6757 19.5273C12.3714 19.1077 12.0904 18.6716 11.8341 18.2208C11.5762 17.7883 11.3429 17.3415 11.1354 16.8825C11.0759 16.7543 11.0281 16.621 10.9925 16.4842C10.9925 16.4842 10.9925 16.3726 10.9131 16.3248V16.2133C10.9131 16.3089 10.9131 16.2133 10.9131 16.1177C10.9042 16.0596 10.9042 16.0005 10.9131 15.9424C10.8507 15.8137 10.7976 15.6806 10.7543 15.5441C10.714 15.4068 10.6453 15.2794 10.5527 15.1705C10.4601 15.0615 10.3456 14.9734 10.2168 14.9118C10.088 14.8501 9.94763 14.8164 9.80496 14.8128C9.66228 14.8092 9.52045 14.8358 9.38869 14.8909C9.13871 14.9615 8.92668 15.1285 8.79879 15.3553C8.6709 15.5821 8.6375 15.8504 8.70588 16.1018Z" fill="#DBF5F8"/>
<path d="M16.5345 20.9935C18.2918 24.5093 20.1497 27.9773 22.1082 31.3975C22.2562 31.592 22.4699 31.7256 22.7092 31.7731C22.9484 31.8206 23.1967 31.7787 23.4074 31.6554C23.618 31.5321 23.7766 31.3358 23.8531 31.1035C23.9297 30.8712 23.919 30.6188 23.8232 30.3938C21.8647 26.9842 20.0068 23.5162 18.2495 19.9897C17.6778 18.8426 15.9628 19.8622 16.5345 20.9935Z" fill="#DBF5F8"/>
<path d="M14.883 28.1306L16.2804 30.5683C16.3423 30.681 16.4262 30.78 16.5272 30.8594C16.6282 30.9388 16.7441 30.997 16.868 31.0303C16.996 31.0641 17.1294 31.0716 17.2604 31.0524C17.3913 31.0333 17.5171 30.9878 17.6302 30.9188C17.8553 30.7856 18.0195 30.5694 18.0878 30.3163C18.156 30.0632 18.1229 29.7934 17.9954 29.5645L16.5821 27.1268C16.5202 27.0141 16.4363 26.915 16.3353 26.8356C16.2344 26.7562 16.1185 26.6981 15.9946 26.6648C15.7376 26.5987 15.4652 26.6328 15.2324 26.7603C15.0057 26.8962 14.8418 27.1166 14.7763 27.3732C14.7109 27.6299 14.7492 27.9021 14.883 28.1306Z" fill="#DBF5F8"/>
<path d="M20.3138 38.7898C21.5492 41.0504 23.001 43.1848 24.6489 45.1629C24.8364 45.3507 25.0905 45.4562 25.3555 45.4562C25.6204 45.4562 25.8746 45.3507 26.0621 45.1629C26.2373 44.9718 26.3346 44.7216 26.3346 44.4619C26.3346 44.2022 26.2373 43.952 26.0621 43.7608C24.5247 41.9417 23.1734 39.9721 22.0288 37.8817C21.896 37.6558 21.6805 37.491 21.4283 37.4225C21.176 37.3541 20.9071 37.3873 20.679 37.5152C20.4528 37.6514 20.2882 37.8705 20.2201 38.1262C20.1519 38.3819 20.1855 38.6541 20.3138 38.8854V38.7898Z" fill="#DBF5F8"/>
<path d="M23.9818 36.4794C24.3375 37.1818 24.7745 37.8396 25.2839 38.4392C25.4706 38.6226 25.7213 38.7256 25.9826 38.726C26.2426 38.7193 26.4912 38.6172 26.6813 38.4392C26.7726 38.3469 26.8448 38.2375 26.8939 38.1172C26.9429 37.9969 26.9678 37.8681 26.9672 37.7381V37.4673C26.9239 37.2984 26.8361 37.1443 26.7131 37.0212C26.651 36.9499 26.5927 36.8754 26.5384 36.7981L26.6972 37.0052C26.3233 36.5071 25.9989 35.9735 25.7286 35.4119C25.5903 35.1877 25.3708 35.0259 25.1162 34.9605C24.8615 34.8952 24.5916 34.9313 24.3629 35.0614C24.2524 35.1237 24.1558 35.2082 24.0793 35.3096C24.0028 35.4111 23.948 35.5273 23.9183 35.6509C23.8525 35.9088 23.8865 36.1821 24.0136 36.4157L23.9818 36.4794Z" fill="#DBF5F8"/>
<path d="M29.6192 45.8962L34.9229 54.1015C35.0614 54.3255 35.2797 54.488 35.5334 54.5561C35.7871 54.6242 36.0572 54.5927 36.2886 54.468C36.5152 54.3321 36.6792 54.1118 36.7446 53.8551C36.81 53.5984 36.7717 53.3262 36.6379 53.0978L31.3342 44.8924C31.2015 44.6666 30.9859 44.5018 30.7337 44.4333C30.4815 44.3648 30.2125 44.3981 29.9844 44.526C29.7582 44.6621 29.5936 44.8812 29.5255 45.1369C29.4573 45.3926 29.4909 45.6649 29.6192 45.8962Z" fill="#DBF5F8"/>
<path d="M21.4413 48.2223L24.6172 52.7472C24.7527 52.97 24.9682 53.1322 25.2193 53.2003C25.4704 53.2685 25.738 53.2375 25.967 53.1136C26.1932 52.9775 26.3578 52.7584 26.4259 52.5027C26.4941 52.247 26.4605 51.9747 26.3322 51.7434L23.1881 47.2185C23.1323 47.0877 23.0495 46.9702 22.945 46.874C22.8406 46.7777 22.7169 46.7048 22.5823 46.6601C22.4476 46.6154 22.3051 46.6 22.164 46.6148C22.023 46.6297 21.8867 46.6744 21.7642 46.7461C21.6416 46.8178 21.5357 46.9148 21.4534 47.0307C21.3712 47.1466 21.3144 47.2787 21.2868 47.4183C21.2593 47.5579 21.2617 47.7018 21.2938 47.8404C21.3259 47.979 21.387 48.1092 21.4731 48.2223H21.4413Z" fill="#DBF5F8"/>
<path d="M29.7462 54.2447L31.3341 56.7303C31.4686 56.9464 31.6778 57.1053 31.9217 57.1764C32.1786 57.2424 32.451 57.2083 32.6839 57.0808C32.9074 56.9512 33.0724 56.74 33.1444 56.4913C33.2162 56.2286 33.1819 55.9481 33.0491 55.7106L31.4611 53.241C31.3233 53.0245 31.1161 52.8615 30.8736 52.7789C30.6097 52.7117 30.3301 52.7518 30.0955 52.8905C29.985 52.9527 29.8884 53.0372 29.8119 53.1387C29.7354 53.2401 29.6806 53.3563 29.6509 53.48C29.6149 53.6074 29.6048 53.7407 29.6211 53.8721C29.6375 54.0034 29.68 54.1302 29.7462 54.2447Z" fill="#DBF5F8"/>
<path d="M39.4484 60.1875C41.2741 62.3192 42.9912 64.5419 44.5934 66.8474C44.7314 67.0675 44.948 67.2263 45.1989 67.2915C45.4498 67.3566 45.716 67.3232 45.9431 67.1979C46.1682 67.0647 46.3325 66.8485 46.4007 66.5954C46.469 66.3423 46.4358 66.0725 46.3084 65.8436C44.6185 63.3959 42.8004 61.0398 40.8617 58.7854C40.6742 58.5976 40.42 58.4922 40.1551 58.4922C39.8901 58.4922 39.636 58.5976 39.4484 58.7854C39.2697 58.9748 39.1702 59.2257 39.1702 59.4865C39.1702 59.7472 39.2697 59.9981 39.4484 60.1875Z" fill="#DBF5F8"/>
<path d="M35.3517 62.8489L37.2572 65.4459C37.3971 65.6671 37.6111 65.831 37.8607 65.9079C38.1176 65.974 38.39 65.9399 38.6229 65.8123C38.8434 65.672 39.0067 65.4573 39.0834 65.2069C39.117 65.0785 39.1245 64.9446 39.1054 64.8132C39.0863 64.6818 39.041 64.5556 38.9722 64.4421L37.0667 61.8451C36.9329 61.6249 36.7242 61.4608 36.4792 61.3831C36.3512 61.3493 36.2177 61.3418 36.0867 61.3609C35.9558 61.3801 35.83 61.4255 35.7169 61.4946C35.6046 61.5567 35.5059 61.6409 35.4268 61.7422C35.3476 61.8435 35.2897 61.9598 35.2564 62.0841C35.1906 62.3419 35.2246 62.6152 35.3517 62.8489Z" fill="#DBF5F8"/>
<path d="M27.4437 60.9362C29.2105 64.1003 31.2964 67.074 33.6685 69.8107C33.7555 69.9222 33.865 70.0139 33.9898 70.0799C34.1146 70.1459 34.252 70.1847 34.3928 70.1937C34.5336 70.2027 34.6747 70.1816 34.8069 70.132C34.9391 70.0824 35.0592 70.0053 35.1596 69.9057C35.2599 69.8062 35.3381 69.6864 35.3891 69.5544C35.4401 69.4224 35.4626 69.281 35.4552 69.1396C35.4479 68.9983 35.4108 68.86 35.3464 68.734C35.2821 68.608 35.1919 68.4971 35.0817 68.4086C32.8188 65.7977 30.8337 62.9569 29.1587 59.9324C28.5394 58.8171 26.8244 59.8209 27.4437 60.9362Z" fill="#DBF5F8"/>
<path d="M9.56343 33.4683C10.2939 34.5518 11.0243 35.6511 11.7389 36.7505C11.8772 36.9747 12.0967 37.1365 12.3513 37.2019C12.606 37.2673 12.8759 37.2311 13.1045 37.101C13.3312 36.9651 13.4952 36.7448 13.5606 36.4881C13.626 36.2314 13.5877 35.9592 13.4539 35.7308L11.2784 32.4168C11.2227 32.2859 11.1398 32.1685 11.0354 32.0722C10.9309 31.9759 10.8073 31.903 10.6726 31.8584C10.538 31.8137 10.3954 31.7983 10.2543 31.8131C10.1133 31.8279 9.97699 31.8726 9.85448 31.9444C9.73198 32.0161 9.62607 32.1131 9.54378 32.229C9.46149 32.3449 9.4047 32.477 9.37717 32.6166C9.34965 32.7562 9.35202 32.9 9.38414 33.0387C9.41625 33.1773 9.47736 33.3074 9.56343 33.4205V33.4683Z" fill="#DBF5F8"/>
<path d="M-0.504155 23.4626C0.607406 25.8047 1.83012 28.099 3.14812 30.3137C3.29612 30.5082 3.50985 30.6417 3.7491 30.6892C3.98835 30.7367 4.23665 30.6948 4.44732 30.5715C4.65798 30.4482 4.8165 30.252 4.89307 30.0196C4.96964 29.7873 4.95898 29.5349 4.8631 29.3099C3.5504 27.1324 2.33297 24.8487 1.21082 22.4588C1.07255 22.2346 0.853054 22.0728 0.59842 22.0074C0.343785 21.942 0.0738173 21.9782 -0.154807 22.1083C-0.377209 22.2441 -0.538109 22.4615 -0.603338 22.7143C-0.668567 22.9672 -0.632988 23.2356 -0.504155 23.4626Z" fill="#DBF5F8"/>
<path d="M0.432723 14.7159L3.05283 20.1808C3.20084 20.3753 3.41456 20.5088 3.65381 20.5563C3.89306 20.6038 4.14137 20.562 4.35203 20.4387C4.5627 20.3154 4.72122 20.1191 4.79778 19.8868C4.87435 19.6544 4.86369 19.402 4.76781 19.177L2.1477 13.7121C2.08756 13.5947 2.00456 13.4905 1.90362 13.4058C1.80268 13.3211 1.68584 13.2576 1.56001 13.219C1.43418 13.1804 1.30191 13.1674 1.17102 13.181C1.04013 13.1945 0.913275 13.2343 0.79795 13.2979C0.574749 13.4368 0.412718 13.6558 0.34486 13.9104C0.277002 14.165 0.308424 14.4359 0.432723 14.6681V14.7159Z" fill="#DBF5F8"/>
<path d="M11.4847 45.6255L14.6606 51.0905C14.7249 51.2039 14.8108 51.3034 14.9136 51.3832C15.0164 51.4631 15.1339 51.5218 15.2594 51.5559C15.3849 51.5899 15.5158 51.5987 15.6447 51.5817C15.7736 51.5648 15.8979 51.5223 16.0104 51.4569C16.2366 51.3207 16.4012 51.1016 16.4693 50.8459C16.5375 50.5903 16.5039 50.318 16.3756 50.0867L13.1997 44.6218C13.1355 44.5084 13.0495 44.4089 12.9467 44.329C12.8439 44.2491 12.7264 44.1904 12.6009 44.1564C12.4754 44.1223 12.3445 44.1135 12.2156 44.1305C12.0867 44.1475 11.9624 44.1899 11.85 44.2553C11.6268 44.3942 11.4647 44.6133 11.3969 44.8678C11.329 45.1224 11.3604 45.3934 11.4847 45.6255Z" fill="#DBF5F8"/>
<path d="M20.7585 62.8486C21.7113 64.3144 22.6641 65.7802 23.6327 67.2301C23.7654 67.4561 23.9821 67.6201 24.2352 67.6858C24.4884 67.7515 24.7571 67.7137 24.9825 67.5806C25.2078 67.4475 25.3712 67.23 25.4367 66.976C25.5022 66.7221 25.4645 66.4524 25.3318 66.2263L22.4735 61.8448C22.3255 61.6503 22.1118 61.5168 21.8725 61.4693C21.6333 61.4218 21.385 61.4636 21.1743 61.5869C20.9636 61.7102 20.8051 61.9065 20.7286 62.1388C20.652 62.3712 20.6626 62.6236 20.7585 62.8486Z" fill="#DBF5F8"/>
<path d="M48.2774 63.9634C49.2461 65.2858 50.2147 66.5923 51.1675 67.9147C51.3052 68.128 51.5131 68.2859 51.755 68.3609C51.8842 68.4002 52.0202 68.412 52.1542 68.3956C52.2882 68.3791 52.4172 68.3347 52.5331 68.2653C52.6448 68.1995 52.7425 68.1122 52.8205 68.0085C52.8986 67.9048 52.9554 67.7867 52.9879 67.6609C53.0203 67.5351 53.0277 67.4041 53.0097 67.2754C52.9916 67.1467 52.9484 67.0229 52.8825 66.911C51.9138 65.5886 50.9611 64.2661 49.9924 62.9597C49.9282 62.8463 49.8422 62.7468 49.7394 62.6669C49.6367 62.587 49.5191 62.5283 49.3937 62.4943C49.2682 62.4602 49.1372 62.4514 49.0083 62.4684C48.8794 62.4854 48.7551 62.5278 48.6427 62.5932C48.4195 62.7321 48.2574 62.9512 48.1896 63.2057C48.1217 63.4603 48.1531 63.7313 48.2774 63.9634Z" fill="#DBF5F8"/>
<path d="M17.9319 11.1628C19.5199 14.429 21.1872 17.6792 22.8069 20.9455C22.9396 21.1713 23.1552 21.3361 23.4074 21.4046C23.6596 21.4731 23.9286 21.4398 24.1567 21.3119C24.3829 21.1757 24.5475 20.9567 24.6156 20.701C24.6838 20.4453 24.6502 20.173 24.5219 19.9417C22.934 16.7552 21.2666 13.4252 19.6469 10.159C19.5142 9.93315 19.2987 9.76837 19.0464 9.69989C18.7942 9.6314 18.5253 9.66466 18.2972 9.79255C18.071 9.92872 17.9064 10.1478 17.8382 10.4035C17.7701 10.6592 17.8037 10.9315 17.9319 11.1628Z" fill="#DBF5F8"/>
<path d="M26.5863 26.6654C30.1259 33.0369 34.0062 39.2119 38.2101 45.1632C38.9405 46.1989 40.6555 45.1632 39.9251 44.1595C35.7216 38.2133 31.8414 32.0437 28.3013 25.6775C27.682 24.5622 25.967 25.566 26.5863 26.6813V26.6654Z" fill="#DBF5F8"/>
<path d="M42.5132 51.998C42.8899 52.3495 43.2353 52.7333 43.5454 53.1452L43.4025 52.938C43.8727 53.5634 44.2672 54.2426 44.5775 54.9615C44.7141 55.1857 44.9293 55.3506 45.181 55.4235C45.309 55.4573 45.4424 55.4648 45.5734 55.4457C45.7044 55.4265 45.8301 55.381 45.9432 55.312C46.1656 55.1812 46.3303 54.9705 46.4037 54.7225C46.4546 54.4623 46.4154 54.1925 46.2925 53.9577C45.735 52.6814 44.9246 51.5322 43.9106 50.58C43.7219 50.4007 43.4718 50.3008 43.2119 50.3008C42.952 50.3008 42.702 50.4007 42.5132 50.58C42.3335 50.772 42.2334 51.0256 42.2334 51.289C42.2334 51.5524 42.3335 51.806 42.5132 51.998Z" fill="#DBF5F8"/>
<path d="M37.6225 74.5748C39.3204 76.7495 41.384 78.6097 43.7202 80.0716C43.8317 80.1376 43.9551 80.181 44.0834 80.1992C44.2116 80.2173 44.3422 80.2099 44.4676 80.1773C44.593 80.1448 44.7107 80.0877 44.8141 80.0094C44.9174 79.9311 45.0044 79.8331 45.07 79.721C45.1957 79.4908 45.2296 79.2212 45.1647 78.9668C45.0998 78.7124 44.9411 78.4922 44.7206 78.3508C44.1648 78.0003 43.6249 77.6339 43.1327 77.2355H43.0533L42.8945 77.1081L42.5134 76.7894C42.2448 76.5835 41.9902 76.36 41.7512 76.1202C40.7651 75.2199 39.8665 74.2276 39.0675 73.1568C38.8743 73.005 38.6323 72.9298 38.3874 72.9454C38.1426 72.961 37.912 73.0663 37.7395 73.2414C37.567 73.4164 37.4646 73.649 37.4518 73.8948C37.439 74.1407 37.5167 74.3827 37.6701 74.5748H37.6225Z" fill="#DBF5F8"/>
<path d="M47.0071 75.8495C48.2852 77.6666 50.0004 79.1299 51.9932 80.1036C52.2204 80.2288 52.4866 80.2623 52.7375 80.1971C52.9884 80.132 53.205 79.9731 53.343 79.753C53.4768 79.5246 53.5151 79.2524 53.4497 78.9957C53.3843 78.739 53.2203 78.5187 52.9937 78.3828C52.5408 78.1637 52.1008 77.9191 51.6757 77.6499L51.0881 77.2516L50.9293 77.1401C50.7864 77.0285 51.0246 77.1401 50.9293 77.1401L50.6276 76.9011C50.2624 76.5824 49.8972 76.2478 49.5637 75.8973L49.0714 75.3237L48.9761 75.1963C48.9761 75.1963 48.8174 75.0051 48.9761 75.1963V75.1007C48.9299 75.0452 48.8874 74.9867 48.8491 74.9254C48.7137 74.698 48.4941 74.5335 48.2383 74.4678C47.9825 74.4022 47.7111 74.4407 47.4835 74.5749C47.3718 74.6407 47.2741 74.7279 47.1961 74.8316C47.118 74.9354 47.0612 75.0535 47.0287 75.1793C46.9963 75.3051 46.9889 75.4361 47.007 75.5648C47.0251 75.6935 47.0683 75.8173 47.1341 75.9292L47.0071 75.8495Z" fill="#DBF5F8"/>
<path d="M56.4077 73.8418C57.3955 74.9752 58.6004 75.8978 59.9508 76.5547C61.3011 77.2116 62.7693 77.5894 64.268 77.6656C64.5306 77.6657 64.7827 77.5621 64.9698 77.3773C65.157 77.1925 65.2642 76.9413 65.2684 76.6778C65.2604 76.4141 65.1525 76.1634 64.9666 75.9769C64.7806 75.7904 64.5308 75.6821 64.268 75.6741C63.0595 75.5988 61.8776 75.2848 60.7904 74.75C59.6492 74.1988 58.6371 73.4115 57.8209 72.4397C57.6334 72.2519 57.3793 72.1465 57.1143 72.1465C56.8494 72.1465 56.5952 72.2519 56.4077 72.4397C56.229 72.6291 56.1294 72.88 56.1294 73.1408C56.1294 73.4015 56.229 73.6524 56.4077 73.8418Z" fill="#DBF5F8"/>
<path d="M57.1541 83.4013C59.2044 84.6899 61.5788 85.3643 63.9981 85.3451C64.2592 85.3451 64.5096 85.2411 64.6943 85.0558C64.8789 84.8705 64.9826 84.6193 64.9826 84.3573C64.9705 84.1022 64.862 83.8613 64.679 83.6837C64.4961 83.5061 64.2526 83.4051 63.9981 83.4013C61.9174 83.4252 59.8752 82.8382 58.1227 81.7125C58.0112 81.6464 57.8878 81.603 57.7595 81.5849C57.6313 81.5667 57.5007 81.5741 57.3753 81.6067C57.2499 81.6393 57.1322 81.6963 57.0288 81.7746C56.9255 81.8529 56.8385 81.9509 56.7729 82.063C56.6472 82.2933 56.6133 82.5629 56.6782 82.8173C56.7431 83.0716 56.9018 83.2918 57.1223 83.4332L57.1541 83.4013Z" fill="#DBF5F8"/>
<path d="M28.7934 75.8657C30.4135 79.4159 32.9729 82.4523 36.1932 84.6446C36.3057 84.7101 36.43 84.7525 36.5589 84.7695C36.6878 84.7865 36.8187 84.7777 36.9442 84.7436C37.0697 84.7095 37.1872 84.6509 37.29 84.571C37.3928 84.4911 37.4788 84.3916 37.543 84.2782C37.6718 84.0512 37.7074 83.7828 37.6422 83.5299C37.5769 83.2771 37.416 83.0597 37.1936 82.9239C34.2745 80.8983 31.9627 78.1105 30.5084 74.8619C30.373 74.6345 30.1534 74.47 29.8976 74.4044C29.6417 74.3387 29.3704 74.3772 29.1428 74.5114C28.9234 74.6499 28.7651 74.8672 28.7001 75.119C28.6352 75.3707 28.6686 75.6378 28.7934 75.8657Z" fill="#DBF5F8"/>
<path d="M42.6243 88.8827C44.8514 90.4032 47.3465 91.4846 49.9765 92.0692C50.2311 92.1334 50.5006 92.0963 50.7285 91.9656C50.9564 91.835 51.1251 91.6208 51.1992 91.3682C51.2351 91.2426 51.2453 91.1111 51.2293 90.9815C51.2133 90.8519 51.1715 90.7268 51.1063 90.6138C51.0411 90.5008 50.9538 90.4021 50.8497 90.3237C50.7457 90.2452 50.6269 90.1886 50.5006 90.1573C48.0397 89.6064 45.7061 88.5898 43.6248 87.1619C43.5138 87.0937 43.3903 87.0485 43.2616 87.0292C43.1329 87.0099 43.0017 87.0168 42.8757 87.0496C42.7497 87.0823 42.6316 87.1401 42.5284 87.2197C42.4252 87.2992 42.339 87.3988 42.275 87.5124C42.2091 87.6243 42.1659 87.7482 42.1478 87.8768C42.1297 88.0055 42.1371 88.1365 42.1696 88.2623C42.202 88.3881 42.2589 88.5063 42.337 88.61C42.415 88.7137 42.5127 88.8009 42.6243 88.8667V88.8827Z" fill="#DBF5F8"/>
<path d="M57.7415 91.0651L62.6483 93.3753C62.8778 93.5015 63.1465 93.5354 63.4 93.4704C63.6536 93.4053 63.873 93.246 64.0139 93.0248C64.1422 92.7935 64.1758 92.5212 64.1076 92.2655C64.0395 92.0098 63.8749 91.7907 63.6487 91.6546L58.7578 89.3603C58.5292 89.2302 58.2592 89.194 58.0046 89.2594C57.75 89.3247 57.5305 89.4865 57.3922 89.7108C57.3263 89.8227 57.2831 89.9465 57.265 90.0752C57.2469 90.2039 57.2543 90.3349 57.2868 90.4607C57.3192 90.5865 57.3761 90.7046 57.4541 90.8083C57.5322 90.912 57.6298 90.9993 57.7415 91.0651Z" fill="#DBF5F8"/>
<path d="M70.1117 83.3057C74.6871 84.5775 79.346 85.5252 84.0538 86.1417C84.2954 86.111 84.5176 85.9929 84.6786 85.8095C84.8396 85.6262 84.9284 85.3902 84.9284 85.1459C84.9284 84.9015 84.8396 84.6656 84.6786 84.4822C84.5176 84.2989 84.2954 84.1808 84.0538 84.1501C79.5201 83.5532 75.0356 82.6266 70.6357 81.3778C70.3906 81.3355 70.1385 81.3864 69.9288 81.5204C69.719 81.6545 69.5665 81.8622 69.5011 82.1029C69.4356 82.3437 69.4619 82.6003 69.5748 82.8226C69.6877 83.045 69.8791 83.2172 70.1117 83.3057Z" fill="#DBF5F8"/>
<path d="M69.4923 90.7152C70.052 90.6596 70.6158 90.6596 71.1755 90.7152H70.9056C71.2708 90.7152 71.6201 90.8426 71.9854 90.9382C72.2381 91.0079 72.508 90.9741 72.7358 90.8441C72.9636 90.7141 73.1306 90.4987 73.2001 90.2451C73.2696 89.9916 73.2359 89.7208 73.1064 89.4922C72.9768 89.2636 72.7621 89.096 72.5094 89.0263C71.5283 88.7529 70.5086 88.6452 69.4923 88.7076C69.2323 88.7143 68.9837 88.8164 68.7936 88.9944C68.6571 89.1347 68.5646 89.312 68.5273 89.5044C68.4901 89.6969 68.5099 89.8961 68.5842 90.0774C68.6585 90.2587 68.7841 90.4142 68.9455 90.5247C69.1069 90.6352 69.2969 90.6959 69.4923 90.6992V90.7152Z" fill="#DBF5F8"/>
<path d="M92.8669 88.5162C94.8911 88.3821 96.9238 88.4568 98.9328 88.7393C99.1872 88.7995 99.4549 88.7606 99.6818 88.6305C99.9088 88.5004 100.078 88.2887 100.156 88.0383C100.22 87.7828 100.183 87.5124 100.052 87.2837C99.9221 87.0551 99.7087 86.8858 99.4568 86.8114C97.274 86.5065 95.0653 86.4317 92.8669 86.5884C92.6041 86.5964 92.3542 86.7047 92.1683 86.8912C91.9824 87.0778 91.8744 87.3285 91.8665 87.5921C91.8706 87.8556 91.9779 88.1068 92.165 88.2916C92.3522 88.4764 92.6043 88.58 92.8669 88.58V88.5162Z" fill="#DBF5F8"/>
<path d="M79.671 91.5111L86.2769 92.3237C86.5185 92.293 86.7407 92.1749 86.9017 91.9915C87.0627 91.8082 87.1515 91.5722 87.1515 91.3279C87.1515 91.0835 87.0627 90.8476 86.9017 90.6643C86.7407 90.4809 86.5185 90.3628 86.2769 90.3321L79.671 89.5195C79.4099 89.5195 79.1595 89.6236 78.9749 89.8089C78.7903 89.9941 78.6865 90.2454 78.6865 90.5074C78.6865 90.7708 78.7897 91.0238 78.9739 91.2115C79.1581 91.3993 79.4085 91.5069 79.671 91.5111Z" fill="#DBF5F8"/>
<path d="M76.0666 96.9605C78.2025 96.6398 80.3844 96.8532 82.4184 97.5819C82.5435 97.6183 82.6745 97.6293 82.804 97.6145C82.9334 97.5997 83.0586 97.5593 83.1723 97.4955C83.286 97.4318 83.386 97.3461 83.4665 97.2433C83.547 97.1405 83.6063 97.0227 83.6411 96.8968C83.7099 96.6433 83.677 96.3729 83.5493 96.1435C83.4216 95.9141 83.2094 95.7441 82.9583 95.67C80.5918 94.8521 78.0595 94.6386 75.5902 95.0486C75.4653 95.0817 75.3482 95.1396 75.2459 95.2187C75.1436 95.2979 75.0581 95.3968 74.9945 95.5097C74.9309 95.6225 74.8904 95.747 74.8754 95.8757C74.8605 96.0045 74.8713 96.135 74.9074 96.2595C74.978 96.5109 75.1436 96.7248 75.369 96.8557C75.5943 96.9866 75.8617 97.0242 76.1142 96.9605H76.0666Z" fill="#DBF5F8"/>
<path d="M69.2384 100.625C72.1126 100.7 74.9709 101.079 77.7656 101.757C79.0042 102.043 79.5283 100.163 78.2897 99.8287C75.3227 99.1132 72.2889 98.7127 69.2384 98.6338C68.9968 98.6645 68.7746 98.7826 68.6136 98.9659C68.4526 99.1493 68.3638 99.3852 68.3638 99.6296C68.3638 99.8739 68.4526 100.11 68.6136 100.293C68.7746 100.477 68.9968 100.595 69.2384 100.625Z" fill="#DBF5F8"/>
<path d="M92.597 96.2753C97.6156 95.7813 102.674 96.6565 107.238 98.8086C108.381 99.3503 109.397 97.6296 108.238 97.0879C103.37 94.761 97.9671 93.7923 92.597 94.2837C91.3425 94.4112 91.3266 96.4028 92.597 96.2753Z" fill="#DBF5F8"/>
<path d="M89.8817 102.027C90.1233 101.996 90.3454 101.878 90.5065 101.695C90.6675 101.511 90.7563 101.275 90.7563 101.031C90.7563 100.787 90.6675 100.551 90.5065 100.367C90.3454 100.184 90.1233 100.066 89.8817 100.035C89.6401 100.066 89.418 100.184 89.2569 100.367C89.0959 100.551 89.0071 100.787 89.0071 101.031C89.0071 101.275 89.0959 101.511 89.2569 101.695C89.418 101.878 89.6401 101.996 89.8817 102.027Z" fill="#DBF5F8"/>
<path d="M95.0583 102.807C97.5316 102.862 99.9702 103.404 102.236 104.401C102.466 104.529 102.738 104.563 102.992 104.495C103.247 104.426 103.466 104.261 103.601 104.034C103.667 103.922 103.71 103.798 103.729 103.67C103.747 103.541 103.739 103.41 103.707 103.284C103.674 103.158 103.617 103.04 103.539 102.937C103.461 102.833 103.364 102.746 103.252 102.68C100.671 101.517 97.8864 100.878 95.0583 100.8C94.7984 100.804 94.5504 100.909 94.3666 101.094C94.1829 101.278 94.0778 101.527 94.0737 101.788C94.0777 102.05 94.1822 102.301 94.3656 102.487C94.5489 102.674 94.797 102.783 95.0583 102.791V102.807Z" fill="#DBF5F8"/>
<path d="M106.11 92.4357C109.131 93.0491 112.019 94.1984 114.638 95.8294C115.717 96.5145 116.718 94.7778 115.638 94.1086C112.874 92.3844 109.825 91.1703 106.634 90.5238C106.382 90.454 106.112 90.4879 105.884 90.6179C105.656 90.7479 105.489 90.9633 105.42 91.2168C105.35 91.4704 105.384 91.7412 105.513 91.9698C105.643 92.1984 105.858 92.366 106.11 92.4357Z" fill="#DBF5F8"/>
<path d="M113.145 101.549L113.431 102.091C113.484 102.211 113.573 102.311 113.685 102.378C113.785 102.462 113.903 102.522 114.029 102.555C114.155 102.588 114.287 102.593 114.415 102.569C114.544 102.564 114.67 102.525 114.78 102.458L114.987 102.298C115.106 102.179 115.194 102.031 115.241 101.868V101.597C115.238 101.42 115.195 101.245 115.114 101.087L114.828 100.546C114.766 100.432 114.679 100.334 114.574 100.259C114.474 100.175 114.356 100.115 114.23 100.082C114.104 100.049 113.972 100.044 113.844 100.068C113.714 100.073 113.589 100.112 113.478 100.179L113.272 100.339C113.149 100.462 113.061 100.616 113.018 100.785V101.04C113.018 101.217 113.062 101.392 113.145 101.549Z" fill="#DBF5F8"/>
<path d="M120.704 99.3343L120.799 99.5733V99.8442V100.099L120.704 100.322L120.545 100.513L120.338 100.657L120.1 100.752H119.846H119.592L119.354 100.657L119.147 100.497L118.989 100.306L118.893 100.067V99.8123V99.5415L118.989 99.3025C118.916 99.4119 118.873 99.538 118.862 99.6689C118.829 99.7997 118.829 99.9364 118.862 100.067C118.893 100.199 118.959 100.32 119.052 100.418C119.122 100.522 119.214 100.609 119.322 100.673L119.56 100.768C119.732 100.816 119.913 100.816 120.084 100.768L120.323 100.673C120.474 100.585 120.6 100.458 120.688 100.306C120.783 100.142 120.832 99.9546 120.831 99.7645C120.83 99.5797 120.781 99.3983 120.688 99.2387C120.599 99.0782 120.467 98.9458 120.307 98.8563L120.068 98.7607H119.767H119.481L119.227 98.8723C119.167 98.93 119.104 98.9833 119.036 99.0316C118.908 99.1533 118.815 99.3074 118.766 99.4777C118.759 99.5732 118.759 99.6691 118.766 99.7645C118.766 99.7645 118.766 99.876 118.766 99.9079C118.77 99.9556 118.77 100.004 118.766 100.051C118.797 100.139 118.834 100.224 118.878 100.306C118.945 100.416 119.031 100.513 119.132 100.593C119.234 100.676 119.353 100.736 119.481 100.768C119.645 100.891 119.849 100.947 120.053 100.928C120.182 100.922 120.307 100.884 120.418 100.816L120.608 100.657C120.737 100.535 120.83 100.381 120.878 100.211V99.9557C120.88 99.7755 120.831 99.5985 120.735 99.4459L120.704 99.3343Z" fill="#DBF5F8"/>
<path d="M122.133 106.17C124.736 107.563 127.053 109.439 128.961 111.698C129.148 111.886 129.403 111.992 129.667 111.992C129.932 111.992 130.187 111.886 130.374 111.698C130.553 111.509 130.652 111.258 130.652 110.997C130.652 110.737 130.553 110.486 130.374 110.296C128.351 107.905 125.894 105.921 123.133 104.449C122.903 104.32 122.631 104.287 122.376 104.355C122.122 104.423 121.903 104.588 121.767 104.815C121.64 105.044 121.607 105.314 121.675 105.567C121.743 105.82 121.908 106.037 122.133 106.17Z" fill="#DBF5F8"/>
<path d="M125.436 102.011L129.358 105.516C129.545 105.699 129.796 105.802 130.057 105.802C130.318 105.802 130.569 105.699 130.755 105.516C130.939 105.326 131.041 105.072 131.041 104.807C131.041 104.543 130.939 104.289 130.755 104.098L126.833 100.593C126.64 100.442 126.398 100.366 126.153 100.382C125.908 100.398 125.678 100.503 125.505 100.678C125.333 100.853 125.23 101.086 125.217 101.331C125.205 101.577 125.282 101.819 125.436 102.011Z" fill="#DBF5F8"/>
<path d="M107.46 108.894C111.259 110.087 114.942 111.622 118.465 113.483C119.592 114.073 120.592 112.368 119.465 111.762C115.789 109.814 111.94 108.214 107.968 106.982C106.746 106.6 106.222 108.576 107.444 108.894H107.46Z" fill="#DBF5F8"/>
<path d="M91.2155 109.228C93.4341 108.997 95.6668 109.506 97.5673 110.678C97.6788 110.744 97.8022 110.788 97.9304 110.806C98.0587 110.824 98.1892 110.816 98.3146 110.784C98.44 110.751 98.5578 110.694 98.6611 110.616C98.7645 110.538 98.8515 110.44 98.917 110.328C98.9955 110.215 99.0501 110.087 99.0775 109.953C99.1048 109.818 99.1043 109.679 99.076 109.545C99.0478 109.411 98.9923 109.283 98.913 109.171C98.8338 109.059 98.7324 108.965 98.6153 108.894C96.3853 107.574 93.7889 107.015 91.2155 107.3C90.9555 107.312 90.7096 107.422 90.527 107.609C90.3444 107.795 90.2387 108.043 90.231 108.304C90.231 108.566 90.3347 108.817 90.5193 109.003C90.7039 109.188 90.9544 109.292 91.2155 109.292V109.228Z" fill="#DBF5F8"/>
<path d="M105.523 116.335L111.017 118.263C111.27 118.332 111.539 118.299 111.768 118.171C111.997 118.043 112.166 117.83 112.24 117.578C112.309 117.324 112.276 117.054 112.148 116.824C112.02 116.595 111.808 116.425 111.557 116.351L106.047 114.423C105.794 114.354 105.525 114.387 105.296 114.515C105.068 114.643 104.898 114.856 104.824 115.108C104.764 115.363 104.803 115.632 104.933 115.86C105.062 116.087 105.273 116.257 105.523 116.335Z" fill="#DBF5F8"/>
<path d="M122.609 122.309L122.911 122.532L123.054 122.644L123.578 123.058C123.943 123.361 124.292 123.679 124.642 123.998C125.309 124.635 125.96 125.32 126.563 126.022C126.655 126.114 126.764 126.187 126.883 126.238C127.003 126.288 127.132 126.313 127.262 126.313C127.392 126.313 127.52 126.288 127.64 126.238C127.76 126.187 127.869 126.114 127.961 126.022C128.143 125.834 128.245 125.582 128.245 125.32C128.245 125.059 128.143 124.807 127.961 124.619C126.682 123.116 125.233 121.769 123.641 120.604C123.41 120.473 123.138 120.433 122.879 120.493C122.69 120.546 122.521 120.653 122.392 120.802C122.263 120.951 122.181 121.135 122.156 121.33C122.13 121.525 122.163 121.724 122.249 121.901C122.335 122.078 122.472 122.225 122.641 122.325L122.609 122.309Z" fill="#DBF5F8"/>
<path d="M129.676 121.943C131.269 124.051 132.538 126.387 133.439 128.874C133.513 129.126 133.682 129.341 133.91 129.471C134.138 129.602 134.407 129.639 134.662 129.575C134.913 129.501 135.125 129.331 135.253 129.101C135.38 128.872 135.413 128.601 135.345 128.348C134.396 125.697 133.064 123.201 131.391 120.939C131.252 120.715 131.033 120.553 130.778 120.488C130.524 120.423 130.254 120.459 130.025 120.589C129.913 120.655 129.816 120.742 129.738 120.846C129.66 120.949 129.603 121.067 129.57 121.193C129.538 121.319 129.53 121.45 129.548 121.579C129.567 121.707 129.61 121.831 129.676 121.943Z" fill="#DBF5F8"/>
<path d="M133.28 116.128C134.217 117.721 135.138 119.314 136.075 120.796C136.208 121.022 136.423 121.187 136.676 121.255C136.928 121.323 137.197 121.29 137.425 121.162C137.651 121.026 137.816 120.807 137.884 120.551C137.952 120.296 137.918 120.023 137.79 119.792C136.853 118.199 135.932 116.606 134.995 115.124C134.857 114.9 134.637 114.738 134.383 114.672C134.128 114.607 133.858 114.643 133.63 114.773C133.407 114.909 133.246 115.126 133.181 115.379C133.116 115.632 133.151 115.901 133.28 116.128Z" fill="#DBF5F8"/>
<path d="M134.217 111.188C134.487 111.364 134.741 111.555 134.995 111.746L135.106 111.842L135.249 111.953L135.63 112.272C136.129 112.711 136.601 113.179 137.044 113.674C137.266 113.913 137.472 114.152 137.679 114.407L137.822 114.598C137.927 114.723 138.023 114.856 138.108 114.996C138.498 115.533 138.848 116.097 139.156 116.685C139.211 116.816 139.294 116.934 139.399 117.03C139.503 117.126 139.627 117.199 139.761 117.244C139.896 117.288 140.039 117.304 140.18 117.289C140.321 117.274 140.457 117.229 140.58 117.158C140.702 117.086 140.808 116.989 140.89 116.873C140.973 116.757 141.029 116.625 141.057 116.485C141.084 116.346 141.082 116.202 141.05 116.063C141.018 115.925 140.957 115.795 140.871 115.681C139.496 113.163 137.541 111.011 135.17 109.404C134.942 109.27 134.671 109.231 134.415 109.297C134.159 109.363 133.94 109.527 133.804 109.755C133.68 109.987 133.649 110.258 133.716 110.512C133.784 110.767 133.946 110.986 134.17 111.125L134.217 111.188Z" fill="#DBF5F8"/>
</g>
</svg>
