<svg width="935" height="823" viewBox="0 0 935 823" fill="none" xmlns="http://www.w3.org/2000/svg">
<g opacity="0.15">
<path d="M626.082 666.661C621.423 664.92 616.807 663.047 612.279 661.023C616.895 662.996 621.495 664.876 626.082 666.661C657.236 678.331 691.178 683.861 724.248 679.289C753.857 675.196 781.528 663.33 810.266 655.449C839.003 647.568 869.418 643.584 899.396 639.73C913.09 637.967 926.806 636.116 940.522 634.288C925.87 626.298 910.848 619.048 894.672 614.52C861.428 605.376 825.135 609.077 792.348 598.431C757.841 587.24 731.389 561.42 709.356 533.64C701.952 528.052 694.027 523.189 685.691 519.119C638.796 497.347 574.855 515.461 536.32 482.108C502.422 452.825 509.607 398.681 535.797 363.041C543.234 353.128 551.548 343.903 560.638 335.479C549.506 336.931 538.373 338.418 527.241 339.942L526.24 340.095H525.935L524.933 340.225L517.27 341.227H516.943C502.923 343.034 488.88 344.754 474.838 346.299L473.706 346.43H473.445L471.485 346.648L469.526 346.844L462.842 347.562H462.429H461.971C452.414 348.52 442.856 349.413 433.277 350.175H431.993H430.773C426.811 350.479 422.849 350.763 418.886 351.002C402.558 352.091 386.23 352.765 369.792 352.896C350.525 353.048 331.17 352.461 311.838 352.178C307.73 352.178 303.616 352.134 299.494 352.047C272.715 351.916 246.024 352.809 219.746 357.577C184.281 364.108 150.557 377.367 115.136 384.051C59.5106 394.544 -24.8742 412.353 6.97691 483.501C28.5739 531.746 79.0611 568.038 129.2 594.011C133.075 596.014 136.95 597.973 140.804 599.846L141.065 599.976L141.74 600.303L141.98 600.412L142.654 600.76C150.732 604.657 158.743 608.315 166.603 611.646C204.267 627.974 243.694 641.516 281.99 656.734C285.974 658.301 289.936 659.912 293.898 661.523L294.399 661.741L294.726 661.872C320.847 672.273 346.17 684.577 370.489 698.687V698.687L371.556 699.318C375.068 701.408 378.537 703.585 381.962 705.849L382.441 706.132C389.524 710.704 396.433 715.53 403.168 720.61C423.502 736.068 442.356 754.225 466.478 763.521C499.57 776.257 536.864 770.357 572.438 767.309C665.611 759.35 759.379 772.523 846.754 805.844C868.416 814.139 890.71 823.892 914.005 822.172C923.454 821.364 932.71 819.034 941.415 815.271V654.339C839.308 695.464 736.004 709.333 626.082 666.661Z" fill="#FE747D"/>
<path d="M870.375 61.5552C862.189 72.2666 854.831 83.8052 844.359 92.5137C836.287 139.726 843.375 188.282 864.606 231.217C878.583 259.52 898.547 285.362 907.8 315.319C918.577 350.153 914.222 389.014 931.095 421.693C934.088 427.314 937.471 432.72 941.219 437.869V0.791992C937.517 2.85299 933.889 5.0301 930.333 7.32332L929.571 7.80229H929.462L928.308 8.54251C923.736 11.4453 919.281 14.5368 914.941 17.817L914.745 17.9476C898.01 30.3621 883.078 45.0378 870.375 61.5552V61.5552Z" fill="#009EB9"/>
<path d="M870.963 388.144C864.432 337.874 848.474 289.194 838.786 239.403C829.359 190.919 826.224 139.692 843.467 93.2756C843.205 93.4933 842.944 93.7328 842.661 93.9287C830.817 103.116 815.883 107.862 802.08 114.198C790.37 119.625 779.221 126.188 768.792 133.792H768.683L768.4 133.988L766.223 135.533L765.417 136.121L764.851 136.535L764.415 136.883C763.131 137.841 761.868 138.843 760.606 139.844L760.083 140.236L759.43 140.758L757.928 141.999L757.209 142.587L756.513 143.153L755.446 144.046L753.269 145.788L753.095 145.94C709.748 182.951 677.614 233.961 635.008 273.127C611.299 294.898 583.868 313.447 560.594 335.414C551.504 343.838 543.191 353.062 535.754 362.976C509.628 398.615 502.378 452.76 536.276 482.042C574.811 515.33 638.753 497.282 685.648 519.053C693.996 523.108 701.936 527.956 709.356 533.531C706.766 530.222 704.218 526.869 701.737 523.516C678.333 491.948 657.802 457.746 627.149 432.274C675.234 472.913 724.712 512.007 775.584 549.555C785.022 556.952 795.09 563.508 805.672 569.149C820.829 569.189 835.977 568.375 851.043 566.71C864.911 565.36 880.934 564.315 897.916 563.096C891.733 559.134 885.724 555.019 879.955 550.774C825.113 510.497 788.756 451.171 766.745 389.036C744.734 326.901 735.547 261.414 726.599 196.405C734.268 239.22 750.084 280.165 773.189 317.017C783.182 332.997 794.634 348.477 800.381 366.22C805.715 382.635 805.911 400.27 811.55 416.598C817.058 432.491 827.465 446.403 838.045 459.836C866.13 495.497 897.524 528.001 928.918 560.592C933.033 560.201 937.169 559.787 941.284 559.33V532.486C928.952 524.536 917.36 515.493 906.646 505.468C876.82 474.967 876.297 429.269 870.963 388.144Z" fill="#009EB9"/>
<path d="M907.8 315.319C898.547 285.362 878.583 259.498 864.606 231.217C843.375 188.282 836.287 139.726 844.359 92.5137C844.533 91.5122 844.707 90.5107 844.903 89.5093C844.402 90.7502 843.923 92.0129 843.466 93.2757C826.223 139.692 829.358 190.919 838.785 239.403C848.473 289.194 864.475 337.874 870.963 388.144C876.297 429.269 876.819 474.967 906.581 505.468C917.294 515.493 928.887 524.536 941.218 532.486V437.869C937.47 432.72 934.088 427.314 931.095 421.693C914.222 389.014 918.576 350.218 907.8 315.319Z" fill="white"/>
<path d="M837.979 459.836C827.398 446.403 816.992 432.491 811.484 416.598C805.845 400.27 805.649 382.635 800.315 366.22C794.567 348.477 783.116 332.997 773.123 317.017C750.018 280.165 734.202 239.22 726.533 196.405C735.481 261.414 744.537 326.901 766.679 389.036C788.82 451.171 825.156 510.497 879.888 550.774C885.658 555.019 891.667 559.134 897.85 563.096C911.696 572.009 926.193 579.869 941.218 586.609V573.546L928.852 560.592C897.458 528.001 866.064 495.497 837.979 459.836Z" fill="white"/>
<path d="M884.047 588.786C860.621 581.493 834.931 581.514 812.202 572.262C810.025 571.347 807.848 570.324 805.671 569.257C795.089 563.617 785.021 557.06 775.583 549.663C724.784 512.13 675.306 473.036 627.148 432.382C657.802 457.855 678.332 492.057 701.736 523.625C704.218 526.978 706.765 530.331 709.356 533.64C731.301 561.507 757.84 587.24 792.347 598.431C825.004 609.077 861.383 605.376 894.671 614.52C910.847 618.874 925.869 626.298 940.521 634.288H941.218V620.659L938.758 618.83C921.994 606.486 904.185 594.969 884.047 588.786Z" fill="white"/>
<path d="M899.396 639.73C869.418 643.584 839.308 647.481 810.266 655.449C781.223 663.417 753.857 675.195 724.248 679.288C691.178 683.86 657.236 678.33 626.082 666.661C736.004 709.333 839.308 695.486 941.219 654.339V634.179H940.522C926.806 636.116 913.09 637.967 899.396 639.73Z" fill="white"/>
</g>
</svg>
