<svg width="1440" height="735" viewBox="0 0 1440 735" fill="none" xmlns="http://www.w3.org/2000/svg">
<g opacity="0.7">
<path opacity="0.7" fill-rule="evenodd" clip-rule="evenodd" d="M1167.44 395.437C1183.61 394.593 1203.6 404.08 1205.33 421.747C1206.58 434.584 1206.19 447.384 1208.13 460.201C1209.68 470.445 1212.96 480.279 1217.43 489.61C1221.73 498.582 1230.65 506.22 1232.97 515.806C1234.45 521.914 1233.62 530.506 1231.58 536.48C1229.1 543.744 1230.42 543.17 1235.36 549.265C1245.05 561.21 1253.77 573.459 1259.93 587.724C1268.81 608.272 1274.64 632.29 1271.34 654.783C1270.92 657.639 1270.42 667.889 1266.51 668.605C1262.14 669.406 1264.18 663.544 1264.42 661.651C1265.9 649.568 1267.23 639.007 1265.43 626.735C1258.51 579.389 1224.73 548.194 1202.73 508.01C1201.52 505.938 1198.97 501.004 1197.19 497.748C1194.39 492.609 1191.57 482.829 1187.78 479.018C1180.64 471.838 1187.2 486.272 1188.6 489.027C1190.36 492.513 1192.29 496.217 1194.1 499.271C1202.35 513.428 1211.56 528.881 1220.09 543.475C1183.22 551.92 1157.26 507.361 1147.37 478.066C1139.21 453.931 1129.46 397.502 1167.44 395.437Z" fill="#11BDCF" fill-opacity="0.15"/>
<path opacity="0.7" fill-rule="evenodd" clip-rule="evenodd" d="M1384.12 350.616C1357.09 352.772 1339.74 370.7 1331.67 395.777C1327.31 409.29 1326.81 423.173 1324.4 437.06C1320.76 457.954 1312.93 473.788 1297.63 488.674C1292.89 493.284 1289.4 498.018 1286.91 503.082C1281.98 508.138 1277.69 513.86 1274.54 520.855C1270.52 529.789 1269.38 540.507 1274.03 549.414C1275.28 551.808 1278.39 556.615 1281.63 558.798C1269.53 584.703 1262.87 613.075 1263.62 641.41C1264.08 658.515 1264.91 675.627 1265.88 692.71C1266.14 697.297 1267.62 704.872 1269.86 697.179C1271.9 690.142 1269.34 679.096 1269.1 671.745C1267.95 635.934 1266.96 603.373 1281.62 569.916C1283.16 566.409 1284.79 562.93 1286.49 559.48C1286.59 559.422 1286.68 559.352 1286.77 559.283C1286.84 559.334 1286.9 559.388 1286.96 559.437C1287.07 559.242 1287.22 559.011 1287.39 558.752C1287.88 558.247 1288.31 557.609 1288.71 556.896C1290.01 555.084 1291.48 552.956 1291.49 551.79C1291.49 551.781 1291.48 551.767 1291.48 551.758C1300.56 536.861 1310.96 522.785 1321.58 508.985C1321.5 509.085 1333.1 493.208 1331.3 501.988C1330.44 506.22 1321.91 514.277 1318.46 518.759C1310.84 528.73 1301.89 541.364 1294.45 553.581C1293.45 554.159 1292.04 556.998 1291.01 559.113C1290.45 560.184 1289.92 561.265 1289.4 562.206C1315.76 570.96 1336.26 553.326 1350.24 532.816C1350.26 532.792 1350.27 532.767 1350.29 532.743C1354.54 527.076 1358.9 521.448 1364.34 516.968C1373.43 509.493 1383.15 508.174 1393.86 504.495C1423.07 494.463 1435.48 456.41 1439.43 428.175C1443.88 396.321 1422.11 347.475 1384.12 350.616Z" fill="#DBF5F8"/>
<path opacity="0.7" fill-rule="evenodd" clip-rule="evenodd" d="M1330.73 261.412C1303 290.435 1289.6 330.69 1278.99 368.534C1267.14 410.801 1259.31 453.721 1259.01 497.667C1258.81 526.539 1258.03 555.592 1259.71 584.431C1260.3 594.673 1261.32 604.933 1262.93 615.065C1263.06 615.897 1266.68 638.52 1270.13 633.249C1272.1 630.251 1266.43 609.781 1266 606.371C1263.59 587.168 1263.03 567.823 1263.15 548.481C1263.34 516.635 1262.41 484.952 1265.62 453.223C1266.1 448.485 1266.48 443.51 1267.6 438.875C1268.78 433.948 1267.27 436.099 1271.14 434.148C1274.9 432.252 1279.55 432.523 1283.45 430.144C1298.93 420.707 1306.85 396.467 1313.01 380.562C1320.06 362.374 1324.35 342.979 1327.77 323.839C1330.28 309.776 1332.08 295.799 1333.09 281.555C1333.41 277.066 1333.43 272.371 1334.31 267.957C1334.55 266.766 1335.73 264.66 1335.69 263.605C1335.6 261.374 1334.26 260.061 1334.15 258.186C1332.99 259.237 1331.85 260.313 1330.73 261.412Z" fill="#11BDCF" fill-opacity="0.15"/>
<path opacity="0.7" fill-rule="evenodd" clip-rule="evenodd" d="M1179.5 648.094C1179.5 696.091 1218.2 735 1265.94 735C1313.68 735 1352.38 696.091 1352.38 648.094" fill="#FCEACF"/>
<path opacity="0.7" fill-rule="evenodd" clip-rule="evenodd" d="M1272.87 648.371H1268.3C1268.62 642.61 1269.04 636.858 1270 631.161C1273.66 609.372 1285.12 577.369 1310.25 573.832C1311.17 573.7 1314.58 573.678 1318.71 573.922C1320.67 572.822 1322.86 572.157 1325.17 572.004C1346.57 570.418 1370.46 587.77 1380.78 605.828C1389.1 620.387 1387.7 639.505 1382.56 654.973C1379.12 665.328 1371.61 680.092 1359.08 680.236C1343.42 680.416 1342.66 660.947 1342.36 649.566C1341.95 634.434 1340.05 621.252 1328.19 610.938C1325.43 608.535 1322.41 606.422 1319.62 604.052C1315.24 600.343 1310.41 596.546 1309.85 590.411C1309.07 581.946 1313.82 580.422 1321.08 581.995C1322.32 582.263 1334.78 587.884 1332.93 583.441C1332.37 582.084 1330.31 581.008 1327.72 580.202C1321 579.468 1312.98 578.615 1310.68 579.124C1285.82 584.608 1276.14 619.231 1273.57 641.229C1273.29 643.603 1273.07 645.985 1272.87 648.371V648.371Z" fill="#DBF5F8"/>
</g>
<path fill-rule="evenodd" clip-rule="evenodd" d="M1404.04 147.095C1400.51 135.248 1392.22 125.976 1383.61 117.48C1366.85 100.94 1357.83 90.7143 1351.86 66.5204C1348.34 52.2914 1344.77 37.2129 1333.63 26.8896C1325.51 19.3719 1311.55 13.0557 1300.7 18.439C1284.01 28.4557 1279.52 49.0118 1281.21 67.4185C1283.29 90.2324 1293.89 104.299 1314.26 112.702C1325.73 117.435 1333.36 123.679 1339.58 134.56C1344.57 143.261 1347.47 154.156 1353.73 162.044C1363.09 173.835 1374.8 179.076 1389.24 177.117C1375.72 152.104 1359.92 126.855 1340.86 105.794C1339.08 103.677 1328.56 95.5726 1330.68 91.964C1333.02 87.9909 1343.82 102.916 1343.74 102.826C1349.28 109.217 1354.4 116.008 1359.44 122.865C1359.42 122.872 1359.41 122.876 1359.4 122.883C1364.58 129.919 1369.72 137.058 1374.76 144.287C1376.8 147.345 1378.78 150.442 1380.68 153.617C1383.47 158.275 1387.89 171.497 1392.46 174.361C1393.43 174.973 1394.34 175.316 1395.18 175.457C1398.29 180.581 1401.32 185.747 1404.2 190.973C1411.72 204.623 1418.18 219.036 1421.15 234.447C1422.01 238.945 1421.4 255.771 1424.45 259.018C1430.04 264.957 1428.4 253.52 1428.07 250.067C1425.29 221.48 1415.08 197.124 1400.26 173.09C1404.82 167.112 1405.47 151.895 1404.04 147.095Z" fill="#FE747D" fill-opacity="0.25"/>
<path fill-rule="evenodd" clip-rule="evenodd" d="M1212.81 160.907C1218.69 153.935 1232.84 152.751 1241.5 153.218C1252.21 153.796 1263.2 156.417 1273.39 159.586C1290.18 164.806 1306.48 174.331 1321.27 183.552C1323.05 184.663 1344.99 197.931 1343.05 200.26C1341.12 202.567 1319.58 186.806 1314.78 184.089C1304.53 178.291 1295.14 171.433 1283.84 167.604C1272.15 163.639 1259.78 162.069 1247.49 162.177C1245.91 162.191 1240.76 161.085 1240.65 163.432C1240.54 165.728 1249.06 164.53 1250.56 164.544C1256.76 164.601 1263.01 165.188 1269.12 166.269C1280.58 168.294 1291.35 172.373 1301.17 178.63C1298.43 185.031 1291.86 187.983 1284.98 186.381C1279.03 184.996 1273.22 181.581 1267.4 180.593C1263.38 179.914 1259.36 180.318 1255.47 181.455C1245.21 184.455 1239.29 190.6 1228 186.325C1219.15 182.974 1204.35 170.935 1212.81 160.907Z" fill="#FE747D" fill-opacity="0.25"/>
<path fill-rule="evenodd" clip-rule="evenodd" d="M1219.46 94.9187H1222.25C1222.05 91.3656 1221.8 87.8182 1221.2 84.3049C1218.96 71.1355 1211.96 51.7931 1196.61 49.6556C1196.05 49.5759 1193.96 49.5625 1191.44 49.7097C1190.24 49.045 1188.9 48.6431 1187.49 48.5506C1174.42 47.5923 1159.82 58.0798 1153.52 68.9937C1148.44 77.7932 1149.29 89.348 1152.43 98.6966C1154.53 104.955 1159.12 113.879 1166.77 113.966C1176.35 114.075 1176.81 102.308 1176.99 95.4286C1177.24 86.2831 1178.4 78.3161 1185.65 72.0823C1187.34 70.6301 1189.18 69.3525 1190.89 67.9204C1193.56 65.6789 1196.51 63.3838 1196.85 59.6755C1197.33 54.5594 1194.42 53.6388 1189.99 54.5892C1189.24 54.751 1181.62 58.1485 1182.75 55.4631C1183.09 54.6428 1184.35 53.9927 1185.94 53.5056C1190.04 53.0617 1194.94 52.5466 1196.35 52.8543C1211.54 56.1685 1217.45 77.0944 1219.02 90.3897C1219.2 91.8952 1219.34 93.4058 1219.46 94.9187H1219.46Z" fill="#FE747D" fill-opacity="0.25"/>
<g opacity="0.5">
<path fill-rule="evenodd" clip-rule="evenodd" d="M211.036 233.736C216.012 226.603 225.246 208.486 232.25 205.937C236.761 204.295 235.446 221.278 235.501 224.517C235.718 237.045 234.505 249.494 233.007 261.917C230.308 284.322 221.482 304.276 209.377 323.345C203.148 333.157 195.842 343.089 185.723 349.211C181.065 352.03 175.46 352.502 170.86 354.932C165.503 357.76 168.42 355.474 166.006 361.086C162.653 368.879 161.581 378.932 160.029 387.247C152.906 425.417 135.662 627.193 138.651 666.019C138.917 669.46 134.144 670.283 133.906 666.082C132.639 643.806 143.598 489.546 149.127 439.098C154.655 388.65 160.25 344.083 165.86 326.629C172.666 305.455 184.957 279.991 195.189 260.244C199.942 251.071 205.122 242.213 211.036 233.736Z" fill="#DBF5F8"/>
<path fill-rule="evenodd" clip-rule="evenodd" d="M247.97 481.159C260.918 471.602 274.934 489.639 263.217 499.198C256.74 504.482 249.968 502.602 246.156 498.199C243.681 501.232 241.365 504.403 239.139 507.082C232.358 515.244 225.949 523.601 219.823 532.152C207.099 549.918 196.195 568.688 184.793 587.114C173.541 605.299 162.38 623.578 152.181 642.224C143.542 658.022 132.026 676.607 129.068 693.926C133.556 657.195 150.586 621.89 170.865 589.509C190.98 557.394 214.063 522.32 245.207 496.976C242.038 492.289 241.95 485.6 247.97 481.159Z" fill="#DBF5F8"/>
<path fill-rule="evenodd" clip-rule="evenodd" d="M2.26544 391.579C9.51132 393.003 21.351 409.483 27.3238 415.762C34.422 423.223 40.8619 431.176 46.9322 439.509C60.0003 457.445 71.6875 476.514 81.6256 496.4C97.8272 528.818 110.807 562.097 120.227 597.399C125.993 619.008 129.726 641.405 131.939 663.646C132.357 667.841 136.731 700.18 130.428 701.051C124.759 701.836 126.51 676.496 126.237 673.049C123.146 634.161 113.885 596.324 101.003 559.67C98.1973 551.685 95.5906 541.906 91.1035 534.72C87.8721 529.545 91.0803 531.35 85.4016 529.391C80.5255 527.708 74.9699 528.119 69.9767 526.059C59.1295 521.587 50.4439 512.905 42.8304 504.172C28.0348 487.199 16.31 468.838 10.1983 447.091C6.80802 435.032 3.69249 422.904 1.96357 410.473C1.51632 407.26 -2.40157 390.661 2.26544 391.579Z" fill="#DBF5F8"/>
<path fill-rule="evenodd" clip-rule="evenodd" d="M30.8597 117.391C58.1534 164.98 80.5823 217.256 95.0648 270.203C103.839 302.283 109.976 335.202 116.073 367.883C125.513 418.485 134.442 469.084 136.982 520.585C139.537 572.385 144.59 632.13 127.72 682.021C136.147 631.368 128.124 577.451 126.703 526.484C126.024 502.152 124.057 478.059 121.476 453.87C118.972 430.406 114.881 407.053 111.071 383.773C109.215 372.435 107.266 361.114 105.282 349.799C104.689 346.424 104.439 336.407 102.309 334.1C100.166 331.779 89.2281 330.833 85.7943 329.13C78.8797 325.699 72.3757 320.826 66.6194 315.678C55.5845 305.808 45.9848 292.911 38.4078 280.198C20.8768 250.783 13.868 214.885 14.2222 180.818C14.2903 174.204 24.8705 102.979 20.6213 101.998C20.8772 101.697 21.1192 101.386 21.3474 101.063C24.5644 106.478 27.7212 111.93 30.8597 117.391Z" fill="#DBF5F8"/>
<path fill-rule="evenodd" clip-rule="evenodd" d="M325.449 289.026C325.87 288.415 328.611 284.168 327.231 284.439C330.041 283.887 323.366 289.123 330.368 285.91C327.043 289.067 328.962 293.168 329.006 297.416C329.078 304.314 327.931 311.156 326.638 317.906C324.596 328.576 321.554 338.95 317.139 348.874C307.516 370.501 291.175 391.321 271.776 404.842C262.199 411.518 252.813 413.79 241.89 416.864C234.991 418.805 234.444 422.393 230.782 429.124C223.158 443.143 215.669 457.112 208.945 471.604C200.917 488.909 193.123 506.233 185.771 523.843C161.003 583.16 140.845 644.614 130.258 708.212C129.999 670.734 138.623 632.134 149.5 596.411C157.424 570.384 167.739 545.295 178.742 520.459C181.408 514.443 185.448 506.703 186.58 500.061C187.373 495.407 184.949 490.931 183.84 486.028C179.513 466.935 179.823 445.546 183.622 426.351C187.811 405.186 199.925 395.362 220.417 392.364C227.911 391.267 237.437 391.669 244.309 388.457C251.796 384.958 254.884 373.459 259.142 366.077C270.577 346.248 284.163 327.231 299.764 310.523C304.084 305.897 308.73 301.628 313.658 297.672C316.766 295.176 323.331 292.101 325.449 289.026Z" fill="#DBF5F8"/>
<path opacity="0.5" fill-rule="evenodd" clip-rule="evenodd" d="M95.6662 667.735H168.391C171.661 667.735 174.312 670.4 174.312 673.688C174.312 673.979 174.29 674.269 174.248 674.556L168.627 712.876C166.914 724.558 156.943 733.212 145.198 733.212H118.859C107.114 733.212 97.1435 724.558 95.43 712.876L89.809 674.556C89.332 671.304 91.5676 668.279 94.8024 667.799C95.0884 667.757 95.3771 667.735 95.6662 667.735Z" fill="#FE747D"/>
</g>
</svg>
