<svg width="1440" height="520" viewBox="0 0 1440 520" fill="none" xmlns="http://www.w3.org/2000/svg">
<g style="mix-blend-mode:multiply">
<path d="M24 75.5365L42.4419 74.2248L31.8961 55.0993L48.3705 54.4434L40.4744 36" stroke="#D5D5D5" stroke-linecap="round" stroke-linejoin="round"/>
<path d="M1336.54 196.457L1318.3 199.579L1330.66 217.55L1314.34 219.833L1324.02 237.411" stroke="#D5D5D5" stroke-linecap="round" stroke-linejoin="round"/>
<path d="M597.721 315.686L583.765 320.592L595.911 333.106L583.372 337.068L593.34 349.634" stroke="#D5D5D5" stroke-linecap="round" stroke-linejoin="round"/>
<path d="M106.457 449.498C106.457 455.091 110.991 459.625 116.583 459.625C122.175 459.625 126.709 455.091 126.709 449.498C126.709 443.906 122.175 439.372 116.583 439.372C110.991 439.372 106.457 443.906 106.457 449.498Z" stroke="#D5D5D5" stroke-linecap="round" stroke-linejoin="round"/>
<path d="M1177.29 123.013C1177.29 128.605 1181.82 133.139 1187.41 133.139C1193 133.139 1197.54 128.605 1197.54 123.013C1197.54 117.42 1193 112.886 1187.41 112.886C1181.82 112.886 1177.29 117.42 1177.29 123.013Z" stroke="#D5D5D5" stroke-linecap="round" stroke-linejoin="round"/>
<path d="M814.78 373.362C815.674 373.356 816.55 373.617 817.296 374.111C818.042 374.605 818.625 375.31 818.97 376.135C819.314 376.961 819.406 377.87 819.233 378.748C819.059 379.626 818.629 380.432 817.997 381.065C817.364 381.698 816.558 382.128 815.68 382.301C814.802 382.474 813.893 382.383 813.067 382.038C812.242 381.693 811.537 381.111 811.044 380.365C810.55 379.619 810.289 378.743 810.294 377.848C810.294 376.658 810.767 375.517 811.608 374.676C812.449 373.834 813.59 373.362 814.78 373.362V373.362Z" stroke="#D5D5D5" stroke-linecap="round" stroke-linejoin="round"/>
<path d="M102.029 262.2C102.923 262.195 103.799 262.456 104.545 262.95C105.291 263.444 105.874 264.148 106.219 264.974C106.563 265.799 106.655 266.709 106.482 267.587C106.308 268.464 105.878 269.271 105.245 269.903C104.613 270.536 103.806 270.966 102.929 271.14C102.051 271.313 101.142 271.221 100.316 270.877C99.4906 270.532 98.7861 269.949 98.2924 269.203C97.7986 268.457 97.5377 267.581 97.5429 266.687C97.5498 265.499 98.0246 264.362 98.8644 263.522C99.7041 262.682 100.841 262.207 102.029 262.2V262.2Z" stroke="#D5D5D5" stroke-linecap="round" stroke-linejoin="round"/>
<path d="M947.204 364.074C948.127 364.079 949.027 364.358 949.791 364.874C950.556 365.39 951.15 366.121 951.5 366.975C951.849 367.829 951.938 368.767 951.755 369.671C951.572 370.575 951.125 371.405 950.471 372.055C949.817 372.706 948.985 373.148 948.08 373.326C947.174 373.504 946.237 373.41 945.385 373.056C944.534 372.702 943.806 372.103 943.294 371.336C942.782 370.568 942.509 369.667 942.509 368.744C942.509 368.129 942.63 367.519 942.867 366.951C943.103 366.383 943.449 365.867 943.886 365.433C944.322 364.999 944.84 364.655 945.409 364.422C945.979 364.189 946.589 364.071 947.204 364.074Z" stroke="#D5D5D5" stroke-linecap="round" stroke-linejoin="round"/>
<path d="M683.657 39.8789C684 40.8729 684.597 41.7592 685.391 42.4485C686.185 43.1378 687.146 43.6058 688.178 43.8053C689.21 44.0048 690.276 43.9288 691.27 43.5849C692.263 43.241 693.148 42.6414 693.836 41.8465C694.613 40.7877 695.297 39.6642 695.882 38.4884C696.179 37.8993 696.592 37.3767 697.097 36.9527C697.602 36.5287 698.189 36.2121 698.82 36.0223C699.556 35.9504 700.298 36.0531 700.986 36.322C701.674 36.591 702.289 37.0186 702.781 37.5702C703.778 38.6629 704.828 39.7048 705.929 40.6922C707.134 41.5806 708.591 42.06 710.087 42.06C711.584 42.06 713.041 41.5806 714.245 40.6922" stroke="#D5D5D5" stroke-linecap="round" stroke-linejoin="round"/>
<path d="M984.269 292.286C983.601 292.781 983.07 293.439 982.726 294.196C982.382 294.953 982.236 295.786 982.302 296.615C982.393 297.446 982.7 298.24 983.192 298.916C983.685 299.593 984.345 300.129 985.109 300.471C986.088 300.825 987.098 301.089 988.125 301.258C988.688 301.309 989.228 301.507 989.69 301.834C990.151 302.161 990.518 302.604 990.752 303.118C990.987 303.633 991.081 304.2 991.025 304.763C990.969 305.326 990.765 305.863 990.434 306.322C989.813 307.319 989.252 308.353 988.755 309.417C988.372 310.549 988.361 311.773 988.725 312.911C989.088 314.049 989.807 315.041 990.775 315.74" stroke="#D5D5D5" stroke-linecap="round" stroke-linejoin="round"/>
<path d="M1052.14 422.343C1052.69 423.539 1053.55 424.567 1054.62 425.324C1055.7 426.08 1056.96 426.537 1058.27 426.649C1059.58 426.761 1060.9 426.524 1062.09 425.961C1063.28 425.398 1064.3 424.53 1065.04 423.445C1065.85 421.983 1066.54 420.456 1067.09 418.88C1067.41 418.126 1067.87 417.442 1068.46 416.87C1069.04 416.298 1069.74 415.848 1070.5 415.548C1071.42 415.344 1072.38 415.362 1073.29 415.599C1074.2 415.836 1075.04 416.286 1075.75 416.913C1077.1 418.161 1078.54 419.318 1080.05 420.376C1081.66 421.242 1083.5 421.586 1085.31 421.36C1087.13 421.135 1088.83 420.351 1090.17 419.116" stroke="#D5D5D5" stroke-linecap="round" stroke-linejoin="round"/>
<path d="M1392.56 402.6C1391.29 402.908 1390.12 403.547 1389.17 404.452C1388.22 405.357 1387.52 406.497 1387.16 407.756C1386.79 409.015 1386.76 410.349 1387.07 411.622C1387.39 412.896 1388.03 414.064 1388.94 415.009C1390.18 416.138 1391.5 417.164 1392.9 418.079C1393.58 418.522 1394.17 419.1 1394.62 419.776C1395.07 420.453 1395.38 421.214 1395.53 422.014C1395.54 422.94 1395.33 423.855 1394.92 424.684C1394.51 425.514 1393.91 426.235 1393.16 426.789C1391.69 427.881 1390.28 429.055 1388.94 430.305C1387.69 431.733 1386.94 433.528 1386.8 435.42C1386.65 437.313 1387.13 439.2 1388.15 440.799" stroke="#D5D5D5" stroke-linecap="round" stroke-linejoin="round"/>
<path d="M694.498 482.99C694.498 482.99 678.233 489.287 672.515 476.143" stroke="#D5D5D5" stroke-linecap="round" stroke-linejoin="round"/>
<path opacity="0.3" d="M253.42 64.9714C247.714 64.9692 242.135 66.6593 237.39 69.8279C232.644 72.9965 228.945 77.5014 226.76 82.7726C224.574 88.0438 224.001 93.8447 225.113 99.4416C226.225 105.038 228.972 110.18 233.006 114.216C237.04 118.251 242.181 121 247.777 122.114C253.373 123.228 259.175 122.657 264.447 120.474C269.719 118.291 274.225 114.593 277.395 109.849C280.566 105.105 282.258 99.5266 282.258 93.8203C282.258 86.171 279.22 78.8349 273.812 73.425C268.405 68.0151 261.07 64.9744 253.42 64.9714ZM253.42 106.701C250.87 106.704 248.375 105.949 246.254 104.533C244.132 103.118 242.478 101.104 241.5 98.748C240.523 96.3918 240.267 93.7986 240.764 91.2967C241.261 88.7948 242.489 86.4966 244.293 84.6929C246.097 82.8893 248.395 81.6612 250.897 81.1641C253.399 80.667 255.992 80.9232 258.348 81.9004C260.704 82.8775 262.718 84.5317 264.133 86.6535C265.549 88.7754 266.304 91.2695 266.301 93.8203C266.299 97.2357 264.94 100.51 262.525 102.925C260.11 105.34 256.836 106.699 253.42 106.701Z" fill="#11BDCF"/>
<path d="M307.43 207.533L309.658 212.436C309.762 212.572 309.912 212.666 310.08 212.699C310.248 212.732 310.422 212.703 310.57 212.617C310.718 212.53 310.829 212.393 310.883 212.231C310.937 212.068 310.929 211.892 310.862 211.734L308.633 206.82C308.538 206.664 308.386 206.551 308.209 206.506C308.033 206.46 307.845 206.485 307.686 206.575C307.527 206.67 307.412 206.824 307.364 207.002C307.316 207.181 307.34 207.372 307.43 207.533Z" fill="#F2AB3E"/>
<path d="M305.781 212.904C306.316 214.408 307.116 215.804 308.143 217.027C308.276 217.155 308.454 217.227 308.639 217.227C308.824 217.227 309.002 217.155 309.135 217.027C309.261 216.892 309.331 216.715 309.331 216.531C309.331 216.347 309.261 216.169 309.135 216.035L308.8 215.623C308.8 215.69 308.8 215.623 308.8 215.623C308.768 215.59 308.742 215.553 308.722 215.511C308.664 215.445 308.612 215.375 308.566 215.3C308.353 215.006 308.156 214.701 307.976 214.386C307.795 214.083 307.631 213.771 307.485 213.45C307.444 213.36 307.41 213.267 307.385 213.171C307.385 213.171 307.385 213.093 307.329 213.06V212.982C307.329 213.049 307.329 212.982 307.329 212.915C307.323 212.874 307.323 212.833 307.329 212.792C307.286 212.702 307.248 212.609 307.218 212.514C307.19 212.418 307.142 212.329 307.077 212.253C307.012 212.176 306.931 212.115 306.841 212.072C306.75 212.029 306.652 212.005 306.552 212.002C306.452 212 306.352 212.019 306.26 212.057C306.084 212.106 305.936 212.223 305.846 212.382C305.756 212.54 305.733 212.728 305.781 212.904Z" fill="#F2AB3E"/>
<path d="M311.274 216.325C312.507 218.784 313.811 221.209 315.185 223.601C315.289 223.737 315.439 223.831 315.607 223.864C315.775 223.897 315.949 223.868 316.097 223.782C316.245 223.695 316.356 223.558 316.41 223.396C316.463 223.233 316.456 223.057 316.389 222.899C315.014 220.515 313.711 218.089 312.478 215.623C312.076 214.821 310.873 215.534 311.274 216.325Z" fill="#F2AB3E"/>
<path d="M310.115 221.317L311.096 223.022C311.139 223.101 311.198 223.17 311.269 223.225C311.34 223.281 311.421 223.322 311.508 223.345C311.598 223.369 311.692 223.374 311.783 223.36C311.875 223.347 311.964 223.315 312.043 223.267C312.201 223.174 312.316 223.023 312.364 222.846C312.412 222.669 312.389 222.48 312.299 222.32L311.307 220.615C311.264 220.536 311.205 220.467 311.134 220.411C311.063 220.356 310.982 220.315 310.895 220.292C310.715 220.246 310.524 220.27 310.36 220.359C310.201 220.454 310.086 220.608 310.04 220.787C309.994 220.967 310.021 221.157 310.115 221.317Z" fill="#F2AB3E"/>
<path d="M313.926 228.771C314.793 230.352 315.812 231.845 316.968 233.229C317.1 233.36 317.278 233.434 317.464 233.434C317.65 233.434 317.828 233.36 317.96 233.229C318.083 233.095 318.151 232.92 318.151 232.738C318.151 232.557 318.083 232.382 317.96 232.248C316.881 230.976 315.933 229.598 315.129 228.136C315.036 227.978 314.885 227.863 314.708 227.815C314.531 227.767 314.342 227.791 314.182 227.88C314.024 227.975 313.908 228.128 313.86 228.307C313.812 228.486 313.836 228.676 313.926 228.838V228.771Z" fill="#F2AB3E"/>
<path d="M316.5 227.156C316.75 227.647 317.056 228.107 317.414 228.526C317.545 228.655 317.721 228.727 317.904 228.727C318.087 228.722 318.261 228.651 318.394 228.526C318.458 228.462 318.509 228.385 318.544 228.301C318.578 228.217 318.595 228.127 318.595 228.036V227.847C318.565 227.729 318.503 227.621 318.417 227.535C318.373 227.485 318.332 227.433 318.294 227.379L318.406 227.524C318.143 227.175 317.915 226.802 317.726 226.409C317.629 226.252 317.475 226.139 317.296 226.094C317.117 226.048 316.928 226.073 316.768 226.164C316.69 226.208 316.622 226.267 316.568 226.338C316.515 226.409 316.476 226.49 316.456 226.576C316.409 226.757 316.433 226.948 316.522 227.111L316.5 227.156Z" fill="#F2AB3E"/>
<path d="M320.456 233.741L324.177 239.48C324.275 239.637 324.428 239.75 324.606 239.798C324.784 239.845 324.973 239.823 325.136 239.736C325.295 239.641 325.41 239.487 325.456 239.308C325.502 239.128 325.475 238.938 325.381 238.778L321.659 233.039C321.566 232.881 321.415 232.766 321.238 232.718C321.061 232.67 320.872 232.694 320.712 232.783C320.553 232.878 320.438 233.031 320.39 233.21C320.342 233.389 320.366 233.58 320.456 233.741Z" fill="#F2AB3E"/>
<path d="M314.717 235.368L316.946 238.533C317.041 238.689 317.192 238.802 317.368 238.85C317.544 238.897 317.732 238.876 317.893 238.789C318.052 238.694 318.167 238.541 318.215 238.362C318.263 238.183 318.239 237.993 318.149 237.831L315.943 234.666C315.904 234.575 315.846 234.493 315.772 234.425C315.699 234.358 315.612 234.307 315.518 234.276C315.423 234.244 315.323 234.234 315.224 234.244C315.125 234.254 315.03 234.286 314.944 234.336C314.858 234.386 314.783 234.454 314.726 234.535C314.668 234.616 314.628 234.708 314.609 234.806C314.589 234.904 314.591 235.004 314.614 235.101C314.636 235.198 314.679 235.289 314.74 235.368H314.717Z" fill="#F2AB3E"/>
<path d="M320.545 239.58L321.659 241.318C321.754 241.47 321.9 241.581 322.072 241.63C322.252 241.677 322.443 241.653 322.606 241.564C322.763 241.473 322.879 241.325 322.93 241.151C322.98 240.968 322.956 240.771 322.863 240.605L321.748 238.878C321.652 238.727 321.506 238.613 321.336 238.555C321.151 238.508 320.955 238.536 320.79 238.633C320.713 238.677 320.645 238.736 320.591 238.807C320.537 238.878 320.499 238.959 320.478 239.045C320.453 239.134 320.446 239.228 320.457 239.32C320.469 239.411 320.499 239.5 320.545 239.58Z" fill="#F2AB3E"/>
<path d="M327.353 243.736C328.634 245.227 329.839 246.782 330.964 248.394C331.06 248.548 331.212 248.659 331.388 248.705C331.564 248.75 331.751 248.727 331.911 248.639C332.069 248.546 332.184 248.395 332.232 248.218C332.28 248.041 332.256 247.852 332.167 247.692C330.981 245.98 329.705 244.333 328.345 242.756C328.213 242.625 328.035 242.551 327.849 242.551C327.663 242.551 327.485 242.625 327.353 242.756C327.228 242.888 327.158 243.064 327.158 243.246C327.158 243.429 327.228 243.604 327.353 243.736Z" fill="#F2AB3E"/>
<path d="M324.478 245.597L325.815 247.414C325.914 247.568 326.064 247.683 326.239 247.737C326.419 247.783 326.61 247.759 326.774 247.67C326.928 247.572 327.043 247.422 327.097 247.247C327.12 247.157 327.126 247.063 327.112 246.971C327.099 246.879 327.067 246.791 327.019 246.712L325.682 244.895C325.588 244.741 325.441 244.627 325.269 244.572C325.18 244.549 325.086 244.543 324.994 244.557C324.902 244.57 324.814 244.602 324.735 244.65C324.656 244.694 324.586 244.753 324.531 244.823C324.475 244.894 324.435 244.976 324.411 245.063C324.365 245.243 324.389 245.434 324.478 245.597Z" fill="#F2AB3E"/>
<path d="M318.929 244.26C320.169 246.473 321.633 248.553 323.297 250.467C323.358 250.545 323.435 250.609 323.523 250.655C323.61 250.701 323.707 250.728 323.805 250.734C323.904 250.741 324.003 250.726 324.096 250.691C324.189 250.657 324.273 250.603 324.344 250.533C324.414 250.463 324.469 250.38 324.505 250.287C324.54 250.195 324.556 250.096 324.551 249.997C324.546 249.898 324.52 249.802 324.475 249.714C324.429 249.625 324.366 249.548 324.289 249.486C322.701 247.66 321.308 245.673 320.133 243.558C319.698 242.778 318.495 243.48 318.929 244.26Z" fill="#F2AB3E"/>
<path d="M306.382 225.05C306.895 225.808 307.407 226.576 307.909 227.345C308.006 227.502 308.16 227.615 308.339 227.661C308.517 227.707 308.707 227.681 308.867 227.59C309.026 227.495 309.141 227.341 309.187 227.162C309.233 226.982 309.206 226.792 309.112 226.632L307.586 224.314C307.547 224.223 307.488 224.141 307.415 224.073C307.342 224.006 307.255 223.955 307.161 223.924C307.066 223.893 306.966 223.882 306.867 223.892C306.768 223.903 306.673 223.934 306.587 223.984C306.501 224.034 306.426 224.102 306.369 224.183C306.311 224.264 306.271 224.357 306.252 224.454C306.232 224.552 306.234 224.652 306.257 224.749C306.279 224.846 306.322 224.937 306.382 225.016V225.05Z" fill="#F2AB3E"/>
<path d="M299.318 218.052C300.098 219.69 300.956 221.295 301.881 222.844C301.985 222.98 302.135 223.073 302.302 223.106C302.47 223.139 302.645 223.11 302.792 223.024C302.94 222.938 303.051 222.8 303.105 222.638C303.159 222.475 303.151 222.299 303.084 222.142C302.163 220.619 301.309 219.022 300.521 217.35C300.424 217.193 300.27 217.08 300.092 217.034C299.913 216.989 299.723 217.014 299.563 217.105C299.407 217.2 299.294 217.352 299.248 217.529C299.202 217.706 299.227 217.893 299.318 218.052Z" fill="#F2AB3E"/>
<path d="M299.975 211.935L301.814 215.757C301.918 215.893 302.068 215.986 302.235 216.019C302.403 216.052 302.578 216.023 302.725 215.937C302.873 215.851 302.984 215.713 303.038 215.551C303.092 215.388 303.084 215.212 303.017 215.055L301.179 211.233C301.136 211.15 301.078 211.078 301.007 211.018C300.936 210.959 300.854 210.915 300.766 210.888C300.678 210.861 300.585 210.852 300.493 210.861C300.401 210.871 300.312 210.898 300.231 210.943C300.075 211.04 299.961 211.193 299.914 211.371C299.866 211.549 299.888 211.739 299.975 211.901V211.935Z" fill="#F2AB3E"/>
<path d="M307.731 233.552L309.959 237.374C310.004 237.453 310.065 237.523 310.137 237.579C310.209 237.635 310.291 237.676 310.379 237.699C310.467 237.723 310.559 237.729 310.65 237.718C310.74 237.706 310.827 237.676 310.906 237.63C311.065 237.535 311.181 237.382 311.228 237.203C311.276 237.024 311.253 236.834 311.163 236.672L308.934 232.85C308.889 232.771 308.829 232.701 308.757 232.645C308.684 232.589 308.602 232.548 308.514 232.524C308.426 232.501 308.334 232.494 308.244 232.506C308.153 232.518 308.066 232.548 307.987 232.594C307.83 232.691 307.717 232.844 307.669 233.022C307.621 233.2 307.643 233.39 307.731 233.552Z" fill="#F2AB3E"/>
<path d="M314.238 245.597C314.907 246.623 315.575 247.648 316.255 248.662C316.348 248.82 316.5 248.934 316.678 248.98C316.855 249.026 317.044 249 317.202 248.907C317.36 248.814 317.475 248.662 317.521 248.484C317.567 248.306 317.54 248.118 317.447 247.96L315.441 244.895C315.338 244.759 315.188 244.666 315.02 244.633C314.852 244.6 314.678 244.629 314.53 244.715C314.382 244.801 314.271 244.939 314.217 245.101C314.163 245.263 314.171 245.44 314.238 245.597Z" fill="#F2AB3E"/>
<path d="M333.549 246.377C334.228 247.302 334.908 248.216 335.577 249.141C335.673 249.29 335.819 249.4 335.989 249.453C336.08 249.48 336.175 249.489 336.269 249.477C336.363 249.466 336.454 249.435 336.535 249.386C336.613 249.34 336.682 249.279 336.737 249.206C336.791 249.134 336.831 249.051 336.854 248.963C336.877 248.875 336.882 248.784 336.869 248.694C336.857 248.604 336.826 248.517 336.78 248.439C336.1 247.514 335.432 246.589 334.752 245.675C334.707 245.596 334.647 245.527 334.575 245.471C334.502 245.415 334.42 245.374 334.332 245.35C334.244 245.326 334.152 245.32 334.061 245.332C333.971 245.344 333.884 245.373 333.805 245.419C333.648 245.516 333.535 245.669 333.487 245.848C333.439 246.026 333.461 246.215 333.549 246.377Z" fill="#F2AB3E"/>
<path d="M312.255 209.45C313.369 211.734 314.539 214.007 315.676 216.292C315.769 216.449 315.92 216.565 316.097 216.613C316.274 216.661 316.463 216.637 316.623 216.548C316.781 216.453 316.897 216.299 316.945 216.121C316.993 215.942 316.969 215.751 316.879 215.59C315.765 213.361 314.595 211.032 313.458 208.748C313.365 208.59 313.214 208.475 313.037 208.427C312.86 208.379 312.671 208.402 312.511 208.492C312.352 208.587 312.237 208.74 312.189 208.919C312.141 209.098 312.165 209.288 312.255 209.45Z" fill="#F2AB3E"/>
<path d="M318.327 220.292C320.811 224.748 323.534 229.066 326.484 233.229C326.997 233.953 328.2 233.229 327.688 232.527C324.738 228.368 322.015 224.053 319.531 219.601C319.096 218.821 317.893 219.523 318.327 220.303V220.292Z" fill="#F2AB3E"/>
<path d="M329.504 238.009C329.768 238.255 330.01 238.523 330.228 238.811L330.128 238.666C330.458 239.104 330.735 239.579 330.952 240.082C331.048 240.238 331.199 240.354 331.376 240.405C331.466 240.428 331.559 240.434 331.651 240.42C331.743 240.407 331.831 240.375 331.911 240.327C332.067 240.235 332.182 240.088 332.234 239.914C332.269 239.732 332.242 239.544 332.156 239.38C331.765 238.487 331.196 237.683 330.484 237.017C330.352 236.892 330.176 236.822 329.994 236.822C329.812 236.822 329.636 236.892 329.504 237.017C329.378 237.152 329.307 237.329 329.307 237.513C329.307 237.697 329.378 237.875 329.504 238.009Z" fill="#F2AB3E"/>
<path d="M326.072 253.798C327.263 255.319 328.711 256.62 330.351 257.643C330.429 257.689 330.516 257.719 330.605 257.732C330.695 257.745 330.787 257.739 330.875 257.717C330.963 257.694 331.046 257.654 331.118 257.599C331.191 257.544 331.252 257.476 331.298 257.398C331.386 257.237 331.41 257.048 331.364 256.87C331.319 256.692 331.207 256.538 331.053 256.439C330.663 256.194 330.284 255.938 329.938 255.659H329.883L329.771 255.57L329.504 255.347C329.315 255.203 329.137 255.047 328.969 254.879C328.277 254.25 327.646 253.556 327.086 252.807C326.95 252.701 326.78 252.648 326.609 252.659C326.437 252.67 326.275 252.743 326.154 252.866C326.033 252.988 325.961 253.151 325.952 253.323C325.943 253.495 325.998 253.664 326.105 253.798H326.072Z" fill="#F2AB3E"/>
<path d="M332.657 254.69C333.554 255.96 334.758 256.984 336.156 257.665C336.315 257.752 336.502 257.776 336.678 257.73C336.854 257.685 337.006 257.574 337.103 257.42C337.197 257.26 337.224 257.069 337.178 256.89C337.132 256.71 337.017 256.556 336.858 256.461C336.54 256.308 336.232 256.137 335.933 255.949L335.521 255.67L335.41 255.592C335.309 255.514 335.476 255.592 335.41 255.592L335.198 255.425C334.942 255.202 334.685 254.968 334.451 254.723L334.106 254.322L334.039 254.233C334.039 254.233 333.928 254.099 334.039 254.233V254.166C334.007 254.127 333.977 254.086 333.95 254.043C333.855 253.884 333.701 253.769 333.521 253.723C333.342 253.677 333.151 253.704 332.992 253.798C332.913 253.844 332.845 253.905 332.79 253.978C332.735 254.05 332.695 254.133 332.672 254.221C332.65 254.309 332.644 254.4 332.657 254.49C332.67 254.58 332.7 254.667 332.746 254.745L332.657 254.69Z" fill="#F2AB3E"/>
<path d="M339.254 253.286C339.947 254.079 340.793 254.724 341.74 255.183C342.688 255.643 343.718 255.907 344.77 255.96C344.954 255.96 345.131 255.888 345.262 255.759C345.393 255.629 345.469 255.454 345.472 255.269C345.466 255.085 345.39 254.91 345.26 254.779C345.129 254.649 344.954 254.573 344.77 254.567C343.922 254.515 343.092 254.295 342.329 253.921C341.528 253.536 340.818 252.985 340.246 252.305C340.114 252.174 339.936 252.1 339.75 252.1C339.564 252.1 339.385 252.174 339.254 252.305C339.128 252.438 339.059 252.613 339.059 252.796C339.059 252.978 339.128 253.154 339.254 253.286Z" fill="#F2AB3E"/>
<path d="M339.778 259.971C341.216 260.873 342.882 261.344 344.58 261.331C344.763 261.331 344.939 261.258 345.069 261.129C345.198 260.999 345.271 260.823 345.271 260.64C345.262 260.462 345.186 260.293 345.058 260.169C344.93 260.045 344.759 259.974 344.58 259.971C343.12 259.988 341.687 259.578 340.457 258.79C340.379 258.744 340.292 258.714 340.202 258.701C340.112 258.688 340.021 258.694 339.933 258.716C339.845 258.739 339.762 258.779 339.69 258.834C339.617 258.889 339.556 258.957 339.51 259.035C339.422 259.197 339.398 259.385 339.444 259.563C339.489 259.741 339.601 259.895 339.755 259.994L339.778 259.971Z" fill="#F2AB3E"/>
<path d="M319.876 254.701C321.013 257.184 322.809 259.307 325.069 260.841C325.148 260.886 325.235 260.916 325.325 260.928C325.416 260.94 325.508 260.934 325.596 260.91C325.684 260.886 325.766 260.845 325.838 260.789C325.911 260.733 325.971 260.664 326.016 260.584C326.106 260.426 326.131 260.238 326.086 260.061C326.04 259.884 325.927 259.732 325.771 259.637C323.722 258.221 322.1 256.271 321.08 253.999C320.985 253.84 320.831 253.725 320.651 253.679C320.472 253.633 320.281 253.66 320.121 253.754C319.968 253.851 319.856 254.003 319.811 254.179C319.765 254.355 319.789 254.542 319.876 254.701Z" fill="#F2AB3E"/>
<path d="M329.582 263.805C331.145 264.868 332.895 265.624 334.741 266.033C334.92 266.078 335.109 266.052 335.269 265.961C335.429 265.869 335.547 265.72 335.599 265.543C335.624 265.455 335.631 265.363 335.62 265.273C335.609 265.182 335.579 265.094 335.534 265.015C335.488 264.936 335.427 264.867 335.354 264.812C335.281 264.758 335.197 264.718 335.109 264.696C333.382 264.311 331.744 263.6 330.284 262.601C330.206 262.554 330.119 262.522 330.029 262.508C329.939 262.495 329.847 262.5 329.758 262.523C329.67 262.546 329.587 262.586 329.514 262.642C329.442 262.697 329.382 262.767 329.337 262.846C329.29 262.925 329.26 263.011 329.247 263.101C329.235 263.191 329.24 263.283 329.263 263.371C329.285 263.459 329.325 263.541 329.38 263.614C329.435 263.687 329.503 263.748 329.582 263.794V263.805Z" fill="#F2AB3E"/>
<path d="M340.19 265.331L343.633 266.947C343.794 267.035 343.983 267.059 344.16 267.013C344.338 266.968 344.492 266.857 344.591 266.702C344.681 266.54 344.705 266.35 344.657 266.171C344.609 265.992 344.494 265.839 344.335 265.744L340.903 264.139C340.742 264.048 340.553 264.023 340.374 264.068C340.196 264.114 340.042 264.227 339.945 264.384C339.898 264.462 339.868 264.549 339.855 264.639C339.843 264.729 339.848 264.821 339.871 264.909C339.893 264.997 339.933 265.079 339.988 265.152C340.043 265.224 340.111 265.285 340.19 265.331Z" fill="#F2AB3E"/>
<path d="M348.87 259.905C352.081 260.794 355.35 261.457 358.654 261.888C358.823 261.867 358.979 261.784 359.092 261.656C359.205 261.528 359.267 261.363 359.267 261.192C359.267 261.021 359.205 260.856 359.092 260.728C358.979 260.599 358.823 260.517 358.654 260.495C355.472 260.078 352.325 259.43 349.238 258.557C349.066 258.527 348.889 258.563 348.742 258.656C348.595 258.75 348.488 258.895 348.442 259.064C348.396 259.232 348.414 259.412 348.493 259.567C348.573 259.723 348.707 259.843 348.87 259.905Z" fill="#F2AB3E"/>
<path d="M348.436 265.086C348.828 265.047 349.224 265.047 349.617 265.086H349.427C349.684 265.086 349.929 265.175 350.185 265.242C350.362 265.291 350.552 265.267 350.712 265.176C350.871 265.085 350.989 264.935 351.037 264.757C351.086 264.58 351.063 264.391 350.972 264.231C350.881 264.071 350.73 263.954 350.553 263.905C349.864 263.714 349.149 263.638 348.436 263.682C348.253 263.687 348.079 263.758 347.945 263.883C347.85 263.981 347.785 264.105 347.758 264.239C347.732 264.374 347.746 264.513 347.798 264.64C347.85 264.767 347.939 264.875 348.052 264.953C348.165 265.03 348.298 265.072 348.436 265.075V265.086Z" fill="#F2AB3E"/>
<path d="M364.838 263.548C366.258 263.454 367.685 263.507 369.094 263.704C369.273 263.746 369.461 263.719 369.62 263.628C369.779 263.537 369.898 263.389 369.952 263.214C369.997 263.035 369.971 262.846 369.88 262.686C369.788 262.526 369.639 262.408 369.462 262.356C367.93 262.143 366.38 262.09 364.838 262.2C364.653 262.206 364.478 262.281 364.348 262.412C364.217 262.542 364.141 262.718 364.136 262.902C364.139 263.086 364.214 263.262 364.345 263.391C364.477 263.52 364.653 263.593 364.838 263.593V263.548Z" fill="#F2AB3E"/>
<path d="M355.578 265.643L360.213 266.212C360.383 266.19 360.539 266.108 360.652 265.979C360.765 265.851 360.827 265.686 360.827 265.515C360.827 265.344 360.765 265.179 360.652 265.051C360.539 264.923 360.383 264.84 360.213 264.819L355.578 264.25C355.395 264.25 355.219 264.323 355.09 264.453C354.96 264.582 354.887 264.758 354.887 264.941C354.887 265.126 354.96 265.303 355.089 265.434C355.218 265.565 355.394 265.64 355.578 265.643Z" fill="#F2AB3E"/>
<path d="M353.049 269.454C354.548 269.23 356.079 269.379 357.506 269.889C357.594 269.914 357.686 269.922 357.776 269.912C357.867 269.901 357.955 269.873 358.035 269.828C358.115 269.784 358.185 269.724 358.241 269.652C358.298 269.58 358.339 269.498 358.364 269.41C358.412 269.232 358.389 269.043 358.299 268.883C358.21 268.722 358.061 268.603 357.885 268.552C356.224 267.98 354.447 267.83 352.714 268.117C352.627 268.14 352.545 268.181 352.473 268.236C352.401 268.291 352.341 268.361 352.296 268.439C352.252 268.518 352.223 268.605 352.213 268.695C352.202 268.786 352.21 268.877 352.235 268.964C352.285 269.14 352.401 269.289 352.559 269.381C352.717 269.472 352.905 269.499 353.082 269.454H353.049Z" fill="#F2AB3E"/>
<path d="M348.257 272.017C350.274 272.069 352.28 272.334 354.241 272.808C355.11 273.009 355.478 271.694 354.609 271.46C352.527 270.96 350.398 270.679 348.257 270.624C348.088 270.646 347.932 270.728 347.819 270.857C347.706 270.985 347.644 271.15 347.644 271.321C347.644 271.492 347.706 271.657 347.819 271.785C347.932 271.913 348.088 271.996 348.257 272.017Z" fill="#F2AB3E"/>
<path d="M364.648 268.975C368.17 268.63 371.72 269.242 374.922 270.747C375.724 271.126 376.438 269.922 375.624 269.543C372.208 267.916 368.417 267.239 364.648 267.582C363.768 267.671 363.757 269.064 364.648 268.975Z" fill="#F2AB3E"/>
<path d="M362.743 272.998C362.912 272.976 363.068 272.894 363.181 272.765C363.294 272.637 363.357 272.472 363.357 272.301C363.357 272.13 363.294 271.965 363.181 271.837C363.068 271.709 362.912 271.626 362.743 271.605C362.573 271.626 362.417 271.709 362.304 271.837C362.191 271.965 362.129 272.13 362.129 272.301C362.129 272.472 362.191 272.637 362.304 272.765C362.417 272.894 362.573 272.976 362.743 272.998Z" fill="#F2AB3E"/>
<path d="M366.376 273.543C368.111 273.582 369.822 273.96 371.412 274.658C371.574 274.748 371.764 274.771 371.943 274.723C372.122 274.676 372.275 274.56 372.37 274.401C372.417 274.323 372.447 274.237 372.46 274.147C372.472 274.057 372.467 273.965 372.444 273.877C372.422 273.789 372.382 273.706 372.327 273.634C372.272 273.561 372.204 273.5 372.125 273.454C370.314 272.641 368.36 272.194 366.376 272.139C366.193 272.142 366.019 272.216 365.89 272.345C365.761 272.474 365.688 272.648 365.685 272.83C365.687 273.014 365.761 273.189 365.889 273.32C366.018 273.45 366.192 273.527 366.376 273.532V273.543Z" fill="#F2AB3E"/>
<path d="M374.131 266.29C376.251 266.719 378.277 267.522 380.115 268.663C380.872 269.142 381.574 267.928 380.817 267.46C378.877 266.254 376.737 265.405 374.499 264.953C374.321 264.904 374.132 264.927 373.972 265.018C373.812 265.109 373.695 265.26 373.646 265.437C373.598 265.615 373.621 265.804 373.712 265.964C373.803 266.124 373.954 266.241 374.131 266.29Z" fill="#F2AB3E"/>
<path d="M379.067 272.663L379.268 273.042C379.305 273.126 379.368 273.196 379.446 273.243C379.517 273.301 379.599 273.344 379.688 273.367C379.776 273.39 379.869 273.393 379.959 273.377C380.049 273.373 380.138 273.346 380.215 273.299L380.36 273.187C380.444 273.104 380.505 273 380.538 272.886V272.697C380.536 272.573 380.506 272.451 380.449 272.34L380.248 271.961C380.205 271.882 380.144 271.814 380.07 271.761C380 271.702 379.917 271.66 379.829 271.637C379.74 271.614 379.648 271.61 379.558 271.627C379.467 271.631 379.379 271.658 379.301 271.705L379.156 271.817C379.07 271.903 379.009 272.01 378.978 272.129V272.307C378.979 272.431 379.009 272.554 379.067 272.663Z" fill="#F2AB3E"/>
<path d="M384.371 271.114L384.438 271.281V271.471V271.649L384.371 271.805L384.26 271.939L384.115 272.039L383.948 272.106H383.77H383.591L383.424 272.039L383.279 271.928L383.168 271.794L383.101 271.627V271.449V271.259L383.168 271.092C383.117 271.169 383.086 271.257 383.079 271.348C383.056 271.44 383.056 271.535 383.079 271.627C383.101 271.719 383.147 271.804 383.212 271.872C383.261 271.945 383.326 272.006 383.402 272.05L383.569 272.117C383.689 272.15 383.816 272.15 383.937 272.117L384.104 272.05C384.21 271.989 384.299 271.9 384.36 271.794C384.427 271.679 384.461 271.548 384.46 271.415C384.46 271.286 384.425 271.159 384.36 271.047C384.298 270.935 384.205 270.843 384.093 270.78L383.926 270.713H383.714H383.513L383.335 270.791C383.293 270.832 383.248 270.869 383.201 270.903C383.111 270.988 383.046 271.095 383.012 271.215C383.006 271.281 383.006 271.348 383.012 271.415C383.012 271.415 383.012 271.493 383.012 271.515C383.015 271.549 383.015 271.582 383.012 271.616C383.033 271.677 383.059 271.737 383.09 271.794C383.137 271.871 383.197 271.939 383.268 271.995C383.34 272.053 383.424 272.095 383.513 272.117C383.629 272.203 383.771 272.242 383.914 272.229C384.005 272.225 384.093 272.198 384.171 272.151L384.304 272.039C384.394 271.954 384.46 271.846 384.494 271.727V271.549C384.495 271.423 384.46 271.299 384.394 271.192L384.371 271.114Z" fill="#F2AB3E"/>
<path d="M385.374 275.894C387.201 276.869 388.827 278.181 390.165 279.761C390.297 279.892 390.475 279.966 390.661 279.966C390.847 279.966 391.026 279.892 391.157 279.761C391.283 279.629 391.352 279.453 391.352 279.271C391.352 279.088 391.283 278.913 391.157 278.78C389.737 277.108 388.013 275.721 386.076 274.691C385.914 274.601 385.724 274.577 385.545 274.625C385.366 274.673 385.213 274.789 385.118 274.947C385.028 275.107 385.005 275.296 385.053 275.473C385.101 275.65 385.216 275.801 385.374 275.894Z" fill="#F2AB3E"/>
<path d="M387.692 272.986L390.444 275.438C390.575 275.566 390.751 275.637 390.934 275.637C391.118 275.637 391.293 275.566 391.425 275.438C391.553 275.305 391.625 275.127 391.625 274.942C391.625 274.757 391.553 274.579 391.425 274.446L388.672 271.995C388.537 271.889 388.367 271.836 388.195 271.847C388.023 271.858 387.861 271.931 387.74 272.054C387.619 272.176 387.548 272.339 387.539 272.511C387.53 272.683 387.584 272.852 387.692 272.986Z" fill="#F2AB3E"/>
<path d="M375.078 277.8C377.744 278.634 380.329 279.708 382.8 281.009C383.591 281.421 384.293 280.229 383.502 279.806C380.923 278.443 378.222 277.324 375.435 276.463C374.577 276.195 374.209 277.577 375.067 277.8H375.078Z" fill="#F2AB3E"/>
<path d="M363.679 278.034C365.236 277.872 366.802 278.229 368.136 279.048C368.214 279.094 368.301 279.125 368.391 279.137C368.481 279.15 368.572 279.145 368.66 279.122C368.748 279.099 368.831 279.06 368.904 279.005C368.976 278.95 369.037 278.881 369.083 278.803C369.138 278.724 369.177 278.635 369.196 278.541C369.215 278.447 369.215 278.35 369.195 278.256C369.175 278.162 369.136 278.073 369.08 277.994C369.025 277.916 368.954 277.85 368.871 277.8C367.307 276.877 365.485 276.486 363.679 276.686C363.496 276.694 363.324 276.771 363.196 276.901C363.068 277.032 362.993 277.205 362.988 277.388C362.988 277.571 363.061 277.747 363.19 277.876C363.32 278.006 363.496 278.079 363.679 278.079V278.034Z" fill="#F2AB3E"/>
<path d="M373.719 283.004L377.574 284.352C377.751 284.4 377.94 284.377 378.101 284.288C378.261 284.198 378.38 284.049 378.432 283.873C378.48 283.696 378.457 283.506 378.368 283.346C378.278 283.186 378.129 283.067 377.953 283.015L374.086 281.667C373.909 281.618 373.72 281.641 373.56 281.731C373.399 281.821 373.28 281.969 373.228 282.146C373.186 282.324 373.213 282.512 373.304 282.671C373.395 282.831 373.543 282.949 373.719 283.004Z" fill="#F2AB3E"/>
<path d="M385.708 287.182L385.92 287.338L386.02 287.416L386.388 287.706C386.644 287.918 386.889 288.141 387.135 288.363C387.603 288.809 388.059 289.288 388.483 289.779C388.547 289.843 388.623 289.895 388.708 289.93C388.792 289.965 388.882 289.983 388.973 289.983C389.064 289.983 389.155 289.965 389.239 289.93C389.323 289.895 389.399 289.843 389.463 289.779C389.591 289.647 389.663 289.471 389.663 289.288C389.663 289.105 389.591 288.929 389.463 288.798C388.566 287.747 387.549 286.804 386.433 285.99C386.27 285.898 386.08 285.87 385.898 285.912C385.765 285.949 385.646 286.024 385.556 286.128C385.466 286.232 385.408 286.361 385.39 286.497C385.372 286.634 385.395 286.773 385.456 286.897C385.516 287.02 385.612 287.124 385.731 287.193L385.708 287.182Z" fill="#F2AB3E"/>
<path d="M390.667 286.926C391.785 288.4 392.675 290.034 393.308 291.773C393.36 291.95 393.478 292.1 393.638 292.191C393.798 292.282 393.987 292.308 394.166 292.263C394.342 292.212 394.491 292.093 394.581 291.932C394.67 291.772 394.693 291.583 394.645 291.405C393.98 289.551 393.045 287.805 391.87 286.224C391.773 286.067 391.619 285.954 391.441 285.908C391.262 285.863 391.072 285.888 390.912 285.979C390.834 286.025 390.765 286.086 390.71 286.158C390.656 286.231 390.616 286.314 390.593 286.402C390.57 286.489 390.565 286.581 390.578 286.671C390.59 286.761 390.621 286.848 390.667 286.926Z" fill="#F2AB3E"/>
<path d="M393.196 282.859C393.854 283.973 394.5 285.088 395.158 286.124C395.251 286.282 395.402 286.397 395.579 286.445C395.756 286.493 395.945 286.47 396.105 286.38C396.263 286.285 396.379 286.132 396.427 285.953C396.475 285.774 396.451 285.584 396.361 285.422C395.704 284.308 395.057 283.193 394.4 282.157C394.303 282 394.149 281.887 393.97 281.841C393.791 281.796 393.602 281.821 393.442 281.912C393.285 282.007 393.173 282.159 393.127 282.336C393.081 282.513 393.106 282.7 393.196 282.859Z" fill="#F2AB3E"/>
<path d="M393.854 279.405C394.043 279.527 394.221 279.661 394.4 279.795L394.478 279.861L394.578 279.939L394.845 280.162C395.195 280.469 395.526 280.797 395.837 281.143C395.993 281.31 396.138 281.477 396.283 281.655L396.383 281.789C396.457 281.877 396.524 281.97 396.584 282.068C396.858 282.443 397.103 282.838 397.319 283.249C397.358 283.34 397.416 283.423 397.49 283.49C397.563 283.557 397.65 283.608 397.744 283.639C397.839 283.671 397.939 283.681 398.038 283.671C398.137 283.661 398.232 283.629 398.318 283.579C398.404 283.529 398.479 283.461 398.536 283.38C398.594 283.299 398.634 283.207 398.653 283.109C398.673 283.012 398.671 282.911 398.648 282.814C398.626 282.717 398.583 282.626 398.523 282.547C397.558 280.786 396.186 279.28 394.522 278.157C394.363 278.063 394.172 278.036 393.993 278.082C393.813 278.128 393.659 278.243 393.564 278.402C393.477 278.564 393.455 278.754 393.502 278.932C393.55 279.11 393.664 279.263 393.82 279.36L393.854 279.405Z" fill="#F2AB3E"/>
<path d="M955.362 283.966L959.658 280.718C959.768 280.587 959.827 280.42 959.822 280.249C959.818 280.078 959.751 279.914 959.635 279.789C959.518 279.664 959.36 279.585 959.19 279.568C959.019 279.551 958.849 279.597 958.71 279.697L954.403 282.948C954.272 283.074 954.195 283.247 954.189 283.43C954.183 283.613 954.248 283.79 954.371 283.925C954.499 284.059 954.674 284.139 954.859 284.146C955.044 284.154 955.224 284.089 955.362 283.966Z" fill="#555555"/>
<path d="M960.964 284.399C962.315 283.548 963.502 282.462 964.47 281.192C964.566 281.034 964.597 280.845 964.557 280.664C964.516 280.484 964.407 280.326 964.253 280.224C964.094 280.131 963.906 280.101 963.726 280.141C963.546 280.182 963.388 280.289 963.285 280.441L962.956 280.858C963.021 280.843 962.956 280.858 962.956 280.858C962.931 280.896 962.9 280.93 962.864 280.958C962.813 281.03 962.755 281.096 962.692 281.157C962.452 281.43 962.198 281.689 961.93 281.933C961.674 282.176 961.405 282.404 961.124 282.616C961.045 282.677 960.962 282.73 960.874 282.775C960.874 282.775 960.798 282.792 960.777 282.854L960.701 282.871C960.766 282.856 960.701 282.871 960.636 282.886C960.598 282.901 960.557 282.91 960.516 282.913C960.438 282.975 960.355 283.032 960.269 283.082C960.181 283.131 960.105 283.197 960.045 283.278C959.985 283.358 959.942 283.449 959.92 283.547C959.898 283.645 959.896 283.746 959.916 283.844C959.935 283.942 959.975 284.036 960.033 284.117C960.119 284.278 960.266 284.397 960.44 284.45C960.615 284.503 960.803 284.485 960.964 284.399Z" fill="#555555"/>
<path d="M963.099 278.29C965.229 276.549 967.31 274.746 969.343 272.881C969.453 272.75 969.511 272.583 969.507 272.412C969.503 272.241 969.436 272.078 969.32 271.952C969.203 271.827 969.045 271.748 968.875 271.732C968.704 271.715 968.534 271.761 968.395 271.861C966.369 273.724 964.288 275.527 962.151 277.27C961.456 277.837 962.415 278.855 963.099 278.29Z" fill="#555555"/>
<path d="M968.224 278.328L969.673 276.998C969.74 276.939 969.795 276.866 969.834 276.785C969.872 276.703 969.894 276.615 969.898 276.525C969.901 276.432 969.886 276.34 969.853 276.253C969.82 276.166 969.769 276.087 969.705 276.02C969.579 275.887 969.406 275.807 969.223 275.799C969.04 275.791 968.861 275.855 968.724 275.978L967.278 277.319C967.211 277.378 967.156 277.451 967.117 277.532C967.079 277.613 967.057 277.702 967.053 277.792C967.047 277.978 967.112 278.159 967.235 278.299C967.363 278.433 967.538 278.512 967.724 278.517C967.909 278.523 968.089 278.455 968.224 278.328Z" fill="#555555"/>
<path d="M974.664 272.978C976.017 271.786 977.25 270.466 978.347 269.034C978.446 268.877 978.479 268.687 978.438 268.506C978.398 268.324 978.287 268.166 978.13 268.067C977.972 267.976 977.787 267.948 977.61 267.988C977.432 268.027 977.277 268.132 977.173 268.281C976.168 269.613 975.031 270.839 973.781 271.943C973.647 272.069 973.567 272.241 973.559 272.425C973.551 272.608 973.615 272.787 973.738 272.923C973.865 273.057 974.04 273.137 974.225 273.144C974.41 273.152 974.591 273.087 974.729 272.964L974.664 272.978Z" fill="#555555"/>
<path d="M972.524 270.82C972.948 270.469 973.33 270.069 973.661 269.629C973.758 269.473 973.789 269.285 973.749 269.106C973.705 268.929 973.597 268.775 973.446 268.672C973.369 268.623 973.284 268.591 973.194 268.576C973.104 268.56 973.013 268.563 972.924 268.583L972.739 268.625C972.631 268.68 972.539 268.764 972.474 268.867C972.435 268.921 972.393 268.972 972.348 269.021L972.465 268.88C972.183 269.213 971.869 269.517 971.527 269.788C971.395 269.917 971.318 270.092 971.313 270.276C971.307 270.46 971.374 270.64 971.497 270.776C971.557 270.842 971.629 270.896 971.71 270.933C971.791 270.969 971.879 270.989 971.968 270.991C972.154 270.996 972.335 270.931 972.475 270.808L972.524 270.82Z" fill="#555555"/>
<path d="M978.084 265.519L982.868 260.632C983 260.502 983.077 260.328 983.085 260.144C983.092 259.96 983.029 259.78 982.909 259.64C982.781 259.506 982.606 259.427 982.42 259.422C982.235 259.416 982.055 259.484 981.92 259.611L977.135 264.499C977.001 264.624 976.922 264.797 976.914 264.98C976.906 265.163 976.97 265.342 977.092 265.479C977.22 265.613 977.395 265.692 977.58 265.7C977.765 265.707 977.945 265.642 978.084 265.519Z" fill="#555555"/>
<path d="M980.927 270.762L983.527 267.895C983.658 267.768 983.736 267.596 983.744 267.413C983.752 267.231 983.689 267.053 983.57 266.915C983.442 266.781 983.267 266.702 983.082 266.694C982.897 266.686 982.717 266.751 982.579 266.874L979.974 269.72C979.893 269.778 979.826 269.853 979.776 269.939C979.726 270.025 979.696 270.121 979.686 270.22C979.676 270.319 979.687 270.419 979.719 270.513C979.751 270.608 979.802 270.694 979.87 270.767C979.938 270.84 980.02 270.898 980.112 270.936C980.204 270.975 980.303 270.994 980.402 270.991C980.502 270.989 980.599 270.965 980.689 270.922C980.779 270.878 980.858 270.817 980.922 270.74L980.927 270.762Z" fill="#555555"/>
<path d="M983.761 264.154L985.214 262.686C985.34 262.561 985.417 262.394 985.428 262.216C985.433 262.03 985.368 261.848 985.245 261.708C985.123 261.575 984.953 261.495 984.772 261.483C984.582 261.474 984.396 261.541 984.254 261.668L982.813 263.133C982.686 263.261 982.607 263.428 982.588 263.606C982.582 263.797 982.653 263.983 982.783 264.122C982.843 264.188 982.915 264.241 982.996 264.278C983.077 264.315 983.165 264.335 983.254 264.336C983.346 264.341 983.439 264.328 983.526 264.297C983.613 264.265 983.693 264.217 983.761 264.154Z" fill="#555555"/>
<path d="M986.327 256.601C987.501 255.025 988.754 253.509 990.081 252.059C990.21 251.931 990.285 251.758 990.291 251.576C990.297 251.395 990.233 251.217 990.113 251.081C989.988 250.947 989.815 250.868 989.632 250.86C989.448 250.852 989.269 250.916 989.133 251.038C987.722 252.57 986.393 254.176 985.153 255.848C985.053 256.005 985.02 256.195 985.061 256.377C985.102 256.558 985.213 256.716 985.37 256.816C985.526 256.909 985.713 256.939 985.891 256.899C986.069 256.859 986.225 256.753 986.327 256.601Z" fill="#555555"/>
<path d="M988.772 258.999L990.251 257.297C990.381 257.167 990.46 256.995 990.474 256.813C990.479 256.627 990.414 256.445 990.291 256.305C990.162 256.176 989.99 256.097 989.808 256.083C989.715 256.079 989.622 256.095 989.535 256.128C989.449 256.161 989.37 256.212 989.303 256.276L987.823 257.978C987.693 258.104 987.614 258.272 987.598 258.451C987.595 258.544 987.61 258.637 987.643 258.723C987.676 258.81 987.727 258.889 987.791 258.956C987.851 259.024 987.924 259.078 988.005 259.117C988.086 259.156 988.174 259.177 988.264 259.181C988.45 259.187 988.632 259.122 988.772 258.999Z" fill="#555555"/>
<path d="M988.681 264.706C990.569 263.012 992.278 261.128 993.781 259.085C993.844 259.009 993.89 258.92 993.916 258.824C993.942 258.729 993.947 258.629 993.931 258.531C993.916 258.433 993.88 258.34 993.826 258.257C993.772 258.174 993.7 258.103 993.617 258.05C993.534 257.996 993.44 257.961 993.342 257.946C993.244 257.932 993.144 257.938 993.049 257.965C992.954 257.991 992.865 258.038 992.789 258.101C992.713 258.165 992.651 258.243 992.607 258.332C991.173 260.281 989.54 262.076 987.733 263.685C987.067 264.28 988.015 265.301 988.681 264.706Z" fill="#555555"/>
<path d="M972.683 281.154C973.31 280.488 973.948 279.819 974.589 279.162C974.721 279.033 974.797 278.857 974.803 278.673C974.808 278.489 974.742 278.309 974.618 278.173C974.491 278.038 974.315 277.96 974.13 277.954C973.945 277.949 973.765 278.017 973.63 278.143L971.702 280.14C971.622 280.198 971.554 280.273 971.504 280.359C971.455 280.446 971.424 280.542 971.414 280.641C971.404 280.74 971.416 280.84 971.448 280.934C971.479 281.028 971.531 281.115 971.599 281.188C971.666 281.26 971.749 281.318 971.841 281.357C971.932 281.395 972.031 281.414 972.131 281.411C972.23 281.409 972.328 281.385 972.418 281.342C972.507 281.299 972.587 281.237 972.651 281.161L972.683 281.154Z" fill="#555555"/>
<path d="M967.402 289.579C968.829 288.459 970.207 287.271 971.516 286.029C971.626 285.898 971.684 285.731 971.68 285.56C971.676 285.389 971.609 285.225 971.492 285.1C971.376 284.975 971.218 284.896 971.047 284.879C970.877 284.862 970.706 284.908 970.568 285.009C969.283 286.241 967.912 287.424 966.453 288.558C966.322 288.687 966.245 288.862 966.239 289.046C966.234 289.231 966.3 289.41 966.424 289.547C966.551 289.678 966.724 289.755 966.906 289.761C967.089 289.767 967.267 289.702 967.402 289.579Z" fill="#555555"/>
<path d="M961.289 290.276L964.616 287.646C964.726 287.515 964.784 287.348 964.78 287.177C964.775 287.006 964.708 286.842 964.592 286.717C964.475 286.591 964.317 286.513 964.147 286.496C963.977 286.479 963.806 286.525 963.667 286.625L960.34 289.256C960.269 289.315 960.211 289.388 960.169 289.47C960.126 289.552 960.101 289.641 960.094 289.734C960.087 289.826 960.099 289.918 960.128 290.006C960.157 290.093 960.204 290.174 960.265 290.243C960.394 290.375 960.568 290.452 960.753 290.46C960.937 290.467 961.117 290.404 961.256 290.284L961.289 290.276Z" fill="#555555"/>
<path d="M980.684 277.977L983.926 274.966C983.993 274.905 984.048 274.831 984.087 274.748C984.125 274.665 984.147 274.576 984.151 274.485C984.155 274.394 984.141 274.303 984.11 274.217C984.078 274.131 984.03 274.053 983.968 273.986C983.841 273.852 983.666 273.773 983.481 273.765C983.296 273.758 983.115 273.822 982.977 273.945L979.736 276.957C979.668 277.018 979.613 277.092 979.575 277.175C979.536 277.257 979.514 277.347 979.51 277.438C979.506 277.529 979.52 277.62 979.552 277.706C979.583 277.791 979.631 277.87 979.693 277.937C979.822 278.068 979.996 278.146 980.181 278.153C980.365 278.161 980.545 278.098 980.684 277.977Z" fill="#555555"/>
<path d="M991.013 268.991C991.867 268.114 992.721 267.238 993.561 266.352C993.695 266.227 993.774 266.053 993.78 265.87C993.786 265.687 993.719 265.508 993.593 265.375C993.468 265.241 993.294 265.162 993.111 265.156C992.928 265.15 992.749 265.217 992.615 265.343L990.065 267.97C989.955 268.102 989.896 268.268 989.901 268.439C989.905 268.611 989.972 268.774 990.088 268.899C990.205 269.025 990.363 269.103 990.533 269.12C990.704 269.137 990.874 269.091 991.013 268.991Z" fill="#555555"/>
<path d="M987.547 249.978C988.301 249.112 989.044 248.249 989.8 247.394C989.924 247.267 990 247.101 990.014 246.924C990.021 246.829 990.008 246.734 989.976 246.645C989.945 246.556 989.894 246.474 989.829 246.405C989.767 246.339 989.693 246.286 989.61 246.248C989.527 246.21 989.438 246.19 989.347 246.187C989.256 246.184 989.166 246.199 989.081 246.231C988.995 246.263 988.918 246.311 988.851 246.374C988.098 247.239 987.342 248.094 986.599 248.957C986.531 249.019 986.477 249.093 986.438 249.175C986.399 249.258 986.377 249.347 986.373 249.439C986.369 249.53 986.383 249.621 986.415 249.706C986.446 249.792 986.494 249.871 986.556 249.938C986.685 250.069 986.86 250.147 987.044 250.154C987.228 250.162 987.408 250.099 987.547 249.978Z" fill="#555555"/>
<path d="M956.176 278.838C958.161 277.251 960.123 275.612 962.103 274.003C962.237 273.878 962.316 273.705 962.324 273.522C962.332 273.338 962.268 273.159 962.146 273.023C962.018 272.889 961.844 272.809 961.659 272.802C961.474 272.794 961.293 272.859 961.155 272.982C959.224 274.557 957.208 276.209 955.228 277.818C955.094 277.943 955.015 278.116 955.007 278.299C954.999 278.482 955.063 278.662 955.185 278.798C955.313 278.932 955.488 279.011 955.673 279.019C955.858 279.026 956.038 278.962 956.176 278.838Z" fill="#555555"/>
<path d="M965.426 270.54C969.23 267.141 972.848 263.539 976.264 259.749C976.858 259.091 975.888 258.075 975.315 258.729C971.903 262.517 968.289 266.118 964.489 269.517C963.823 270.111 964.771 271.132 965.437 270.537L965.426 270.54Z" fill="#555555"/>
<path d="M980.267 255.756C980.449 255.445 980.658 255.149 980.892 254.874L980.772 255.004C981.127 254.586 981.53 254.212 981.973 253.889C982.105 253.761 982.184 253.589 982.195 253.405C982.199 253.313 982.183 253.22 982.15 253.133C982.117 253.047 982.066 252.967 982.002 252.901C981.879 252.768 981.709 252.688 981.529 252.675C981.344 252.68 981.165 252.749 981.024 252.869C980.239 253.446 979.579 254.177 979.085 255.017C978.992 255.173 978.962 255.36 979.002 255.538C979.042 255.716 979.148 255.872 979.3 255.973C979.458 256.067 979.647 256.097 979.826 256.056C980.006 256.016 980.164 255.909 980.267 255.756Z" fill="#555555"/>
<path d="M996.425 255.649C997.648 254.154 998.601 252.456 999.239 250.632C999.267 250.546 999.278 250.455 999.271 250.364C999.263 250.274 999.238 250.185 999.197 250.105C999.155 250.024 999.098 249.952 999.029 249.893C998.96 249.834 998.88 249.79 998.793 249.762C998.617 249.711 998.427 249.729 998.264 249.813C998.1 249.896 997.974 250.038 997.912 250.211C997.758 250.645 997.591 251.071 997.394 251.469L997.407 251.523L997.344 251.652L997.185 251.961C997.086 252.177 996.972 252.385 996.845 252.586C996.383 253.399 995.843 254.166 995.235 254.877C995.161 255.032 995.147 255.209 995.196 255.375C995.244 255.54 995.351 255.682 995.497 255.773C995.643 255.864 995.817 255.899 995.987 255.87C996.157 255.841 996.31 255.751 996.418 255.616L996.425 255.649Z" fill="#555555"/>
<path d="M995.853 249.028C996.897 247.875 997.632 246.477 997.99 244.963C998.041 244.788 998.023 244.601 997.94 244.439C997.857 244.277 997.715 244.153 997.544 244.092C997.368 244.036 997.176 244.051 997.011 244.135C996.846 244.219 996.721 244.365 996.663 244.541C996.583 244.885 996.483 245.224 996.365 245.556L996.183 246.019L996.132 246.145C996.077 246.26 996.117 246.08 996.132 246.145L996.015 246.388C995.853 246.687 995.681 246.988 995.493 247.27L995.177 247.695L995.105 247.78C995.105 247.78 994.999 247.918 995.105 247.78L995.04 247.795C995.009 247.835 994.976 247.873 994.94 247.908C994.805 248.036 994.727 248.212 994.721 248.397C994.716 248.582 994.784 248.762 994.91 248.897C994.972 248.964 995.047 249.017 995.13 249.055C995.212 249.092 995.302 249.113 995.393 249.116C995.484 249.119 995.574 249.104 995.659 249.072C995.744 249.04 995.822 248.991 995.888 248.929L995.853 249.028Z" fill="#555555"/>
<path d="M993.039 242.899C993.661 242.049 994.106 241.083 994.347 240.058C994.587 239.032 994.62 237.969 994.442 236.931C994.401 236.752 994.292 236.595 994.137 236.495C993.982 236.395 993.794 236.36 993.614 236.398C993.435 236.444 993.281 236.556 993.182 236.712C993.083 236.868 993.048 237.055 993.082 237.236C993.217 238.075 993.184 238.933 992.986 239.759C992.785 240.625 992.403 241.438 991.866 242.146C991.766 242.303 991.733 242.493 991.774 242.675C991.815 242.856 991.926 243.014 992.083 243.113C992.239 243.207 992.426 243.237 992.604 243.197C992.782 243.157 992.938 243.05 993.039 242.899Z" fill="#555555"/>
<path d="M999.448 240.924C1000.01 239.323 1000.11 237.594 999.724 235.941C999.684 235.762 999.574 235.606 999.419 235.508C999.265 235.41 999.077 235.378 998.898 235.418C998.726 235.465 998.578 235.576 998.485 235.729C998.392 235.881 998.361 236.063 998.397 236.238C998.733 237.659 998.646 239.147 998.147 240.52C998.119 240.606 998.109 240.697 998.116 240.788C998.123 240.878 998.148 240.967 998.19 241.048C998.231 241.128 998.288 241.2 998.358 241.259C998.427 241.318 998.507 241.362 998.594 241.39C998.77 241.441 998.959 241.423 999.123 241.34C999.287 241.256 999.412 241.114 999.475 240.941L999.448 240.924Z" fill="#555555"/>
<path d="M998.662 261.496C1000.84 259.844 1002.51 257.626 1003.52 255.086C1003.54 254.999 1003.55 254.907 1003.55 254.816C1003.54 254.726 1003.51 254.637 1003.47 254.557C1003.43 254.476 1003.37 254.404 1003.3 254.346C1003.23 254.288 1003.15 254.244 1003.06 254.218C1002.88 254.164 1002.7 254.181 1002.53 254.264C1002.37 254.348 1002.25 254.491 1002.19 254.664C1001.25 256.973 999.707 258.983 997.713 260.476C997.579 260.603 997.501 260.779 997.495 260.964C997.49 261.149 997.557 261.329 997.684 261.465C997.812 261.594 997.985 261.669 998.167 261.675C998.348 261.681 998.526 261.617 998.662 261.496Z" fill="#555555"/>
<path d="M1005.42 250.034C1006.12 248.276 1006.47 246.402 1006.47 244.512C1006.47 244.328 1006.4 244.149 1006.28 244.013C1006.16 243.877 1005.98 243.794 1005.8 243.782C1005.71 243.777 1005.62 243.79 1005.53 243.82C1005.44 243.851 1005.37 243.899 1005.3 243.961C1005.23 244.023 1005.18 244.098 1005.14 244.181C1005.1 244.264 1005.08 244.354 1005.08 244.446C1005.08 246.215 1004.75 247.968 1004.09 249.612C1004.06 249.698 1004.05 249.79 1004.06 249.881C1004.06 249.972 1004.09 250.061 1004.13 250.142C1004.17 250.223 1004.23 250.295 1004.3 250.354C1004.37 250.412 1004.45 250.456 1004.54 250.483C1004.63 250.511 1004.72 250.521 1004.81 250.514C1004.9 250.507 1004.99 250.481 1005.07 250.44C1005.15 250.398 1005.22 250.341 1005.28 250.272C1005.34 250.203 1005.38 250.123 1005.41 250.036L1005.42 250.034Z" fill="#555555"/>
<path d="M1004.59 239.349L1005.41 235.636C1005.46 235.459 1005.44 235.27 1005.36 235.106C1005.28 234.943 1005.13 234.817 1004.96 234.754C1004.78 234.702 1004.59 234.72 1004.43 234.806C1004.27 234.892 1004.14 235.038 1004.08 235.214L1003.27 238.914C1003.21 239.091 1003.23 239.281 1003.32 239.445C1003.4 239.61 1003.54 239.735 1003.72 239.795C1003.8 239.823 1003.9 239.834 1003.99 239.827C1004.08 239.819 1004.16 239.794 1004.25 239.753C1004.33 239.711 1004.4 239.654 1004.46 239.585C1004.52 239.516 1004.56 239.436 1004.59 239.349Z" fill="#555555"/>
<path d="M997.393 232.067C997.558 228.739 997.489 225.404 997.187 222.086C997.129 221.926 997.014 221.792 996.864 221.71C996.714 221.627 996.54 221.603 996.373 221.64C996.206 221.677 996.059 221.774 995.959 221.913C995.858 222.051 995.812 222.221 995.828 222.391C996.117 225.587 996.173 228.799 995.997 232.003C996.006 232.177 996.079 232.342 996.203 232.465C996.327 232.588 996.492 232.661 996.666 232.669C996.84 232.677 997.011 232.62 997.146 232.508C997.28 232.397 997.368 232.24 997.393 232.067Z" fill="#555555"/>
<path d="M1002.54 231.357C1002.42 230.982 1002.33 230.596 1002.29 230.204L1002.33 230.389C1002.27 230.139 1002.3 229.88 1002.31 229.616C1002.32 229.432 1002.26 229.252 1002.13 229.116C1002.01 228.98 1001.84 228.899 1001.65 228.89C1001.47 228.881 1001.29 228.946 1001.15 229.069C1001.02 229.193 1000.94 229.366 1000.93 229.549C1000.89 230.263 1000.98 230.978 1001.17 231.664C1001.22 231.841 1001.33 231.996 1001.48 232.098C1001.59 232.17 1001.73 232.207 1001.87 232.203C1002 232.199 1002.14 232.155 1002.25 232.076C1002.36 231.997 1002.45 231.888 1002.5 231.76C1002.55 231.633 1002.56 231.493 1002.53 231.359L1002.54 231.357Z" fill="#555555"/>
<path d="M997.453 215.689C997.051 214.323 996.789 212.92 996.674 211.501C996.676 211.318 996.608 211.141 996.484 211.005C996.361 210.87 996.19 210.786 996.007 210.772C995.823 210.767 995.644 210.834 995.508 210.958C995.372 211.082 995.29 211.254 995.278 211.438C995.405 212.979 995.693 214.503 996.138 215.984C996.183 216.163 996.296 216.317 996.452 216.416C996.607 216.515 996.795 216.55 996.976 216.515C997.155 216.472 997.31 216.36 997.408 216.204C997.505 216.047 997.537 215.859 997.497 215.679L997.453 215.689Z" fill="#555555"/>
<path d="M1001.52 224.265L1001.06 219.618C1001.01 219.457 1000.89 219.323 1000.74 219.241C1000.59 219.159 1000.42 219.134 1000.25 219.172C1000.08 219.209 999.936 219.306 999.836 219.444C999.735 219.583 999.689 219.753 999.705 219.923L1000.16 224.57C1000.21 224.749 1000.31 224.905 1000.47 225.003C1000.62 225.101 1000.81 225.133 1000.99 225.093C1001.17 225.053 1001.33 224.943 1001.43 224.789C1001.53 224.634 1001.56 224.446 1001.52 224.265Z" fill="#555555"/>
<path d="M1005.8 225.899C1005.25 224.486 1005.06 222.959 1005.24 221.455C1005.25 221.364 1005.24 221.273 1005.21 221.186C1005.18 221.1 1005.13 221.02 1005.07 220.952C1005.01 220.884 1004.93 220.829 1004.85 220.789C1004.77 220.75 1004.68 220.727 1004.59 220.723C1004.41 220.715 1004.23 220.779 1004.09 220.901C1003.95 221.024 1003.87 221.195 1003.86 221.378C1003.66 223.124 1003.91 224.89 1004.56 226.518C1004.61 226.599 1004.66 226.67 1004.73 226.728C1004.8 226.786 1004.88 226.829 1004.97 226.856C1005.06 226.882 1005.15 226.891 1005.24 226.881C1005.33 226.872 1005.42 226.844 1005.5 226.8C1005.66 226.714 1005.78 226.567 1005.83 226.393C1005.89 226.219 1005.87 226.03 1005.79 225.867L1005.8 225.899Z" fill="#555555"/>
<path d="M1009.35 230.014C1008.95 228.034 1008.77 226.019 1008.81 224.002C1008.81 223.11 1007.45 223.039 1007.41 223.938C1007.38 226.079 1007.57 228.218 1007.99 230.319C1008.04 230.479 1008.16 230.613 1008.31 230.696C1008.46 230.778 1008.63 230.802 1008.8 230.765C1008.97 230.728 1009.11 230.631 1009.21 230.492C1009.32 230.354 1009.36 230.184 1009.35 230.014Z" fill="#555555"/>
<path d="M1002.79 214.686C1001.68 211.325 1001.5 207.728 1002.27 204.273C1002.46 203.408 1001.13 202.975 1000.94 203.852C1000.1 207.541 1000.27 211.389 1001.43 214.991C1001.71 215.83 1003.07 215.536 1002.79 214.686Z" fill="#555555"/>
<path d="M1007.13 215.665C1007.07 215.504 1006.96 215.37 1006.81 215.288C1006.66 215.205 1006.48 215.181 1006.32 215.218C1006.15 215.256 1006 215.353 1005.9 215.491C1005.8 215.629 1005.76 215.799 1005.77 215.97C1005.83 216.13 1005.95 216.264 1006.1 216.346C1006.25 216.429 1006.42 216.453 1006.59 216.416C1006.75 216.378 1006.9 216.282 1007 216.143C1007.1 216.005 1007.15 215.835 1007.13 215.665Z" fill="#555555"/>
<path d="M1006.87 212.001C1006.53 210.299 1006.52 208.546 1006.85 206.842C1006.91 206.665 1006.89 206.474 1006.8 206.31C1006.72 206.146 1006.57 206.021 1006.39 205.963C1006.31 205.935 1006.22 205.925 1006.13 205.932C1006.04 205.939 1005.95 205.964 1005.87 206.006C1005.79 206.047 1005.71 206.104 1005.65 206.174C1005.6 206.243 1005.55 206.323 1005.52 206.41C1005.13 208.355 1005.12 210.359 1005.5 212.308C1005.54 212.485 1005.65 212.639 1005.81 212.736C1005.96 212.834 1006.15 212.868 1006.32 212.831C1006.5 212.788 1006.66 212.678 1006.76 212.524C1006.86 212.37 1006.89 212.183 1006.86 212.003L1006.87 212.001Z" fill="#555555"/>
<path d="M998.094 206.021C998.048 203.859 998.389 201.706 999.1 199.663C999.401 198.819 998.063 198.4 997.772 199.241C997.02 201.398 996.66 203.672 996.708 205.955C996.7 206.139 996.764 206.318 996.888 206.454C997.012 206.591 997.184 206.672 997.368 206.681C997.552 206.689 997.731 206.625 997.867 206.501C998.003 206.377 998.085 206.205 998.094 206.021Z" fill="#555555"/>
<path d="M1003.23 199.809L1003.56 199.531C1003.63 199.476 1003.69 199.4 1003.71 199.313C1003.76 199.231 1003.78 199.142 1003.78 199.05C1003.79 198.959 1003.77 198.868 1003.73 198.783C1003.71 198.696 1003.66 198.616 1003.6 198.55L1003.46 198.434C1003.36 198.37 1003.25 198.333 1003.13 198.325L1002.94 198.367C1002.82 198.396 1002.71 198.452 1002.61 198.532L1002.29 198.811C1002.22 198.871 1002.17 198.945 1002.13 199.028C1002.09 199.11 1002.07 199.2 1002.06 199.291C1002.06 199.383 1002.08 199.474 1002.11 199.558C1002.14 199.645 1002.18 199.726 1002.25 199.791L1002.39 199.908C1002.49 199.973 1002.61 200.01 1002.73 200.013L1002.9 199.974C1003.03 199.947 1003.14 199.89 1003.23 199.809Z" fill="#555555"/>
<path d="M1000.56 194.973L1000.71 194.871L1000.89 194.83L1001.07 194.791L1001.23 194.822L1001.39 194.901L1001.52 195.021L1001.62 195.169L1001.66 195.343L1001.7 195.517L1001.67 195.695L1001.59 195.861L1001.49 195.999L1001.34 196.1L1001.16 196.139L1000.98 196.181L1000.8 196.152C1000.89 196.185 1000.98 196.196 1001.07 196.183C1001.17 196.185 1001.26 196.164 1001.34 196.122C1001.43 196.08 1001.5 196.017 1001.55 195.938C1001.61 195.874 1001.66 195.798 1001.69 195.714L1001.71 195.536C1001.72 195.412 1001.69 195.288 1001.63 195.178L1001.53 195.029C1001.45 194.939 1001.34 194.872 1001.23 194.835C1001.1 194.795 1000.96 194.79 1000.83 194.82C1000.71 194.849 1000.59 194.911 1000.5 194.999C1000.4 195.084 1000.33 195.195 1000.29 195.318L1000.27 195.496L1000.31 195.702L1000.36 195.898L1000.47 196.055C1000.52 196.087 1000.57 196.122 1000.61 196.161C1000.71 196.23 1000.83 196.27 1000.96 196.278C1001.02 196.268 1001.09 196.254 1001.15 196.234C1001.15 196.234 1001.23 196.217 1001.25 196.212C1001.28 196.202 1001.31 196.194 1001.35 196.19C1001.4 196.156 1001.45 196.117 1001.5 196.075C1001.57 196.012 1001.62 195.938 1001.66 195.857C1001.7 195.774 1001.72 195.683 1001.73 195.591C1001.78 195.46 1001.79 195.311 1001.75 195.175C1001.72 195.087 1001.68 195.007 1001.62 194.942L1001.48 194.836C1001.37 194.767 1001.25 194.726 1001.13 194.719L1000.96 194.758C1000.83 194.785 1000.72 194.846 1000.63 194.934L1000.56 194.973Z" fill="#555555"/>
<path d="M1005 192.948C1005.56 190.952 1006.48 189.079 1007.73 187.427C1007.83 187.269 1007.86 187.079 1007.82 186.898C1007.78 186.716 1007.67 186.559 1007.51 186.459C1007.36 186.366 1007.17 186.336 1006.99 186.376C1006.81 186.416 1006.66 186.522 1006.56 186.674C1005.23 188.425 1004.26 190.411 1003.68 192.527C1003.62 192.704 1003.64 192.895 1003.73 193.059C1003.81 193.223 1003.96 193.347 1004.14 193.406C1004.31 193.458 1004.5 193.439 1004.66 193.354C1004.83 193.268 1004.95 193.123 1005 192.948Z" fill="#555555"/>
<path d="M1001.66 191.323L1003.45 188.101C1003.55 187.945 1003.58 187.758 1003.54 187.579C1003.5 187.4 1003.39 187.244 1003.23 187.144C1003.08 187.048 1002.89 187.017 1002.71 187.057C1002.53 187.098 1002.37 187.207 1002.27 187.361L1000.48 190.584C1000.4 190.739 1000.39 190.916 1000.44 191.082C1000.49 191.247 1000.59 191.389 1000.74 191.48C1000.89 191.571 1001.06 191.606 1001.23 191.577C1001.4 191.548 1001.55 191.458 1001.66 191.323Z" fill="#555555"/>
<path d="M1009.12 202.577C1009.35 199.794 1009.83 197.037 1010.56 194.34C1010.79 193.478 1009.47 193.054 1009.23 193.919C1008.47 196.734 1007.97 199.614 1007.74 202.522C1007.66 203.418 1009.09 203.474 1009.12 202.588L1009.12 202.577Z" fill="#555555"/>
<path d="M1011.84 213.649C1011.34 212.165 1011.35 210.558 1011.86 209.078C1011.88 208.991 1011.89 208.9 1011.89 208.81C1011.88 208.719 1011.85 208.631 1011.81 208.55C1011.77 208.469 1011.71 208.397 1011.64 208.338C1011.58 208.28 1011.5 208.235 1011.41 208.207C1011.32 208.171 1011.22 208.153 1011.13 208.155C1011.03 208.157 1010.94 208.178 1010.85 208.218C1010.76 208.258 1010.68 208.316 1010.62 208.387C1010.56 208.458 1010.51 208.542 1010.48 208.633C1009.92 210.362 1009.94 212.226 1010.53 213.944C1010.57 214.12 1010.69 214.272 1010.84 214.368C1011 214.465 1011.18 214.499 1011.36 214.464C1011.54 214.424 1011.7 214.315 1011.79 214.16C1011.89 214.005 1011.92 213.818 1011.88 213.639L1011.84 213.649Z" fill="#555555"/>
<path d="M1014.49 202.765L1014.96 198.708C1014.97 198.524 1014.91 198.345 1014.79 198.208C1014.66 198.071 1014.49 197.988 1014.31 197.976C1014.13 197.967 1013.95 198.031 1013.81 198.154C1013.67 198.276 1013.59 198.448 1013.58 198.631L1013.11 202.699C1013.1 202.882 1013.16 203.062 1013.29 203.199C1013.41 203.336 1013.58 203.419 1013.76 203.431C1013.95 203.433 1014.12 203.366 1014.26 203.242C1014.39 203.118 1014.48 202.948 1014.49 202.765Z" fill="#555555"/>
<path d="M1015.95 190.151L1016.05 189.91L1016.11 189.795L1016.31 189.373C1016.46 189.077 1016.62 188.789 1016.79 188.501C1017.12 187.947 1017.49 187.396 1017.87 186.876C1017.92 186.799 1017.95 186.713 1017.97 186.623C1017.99 186.533 1017.98 186.441 1017.96 186.352C1017.94 186.264 1017.91 186.179 1017.85 186.105C1017.8 186.031 1017.73 185.967 1017.66 185.919C1017.5 185.823 1017.31 185.791 1017.13 185.831C1016.96 185.871 1016.8 185.98 1016.7 186.133C1015.87 187.239 1015.17 188.438 1014.62 189.705C1014.57 189.884 1014.58 190.076 1014.66 190.244C1014.73 190.366 1014.83 190.465 1014.95 190.531C1015.07 190.596 1015.21 190.624 1015.35 190.611C1015.48 190.599 1015.61 190.546 1015.72 190.46C1015.83 190.374 1015.91 190.258 1015.95 190.127L1015.95 190.151Z" fill="#555555"/>
<path d="M1014.61 185.369C1015.8 183.955 1017.2 182.729 1018.76 181.731C1018.92 181.642 1019.04 181.494 1019.1 181.318C1019.15 181.141 1019.14 180.951 1019.05 180.787C1018.96 180.626 1018.81 180.507 1018.64 180.455C1018.46 180.402 1018.27 180.421 1018.11 180.507C1016.45 181.562 1014.95 182.857 1013.66 184.349C1013.53 184.478 1013.45 184.653 1013.45 184.837C1013.44 185.021 1013.51 185.201 1013.63 185.337C1013.69 185.404 1013.77 185.457 1013.85 185.495C1013.93 185.532 1014.02 185.553 1014.11 185.556C1014.21 185.559 1014.3 185.544 1014.38 185.512C1014.47 185.48 1014.54 185.431 1014.61 185.369Z" fill="#555555"/>
<path d="M1010.09 183.791C1011.03 182.906 1011.98 182.031 1012.84 181.163C1012.98 181.037 1013.06 180.865 1013.07 180.681C1013.07 180.498 1013.01 180.319 1012.89 180.182C1012.76 180.048 1012.58 179.969 1012.4 179.962C1012.21 179.954 1012.03 180.019 1011.9 180.142C1010.95 181.028 1010.01 181.902 1009.14 182.77C1009.01 182.899 1008.93 183.074 1008.93 183.259C1008.92 183.443 1008.99 183.622 1009.11 183.759C1009.24 183.891 1009.41 183.968 1009.59 183.973C1009.78 183.979 1009.95 183.914 1010.09 183.791Z" fill="#555555"/>
<path d="M1006.57 183.906C1006.65 183.694 1006.74 183.491 1006.83 183.288L1006.88 183.197L1006.94 183.082L1007.1 182.772C1007.32 182.364 1007.57 181.969 1007.84 181.59C1007.96 181.401 1008.1 181.223 1008.24 181.043L1008.35 180.916C1008.42 180.824 1008.49 180.739 1008.57 180.659C1008.88 180.31 1009.21 179.983 1009.57 179.683C1009.65 179.625 1009.71 179.55 1009.76 179.464C1009.81 179.377 1009.84 179.282 1009.85 179.183C1009.86 179.084 1009.85 178.984 1009.82 178.889C1009.79 178.795 1009.74 178.708 1009.67 178.636C1009.6 178.563 1009.52 178.505 1009.43 178.466C1009.34 178.428 1009.24 178.409 1009.14 178.412C1009.04 178.414 1008.94 178.438 1008.85 178.481C1008.76 178.524 1008.68 178.586 1008.62 178.662C1007.11 179.989 1005.94 181.657 1005.21 183.527C1005.15 183.703 1005.17 183.895 1005.25 184.06C1005.34 184.225 1005.48 184.35 1005.66 184.408C1005.84 184.457 1006.03 184.438 1006.19 184.352C1006.35 184.267 1006.48 184.122 1006.54 183.948L1006.57 183.906Z" fill="#555555"/>
<path opacity="0.3" d="M1379.31 145.2L1414.53 126.001C1415.04 125.721 1415.46 125.31 1415.76 124.81C1416.05 124.31 1416.21 123.74 1416.21 123.159C1416.21 122.579 1416.05 122.009 1415.76 121.509C1415.46 121.009 1415.04 120.598 1414.53 120.318L1379.34 101.03C1378.85 100.753 1378.29 100.611 1377.72 100.618C1377.15 100.624 1376.6 100.779 1376.11 101.066C1375.62 101.353 1375.22 101.764 1374.94 102.256C1374.66 102.748 1374.51 103.305 1374.51 103.871V142.392C1374.52 142.952 1374.67 143.501 1374.95 143.986C1375.23 144.471 1375.63 144.875 1376.11 145.158C1376.6 145.441 1377.14 145.594 1377.7 145.601C1378.26 145.609 1378.82 145.47 1379.31 145.2ZM1381.89 131.962V114.312C1381.89 114.049 1381.95 113.79 1382.08 113.561C1382.21 113.332 1382.4 113.142 1382.62 113.009C1382.85 112.877 1383.11 112.807 1383.37 112.806C1383.64 112.806 1383.89 112.876 1384.12 113.008L1400.23 121.8C1400.46 121.93 1400.66 122.119 1400.79 122.348C1400.93 122.577 1401 122.838 1401 123.104C1401 123.369 1400.93 123.63 1400.79 123.86C1400.66 124.089 1400.46 124.278 1400.23 124.407L1384.09 133.266C1383.86 133.39 1383.61 133.453 1383.35 133.449C1383.09 133.444 1382.84 133.373 1382.62 133.241C1382.4 133.109 1382.21 132.922 1382.08 132.698C1381.96 132.474 1381.89 132.22 1381.89 131.962Z" fill="#FE747D"/>
<path opacity="0.3" d="M1052.26 461C1046.55 460.998 1040.97 462.688 1036.23 465.856C1031.48 469.025 1027.78 473.53 1025.59 478.801C1023.41 484.072 1022.84 489.873 1023.95 495.47C1025.06 501.067 1027.81 506.208 1031.84 510.244C1035.88 514.28 1041.02 517.029 1046.61 518.143C1052.21 519.257 1058.01 518.686 1063.28 516.503C1068.55 514.32 1073.06 510.622 1076.23 505.878C1079.4 501.133 1081.09 495.555 1081.09 489.849C1081.09 482.2 1078.06 474.863 1072.65 469.454C1067.24 464.044 1059.91 461.003 1052.26 461ZM1052.26 502.73C1049.7 502.732 1047.21 501.978 1045.09 500.562C1042.97 499.146 1041.31 497.133 1040.34 494.777C1039.36 492.42 1039.1 489.827 1039.6 487.325C1040.1 484.823 1041.32 482.525 1043.13 480.722C1044.93 478.918 1047.23 477.69 1049.73 477.193C1052.23 476.696 1054.83 476.952 1057.18 477.929C1059.54 478.906 1061.55 480.56 1062.97 482.682C1064.38 484.804 1065.14 487.298 1065.14 489.849C1065.13 493.264 1063.78 496.539 1061.36 498.954C1058.95 501.369 1055.67 502.727 1052.26 502.73Z" fill="#F2AB3E"/>
</g>
</svg>
