<svg width="1440" height="666" viewBox="0 0 1440 666" fill="none" xmlns="http://www.w3.org/2000/svg">
<g style="mix-blend-mode:multiply">
<path d="M1404.82 501.068C1404.88 503.02 1404.47 504.953 1403.65 506.657C1402.82 508.362 1401.61 509.774 1400.15 510.741C1398.68 511.708 1397.02 512.194 1395.33 512.147C1393.64 512.099 1392 511.519 1390.57 510.47C1388.45 513.562 1386.4 516.823 1384.48 520.063C1362.84 557.334 1354.96 605.426 1330.19 639.647C1327.34 643.586 1324.19 647.503 1322.97 652.565C1321.74 657.626 1323.39 664.169 1327.5 665.631C1328.88 666.026 1330.31 666.105 1331.71 665.863C1349.94 663.745 1367.69 657.804 1384.08 648.329C1389.29 645.282 1394.35 641.896 1399.23 638.186C1414.13 626.718 1427.78 613.208 1439.89 597.95L1439.89 576.435C1438.54 577.349 1437.01 577.831 1435.45 577.833C1434.64 577.706 1433.82 577.579 1432.99 577.43C1431.8 577.076 1430.71 576.343 1429.85 575.313C1428.84 574.502 1428.02 573.41 1427.47 572.136C1426.8 570.855 1426.42 569.398 1426.37 567.901C1426.1 566.398 1426.15 564.84 1426.54 563.369L1427.32 560.426C1427.74 558.553 1428.56 556.833 1429.7 555.428L1431.53 553.649C1432.93 552.632 1434.55 552.095 1436.2 552.103C1437.02 552.23 1437.84 552.357 1438.67 552.506C1439.08 552.621 1439.48 552.792 1439.85 553.014L1439.85 466.339C1426.38 473.326 1413.99 482.826 1403.18 494.461C1404.3 496.416 1404.87 498.722 1404.82 501.068ZM1362.31 587.659C1362.31 573.005 1380.82 573.047 1380.82 587.659C1380.82 602.27 1362.31 602.186 1362.31 587.659Z" fill="#11BDCF"/>
<path d="M1332.48 365.285C1292.64 376.89 1252.96 391.946 1216.03 413.44C1192.8 426.78 1170.91 443.043 1150.76 461.934C1162.89 460.835 1175.1 461.49 1187.09 463.883C1223.4 470.511 1259.38 487.727 1295.97 483.45C1320.64 480.57 1343.78 468.076 1366.45 455.751C1379.58 448.593 1399.83 440.927 1420.01 431.631C1419.85 430.739 1419.77 429.831 1419.77 428.92C1419.77 416.511 1433.07 414.647 1437.13 423.266L1439.93 421.784L1439.93 370.579C1423.19 364.607 1406.31 359.017 1389.55 357.153C1370.4 355.036 1351.21 359.843 1332.48 365.285ZM1403.51 384.344C1403.51 398.998 1385 398.977 1385 384.344C1385 369.711 1403.51 369.668 1403.51 384.28L1403.51 384.344Z" fill="#11BDCF"/>
<path d="M1401.92 202.501C1391.62 195.024 1380.5 189.183 1368.86 185.136C1332.28 172.155 1290.04 174.124 1255.7 186.046C1246.36 189.286 1235.47 193.077 1227.61 186.046C1247.03 217.811 1279.28 232.635 1309.74 246.039L1311.57 246.802L1335 257.115C1340.82 259.67 1346.64 262.239 1352.47 264.823C1368.73 272.044 1384.98 279.308 1401.06 286.656C1415.45 293.221 1427.47 301.014 1440 307.324L1440 281.065C1438.58 281.589 1437.08 281.719 1435.62 281.443C1434.15 281.168 1432.76 280.496 1431.56 279.482C1430.36 278.468 1429.38 277.14 1428.71 275.606C1428.04 274.073 1427.69 272.377 1427.69 270.657C1427.69 268.937 1428.04 267.241 1428.71 265.708C1429.38 264.174 1430.36 262.847 1431.56 261.832C1432.76 260.818 1434.15 260.146 1435.62 259.871C1437.08 259.596 1438.58 259.725 1440 260.249L1440 241.995C1428.49 227.192 1415.2 212.305 1401.92 202.501ZM1321.83 188.736C1321.83 174.082 1340.32 174.103 1340.32 188.736C1340.32 203.369 1321.83 203.348 1321.83 188.736ZM1375.45 215.228C1375.45 200.573 1393.96 200.616 1393.96 215.228C1393.96 229.839 1375.45 229.839 1375.45 215.228Z" fill="#11BDCF"/>
<path d="M1400.2 110.743C1395.68 109.332 1391.14 108.004 1386.57 106.762C1390.81 107.906 1394.34 111.442 1397.54 115.868C1402.61 122.983 1406.69 132.407 1411.1 137.934C1415.06 142.799 1419.42 147.217 1424.1 151.127C1425.53 150.271 1427.13 149.867 1428.74 149.956C1430.35 150.045 1431.91 150.623 1433.26 151.633C1434.61 152.643 1435.71 154.048 1436.45 155.707C1437.18 157.365 1437.52 159.219 1437.44 161.08L1437.44 161.969L1439.96 164.087L1439.96 126.096L1437.24 124.826C1425.11 119.399 1412.74 114.698 1400.2 110.743Z" fill="#11BDCF"/>
<path d="M126.973 -6.42527e-06C72.0435 124.767 42.883 258.246 54.8513 407.84C42.7661 414.159 30.8368 420.795 19.1414 427.882C17.0753 429.146 15.0091 430.364 12.9819 431.628C8.6156 434.337 4.28832 437.135 1.66144e-05 440.024L0 0L126.973 -6.42527e-06Z" fill="#113255"/>
<path d="M407.483 33.3245C428.029 42.1561 449.466 49.1036 468.665 61.4973C473.013 64.294 477.209 67.385 481.38 70.6527C482.143 71.2709 482.905 71.8597 483.643 72.4779L484.024 72.7723C506.3 91.2009 525.525 115.282 547.216 135.006C588.032 172.222 638.07 193.33 690 195.237C637.184 205.57 583.198 188.289 533.637 163.826C516.065 155.142 498.773 145.545 481.532 135.859C481.074 135.624 480.617 135.359 480.159 135.094C479.701 134.829 479.116 134.535 478.608 134.24C448.169 117.107 417.654 99.7969 385.97 86.8145C378.57 83.8706 371.017 80.9268 363.414 77.9829C358.964 76.2755 354.488 74.5386 350.064 72.7134C349.428 72.4779 348.818 72.2129 348.207 71.9774C318.328 59.7015 289.72 44.4523 271.589 13.8362C269.043 9.36339 266.692 4.74553 264.545 0L357.209 -4.68911e-06C359.142 2.09014 361.125 4.15084 363.16 6.06435C376.408 18.5463 391.666 26.4948 407.483 33.3245Z" fill="#FAA017"/>
<path d="M305.206 107.804C317.005 123.937 329.338 140.187 344.698 150.726C360.464 161.736 378.696 166.505 394.615 177.221C411.83 188.702 425.588 206.424 440.159 222.527C445.244 228.09 450.33 233.478 455.619 238.688C457.705 240.749 459.79 242.78 461.926 244.782L462.638 245.459C463.909 246.666 465.181 247.873 466.478 249.051C467.775 250.228 469.58 251.995 471.131 253.231L473.394 255.262L474.717 256.381L476.319 257.765C479.65 260.708 482.981 263.387 486.49 266.066L488.321 267.538L489.796 268.686C493.839 271.836 497.908 274.898 502.053 277.871L506.656 281.051C521.074 291.082 536.079 299.935 551.564 307.545C552.962 308.252 554.361 308.929 555.759 309.606C554.488 309.076 553.216 308.546 551.945 307.987C537.221 301.805 522.447 295.593 507.775 289.176L500.527 285.996L491.83 282.11C490.966 281.728 490.101 281.316 489.288 280.933C487.66 280.197 486.007 279.461 484.354 278.695C478.879 276.124 473.403 273.504 467.927 270.835L464.774 269.305C461.595 267.803 458.442 266.361 455.289 264.712C453.407 263.8 451.551 262.858 449.694 261.945L446.948 260.561C446.16 260.179 445.371 259.766 444.609 259.384C433.522 253.732 422.502 247.844 411.551 241.721L407.558 239.424L405.015 237.952C394.666 231.859 384.443 225.47 374.5 218.67C371.068 216.344 367.685 214.019 364.329 211.605C361.557 209.662 358.836 207.66 356.115 205.717C323.52 181.897 293.957 152.924 268.283 119.639C248.525 93.9104 232.034 65.0553 219.307 33.9427C214.984 23.021 210.864 11.7755 207.177 0L235.149 -1.41548e-06C254.373 31.9409 273.928 63.558 295.187 93.8503C298.518 98.5311 301.824 103.182 305.206 107.804Z" fill="#FAA017"/>
<path d="M183.833 109.541C186.834 127.057 193.318 143.307 199.854 159.322C202.905 166.829 206.008 174.336 209.11 181.813C222.384 213.881 236.065 245.675 250.152 277.194C253.331 284.318 256.51 291.442 259.739 298.537C270.216 321.656 280.896 344.638 291.78 367.482C280.871 344.226 266.783 323.795 251.729 304.248C248.5 300.097 245.27 295.946 241.99 291.855C232.022 279.402 221.85 267.126 212.136 254.526C199.318 238.364 187.73 220.95 177.501 202.479C164.99 179.281 155.734 154.082 152.683 126.586C148.105 84.6361 159.167 42.1856 156.344 -2.42201e-07L178.01 -1.33856e-06C179.347 6.34966 180.34 12.7896 180.985 19.2823C183.884 49.2508 178.747 80.0436 183.833 109.541ZM193.42 206.541L194.081 210.722C194.559 213.649 195.954 216.27 197.997 218.081C199.001 218.916 200.14 219.506 201.347 219.815C202.554 220.124 203.802 220.145 205.016 219.877C207.489 219.251 209.648 217.515 211.017 215.049C212.387 212.472 212.911 209.411 212.492 206.424L211.831 202.243C211.353 199.316 209.958 196.695 207.915 194.884C206.914 194.042 205.775 193.449 204.567 193.14C203.359 192.831 202.11 192.813 200.896 193.088C198.423 193.714 196.264 195.45 194.895 197.916C193.525 200.493 193.001 203.554 193.42 206.541Z" fill="#FAA017"/>
<path d="M55.4668 187.347C48.3175 212.439 44.9625 238.771 45.5495 265.183C45.7471 279.617 46.8777 294.013 48.9315 308.252C46.6938 293.945 44.9985 279.853 43.8457 265.978C36.217 168.418 55.238 81.3684 91.0676 -2.474e-06L127.762 -4.33085e-06C118.938 30.8222 109.682 61.5267 97.2469 90.4355C83.3626 122.847 65.5876 153.081 55.4668 187.347Z" fill="#FAA017"/>
</g>
</svg>
