<svg width="829" height="460" viewBox="0 0 829 460" fill="none" xmlns="http://www.w3.org/2000/svg">
<g opacity="0.15">
<path d="M146 -1.0005C79.3786 129.714 44.0111 269.556 58.5269 426.28C43.8692 432.901 29.4007 439.853 15.2159 447.278C12.7099 448.602 10.2039 449.879 7.74518 451.203C2.44951 454.041 -2.79887 456.973 -7.99998 460L-8 -1.00049L146 -1.0005Z" fill="#2A4F77"/>
<path d="M486.219 33.9126C511.139 43.1652 537.139 50.4439 560.424 63.4283C565.698 66.3583 570.787 69.5967 575.845 73.0202C576.77 73.6679 577.696 74.2847 578.59 74.9324L579.053 75.2408C606.07 94.5478 629.387 119.777 655.695 140.441C705.2 179.431 765.889 201.545 828.872 203.543C764.814 214.369 699.336 196.265 639.225 170.635C617.914 161.537 596.941 151.482 576.03 141.335C575.475 141.088 574.92 140.811 574.365 140.533C573.81 140.256 573.1 139.947 572.483 139.639C535.566 121.689 498.555 103.554 460.126 89.9524C451.151 86.8682 441.991 83.784 432.769 80.6998C427.372 78.911 421.944 77.0913 416.577 75.1791C415.806 74.9324 415.066 74.6548 414.326 74.4081C378.087 61.547 343.389 45.5708 321.399 13.4952C318.311 8.80925 315.459 3.97126 312.856 -1.00049L425.244 -1.00049C427.588 1.18928 429.994 3.34822 432.461 5.35295C448.53 18.4299 467.035 26.7573 486.219 33.9126Z" fill="#F2AB3E"/>
<path d="M362.172 111.943C376.483 128.844 391.441 145.869 410.07 156.91C429.192 168.445 451.305 173.442 470.612 184.668C491.492 196.696 508.178 215.263 525.85 232.134C532.019 237.963 538.187 243.607 544.602 249.066C547.131 251.225 549.66 253.353 552.251 255.45L553.115 256.16C554.657 257.424 556.199 258.689 557.772 259.922C559.345 261.156 561.534 263.007 563.416 264.302L566.161 266.43L567.764 267.602L569.708 269.052C573.748 272.136 577.788 274.942 582.044 277.749L584.265 279.291L586.054 280.494C590.958 283.794 595.892 287.002 600.92 290.117L606.502 293.448C623.989 303.958 642.189 313.233 660.969 321.205C662.665 321.945 664.361 322.655 666.058 323.364C664.516 322.809 662.974 322.254 661.431 321.668C643.574 315.191 625.655 308.683 607.859 301.96L599.069 298.629L588.521 294.558C587.472 294.157 586.424 293.725 585.437 293.324C583.463 292.553 581.458 291.782 579.454 290.98C572.812 288.287 566.171 285.542 559.53 282.745L555.705 281.142C551.85 279.569 548.026 278.057 544.201 276.33C541.919 275.374 539.667 274.387 537.416 273.431L534.085 271.982C533.129 271.581 532.173 271.149 531.248 270.748C517.801 264.826 504.436 258.658 491.153 252.243L486.311 249.837L483.227 248.295C470.674 241.911 458.276 235.218 446.216 228.093C442.053 225.657 437.951 223.22 433.88 220.691C430.518 218.656 427.218 216.559 423.918 214.523C384.384 189.567 348.528 159.213 317.39 124.341C293.426 97.3865 273.425 67.1559 257.988 34.5603C252.745 23.1179 247.748 11.3363 243.276 -1.00049L277.203 -1.00049C300.519 32.463 324.236 65.5873 350.02 97.3236C354.061 102.227 358.07 107.101 362.172 111.943Z" fill="#F2AB3E"/>
<path d="M214.964 113.762C218.603 132.113 226.468 149.138 234.394 165.916C238.095 173.781 241.858 181.645 245.62 189.479C261.72 223.077 278.313 256.386 295.399 289.407C299.255 296.871 303.11 304.335 307.027 311.768C319.734 335.989 332.687 360.066 345.888 383.999C332.656 359.634 315.57 338.23 297.312 317.751C293.395 313.402 289.478 309.054 285.499 304.767C273.409 291.72 261.072 278.859 249.291 265.659C233.744 248.726 219.69 230.482 207.284 211.13C192.11 186.827 180.883 160.426 177.182 131.62C171.631 87.6701 185.047 43.196 181.623 -1.00049L207.901 -1.00049C209.522 5.65186 210.727 12.3988 211.509 19.201C215.025 50.5981 208.795 82.8588 214.964 113.762ZM226.591 215.387L227.393 219.766C227.973 222.833 229.664 225.579 232.143 227.477C233.359 228.352 234.742 228.97 236.205 229.293C237.669 229.616 239.183 229.639 240.655 229.358C243.655 228.702 246.273 226.883 247.934 224.3C249.596 221.6 250.231 218.393 249.722 215.263L248.921 210.884C248.341 207.816 246.649 205.071 244.171 203.173C242.957 202.292 241.575 201.67 240.111 201.346C238.646 201.022 237.131 201.004 235.659 201.292C232.658 201.948 230.041 203.767 228.38 206.35C226.718 209.05 226.083 212.257 226.591 215.387V215.387Z" fill="#F2AB3E"/>
<path d="M59.2735 195.278C50.6024 221.565 46.5332 249.152 47.2451 276.824C47.4849 291.946 48.856 307.028 51.3471 321.946C48.633 306.956 46.5769 292.193 45.1787 277.656C35.9261 175.446 58.9959 84.2466 102.452 -1.00049L146.957 -1.00049C136.255 31.291 125.029 63.4592 109.947 93.746C93.1071 127.703 71.5486 159.378 59.2735 195.278Z" fill="#F2AB3E"/>
</g>
</svg>
