<svg width="553" height="1077" viewBox="0 0 553 1077" fill="none" xmlns="http://www.w3.org/2000/svg">
<g opacity="0.15">
<path d="M550.576 335.044C550.576 349.231 531.206 350.132 528.614 337.855C504.456 347.474 480.079 355.425 464.311 362.87C437.1 375.651 409.407 388.608 379.693 391.595C335.77 395.988 292.572 378.177 248.978 371.303C242.609 381.259 236.313 391.339 230.091 401.544C225.889 408.469 221.702 415.394 217.529 422.319L217.529 422.517L216.87 423.615L210.282 434.596C204.176 444.845 198.137 455.093 192.163 465.342L192.471 465.342C192.471 466.264 193.986 465.759 194.557 466.682C193.876 467.363 193.547 466.813 192.954 466.682C193.108 466.682 193.349 466.682 193.218 466.374C193.086 466.067 192.515 466.77 192.339 466.374L192.054 467.055C191.439 466.66 192.778 466.177 192.054 465.825L191.043 467.604C191.21 467.677 191.365 467.773 191.505 467.89C191.878 467.253 192.69 466.989 193.064 467.692C192.712 467.472 192.032 467.692 192.295 468.219L193.723 468.219C193.459 468.439 192.559 467.956 192.866 468.68C193.327 468.68 193.569 469.449 194.14 468.68C194.799 468.307 194.338 467.143 194.777 466.967C194.645 467.121 195.523 467.121 195.787 466.835C195.919 467.143 195.787 467.714 196.27 467.78C196.753 467.846 196.556 467.077 196.6 466.967C196.819 468.131 198.357 466.506 198.444 467.912C198.444 467.363 198.818 467.648 199.125 467.56C199.165 467.48 199.226 467.412 199.301 467.363C199.292 467.408 199.27 467.45 199.24 467.485C199.209 467.52 199.169 467.546 199.125 467.56C198.796 468.131 199.718 469.076 198.642 469.361C198.642 469.163 198.642 468.988 198.862 468.79C198.713 468.779 198.565 468.813 198.435 468.888C198.306 468.962 198.202 469.073 198.137 469.207C198.495 469.796 198.72 470.455 198.796 471.14C198.444 471.294 198.532 470.569 198.4 470.239C197.61 470.239 198.401 471.228 198.027 471.645C198.269 472.128 199.037 472.392 198.796 472.875C199.14 472.626 199.415 472.294 199.596 471.91C199.776 471.526 199.856 471.102 199.828 470.679C200.619 470.152 202.024 469.493 202.354 469.207C202.683 469.756 203.737 469.405 203.583 470.239C203.242 470.297 202.909 470.401 202.595 470.547C202.881 471.206 203.715 470.547 204.132 470.196C204.132 470.547 204.132 471.074 204.572 470.876C204.725 470.042 205.187 469.932 205.889 469.822C207.075 469.822 206.351 471.469 207.427 470.811L207.427 470.261C208.481 470.679 208.327 470.745 209.293 471.689L209.645 471.052C209.798 471.843 210.369 471.052 210.677 471.469C210.479 471.667 210.37 471.996 210.172 472.172L210.831 472.282C210.633 472.458 210.348 473.16 210.831 473.358C210.479 473.6 209.535 474.478 210.106 474.632C210.124 474.53 210.165 474.434 210.225 474.351C210.286 474.267 210.364 474.198 210.455 474.15C210.546 474.101 210.647 474.074 210.75 474.07C210.853 474.066 210.956 474.085 211.05 474.127C210.479 474.478 211.05 474.873 211.248 475.203C211.687 474.917 211.248 474.939 211.248 474.544L212.017 474.412C211.621 474.786 212.346 474.851 212.324 475.159C212.719 474.698 213.554 473.666 213.334 472.963L212.917 473.709L212.654 472.677C213.949 472.414 214.476 473.929 215.882 474.28C216.145 474.851 215.333 475.576 216.387 475.313C216.607 475.137 216.98 474.588 216.672 474.236C217.046 474.566 217.068 475.993 217.836 475.378C217.968 475.62 217.836 476.586 217.419 476.521C217.59 476.731 217.738 476.959 217.858 477.201C218.935 477.026 219.044 475.928 220.055 476.059C219.923 475.73 220.56 475.269 220.055 475.115L219.374 475.708C219.198 475.203 220.077 475.225 219.725 474.588C219.82 474.71 219.945 474.806 220.087 474.867C220.229 474.929 220.384 474.954 220.538 474.939C220.575 474.888 220.625 474.846 220.682 474.82C220.74 474.793 220.804 474.781 220.867 474.786C220.777 474.871 220.661 474.925 220.538 474.939C220.384 475.225 220.538 475.752 220.538 475.928C220.933 475.928 220.867 475.203 221.219 475.73C221.109 476.455 220.648 476.081 220.45 475.862C219.989 476.828 220.889 477.026 221.021 477.662C221.284 477.048 221.328 476.367 221.899 476.015C221.746 476.938 222.668 476.74 222.778 477.377C223.129 477.048 223.393 476.828 223.173 476.433C223.459 476.433 223.634 476.828 223.524 477.07C223.964 476.696 224.513 477.948 224.952 477.267C224.732 477.794 225.194 477.948 225.347 478.321C226.248 476.784 226.797 479.244 227.346 478.805C227.236 479.046 226.972 478.98 226.863 479.222C226.847 479.298 226.852 479.376 226.876 479.449C226.9 479.523 226.944 479.589 227.002 479.64C227.06 479.691 227.13 479.726 227.206 479.741C227.282 479.757 227.36 479.752 227.434 479.727V479.727L227.697 480.298L228.071 479.749C228.356 480.474 227.06 481.616 227.741 482.296C228.642 482.472 228.466 481.023 229.081 480.561L229.41 481.396C229.762 480.276 230.355 481.857 230.486 480.737C231.145 480.935 230.486 481.791 230.882 482.099C231.343 481.616 231.387 482.67 231.914 482.538C231.857 482.554 231.804 482.582 231.758 482.619C231.713 482.657 231.676 482.704 231.65 482.758C232.485 483.46 233.473 481.484 233.693 483.526C233.495 483.79 233.275 483.526 233.188 483.834C233.649 483.724 234.198 484.558 234.395 483.504C234.549 484.317 233.868 484.119 234.527 484.602C234.198 485.042 233.956 484.954 233.671 485.173C233.385 485.393 234.11 485.832 234.11 485.832C233.997 485.872 233.896 485.939 233.816 486.027C233.736 486.115 233.678 486.222 233.649 486.337C233.912 486.337 234.176 486.206 234.483 486.074C234.578 485.93 234.628 485.762 234.628 485.591C234.628 485.419 234.578 485.251 234.483 485.107C234.703 485.107 234.483 485.657 234.857 485.437L235.098 484.558C235.603 484.734 235.098 485.722 235.911 485.481C235.757 485.481 235.713 485.744 235.581 485.898C235.845 486.864 237.316 485.898 237.382 486.579C236.548 487.326 237.756 487.304 237.163 488.028C238.107 487.15 238.063 489.478 238.81 488.38C239.556 488.38 239.007 490.224 239.688 490.137C239.987 491.311 239.987 492.542 239.688 493.716C239.315 493.87 238.7 493.563 238.744 494.222L238.92 494.331C238.92 494.441 238.48 494.99 238.063 494.88C237.712 494.265 238.063 493.782 237.36 493.167C236.284 493.431 236.065 492.179 235.164 491.894L235.296 491.894C235.054 490.554 234.373 492.487 233.912 491.235C233.715 491.015 233.078 490.532 232.551 490.752L233.231 490.466C230.523 489.037 227.509 488.283 224.447 488.27C224.495 488.228 224.533 488.176 224.557 488.116C224.337 488.116 223.964 487.875 223.898 488.402C223.898 488.402 223.898 488.402 224.008 488.533C223.437 488.533 222.492 488.995 222.47 489.675C222.317 488.885 221.811 490.049 221.702 489.324C221.482 489.039 222.075 489.324 222.185 488.929C222.053 487.831 220.911 488.929 220.538 488.665C220.713 488.314 221.57 488.226 221.131 487.545C219.813 489.456 217.639 487.545 216.08 489.017L215.948 488.402C214.696 488.929 213.488 488.006 212.105 487.809L210.721 486.777L211.006 486.162C210.172 487.589 208.986 485.964 207.866 486.359C206.702 486.074 204.967 485.656 204.747 484.163C205.692 484.053 204.945 484.756 205.758 484.888L206.131 483.878C205.604 484.493 205.714 483.373 205.516 483.175C204.989 483.768 204.33 483.175 203.759 483.922C203.759 483.922 203.759 483.702 203.869 483.68L203.43 483.878L203.43 483.57C202.793 483.57 202.288 484.251 201.717 484.207L202.375 483.438L201.98 483.438C201.431 483.438 200.86 484.778 200.135 484.207L200.135 483.878L199.674 483.878C199.674 483.548 200.311 483.878 200.377 483.373C199.85 483.856 198.95 483.372 198.708 483.636C199.037 482.538 197.39 483.438 197.544 482.274C198.313 482.143 197.39 481.857 197.544 481.374C197.171 481.374 196.885 481.176 196.534 481.506C196.447 481.558 196.38 481.637 196.343 481.731C196.305 481.825 196.3 481.929 196.327 482.026C196.355 482.124 196.414 482.209 196.495 482.27C196.575 482.331 196.674 482.363 196.775 482.362C196.076 482.758 195.263 482.905 194.469 482.78C193.657 481.857 192.273 481.769 191.329 481.22C191.329 481.11 191.527 481.045 191.636 480.803C191.197 480.496 190.89 481.023 190.407 480.935C190.604 479.881 189.177 479.529 188.715 479.639C188.254 479.749 188.715 480.144 188.342 480.166L188.474 479.156C188.32 479.156 187.881 479.31 187.771 479.639C187.464 480.078 186.937 479.419 186.849 480.232C186.125 479.836 185.294 479.682 184.477 479.793C185.355 479.793 185.114 479.046 185.992 479.441C185.992 479.441 185.992 479.573 185.86 479.595C186.124 480.144 186.256 479.134 186.453 479.332C186.124 478.717 185.487 478.98 185.004 478.673C168.84 506.893 153.313 535.509 138.995 564.74L139.851 564.015C139.851 564.894 140.576 564.125 140.773 564.894C140.356 565.684 140.246 565.223 139.961 565.201C139.961 565.201 140.158 565.069 140.137 564.872C140.115 564.674 139.719 565.399 139.697 564.872L139.126 565.245C138.863 564.96 139.588 564.257 139.126 564.081C138.665 563.905 138.555 565.443 138.314 565.794C138.314 566.102 138.511 565.97 138.643 566.167C138.885 565.509 139.324 565.091 139.434 565.706C139.28 565.553 138.929 565.86 138.995 566.343L139.719 566.146C139.566 566.387 139.17 566.146 139.236 566.76C139.478 566.563 139.522 567.353 139.873 566.541C140.246 566.058 140.137 565.047 140.378 564.762C140.378 564.938 140.729 564.762 140.883 564.454C140.883 564.718 140.773 565.311 141.059 565.267C141.344 565.223 141.257 564.542 141.3 564.411C141.3 565.487 142.223 563.642 142.135 564.982C142.135 564.476 142.355 564.652 142.508 564.52C142.289 565.113 142.662 565.86 142.091 566.343C142.111 566.139 142.163 565.939 142.245 565.75C142.135 565.75 141.937 566.014 141.85 566.277C141.975 566.839 142.027 567.415 142.003 567.99C141.806 568.21 142.003 567.507 141.893 567.222C141.476 567.331 141.762 568.166 141.564 568.649C141.366 569.132 142.003 569.154 141.828 569.659C142.241 568.994 142.497 568.243 142.574 567.463C143.014 566.804 143.738 565.926 143.98 565.596C143.98 566.036 144.661 565.596 144.507 566.343C144.304 566.472 144.126 566.636 143.98 566.826C143.98 567.397 144.529 566.629 144.77 566.189C144.77 566.519 144.77 567.024 144.924 566.76C145.1 565.926 145.341 565.728 145.715 565.509C146.088 565.289 145.715 566.98 146.374 566.167L146.374 565.618C146.857 565.838 146.791 565.926 147.186 566.629L147.428 565.948C147.428 566.695 147.779 565.816 147.911 566.167C148.043 566.519 147.691 566.717 147.582 566.936L147.911 566.936C147.911 567.156 147.603 567.859 147.911 567.968C147.713 568.276 147.142 569.308 147.428 569.33C147.428 568.825 147.779 568.605 147.933 568.671C147.625 569.11 147.933 569.374 147.933 569.659C148.174 569.308 147.933 569.418 147.933 569.044L148.35 568.759C148.087 569.198 148.46 569.132 148.35 569.418C148.745 568.69 148.991 567.891 149.075 567.068L148.789 567.859L148.789 566.914C149.47 566.409 149.58 567.771 150.261 567.837C150.261 568.32 149.866 569.176 150.415 568.737C150.622 568.411 150.715 568.024 150.678 567.639C150.832 567.88 150.678 569.242 151.139 568.517C151.139 568.715 150.986 569.681 150.81 569.703C150.895 569.877 150.954 570.062 150.986 570.252C151.535 569.901 151.71 568.803 152.237 568.737C152.237 568.43 152.545 567.88 152.237 567.859L151.82 568.539C151.82 568.1 152.237 567.946 152.106 567.419C152.215 567.617 152.369 567.683 152.479 567.595C152.479 567.881 152.479 568.364 152.347 568.561C152.215 568.759 152.589 567.793 152.699 568.232C152.808 568.671 152.391 568.671 152.303 568.517C151.974 569.528 152.413 569.528 152.413 570.121C152.533 569.516 152.74 568.931 153.028 568.386C152.874 569.286 153.357 568.935 153.335 569.506C153.555 569.132 153.709 568.869 153.621 568.539C153.533 568.21 153.819 568.825 153.753 569.066C154.016 568.627 154.17 569.725 154.455 569.066C154.28 569.593 154.455 569.659 154.455 569.989C155.07 568.342 155.092 570.604 155.422 569.989C155.422 570.252 155.224 570.208 155.136 570.472C155.048 570.735 155.136 571.043 155.378 570.867L155.378 571.35L155.619 570.757C155.619 571.416 154.917 572.734 155.202 573.261C155.641 573.261 155.685 571.899 156.059 571.35L156.059 572.075C156.344 570.955 156.498 572.339 156.674 571.241C156.981 571.241 156.674 572.251 156.674 572.492C156.959 571.921 156.871 572.932 157.157 572.69C157.086 572.765 157.034 572.855 157.003 572.954C157.354 573.459 158.057 571.394 157.947 573.305C157.838 573.59 157.75 573.305 157.684 573.7C157.925 573.503 158.123 574.183 158.321 573.151C158.321 573.898 157.991 573.832 158.321 574.183C158.123 574.645 157.991 574.623 157.838 574.886C157.684 575.15 157.991 575.435 157.991 575.435C157.842 575.593 157.742 575.792 157.706 576.006C157.838 576.006 157.991 575.765 158.145 575.589C158.247 575.298 158.247 574.98 158.145 574.689C158.277 574.557 158.145 575.172 158.299 574.908L158.518 574.03C158.76 574.03 158.387 575.15 158.826 574.754C158.826 574.754 158.716 575.062 158.628 575.216C158.628 576.094 159.507 574.842 159.463 575.545C158.98 576.402 159.594 576.138 159.221 576.951C159.792 575.918 159.529 578.158 160.012 576.951C160.385 576.951 160.012 578.686 160.297 578.466C160.308 579.626 160.183 580.783 159.924 581.914C159.726 582.134 159.441 581.914 159.397 582.573C159.397 582.705 159.133 583.297 158.914 583.276C158.914 582.748 158.914 582.243 158.738 581.76C158.167 582.221 158.167 581.057 157.728 580.97C157.728 579.74 157.201 581.716 157.091 580.596C157.091 580.442 156.739 580.091 156.454 580.399L156.827 580.003C156.22 579.562 155.509 579.284 154.763 579.195C154.017 579.107 153.261 579.211 152.567 579.498L152.567 579.322C152.435 579.322 152.281 579.322 152.193 579.718C152.193 579.718 152.193 579.718 152.193 579.828C151.953 579.977 151.748 580.18 151.596 580.419C151.444 580.659 151.348 580.929 151.315 581.211C151.315 580.486 150.942 581.694 150.942 581.035C150.942 580.794 151.139 580.904 151.227 580.552C151.227 579.52 150.59 580.86 150.436 580.552C150.283 580.245 150.986 579.937 150.832 579.366C149.975 581.453 149.075 580.069 148.131 581.76L148.131 581.167C147.45 581.914 146.945 581.167 146.242 581.343L145.649 580.618L145.847 579.981C145.297 581.497 144.858 580.179 144.243 580.75C143.694 580.75 142.838 580.64 142.882 579.213C143.387 578.927 142.882 579.74 143.321 579.696L143.606 578.664C143.299 579.344 143.453 578.246 143.387 578.093C143.057 578.773 142.772 578.334 142.421 579.147C142.398 579.068 142.398 578.984 142.421 578.905L142.179 579.169L142.179 578.861C141.85 578.971 141.542 579.74 141.257 579.806L141.652 578.949L141.454 579.081L141.454 578.971C141.169 579.103 140.773 580.464 140.444 580.069L140.444 579.74L140.202 579.74C140.202 579.41 140.532 579.74 140.598 579.147C140.29 579.696 139.895 579.366 139.741 579.696C140.005 578.576 139.082 579.696 139.28 578.62C139.675 578.334 139.28 578.246 139.412 577.741C139.214 577.873 139.082 577.741 138.885 578.071C138.687 578.4 138.885 578.905 138.885 578.839C138.749 579.052 138.573 579.235 138.365 579.379C138.158 579.522 137.924 579.622 137.677 579.674C137.347 578.949 136.667 579.125 136.227 578.795C136.307 578.64 136.373 578.479 136.425 578.312C136.227 578.137 136.03 578.686 135.788 578.708C135.986 577.653 135.305 577.587 135.063 577.763C134.822 577.939 135.063 578.268 134.822 578.356L134.998 577.346C134.803 577.507 134.659 577.721 134.58 577.961V577.961C134.383 578.444 134.185 577.961 134.053 578.708C133.834 578.4 133.307 578.554 132.889 578.708C133.35 578.554 133.307 577.851 133.702 578.071C133.702 578.071 133.702 578.202 133.702 578.246C133.702 578.729 133.943 577.719 134.031 577.873C133.921 577.28 133.482 577.873 133.263 577.412L132.582 577.983C132.845 576.973 133.065 577.456 133.241 576.292C132.845 576.292 133.526 574.754 132.845 575.26C132.714 575.721 132.56 576.467 132.67 576.577C132.648 576.775 132.583 576.966 132.481 577.136C132.379 577.307 132.241 577.453 132.077 577.566C131.879 577.346 131.637 577.368 131.33 577.566C125.474 589.908 119.873 602.353 114.529 614.9C114.947 615.032 115.452 613.626 115.803 614.9C115.496 614.746 115.188 614.285 114.881 614.9C114.573 615.515 115.32 615.954 114.683 616.042L115.144 616.899C115.276 616.679 115.693 616.372 115.342 616.042C115.737 616.042 116.22 616.042 116.396 615.339C116.22 616.064 116.616 616.284 116.989 616.481C117.362 616.679 117.56 615.471 117.121 615.603L117.824 615.076L117.714 614.944L118.241 615.164C118.065 615.581 117.538 614.988 117.538 615.669C117.714 615.844 118.065 615.669 117.955 615.976C118.166 615.858 118.344 615.69 118.474 615.487C118.604 615.284 118.683 615.053 118.702 614.812C118.592 614.593 118.395 614.944 118.395 614.637C119.185 613.648 118.658 615.537 119.449 615.142C119.339 615.515 119.449 615.647 119.668 615.779C119.998 615.515 119.559 615.339 119.668 615.01C119.888 615.01 120.064 615.295 120.305 615.12C120.108 614.878 120.152 614.746 120.152 614.153C120.964 613.846 120.701 615.713 121.316 615.757C121.591 615.539 121.931 615.421 122.282 615.421C122.632 615.421 122.973 615.539 123.248 615.757C122.699 615.976 122.633 615.427 122.018 615.603C122.018 616.284 121.337 616.503 121.908 616.965C122.765 616.306 123.753 616.965 124.302 616.547C124.434 615.054 123.424 617.404 123.687 615.625C123.973 615.998 124.742 615.625 124.654 616.284C124.654 615.735 125.291 616.481 125.488 615.844C125.137 616.02 125.488 615.515 125.378 615.339C125.269 615.164 125.73 615.801 125.818 615.515C125.763 615.917 125.674 616.314 125.554 616.701C125.796 616.921 126.015 616.064 126.367 616.174C125.993 616.877 126.784 616.767 126.718 617.118C127.004 616.591 126.872 615.713 127.333 615.669C127.135 615.998 126.894 616.394 127.333 616.591C127.113 617.953 126.257 616.899 126.191 617.755C126.367 617.931 127.004 617.536 126.696 618.26L127.069 617.799C127.311 618.897 127.86 618.282 128.453 618.546C128.914 618.546 129.09 617.25 128.673 617.184C129.222 616.877 129.002 616.525 129.507 616.657C129.397 616.833 129.507 617.03 129.507 617.206C129.924 617.492 129.749 616.437 129.99 616.635C130.232 616.833 129.99 616.986 130.1 617.162L130.473 616.394C130.693 617.008 130.232 617.36 129.946 617.579C130.298 617.997 130.715 617.184 130.935 617.579C130.803 617.865 130.671 617.579 130.627 617.997C131.396 618.128 131.396 617.228 132.077 617.008C131.923 616.328 131.528 617.228 131.198 617.008L131.198 615.91C131.198 616.042 131.44 616.635 131.594 615.91L131.44 615.427C131.681 615.427 131.879 616.284 132.318 615.757L132.538 616.789C132.318 617.645 132.033 616.789 131.681 617.426C131.989 617.909 130.825 618.172 131.374 618.765C131.703 618.765 131.989 619.095 132.296 618.656L132.099 618.414C132.801 618.568 133.372 617.843 134.009 617.953C134.317 617.536 133.899 617.162 133.856 616.986C133.812 616.811 133.021 617.426 133.131 616.745C133.68 616.591 134.295 617.118 134.624 616.745C134.649 616.655 134.694 616.572 134.756 616.503C134.73 616.592 134.685 616.675 134.624 616.745L134.624 616.877L134.91 616.679L134.91 616.833C135.129 616.965 135.481 617.294 135.744 617.008L135.569 616.525C136.14 616.525 136.93 616.02 137.062 616.899C137.369 617.074 137.479 616.394 137.94 616.24C137.94 617.953 136.711 617.382 136.337 618.743C137.194 618.743 138.16 617.865 138.907 617.601C138.709 617.338 139.258 617.052 139.06 616.481C139.06 617.008 139.697 616.613 139.653 617.03C139.094 617.461 138.618 617.989 138.248 618.59C139.038 619.095 138.072 619.314 138.907 619.688C139.17 619.688 138.907 618.787 139.39 618.831C139.39 618.831 139.39 617.931 139.082 618.37C138.973 617.557 139.895 617.843 139.873 616.855C140.143 617.024 140.359 617.267 140.495 617.555C140.631 617.843 140.682 618.164 140.642 618.48C141.081 618.041 140.751 617.404 140.795 617.074L142.245 616.284C142.377 617.184 143.475 616.437 144.002 617.25C143.497 618.019 143.189 617.536 142.728 617.514C142.838 617.514 143.014 617.382 142.904 617.162C142.794 616.943 142.355 617.689 142.179 617.162L142.003 617.887C141.476 617.579 142.53 616.899 141.872 616.679C141.432 616.811 141.235 618.063 140.905 618.414C141.125 618.743 141.301 618.612 141.542 618.831C141.806 618.128 142.443 617.755 142.794 618.37C142.704 618.326 142.602 618.313 142.504 618.332C142.406 618.351 142.316 618.402 142.249 618.476C142.182 618.551 142.142 618.645 142.133 618.745C142.124 618.844 142.148 618.944 142.201 619.029L143.365 618.831C143.145 619.095 142.421 618.831 142.706 619.446C143.057 619.27 143.299 620.083 143.738 619.27C144.221 618.787 143.738 617.733 144.134 617.47C144.134 617.645 144.748 617.47 144.946 617.162C145.078 617.448 144.946 618.063 145.407 618.019C145.868 617.975 145.561 617.272 145.605 617.162C145.869 618.26 146.989 616.415 147.164 617.777C147.032 617.25 147.45 617.448 147.669 617.316C147.45 617.931 148.262 618.721 147.406 619.183C147.386 618.969 147.432 618.754 147.538 618.568C147.34 618.568 147.054 618.831 146.989 619.095C147.331 619.635 147.556 620.241 147.647 620.874C147.362 621.093 147.406 620.369 147.274 620.061C146.615 620.061 147.274 621.049 147.054 621.511C147.296 621.95 147.911 622.06 147.757 622.587C148.29 621.934 148.543 621.097 148.46 620.259C149.053 619.622 150.063 618.765 150.393 618.414C150.7 618.875 151.535 618.414 151.447 619.205C151.168 619.327 150.909 619.49 150.678 619.688C150.942 620.281 151.578 619.512 151.886 619.073C151.886 619.402 151.886 619.929 152.281 619.666C152.28 619.373 152.38 619.088 152.564 618.86C152.748 618.632 153.005 618.475 153.292 618.414C154.258 618.194 153.775 619.951 154.587 619.117L154.587 618.568C155.444 618.809 155.334 618.897 156.168 619.666L156.41 618.985C156.586 619.732 156.981 618.831 157.267 619.227C157.135 619.424 157.069 619.776 156.915 619.995L157.442 619.995C157.288 620.215 157.113 620.94 157.442 621.071C157.179 621.379 156.454 622.389 156.937 622.433C156.932 622.34 156.948 622.248 156.985 622.162C157.021 622.077 157.076 622 157.145 621.939C157.215 621.878 157.298 621.833 157.387 621.808C157.477 621.784 157.571 621.779 157.662 621.796C157.223 622.213 157.772 622.521 157.903 622.806C158.233 622.455 157.903 622.565 157.903 622.169L158.518 621.906C158.211 622.345 158.804 622.279 158.804 622.587C159.287 621.885 159.526 621.044 159.485 620.193L159.199 621.005L158.914 620.039C159.946 619.556 160.451 620.94 161.637 621.071C161.878 621.576 161.264 622.433 162.098 621.994C162.252 621.774 162.537 621.181 162.252 620.874C162.581 621.137 162.691 622.543 163.262 621.796C163.394 622.016 163.262 623.004 162.998 623.004C163.164 623.181 163.305 623.381 163.416 623.597C164.272 623.246 164.294 622.125 165.151 622.082C165.019 621.774 165.502 621.225 165.019 621.181L164.492 621.884C164.338 621.401 165.041 621.269 164.711 620.72C164.793 620.817 164.901 620.887 165.022 620.922C165.143 620.957 165.272 620.956 165.392 620.918C165.282 621.225 165.392 621.73 165.392 621.906C165.722 621.906 165.634 621.137 165.941 621.598C165.941 622.323 165.502 622.038 165.326 621.862C165.019 622.894 165.766 622.916 165.897 623.531C166.095 622.872 166.073 622.191 166.512 621.774C166.512 622.696 167.193 622.345 167.325 622.938C167.566 622.565 167.786 622.301 167.567 621.972C167.786 621.796 167.962 622.257 167.896 622.521C168.225 622.082 168.752 623.224 169.06 622.521C168.906 623.07 169.301 623.136 169.433 623.487C170.07 621.818 170.663 624.146 171.08 623.619C171.08 623.882 170.795 623.838 170.729 624.102C170.663 624.366 170.992 624.695 171.212 624.519L171.454 625.024L171.717 624.431C172.003 625.09 171.036 626.43 171.717 626.979C172.464 626.979 172.222 625.617 172.684 625.046L172.991 625.815C173.211 624.673 173.804 626.101 173.826 625.002C174.375 625.002 173.826 626.013 174.243 626.276C174.594 625.705 174.682 626.737 175.099 626.518C175.099 626.518 174.924 626.65 174.902 626.781C175.626 627.308 176.285 625.222 176.593 627.177C176.461 627.484 176.263 627.177 176.219 627.572C176.571 627.396 177.076 628.099 177.164 627.045C177.339 627.814 176.79 627.726 177.339 628.099C177.12 628.582 176.9 628.538 176.702 628.802C176.696 628.927 176.732 629.051 176.803 629.154C176.875 629.258 176.978 629.334 177.098 629.373C177 629.435 176.917 629.519 176.857 629.618C176.796 629.717 176.758 629.828 176.746 629.944C176.966 629.944 177.164 629.724 177.405 629.548C177.48 629.402 177.52 629.241 177.52 629.076C177.52 628.912 177.48 628.75 177.405 628.604C177.581 628.494 177.405 629.131 177.735 628.868L177.866 627.967C178.284 627.967 177.866 629.109 178.569 628.736C178.459 628.736 178.437 629.021 178.35 629.197C178.613 630.098 179.755 628.846 179.843 629.57C179.228 630.427 180.194 630.207 179.843 631.02C180.568 629.988 180.678 632.272 181.205 631.02C181.798 631.02 181.468 632.799 182.039 632.579C182.337 633.734 182.397 634.937 182.215 636.115C181.929 636.335 181.424 636.115 181.49 636.752L181.644 636.752C181.644 636.884 181.336 637.477 180.985 637.433C180.678 636.884 180.831 636.379 180.304 635.873C179.47 636.313 179.206 635.127 178.437 634.995L178.547 634.995C178.262 633.743 177.845 635.742 177.383 634.6C177.23 634.424 176.659 634.051 176.263 634.358L176.768 633.963C174.579 633.089 172.184 632.868 169.872 633.326C169.919 633.274 169.956 633.215 169.982 633.15C169.785 633.15 169.477 633.018 169.455 633.524C169.455 633.524 169.455 633.523 169.455 633.655C169.14 633.733 168.857 633.909 168.648 634.158C168.439 634.406 168.314 634.715 168.291 635.039C168.116 634.27 167.786 635.522 167.632 634.841C167.457 634.578 167.94 634.687 168.006 634.358C167.83 633.304 166.996 634.622 166.666 634.358C166.776 633.963 167.479 633.743 167.061 633.15C166.139 635.346 164.25 633.787 163.086 635.456L162.955 634.863C161.966 635.61 160.934 634.863 159.814 634.863L158.628 634.073L158.826 633.436C158.211 634.973 157.157 633.567 156.278 634.138C155.334 634.138 153.884 633.963 153.621 632.469C154.368 632.206 153.819 633.018 154.477 633.018L154.719 631.942C154.346 632.645 154.346 631.525 154.192 631.349C153.797 632.052 153.226 631.591 152.808 632.403C152.774 632.319 152.774 632.224 152.808 632.14L152.479 632.403L152.479 632.096C151.952 632.096 151.578 632.974 151.117 633.018L151.6 632.162L151.293 632.294L151.293 632.162C150.854 632.294 150.48 633.655 149.866 633.238L149.866 632.909L149.492 632.909C149.492 632.557 149.997 632.909 150.019 632.294C149.624 632.865 148.877 632.513 148.702 632.821C148.899 631.701 147.625 632.821 147.669 631.679C148.284 631.437 147.516 631.305 147.669 630.8C147.362 630.932 147.12 630.8 146.857 631.108C146.593 631.415 146.857 631.964 147.12 631.92C146.619 632.392 145.963 632.665 145.276 632.689C144.573 631.942 143.453 632.074 142.64 631.701C142.64 631.591 142.794 631.503 142.86 631.24C142.486 631.02 142.267 631.591 141.872 631.591C141.872 630.515 140.795 630.405 140.422 630.581C140.049 630.756 140.422 631.108 140.159 631.196L140.159 630.163C140.049 630.163 139.675 630.427 139.631 630.778C139.39 631.24 138.929 630.778 138.907 631.503C138.28 631.248 137.579 631.248 136.952 631.503C137.677 631.371 137.435 630.647 138.16 630.888C138.16 630.888 138.16 631.02 138.16 631.064C138.402 631.569 138.445 630.559 138.621 630.712C138.27 630.098 137.655 630.712 137.216 630.185L136.205 630.756C136.381 629.724 136.908 630.229 136.908 629.043C136.249 629.043 136.908 627.462 135.986 627.945C135.876 628.406 135.788 629.175 135.986 629.307C135.986 629.944 135.437 630.119 135.217 630.295C134.251 629.636 132.779 630.844 131.55 630.471C131.649 630.409 131.726 630.316 131.769 630.207C129.971 630.066 128.165 630.066 126.367 630.207C126.103 629.988 126.367 629.395 126.367 629.043C125.796 629.175 125.554 630.471 124.917 630.054C124.676 628.341 123.292 630.581 123.138 628.999C122.875 629.614 122.611 629.395 122.304 629.219L122.611 628.802C121.162 628.011 120.261 629.966 118.944 629.175C118.944 628.802 118.944 628.428 118.746 628.341C118.494 628.518 118.203 628.633 117.897 628.675C117.591 628.717 117.28 628.685 116.989 628.582C116.704 628.582 117.297 628.143 116.989 627.923C116.242 629.175 115.957 627.528 115.232 628.538C115.122 628.033 114.815 627.879 114.442 627.967C114.815 627.286 115.979 626.496 115.298 625.53C115.54 626.035 116.023 623.992 116.44 624.959L116.44 624.234C116.001 624.08 115.737 624.959 115.298 624.497L115.518 624.322C115.342 624.322 115.122 623.136 114.749 624.322C114.376 625.508 114.881 625.508 114.156 625.859L114.376 625.002C114.156 624.673 113.936 625.134 113.739 625.2C114.024 624.673 114.859 624.453 114.595 623.641C114.068 623.948 113.431 623.531 113.234 624.695C113.563 624.695 113.234 625.068 113.08 625.486C113.08 625.288 113.08 625.2 112.926 625.112C112.772 625.024 112.926 625.617 112.663 625.793C113.014 627.616 114.222 625.222 114.573 626.847L114.42 626.847C114.42 627.177 114.134 627.66 114.288 627.748L113.541 628.297L113.541 627.748C113.102 627.879 112.531 627.418 112.201 628.363C112.201 628.187 112.443 627.374 111.894 627.594C111.894 628.099 111.433 628.846 111.037 628.626C110.708 627.989 110.049 628.977 109.852 628.143C110.155 628.117 110.44 627.991 110.663 627.784C110.886 627.577 111.033 627.301 111.081 627.001C110.685 626.979 110.291 627.087 109.961 627.308C103.636 642.681 97.7288 658.494 92.3922 674.438C92.3922 674.921 92.1286 675.712 92.6557 675.228C92.83 674.882 92.8767 674.486 92.7875 674.108C92.9851 674.328 93.0071 675.712 93.4024 674.921C93.4024 675.119 93.4024 676.107 93.2047 676.129C93.3049 676.303 93.386 676.487 93.4463 676.678C93.9954 676.261 94.0393 675.163 94.5663 675.009C94.5663 674.745 94.8079 674.13 94.5663 674.152L94.2369 674.877C94.1271 674.438 94.5883 674.24 94.3907 673.713C94.5224 673.911 94.6981 673.955 94.808 673.845C94.808 674.152 94.808 674.635 94.808 674.833C94.808 675.031 94.9617 674.043 95.1593 674.46C95.357 674.877 94.8738 674.943 94.764 674.789C94.5444 675.843 95.0276 675.799 95.0935 676.37C95.1365 675.752 95.2773 675.144 95.5107 674.57C95.5107 675.492 95.9279 675.075 95.9938 675.646C96.1695 675.25 96.3013 674.965 96.1696 674.657C96.0378 674.35 96.4111 674.899 96.3672 675.163C96.5868 674.701 96.8943 675.756 97.0919 675.009C97.0919 675.558 97.2457 675.58 97.3335 675.909C97.7508 674.196 98.1022 676.436 98.3657 675.909C98.3657 676.173 98.19 676.151 98.1461 676.414C98.1022 676.678 98.2998 676.963 98.4536 676.766L98.6073 677.249L98.783 676.634C98.9587 677.249 98.3438 678.698 98.783 679.16C99.2661 679.16 99.1124 677.754 99.3979 677.139L99.5956 677.864C99.7273 676.7 100.101 678.04 100.123 676.941C100.474 676.941 100.123 677.952 100.386 678.171C100.606 677.578 100.672 678.567 100.935 678.303C100.874 678.39 100.83 678.486 100.803 678.589C101.265 679.028 101.682 676.876 101.901 678.786C101.901 679.094 101.682 678.786 101.66 679.225C101.88 679.006 102.209 679.643 102.253 678.589C102.385 679.313 102.011 679.313 102.385 679.621C102.231 680.104 102.099 680.104 101.967 680.367C101.946 680.475 101.96 680.587 102.007 680.686C102.055 680.785 102.133 680.866 102.231 680.917C102.103 681.088 102.033 681.296 102.033 681.509C102.165 681.509 102.297 681.246 102.429 681.026C102.538 680.736 102.538 680.416 102.429 680.126C102.538 679.972 102.429 680.609 102.648 680.324L102.648 679.423C102.934 679.423 102.648 680.543 103.109 680.082C103.055 680.247 103.011 680.416 102.978 680.587C103.175 681.422 103.856 680.038 103.944 680.741C103.571 681.685 104.164 681.334 103.944 682.19C104.383 681.092 104.493 683.332 104.822 682.08C105.196 682.08 105.042 683.815 105.393 683.53C105.617 684.672 105.691 685.839 105.613 687C105.437 687.263 105.086 687.132 105.174 687.747C105.174 687.878 104.998 688.493 104.778 688.515C104.537 688.01 104.625 687.483 104.273 687.044C103.746 687.571 103.527 686.429 103.022 686.407C102.802 685.177 102.56 687.219 102.253 686.143C102.143 685.99 101.77 685.682 101.528 686.143L101.858 685.704C101.112 685.341 100.293 685.152 99.4638 685.152C98.6343 685.152 97.8158 685.341 97.07 685.704C97.0818 685.646 97.0818 685.586 97.07 685.528C97.07 685.528 96.7406 685.528 96.7406 685.968C96.4965 686.131 96.2979 686.354 96.1635 686.615C96.029 686.876 95.9631 687.167 95.9719 687.461C95.8621 686.714 95.6205 687.966 95.5327 687.307C95.4009 687.088 95.7303 687.154 95.7743 686.802C95.6645 685.77 95.1154 687.176 94.8958 686.956C94.6761 686.736 95.4229 686.275 95.1593 685.748C94.5225 687.944 93.3145 686.648 92.502 688.427L92.502 687.856C91.8431 688.669 91.1623 688.054 90.3058 688.208L89.5372 687.527L89.6909 686.89C89.2516 688.449 88.5928 687.176 87.9999 687.79L87.8901 687.79C86.0453 693.566 84.2884 699.342 82.5973 705.162C62.5904 774.297 53.1689 846.309 39.7943 917.245L38.235 925.414L37.0491 931.52L36.5659 934.001C35.6436 938.613 34.6993 943.21 33.7329 947.793L33.711 949.572L33.0741 952.625C31.8223 958.466 30.5046 964.286 29.1649 970.194L28.6379 972.522C25.8048 984.71 22.7302 997.141 19.1944 1009.37C12.8475 1031.8 5.35861 1054.24 0 1076.95L552.552 1076.95L552.552 897.677C513.219 887.838 474.699 864.01 449.487 838.095C428.931 816.968 408.265 795.687 391.486 771.091C378.002 751.325 366.867 728.156 367.768 703.757C368.668 679.928 381.252 660.426 386.874 638.004C392.497 615.581 391.267 591.116 389.246 568.078C387.621 549.762 382.175 531.644 383.8 513.328C385.732 491.366 397.526 471.953 408.968 453.527C413.031 446.938 417.291 440.35 421.947 434.069C430.732 422.275 441.075 412.107 454.406 407.715C465.489 403.841 477.423 403.081 488.908 405.519C491.916 396.976 503.842 396.185 508.519 403.147C521.502 391.081 536.377 381.228 552.552 373.982L552.552 327.599L549.192 329.137C550.139 330.959 550.615 332.99 550.576 335.044ZM421.398 393.045C421.398 377.869 443.601 377.891 443.601 393.045C443.601 408.198 421.398 408.22 421.398 393.045V393.045Z" fill="#FE747D"/>
<path d="M503.687 552.068C505.024 553.149 506.088 554.529 506.793 556.097C507.499 557.665 507.827 559.376 507.75 561.094C507.75 575.896 486.777 576.335 485.459 562.478C465.777 572.303 444.472 578.465 422.583 580.662C420.9 580.912 419.184 580.83 417.532 580.42C412.591 578.905 410.636 572.097 412.086 566.87C413.535 561.643 417.334 557.558 420.76 553.473C450.496 517.983 459.962 468.109 485.942 429.457C488.248 426.031 490.708 422.714 493.256 419.508C491.607 418.491 490.262 417.049 489.362 415.333C488.461 413.618 488.039 411.692 488.139 409.757C488.114 408.261 488.36 406.773 488.863 405.365C477.378 402.927 465.445 403.686 454.362 407.561C441.031 411.953 430.731 422.099 421.903 433.915C417.247 440.152 412.986 446.828 408.923 453.373C397.481 471.798 385.688 491.19 383.755 513.174C382.13 531.49 387.577 549.608 389.202 567.924C391.244 590.962 392.408 615.581 386.83 637.85C381.252 660.119 368.624 679.774 367.723 703.602C366.823 728.002 377.958 751.149 391.442 770.936C408.221 795.533 428.776 816.814 449.442 837.941C474.654 863.856 513.131 887.684 552.508 897.523L552.508 641.847C550.521 640.905 548.842 639.418 547.667 637.56C546.491 635.701 545.867 633.548 545.867 631.349C545.867 629.15 546.491 626.996 547.667 625.138C548.842 623.28 550.521 621.793 552.508 620.851L552.508 510.341C537.973 526.164 521.581 540.175 503.687 552.068Z" fill="#2A4F77"/>
<path d="M510.408 409.867C510.473 411.892 509.985 413.896 508.995 415.663C508.006 417.431 506.553 418.895 504.793 419.898C503.033 420.902 501.032 421.406 499.007 421.356C496.982 421.307 495.009 420.706 493.3 419.618C490.752 422.824 488.293 426.206 485.987 429.566C460.006 468.219 450.541 518.093 420.805 553.583C417.379 557.668 413.601 561.731 412.13 566.98C410.659 572.228 412.635 579.015 417.577 580.53C419.228 580.94 420.944 581.022 422.628 580.771C444.516 578.575 465.822 572.413 485.504 562.587C491.759 559.427 497.83 555.915 503.688 552.068C521.581 540.175 537.973 526.164 552.508 510.341L552.508 488.028C550.889 488.975 549.047 489.476 547.171 489.477C546.205 489.346 545.217 489.214 544.229 489.06C542.79 488.693 541.482 487.933 540.451 486.864C539.238 486.023 538.256 484.89 537.596 483.57C536.792 482.241 536.338 480.73 536.279 479.177C535.949 477.619 536.017 476.003 536.476 474.478L537.421 471.425C537.917 469.483 538.9 467.7 540.276 466.242L542.472 464.397C544.148 463.342 546.091 462.786 548.072 462.794C549.06 462.926 550.048 463.058 551.037 463.211C551.531 463.331 552.01 463.508 552.464 463.738L552.464 373.85C536.289 381.096 521.414 390.949 508.431 403.015C509.778 405.042 510.468 407.434 510.408 409.867ZM459.369 499.668C459.369 484.47 481.594 484.514 481.594 499.668C481.594 514.821 459.369 514.733 459.369 499.668Z" fill="#11BDCF"/>
<path d="M423.55 269.05C375.718 281.085 328.083 296.7 283.743 318.991C255.855 332.825 229.577 349.691 205.384 369.283C219.95 368.142 234.602 368.821 249 371.303C292.593 378.177 335.792 396.032 379.715 391.596C409.341 388.609 437.122 375.651 464.333 362.87C480.101 355.447 504.412 347.497 528.636 337.856C528.446 336.931 528.351 335.989 528.35 335.045C528.35 322.175 544.316 320.243 549.192 329.181L552.552 327.644L552.552 274.541C532.457 268.347 512.187 262.55 492.07 260.617C469.076 258.421 446.039 263.406 423.55 269.05ZM508.827 288.816C508.827 304.013 486.602 303.991 486.602 288.816C486.602 273.64 508.827 273.596 508.827 288.75L508.827 288.816Z" fill="#11BDCF"/>
<path d="M506.916 100.231C494.554 92.4769 481.206 86.4198 467.231 82.2226C423.308 68.7602 372.599 70.8026 331.377 83.1669C320.155 86.5271 307.087 90.4582 297.644 83.1669C320.967 116.109 359.685 131.482 396.251 145.384L398.447 146.175L426.58 156.87C433.564 159.52 440.555 162.185 447.553 164.864C467.077 172.353 486.579 179.886 505.883 187.506C523.167 194.314 537.596 202.396 552.639 208.941L552.639 181.708C550.94 182.251 549.137 182.386 547.376 182.1C545.616 181.815 543.947 181.118 542.506 180.066C541.066 179.014 539.894 177.637 539.086 176.047C538.278 174.457 537.857 172.698 537.857 170.914C537.857 169.131 538.278 167.372 539.086 165.782C539.894 164.191 541.066 162.814 542.506 161.762C543.947 160.71 545.616 160.013 547.376 159.728C549.137 159.443 550.94 159.577 552.639 160.12L552.639 141.189C538.826 125.838 522.86 110.399 506.916 100.231ZM410.768 85.9561C410.768 70.7587 432.971 70.7807 432.971 85.9561C432.971 101.132 410.768 101.11 410.768 85.9561V85.9561ZM475.137 113.43C475.137 98.2325 497.362 98.2765 497.362 113.43C497.362 128.583 475.137 128.583 475.137 113.43Z" fill="#11BDCF"/>
<path d="M504.851 5.07257C499.434 3.60846 493.98 2.2322 488.49 0.943788C493.585 2.12971 497.823 5.79733 501.667 10.3873C507.75 17.7664 512.647 27.5392 517.94 33.2712C522.699 38.3168 527.928 42.8981 533.555 46.9532C535.271 46.0655 537.192 45.6466 539.122 45.7387C541.053 45.8309 542.925 46.4309 544.549 47.4781C546.173 48.5253 547.492 49.9825 548.373 51.7028C549.254 53.423 549.665 55.3452 549.565 57.2752L549.565 58.1975L552.596 60.3937L552.596 20.9947L549.323 19.677C534.76 14.0487 519.916 9.17416 504.851 5.07257Z" fill="#11BDCF"/>
</g>
</svg>
