<svg width="523" height="333" viewBox="0 0 523 333" fill="none" xmlns="http://www.w3.org/2000/svg">
<path d="M523 0H1V333H523V0Z" fill="#F2AB3E"/>
<g opacity="0.5">
<path fill-rule="evenodd" clip-rule="evenodd" d="M104.295 100.704C106.623 97.3861 110.943 88.9605 114.22 87.775C116.33 87.0114 115.715 94.9099 115.741 96.4159C115.842 102.243 115.275 108.032 114.574 113.81C113.311 124.23 109.182 133.51 103.519 142.379C100.605 146.943 97.1872 151.561 92.4531 154.409C90.274 155.72 87.6519 155.94 85.4999 157.069C82.9936 158.385 84.3585 157.321 83.229 159.932C81.6604 163.556 81.1587 168.231 80.433 172.098C77.1006 189.85 69.0332 283.692 70.4317 301.75C70.556 303.35 68.3231 303.733 68.2116 301.779C67.6192 291.419 72.7459 219.676 75.3324 196.213C77.9189 172.751 80.5364 152.024 83.1609 143.906C86.3448 134.059 92.0951 122.216 96.8818 113.032C99.1052 108.766 101.529 104.646 104.295 100.704Z" fill="#DBF5F8"/>
<path fill-rule="evenodd" clip-rule="evenodd" d="M121.574 215.775C127.632 211.33 134.189 219.719 128.707 224.165C125.677 226.622 122.509 225.748 120.725 223.7C119.568 225.111 118.484 226.586 117.443 227.831C114.27 231.627 111.272 235.514 108.406 239.491C102.454 247.754 97.3521 256.483 92.0181 265.052C86.7542 273.51 81.5324 282.011 76.7613 290.683C72.7195 298.031 67.3323 306.674 65.9485 314.729C68.0481 297.646 76.015 281.226 85.5023 266.167C94.9123 251.23 105.711 234.919 120.282 223.131C118.799 220.952 118.758 217.841 121.574 215.775Z" fill="#DBF5F8"/>
<path fill-rule="evenodd" clip-rule="evenodd" d="M6.62643 174.113C10.0163 174.776 15.5552 182.44 18.3494 185.36C21.6702 188.83 24.683 192.529 27.5228 196.405C33.6365 204.746 39.1041 213.615 43.7534 222.864C51.333 237.941 57.4053 253.418 61.8122 269.836C64.5098 279.886 66.2564 290.303 67.2915 300.646C67.487 302.597 69.5333 317.637 66.5847 318.043C63.9327 318.408 64.7518 306.622 64.6239 305.019C63.1776 286.933 58.8452 269.336 52.8188 252.289C51.5061 248.576 50.2867 244.027 48.1874 240.686C46.6757 238.278 48.1766 239.118 45.5199 238.207C43.2388 237.424 40.6397 237.616 38.3037 236.657C33.2291 234.577 29.1657 230.54 25.6039 226.478C18.6821 218.585 13.1969 210.045 10.3377 199.931C8.75158 194.323 7.29404 188.682 6.4852 182.901C6.27597 181.406 4.44306 173.686 6.62643 174.113Z" fill="#DBF5F8"/>
<path fill-rule="evenodd" clip-rule="evenodd" d="M20.0036 46.5942C32.7724 68.7269 43.2652 93.0391 50.0405 117.664C54.1456 132.583 57.0163 147.893 59.8687 163.093C64.285 186.627 68.4624 210.159 69.6506 234.111C70.8461 258.202 73.21 285.989 65.3174 309.192C69.2598 285.634 65.5063 260.559 64.8418 236.855C64.5242 225.539 63.6039 214.333 62.3966 203.084C61.225 192.171 59.3111 181.31 57.5287 170.483C56.6605 165.21 55.7487 159.945 54.8203 154.682C54.5432 153.112 54.4261 148.454 53.4297 147.381C52.4268 146.302 47.31 145.861 45.7035 145.069C42.4687 143.474 39.4259 141.208 36.733 138.813C31.5705 134.223 27.0795 128.225 23.5348 122.312C15.3333 108.632 12.0543 91.9366 12.2201 76.0928C12.2519 73.0167 17.2017 39.8914 15.2138 39.4352C15.3334 39.2951 15.4467 39.1505 15.5534 39C17.0584 41.5185 18.5353 44.0541 20.0036 46.5942Z" fill="#DBF5F8"/>
<path fill-rule="evenodd" clip-rule="evenodd" d="M157.821 126.418C158.018 126.134 159.3 124.159 158.655 124.285C159.969 124.028 156.846 126.463 160.122 124.969C158.567 126.437 159.464 128.344 159.485 130.32C159.519 133.528 158.982 136.71 158.377 139.85C157.422 144.812 155.999 149.637 153.933 154.252C149.431 164.31 141.787 173.993 132.711 180.282C128.231 183.386 123.84 184.443 118.73 185.873C115.502 186.776 115.246 188.445 113.533 191.575C109.966 198.095 106.463 204.591 103.317 211.331C99.5612 219.38 95.9149 227.437 92.4755 235.627C80.8885 263.214 71.4578 291.795 66.5051 321.373C66.3838 303.943 70.4182 285.991 75.5072 269.377C79.2141 257.272 84.04 245.603 89.1872 234.053C90.4344 231.255 92.3246 227.655 92.8542 224.566C93.2251 222.401 92.0912 220.32 91.5721 218.04C89.5481 209.16 89.693 199.212 91.4703 190.285C93.43 180.442 99.0972 175.873 108.684 174.478C112.19 173.968 116.646 174.155 119.861 172.661C123.364 171.034 124.809 165.686 126.801 162.253C132.15 153.031 138.506 144.186 145.805 136.416C147.826 134.264 149.999 132.279 152.305 130.439C153.759 129.278 156.83 127.848 157.821 126.418Z" fill="#DBF5F8"/>
<path opacity="0.5" fill-rule="evenodd" clip-rule="evenodd" d="M50.322 302.548H84.3448C85.8745 302.548 87.1146 303.788 87.1146 305.317C87.1146 305.452 87.1047 305.587 87.085 305.721L84.4553 323.542C83.6537 328.975 78.9892 333 73.4946 333H61.1722C55.6776 333 51.0131 328.975 50.2115 323.542L47.5818 305.721C47.3586 304.208 48.4045 302.801 49.9179 302.578C50.0517 302.558 50.1868 302.548 50.322 302.548Z" fill="#11BDCF"/>
</g>
<g style="mix-blend-mode:multiply" opacity="0.25">
<path d="M426.91 -4.86249e-06C468.479 94.4206 490.547 195.434 481.49 308.643C490.636 313.426 499.663 318.447 508.514 323.811C510.078 324.767 511.641 325.69 513.176 326.646C516.48 328.696 519.755 330.814 523 333L523 0L426.91 -4.86249e-06Z" fill="#2A4F77"/>
<path d="M214.627 25.2192C199.078 31.9027 182.855 37.1605 168.326 46.5397C165.035 48.6561 161.859 50.9954 158.703 53.4683C158.126 53.9361 157.549 54.3817 156.991 54.8495L156.702 55.0723C139.844 69.0186 125.296 87.2424 108.88 102.169C77.9914 130.334 40.1238 146.307 0.824335 147.751C40.7945 155.57 81.6498 142.493 119.157 123.98C132.454 117.407 145.54 110.145 158.588 102.815C158.934 102.637 159.281 102.436 159.627 102.236C159.974 102.035 160.416 101.813 160.801 101.59C183.836 88.6237 206.929 75.524 230.908 65.6992C236.508 63.4713 242.223 61.2435 247.977 59.0156C251.345 57.7235 254.732 56.409 258.08 55.0278C258.561 54.8496 259.023 54.649 259.485 54.4708C282.097 45.1807 303.747 33.6405 317.468 10.4709C319.395 7.08599 321.174 3.59131 322.798 0L252.673 -3.54861e-06C251.21 1.58177 249.709 3.14126 248.17 4.58936C238.143 14.0354 226.597 20.0506 214.627 25.2192Z" fill="#F2AB3E"/>
<path d="M292.027 81.5837C283.098 93.7923 273.764 106.09 262.141 114.066C250.209 122.398 236.411 126.007 224.365 134.116C211.336 142.805 200.925 156.217 189.898 168.403C186.049 172.613 182.201 176.69 178.198 180.634C176.62 182.193 175.042 183.73 173.425 185.245L172.886 185.758C171.924 186.671 170.962 187.585 169.981 188.476C168.999 189.367 167.633 190.704 166.459 191.639L164.746 193.176L163.745 194.023L162.533 195.07C160.012 197.298 157.491 199.325 154.835 201.353L153.45 202.467L152.334 203.335C149.274 205.719 146.195 208.036 143.058 210.286L139.575 212.692C128.664 220.284 117.308 226.984 105.59 232.743C104.531 233.278 103.473 233.79 102.414 234.303C103.377 233.902 104.339 233.5 105.301 233.077C116.443 228.399 127.624 223.698 138.728 218.841L144.213 216.435L150.794 213.494C151.448 213.205 152.103 212.893 152.719 212.603C153.95 212.046 155.201 211.489 156.452 210.91C160.596 208.964 164.74 206.982 168.884 204.962L171.27 203.803C173.675 202.667 176.062 201.575 178.448 200.328C179.872 199.637 181.277 198.924 182.682 198.234L184.76 197.187C185.357 196.897 185.953 196.585 186.531 196.295C194.921 192.018 203.26 187.562 211.548 182.928L214.569 181.191L216.494 180.077C224.326 175.465 232.062 170.631 239.587 165.484C242.185 163.724 244.744 161.964 247.284 160.138C249.382 158.667 251.441 157.152 253.5 155.682C278.168 137.655 300.54 115.729 319.97 90.5396C334.922 71.0692 347.402 49.2323 357.034 25.6871C360.305 17.4218 363.423 8.91138 366.213 0L345.045 -1.0712e-06C330.496 24.1721 315.697 48.0992 299.609 71.0237C297.088 74.566 294.587 78.086 292.027 81.5837Z" fill="#F2AB3E"/>
<path d="M383.88 82.8981C381.609 96.1538 376.701 108.452 371.756 120.571C369.446 126.252 367.099 131.933 364.751 137.592C354.705 161.86 344.352 185.921 333.691 209.774C331.285 215.165 328.88 220.557 326.436 225.926C318.507 243.422 310.425 260.814 302.188 278.102C310.444 260.502 321.105 245.041 332.498 230.248C334.942 227.107 337.386 223.965 339.868 220.869C347.412 211.445 355.109 202.155 362.461 192.62C372.161 180.388 380.931 167.21 388.671 153.231C398.139 135.676 405.144 116.605 407.454 95.7974C410.918 64.0506 402.546 31.925 404.682 -1.83292e-07L388.286 -1.01299e-06C387.275 4.80528 386.523 9.67885 386.035 14.5924C383.841 37.2719 387.728 60.5751 383.88 82.8981ZM376.624 156.306L376.124 159.469C375.762 161.685 374.707 163.668 373.161 165.039C372.401 165.671 371.539 166.117 370.626 166.351C369.712 166.584 368.768 166.6 367.849 166.398C365.977 165.924 364.344 164.61 363.308 162.744C362.27 160.794 361.874 158.477 362.191 156.217L362.692 153.053C363.053 150.837 364.109 148.854 365.655 147.483C366.412 146.847 367.275 146.397 368.189 146.164C369.103 145.93 370.048 145.916 370.967 146.124C372.839 146.598 374.472 147.912 375.508 149.778C376.545 151.728 376.942 154.045 376.624 156.306Z" fill="#F2AB3E"/>
<path d="M481.024 141.78C486.434 160.769 488.973 180.696 488.529 200.684C488.38 211.608 487.524 222.502 485.97 233.278C487.663 222.45 488.946 211.786 489.818 201.286C495.592 127.455 481.197 61.5777 454.082 -1.87226e-06L426.313 -3.27749e-06C432.99 23.3255 439.995 46.562 449.406 68.4394C459.913 92.968 473.365 115.848 481.024 141.78Z" fill="#F2AB3E"/>
</g>
<path opacity="0.2" d="M97.7097 2H427.839V331H97.7097V2Z" fill="#353535"/>
<path opacity="0.5" d="M147.839 32.7173H378.161V300.733H147.839V32.7173Z" fill="#2A4F77"/>
<path d="M67 49.2573H190.29V285.543H67V49.2573Z" fill="url(#paint0_linear)"/>
<path d="M335.71 50.1572H459V286.443H335.71V50.1572Z" fill="url(#paint1_linear)"/>
<path d="M71.0645 52.8579H186.226V280.593H71.0645V52.8579Z" fill="#2A4F77"/>
<path d="M454.935 280.592H339.774V52.8577H454.935V280.592Z" fill="#2A4F77"/>
<path d="M358.742 73.561H435.968V87.5132H358.742V73.561Z" fill="url(#paint2_linear)"/>
<path d="M89.5807 94.7144H166.806V108.666H89.5807V94.7144Z" fill="url(#paint3_linear)"/>
<path d="M90.0322 116.317H167.258V130.27H90.0322V116.317Z" fill="url(#paint4_linear)"/>
<path d="M90.0322 137.921H167.258V151.873H90.0322V137.921Z" fill="url(#paint5_linear)"/>
<path d="M90.0322 159.524H167.258V173.476H90.0322V159.524Z" fill="url(#paint6_linear)"/>
<path d="M90.0322 181.127H167.258V195.079H90.0322V181.127Z" fill="url(#paint7_linear)"/>
<path d="M90.0322 202.73H167.258V216.683H90.0322V202.73Z" fill="url(#paint8_linear)"/>
<path d="M90.0322 224.334H167.258V238.286H90.0322V224.334Z" fill="url(#paint9_linear)"/>
<path d="M90.0322 245.937H167.258V259.889H90.0322V245.937Z" fill="url(#paint10_linear)"/>
<path d="M90.0322 73.561H167.258V87.5132H90.0322V73.561Z" fill="url(#paint11_linear)"/>
<path d="M358.742 95.6143H435.968V109.566H358.742V95.6143Z" fill="url(#paint12_linear)"/>
<path d="M358.742 116.768H435.968V130.72H358.742V116.768Z" fill="url(#paint13_linear)"/>
<path d="M358.742 137.921H435.968V151.873H358.742V137.921Z" fill="url(#paint14_linear)"/>
<path d="M358.742 159.524H435.968V173.476H358.742V159.524Z" fill="url(#paint15_linear)"/>
<path d="M358.742 181.127H435.968V195.079H358.742V181.127Z" fill="url(#paint16_linear)"/>
<path d="M360.097 75.3613H434.161V86.163H360.097V75.3613Z" fill="white"/>
<path d="M360.323 96.5142H434.387V107.316H360.323V96.5142Z" fill="#11BDCF"/>
<path d="M360.323 118.118H434.387V128.919H360.323V118.118Z" fill="white"/>
<path d="M360.323 139.721H434.387V150.522H360.323V139.721Z" fill="#11BDCF"/>
<path d="M360.323 161.324H434.387V172.126H360.323V161.324Z" fill="white"/>
<path d="M360.323 182.928H434.387V193.729H360.323V182.928Z" fill="#11BDCF"/>
<path d="M358.742 202.73H435.968V216.683H358.742V202.73Z" fill="url(#paint17_linear)"/>
<path d="M360.323 204.531H434.387V215.332H360.323V204.531Z" fill="white"/>
<path d="M360.323 204.531H434.387V215.332H360.323V204.531Z" fill="white"/>
<path d="M360.323 226.134H434.387V236.936H360.323V226.134Z" fill="#11BDCF"/>
<path d="M360.323 247.737H434.387V258.539H360.323V247.737Z" fill="white"/>
<path d="M91.3871 74.9111H165.452V85.7128H91.3871V74.9111Z" fill="white"/>
<path d="M91.3871 96.5142H165.452V107.316H91.3871V96.5142Z" fill="#11BDCF"/>
<path d="M91.3871 118.118H165.452V128.919H91.3871V118.118Z" fill="white"/>
<path d="M91.3871 139.721H165.452V150.522H91.3871V139.721Z" fill="#11BDCF"/>
<path d="M91.3871 161.324H165.452V172.126H91.3871V161.324Z" fill="white"/>
<path d="M91.3871 182.928H165.452V193.729H91.3871V182.928Z" fill="#11BDCF"/>
<path d="M91.3871 204.531H165.452V215.332H91.3871V204.531Z" fill="white"/>
<path d="M91.3871 226.134H165.452V236.936H91.3871V226.134Z" fill="#11BDCF"/>
<path d="M91.3871 247.737H165.452V258.539H91.3871V247.737Z" fill="white"/>
<path d="M127.064 292.294H399.387V309.397H127.064V292.294Z" fill="url(#paint18_linear)"/>
<path d="M128.871 294.094H397.129V307.596H128.871V294.094Z" fill="#2A4F77"/>
<path d="M126.613 24.5034H398.484V42.0561H126.613V24.5034Z" fill="url(#paint19_linear)"/>
<path d="M128.871 25.8535H397.129V39.3556H128.871V25.8535Z" fill="#2A4F77"/>
<path opacity="0.5" d="M196.613 52.8579H328.484V280.593H196.613V52.8579Z" fill="#263238"/>
<path d="M161.089 151.895C157.928 156.117 162.661 161.103 162.661 161.103L161.866 161.378C163.035 162.67 167.656 168.498 185.467 194.863C208.274 228.618 239.006 237.039 239.006 237.039C242.74 234.131 246.988 231.947 251.529 230.598V227.412C245.726 225.706 240.424 222.626 236.075 218.435C231.726 214.243 228.459 209.065 226.555 203.342C223.836 197.978 222.422 192.051 222.427 186.042C222.427 164.438 240.388 146.913 262.539 146.913C284.691 146.913 302.652 164.434 302.652 186.042C302.657 192.051 301.243 197.978 298.524 203.342C296.619 209.065 293.353 214.243 289.004 218.435C284.655 222.626 279.353 225.706 273.55 227.412V230.598C278.091 231.947 282.339 234.131 286.073 237.039C286.073 237.039 316.819 228.609 339.625 194.854C357.437 168.489 362.057 162.656 363.226 161.369L362.432 161.094C362.432 161.094 367.151 156.108 364.003 151.886C360.855 147.664 384.845 142.678 382.095 151.886C379.345 161.094 375.804 165.699 375.804 165.699C375.804 165.699 325.585 244.632 299.368 257.675C299.988 260.349 300.3 263.085 300.299 265.83V281.177H224.798V265.83C224.797 263.085 225.109 260.349 225.728 257.675C199.535 244.623 149.293 165.703 149.293 165.703C149.293 165.703 145.752 161.099 143.002 151.89C140.252 142.682 164.237 147.673 161.089 151.895Z" fill="url(#paint20_linear)"/>
<path d="M262.548 226.373C241.333 226.373 224.134 209.233 224.134 188.09C224.134 166.947 241.333 149.807 262.548 149.807C283.764 149.807 300.963 166.947 300.963 188.09C300.963 209.233 283.764 226.373 262.548 226.373Z" fill="#263238"/>
<path d="M262.548 230.131C242.58 230.131 226.392 213.999 226.392 194.098C226.392 174.198 242.58 158.066 262.548 158.066C282.517 158.066 298.705 174.198 298.705 194.098C298.705 213.999 282.517 230.131 262.548 230.131Z" fill="#E5995A"/>
<path d="M276.86 190.718C274.363 190.718 272.339 188.701 272.339 186.213C272.339 183.725 274.363 181.708 276.86 181.708C279.357 181.708 281.381 183.725 281.381 186.213C281.381 188.701 279.357 190.718 276.86 190.718Z" fill="#263238"/>
<path d="M247.483 190.718C244.986 190.718 242.962 188.701 242.962 186.213C242.962 183.725 244.986 181.708 247.483 181.708C249.979 181.708 252.003 183.725 252.003 186.213C252.003 188.701 249.979 190.718 247.483 190.718Z" fill="#263238"/>
<path d="M252.003 210.607C252.003 213.307 256.723 217.74 262.548 217.74C268.374 217.74 273.094 213.307 273.094 210.607C273.094 207.906 268.374 207.978 262.548 207.978C256.723 207.978 252.003 207.906 252.003 210.607Z" fill="white"/>
<path d="M275.731 187.716C274.898 187.716 274.223 187.043 274.223 186.213C274.223 185.383 274.898 184.71 275.731 184.71C276.564 184.71 277.239 185.383 277.239 186.213C277.239 187.043 276.564 187.716 275.731 187.716Z" fill="white"/>
<path d="M245.979 187.716C245.146 187.716 244.47 187.043 244.47 186.213C244.47 185.383 245.146 184.71 245.979 184.71C246.812 184.71 247.487 185.383 247.487 186.213C247.487 187.043 246.812 187.716 245.979 187.716Z" fill="white"/>
<path d="M258.935 174.097C261.139 174.097 263.117 172.189 263.352 170.006C263.428 168.909 263.167 167.814 262.602 166.869C262.037 165.924 261.196 165.173 260.191 164.718C259.985 164.612 259.758 164.553 259.527 164.547C258.768 164.547 258.394 165.447 258.15 166.162C257.391 168.377 256.045 170.537 253.932 171.563C251.818 172.589 248.865 172.063 247.749 170.002C250.739 168.674 252.017 164.506 250.278 161.743C249.605 160.676 248.557 159.771 248.345 158.529C247.957 156.279 250.432 154.641 252.622 153.966C258.945 152.017 280.983 151.801 282.198 161.203C283.472 171.122 265.877 175.411 258.935 174.097Z" fill="#263238"/>
<path d="M294.854 200.42C293.694 199.963 293.806 196.936 295.104 193.657C296.402 190.378 298.394 188.09 299.554 188.546C300.714 189.002 300.603 192.03 299.305 195.309C298.007 198.587 296.014 200.876 294.854 200.42Z" fill="#E5995A"/>
<path d="M225.803 195.285C224.505 192.006 224.393 188.978 225.553 188.522C226.713 188.066 228.706 190.354 230.004 193.633C231.302 196.912 231.414 199.94 230.253 200.396C229.093 200.852 227.101 198.564 225.803 195.285Z" fill="#E5995A"/>
<path d="M240.008 237.989C240.008 237.989 210.577 229.753 188.732 196.722C166.888 163.692 165.759 163.602 165.759 163.602L154.085 168.197C154.085 168.197 208.314 255.276 231.663 259.781C255.011 264.286 240.008 237.989 240.008 237.989Z" fill="#F2AB3E"/>
<path d="M166.883 163.696C166.883 163.696 162.367 158.817 165.375 154.695C168.383 150.572 145.414 145.693 148.051 154.695C150.688 163.696 154.075 168.197 154.075 168.197L166.883 163.696Z" fill="#E5995A"/>
<path d="M285.088 237.989C285.088 237.989 314.52 229.753 336.365 196.722C358.209 163.692 359.338 163.602 359.338 163.602L371.012 168.197C371.012 168.197 316.778 255.276 293.425 259.781C270.072 264.286 285.088 237.989 285.088 237.989Z" fill="#F2AB3E"/>
<path d="M358.214 163.696C358.214 163.696 362.73 158.817 359.722 154.695C356.714 150.572 379.683 145.693 377.046 154.695C374.408 163.696 371.021 168.197 371.021 168.197L358.214 163.696Z" fill="#E5995A"/>
<g opacity="0.2">
<path opacity="0.2" d="M250.224 156.27C250.441 157.512 251.488 158.412 252.157 159.483C253.679 161.905 252.888 165.406 250.657 167.135C250.978 166.324 251.11 165.452 251.044 164.584C250.977 163.715 250.714 162.873 250.274 162.121C249.601 161.054 248.553 160.15 248.341 158.907C248.097 157.499 248.977 156.328 250.206 155.487C250.174 155.747 250.18 156.011 250.224 156.27Z" fill="white"/>
<path opacity="0.2" d="M259.631 164.929C259.775 164.592 259.911 164.25 260.028 163.908C260.272 163.192 260.647 162.314 261.406 162.292C261.637 162.299 261.864 162.357 262.07 162.463C263.074 162.919 263.915 163.669 264.48 164.614C265.045 165.559 265.307 166.654 265.231 167.751C265.147 168.413 264.924 169.05 264.576 169.62C264.228 170.19 263.763 170.681 263.212 171.059C263.276 170.837 263.321 170.61 263.348 170.38C263.424 169.282 263.162 168.188 262.597 167.243C262.032 166.298 261.191 165.547 260.186 165.091C260.012 165.007 259.824 164.952 259.631 164.929Z" fill="white"/>
<path opacity="0.2" d="M262.815 172.058C268.306 172.288 277.167 170.2 281.534 165.757C278.274 172.67 264.802 175.564 258.954 174.453C259.751 174.426 260.528 174.191 261.206 173.77C261.883 173.35 262.438 172.76 262.815 172.058Z" fill="white"/>
<path opacity="0.2" d="M250.048 168.35C251.366 169.894 253.923 170.218 255.806 169.304C256.421 169.002 256.985 168.606 257.477 168.129C256.747 169.753 255.497 171.089 253.923 171.928C251.809 172.95 248.855 172.428 247.74 170.366C248.69 169.932 249.492 169.232 250.048 168.35Z" fill="white"/>
</g>
<path opacity="0.2" d="M155.584 168.197C155.584 168.197 209.818 255.276 233.194 259.781C234.544 260.05 235.914 260.217 237.29 260.281C235.408 260.334 233.527 260.166 231.685 259.781C208.332 255.28 154.098 168.197 154.098 168.197L155.308 167.769C155.475 168.053 155.584 168.197 155.584 168.197Z" fill="white"/>
<path opacity="0.2" d="M369.513 168.197C369.513 168.197 315.279 255.276 291.903 259.781C290.553 260.05 289.183 260.217 287.807 260.281C289.689 260.334 291.57 260.166 293.412 259.781C316.765 255.28 370.999 168.197 370.999 168.197L369.788 167.769C369.621 168.053 369.513 168.197 369.513 168.197Z" fill="white"/>
<path d="M262.548 230.131C257.8 230.131 253.099 231.063 248.712 232.874C244.325 234.684 240.34 237.339 236.982 240.685C233.625 244.03 230.962 248.003 229.145 252.374C227.327 256.746 226.392 261.431 226.392 266.163V281.178H298.705V266.163C298.705 261.431 297.769 256.746 295.952 252.374C294.135 248.003 291.472 244.03 288.115 240.685C284.757 237.339 280.771 234.684 276.385 232.874C271.998 231.063 267.296 230.131 262.548 230.131Z" fill="#F2AB3E"/>
<path opacity="0.2" d="M262.174 230.32C263.489 230.32 264.804 230.39 266.112 230.531C265.66 230.531 265.249 230.504 264.811 230.504C255.222 230.504 246.025 234.301 239.245 241.058C232.464 247.815 228.655 256.98 228.655 266.537V281.362H226.017V266.352C226.017 256.796 229.827 247.631 236.607 240.873C243.388 234.116 252.584 230.32 262.174 230.32Z" fill="white"/>
<path opacity="0.2" d="M262.923 230.32C261.608 230.32 260.293 230.39 258.985 230.531C259.437 230.531 259.848 230.504 260.286 230.504C269.875 230.504 279.071 234.301 285.852 241.058C292.633 247.815 296.442 256.98 296.442 266.537V281.362H299.079V266.352C299.079 256.796 295.27 247.631 288.489 240.873C281.709 234.116 272.512 230.32 262.923 230.32Z" fill="white"/>
<path d="M252.003 230.693C252.003 224.889 256.724 220.184 262.548 220.184C268.372 220.184 273.094 224.889 273.094 230.693V235.009C273.094 240.813 268.372 245.518 262.548 245.518C256.724 245.518 252.003 240.813 252.003 235.009V230.693Z" fill="#E5995A"/>
<defs>
<linearGradient id="paint0_linear" x1="128.645" y1="285.543" x2="128.645" y2="49.2573" gradientUnits="userSpaceOnUse">
<stop stop-color="#808080" stop-opacity="0.25"/>
<stop offset="0.54" stop-color="#808080" stop-opacity="0.12"/>
<stop offset="1" stop-color="#808080" stop-opacity="0.1"/>
</linearGradient>
<linearGradient id="paint1_linear" x1="-16370.1" y1="149383" x2="-16370.1" y2="25332.7" gradientUnits="userSpaceOnUse">
<stop stop-color="#808080" stop-opacity="0.25"/>
<stop offset="0.54" stop-color="#808080" stop-opacity="0.12"/>
<stop offset="1" stop-color="#808080" stop-opacity="0.1"/>
</linearGradient>
<linearGradient id="paint2_linear" x1="397.355" y1="87.5132" x2="397.355" y2="73.561" gradientUnits="userSpaceOnUse">
<stop stop-opacity="0.12"/>
<stop offset="0.55" stop-opacity="0.09"/>
<stop offset="1" stop-opacity="0.02"/>
</linearGradient>
<linearGradient id="paint3_linear" x1="-56401.1" y1="3401.37" x2="-56401.1" y2="2968.85" gradientUnits="userSpaceOnUse">
<stop stop-opacity="0.12"/>
<stop offset="0.55" stop-opacity="0.09"/>
<stop offset="1" stop-opacity="0.02"/>
</linearGradient>
<linearGradient id="paint4_linear" x1="-56323.4" y1="4092.67" x2="-56323.4" y2="3660.16" gradientUnits="userSpaceOnUse">
<stop stop-opacity="0.12"/>
<stop offset="0.55" stop-opacity="0.09"/>
<stop offset="1" stop-opacity="0.02"/>
</linearGradient>
<linearGradient id="paint5_linear" x1="-56323.4" y1="4783.98" x2="-56323.4" y2="4351.46" gradientUnits="userSpaceOnUse">
<stop stop-opacity="0.12"/>
<stop offset="0.55" stop-opacity="0.09"/>
<stop offset="1" stop-opacity="0.02"/>
</linearGradient>
<linearGradient id="paint6_linear" x1="-56323.4" y1="5475.28" x2="-56323.4" y2="5042.76" gradientUnits="userSpaceOnUse">
<stop stop-opacity="0.12"/>
<stop offset="0.55" stop-opacity="0.09"/>
<stop offset="1" stop-opacity="0.02"/>
</linearGradient>
<linearGradient id="paint7_linear" x1="-56323.4" y1="6166.59" x2="-56323.4" y2="5734.07" gradientUnits="userSpaceOnUse">
<stop stop-opacity="0.12"/>
<stop offset="0.55" stop-opacity="0.09"/>
<stop offset="1" stop-opacity="0.02"/>
</linearGradient>
<linearGradient id="paint8_linear" x1="-56323.4" y1="6857.88" x2="-56323.4" y2="6425.36" gradientUnits="userSpaceOnUse">
<stop stop-opacity="0.12"/>
<stop offset="0.55" stop-opacity="0.09"/>
<stop offset="1" stop-opacity="0.02"/>
</linearGradient>
<linearGradient id="paint9_linear" x1="-56323.4" y1="7549.2" x2="-56323.4" y2="7116.68" gradientUnits="userSpaceOnUse">
<stop stop-opacity="0.12"/>
<stop offset="0.55" stop-opacity="0.09"/>
<stop offset="1" stop-opacity="0.02"/>
</linearGradient>
<linearGradient id="paint10_linear" x1="-56323.4" y1="8240.49" x2="-56323.4" y2="7807.98" gradientUnits="userSpaceOnUse">
<stop stop-opacity="0.12"/>
<stop offset="0.55" stop-opacity="0.09"/>
<stop offset="1" stop-opacity="0.02"/>
</linearGradient>
<linearGradient id="paint11_linear" x1="-56323.4" y1="73.561" x2="-56323.4" y2="73.561" gradientUnits="userSpaceOnUse">
<stop stop-opacity="0.12"/>
<stop offset="0.55" stop-opacity="0.09"/>
<stop offset="1" stop-opacity="0.02"/>
</linearGradient>
<linearGradient id="paint12_linear" x1="-3502.55" y1="3213.91" x2="-16708.2" y2="3213.91" gradientUnits="userSpaceOnUse">
<stop stop-opacity="0.12"/>
<stop offset="0.55" stop-opacity="0.09"/>
<stop offset="1" stop-opacity="0.02"/>
</linearGradient>
<linearGradient id="paint13_linear" x1="-3502.55" y1="3890.81" x2="-16708.2" y2="3890.81" gradientUnits="userSpaceOnUse">
<stop stop-opacity="0.12"/>
<stop offset="0.55" stop-opacity="0.09"/>
<stop offset="1" stop-opacity="0.02"/>
</linearGradient>
<linearGradient id="paint14_linear" x1="-3502.55" y1="4567.72" x2="-16708.2" y2="4567.72" gradientUnits="userSpaceOnUse">
<stop stop-opacity="0.12"/>
<stop offset="0.55" stop-opacity="0.09"/>
<stop offset="1" stop-opacity="0.02"/>
</linearGradient>
<linearGradient id="paint15_linear" x1="-3502.55" y1="5259.02" x2="-16708.2" y2="5259.02" gradientUnits="userSpaceOnUse">
<stop stop-opacity="0.12"/>
<stop offset="0.55" stop-opacity="0.09"/>
<stop offset="1" stop-opacity="0.02"/>
</linearGradient>
<linearGradient id="paint16_linear" x1="-3502.55" y1="5950.33" x2="-16708.2" y2="5950.33" gradientUnits="userSpaceOnUse">
<stop stop-opacity="0.12"/>
<stop offset="0.55" stop-opacity="0.09"/>
<stop offset="1" stop-opacity="0.02"/>
</linearGradient>
<linearGradient id="paint17_linear" x1="-3502.55" y1="6641.62" x2="-16708.2" y2="6641.62" gradientUnits="userSpaceOnUse">
<stop stop-opacity="0.12"/>
<stop offset="0.55" stop-opacity="0.09"/>
<stop offset="1" stop-opacity="0.02"/>
</linearGradient>
<linearGradient id="paint18_linear" x1="-35547.2" y1="11648.4" x2="-199758" y2="11648.4" gradientUnits="userSpaceOnUse">
<stop stop-color="#808080" stop-opacity="0.25"/>
<stop offset="0.54" stop-color="#808080" stop-opacity="0.12"/>
<stop offset="1" stop-color="#808080" stop-opacity="0.1"/>
</linearGradient>
<linearGradient id="paint19_linear" x1="-117865" y1="1586.69" x2="-117865" y2="902.137" gradientUnits="userSpaceOnUse">
<stop stop-color="#808080" stop-opacity="0.25"/>
<stop offset="0.54" stop-color="#808080" stop-opacity="0.12"/>
<stop offset="1" stop-color="#808080" stop-opacity="0.1"/>
</linearGradient>
<linearGradient id="paint20_linear" x1="-143577" y1="94935.6" x2="-143577" y2="54749.8" gradientUnits="userSpaceOnUse">
<stop stop-color="#808080" stop-opacity="0.25"/>
<stop offset="0.54" stop-color="#808080" stop-opacity="0.12"/>
<stop offset="1" stop-color="#808080" stop-opacity="0.1"/>
</linearGradient>
</defs>
</svg>
