<svg width="16" height="16" viewBox="0 0 16 16" fill="none" xmlns="http://www.w3.org/2000/svg">
<path fill-rule="evenodd" clip-rule="evenodd" d="M3.33325 1.33333C3.33325 0.965141 3.63173 0.666664 3.99992 0.666664H11.9999C12.3681 0.666664 12.6666 0.965141 12.6666 1.33333V6C12.6666 6.36819 12.3681 6.66666 11.9999 6.66666C11.6317 6.66666 11.3333 6.36819 11.3333 6V2H4.66659V6C4.66659 6.36819 4.36811 6.66666 3.99992 6.66666C3.63173 6.66666 3.33325 6.36819 3.33325 6V1.33333Z" fill="#353535"/>
<path fill-rule="evenodd" clip-rule="evenodd" d="M2.66675 6.66667C2.48994 6.66667 2.32037 6.73691 2.19534 6.86193C2.07032 6.98696 2.00008 7.15652 2.00008 7.33334V10.6667C2.00008 10.8435 2.07032 11.013 2.19534 11.1381C2.32037 11.2631 2.48994 11.3333 2.66675 11.3333H4.00008C4.36827 11.3333 4.66675 11.6318 4.66675 12C4.66675 12.3682 4.36827 12.6667 4.00008 12.6667H2.66675C2.13631 12.6667 1.62761 12.456 1.25253 12.0809C0.877462 11.7058 0.666748 11.1971 0.666748 10.6667V7.33334C0.666748 6.8029 0.877462 6.2942 1.25253 5.91912C1.62761 5.54405 2.13631 5.33334 2.66675 5.33334H13.3334C13.8638 5.33334 14.3726 5.54405 14.7476 5.91912C15.1227 6.2942 15.3334 6.8029 15.3334 7.33334V10.6667C15.3334 11.1971 15.1227 11.7058 14.7476 12.0809C14.3726 12.456 13.8638 12.6667 13.3334 12.6667H12.0001C11.6319 12.6667 11.3334 12.3682 11.3334 12C11.3334 11.6318 11.6319 11.3333 12.0001 11.3333H13.3334C13.5102 11.3333 13.6798 11.2631 13.8048 11.1381C13.9298 11.013 14.0001 10.8435 14.0001 10.6667V7.33334C14.0001 7.15653 13.9298 6.98696 13.8048 6.86193C13.6798 6.73691 13.5102 6.66667 13.3334 6.66667H2.66675Z" fill="#353535"/>
<path fill-rule="evenodd" clip-rule="evenodd" d="M3.33325 9.33333C3.33325 8.96514 3.63173 8.66666 3.99992 8.66666H11.9999C12.3681 8.66666 12.6666 8.96514 12.6666 9.33333V14.6667C12.6666 15.0349 12.3681 15.3333 11.9999 15.3333H3.99992C3.63173 15.3333 3.33325 15.0349 3.33325 14.6667V9.33333ZM4.66659 10V14H11.3333V10H4.66659Z" fill="#353535"/>
</svg>
