<svg width="16" height="16" viewBox="0 0 16 16" fill="none" xmlns="http://www.w3.org/2000/svg">
<path fill-rule="evenodd" clip-rule="evenodd" d="M6.66665 12C3.72113 12 1.33331 9.6122 1.33331 6.66668C1.33331 3.72116 3.72113 1.33334 6.66665 1.33334C9.61216 1.33334 12 3.72116 12 6.66668C12 7.89915 11.5819 9.03398 10.8799 9.93711L14.4714 13.5286L13.5286 14.4714L9.93707 10.8799C9.03395 11.582 7.89912 12 6.66665 12ZM10.6666 6.66668C10.6666 8.87582 8.87579 10.6667 6.66665 10.6667C4.45751 10.6667 2.66665 8.87582 2.66665 6.66668C2.66665 4.45754 4.45751 2.66668 6.66665 2.66668C8.87579 2.66668 10.6666 4.45754 10.6666 6.66668Z" fill="#353535"/>
</svg>
