<svg width="500" height="110" viewBox="0 0 500 110" fill="none" xmlns="http://www.w3.org/2000/svg">
<path d="M189.198 33.2615C184.235 28.2723 175.822 25.2703 168.868 25.2703C156.123 25.2703 147.178 35.446 147.178 47.7077C147.178 59.1519 154.945 70.0464 169.863 70.0464C176.005 70.0464 183.239 68.2424 187.207 65.2404V53.3452H168.686V44.2547H196.433V70.2297C188.462 75.8772 178.984 78.9811 169.233 79.137C150.529 79.137 136.606 65.0431 136.606 47.609C136.606 30.1749 150.711 16.1797 168.784 16.1797C178.921 16.4034 188.657 20.1996 196.293 26.9052L189.198 33.2615Z" fill="#FCF5F7"/>
<path d="M210.005 48.6097V77.3189H200.709V45.4386C200.707 41.4116 200.313 37.3945 199.532 33.4447H208.113C208.618 35.8675 208.923 38.3283 209.024 40.8017C211.912 36.348 215.347 31.993 221.643 31.993C223.851 31.84 226.041 32.4903 227.812 33.8252L225.008 42.5352C223.291 41.6792 221.413 41.1989 219.497 41.1259C215.347 41.1681 212.445 45.1003 210.005 48.6097Z" fill="#FCF5F7"/>
<path d="M233.532 37.6306C239.822 33.9654 246.957 32.0216 254.227 31.993C264.042 31.993 274.011 35.2628 274.011 44.8889V69.4122C273.918 72.098 274.317 74.7781 275.189 77.3189H265.795C265.211 75.5522 264.844 73.7206 264.701 71.8645C260.209 76.0977 254.242 78.3857 248.086 78.235C237.683 78.235 230.911 72.0478 230.911 63.1545C230.911 55.3325 238.047 49.0607 251.059 49.0607C255.854 49.0607 261.63 50.1459 264.701 52.415V47.609C264.701 42.2534 260.004 39.9843 253.779 39.9843C247.737 40.1926 241.864 42.0434 236.785 45.3399L233.532 37.6306ZM264.701 64.1552V59.7015C261.066 57.4544 256.867 56.3002 252.601 56.3754C243.473 56.3754 240.305 59.2787 240.305 63.0982C240.305 67.1854 243.838 70.3565 250.119 70.3565C255.589 70.2355 260.806 68.0169 264.701 64.1552V64.1552Z" fill="#FCF5F7"/>
<path d="M314.7 77.3189C314.267 75.3189 314.056 73.277 314.069 71.2303C312.405 73.5009 310.243 75.3549 307.751 76.6481C305.258 77.9412 302.502 78.6386 299.697 78.686C287.962 78.686 278.287 69.5109 278.287 55.2479C278.287 41.2527 288.102 31.993 299.697 31.993C304.788 32.094 309.633 34.2172 313.171 37.8984V13.7274H322.481V65.2404C322.358 69.2836 322.631 73.3292 323.294 77.3189H314.7ZM288.593 55.2479C288.593 64.5076 294.005 70.5115 300.609 70.5115C303.033 70.4648 305.418 69.887 307.598 68.8184C309.777 67.7498 311.698 66.2161 313.227 64.3243V46.3406C309.61 42.6198 305.179 40.252 300.609 40.252C293.921 40.252 288.593 46.1574 288.593 55.2479Z" fill="#FCF5F7"/>
<path d="M369.858 70.4692C363.952 75.7931 356.282 78.7083 348.35 78.6437C334.329 78.6437 326.393 68.2001 326.393 55.6566C326.393 42.4788 335.689 31.9507 349.163 31.9507C359.637 31.9507 371.12 38.3916 371.12 54.7546C371.134 55.6342 371.101 56.514 371.022 57.3901H335.787C336.418 64.5639 340.849 70.3706 349.345 70.3706C354.705 70.3545 359.839 68.2001 363.619 64.3807L369.858 70.4692ZM336.32 50.0613H360.814C360.73 43.0144 354.491 39.801 348.714 39.801C342.026 39.801 337.904 44.3533 336.32 50.0613Z" fill="#FCF5F7"/>
<path d="M374.218 77.3189V13.7274H383.528V77.3189H374.218Z" fill="#FCF5F7"/>
<path d="M410.21 63.8733L423.754 33.4447H433.246L403.522 96.12H393.848L404.868 74.2323L386.641 33.4447H397.227L409.691 63.8733H410.21Z" fill="#FCF5F7"/>
<path d="M430.947 67.9887C431.562 67.985 432.171 68.1038 432.74 68.3381C433.309 68.5725 433.826 68.9178 434.262 69.3542C434.697 69.7905 435.042 70.3093 435.277 70.8805C435.512 71.4517 435.632 72.0639 435.63 72.682C435.632 73.2974 435.512 73.9071 435.276 74.4751C435.041 75.0432 434.695 75.5583 434.258 75.9902C433.822 76.4221 433.305 76.7621 432.736 76.9903C432.167 77.2184 431.559 77.3301 430.947 77.3189C430.339 77.3264 429.736 77.2117 429.173 76.9813C428.61 76.751 428.098 76.4097 427.668 75.9776C427.239 75.5455 426.899 75.0313 426.67 74.4654C426.441 73.8994 426.327 73.293 426.334 72.682C426.325 72.0678 426.437 71.4579 426.665 70.888C426.893 70.318 427.231 69.7994 427.661 69.3625C428.09 68.9256 428.602 68.579 429.166 68.3431C429.731 68.1073 430.336 67.9868 430.947 67.9887V67.9887Z" fill="#FCF5F7"/>
<path d="M466.111 46.7916V77.3189H461.513L443.972 56.1781V77.3189H438.715V46.7916H443.327L460.854 67.9324V46.7916H466.111Z" fill="#FCF5F7"/>
<path d="M496.341 53.7117C493.471 51.093 489.743 49.628 485.867 49.5962C484.367 49.5821 482.881 49.8731 481.496 50.4516C480.111 51.0301 478.857 51.8842 477.809 52.9625C476.761 54.0409 475.941 55.3211 475.398 56.7263C474.855 58.1315 474.601 59.6325 474.65 61.1391C474.599 62.6837 474.869 64.222 475.441 65.6564C476.013 67.0908 476.875 68.3899 477.974 69.4714C479.072 70.5528 480.382 71.3929 481.82 71.9383C483.259 72.4838 484.794 72.7226 486.33 72.6397C489.48 72.6954 492.581 71.8392 495.261 70.1733V64.0424H485.727V59.3633H500V72.7384C495.891 75.6488 491.005 77.2452 485.979 77.3189C476.347 77.3189 469.154 70.0746 469.154 61.0968C469.168 58.9368 469.61 56.8012 470.453 54.8143C471.296 52.8274 472.524 51.0288 474.064 49.5232C475.605 48.0176 477.429 46.835 479.428 46.0442C481.428 45.2535 483.564 44.8703 485.713 44.9171C490.927 45.034 495.935 46.9896 499.86 50.4419L496.341 53.7117Z" fill="#FCF5F7"/>
<path d="M0 20.0838L0 89.7778C0 100.87 8.94527 109.862 19.9798 109.862H89.3133C100.348 109.862 109.293 100.87 109.293 89.7778V20.0838C109.293 8.99181 100.348 3.05176e-05 89.3133 3.05176e-05H19.9798C8.94527 3.05176e-05 0 8.99181 0 20.0838Z" fill="#DCF1FA"/>
<path fill-rule="evenodd" clip-rule="evenodd" d="M42.5114 70.0887C44.0257 70.4129 48.6386 79.9544 46.1288 85.3665C40.5205 89.2564 34.7999 93.4141 29.1915 97.3463C29.0709 97.3834 28.9431 97.3912 28.8189 97.3692C28.6946 97.3471 28.5772 97.2958 28.4765 97.2194C28.3653 97.1511 28.2619 97.0707 28.168 96.9798C28.1156 96.9377 28.0726 96.8848 28.0418 96.8248V96.8248C28.0418 96.8248 27.9577 96.712 27.9717 96.6698C28.4344 89.8061 29.0233 82.7168 29.472 75.9095C29.5421 75.8813 40.4924 69.6659 42.5114 70.0887Z" fill="url(#paint0_linear)"/>
<path fill-rule="evenodd" clip-rule="evenodd" d="M28.0418 96.7684C28.168 95.0066 28.3082 93.0194 28.4344 91.2295L33.6502 94.2315C32.2481 95.2603 30.6357 96.4442 29.1916 97.4449C29.0736 97.5071 28.9417 97.5382 28.8085 97.5351C28.6753 97.5319 28.545 97.4948 28.43 97.4271C28.315 97.3595 28.2191 97.2635 28.1511 97.1482C28.0832 97.033 28.0456 96.9023 28.0418 96.7684V96.7684Z" fill="black"/>
<path d="M76.8487 30.485C70.9038 41.0554 54.0507 71.3571 46.1288 85.3664C45.1754 84.8309 46.1288 80.9832 45.2035 80.4336C44.0257 79.7712 41.6842 80.2504 40.5064 79.5739C38.5575 78.4604 38.3192 76.6282 36.5385 73.8236C34.2774 74.7473 31.9284 75.4367 29.5281 75.8813C31.3368 72.6538 48.6386 41.5768 60.2199 20.9998L76.8487 30.485Z" fill="url(#paint1_linear)"/>
<path fill-rule="evenodd" clip-rule="evenodd" d="M80.9708 23.2125L76.0354 31.993L59.3646 22.5501L64.2719 13.7697C67.0901 8.69588 83.803 18.1951 80.9708 23.2125Z" fill="#07374B"/>
<path fill-rule="evenodd" clip-rule="evenodd" d="M76.0915 31.8943L72.3479 38.4903L55.6911 29.0333L59.4066 22.4233L76.0915 31.8943Z" fill="#F5F5F5"/>
<defs>
<linearGradient id="paint0_linear" x1="27.2028" y1="108.673" x2="46.9685" y2="56.7619" gradientUnits="userSpaceOnUse">
<stop stop-color="#FABEA8"/>
<stop offset="1" stop-color="white"/>
</linearGradient>
<linearGradient id="paint1_linear" x1="56.6876" y1="59.9413" x2="46.9924" y2="40.6528" gradientUnits="userSpaceOnUse">
<stop stop-color="#F0A53C"/>
<stop offset="0.52" stop-color="#F7B73B"/>
</linearGradient>
</defs>
</svg>
