<svg xmlns="http://www.w3.org/2000/svg" viewBox="0 0 315.92 82.85"><defs><style>.cls-1{fill:#11bdcf;}.cls-2{fill:#2a4f77;}</style></defs><title>logoSample</title><g id="Layer_2" data-name="Layer 2"><g id="Layer_1-2" data-name="Layer 1"><path class="cls-1" d="M315.92,71.56a11.32,11.32,0,0,1-11.29,11.29H11.29A11.32,11.32,0,0,1,0,71.56V20.21A11.73,11.73,0,0,1,11.29,8.59L304.63,0a10.94,10.94,0,0,1,11.29,11Z"/><path class="cls-2" d="M40.6,45.51V56a.54.54,0,0,1-.23.44,23,23,0,0,1-11.86,3.62C19.66,60.09,13,53.7,13,45.22s6.86-14.79,16-14.79a18.74,18.74,0,0,1,11.48,4,.54.54,0,0,1,.06.75l-3.47,4.2a.53.53,0,0,1-.75.06A11.9,11.9,0,0,0,29,36.62a8.38,8.38,0,0,0-8.44,8.6,8.44,8.44,0,0,0,8.52,8.68,12.17,12.17,0,0,0,4.85-1.26.55.55,0,0,0,.3-.49V45.51a.54.54,0,0,1,.54-.54h5.33A.54.54,0,0,1,40.6,45.51Z"/><path class="cls-2" d="M60.63,51.58H54.81v8.18H47.42V30.68h13c7.69,0,12.09,3.66,12.09,10.14,0,4.44-1.87,7.64-5.28,9.34l6.11,9.6H65Zm-.21-5.82c3.2,0,5.07-1.62,5.07-4.69s-1.87-4.57-5.07-4.57H54.81v9.26Z"/><path class="cls-2" d="M85.77,54.4l-2.12,5.36h-7.6L88.59,30.68h7.6l12.26,29.08h-7.89L98.48,54.4ZM92.17,38,87.93,48.79h8.39Z"/><path class="cls-2" d="M125.32,30.68c9.14,0,15.46,5.9,15.46,14.54S134.38,59.76,125,59.76H112.82V30.68Zm-5.11,23.18h5.28c4.53,0,7.77-3.49,7.77-8.6s-3.41-8.68-8.1-8.68h-5Z"/><path class="cls-2" d="M153.74,36.5v5.77h13.88v5.82H153.74V54h15.83v5.81H146.35V30.68h22.76V36.5Z"/><path class="cls-2" d="M195.75,53.57v6.19H176V30.68h7.39V53.57Z"/><path class="cls-2" d="M215.94,59.76h-7.35V50.58l-10.76-19.9h7.39l7,12.67,6.86-12.67h7.39L215.94,50.37Z"/><path class="cls-2" d="M236.47,56.6A3.34,3.34,0,0,1,233,60.09a3.47,3.47,0,1,1,3.49-3.49Z"/><path class="cls-2" d="M262.93,59.76l-13.37-17.9v17.9h-6.94V30.68h6.52l13.42,18v-18h6.9V59.76Z"/><path class="cls-2" d="M302.65,45V56.31a22.82,22.82,0,0,1-12.08,3.78c-8.85,0-15.54-6.39-15.54-14.87s6.85-14.79,16-14.79A18.62,18.62,0,0,1,303,34.75l-4.16,5A12,12,0,0,0,291,36.62a8.37,8.37,0,0,0-8.43,8.6,8.44,8.44,0,0,0,8.52,8.68,12.42,12.42,0,0,0,5.15-1.41V45Z"/></g></g></svg>