<svg width="251" height="29" viewBox="0 0 251 29" fill="none" xmlns="http://www.w3.org/2000/svg">
<path d="M62.8597 0H13.9685C12.4876 0 11.2871 1.1855 11.2871 2.64797V3.27559C11.2871 4.73806 12.4876 5.92356 13.9685 5.92356H27.801C29.2819 5.92356 30.4824 7.11004 30.4824 8.57251V9.07932C30.4824 10.5418 29.2819 11.7273 27.801 11.7273H21.8017C20.3208 11.7273 19.1204 12.9128 19.1204 14.3753V15.2563C19.1204 16.7188 20.3208 17.9052 21.8017 17.9052H32.5282C34.0091 17.9052 35.2096 19.0907 35.2096 20.5532V21.0561C35.2096 22.5186 34.0091 23.7041 32.5282 23.7041H21.8017C21.0618 23.7041 20.3914 24.0007 19.9061 24.48C19.4207 24.9593 19.1204 25.6213 19.1204 26.352C19.1204 27.8145 20.3208 29 21.8017 29H58.5502C60.8755 29 62.8935 27.4039 63.3958 25.1606L67.7053 5.96579C68.3945 2.90138 66.0354 0 62.8597 0ZM61.2008 14.8997C60.7393 15.9468 60.1127 16.8612 59.322 17.642C58.5313 18.4228 57.6024 19.0416 56.5362 19.4974C55.469 19.9531 54.3362 20.181 53.1387 20.181C52.2874 20.181 51.4848 20.0739 50.7299 19.8608V22.8437C50.7299 23.3053 50.6543 23.7365 50.5051 24.1392C50.3549 24.5419 50.1451 24.8876 49.8756 25.1783C49.606 25.4681 49.2798 25.6989 48.8959 25.8708C48.512 26.0417 48.0873 26.1281 47.6199 26.1281C47.1763 26.1281 46.7566 26.0417 46.3617 25.8708C45.9659 25.6989 45.6178 25.4681 45.3184 25.1783C45.0191 24.8876 44.7823 24.5419 44.6083 24.1392C44.4352 23.7365 44.3477 23.3053 44.3477 22.8437V11.2873C44.3835 10.1273 44.6411 9.03807 45.1215 8.02052C45.5999 7.00298 46.2384 6.11214 47.036 5.34898C47.8317 4.58582 48.7547 3.98178 49.8039 3.53783C50.8522 3.09388 51.9632 2.87289 53.1387 2.87289C54.3362 2.87289 55.469 3.10076 56.5362 3.55551C57.6024 4.01124 58.5313 4.63591 59.322 5.42854C60.1127 6.22214 60.7393 7.1454 61.2008 8.1983C61.6612 9.2512 61.893 10.3699 61.893 11.5534C61.893 12.737 61.6612 13.8518 61.2008 14.8997Z" fill="#FEBA15"/>
<path d="M10.8076 18.2342H8.38184C6.65427 18.2342 5.25391 16.8513 5.25391 15.1452C5.25391 13.4392 6.65427 12.0563 8.38184 12.0563H10.8076C12.5352 12.0563 13.9355 13.4392 13.9355 15.1452C13.9355 16.8513 12.5352 18.2342 10.8076 18.2342Z" fill="#FEBA15"/>
<path d="M5.5537 6.17795H3.12793C1.40036 6.17795 0 4.79503 0 3.08897C0 1.38292 1.40036 0 3.12793 0H5.5537C7.28127 0 8.68163 1.38292 8.68163 3.08897C8.68163 4.79503 7.28127 6.17795 5.5537 6.17795Z" fill="#FEBA15"/>
<path d="M77.8262 22.6341H92.3151V18.6886H82.6116V0H77.8262V22.6341Z" fill="white"/>
<path d="M103.132 22.9657C107.332 22.9657 110.161 20.9211 110.824 17.7713L106.47 17.484C105.995 18.7771 104.779 19.4512 103.209 19.4512C100.855 19.4512 99.3634 17.8929 99.3634 15.362V15.351H110.924V14.0579C110.924 8.28887 107.431 5.4375 102.944 5.4375C97.9488 5.4375 94.7106 8.98514 94.7106 14.2237C94.7106 19.6059 97.9046 22.9657 103.132 22.9657ZM99.3634 12.4333C99.4629 10.4992 100.933 8.95198 103.022 8.95198C105.066 8.95198 106.481 10.4108 106.492 12.4333H99.3634Z" fill="white"/>
<path d="M118.704 12.8201C118.715 10.6319 120.019 9.34985 121.92 9.34985C123.81 9.34985 124.948 10.5877 124.937 12.6654V22.6341H129.645V11.8255C129.645 7.8689 127.325 5.4375 123.788 5.4375C121.268 5.4375 119.445 6.6753 118.682 8.65358H118.483V5.65854H113.996V22.6341H118.704V12.8201Z" fill="white"/>
<path d="M139.611 22.9104C142.352 22.9104 143.778 21.33 144.43 19.9154H144.629V22.6341H149.271V0H144.574V8.50991H144.43C143.8 7.12843 142.441 5.4375 139.6 5.4375C135.876 5.4375 132.726 8.33308 132.726 14.1684C132.726 19.8491 135.743 22.9104 139.611 22.9104ZM141.103 19.1639C138.794 19.1639 137.534 17.1082 137.534 14.1463C137.534 11.2066 138.771 9.18407 141.103 9.18407C143.391 9.18407 144.673 11.1181 144.673 14.1463C144.673 17.1745 143.369 19.1639 141.103 19.1639Z" fill="white"/>
<path d="M155.33 0H152.103L159.397 11.3171L152.103 22.6341H155.33L161.165 13.3948H161.342L167.177 22.6341H170.405L163.287 11.3171L170.405 0H167.177L161.342 9.41616H161.165L155.33 0Z" fill="white"/>
<path d="M173.618 29H176.226V20.0259H176.447C177.022 20.9543 178.127 22.9878 181.398 22.9878C185.642 22.9878 188.604 19.5838 188.604 14.1905C188.604 8.84146 185.642 5.4375 181.354 5.4375C178.039 5.4375 177.022 7.47104 176.447 8.35518H176.138V5.65854H173.618V29ZM176.182 14.1463C176.182 10.3445 177.862 7.78049 181.045 7.78049C184.36 7.78049 185.996 10.5655 185.996 14.1463C185.996 17.7713 184.316 20.6448 181.045 20.6448C177.906 20.6448 176.182 17.9924 176.182 14.1463Z" fill="white"/>
<path d="M192.583 22.6341H195.191V11.8918C195.191 9.59299 197.004 7.91311 199.479 7.91311C200.175 7.91311 200.894 8.04573 201.071 8.08994V5.4375C200.772 5.4154 200.087 5.39329 199.7 5.39329C197.667 5.39329 195.898 6.54268 195.279 8.22256H195.103V5.65854H192.583V22.6341Z" fill="white"/>
<path d="M210.763 22.9878C214.211 22.9878 216.731 21.2637 217.527 18.6997L215.007 17.9924C214.344 19.7607 212.808 20.6448 210.763 20.6448C207.702 20.6448 205.591 18.6665 205.469 15.0305H217.792V13.9253C217.792 7.60366 214.034 5.4375 210.498 5.4375C205.9 5.4375 202.85 9.0625 202.85 14.279C202.85 19.4954 205.856 22.9878 210.763 22.9878ZM205.469 12.7759C205.646 10.1345 207.514 7.78049 210.498 7.78049C213.327 7.78049 215.14 9.90244 215.14 12.7759H205.469Z" fill="white"/>
<path d="M233.784 9.46037C232.966 7.05107 231.132 5.4375 227.772 5.4375C224.191 5.4375 221.539 7.47104 221.539 10.3445C221.539 12.6875 222.931 14.2569 226.048 14.9863L228.877 15.6494C230.59 16.0473 231.397 16.8651 231.397 18.0366C231.397 19.4954 229.85 20.689 227.418 20.689C225.285 20.689 223.948 19.7717 223.484 17.9482L221.008 18.5671C221.616 21.4516 223.992 22.9878 227.462 22.9878C231.408 22.9878 234.094 20.8327 234.094 17.904C234.094 15.5389 232.613 14.0469 229.584 13.3064L227.065 12.6875C225.053 12.1902 224.147 11.516 224.147 10.2119C224.147 8.75305 225.694 7.69207 227.772 7.69207C230.049 7.69207 230.988 8.95198 231.441 10.1235L233.784 9.46037Z" fill="white"/>
<path d="M250.044 9.46037C249.226 7.05107 247.392 5.4375 244.032 5.4375C240.451 5.4375 237.799 7.47104 237.799 10.3445C237.799 12.6875 239.191 14.2569 242.308 14.9863L245.137 15.6494C246.85 16.0473 247.657 16.8651 247.657 18.0366C247.657 19.4954 246.11 20.689 243.678 20.689C241.545 20.689 240.208 19.7717 239.744 17.9482L237.268 18.5671C237.876 21.4516 240.252 22.9878 243.722 22.9878C247.668 22.9878 250.354 20.8327 250.354 17.904C250.354 15.5389 248.873 14.0469 245.844 13.3064L243.325 12.6875C241.313 12.1902 240.407 11.516 240.407 10.2119C240.407 8.75305 241.954 7.69207 244.032 7.69207C246.309 7.69207 247.248 8.95198 247.701 10.1235L250.044 9.46037Z" fill="white"/>
</svg>
