<svg width="230" height="31" viewBox="0 0 230 31" fill="none" xmlns="http://www.w3.org/2000/svg">
<path d="M66.0576 0H14.6791C13.1228 0 11.8613 1.24581 11.8613 2.78268V3.44223C11.8613 4.9791 13.1228 6.22491 14.6791 6.22491H29.2153C30.7716 6.22491 32.0331 7.47175 32.0331 9.00863V9.54122C32.0331 11.0781 30.7716 12.3239 29.2153 12.3239H22.9109C21.3546 12.3239 20.0931 13.5697 20.0931 15.1066V16.0324C20.0931 17.5693 21.3546 18.8161 22.9109 18.8161H34.183C35.7393 18.8161 37.0008 20.0619 37.0008 21.5988V22.1273C37.0008 23.6642 35.7393 24.91 34.183 24.91H22.9109C22.1333 24.91 21.4288 25.2217 20.9188 25.7254C20.4087 26.2291 20.0931 26.9247 20.0931 27.6926C20.0931 29.2295 21.3546 30.4753 22.9109 30.4753H61.5289C63.9725 30.4753 66.0931 28.7981 66.6209 26.4406L71.1497 6.26929C71.874 3.04898 69.3948 0 66.0576 0ZM64.3143 15.6578C63.8293 16.758 63.1708 17.719 62.3399 18.5395C61.509 19.3601 60.5328 20.0103 59.4124 20.4893C58.2909 20.9682 57.1005 21.2076 55.8421 21.2076C54.9474 21.2076 54.104 21.0951 53.3107 20.8712V24.0058C53.3107 24.4909 53.2313 24.944 53.0745 25.3672C52.9167 25.7904 52.6961 26.1537 52.4129 26.4592C52.1297 26.7637 51.7868 27.0063 51.3834 27.1869C50.98 27.3665 50.5337 27.4573 50.0424 27.4573C49.5763 27.4573 49.1352 27.3665 48.7203 27.1869C48.3043 27.0063 47.9385 26.7637 47.6239 26.4592C47.3093 26.1537 47.0606 25.7904 46.8777 25.3672C46.6958 24.944 46.6038 24.4909 46.6038 24.0058V11.8615C46.6415 10.6425 46.9122 9.49787 47.417 8.42856C47.9197 7.35925 48.5907 6.42308 49.4289 5.6211C50.2651 4.81912 51.235 4.18435 52.3376 3.71781C53.4393 3.25128 54.6067 3.01905 55.8421 3.01905C57.1005 3.01905 58.2909 3.2585 59.4124 3.73639C60.5328 4.21531 61.509 4.87176 62.3399 5.70471C63.1708 6.53868 63.8293 7.50891 64.3143 8.61538C64.7982 9.72184 65.0417 10.8975 65.0417 12.1412C65.0417 13.385 64.7982 14.5564 64.3143 15.6578Z" fill="#FEBA15"/>
<path d="M11.3577 19.1618H8.80855C6.99308 19.1618 5.52148 17.7085 5.52148 15.9157C5.52148 14.1228 6.99308 12.6696 8.80855 12.6696H11.3577C13.1732 12.6696 14.6448 14.1228 14.6448 15.9157C14.6448 17.7085 13.1732 19.1618 11.3577 19.1618Z" fill="#FEBA15"/>
<path d="M5.83623 6.49224H3.28706C1.4716 6.49224 0 5.03897 0 3.24612C0 1.45327 1.4716 0 3.28706 0H5.83623C7.65169 0 9.12329 1.45327 9.12329 3.24612C9.12329 5.03897 7.65169 6.49224 5.83623 6.49224Z" fill="#FEBA15"/>
<path d="M85.1049 15.5522V23.5391H80.4297V0.870728H89.2815C90.9854 0.870728 92.4815 1.18211 93.7698 1.80486C95.0685 2.42762 96.0658 3.31505 96.7619 4.46715C97.458 5.60887 97.8061 6.91147 97.8061 8.37495C97.8061 10.5961 97.0424 12.3502 95.5152 13.6372C93.9983 14.9139 91.8945 15.5522 89.2036 15.5522H85.1049ZM85.1049 11.769H89.2815C90.5179 11.769 91.4581 11.4784 92.1023 10.8971C92.7568 10.3159 93.0841 9.48553 93.0841 8.40609C93.0841 7.2955 92.7568 6.3977 92.1023 5.71266C91.4477 5.02763 90.5438 4.67473 89.3906 4.65398H85.1049V11.769Z" fill="white"/>
<path d="M110.763 23.5391C110.556 23.1343 110.405 22.6309 110.312 22.0289C109.221 23.2433 107.802 23.8505 106.057 23.8505C104.405 23.8505 103.034 23.373 101.943 22.4181C100.862 21.4632 100.322 20.2592 100.322 18.8061C100.322 17.0209 100.982 15.6508 102.301 14.6959C103.631 13.741 105.548 13.2584 108.052 13.248H110.125V12.2828C110.125 11.5043 109.922 10.8815 109.517 10.4145C109.122 9.94741 108.493 9.71388 107.631 9.71388C106.873 9.71388 106.275 9.89551 105.839 10.2588C105.413 10.6221 105.2 11.1203 105.2 11.7534H100.696C100.696 10.7778 100.997 9.87476 101.6 9.04441C102.203 8.21407 103.054 7.56537 104.156 7.0983C105.257 6.62085 106.493 6.38213 107.865 6.38213C109.943 6.38213 111.589 6.90628 112.805 7.95459C114.031 8.99252 114.644 10.456 114.644 12.345V19.6469C114.654 21.2453 114.878 22.4544 115.314 23.2744V23.5391H110.763ZM107.039 20.4097C107.704 20.4097 108.317 20.2644 108.878 19.9738C109.439 19.6728 109.854 19.2732 110.125 18.775V15.8792H108.441C106.187 15.8792 104.987 16.6576 104.841 18.2145L104.826 18.4792C104.826 19.0397 105.023 19.5015 105.418 19.8648C105.813 20.2281 106.353 20.4097 107.039 20.4097Z" fill="white"/>
<path d="M124.594 17.1714L127.71 6.69351H132.542L125.762 26.1547L125.388 27.0421C124.381 29.2425 122.718 30.3427 120.401 30.3427C119.747 30.3427 119.082 30.2441 118.407 30.0469V26.6373L119.092 26.6529C119.944 26.6529 120.578 26.5231 120.994 26.2636C121.42 26.0042 121.752 25.5734 121.991 24.9714L122.521 23.5858L116.614 6.69351H121.461L124.594 17.1714Z" fill="white"/>
<path d="M142.803 10.4612L149.192 0.870728H151.483L143.972 12.0492L151.717 23.5391H149.411L142.803 13.6372L136.164 23.5391H133.889L141.65 12.0492L134.122 0.870728H136.413L142.803 10.4612Z" fill="white"/>
<path d="M169.007 15.2876C169.007 17.9135 168.425 19.9997 167.261 21.5463C166.098 23.0824 164.539 23.8505 162.586 23.8505C160.28 23.8505 158.513 23.0409 157.288 21.4217V30.0158H155.433V6.69351H157.163L157.256 9.07555C158.472 7.27994 160.233 6.38213 162.539 6.38213C164.555 6.38213 166.134 7.145 167.277 8.67076C168.43 10.1965 169.007 12.3139 169.007 15.0229V15.2876ZM167.137 14.9606C167.137 12.8121 166.695 11.1151 165.812 9.86957C164.929 8.62405 163.698 8.0013 162.119 8.0013C160.976 8.0013 159.994 8.27635 159.173 8.82645C158.352 9.37655 157.724 10.1758 157.288 11.2241V19.3043C157.734 20.2696 158.373 21.0065 159.204 21.5151C160.036 22.0237 161.017 22.278 162.15 22.278C163.719 22.278 164.939 21.6552 165.812 20.4097C166.695 19.1538 167.137 17.3375 167.137 14.9606Z" fill="white"/>
<path d="M181.388 8.28154C180.993 8.20888 180.572 8.17255 180.125 8.17255C178.962 8.17255 177.975 8.4995 177.164 9.1534C176.364 9.79691 175.793 10.7362 175.45 11.9714V23.5391H173.596V6.69351H175.419L175.45 9.37136C176.437 7.37854 178.021 6.38213 180.203 6.38213C180.723 6.38213 181.133 6.44959 181.434 6.58452L181.388 8.28154Z" fill="white"/>
<path d="M191.01 23.8505C189.576 23.8505 188.278 23.4976 187.114 22.7918C185.961 22.086 185.062 21.1051 184.418 19.8492C183.774 18.583 183.452 17.1662 183.452 15.5989V14.9295C183.452 13.3103 183.763 11.852 184.387 10.5546C185.02 9.25719 185.898 8.24002 187.02 7.50309C188.143 6.75578 189.358 6.38213 190.667 6.38213C192.714 6.38213 194.335 7.08273 195.529 8.48393C196.735 9.87476 197.337 11.7794 197.337 14.1977V15.2408H185.306V15.5989C185.306 17.5087 185.852 19.1019 186.943 20.3786C188.044 21.6449 189.426 22.278 191.088 22.278C192.085 22.278 192.963 22.0964 193.722 21.7331C194.49 21.3698 195.187 20.7886 195.81 19.9894L196.979 20.8768C195.607 22.8592 193.618 23.8505 191.01 23.8505ZM190.667 7.97016C189.265 7.97016 188.08 8.48393 187.114 9.51148C186.158 10.539 185.576 11.9195 185.369 13.6528H195.483V13.4504C195.431 11.8313 194.968 10.5131 194.096 9.49591C193.223 8.47874 192.08 7.97016 190.667 7.97016Z" fill="white"/>
<path d="M211.51 19.2576C211.51 18.3339 211.136 17.5918 210.388 17.0313C209.65 16.4708 208.534 16.0349 207.037 15.7235C205.541 15.4017 204.378 15.0384 203.547 14.6337C202.726 14.2185 202.113 13.7151 201.708 13.1235C201.313 12.5319 201.116 11.8157 201.116 10.975C201.116 9.64641 201.671 8.5514 202.783 7.68992C203.895 6.81806 205.318 6.38213 207.053 6.38213C208.934 6.38213 210.44 6.8492 211.572 7.78333C212.715 8.70709 213.287 9.91627 213.287 11.4109H211.417C211.417 10.4249 211.001 9.60489 210.17 8.951C209.349 8.29711 208.31 7.97016 207.053 7.97016C205.827 7.97016 204.84 8.24521 204.092 8.79531C203.354 9.33503 202.986 10.0408 202.986 10.9127C202.986 11.7534 203.292 12.4073 203.905 12.8744C204.528 13.3311 205.656 13.7514 207.287 14.1355C208.928 14.5195 210.154 14.9295 210.965 15.3654C211.785 15.8013 212.393 16.3255 212.788 16.9379C213.183 17.5502 213.38 18.2924 213.38 19.1642C213.38 20.5862 212.804 21.7227 211.65 22.5738C210.508 23.4249 209.011 23.8505 207.162 23.8505C205.199 23.8505 203.604 23.3782 202.378 22.4337C201.162 21.4788 200.554 20.2748 200.554 18.8217H202.425C202.497 19.9115 202.954 20.7626 203.796 21.375C204.648 21.977 205.77 22.278 207.162 22.278C208.461 22.278 209.51 21.9926 210.31 21.4217C211.11 20.8508 211.51 20.1295 211.51 19.2576Z" fill="white"/>
<path d="M228.13 19.2576C228.13 18.3339 227.756 17.5918 227.008 17.0313C226.27 16.4708 225.153 16.0349 223.657 15.7235C222.161 15.4017 220.997 15.0384 220.166 14.6337C219.346 14.2185 218.733 13.7151 218.327 13.1235C217.933 12.5319 217.735 11.8157 217.735 10.975C217.735 9.64641 218.291 8.5514 219.403 7.68992C220.514 6.81806 221.938 6.38213 223.673 6.38213C225.553 6.38213 227.06 6.8492 228.192 7.78333C229.335 8.70709 229.906 9.91627 229.906 11.4109H228.036C228.036 10.4249 227.621 9.60489 226.79 8.951C225.969 8.29711 224.93 7.97016 223.673 7.97016C222.447 7.97016 221.46 8.24521 220.712 8.79531C219.974 9.33503 219.605 10.0408 219.605 10.9127C219.605 11.7534 219.912 12.4073 220.525 12.8744C221.148 13.3311 222.275 13.7514 223.907 14.1355C225.548 14.5195 226.774 14.9295 227.584 15.3654C228.405 15.8013 229.013 16.3255 229.408 16.9379C229.803 17.5502 230 18.2924 230 19.1642C230 20.5862 229.423 21.7227 228.27 22.5738C227.127 23.4249 225.631 23.8505 223.782 23.8505C221.818 23.8505 220.223 23.3782 218.998 22.4337C217.782 21.4788 217.174 20.2748 217.174 18.8217H219.044C219.117 19.9115 219.574 20.7626 220.416 21.375C221.268 21.977 222.39 22.278 223.782 22.278C225.081 22.278 226.13 21.9926 226.93 21.4217C227.73 20.8508 228.13 20.1295 228.13 19.2576Z" fill="white"/>
</svg>
