<svg width="250" height="34" viewBox="0 0 250 34" fill="none" xmlns="http://www.w3.org/2000/svg">
<path d="M71.8016 0H15.9554C14.2638 0 12.8926 1.35414 12.8926 3.02466V3.74155C12.8926 5.41207 14.2638 6.76621 15.9554 6.76621H31.7556C33.4472 6.76621 34.8184 8.12147 34.8184 9.79199V10.3709C34.8184 12.0414 33.4472 13.3955 31.7556 13.3955H24.903C23.2114 13.3955 21.8401 14.7497 21.8401 16.4202V17.4265C21.8401 19.0971 23.2114 20.4523 24.903 20.4523H37.1553C38.8469 20.4523 40.2181 21.8065 40.2181 23.477V24.0514C40.2181 25.7219 38.8469 27.0761 37.1553 27.0761H24.903C24.0577 27.0761 23.292 27.4149 22.7376 27.9624C22.1832 28.5098 21.8401 29.266 21.8401 30.1007C21.8401 31.7712 23.2114 33.1254 24.903 33.1254H66.8791C69.5351 33.1254 71.8402 31.3023 72.4139 28.7398L77.3364 6.81445C78.1237 3.31411 75.429 0 71.8016 0ZM69.9066 17.0193C69.3795 18.2152 68.6638 19.2597 67.7606 20.1517C66.8575 21.0436 65.7964 21.7504 64.5785 22.2709C63.3596 22.7915 62.0656 23.0518 60.6978 23.0518C59.7253 23.0518 58.8085 22.9295 57.9463 22.686V26.0933C57.9463 26.6206 57.8599 27.1131 57.6895 27.5731C57.518 28.033 57.2782 28.4279 56.9704 28.76C56.6625 29.091 56.2899 29.3546 55.8514 29.551C55.4128 29.7462 54.9277 29.8449 54.3938 29.8449C53.8871 29.8449 53.4077 29.7462 52.9567 29.551C52.5045 29.3546 52.1069 29.091 51.765 28.76C51.423 28.4279 51.1526 28.033 50.9538 27.5731C50.7562 27.1131 50.6562 26.6206 50.6562 26.0933V12.8929C50.6971 11.568 50.9913 10.3238 51.54 9.16148C52.0865 7.99918 52.8158 6.98161 53.7269 6.10989C54.6358 5.23817 55.69 4.5482 56.8886 4.0411C58.086 3.534 59.355 3.28157 60.6978 3.28157C62.0656 3.28157 63.3596 3.54185 64.5785 4.0613C65.7964 4.58186 66.8575 5.29539 67.7606 6.20077C68.6638 7.10727 69.3795 8.16186 69.9066 9.36454C70.4326 10.5672 70.6973 11.8451 70.6973 13.197C70.6973 14.5489 70.4326 15.8222 69.9066 17.0193Z" fill="#FEBA15"/>
<path d="M12.3457 20.828H9.57485C7.60152 20.828 6.00195 19.2484 6.00195 17.2996C6.00195 15.3509 7.60152 13.7712 9.57485 13.7712H12.3457C14.319 13.7712 15.9186 15.3509 15.9186 17.2996C15.9186 19.2484 14.319 20.828 12.3457 20.828Z" fill="#FEBA15"/>
<path d="M6.34373 7.05678H3.57289C1.59956 7.05678 0 5.47714 0 3.52839C0 1.57964 1.59956 0 3.57289 0H6.34373C8.31706 0 9.91662 1.57964 9.91662 3.52839C9.91662 5.47714 8.31706 7.05678 6.34373 7.05678Z" fill="#FEBA15"/>
<path d="M92.5056 16.9044V25.5858H87.4238V0.946289H97.0454C98.8974 0.946289 100.524 1.28474 101.924 1.96165C103.336 2.63856 104.42 3.60316 105.176 4.85544C105.933 6.09645 106.311 7.51232 106.311 9.10305C106.311 11.5174 105.481 13.424 103.821 14.8229C102.172 16.2106 99.8855 16.9044 96.9607 16.9044H92.5056ZM92.5056 12.7922H97.0454C98.3892 12.7922 99.4112 12.4763 100.111 11.8445C100.823 11.2128 101.179 10.3102 101.179 9.1369C101.179 7.92974 100.823 6.95387 100.111 6.20926C99.4 5.46466 98.4175 5.08108 97.164 5.05852H92.5056V12.7922Z" fill="#0F427C"/>
<path d="M120.395 25.5858C120.169 25.1458 120.006 24.5986 119.904 23.9443C118.718 25.2643 117.177 25.9243 115.28 25.9243C113.484 25.9243 111.993 25.4053 110.808 24.3674C109.633 23.3294 109.046 22.0208 109.046 20.4413C109.046 18.5008 109.763 17.0116 111.197 15.9737C112.643 14.9358 114.726 14.4112 117.448 14.3999H119.701V13.3507C119.701 12.5045 119.481 11.8276 119.04 11.3199C118.611 10.8123 117.928 10.5584 116.991 10.5584C116.166 10.5584 115.517 10.7558 115.043 11.1507C114.58 11.5456 114.348 12.0871 114.348 12.7753H109.453C109.453 11.7148 109.78 10.7333 110.435 9.83073C111.09 8.92819 112.016 8.22307 113.213 7.71539C114.41 7.19642 115.754 6.93694 117.245 6.93694C119.503 6.93694 121.293 7.50667 122.614 8.64614C123.947 9.77432 124.613 11.3651 124.613 13.4184V21.3551C124.625 23.0925 124.867 24.4069 125.342 25.2981V25.5858H120.395ZM116.347 22.1843C117.07 22.1843 117.736 22.0264 118.346 21.7105C118.955 21.3833 119.407 20.949 119.701 20.4074V17.2598H117.871C115.421 17.2598 114.116 18.106 113.958 19.7982L113.941 20.0859C113.941 20.6951 114.156 21.1972 114.585 21.592C115.014 21.9869 115.602 22.1843 116.347 22.1843Z" fill="#0F427C"/>
<path d="M135.428 18.6644L138.816 7.2754H144.067L136.699 28.4288L136.292 29.3934C135.197 31.7852 133.39 32.9811 130.871 32.9811C130.16 32.9811 129.437 32.8739 128.703 32.6595V28.9534L129.448 28.9704C130.375 28.9704 131.063 28.8293 131.515 28.5473C131.978 28.2652 132.339 27.7971 132.599 27.1427L133.175 25.6366L126.755 7.2754H132.023L135.428 18.6644Z" fill="#0F427C"/>
<path d="M155.221 11.3707L162.166 0.946289H164.656L156.491 13.0968L164.91 25.5858H162.403L155.221 14.8229L148.005 25.5858H145.531L153.967 13.0968L145.786 0.946289H148.276L155.221 11.3707Z" fill="#0F427C"/>
<path d="M183.703 16.6168C183.703 19.4711 183.071 21.7387 181.806 23.4197C180.541 25.0894 178.847 25.9243 176.724 25.9243C174.217 25.9243 172.298 25.0443 170.965 23.2843V32.6257H168.949V7.2754H170.829L170.931 9.86458C172.252 7.91282 174.167 6.93694 176.674 6.93694C178.864 6.93694 180.581 7.76616 181.823 9.42459C183.077 11.083 183.703 13.3845 183.703 16.3291V16.6168ZM181.671 16.2614C181.671 13.926 181.191 12.0815 180.231 10.7276C179.271 9.37382 177.933 8.69691 176.216 8.69691C174.974 8.69691 173.907 8.99588 173.015 9.59381C172.122 10.1918 171.439 11.0605 170.965 12.1999V20.9828C171.451 22.032 172.145 22.833 173.049 23.3859C173.952 23.9387 175.019 24.2151 176.25 24.2151C177.955 24.2151 179.282 23.5382 180.231 22.1843C181.191 20.8192 181.671 18.8449 181.671 16.2614Z" fill="#0F427C"/>
<path d="M197.161 9.00152C196.732 8.92254 196.274 8.88306 195.789 8.88306C194.524 8.88306 193.451 9.23844 192.57 9.94919C191.701 10.6487 191.08 11.6697 190.707 13.0122V25.5858H188.691V7.2754H190.673L190.707 10.1861C191.78 8.02 193.502 6.93694 195.873 6.93694C196.438 6.93694 196.884 7.01027 197.212 7.15694L197.161 9.00152Z" fill="#0F427C"/>
<path d="M207.62 25.9243C206.061 25.9243 204.65 25.5407 203.385 24.7735C202.132 24.0064 201.155 22.9402 200.455 21.5751C199.754 20.1987 199.404 18.6588 199.404 16.9552V16.2275C199.404 14.4676 199.743 12.8825 200.421 11.4722C201.109 10.062 202.064 8.95639 203.283 8.15538C204.503 7.34309 205.824 6.93694 207.247 6.93694C209.472 6.93694 211.234 7.69847 212.532 9.22151C213.842 10.7333 214.497 12.8035 214.497 15.4322V16.566H201.42V16.9552C201.42 19.0311 202.013 20.7628 203.199 22.1505C204.396 23.5269 205.898 24.2151 207.705 24.2151C208.789 24.2151 209.743 24.0176 210.567 23.6228C211.403 23.2279 212.16 22.5961 212.837 21.7274L214.108 22.692C212.617 24.8469 210.454 25.9243 207.62 25.9243ZM207.247 8.66306C205.723 8.66306 204.435 9.22151 203.385 10.3384C202.346 11.4553 201.714 12.9558 201.488 14.8399H212.481V14.6199C212.425 12.8599 211.922 11.4271 210.974 10.3215C210.025 9.21587 208.783 8.66306 207.247 8.66306Z" fill="#0F427C"/>
<path d="M229.903 20.9321C229.903 19.928 229.496 19.1213 228.683 18.5121C227.881 17.9029 226.667 17.429 225.041 17.0906C223.415 16.7409 222.15 16.346 221.247 15.906C220.354 15.4547 219.688 14.9076 219.248 14.2645C218.819 13.6214 218.604 12.843 218.604 11.9292C218.604 10.4851 219.208 9.29485 220.417 8.35845C221.625 7.41078 223.172 6.93694 225.058 6.93694C227.102 6.93694 228.739 7.44462 229.97 8.45999C231.213 9.46407 231.834 10.7784 231.834 12.403H229.801C229.801 11.3312 229.349 10.44 228.446 9.7292C227.554 9.01844 226.424 8.66306 225.058 8.66306C223.725 8.66306 222.653 8.96203 221.84 9.55997C221.038 10.1466 220.637 10.9138 220.637 11.8615C220.637 12.7753 220.97 13.486 221.636 13.9937C222.314 14.4901 223.539 14.947 225.312 15.3645C227.096 15.7819 228.429 16.2275 229.31 16.7014C230.202 17.1752 230.863 17.7449 231.292 18.4106C231.721 19.0762 231.935 19.8828 231.935 20.8305C231.935 22.3761 231.309 23.6115 230.055 24.5366C228.813 25.4617 227.187 25.9243 225.177 25.9243C223.042 25.9243 221.309 25.4109 219.976 24.3843C218.655 23.3464 217.994 22.0377 217.994 20.4582H220.027C220.106 21.6428 220.603 22.5679 221.518 23.2335C222.444 23.8879 223.663 24.2151 225.177 24.2151C226.588 24.2151 227.729 23.9048 228.598 23.2843C229.468 22.6638 229.903 21.8797 229.903 20.9321Z" fill="#0F427C"/>
<path d="M247.968 20.9321C247.968 19.928 247.561 19.1213 246.748 18.5121C245.946 17.9029 244.732 17.429 243.106 17.0906C241.48 16.7409 240.215 16.346 239.312 15.906C238.419 15.4547 237.753 14.9076 237.313 14.2645C236.884 13.6214 236.669 12.843 236.669 11.9292C236.669 10.4851 237.273 9.29485 238.481 8.35845C239.69 7.41078 241.237 6.93694 243.123 6.93694C245.167 6.93694 246.804 7.44462 248.035 8.45999C249.277 9.46407 249.899 10.7784 249.899 12.403H247.866C247.866 11.3312 247.414 10.44 246.511 9.7292C245.619 9.01844 244.489 8.66306 243.123 8.66306C241.79 8.66306 240.717 8.96203 239.904 9.55997C239.103 10.1466 238.702 10.9138 238.702 11.8615C238.702 12.7753 239.035 13.486 239.701 13.9937C240.379 14.4901 241.604 14.947 243.377 15.3645C245.161 15.7819 246.494 16.2275 247.375 16.7014C248.267 17.1752 248.927 17.7449 249.357 18.4106C249.786 19.0762 250 19.8828 250 20.8305C250 22.3761 249.373 23.6115 248.12 24.5366C246.878 25.4617 245.252 25.9243 243.241 25.9243C241.107 25.9243 239.374 25.4109 238.041 24.3843C236.72 23.3464 236.059 22.0377 236.059 20.4582H238.092C238.171 21.6428 238.668 22.5679 239.583 23.2335C240.509 23.8879 241.728 24.2151 243.241 24.2151C244.653 24.2151 245.794 23.9048 246.663 23.2843C247.533 22.6638 247.968 21.8797 247.968 20.9321Z" fill="#0F427C"/>
</svg>
