<svg xmlns="http://www.w3.org/2000/svg" viewBox="0 0 63.24 51.39"><defs><style>.cls-1{fill:#191919;}</style></defs><title>hmg_wishlist</title><g id="Layer_2" data-name="Layer 2"><g id="Layer_1-2" data-name="Layer 1"><path class="cls-1" d="M31.61,51.39a3.9,3.9,0,0,1-2.68-1L5.16,28.07a15.71,15.71,0,0,1,0-23.28A18,18,0,0,1,17.52,0h0A18,18,0,0,1,29.9,4.78l1.72,1.61L33.33,4.8a18.38,18.38,0,0,1,24.74,0,15.7,15.7,0,0,1,0,23.28L34.29,50.35A3.9,3.9,0,0,1,31.61,51.39ZM17.52,4A14,14,0,0,0,7.89,7.71,11.88,11.88,0,0,0,4,16.42a11.91,11.91,0,0,0,3.9,8.73L31.61,47.38,55.34,25.16a11.89,11.89,0,0,0,3.9-8.72,11.89,11.89,0,0,0-3.9-8.72,14.32,14.32,0,0,0-19.28,0l-4.45,4.14L27.17,7.71A14,14,0,0,0,17.52,4Z"/></g></g></svg>