<svg xmlns="http://www.w3.org/2000/svg" viewBox="0 0 50.35 60.93"><defs><style>.cls-1{fill:#191919;}</style></defs><title>hmg_user</title><g id="Layer_2" data-name="Layer 2"><g id="Layer_1-2" data-name="Layer 1"><path class="cls-1" d="M50.35,60.93H0v-2c0-14.33,11.29-26,25.17-26s25.17,11.66,25.17,26Zm-46.26-4H46.26c-1-11.19-10.06-20-21.09-20S5.06,45.74,4.09,56.93Z"/><path class="cls-1" d="M25.17,31.46A15.64,15.64,0,0,1,9.66,15.73a15.52,15.52,0,1,1,31,0A15.64,15.64,0,0,1,25.17,31.46ZM25.17,4A11.64,11.64,0,0,0,13.66,15.73a11.52,11.52,0,1,0,23,0A11.64,11.64,0,0,0,25.17,4Z"/></g></g></svg>