<svg width="374" height="132" viewBox="0 0 374 132" fill="none" xmlns="http://www.w3.org/2000/svg">
<rect x="325.508" y="65.5" width="47" height="47" rx="19.5" stroke="#959595"/>
<rect x="319.008" y="60" width="48" height="48" rx="20" fill="#11BDCF"/>
<path d="M344.008 83H338.008C337.743 83 337.488 83.1054 337.301 83.2929C337.113 83.4804 337.008 83.7348 337.008 84C337.008 84.2652 337.113 84.5196 337.301 84.7071C337.488 84.8946 337.743 85 338.008 85H344.008C344.273 85 344.527 84.8946 344.715 84.7071C344.902 84.5196 345.008 84.2652 345.008 84C345.008 83.7348 344.902 83.4804 344.715 83.2929C344.527 83.1054 344.273 83 344.008 83ZM348.008 79H338.008C337.743 79 337.488 79.1054 337.301 79.2929C337.113 79.4804 337.008 79.7348 337.008 80C337.008 80.2652 337.113 80.5196 337.301 80.7071C337.488 80.8946 337.743 81 338.008 81H348.008C348.273 81 348.527 80.8946 348.715 80.7071C348.902 80.5196 349.008 80.2652 349.008 80C349.008 79.7348 348.902 79.4804 348.715 79.2929C348.527 79.1054 348.273 79 348.008 79ZM350.008 74H336.008C335.212 74 334.449 74.3161 333.886 74.8787C333.324 75.4413 333.008 76.2044 333.008 77V87C333.008 87.7956 333.324 88.5587 333.886 89.1213C334.449 89.6839 335.212 90 336.008 90H347.598L351.298 93.71C351.391 93.8027 351.502 93.876 351.624 93.9258C351.746 93.9755 351.876 94.0008 352.008 94C352.139 94.0034 352.269 93.976 352.388 93.92C352.57 93.845 352.727 93.7176 352.837 93.5539C352.947 93.3901 353.007 93.1974 353.008 93V77C353.008 76.2044 352.692 75.4413 352.129 74.8787C351.567 74.3161 350.803 74 350.008 74ZM351.008 90.59L348.718 88.29C348.624 88.1973 348.514 88.124 348.392 88.0742C348.27 88.0245 348.139 87.9992 348.008 88H336.008C335.743 88 335.488 87.8946 335.301 87.7071C335.113 87.5196 335.008 87.2652 335.008 87V77C335.008 76.7348 335.113 76.4804 335.301 76.2929C335.488 76.1054 335.743 76 336.008 76H350.008C350.273 76 350.527 76.1054 350.715 76.2929C350.902 76.4804 351.008 76.7348 351.008 77V90.59Z" fill="#113255"/>
<rect x="52.5078" y="0.5" width="250" height="75" rx="15.5" fill="white"/>
<path d="M86.2958 33H84.8558V27.672H78.9998V33H77.5598V21.576H78.9998V26.408H84.8558V21.576H86.2958V33ZM92.5392 24.264C93.2752 24.264 93.9045 24.424 94.4272 24.744C94.9605 25.064 95.3659 25.5173 95.6432 26.104C95.9312 26.68 96.0752 27.3573 96.0752 28.136V28.984H90.2032C90.2245 29.9547 90.4699 30.696 90.9392 31.208C91.4192 31.7093 92.0859 31.96 92.9392 31.96C93.4832 31.96 93.9632 31.912 94.3792 31.816C94.8059 31.7093 95.2432 31.56 95.6912 31.368V32.6C95.2539 32.792 94.8219 32.9307 94.3952 33.016C93.9685 33.112 93.4619 33.16 92.8752 33.16C92.0645 33.16 91.3445 32.9947 90.7152 32.664C90.0965 32.3333 89.6112 31.8427 89.2592 31.192C88.9179 30.5307 88.7472 29.7253 88.7472 28.776C88.7472 27.8373 88.9019 27.032 89.2112 26.36C89.5312 25.688 89.9739 25.1707 90.5392 24.808C91.1152 24.4453 91.7819 24.264 92.5392 24.264ZM92.5232 25.416C91.8512 25.416 91.3179 25.6347 90.9232 26.072C90.5392 26.4987 90.3099 27.096 90.2352 27.864H94.6032C94.5925 27.1387 94.4219 26.552 94.0912 26.104C93.7605 25.6453 93.2379 25.416 92.5232 25.416ZM99.6664 33H98.2584V20.84H99.6664V33ZM103.791 33H102.383V20.84H103.791V33ZM113.964 28.696C113.964 30.1147 113.602 31.2133 112.876 31.992C112.162 32.7707 111.191 33.16 109.964 33.16C109.207 33.16 108.53 32.9893 107.932 32.648C107.346 32.296 106.882 31.7893 106.54 31.128C106.199 30.456 106.028 29.6453 106.028 28.696C106.028 27.2773 106.386 26.184 107.1 25.416C107.815 24.648 108.786 24.264 110.012 24.264C110.791 24.264 111.474 24.44 112.06 24.792C112.658 25.1333 113.122 25.6347 113.452 26.296C113.794 26.9467 113.964 27.7467 113.964 28.696ZM107.484 28.696C107.484 29.7093 107.682 30.5147 108.076 31.112C108.482 31.6987 109.122 31.992 109.996 31.992C110.86 31.992 111.495 31.6987 111.9 31.112C112.306 30.5147 112.508 29.7093 112.508 28.696C112.508 27.6827 112.306 26.888 111.9 26.312C111.495 25.736 110.855 25.448 109.98 25.448C109.106 25.448 108.471 25.736 108.076 26.312C107.682 26.888 107.484 27.6827 107.484 28.696ZM127.712 33L126.336 29.464H121.808L120.448 33H118.992L123.456 21.528H124.752L129.2 33H127.712ZM124.624 24.728C124.592 24.6427 124.539 24.488 124.464 24.264C124.39 24.04 124.315 23.8107 124.24 23.576C124.176 23.3307 124.123 23.144 124.08 23.016C124.006 23.3467 123.92 23.672 123.824 23.992C123.728 24.3013 123.648 24.5467 123.584 24.728L122.288 28.184H125.904L124.624 24.728ZM134.699 24.264C135.723 24.264 136.496 24.5147 137.019 25.016C137.542 25.5067 137.803 26.3067 137.803 27.416V33H136.411V27.512C136.411 26.136 135.771 25.448 134.491 25.448C133.542 25.448 132.886 25.7147 132.523 26.248C132.16 26.7813 131.979 27.5493 131.979 28.552V33H130.571V24.424H131.707L131.915 25.592H131.995C132.272 25.144 132.656 24.8133 133.147 24.6C133.638 24.376 134.155 24.264 134.699 24.264ZM143.502 33.16C142.435 33.16 141.582 32.792 140.942 32.056C140.302 31.3093 139.982 30.2 139.982 28.728C139.982 27.256 140.302 26.1467 140.942 25.4C141.592 24.6427 142.451 24.264 143.518 24.264C144.179 24.264 144.718 24.3867 145.134 24.632C145.56 24.8773 145.907 25.176 146.174 25.528H146.27C146.259 25.3893 146.238 25.1867 146.206 24.92C146.184 24.6427 146.174 24.424 146.174 24.264V20.84H147.582V33H146.446L146.238 31.848H146.174C145.918 32.2107 145.576 32.52 145.15 32.776C144.723 33.032 144.174 33.16 143.502 33.16ZM143.726 31.992C144.632 31.992 145.267 31.7467 145.63 31.256C146.003 30.7547 146.19 30.0027 146.19 29V28.744C146.19 27.6773 146.014 26.8613 145.662 26.296C145.31 25.72 144.659 25.432 143.71 25.432C142.952 25.432 142.382 25.736 141.998 26.344C141.624 26.9413 141.438 27.7467 141.438 28.76C141.438 29.784 141.624 30.5787 141.998 31.144C142.382 31.7093 142.958 31.992 143.726 31.992ZM154.305 24.264C154.465 24.264 154.636 24.2747 154.817 24.296C155.009 24.3067 155.175 24.328 155.313 24.36L155.137 25.656C154.999 25.624 154.844 25.5973 154.673 25.576C154.513 25.5547 154.359 25.544 154.209 25.544C153.772 25.544 153.361 25.6667 152.977 25.912C152.593 26.1467 152.284 26.4827 152.049 26.92C151.825 27.3467 151.713 27.848 151.713 28.424V33H150.305V24.424H151.457L151.617 25.992H151.681C151.959 25.5227 152.316 25.1173 152.753 24.776C153.191 24.4347 153.708 24.264 154.305 24.264ZM159.914 24.264C160.65 24.264 161.28 24.424 161.802 24.744C162.336 25.064 162.741 25.5173 163.018 26.104C163.306 26.68 163.45 27.3573 163.45 28.136V28.984H157.578C157.6 29.9547 157.845 30.696 158.314 31.208C158.794 31.7093 159.461 31.96 160.314 31.96C160.858 31.96 161.338 31.912 161.754 31.816C162.181 31.7093 162.618 31.56 163.066 31.368V32.6C162.629 32.792 162.197 32.9307 161.77 33.016C161.344 33.112 160.837 33.16 160.25 33.16C159.44 33.16 158.72 32.9947 158.09 32.664C157.472 32.3333 156.986 31.8427 156.634 31.192C156.293 30.5307 156.122 29.7253 156.122 28.776C156.122 27.8373 156.277 27.032 156.586 26.36C156.906 25.688 157.349 25.1707 157.914 24.808C158.49 24.4453 159.157 24.264 159.914 24.264ZM159.898 25.416C159.226 25.416 158.693 25.6347 158.298 26.072C157.914 26.4987 157.685 27.096 157.61 27.864H161.978C161.968 27.1387 161.797 26.552 161.466 26.104C161.136 25.6453 160.613 25.416 159.898 25.416ZM170.857 28.152C170.718 27.7147 170.596 27.288 170.489 26.872C170.393 26.4453 170.318 26.1147 170.265 25.88H170.201C170.158 26.1147 170.089 26.4453 169.993 26.872C169.897 27.288 169.774 27.72 169.625 28.168L168.089 32.984H166.489L164.137 24.408H165.593L166.777 28.984C166.894 29.4427 167.006 29.9067 167.113 30.376C167.22 30.8453 167.294 31.2347 167.337 31.544H167.401C167.444 31.3627 167.492 31.1387 167.545 30.872C167.609 30.6053 167.678 30.328 167.753 30.04C167.828 29.7413 167.902 29.4747 167.977 29.24L169.497 24.408H171.033L172.505 29.24C172.622 29.6027 172.734 29.9973 172.841 30.424C172.958 30.8507 173.038 31.2187 173.081 31.528H173.145C173.177 31.2613 173.246 30.8933 173.353 30.424C173.47 29.9547 173.593 29.4747 173.721 28.984L174.921 24.408H176.361L173.977 32.984H172.329L170.857 28.152ZM179.147 29.784H178.235L177.835 21.576H179.547L179.147 29.784ZM177.691 32.136C177.691 31.7413 177.787 31.464 177.979 31.304C178.171 31.144 178.406 31.064 178.683 31.064C178.95 31.064 179.179 31.144 179.371 31.304C179.574 31.464 179.675 31.7413 179.675 32.136C179.675 32.52 179.574 32.7973 179.371 32.968C179.179 33.1387 178.95 33.224 178.683 33.224C178.406 33.224 178.171 33.1387 177.979 32.968C177.787 32.7973 177.691 32.52 177.691 32.136ZM188.064 31.32C187.926 31.8853 187.723 32.504 187.456 33.176C187.2 33.8587 186.944 34.488 186.688 35.064H185.648C185.798 34.456 185.947 33.7893 186.096 33.064C186.256 32.3387 186.374 31.6987 186.448 31.144H187.952L188.064 31.32ZM199.942 26.968H203.894V32.568C203.275 32.7707 202.651 32.92 202.022 33.016C201.392 33.112 200.678 33.16 199.878 33.16C198.694 33.16 197.696 32.9253 196.886 32.456C196.075 31.976 195.456 31.2987 195.03 30.424C194.614 29.5387 194.406 28.4933 194.406 27.288C194.406 26.0933 194.64 25.0587 195.11 24.184C195.579 23.3093 196.251 22.632 197.126 22.152C198.011 21.6613 199.078 21.416 200.326 21.416C200.966 21.416 201.568 21.4747 202.134 21.592C202.71 21.7093 203.243 21.8747 203.734 22.088L203.19 23.336C202.784 23.1547 202.326 23 201.814 22.872C201.312 22.744 200.79 22.68 200.246 22.68C198.88 22.68 197.814 23.0907 197.046 23.912C196.288 24.7333 195.91 25.8587 195.91 27.288C195.91 28.1947 196.054 29 196.342 29.704C196.64 30.3973 197.104 30.9413 197.734 31.336C198.363 31.72 199.19 31.912 200.214 31.912C200.715 31.912 201.142 31.8853 201.494 31.832C201.846 31.7787 202.166 31.7147 202.454 31.64V28.248H199.942V26.968ZM210.43 24.264C210.59 24.264 210.761 24.2747 210.942 24.296C211.134 24.3067 211.3 24.328 211.438 24.36L211.262 25.656C211.124 25.624 210.969 25.5973 210.798 25.576C210.638 25.5547 210.484 25.544 210.334 25.544C209.897 25.544 209.486 25.6667 209.102 25.912C208.718 26.1467 208.409 26.4827 208.174 26.92C207.95 27.3467 207.838 27.848 207.838 28.424V33H206.43V24.424H207.582L207.742 25.992H207.806C208.084 25.5227 208.441 25.1173 208.878 24.776C209.316 24.4347 209.833 24.264 210.43 24.264ZM216.039 24.264C216.775 24.264 217.405 24.424 217.927 24.744C218.461 25.064 218.866 25.5173 219.143 26.104C219.431 26.68 219.575 27.3573 219.575 28.136V28.984H213.703C213.725 29.9547 213.97 30.696 214.439 31.208C214.919 31.7093 215.586 31.96 216.439 31.96C216.983 31.96 217.463 31.912 217.879 31.816C218.306 31.7093 218.743 31.56 219.191 31.368V32.6C218.754 32.792 218.322 32.9307 217.895 33.016C217.469 33.112 216.962 33.16 216.375 33.16C215.565 33.16 214.845 32.9947 214.215 32.664C213.597 32.3333 213.111 31.8427 212.759 31.192C212.418 30.5307 212.247 29.7253 212.247 28.776C212.247 27.8373 212.402 27.032 212.711 26.36C213.031 25.688 213.474 25.1707 214.039 24.808C214.615 24.4453 215.282 24.264 216.039 24.264ZM216.023 25.416C215.351 25.416 214.818 25.6347 214.423 26.072C214.039 26.4987 213.81 27.096 213.735 27.864H218.103C218.093 27.1387 217.922 26.552 217.591 26.104C217.261 25.6453 216.738 25.416 216.023 25.416ZM225.006 24.28C226.052 24.28 226.825 24.5093 227.326 24.968C227.828 25.4267 228.078 26.1573 228.078 27.16V33H227.054L226.782 31.784H226.718C226.345 32.2533 225.95 32.6 225.534 32.824C225.129 33.048 224.564 33.16 223.838 33.16C223.06 33.16 222.414 32.9573 221.902 32.552C221.39 32.136 221.134 31.4907 221.134 30.616C221.134 29.7627 221.47 29.1067 222.142 28.648C222.814 28.1787 223.849 27.9227 225.246 27.88L226.702 27.832V27.32C226.702 26.6053 226.548 26.1093 226.238 25.832C225.929 25.5547 225.492 25.416 224.926 25.416C224.478 25.416 224.052 25.4853 223.646 25.624C223.241 25.752 222.862 25.9013 222.51 26.072L222.078 25.016C222.452 24.8133 222.894 24.6427 223.406 24.504C223.918 24.3547 224.452 24.28 225.006 24.28ZM225.422 28.856C224.356 28.8987 223.614 29.0693 223.198 29.368C222.793 29.6667 222.59 30.088 222.59 30.632C222.59 31.112 222.734 31.464 223.022 31.688C223.321 31.912 223.7 32.024 224.158 32.024C224.884 32.024 225.486 31.8267 225.966 31.432C226.446 31.0267 226.686 30.408 226.686 29.576V28.808L225.422 28.856ZM233.591 32.008C233.805 32.008 234.023 31.992 234.247 31.96C234.471 31.9173 234.653 31.8747 234.791 31.832V32.904C234.642 32.9787 234.429 33.0373 234.151 33.08C233.874 33.1333 233.607 33.16 233.351 33.16C232.903 33.16 232.487 33.0853 232.103 32.936C231.73 32.776 231.426 32.504 231.191 32.12C230.957 31.736 230.839 31.1973 230.839 30.504V25.512H229.623V24.84L230.855 24.28L231.415 22.456H232.247V24.424H234.727V25.512H232.247V30.472C232.247 30.9947 232.37 31.384 232.615 31.64C232.871 31.8853 233.197 32.008 233.591 32.008ZM240.553 22.104C240.553 21.7947 240.633 21.5707 240.793 21.432C240.953 21.2827 241.15 21.208 241.385 21.208C241.598 21.208 241.785 21.2827 241.945 21.432C242.115 21.5707 242.201 21.7947 242.201 22.104C242.201 22.4027 242.115 22.6267 241.945 22.776C241.785 22.9253 241.598 23 241.385 23C241.15 23 240.953 22.9253 240.793 22.776C240.633 22.6267 240.553 22.4027 240.553 22.104ZM239.657 36.84C239.39 36.84 239.155 36.8187 238.953 36.776C238.75 36.744 238.574 36.7013 238.425 36.648V35.512C238.585 35.5547 238.75 35.592 238.921 35.624C239.091 35.656 239.278 35.672 239.481 35.672C239.822 35.672 240.105 35.576 240.329 35.384C240.553 35.2027 240.665 34.8507 240.665 34.328V24.424H242.073V34.28C242.073 35.08 241.881 35.704 241.497 36.152C241.113 36.6107 240.499 36.84 239.657 36.84ZM252.246 28.696C252.246 30.1147 251.883 31.2133 251.158 31.992C250.443 32.7707 249.472 33.16 248.246 33.16C247.488 33.16 246.811 32.9893 246.214 32.648C245.627 32.296 245.163 31.7893 244.822 31.128C244.48 30.456 244.31 29.6453 244.31 28.696C244.31 27.2773 244.667 26.184 245.382 25.416C246.096 24.648 247.067 24.264 248.294 24.264C249.072 24.264 249.755 24.44 250.342 24.792C250.939 25.1333 251.403 25.6347 251.734 26.296C252.075 26.9467 252.246 27.7467 252.246 28.696ZM245.766 28.696C245.766 29.7093 245.963 30.5147 246.358 31.112C246.763 31.6987 247.403 31.992 248.278 31.992C249.142 31.992 249.776 31.6987 250.182 31.112C250.587 30.5147 250.79 29.7093 250.79 28.696C250.79 27.6827 250.587 26.888 250.182 26.312C249.776 25.736 249.136 25.448 248.262 25.448C247.387 25.448 246.752 25.736 246.358 26.312C245.963 26.888 245.766 27.6827 245.766 28.696ZM255.885 23.8C255.885 24.1627 255.875 24.504 255.853 24.824C255.843 25.1333 255.827 25.3787 255.805 25.56H255.885C256.131 25.1973 256.467 24.8933 256.893 24.648C257.32 24.4027 257.869 24.28 258.541 24.28C259.608 24.28 260.461 24.6533 261.101 25.4C261.752 26.136 262.077 27.24 262.077 28.712C262.077 30.184 261.752 31.2933 261.101 32.04C260.451 32.7867 259.597 33.16 258.541 33.16C257.869 33.16 257.32 33.0373 256.893 32.792C256.467 32.5467 256.131 32.2533 255.885 31.912H255.773L255.485 33H254.477V20.84H255.885V23.8ZM258.301 25.448C257.395 25.448 256.765 25.7093 256.413 26.232C256.061 26.7547 255.885 27.5653 255.885 28.664V28.728C255.885 29.784 256.056 30.5947 256.397 31.16C256.749 31.7147 257.395 31.992 258.333 31.992C259.101 31.992 259.672 31.7093 260.045 31.144C260.429 30.5787 260.621 29.7627 260.621 28.696C260.621 26.5307 259.848 25.448 258.301 25.448ZM82.9518 53.632C82.9518 54.464 82.6425 55.0933 82.0238 55.52C81.4051 55.9467 80.5731 56.16 79.5278 56.16C78.9305 56.16 78.4131 56.112 77.9758 56.016C77.5491 55.92 77.1705 55.7867 76.8398 55.616V54.336C77.1811 54.5067 77.5918 54.6667 78.0718 54.816C78.5625 54.9547 79.0585 55.024 79.5598 55.024C80.2745 55.024 80.7918 54.912 81.1118 54.688C81.4318 54.4533 81.5918 54.144 81.5918 53.76C81.5918 53.5467 81.5331 53.3547 81.4158 53.184C81.2985 53.0133 81.0851 52.8427 80.7758 52.672C80.4771 52.5013 80.0451 52.3093 79.4798 52.096C78.9251 51.8827 78.4505 51.6693 78.0558 51.456C77.6611 51.2427 77.3571 50.9867 77.1438 50.688C76.9305 50.3893 76.8238 50.0053 76.8238 49.536C76.8238 48.8107 77.1171 48.2507 77.7038 47.856C78.3011 47.4613 79.0798 47.264 80.0398 47.264C80.5625 47.264 81.0478 47.3173 81.4958 47.424C81.9545 47.52 82.3811 47.6587 82.7758 47.84L82.2958 48.96C81.9331 48.8107 81.5545 48.6827 81.1598 48.576C80.7651 48.4693 80.3598 48.416 79.9438 48.416C79.3678 48.416 78.9251 48.512 78.6158 48.704C78.3171 48.8853 78.1678 49.136 78.1678 49.456C78.1678 49.6907 78.2371 49.8933 78.3758 50.064C78.5145 50.224 78.7438 50.384 79.0638 50.544C79.3945 50.6933 79.8318 50.8747 80.3758 51.088C80.9198 51.2907 81.3838 51.4987 81.7678 51.712C82.1518 51.9253 82.4451 52.1867 82.6478 52.496C82.8505 52.7947 82.9518 53.1733 82.9518 53.632ZM92.4801 51.696C92.4801 53.1147 92.1174 54.2133 91.3921 54.992C90.6774 55.7707 89.7067 56.16 88.4801 56.16C87.7227 56.16 87.0454 55.9893 86.4481 55.648C85.8614 55.296 85.3974 54.7893 85.0561 54.128C84.7147 53.456 84.5441 52.6453 84.5441 51.696C84.5441 50.2773 84.9014 49.184 85.6161 48.416C86.3307 47.648 87.3014 47.264 88.5281 47.264C89.3067 47.264 89.9894 47.44 90.5761 47.792C91.1734 48.1333 91.6374 48.6347 91.9681 49.296C92.3094 49.9467 92.4801 50.7467 92.4801 51.696ZM86.0001 51.696C86.0001 52.7093 86.1974 53.5147 86.5921 54.112C86.9974 54.6987 87.6374 54.992 88.5121 54.992C89.3761 54.992 90.0107 54.6987 90.4161 54.112C90.8214 53.5147 91.0241 52.7093 91.0241 51.696C91.0241 50.6827 90.8214 49.888 90.4161 49.312C90.0107 48.736 89.3707 48.448 88.4961 48.448C87.6214 48.448 86.9867 48.736 86.5921 49.312C86.1974 49.888 86.0001 50.6827 86.0001 51.696ZM96.1196 56H94.7116V43.84H96.1196V56ZM100.725 56L97.4766 47.424H98.9806L100.805 52.48C100.89 52.7147 100.981 52.976 101.077 53.264C101.173 53.552 101.258 53.8293 101.333 54.096C101.407 54.352 101.461 54.5707 101.493 54.752H101.557C101.599 54.5707 101.658 54.3467 101.733 54.08C101.818 53.8133 101.909 53.536 102.005 53.248C102.111 52.96 102.202 52.704 102.277 52.48L104.101 47.424H105.605L102.341 56H100.725ZM107.682 44.208C107.895 44.208 108.082 44.2827 108.242 44.432C108.412 44.5707 108.498 44.7947 108.498 45.104C108.498 45.4027 108.412 45.6267 108.242 45.776C108.082 45.9253 107.895 46 107.682 46C107.447 46 107.25 45.9253 107.09 45.776C106.93 45.6267 106.85 45.4027 106.85 45.104C106.85 44.7947 106.93 44.5707 107.09 44.432C107.25 44.2827 107.447 44.208 107.682 44.208ZM108.37 47.424V56H106.962V47.424H108.37ZM115.215 47.264C116.239 47.264 117.012 47.5147 117.535 48.016C118.057 48.5067 118.319 49.3067 118.319 50.416V56H116.927V50.512C116.927 49.136 116.287 48.448 115.007 48.448C114.057 48.448 113.401 48.7147 113.039 49.248C112.676 49.7813 112.495 50.5493 112.495 51.552V56H111.087V47.424H112.223L112.431 48.592H112.511C112.788 48.144 113.172 47.8133 113.663 47.6C114.153 47.376 114.671 47.264 115.215 47.264ZM124.017 47.264C124.583 47.264 125.089 47.3707 125.537 47.584C125.996 47.7973 126.385 48.1227 126.705 48.56H126.785L126.977 47.424H128.097V56.144C128.097 57.3707 127.783 58.2933 127.153 58.912C126.535 59.5307 125.569 59.84 124.257 59.84C122.999 59.84 121.969 59.6587 121.169 59.296V58C122.012 58.448 123.068 58.672 124.337 58.672C125.073 58.672 125.649 58.4533 126.065 58.016C126.492 57.5893 126.705 57.0027 126.705 56.256V55.92C126.705 55.792 126.711 55.6107 126.721 55.376C126.732 55.1307 126.743 54.96 126.753 54.864H126.689C126.113 55.728 125.228 56.16 124.033 56.16C122.924 56.16 122.055 55.7707 121.425 54.992C120.807 54.2133 120.497 53.1253 120.497 51.728C120.497 50.3627 120.807 49.28 121.425 48.48C122.055 47.6693 122.919 47.264 124.017 47.264ZM124.209 48.448C123.495 48.448 122.94 48.736 122.545 49.312C122.151 49.8773 121.953 50.688 121.953 51.744C121.953 52.8 122.145 53.6107 122.529 54.176C122.924 54.7307 123.495 55.008 124.241 55.008C125.105 55.008 125.735 54.7787 126.129 54.32C126.524 53.8507 126.721 53.0987 126.721 52.064V51.728C126.721 50.5547 126.519 49.7173 126.113 49.216C125.708 48.704 125.073 48.448 124.209 48.448ZM137.841 55.008C138.055 55.008 138.273 54.992 138.497 54.96C138.721 54.9173 138.903 54.8747 139.041 54.832V55.904C138.892 55.9787 138.679 56.0373 138.401 56.08C138.124 56.1333 137.857 56.16 137.601 56.16C137.153 56.16 136.737 56.0853 136.353 55.936C135.98 55.776 135.676 55.504 135.441 55.12C135.207 54.736 135.089 54.1973 135.089 53.504V48.512H133.873V47.84L135.105 47.28L135.665 45.456H136.497V47.424H138.977V48.512H136.497V53.472C136.497 53.9947 136.62 54.384 136.865 54.64C137.121 54.8853 137.447 55.008 137.841 55.008ZM142.166 47.408C142.166 47.8347 142.14 48.2347 142.086 48.608H142.182C142.46 48.1707 142.833 47.84 143.302 47.616C143.782 47.392 144.3 47.28 144.854 47.28C145.9 47.28 146.684 47.5307 147.206 48.032C147.729 48.5227 147.99 49.3173 147.99 50.416V56H146.598V50.512C146.598 49.136 145.958 48.448 144.678 48.448C143.718 48.448 143.057 48.72 142.694 49.264C142.342 49.7973 142.166 50.5653 142.166 51.568V56H140.758V43.84H142.166V47.408ZM153.897 47.28C154.942 47.28 155.716 47.5093 156.217 47.968C156.718 48.4267 156.969 49.1573 156.969 50.16V56H155.945L155.673 54.784H155.609C155.236 55.2533 154.841 55.6 154.425 55.824C154.02 56.048 153.454 56.16 152.729 56.16C151.95 56.16 151.305 55.9573 150.793 55.552C150.281 55.136 150.025 54.4907 150.025 53.616C150.025 52.7627 150.361 52.1067 151.033 51.648C151.705 51.1787 152.74 50.9227 154.137 50.88L155.593 50.832V50.32C155.593 49.6053 155.438 49.1093 155.129 48.832C154.82 48.5547 154.382 48.416 153.817 48.416C153.369 48.416 152.942 48.4853 152.537 48.624C152.132 48.752 151.753 48.9013 151.401 49.072L150.969 48.016C151.342 47.8133 151.785 47.6427 152.297 47.504C152.809 47.3547 153.342 47.28 153.897 47.28ZM154.313 51.856C153.246 51.8987 152.505 52.0693 152.089 52.368C151.684 52.6667 151.481 53.088 151.481 53.632C151.481 54.112 151.625 54.464 151.913 54.688C152.212 54.912 152.59 55.024 153.049 55.024C153.774 55.024 154.377 54.8267 154.857 54.432C155.337 54.0267 155.577 53.408 155.577 52.576V51.808L154.313 51.856ZM162.482 55.008C162.695 55.008 162.914 54.992 163.138 54.96C163.362 54.9173 163.543 54.8747 163.682 54.832V55.904C163.532 55.9787 163.319 56.0373 163.042 56.08C162.764 56.1333 162.498 56.16 162.242 56.16C161.794 56.16 161.378 56.0853 160.994 55.936C160.62 55.776 160.316 55.504 160.082 55.12C159.847 54.736 159.73 54.1973 159.73 53.504V48.512H158.514V47.84L159.746 47.28L160.306 45.456H161.138V47.424H163.618V48.512H161.138V53.472C161.138 53.9947 161.26 54.384 161.506 54.64C161.762 54.8853 162.087 55.008 162.482 55.008ZM173.635 47.264C174.691 47.264 175.539 47.632 176.179 48.368C176.83 49.104 177.155 50.2133 177.155 51.696C177.155 53.1573 176.83 54.2667 176.179 55.024C175.539 55.7813 174.686 56.16 173.619 56.16C172.958 56.16 172.409 56.0373 171.971 55.792C171.545 55.536 171.209 55.2427 170.963 54.912H170.867C170.889 55.0933 170.91 55.3227 170.931 55.6C170.953 55.8773 170.963 56.1173 170.963 56.32V59.84H169.555V47.424H170.707L170.899 48.592H170.963C171.219 48.2187 171.555 47.904 171.971 47.648C172.387 47.392 172.942 47.264 173.635 47.264ZM173.379 48.448C172.505 48.448 171.886 48.6933 171.523 49.184C171.171 49.6747 170.985 50.4213 170.963 51.424V51.696C170.963 52.752 171.134 53.568 171.475 54.144C171.827 54.7093 172.473 54.992 173.411 54.992C173.934 54.992 174.361 54.848 174.691 54.56C175.033 54.272 175.283 53.8827 175.443 53.392C175.614 52.8907 175.699 52.32 175.699 51.68C175.699 50.6987 175.507 49.9147 175.123 49.328C174.75 48.7413 174.169 48.448 173.379 48.448ZM183.399 47.264C183.559 47.264 183.73 47.2747 183.911 47.296C184.103 47.3067 184.268 47.328 184.407 47.36L184.231 48.656C184.092 48.624 183.938 48.5973 183.767 48.576C183.607 48.5547 183.452 48.544 183.303 48.544C182.866 48.544 182.455 48.6667 182.071 48.912C181.687 49.1467 181.378 49.4827 181.143 49.92C180.919 50.3467 180.807 50.848 180.807 51.424V56H179.399V47.424H180.551L180.711 48.992H180.775C181.052 48.5227 181.41 48.1173 181.847 47.776C182.284 47.4347 182.802 47.264 183.399 47.264ZM193.152 51.696C193.152 53.1147 192.789 54.2133 192.064 54.992C191.349 55.7707 190.379 56.16 189.152 56.16C188.395 56.16 187.717 55.9893 187.12 55.648C186.533 55.296 186.069 54.7893 185.728 54.128C185.387 53.456 185.216 52.6453 185.216 51.696C185.216 50.2773 185.573 49.184 186.288 48.416C187.003 47.648 187.973 47.264 189.2 47.264C189.979 47.264 190.661 47.44 191.248 47.792C191.845 48.1333 192.309 48.6347 192.64 49.296C192.981 49.9467 193.152 50.7467 193.152 51.696ZM186.672 51.696C186.672 52.7093 186.869 53.5147 187.264 54.112C187.669 54.6987 188.309 54.992 189.184 54.992C190.048 54.992 190.683 54.6987 191.088 54.112C191.493 53.5147 191.696 52.7093 191.696 51.696C191.696 50.6827 191.493 49.888 191.088 49.312C190.683 48.736 190.043 48.448 189.168 48.448C188.293 48.448 187.659 48.736 187.264 49.312C186.869 49.888 186.672 50.6827 186.672 51.696ZM196.791 46.8C196.791 47.1627 196.781 47.504 196.759 47.824C196.749 48.1333 196.733 48.3787 196.711 48.56H196.791C197.037 48.1973 197.373 47.8933 197.799 47.648C198.226 47.4027 198.775 47.28 199.447 47.28C200.514 47.28 201.367 47.6533 202.007 48.4C202.658 49.136 202.983 50.24 202.983 51.712C202.983 53.184 202.658 54.2933 202.007 55.04C201.357 55.7867 200.503 56.16 199.447 56.16C198.775 56.16 198.226 56.0373 197.799 55.792C197.373 55.5467 197.037 55.2533 196.791 54.912H196.679L196.391 56H195.383V43.84H196.791V46.8ZM199.207 48.448C198.301 48.448 197.671 48.7093 197.319 49.232C196.967 49.7547 196.791 50.5653 196.791 51.664V51.728C196.791 52.784 196.962 53.5947 197.303 54.16C197.655 54.7147 198.301 54.992 199.239 54.992C200.007 54.992 200.578 54.7093 200.951 54.144C201.335 53.5787 201.527 52.7627 201.527 51.696C201.527 49.5307 200.754 48.448 199.207 48.448ZM206.635 56H205.227V43.84H206.635V56ZM212.664 47.264C213.4 47.264 214.03 47.424 214.552 47.744C215.086 48.064 215.491 48.5173 215.768 49.104C216.056 49.68 216.2 50.3573 216.2 51.136V51.984H210.328C210.35 52.9547 210.595 53.696 211.064 54.208C211.544 54.7093 212.211 54.96 213.064 54.96C213.608 54.96 214.088 54.912 214.504 54.816C214.931 54.7093 215.368 54.56 215.816 54.368V55.6C215.379 55.792 214.947 55.9307 214.52 56.016C214.094 56.112 213.587 56.16 213 56.16C212.19 56.16 211.47 55.9947 210.84 55.664C210.222 55.3333 209.736 54.8427 209.384 54.192C209.043 53.5307 208.872 52.7253 208.872 51.776C208.872 50.8373 209.027 50.032 209.336 49.36C209.656 48.688 210.099 48.1707 210.664 47.808C211.24 47.4453 211.907 47.264 212.664 47.264ZM212.648 48.416C211.976 48.416 211.443 48.6347 211.048 49.072C210.664 49.4987 210.435 50.096 210.36 50.864H214.728C214.718 50.1387 214.547 49.552 214.216 49.104C213.886 48.6453 213.363 48.416 212.648 48.416ZM227.791 47.264C228.762 47.264 229.487 47.5147 229.967 48.016C230.447 48.5067 230.687 49.3067 230.687 50.416V56H229.295V50.48C229.295 49.1253 228.714 48.448 227.551 48.448C226.719 48.448 226.122 48.688 225.759 49.168C225.407 49.648 225.231 50.3467 225.231 51.264V56H223.839V50.48C223.839 49.1253 223.253 48.448 222.079 48.448C221.215 48.448 220.618 48.7147 220.287 49.248C219.957 49.7813 219.791 50.5493 219.791 51.552V56H218.383V47.424H219.519L219.727 48.592H219.807C220.074 48.144 220.431 47.8133 220.879 47.6C221.338 47.376 221.823 47.264 222.335 47.264C223.679 47.264 224.554 47.744 224.959 48.704H225.039C225.327 48.2133 225.717 47.8507 226.207 47.616C226.709 47.3813 227.237 47.264 227.791 47.264Z" fill="#353535"/>
<rect x="52.5078" y="0.5" width="250" height="75" rx="15.5" stroke="#D5D5D5"/>
<path d="M1.00781 19C1.00781 38.1275 75.3449 107.199 121.137 122.076C166.928 136.953 279.921 130.577 315.008 122.076" stroke="#353535" stroke-linecap="round"/>
</svg>
