<svg width="270" height="170" viewBox="0 0 270 170" fill="none" xmlns="http://www.w3.org/2000/svg">
<rect width="270" height="170" fill="#FCEACF"/>
<g style="mix-blend-mode:overlay" opacity="0.2">
<mask id="mask0_5583_15600" style="mask-type:alpha" maskUnits="userSpaceOnUse" x="-9" y="-76" width="295" height="295">
<circle r="147.5" transform="matrix(-1 0 0 1 138.5 71.5)" fill="#C4C4C4"/>
</mask>
<g mask="url(#mask0_5583_15600)">
<g filter="url(#filter0_d_5583_15600)">
<path d="M316.684 14.3496C316.684 14.3496 243.743 1.28522 224.954 -46.5303C207.041 -92.1772 132.967 -103.813 132.967 -103.813" stroke="#113255" stroke-width="5" stroke-miterlimit="10"/>
<path d="M316.684 33.4443C316.684 33.4443 230.308 18.5814 208.07 -37.3268C186.862 -90.8018 99.1476 -103.813 99.1476 -103.813" stroke="#113255" stroke-width="5" stroke-miterlimit="10"/>
<path d="M316.684 52.4859C316.684 52.4859 216.821 35.8775 191.135 -28.2291C166.684 -89.3736 65.3282 -103.813 65.3282 -103.813" stroke="#113255" stroke-width="5" stroke-miterlimit="10"/>
<path d="M316.684 71.5275C316.684 71.5275 203.334 53.1736 174.199 -19.0787C146.505 -87.9455 31.5601 -103.813 31.5601 -103.813" stroke="#113255" stroke-width="5" stroke-miterlimit="10"/>
<path d="M316.684 90.6217C316.684 90.6217 189.899 70.5224 157.315 -9.92832C126.276 -86.5704 -2.25913 -103.813 -2.25913 -103.813" stroke="#113255" stroke-width="5" stroke-miterlimit="10"/>
<path d="M316.684 109.663C316.684 109.663 176.413 87.7655 140.38 -0.77754C106.097 -85.1423 -36.0786 -103.813 -36.0786 -103.813" stroke="#113255" stroke-width="5" stroke-miterlimit="10"/>
<path d="M316.684 128.705C316.684 128.705 162.926 105.062 123.496 8.32016C85.9187 -83.7142 -69.8982 -103.813 -69.8982 -103.813" stroke="#113255" stroke-width="5" stroke-miterlimit="10"/>
<path d="M316.684 147.8C316.684 147.8 149.491 122.411 106.56 17.5233C65.7399 -82.3391 -103.666 -103.813 -103.666 -103.813" stroke="#113255" stroke-width="5" stroke-miterlimit="10"/>
<path d="M316.684 166.84C316.684 166.84 136.004 139.707 89.676 26.674C45.5616 -80.9109 -137.486 -103.813 -137.486 -103.813" stroke="#113255" stroke-width="5" stroke-miterlimit="10"/>
<path d="M316.684 185.934C316.684 185.934 122.518 157.003 72.7406 35.8244C25.3831 -79.4828 -171.305 -103.813 -171.305 -103.813" stroke="#113255" stroke-width="5" stroke-miterlimit="10"/>
<path d="M316.684 204.977C316.684 204.977 109.082 174.299 55.8567 44.9752C5.20477 -78.1074 -205.124 -103.813 -205.124 -103.813" stroke="#113255" stroke-width="5" stroke-miterlimit="10"/>
<path d="M316.684 224.017C316.684 224.017 95.5959 191.595 38.9211 54.0725C-14.9739 -76.6792 -238.943 -103.813 -238.943 -103.813" stroke="#113255" stroke-width="5" stroke-miterlimit="10"/>
<path d="M316.684 243.111C316.684 243.111 82.1091 208.891 21.9857 63.276C-35.1522 -75.2511 -272.712 -103.813 -272.712 -103.813" stroke="#113255" stroke-width="5" stroke-miterlimit="10"/>
<path d="M316.684 262.154C316.684 262.154 68.6743 226.188 5.10187 72.3737C-55.3307 -73.876 -306.531 -103.813 -306.531 -103.813" stroke="#113255" stroke-width="5" stroke-miterlimit="10"/>
<path d="M316.684 281.198C316.684 281.198 55.1875 243.484 -11.8336 81.5241C-75.5089 -72.4479 -340.351 -103.813 -340.351 -103.813" stroke="#113255" stroke-width="5" stroke-miterlimit="10"/>
<path d="M316.684 300.292C316.684 300.292 41.7009 260.831 -28.7175 90.6748C-95.6873 -71.0198 -374.17 -103.813 -374.17 -103.813" stroke="#113255" stroke-width="5" stroke-miterlimit="10"/>
<path d="M316.684 319.332C316.684 319.332 28.2657 278.076 -45.653 99.8252C-115.866 -69.6447 -407.94 -103.813 -407.94 -103.813" stroke="#113255" stroke-width="5" stroke-miterlimit="10"/>
</g>
</g>
</g>
<g style="mix-blend-mode:overlay">
<path d="M268.252 35.2466C213.945 30.671 181.999 -6.21297 181.999 -6.21297C181.999 -6.21297 181.583 -33.8526 213.25 -46.4162C244.918 -58.9797 283.669 -46.4162 332.005 -46.4162C380.34 -46.4162 394.09 -23.8019 387.423 -6.21297C380.756 11.3759 337.838 41.1095 268.252 35.2466Z" fill="#113255"/>
<path d="M-6.17059 1.64607C22.7913 -38.4731 66.4349 -46.08 66.4349 -46.08C66.4349 -46.08 88.1378 -33.4762 83.102 -2.9574C78.0663 27.5614 50.1646 51.8395 27.5565 89.4517C4.94846 127.064 -19.0805 127.186 -29.649 113.772C-40.2176 100.357 -43.2806 53.0523 -6.17059 1.64607Z" fill="#113255"/>
</g>
<defs>
<filter id="filter0_d_5583_15600" x="-412.229" y="-106.296" width="733.381" height="436.102" filterUnits="userSpaceOnUse" color-interpolation-filters="sRGB">
<feFlood flood-opacity="0" result="BackgroundImageFix"/>
<feColorMatrix in="SourceAlpha" type="matrix" values="0 0 0 0 0 0 0 0 0 0 0 0 0 0 0 0 0 0 127 0" result="hardAlpha"/>
<feOffset dy="4"/>
<feGaussianBlur stdDeviation="2"/>
<feComposite in2="hardAlpha" operator="out"/>
<feColorMatrix type="matrix" values="0 0 0 0 0 0 0 0 0 0 0 0 0 0 0 0 0 0 0.25 0"/>
<feBlend mode="normal" in2="BackgroundImageFix" result="effect1_dropShadow_5583_15600"/>
<feBlend mode="normal" in="SourceGraphic" in2="effect1_dropShadow_5583_15600" result="shape"/>
</filter>
</defs>
</svg>
