<svg xmlns="http://www.w3.org/2000/svg" viewBox="0 0 238.64 263.15"><defs><style>.cls-1,.cls-2,.cls-3{fill:#bdbec0;}.cls-2{font-size:21.06px;}.cls-2,.cls-3{font-family:InterUI-Bold, Inter UI;font-weight:700;}.cls-3{font-size:21.06px;}.cls-4{fill:#fff;}</style></defs><title>crest</title><g id="Layer_2" data-name="Layer 2"><g id="Layer_1-2" data-name="Layer 1"><g id="Crest"><path class="cls-1" d="M2.52,152.06a111.67,111.67,0,1,1,109.35,88A111.66,111.66,0,0,1,2.52,152.06ZM218,105.38a108.8,108.8,0,1,0,2.45,22.83A108.93,108.93,0,0,0,218,105.38Z"/><text class="cls-2" transform="translate(30.34 141.83) rotate(-94.45)">C</text><text class="cls-2" transform="translate(29.39 122.72) rotate(-80.89)">H</text><text class="cls-2" transform="translate(33.05 103.56) rotate(-67.4)">A</text><text class="cls-2" transform="translate(41.02 85.87) rotate(-53.8)">N</text><text class="cls-2" transform="translate(52.97 70.5) rotate(-40.18)">G</text><text class="cls-2" transform="matrix(0.87, -0.5, 0.5, 0.87, 68.59, 58.47)">I</text><text class="cls-2" transform="matrix(0.94, -0.33, 0.33, 0.94, 77.66, 53.33)">N</text><text class="cls-2" transform="translate(96.21 47.43) rotate(-5.78)">G</text><text class="cls-2" transform="translate(115.89 46.33) rotate(4.94)"> </text><text class="cls-2" transform="translate(126.68 47.43) rotate(14.78)">F</text><text class="cls-2" transform="translate(140.69 51.23) rotate(25.66)">A</text><text class="cls-2" transform="matrix(0.78, 0.62, -0.62, 0.78, 156.97, 59.52)">C</text><text class="cls-2" transform="translate(171.55 71.89) rotate(51.01)">E</text><text class="cls-2" transform="matrix(0.49, 0.87, -0.87, 0.49, 181.88, 85.78)"> </text><text class="cls-2" transform="translate(186.93 95.51) rotate(68.36)"> </text><text class="cls-2" transform="translate(190.88 105.6) rotate(79.03)">O</text><text class="cls-2" transform="translate(193.95 125.04) rotate(91.84)">F</text><text class="cls-3" transform="matrix(0.92, 0.39, -0.39, 0.92, 71.14, 217.13)">L</text><text class="cls-3" transform="matrix(0.98, 0.17, -0.17, 0.98, 88.86, 223.94)">A</text><text class="cls-3" transform="matrix(1, -0.06, 0.06, 1, 109.49, 226.86)">G</text><text class="cls-3" transform="matrix(0.95, -0.3, 0.3, 0.95, 131.68, 224.69)">O</text><text class="cls-3" transform="matrix(0.85, -0.52, 0.52, 0.85, 152.79, 216.93)">S</text><path class="cls-1" d="M38.21,144.41a75.18,75.18,0,1,1,73.6,59.16v0a75.34,75.34,0,0,1-73.6-59.16Zm144.08-31.31a72.28,72.28,0,1,0,1.63,15.17A72.37,72.37,0,0,0,182.28,113.11Z"/><path d="M157.06,153.87v1.64c-1.22,2.41-2.63,4.74-3.6,7.24a5.31,5.31,0,0,1-4.28,3.71,30.9,30.9,0,0,1-5.31.86c-6.5,0-13-.16-19.49-.35-1,0-1.41.14-1.5,1.12a2.82,2.82,0,0,1-2.09,2.6c-2.25.76-4.49,1.54-6.74,2.32h-3.94a49.25,49.25,0,0,1-5.08-1.66c-2-.87-4.25-1.59-3.85-4.55-.74,0-1.27,0-1.81,0-4.64.11-9.3.5-13.93.25A72.6,72.6,0,0,1,75,165.19,4.42,4.42,0,0,1,71.52,162,45.17,45.17,0,0,0,68.84,156c-.64-1.26-1.45-2.69-.31-3.77a22.37,22.37,0,0,1,4.37-2.59v.14l2.25-1.71.22,1.32a25.63,25.63,0,0,0,3.2,1.14c.93.2,2.46.53,2.79.09,1.06-1.4,2.45-1.1,3.83-1.24-.21-3.28,2.9-2.18,4.39-3.36a16.38,16.38,0,0,0-.64-1.65,18.59,18.59,0,0,1-2-9c0-3,0-5.91,0-8.87-.18.82-1.36,1.54-.13,2.54.25.2-.43,1.39-.46,2.14a41.27,41.27,0,0,1,0,4.48c-.29,1.92-1,3.76-1.41,5.67a4.25,4.25,0,0,0,.18,2.5c.54,1.15.08,1.48-.89,1.62a8.46,8.46,0,0,1-1.3,0,7,7,0,0,1-.15,1.36,5.07,5.07,0,0,1-.6,1c.41.2.82.43,1.25.59a8.36,8.36,0,0,0,1.21.23c-1,.17-2,0-2.44.47-1.25,1.39-1.93.78-2.28.1l-3.1-.78.1-1.59c-.53.1-.66.38-.87.46a1.85,1.85,0,0,1-.93.06c-.09,0-.21-.5-.17-.52a1.65,1.65,0,0,1,.74-.26c.72,0,1.44,0,2.32,0,0,0,.08-.3.23-.36,2.69-1,2.15-4.4,4.35-5.77.2-.13.12-.71.16-1.09a8.1,8.1,0,0,1,.38-2.58,14.56,14.56,0,0,0,1.36-7.65c-.16-2.87,1.92-5.67.24-8.57-.09-.15.2-.49.24-.75.32-2.49,1.21-4.94.41-7.52a4.65,4.65,0,0,1,.15-1.7l.64,0c.36,4,1.26,8.06-.22,12.07l1.8.12L87,112.54l.2,0,.59,3.13.2,0V106.9l-.54,0a4.87,4.87,0,0,1-.11.62c-.15.48-.32.94-.48,1.41a14.52,14.52,0,0,1-1.43-.63c-.54-.3-1-.68-1.89-1.26,1.06,3.93.13,7.22-1.39,10.8-1.15-1-2.72-1.81-3.12-3a22.35,22.35,0,0,1-.83-6.25,17,17,0,0,1,.53-3.45c-2.83,1.24-3.85,3.69-4.35,6.55a6.35,6.35,0,0,0-1.47-.31A2.06,2.06,0,0,1,70.51,109q.5-3.17,1-6.33c-1.56.41-2.92.07-3.55-1.12s-1.18-2.61.43-3.7c.36-.24.79-.89.7-1.22-.33-1.15.41-1.31,1.16-1.71a5.84,5.84,0,0,1,5.14-.68c.15.06.35,0,.65-.07a3.35,3.35,0,0,0-3.69-.92,17.4,17.4,0,0,1-2.86.69,1.84,1.84,0,0,1-1.12-.14c-.78-.41-1.5-.93-2.35-1.47a16.53,16.53,0,0,0,1.6-1.13c.28-.25.68-.75.6-1-.42-1.18.24-1.62,1.14-1.9a12.17,12.17,0,0,1,2.77-.69c1.82-.11,3.65,0,5.69,0L74.6,84l-.32,2.23c-1.86-1.12-2-2.32-.75-3.71a5.56,5.56,0,0,1,5-2.11c1.7.23,3.68.58,4.23,2.81a1.9,1.9,0,0,0,.46,0l-1.06-3.87c1.51-.41,2.2.68,2.51,1.61a8.82,8.82,0,0,1-.09,3l.42.12,4.85-6.82c.36.57.47.7.54.85,1,2.23,1.36,5.16,4.94,4.69.08,0,.21.09.27.17l4.29,5.21-.33.5c-2.28-.63-4.6-1.68-6.37.31a33.31,33.31,0,0,1,4.16,0c1.7.2,3.57.15,4.79,1.71.89,1.13.55,1.89-.85,2.1l-4.67.71c.88.51,2.16.8,2.56,1.56,1,2,2.33,1.85,3.88,1.16,0-1.49-.32-3,.06-4.24.67-2.29,1.8-4.44,2.66-6.67a1.61,1.61,0,0,1,1.79-1.25c2,.08,3.94.08,5.91,0a1.5,1.5,0,0,1,1.67,1.15c.84,2.19,1.81,4.33,2.6,6.53a5.41,5.41,0,0,1,.29,2.69c-.24,1.31,0,1.9,1.41,1.75.36,0,.75.27,1.1.22a4.42,4.42,0,0,0,1.92-.55,35,35,0,0,0,2.79-2.47L121,92.84c-1.36-.2-1.74-1-.9-2.09,1.22-1.56,3.09-1.55,4.79-1.73a28.49,28.49,0,0,1,4.31.15c-1.9-2.28-4.3-1-6.67-.8a45.53,45.53,0,0,1,3.9-5.21,2,2,0,0,1,1.3-.39,2.85,2.85,0,0,0,2.92-1.85c.43-1.13,1-2.23,1.53-3.55,1.56,2,3.65,3.17,4,5.68.06.39.72.68,1.1,1,.31-1.24,0-2.33.28-3.22s1-2,2.39-1.57c-.14.69-.25,1.34-.41,2s-.39,1.24-.59,1.86a1.25,1.25,0,0,0,1-.75,1.93,1.93,0,0,1,1.8-1.54c.89-.07,1.83-.76,2.62-.6a7,7,0,0,1,4.39,2.26c1.12,1.39,1,2.69-.85,3.52l-.37-2.14-3.08,3.55c2.21,0,4.29,0,6.36,0,1.63,0,3.55,1.25,3.27,2.17s.22,1.26.83,1.66.89.65,1.31,1c-1.16.64-2.13,1.55-3.19,1.67s-2.29-.54-3.45-.81c-1.63-.38-1.94-.26-3.18,1,.18,0,.37.09.5,0,2.07-1,3.81.07,5.57.89a2.09,2.09,0,0,1,.79.89,21.91,21.91,0,0,1,1,2.14c.22.51.59,1.12.48,1.58a4.66,4.66,0,0,1-1.18,2.48c-.68.54-1.81.53-2.88.79a30.45,30.45,0,0,1,1,4.63c.07.95.53,1.91-.24,3-1,1.52-2.37.64-3.55,1.09-.47-2.89-1.52-5.29-4.57-6.59a10.93,10.93,0,0,1,.53,6.73c-.18.73-.48,1.49-.62,2.25a4.26,4.26,0,0,1-3.36,3.41l-2.32-8a17.66,17.66,0,0,0,.24,11.29c-1.25,1.17-.84,2.56-.44,4a5.68,5.68,0,0,1,.3.84c.42,3.76-.14,7.66,1.73,11.2a1.5,1.5,0,0,1,.14.8c-.2,2.12.56,3.72,2.1,4.38.2,1,.13,1.82.49,2.18a5.36,5.36,0,0,0,2.12,1.07c1,.33,2.31.12,2.09,2-.12,1,1,1.24,2,.75a1.43,1.43,0,0,1,1.21.08c.18.13.07.76,0,1.13s-.31.48-.67,1l1.53-.28c0,1.82,1.22,2,2.48,2.05A4.64,4.64,0,0,1,157.06,153.87ZM127.47,147l-3.29.69.63-1.49a19.46,19.46,0,0,0-2.09-.58c-.73-.12-1.49-.11-2.48-.17-.66,1.22-.89,1.25-3.24-.09l1.41-1.31-.46-1.64,2.51-1.64.9.7.25-.24-1.25-1.58c-1.1,1-2.1,1.91-3.13,2.8a.82.82,0,0,1-.75.11c-.82-.54-1.59-1.16-2.37-1.75a6.62,6.62,0,0,0-2.88-.37c-.4,0-.75.67-1.12,1a8.26,8.26,0,0,1,1,.18c.16,0,.28.23.43.34.51.38,1,1,1.55,1.08,1.56.27,2,1.51,2.65,2.63,1,1.74,1.41,3.92,3.85,4.38.22,0,.38.37.57.56l4,3.77a16.33,16.33,0,0,0-1.56-2.63,14.92,14.92,0,0,1-.82-1.73,21.05,21.05,0,0,1,2.14.46c.26.08.44.45.71.75l-.83.65.27.45,2-1.08c-.77-.59-1.44-1-2-1.58-.92-.83-1.8-1.35-2.77-.09,0,0-.19-.07-.29-.11a3.22,3.22,0,0,1,3.28-1.85c0,.16,0,.45,0,.45,1.16,0,2.33,0,3.49,0a4.09,4.09,0,0,0,.11-.77h1.27c-.49-.78-1.2-1-1.34-1.45a2,2,0,0,0-2.95-1ZM94.82,155.9l-.3-1.43-3.71,1.27c1.55,1.51,2.71.46,3.86.34-.55,1-1,2.1.31,2.83a2.81,2.81,0,0,0,3.52-1.08,10,10,0,0,1-2,.67c-.53.07-1.47-.1-1.56-.39a3.57,3.57,0,0,1,.29-1.78,4.7,4.7,0,0,1,.39-.82l-.28-.16Zm39.41-2.31c-1.29-2.62-3.25-.45-5-.43l4.14,1.26.47,1.94,2.64-1.19c-.6-.49-1.2-1-1.82-1.45A1.3,1.3,0,0,0,134.24,153.58ZM128,142.24c-.23-.52-.43-1.47-.68-1.49a17.54,17.54,0,0,0-3.08.31l0,.59a13.7,13.7,0,0,0,1.77.49,18.44,18.44,0,0,0,2,.08l.66,1c-1-.25-1.57-.46-2.18-.55a18,18,0,0,0-1.88-.09l-.13.39a6.74,6.74,0,0,1,.92.44c.94.63,2.73-.11,2.9,1.77.53-.07,1.06-.13,1.58-.21,0,0,0-.15.08-.28l-.9-.41,2.34-4.42-3.61.81,2,1Zm-28.29,0a11.51,11.51,0,0,1-2,.11c-2.08-.23-4.15-.56-6.23-.8-.28,0-.59.23-.89.36l0,.49,2.52.41-1.86,1.62h5.48L94.3,142.9a4.29,4.29,0,0,1,2.83.07c1.27.78,1.89.17,2.55-.71-.45,1.73.88,1.67,1.91,1.85.81.14,1.63.2,2.61.32l1-.74-1.35-.51,1.09-2-1-.65,1.9-1.6-2.08-2.61-.36.09v2.42l-2.79-.92-.28-1.86-2.85,1.43,2.39.38-1.47.78.07.5,1.63-.08c0,.63,0,1.43,0,2.22A3.29,3.29,0,0,1,99.69,142.28Zm21.24-35.38-4.74-4.17-.9,4.82L111,101.78c0,6.3,0,12.37.08,18.43a1.8,1.8,0,0,0,1,1.18c3.06,1.43,6.15,2.8,9.23,4.16,3.52,1.56,7,3.09,10.58,4.64l-.06-30-8.95,0,2.31,4.22-4.72-1.15ZM105.24,162c.14-1.72-1.21-1.74-2.19-1.72-2.57,0-5.13.26-7.69.43-8.25.57-16.38.24-24.14-3.08a6.73,6.73,0,0,0-.94-.23,20.21,20.21,0,0,1,1.1,2.93c.68,3.37,3.11,4.52,6.1,5.2a69,69,0,0,0,18.27,1.19c1.72-.07,3.43-.37,5.21-.57l-.33-2.69Zm18.51,4.12-.3.52c5.4.16,10.81.54,16.21.41a79.8,79.8,0,0,0,10.5-1.4,2.66,2.66,0,0,0,1.8-1c1-1.95,1.73-4,2.61-6.11-.4,0-.52-.06-.61,0-8.1,3.38-16.52,3.76-25.1,2.71-2.87-.35-5.76-.63-8.64-.76-2.07-.1-2.43.46-2.05,2.54a4,4,0,0,1,5,.62C123.67,164.14,123.57,165.28,123.75,166.13Zm-22.53-1.8c.14,1.1.27,1.94.34,2.8a3.5,3.5,0,0,0,1.91,3c6,3.5,12,3,17.89-.25a1.78,1.78,0,0,0,.83-.92c.37-1.33.64-2.68,1-4.15A38.81,38.81,0,0,1,101.23,164.33ZM133,107.8l-.38,0c0,.62-.08,1.24-.08,1.86,0,6.9.06,13.79.05,20.69,0,6-.48,12-3.08,17.6-3.67,7.9-10.1,12.25-18.55,12.4-7.35.13-13.48-3.34-17.46-9.85-3.2-5.23-4.31-11.05-4.41-17.07-.13-8.1-.05-16.2-.09-24.3a11.37,11.37,0,0,0-.25-1.66c-.25,9.09-.33,18.11-.18,27.13a34.39,34.39,0,0,0,2.81,13.2C94.9,156,101.31,160.63,110,161c7.94.37,14.33-3.35,18.6-10.23a30,30,0,0,0,4.29-15.27C133.17,126.29,133,117,133,107.8Zm-27.39,3.53c.18-2.4-3.05-4.81-6.67-5-2.49-.12-4.9,2.64-5.27,6-.25,2.28,3.3,4.9,6.78,5C102.77,117.47,105.33,114.46,105.57,111.33Zm-1.44,37,.45-.28c1.67.59,3.33,1.2,5,1.75.14,0,.42-.33.63-.51s.35-.42.57-.49c.91-.3,1.84-.55,2.73-.81l-.49-1.21,1.54.25a3.6,3.6,0,0,0-3.7-1.23,1.53,1.53,0,0,1-1.28-.19,17.25,17.25,0,0,1-1.59-2.28,33.48,33.48,0,0,1-3.58,3.49c-.79.57-1.64.73-1,2,.42.78.53,1.73,1,2.49a4,4,0,0,0,1.14,1l4.41-1.49-2.67-1-.07.4-.79-1-.75,1.54Zm-.42-52.21,13.69,0,.34-2.64H114.2c-1,0-2.16-.29-2.8,1-.07.14-1.07-.08-1.59-.27s-.69-.69-1-.7c-1.79-.07-3.58,0-5.54,0Zm-.49-3.19c2.11,0,4,0,5.8,0a1.17,1.17,0,0,0,1.1-1.82c-1.07-2.06-2.33-4-3.59-6.16Zm49.28,65.68a21.45,21.45,0,0,0,2.52-1.12c1.6-1,1.9-3.47.6-4.44-2-1.52-5.8-.77-7.32,1.75l4.64,1Zm-38-73.49c-1.18,2.11-2.19,3.9-3.19,5.7-.57,1-.21,1.93.86,2a52.42,52.42,0,0,0,5.49,0Zm-1.81,71.45c.45-.25.62-.43.76-.41,1.66.23,3.32.51,5,.75a4.73,4.73,0,0,0,1.23,0s.13-.52.06-.55a3.36,3.36,0,0,0-1.14-.46c-.79-.11-1.6,0-2.38-.18-1.61-.3-3.2-.74-4.81-1a2.19,2.19,0,0,0-1.24.45c-.57.34-1,.94-1.66,1.11-1.46.42-.89,1-.28,1.69l1.45,1.6,3.79-.45-1.39-1.23,2.19-.27-.05-.49Zm-40.93-1.88,4.53-1c-1.53-2.14-3.12-2.73-5.35-2.29-1.13.22-2.36.62-2.29,1.9A6.39,6.39,0,0,0,70,156.42c.4.55,1.39.66,2.31,1.06Zm24.52-17.57.27-1.39H93.78c-.11,1.23-.67,1.57-1.85,1.16a9.17,9.17,0,0,0-2.18-.22c1.32,1,3.12.94,3.75,3.1-1,0-1.79,0-2.61,0-.24,0-.46.31-.7.47.25.17.51.47.75.47a13.56,13.56,0,0,0,1.84-.29c1.7,2.24,4,.43,6,.78.12,0,.38-.73.64-1.25L94,138.65l0-.22h3.45l.09-.55-3.7-.55C94.78,136,95.38,135.93,96.33,137.06Zm17.89-52.37H107L110.7,91Zm.86,66.37,1.91,1.06a19.72,19.72,0,0,1-4.09.56c-.2,0-.55.38-.52.48.1.3.3.7.56.8a2.81,2.81,0,0,0,3.06-.39c.19-.17.54-.15,1.15-.29l-1.27,1.38c.91-.08,1.6.06,1.89-.21a8.2,8.2,0,0,0,1.15-1.93l-1.16-.35.61-1.14c-1.13-.11-2.71.29-1.8-1.76Zm37.23,5.15-3.94-.88.23,4.43C151.82,159.08,151.82,159.08,152.32,156.21ZM76,158.66l.28-4.51c-.78.25-1.39.47-2,.63s-1.24.24-1.86.36C73,158.15,73,158.15,76,158.66ZM121.4,98.74a1.76,1.76,0,0,0-2.33-1.67,1.13,1.13,0,0,1-.52.1c-1.36-.38-2.71-.78-4.06-1.17l-.19.43c1,.81,1.12,2.56,3.07,2.35A39,39,0,0,1,121.4,98.74ZM99,149.7c1.05,1.09,1,1.63.07,2.64-.25.26-.55.81-.44,1a1.22,1.22,0,0,0,1,.54,16.11,16.11,0,0,0,2.94-1.11c.27-.13.35-.67.51-1a3.82,3.82,0,0,0-1-.42,3.42,3.42,0,0,0-1,.16C101.26,149.39,101.06,149.22,99,149.7Zm32.59-11.43c-2-2.69-4-1.82-5.88-1-.09,1,2.16,1,.93,2.44,1.63.54,4,0,4.35-1.07,0,0-.15-.12-.27-.23l-1.13.72-.42-1.09c-1,.89-1.09.85-1.73-.77Zm3.26-2.13-.22.1-1.42,7.13,3.07-.91Zm-37,13.46-2.18.21,0-.39.94-.19,0-.28H93.37l1,1.76c2.62-.11,6-1.62,6.27-2.81C98.75,147.1,97.64,147.75,97.82,149.61Zm25.34,14.75c-1.45-1.43-3-1.84-4.24-1.17a1.78,1.78,0,0,0-1.15,2.23Zm0-28.73c-1.11-.2-1.83-.07-2.08,1.18s-.3,2.12.87,2.53l1.76-1.09-.13-.93,1.52-.36a2.46,2.46,0,0,0-1.46-.55l-1.62-.24Zm-35.24-8.09c-.36,4.54-1.08,9,.55,13.46Zm18-30.65c1.3,3.12,3.48,1,5.42,1.25C109.71,96.24,108.26,95.95,105.9,96.89ZM84.64,153.83c-1.23-1.37-2.19-1.72-2.78-.86a2.25,2.25,0,0,0-.22,2C82.18,155.8,83.65,155.2,84.64,153.83ZM95,85.13c-2.85-1.25-5.84.44-6.77,3.89C89.81,86.49,92.46,85.92,95,85.13Zm38.91,3.79c-.88-3.5-4.1-5.28-6.7-3.82C129.78,85.83,132.39,86.42,133.95,88.92Zm-25,75.89a5.89,5.89,0,0,0,5-.76c-.89-.17-1.56-.73-2.68-.54A3,3,0,0,0,108.95,164.81Zm40.14-58.16c-.41-2.57-3.37-5.3-6.05-5.71.3,1.71,1.66,1.54,3,1.58C145.73,104.89,147.82,105.32,149.09,106.65Zm-6.54,48.19,1.81-1.55c-.55-.51-1.11-1.43-1.66-1.42s-1.16.9-1.55,1.52C141.07,153.5,141.9,154.18,142.54,154.84ZM88.33,157.4l1.74-1.67c-.54-.45-1.06-1.21-1.62-1.24s-1.24.7-1.45,1.25C86.88,156,87.7,156.65,88.33,157.4ZM122.82,99v.47h7.71v-.47Zm-7.7-.55c-1.51-2.46-2.37-2.78-4.28-1.7l1.32,1.7Zm-42,8,.44.33,3.58-4.1c1.8-.2,1.81-.22,1.93-1.7C76.06,101.7,74.52,104,73.13,106.44Zm58.19,45.21,1.85-1.57c-.55-.5-1.06-1.27-1.68-1.38-.37-.07-1.1.83-1.34,1.43C130,150.38,130.77,151,131.32,151.65ZM99,99.5l0-.66a20,20,0,0,0-7.33.67Zm9.82,37.35-3.55-1c.26,2.08,1.67,1.06,2.86,1l-.88,1.48,1.29.52.38-1.48,1.22.81.45-.31-1.29-2.2Zm-2.91,28.29c-.09-.86-.18-2.13-.24-2.13-1.37,0-2.75.2-4.12.35V164Zm28.73-58.28c-1.24.58-1.69,3.79-.9,6.8.91-1.44-.42-4,1.82-4.52Zm-8.89,52c-1.65-1.52-2.73-1.47-4.44.24C122.8,158.44,124.27,160.73,125.79,158.91Zm4.9-2.22c-1.08-1.6-2.62-.94-3.86-1.05l-.51,1.22C127.79,156.28,129.19,158.4,130.69,156.69Zm-39-10.7,6,2.15C97.38,146.63,93.89,145.34,91.68,146ZM102,156.28c1.1,1.22,2.63,1.26,4.5.28C105.15,154.84,103.66,156.21,102,156.28Zm1.18-57.6,2.92-.44c-1.37-1.65-2.11-1.81-4.07-1Zm29.87,41h.61l0-8.67Zm-24.17,1.13L107,139.07l-.34.39.34.37-1.43,2.75.36.22Zm23.21,4.75c-.25.81-.15.87,3.05,1.39l-.4-1.09.94-1.19Zm-48-4,.19.08L85.86,135l-.7-.18c-.26,1.11-.58,2.2-.76,3.32S84.19,140.44,84.1,141.59Zm53.36-6.81-.91.14,1.61,6.61.26-.08Zm-52.87-42-.82-.66-1.57,1.5,1.17,1.14ZM138.44,92l-.77.68L139,94.61l1.14-1.19Zm-39,6.29.15.47,2.93.69.29-.72a8.58,8.58,0,0,0-2-1.19C100.47,97.44,99.92,98,99.46,98.28Zm44.28,51.53.1.36,2.5.41v-2.09ZM100.57,146a23.24,23.24,0,0,0-2.82-.8,4.79,4.79,0,0,0-1.55.29l.12.47C100.83,146.92,100.86,146.92,100.57,146Zm9.41-7,.28.55c.84-.27,1.7-.49,2.51-.83.25-.1.36-.53.54-.81-.34-.13-.78-.46-1-.35A24.41,24.41,0,0,0,110,138.95Zm12.1,5.42,2.24.28-.55-1.85H122Zm14.58,16.14v.44h4.18v-.44Zm.65-3.91.06.85,3.12-.45,0-.41Zm-48.24,2.85H85.73C86.72,159.54,87.71,161.07,89.07,159.43Zm-1.5-7.13a12.35,12.35,0,0,0,1.22,1.2c.07.05.67-.32.66-.49a8.75,8.75,0,0,0-.35-1.64Zm45,5-.13.09s.06.1.11.11a10.06,10.06,0,0,0,2,.45c.37,0,.75-.39,1.12-.61l-.28-.47Zm11.72-.35,2.76-.6C145.53,155.54,144.87,155.61,144.33,156.92ZM132.38,160l.06.86,3-.55,0-.31Zm-48-3.22V156H81.47v.42Zm39-1.59.19-.41-2.45-1.86.64,2.27Zm-16.95-.68-.34-.89-1.22.91a7.9,7.9,0,0,0,1.36.55,3.55,3.55,0,0,0,1.35,0c.07,0,.05-.54.07-.83Z"/><path class="cls-4" d="M120.92,106.9l-.46-3.67,4.72,1.15-2.31-4.22,8.95,0,.06,30c-3.53-1.55-7.06-3.08-10.58-4.64-3.09-1.37-6.18-2.73-9.23-4.16a1.8,1.8,0,0,1-1-1.18c-.07-6.07-.07-12.13-.08-18.43l4.28,5.76.9-4.82ZM118,114.63a15.48,15.48,0,0,0-1.19,1.51,1.4,1.4,0,0,0,.62,2.18c1.22.65,2.59-.09,3.46-1.83s.71-2.67-.64-3.37a4.79,4.79,0,0,0,.46-5.06,1.63,1.63,0,0,0-3.14.7,8.8,8.8,0,0,0,.72,2.69c-3.57-.09-4.38.19-4.37,1.55S115,114.85,118,114.63Zm4.9-1.88c1.42,1.78,3.83,2.62,5.58,1.81.65-.3,1.46-1.25,1.4-1.81a2.47,2.47,0,0,0-1.74-1.5A6.76,6.76,0,0,0,122.89,112.75Zm-1.11-1.68a4.17,4.17,0,0,0,4.24-1.43c.79-.79,1.25-1.76.17-2.66a1.71,1.71,0,0,0-2.68.5A27,27,0,0,0,121.78,111.07Zm.7,2.52c-1.11,2.28-.25,4.94,1.58,5.5a2.88,2.88,0,0,0,2.3-.53,2,2,0,0,0-.11-2A37.08,37.08,0,0,0,122.47,113.59Z"/><path class="cls-4" d="M105.24,162l-4.62,1.45.33,2.69c-1.78.2-3.49.5-5.21.57a69,69,0,0,1-18.27-1.19c-3-.68-5.42-1.83-6.1-5.2a20.21,20.21,0,0,0-1.1-2.93,6.73,6.73,0,0,1,.94.23c7.75,3.32,15.89,3.65,24.14,3.08,2.56-.18,5.13-.4,7.69-.43C104,160.27,105.39,160.29,105.24,162Zm-19.76,1.94-.2.54-2.14-.78a2,2,0,0,0,1.4,1.11,4.27,4.27,0,0,0,1.56-.49,9.55,9.55,0,0,0-1-1.27,4.52,4.52,0,0,0-1.1-.56l.21-.45,1.76.64c-.2-.5-.56-1-1-1a5.17,5.17,0,0,0-1.63.36,8.05,8.05,0,0,0,.93,1.26A5.29,5.29,0,0,0,85.49,163.95Zm10.87.73-.12-.42,1.91-.77,0-.18-1.76.1-.11-.42,2.22-.7-.07-.24-2.67.34v2.85l2.63-.34,0-.35ZM79.92,161l-.55.06a7.87,7.87,0,0,0,.49,2.79A2.29,2.29,0,0,0,82,164a7.22,7.22,0,0,0,.6-2.62c-.69.86-1.15,2.33-1.57,2.32C79.07,163.67,80.56,161.82,79.92,161Zm14.94,2a1.84,1.84,0,0,0-2.26-.38c-.48.2-1.08,1-1,1.4a2,2,0,0,0,1.28,1.34,5.18,5.18,0,0,0,2.06-.51,14.63,14.63,0,0,0-2.45-.17,3.45,3.45,0,0,1-.09-1.26A18.64,18.64,0,0,1,94.86,163Zm-7.64-1L88,165l1.27-2.7Zm-8.28-1.18-.69-.17-.55,2.61-1.2-.72-.23.46,1.61.63Z"/><path class="cls-4" d="M123.75,166.13c-.18-.85-.09-2-.6-2.49a4,4,0,0,0-5-.62c-.37-2.08,0-2.64,2.05-2.54,2.89.14,5.77.41,8.64.76,8.59,1,17,.67,25.1-2.71.09,0,.21,0,.61,0-.88,2.1-1.63,4.16-2.61,6.11a2.66,2.66,0,0,1-1.8,1,79.8,79.8,0,0,1-10.5,1.4c-5.4.13-10.81-.25-16.21-.41Zm14.39-.56.25.08.71-1.28,1.57,1.29a10.4,10.4,0,0,0,.08-2,1.21,1.21,0,0,0-.74-.82,9,9,0,0,0-1.88,0Zm-7.85.06c-.09-.65-.38-1.28-.18-1.55.75-1,0-1.25-.7-1.44a9.21,9.21,0,0,0-1.67-.14v2.81H128l.54-1.33Zm-5.59-3.45v2.58c.54-.26,1-.44,1.46-.7a9.3,9.3,0,0,0,1-.81,4.18,4.18,0,0,0-1-.86A5.85,5.85,0,0,0,124.7,162.19Zm12.2,2.72-.07.46a4.25,4.25,0,0,1-1.48-.38,1.56,1.56,0,0,1-.2-1.12,18.12,18.12,0,0,1,2.18-.58,1.47,1.47,0,0,0-2.3-.06c-.38.39-.47,1.76-.23,1.9a5.29,5.29,0,0,0,2.36.44c.15,0,.48-.6.43-.87s-.52-.38-.83-.48c-.16-.06-.38.06-.83.15Zm7.54-.31-.08.3a6.73,6.73,0,0,0,1.77.36c.32,0,.6-.53.9-.81l-2.12-1.67,1.86.12.05-.45a6.71,6.71,0,0,0-1.64-.12c-.28,0-.51.49-.76.75l2.15,1.52Zm-2.41.34,0-.42,1.79-.61-1.82-.33,0-.34,1.79-.45-.09-.37-2.4.38.17,2.88,2.34-.3v-.21Zm-9.58,1.5c.76-1,1.54-1.58,1.5-2.09a2.24,2.24,0,0,0-1.38-1.5,1.23,1.23,0,0,0-1.67,1.37C131,164.85,131.68,165.39,132.45,166.45Zm17.3-4,.06-.35a4.32,4.32,0,0,0-1.46-.21c-.32.07-.57.54-.84.84l2.18,1.52h-2.06l-.09.45a4.54,4.54,0,0,0,1.6.22c.38-.09.65-.62,1-1l-2.18-1.51Z"/><path class="cls-4" d="M101.23,164.33a38.81,38.81,0,0,0,21.94.44c-.33,1.47-.6,2.83-1,4.15a1.78,1.78,0,0,1-.83.92c-5.91,3.24-11.86,3.75-17.89.25a3.5,3.5,0,0,1-1.91-3C101.5,166.28,101.36,165.43,101.23,164.33Zm8.74,3.09v3.08h.27l.29-1.57.43-.34,1.37,2.12.28-.23v-2.56h-.26l-.27,1.42Zm3.57,3.63a19.89,19.89,0,0,0,2.92-1.35,1.61,1.61,0,0,0-.13-1.4,16.3,16.3,0,0,0-2.79-.77Zm-7.38-.62c1.16-1.12,2.15-1,3.36-.12l-1.8-3.16Z"/><path class="cls-4" d="M133,107.8c0,9.24.22,18.49,0,27.73a30,30,0,0,1-4.29,15.27C124.38,157.69,118,161.41,110,161c-8.74-.41-15.15-5.07-18.71-13.26a34.39,34.39,0,0,1-2.81-13.2c-.15-9-.07-18,.18-27.13A11.37,11.37,0,0,1,89,109.1c0,8.1,0,16.2.09,24.3.1,6,1.21,11.84,4.41,17.07,4,6.51,10.12,10,17.46,9.85,8.45-.15,14.88-4.5,18.55-12.4,2.6-5.6,3.07-11.56,3.08-17.6,0-6.9,0-13.79-.05-20.69,0-.62.05-1.24.08-1.86Z"/><path class="cls-4" d="M105.57,111.33c-.23,3.13-2.79,6.14-5.15,6.07-3.48-.11-7-2.73-6.78-5,.37-3.4,2.77-6.15,5.27-6C102.51,106.52,105.74,108.93,105.57,111.33Zm-6.06-2.72A3.24,3.24,0,0,0,96,112c0,1.82,1.48,3,3.62,3s3.46-1.2,3.47-3.19S101.69,108.58,99.5,108.62Z"/><path class="cls-4" d="M124.22,147.66a3.22,3.22,0,0,0-3.28,1.85c.1,0,.27.13.29.11,1-1.26,1.85-.75,2.77.09.59.53,1.26,1,2,1.58l-2,1.08-.27-.45.83-.65c-.27-.3-.45-.66-.71-.75a21.05,21.05,0,0,0-2.14-.46,14.92,14.92,0,0,0,.82,1.73,16.33,16.33,0,0,1,1.56,2.63l-4-3.77c-.2-.19-.36-.52-.57-.56-2.44-.46-2.89-2.64-3.85-4.38-.62-1.12-1.09-2.35-2.65-2.63-.56-.1-1-.7-1.55-1.08-.15-.11-.27-.29-.43-.34a8.26,8.26,0,0,0-1-.18c.37-.36.71-1,1.12-1a6.62,6.62,0,0,1,2.88.37c.79.59,1.56,1.21,2.37,1.75a.82.82,0,0,0,.75-.11c1-.88,2-1.81,3.13-2.8l1.25,1.58-.25.24-.9-.7-2.51,1.64.46,1.64L117,145.37c2.34,1.34,2.58,1.31,3.24.09,1,.06,1.74,0,2.48.17a19.46,19.46,0,0,1,2.09.58l-.63,1.49Z"/><path class="cls-4" d="M104.13,148.29l1.57,2.42.75-1.54.79,1,.07-.4,2.67,1-4.41,1.49a4,4,0,0,1-1.14-1c-.45-.76-.56-1.7-1-2.49-.66-1.23.19-1.39,1-2a33.48,33.48,0,0,0,3.58-3.49,17.25,17.25,0,0,0,1.59,2.28,1.53,1.53,0,0,0,1.28.19,3.6,3.6,0,0,1,3.7,1.23l-1.54-.25.49,1.21c-.89.26-1.82.51-2.73.81-.22.07-.38.33-.57.49s-.49.56-.63.51c-1.68-.55-3.35-1.16-5-1.75Z"/><path class="cls-4" d="M99.69,142.28a3.26,3.26,0,0,0,.39-.95c.06-.79,0-1.59,0-2.22l-1.63.08-.07-.5,1.47-.78-2.39-.38,2.85-1.43.28,1.86,2.79.92v-2.42l.36-.09,2.08,2.61-1.9,1.6,1,.65-1.09,2,1.35.51-1,.74c-1-.12-1.8-.18-2.61-.32-1-.18-2.36-.12-1.91-1.85Z"/><path class="cls-4" d="M103.71,96.08l-.49-2.64c2,0,3.76,0,5.54,0,.35,0,.66.57,1,.7s1.52.41,1.59.27c.64-1.3,1.76-1,2.8-1h3.54l-.34,2.64Z"/><path class="cls-4" d="M103.22,92.89l3.31-8c1.26,2.14,2.52,4.1,3.59,6.16a1.17,1.17,0,0,1-1.1,1.82C107.18,92.93,105.34,92.89,103.22,92.89Z"/><path class="cls-4" d="M152.5,158.57l.44-2.83-4.64-1c1.52-2.52,5.28-3.27,7.32-1.75,1.3,1,1,3.46-.6,4.44A21.45,21.45,0,0,1,152.5,158.57Z"/><path class="cls-4" d="M114.55,85.08l3.16,7.78a52.42,52.42,0,0,1-5.49,0c-1.07-.11-1.43-1-.86-2C112.36,89,113.37,87.18,114.55,85.08Z"/><path class="cls-4" d="M112.74,156.52l1.51.49.05.49-2.19.27,1.39,1.23-3.79.45-1.45-1.6c-.62-.67-1.19-1.27.28-1.69.61-.17,1.08-.77,1.66-1.11a2.19,2.19,0,0,1,1.24-.45c1.61.28,3.2.72,4.81,1,.78.15,1.59.07,2.38.18a3.36,3.36,0,0,1,1.14.46c.07,0,0,.55-.06.55a4.73,4.73,0,0,1-1.23,0c-1.66-.24-3.31-.51-5-.75C113.36,156.09,113.19,156.28,112.74,156.52Z"/><path class="cls-4" d="M71.81,154.64l.48,2.84c-.92-.4-1.92-.51-2.31-1.06a6.39,6.39,0,0,1-1.28-3.17c-.07-1.28,1.16-1.67,2.29-1.9,2.23-.44,3.82.15,5.35,2.29Z"/><path class="cls-4" d="M96.33,137.06c-1-1.13-1.56-1.05-2.42.26l3.7.55-.09.55H94.07l0,.22,5.42,1.29c-.26.52-.52,1.27-.64,1.25-2-.36-4.32,1.46-6-.78a13.56,13.56,0,0,1-1.84.29c-.25,0-.5-.3-.75-.47.23-.17.45-.46.7-.47.82-.06,1.64,0,2.61,0-.63-2.16-2.43-2.06-3.75-3.1a9.17,9.17,0,0,1,2.18.22c1.18.41,1.74.07,1.85-1.16H96.6Z"/><path class="cls-4" d="M114.23,84.69,110.7,91,107,84.71Z"/><path class="cls-4" d="M99.69,142.27c-.67.88-1.29,1.48-2.55.71a4.29,4.29,0,0,0-2.83-.07l2.46,1.55H91.27l1.86-1.62-2.52-.41,0-.49c.3-.13.61-.39.89-.36,2.08.24,4.15.57,6.23.8a11.4,11.4,0,0,0,2-.11Z"/><path class="cls-4" d="M115.09,151.07l1.49-1.79c-.91,2.05.67,1.64,1.8,1.76l-.61,1.14,1.16.35a8.2,8.2,0,0,1-1.15,1.93c-.29.28-1,.13-1.89.21l1.27-1.38c-.61.14-1,.12-1.15.29A2.81,2.81,0,0,1,113,154c-.26-.1-.46-.49-.56-.8,0-.1.32-.47.52-.48a19.72,19.72,0,0,0,4.09-.56Z"/><path class="cls-4" d="M152.32,156.21c-.51,2.87-.51,2.87-3.72,3.56l-.23-4.43Z"/><path class="cls-4" d="M76,158.66c-2.93-.51-2.93-.51-3.59-3.52.62-.12,1.25-.2,1.86-.36s1.23-.38,2-.63Z"/><path class="cls-4" d="M121.4,98.74a39,39,0,0,0-4,0c-1.94.21-2.07-1.54-3.07-2.35l.19-.43c1.35.39,2.7.8,4.06,1.17a1.13,1.13,0,0,0,.52-.1A1.76,1.76,0,0,1,121.4,98.74Z"/><path class="cls-4" d="M99,149.7c2.05-.48,2.25-.31,2.14,1.78a3.42,3.42,0,0,1,1-.16,3.82,3.82,0,0,1,1,.42c-.16.35-.24.89-.51,1a16.11,16.11,0,0,1-2.94,1.11,1.22,1.22,0,0,1-1-.54c-.11-.2.19-.74.44-1C100,151.33,100.06,150.8,99,149.7Z"/><path class="cls-4" d="M128,142.25l1.81-.53-2-1,3.61-.81-2.34,4.42.9.41c0,.13,0,.28-.08.28-.53.08-1.05.14-1.58.21-.18-1.88-2-1.14-2.9-1.77a6.74,6.74,0,0,0-.92-.44l.13-.39a18,18,0,0,1,1.88.09c.61.09,1.21.3,2.18.55l-.66-1Z"/><path class="cls-4" d="M131.61,138.27l-4.15-.95c.64,1.61.74,1.65,1.73.77l.42,1.09,1.13-.72c.12.1.28.19.27.23-.31,1-2.73,1.61-4.35,1.07,1.24-1.45-1-1.45-.93-2.44C127.62,136.45,129.59,135.58,131.61,138.27Z"/><path class="cls-4" d="M134.86,136.15l1.44,6.32-3.07.91,1.42-7.13Z"/><path class="cls-4" d="M97.82,149.61c-.18-1.86.93-2.51,2.86-1.69-.29,1.19-3.65,2.7-6.27,2.81l-1-1.76h3.14l0,.28-.94.19,0,.39Z"/><path class="cls-4" d="M123.16,164.36l-5.38,1.06a1.78,1.78,0,0,1,1.15-2.23C120.19,162.52,121.71,162.94,123.16,164.36Z"/><path class="cls-4" d="M123.12,135.63l-1.14.54,1.62.24a2.46,2.46,0,0,1,1.46.55l-1.52.36.13.93-1.76,1.09c-1.17-.4-1.1-1.36-.87-2.53S122,135.43,123.12,135.63Z"/><path class="cls-4" d="M87.88,127.54,88.43,141C86.8,136.59,87.52,132.08,87.88,127.54Z"/><path class="cls-4" d="M105.9,96.89c2.36-.94,3.81-.65,5.42,1.25C109.38,97.86,107.2,100,105.9,96.89Z"/><path d="M134.24,153.58a1.3,1.3,0,0,1,.47.12c.62.47,1.21,1,1.82,1.45l-2.64,1.19-.47-1.94Z"/><path d="M84.64,153.83c-1,1.38-2.46,2-3,1.13a2.25,2.25,0,0,1,.22-2C82.45,152.11,83.41,152.46,84.64,153.83Z"/><path class="cls-4" d="M95,85.13c-2.57.79-5.22,1.36-6.77,3.89C89.19,85.57,92.19,83.88,95,85.13Z"/><path class="cls-4" d="M133.95,88.92c-1.56-2.5-4.17-3.1-6.7-3.82C129.85,83.65,133.07,85.42,133.95,88.92Z"/><path class="cls-4" d="M108.95,164.81a3,3,0,0,1,2.37-1.31c1.11-.19,1.79.37,2.68.54A5.89,5.89,0,0,1,108.95,164.81Z"/><path class="cls-4" d="M149.09,106.65c-1.27-1.33-3.36-1.76-3.1-4.13-1.29,0-2.65.13-3-1.58C145.72,101.35,148.68,104.09,149.09,106.65Z"/><path d="M142.54,154.84c-.64-.66-1.47-1.34-1.4-1.45.39-.62,1-1.51,1.55-1.52s1.11.91,1.66,1.42Z"/><path d="M88.33,157.4c-.62-.74-1.44-1.38-1.33-1.66.21-.55,1-1.27,1.45-1.25s1.08.79,1.62,1.24Z"/><path class="cls-4" d="M122.82,99h7.72v.47h-7.71Z"/><path class="cls-4" d="M115.12,98.41h-3l-1.32-1.7C112.75,95.62,113.61,95.95,115.12,98.41Z"/><path class="cls-4" d="M73.13,106.44c1.4-2.44,2.94-4.74,5.94-5.47-.11,1.48-.13,1.49-1.93,1.7l-3.58,4.1Z"/><path d="M131.32,151.65c-.55-.68-1.27-1.27-1.17-1.53.24-.6,1-1.5,1.34-1.43.62.11,1.13.89,1.68,1.38Z"/><path class="cls-4" d="M99,99.5H91.74a20,20,0,0,1,7.33-.67Z"/><path class="cls-4" d="M134.24,153.58l-.83.83-4.14-1.26C131,153.13,132.94,151,134.24,153.58Z"/><path class="cls-4" d="M108.85,136.85l.48-1.16,1.29,2.2-.45.31-1.22-.81-.38,1.48-1.29-.52.88-1.48c-1.2,0-2.61,1-2.86-1Z"/><path class="cls-4" d="M105.95,165.14,101.59,164v-.59c1.37-.14,2.74-.31,4.12-.35C105.76,163,105.85,164.28,105.95,165.14Z"/><path class="cls-4" d="M134.68,106.86l.92,2.28c-2.24.55-.9,3.08-1.82,4.52C133,110.65,133.44,107.43,134.68,106.86Z"/><path class="cls-4" d="M125.79,158.91c-1.52,1.83-3-.47-4.44.24C123.06,157.44,124.14,157.39,125.79,158.91Z"/><path class="cls-4" d="M94.67,156.07c-1.16.12-2.32,1.18-3.86-.34l3.71-1.27.31,1.43Z"/><path class="cls-4" d="M130.69,156.69c-1.51,1.71-2.9-.41-4.37.17l.51-1.22C128.07,155.74,129.61,155.09,130.69,156.69Z"/><path class="cls-4" d="M91.68,146c2.21-.65,5.71.64,6,2.15Z"/><path class="cls-4" d="M102,156.28c1.63-.07,3.11-1.44,4.5.28C104.67,157.54,103.14,157.5,102,156.28Z"/><path class="cls-4" d="M103.21,98.68l-1.15-1.43c2-.82,2.71-.66,4.07,1Z"/><path class="cls-4" d="M133.09,139.68l.59-8.68,0,8.67Z"/><path class="cls-4" d="M108.92,140.81l-3,2-.36-.22,1.43-2.75-.34-.37.34-.39Z"/><path class="cls-4" d="M127.47,147l-2.67-2.1a2,2,0,0,1,2.95,1c.14.43.85.67,1.34,1.45h-1.27Z"/><path class="cls-4" d="M132.13,145.55l3.59-.89-.94,1.19.4,1.09C132,146.42,131.88,146.36,132.13,145.55Z"/><path class="cls-4" d="M84.1,141.59c.1-1.14.13-2.3.31-3.43s.5-2.22.76-3.32l.7.18-1.58,6.66Z"/><path class="cls-4" d="M137.45,134.78l1,6.67-.26.08-1.61-6.61Z"/><path class="cls-4" d="M128,142.22a18.44,18.44,0,0,1-2-.08,13.7,13.7,0,0,1-1.77-.49l0-.59a17.54,17.54,0,0,1,3.08-.31c.25,0,.46,1,.68,1.49Z"/><path class="cls-4" d="M84.59,92.73l-1.22,2-1.17-1.14,1.57-1.5Z"/><path class="cls-4" d="M138.44,92l1.65,1.43L139,94.61l-1.28-1.94Z"/><path class="cls-4" d="M99.46,98.28c.46-.27,1-.84,1.36-.74a8.58,8.58,0,0,1,2,1.19l-.29.72-2.93-.69Z"/><path class="cls-4" d="M143.74,149.81l2.6-1.32v2.09l-2.5-.41Z"/><path class="cls-4" d="M100.57,146c.29,1,.25,1-4.25,0l-.12-.47a4.79,4.79,0,0,1,1.55-.29A23.24,23.24,0,0,1,100.57,146Z"/><path class="cls-4" d="M110,138.95a24.41,24.41,0,0,1,2.32-1.43c.22-.11.66.22,1,.35-.18.28-.29.71-.54.81-.81.34-1.67.56-2.51.83Z"/><path class="cls-4" d="M94.67,156.07l.15-.18.5-.55.28.16a4.7,4.7,0,0,0-.39.82,3.57,3.57,0,0,0-.29,1.78c.1.29,1,.45,1.56.39a10,10,0,0,0,2-.67A2.81,2.81,0,0,1,95,158.9C93.72,158.17,94.12,157.09,94.67,156.07Z"/><path class="cls-4" d="M122.08,144.37,122,142.8h1.81l.55,1.85Z"/><path class="cls-4" d="M136.66,160.5h4.17v.44h-4.18Z"/><path class="cls-4" d="M137.31,156.59h3.15l0,.41-3.12.45Z"/><path class="cls-4" d="M89.07,159.43c-1.36,1.64-2.35.11-3.34,0Z"/><path class="cls-4" d="M87.57,152.3l1.54-.93a8.75,8.75,0,0,1,.35,1.64c0,.17-.59.54-.66.49A12.35,12.35,0,0,1,87.57,152.3Z"/><path class="cls-4" d="M132.61,157.27l2.85-.43.28.47c-.37.22-.75.62-1.12.61a10.06,10.06,0,0,1-2-.45s-.07-.07-.11-.11Z"/><path class="cls-4" d="M144.33,156.92c.54-1.31,1.2-1.38,2.76-.6Z"/><path class="cls-4" d="M127.47,147l.35.35a4.09,4.09,0,0,1-.11.77c-1.16,0-2.33,0-3.49,0,0,0,0-.3,0-.45l0,0Z"/><path class="cls-4" d="M132.38,160h3.07l0,.31-3,.55Z"/><path class="cls-4" d="M84.41,156.78l-3-.38V156h2.94Z"/><path class="cls-4" d="M123.46,155.18h-1.62l-.64-2.27,2.45,1.86Z"/><path class="cls-4" d="M106.51,154.5l1.22-.29c0,.29,0,.81-.07.83a3.55,3.55,0,0,1-1.35,0,7.9,7.9,0,0,1-1.36-.55l1.22-.91Z"/><path d="M118,114.63c-3,.22-4.07-.2-4.09-1.63s.79-1.64,4.37-1.55a8.8,8.8,0,0,1-.72-2.69,1.63,1.63,0,0,1,3.14-.7,4.79,4.79,0,0,1-.46,5.06c1.35.71,1.51,1.64.64,3.37s-2.25,2.48-3.46,1.83a1.4,1.4,0,0,1-.62-2.18A15.43,15.43,0,0,1,118,114.63Zm-3.58-1.74h4.65C116.87,111.5,115.41,111.55,114.41,112.89Zm3,5.28,3.15-4.06C117.8,115.08,116.92,116.16,117.45,118.18Zm2.62-6.79c.79-2.5.53-3.31-1.49-4.2Z"/><path d="M122.89,112.75a6.76,6.76,0,0,1,5.24-1.5,2.47,2.47,0,0,1,1.74,1.5c.07.56-.75,1.51-1.4,1.81C126.72,115.36,124.31,114.52,122.89,112.75Zm.88.17h5.7C128.39,111.28,126.52,111.26,123.77,112.92Zm5.07,1.28,0-.74h-4.42l0,.38Z"/><path d="M121.78,111.07a27,27,0,0,1,1.73-3.59,1.71,1.71,0,0,1,2.68-.5c1.09.9.63,1.87-.17,2.66A4.17,4.17,0,0,1,121.78,111.07Zm4.21-3.31c-1.93-.7-2.81.24-2.72,2.74Z"/><path d="M122.47,113.59a37.08,37.08,0,0,1,3.76,3,2,2,0,0,1,.11,2,2.88,2.88,0,0,1-2.3.53C122.22,118.52,121.37,115.87,122.47,113.59Zm2,4.19,1.31.81c.62-1.71-.29-2.87-2.93-3.75l1.68,3-2.28-2.53c.35,1.68.74,3,2.51,3.53Z"/><path d="M85.49,163.95a5.29,5.29,0,0,1-1.18-.65,8.05,8.05,0,0,1-.93-1.26,5.17,5.17,0,0,1,1.63-.36c.4,0,.76.51,1,1L84.2,162l-.21.45a4.52,4.52,0,0,1,1.1.56,9.55,9.55,0,0,1,1,1.27,4.27,4.27,0,0,1-1.56.49,2,2,0,0,1-1.4-1.11l2.14.78Z"/><path d="M96.36,164.68l2-.13,0,.35-2.63.34V162.4l2.67-.34.07.24-2.22.7.11.42,1.76-.1,0,.18-1.91.77Z"/><path d="M79.92,161c.64.84-.85,2.69,1.07,2.74.42,0,.88-1.45,1.57-2.32A7.22,7.22,0,0,1,82,164a2.29,2.29,0,0,1-2.1-.19,7.87,7.87,0,0,1-.49-2.79Z"/><path d="M94.86,163a18.64,18.64,0,0,0-2.46.41,3.45,3.45,0,0,0,.09,1.26,14.63,14.63,0,0,1,2.45.17,5.18,5.18,0,0,1-2.06.51A2,2,0,0,1,91.6,164c-.08-.41.53-1.2,1-1.4A1.84,1.84,0,0,1,94.86,163Z"/><path d="M87.23,162.05l2.08.23L88,165Z"/><path d="M78.95,160.87l-1.06,2.8L76.28,163l.23-.46,1.2.72.55-2.61Z"/><path d="M138.14,165.57v-2.76a9,9,0,0,1,1.88,0,1.21,1.21,0,0,1,.74.82,10.4,10.4,0,0,1-.08,2l-1.57-1.29-.71,1.28Z"/><path d="M130.29,165.63l-1.8-1.63-.54,1.33h-.21v-2.81a9.21,9.21,0,0,1,1.67.14c.7.19,1.45.4.7,1.44C129.92,164.36,130.2,165,130.29,165.63Z"/><path d="M124.7,162.19a5.85,5.85,0,0,1,1.49.21,4.18,4.18,0,0,1,1,.86,9.3,9.3,0,0,1-1,.81c-.44.26-.92.45-1.46.7Z"/><path d="M136.9,164.91l-1-.53c.45-.09.67-.21.83-.15.31.11.8.28.83.48s-.29.87-.43.87a5.29,5.29,0,0,1-2.36-.44c-.24-.14-.14-1.51.23-1.9a1.47,1.47,0,0,1,2.3.06,18.12,18.12,0,0,0-2.18.58,1.56,1.56,0,0,0,.2,1.12,4.25,4.25,0,0,0,1.48.38Z"/><path d="M144.44,164.61h2.15l-2.15-1.52c.25-.26.47-.71.76-.75a6.71,6.71,0,0,1,1.64.12l-.05.45-1.86-.12,2.12,1.67c-.3.29-.59.79-.9.81a6.73,6.73,0,0,1-1.77-.36Z"/><path d="M142,164.94l1.79.24v.21l-2.34.3-.17-2.88,2.4-.38.09.37-1.79.45,0,.34,1.82.33-1.79.61Z"/><path d="M132.45,166.45c-.77-1.05-1.48-1.6-1.55-2.22a1.23,1.23,0,0,1,1.67-1.37,2.24,2.24,0,0,1,1.38,1.5C134,164.87,133.21,165.45,132.45,166.45Zm0-.72c.46-.66,1-1.08.94-1.45s-.6-.73-.94-1.09c-.35.35-.95.67-1,1S132,165,132.48,165.72Z"/><path d="M149.75,162.42h-1.82l2.18,1.51c-.32.33-.6.86-1,1a4.54,4.54,0,0,1-1.6-.22l.09-.45h2.06l-2.18-1.52c.28-.29.52-.77.84-.84a4.32,4.32,0,0,1,1.46.21Z"/><path d="M110,167.42l2.11,1.93.27-1.42h.26v2.56l-.28.23L111,168.6l-.43.34-.29,1.57H110Z"/><path d="M113.54,171.05v-3.52a16.3,16.3,0,0,1,2.79.77,1.61,1.61,0,0,1,.13,1.4A19.89,19.89,0,0,1,113.54,171.05Zm.29-1.4.77.68,1.41-1.22-1.21-1Z"/><path d="M106.16,170.43l1.56-3.28,1.8,3.16C108.31,169.47,107.31,169.31,106.16,170.43Z"/><path d="M99.5,108.62c2.18,0,3.63,1.26,3.63,3.23S101.84,115,99.67,115s-3.6-1.2-3.62-3A3.24,3.24,0,0,1,99.5,108.62Zm0,.54a2.8,2.8,0,0,0-3,2.71,2.89,2.89,0,0,0,3.14,2.71,2.72,2.72,0,1,0-.18-5.41Z"/><path class="cls-4" d="M114.41,112.89c1-1.35,2.45-1.39,4.65,0Z"/><path class="cls-4" d="M117.45,118.18c-.53-2,.35-3.09,3.15-4.06Z"/><path class="cls-4" d="M120.07,111.39l-1.49-4.2C120.6,108.08,120.86,108.89,120.07,111.39Z"/><path class="cls-4" d="M123.77,112.92c2.76-1.65,4.62-1.63,5.7,0Z"/><path class="cls-4" d="M128.84,114.2l-4.43-.35,0-.38h4.42Z"/><path class="cls-4" d="M126,107.76l-2.72,2.74C123.18,108,124.06,107.06,126,107.76Z"/><path class="cls-4" d="M124.53,117.83l-1.68-3c2.65.88,3.55,2,2.93,3.75l-1.31-.81Z"/><path class="cls-4" d="M124.48,117.77l.28,1.05c-1.77-.52-2.16-1.85-2.51-3.53l2.28,2.53Z"/><path class="cls-4" d="M132.48,165.72c-.48-.69-1-1.11-1-1.49s.63-.7,1-1c.33.36.9.7.94,1.09S132.94,165.06,132.48,165.72Z"/><path class="cls-4" d="M113.83,169.65l1-1.59,1.21,1-1.41,1.22Z"/><path class="cls-4" d="M99.54,109.16a2.72,2.72,0,1,1,.18,5.41,2.89,2.89,0,0,1-3.14-2.71A2.8,2.8,0,0,1,99.54,109.16Z"/></g></g></g></svg>