<svg xmlns="http://www.w3.org/2000/svg" viewBox="0 0 250.67 37.28"><defs><style>.cls-1{fill:#f9bf17;}.cls-2{fill:#fff;}.cls-3{fill:#fbbf13;}.cls-4{fill:#dde8dd;}</style></defs><title>logo_vg</title><g id="Layer_2" data-name="Layer 2"><g id="Layer_1-2" data-name="Layer 1"><path class="cls-1" d="M0,23.82s-.39,8,1.18,7.06c.8-.48,0-1.74.7-2.15.86-.54.77-1.32.94-2.47.13-.91,6.77.52,10.36.62,2,.05,5.75-6.52,5.93-6.2,1.21,2.09,2.63,2.42,3.33,3.43,1.69,2.47.51,2.83,2,5.28.51.84,3.32,3.7,2.91,4.73a2.89,2.89,0,0,0,.68,3.08c.34.37,1.88-.86,3-1.25,1.73-.6,3.08-2.61,2.35-3.36-.48-.5-3.59,2.31-4.37.11-.5-1.41-2.71-4.85-3.3-8.17-.32-1.84-3.92-7.12-3.89-8.6s3-4.32,4-4.27c.65,0-.3,2.1.93,1.9.79-.14.73,2.37,1.68,2.11A9,9,0,0,0,32.2,13C33.38,11.66,33,9.33,32,9.5c-1.8.3.06,1-.51,2.2-.32.68-1.82,1.66-2.36,1.47S28.55,10,28.16,9c-.27-.7-2-1.63-1.79-1.86,2-2,1.56-.1,2.37-1.4.59-1,.53-.22.86-1.92a2.51,2.51,0,0,0-.48-2.44L30.62.32l-4-.32L24,2a6.41,6.41,0,0,0-.61,1c-1.07,0-1.21-.08-1.18.32s1.11.21,1.36,0,0-.7.46-.87c1.26-.49,1.48.63,1.22,2-.32,1.75-1.75-1-3.83-1.11-2.58-.18-3,.5-4.33.11a2.89,2.89,0,0,0-2.36.39c-.46.25-2.13,3.47-3,3.86-.42.19-1.35-1.95-2.29-1.9-.78,0-.74.61-.64,1C9,7.49,10.66,8.21,11,8.93a4.38,4.38,0,0,0,.76,1.27c.45.5.72.16,1,.31s.55.71,1,1c.62.33.87,0,1.08-.67s-1-.79-1.39-1.39a1.69,1.69,0,0,1,0-1.79,18,18,0,0,1,2.33-2.18c.64-.54,1.22.06,2.18.36s2.42-.26,2.11.21a13.26,13.26,0,0,0-1.61,4.65c0,1.55-1.79,2.53-2.27,3.48-.89,1.75-1.85,4.29-1.8,5.53s-.72-.38-1.34,4.69c-.07.55-.42-.14-2.92-.48-1.18-.16-6.92.37-7.14.11C2.53,23.27,0,23.82,0,23.82Z"/><path class="cls-2" d="M32,9.5c-1.8.3.06,1-.51,2.2-.32.68-1.82,1.66-2.36,1.47S28.55,10,28.16,9c-.27-.7-2-1.63-1.79-1.86,2-2,1.56-.1,2.37-1.4.59-1,.53-.22.86-1.92a2.51,2.51,0,0,0-.48-2.44L30.62.32l-4-.32L24,2a6.41,6.41,0,0,0-.61,1c-1.07,0-1.21-.08-1.18.32s1.11.21,1.36,0,0-.7.46-.87c1.26-.49,1.48.63,1.22,2-.32,1.75-1.75-1-3.83-1.11-2.58-.18-3,.5-4.33.11a2.89,2.89,0,0,0-2.36.39c-.46.25-2.13,3.47-3,3.86-.42.19-1.35-1.95-2.29-1.9-.71,0-.74.51-.67.86L10.07,8a3.31,3.31,0,0,1,1,.93l.05.1,1.44,1.44a.49.49,0,0,1,.29,0c.3.15.55.71,1,1,.62.33.87,0,1.08-.67s-1-.79-1.39-1.39a1.69,1.69,0,0,1,0-1.79,18,18,0,0,1,2.33-2.18c.64-.54,1.22.06,2.18.36s2.42-.26,2.11.21a13.26,13.26,0,0,0-1.61,4.65c0,1.55-1.79,2.53-2.27,3.48l0,.07,9.06,9.06c-1-2.33-3.47-6.12-3.45-7.33,0-1.61,3-4.32,4-4.27.65,0-.3,2.1.93,1.9.79-.14.73,2.37,1.68,2.11A9,9,0,0,0,32.2,13C33.38,11.66,33,9.33,32,9.5Z"/><path class="cls-3" d="M56.62,27.73a12,12,0,0,1-9-3.39l2.46-3.45a9,9,0,0,0,6.77,2.88,4.69,4.69,0,0,0,2.73-.69,2,2,0,0,0,1-1.68A1.68,1.68,0,0,0,59.64,20a6.5,6.5,0,0,0-2.27-.83,28.72,28.72,0,0,1-3-.73,24.37,24.37,0,0,1-3-1.09,5.4,5.4,0,0,1-3.18-5.11,5.82,5.82,0,0,1,2.2-4.62,8.79,8.79,0,0,1,5.88-1.87,11.78,11.78,0,0,1,8.31,3L62.15,12A8.8,8.8,0,0,0,56,9.68a3.77,3.77,0,0,0-2.24.58,1.83,1.83,0,0,0-.8,1.57,1.52,1.52,0,0,0,.91,1.29,7.16,7.16,0,0,0,2.27.78,26.23,26.23,0,0,1,2.94.75A25,25,0,0,1,62,15.77a5.49,5.49,0,0,1,3.18,5.13,6.22,6.22,0,0,1-2.19,5Q60.77,27.73,56.62,27.73Z"/><path class="cls-3" d="M87.77,27.35H82.59l-1.31-3.61H72.15l-1.34,3.61H65.63L73.87,6h5.69ZM80,19.74l-3.32-9.17-3.32,9.17Z"/><path class="cls-3" d="M104.83,27.35H89.75V6h15.08v4H94.29v4.5h10.32v4H94.29v4.82h10.54Z"/><path class="cls-3" d="M116.78,27.35h-8.4V6h8.4A11.48,11.48,0,0,1,124.94,9a10.09,10.09,0,0,1,3.15,7.73A10.06,10.06,0,0,1,125,24.42,11.5,11.5,0,0,1,116.78,27.35Zm0-4a6.37,6.37,0,0,0,4.87-1.92,6.64,6.64,0,0,0,1.81-4.73,6.74,6.74,0,0,0-1.76-4.81A6.43,6.43,0,0,0,116.78,10h-3.87V23.35Z"/><path class="cls-4" d="M141.63,27.73a11.29,11.29,0,0,1-8.1-3.08,10.47,10.47,0,0,1-3.24-7.94,10.47,10.47,0,0,1,3.24-7.94,11.29,11.29,0,0,1,8.1-3.08,9.59,9.59,0,0,1,8.91,5.21l-3.9,1.92a5.88,5.88,0,0,0-2.06-2.22,5.34,5.34,0,0,0-3-.88,6.33,6.33,0,0,0-4.79,2,7,7,0,0,0-1.88,5,7,7,0,0,0,1.88,5,6.33,6.33,0,0,0,4.79,2,5.41,5.41,0,0,0,3-.86,5.69,5.69,0,0,0,2.06-2.24l3.9,1.88A9.71,9.71,0,0,1,141.63,27.73Z"/><path class="cls-4" d="M166.26,25.38a8.67,8.67,0,0,1-11.87,0,8.07,8.07,0,0,1-2.22-5.77,8,8,0,0,1,2.22-5.75,8.72,8.72,0,0,1,11.87,0,8,8,0,0,1,2.24,5.75A8,8,0,0,1,166.26,25.38Zm-8.82-2.56a3.51,3.51,0,0,0,2.88,1.29,3.56,3.56,0,0,0,2.89-1.29,4.87,4.87,0,0,0,1.07-3.21,4.82,4.82,0,0,0-1.07-3.18,3.55,3.55,0,0,0-2.89-1.29,3.51,3.51,0,0,0-2.87,1.29,4.87,4.87,0,0,0-1.05,3.18A4.92,4.92,0,0,0,157.45,22.83Z"/><path class="cls-4" d="M186,27.35h-4.06V18q0-2.88-2.84-2.87A4.11,4.11,0,0,0,175.56,17V27.35H171.5V11.92h4.06v2a6.69,6.69,0,0,1,5.4-2.4,5,5,0,0,1,3.75,1.31A5,5,0,0,1,186,16.45Z"/><path class="cls-4" d="M204.47,27.35h-4.06V18q0-2.88-2.84-2.87A4.11,4.11,0,0,0,194.06,17V27.35H190V11.92h4.06v2a6.69,6.69,0,0,1,5.4-2.4,5,5,0,0,1,3.75,1.31,5,5,0,0,1,1.26,3.61Z"/><path class="cls-4" d="M215.75,27.73a8.2,8.2,0,0,1-5.91-2.24,7.77,7.77,0,0,1-2.33-5.88,8,8,0,0,1,2.25-5.75,7.63,7.63,0,0,1,5.73-2.33,7.21,7.21,0,0,1,5.59,2.35A8.78,8.78,0,0,1,223.22,20v.89H211.76a3.92,3.92,0,0,0,1.37,2.56,4.52,4.52,0,0,0,3.07,1,6.8,6.8,0,0,0,2.22-.42,4.91,4.91,0,0,0,1.9-1.12l1.79,2.62A9,9,0,0,1,215.75,27.73Zm3.55-9.55a3.9,3.9,0,0,0-1-2.36,3.51,3.51,0,0,0-2.76-1.05,3.47,3.47,0,0,0-2.68,1,4.17,4.17,0,0,0-1.12,2.38Z"/><path class="cls-4" d="M233.35,27.73a8,8,0,0,1-5.88-2.27,7.85,7.85,0,0,1-2.3-5.85,7.81,7.81,0,0,1,2.3-5.81,8,8,0,0,1,5.88-2.27,7,7,0,0,1,6.1,2.78L236.8,16.8a3.68,3.68,0,0,0-3.26-1.66,4,4,0,0,0-3,1.23,4.52,4.52,0,0,0-1.17,3.24,4.58,4.58,0,0,0,1.17,3.26,4,4,0,0,0,3,1.25,3.78,3.78,0,0,0,3.26-1.66l2.65,2.46A7,7,0,0,1,233.35,27.73Z"/><path class="cls-4" d="M247.28,27.73A4.49,4.49,0,0,1,244,26.64a4.16,4.16,0,0,1-1.12-3.13V15.46h-2.56V11.92h2.56V7.7H247v4.22h3.13v3.55H247v7a1.88,1.88,0,0,0,.38,1.21,1.24,1.24,0,0,0,1,.48,1.92,1.92,0,0,0,1.41-.45l.86,3.07A5,5,0,0,1,247.28,27.73Z"/></g></g></svg>