<svg xmlns="http://www.w3.org/2000/svg" viewBox="0 0 233.8 142.99">
  <defs>
    <style>
      .cls-1{fill:#e7e7e9;}.cls-1,.cls-2,.cls-3,.cls-4,.cls-5{fill-rule:evenodd;}.cls-2{fill:#8dc64c;}.cls-3{fill:#e7583d;}.cls-4{fill:#8cc64c;}.cls-5{fill:#e6593d;}.cls-6{font-size:49.51px;fill:#367c96;font-family:OstrichSans-Black, Ostrich Sans;letter-spacing:0.1em;}
    </style>
  </defs>
  <g id="Layer_2" data-name="Layer 2">
    <g id="Layer_1-2" data-name="Layer 1">
      <path class="cls-1" d="M27.52 100.4l-6.33 33.93H6.39l6.32-33.93h14.81zm25.5 0l-4.92 26.13H33.3l4.91-26.13h14.81zm25.5 0l-8.01 42.59H55.7l8.01-42.59h14.81z"/>
      <path class="cls-2" d="M104.02 100.4l-5.85 31.11H83.36l5.85-31.11h14.81z"/>
      <path class="cls-1" d="M129.52 100.4l-8.01 42.59H106.7l8.01-42.59h14.81zm25.5 0l-6.72 35.72h-14.8l6.72-35.72h14.8z"/>
      <path class="cls-3" d="M180.52 100.4l-4.78 25.44h-14.81l4.79-25.44h14.8z"/>
      <path class="cls-1" d="M206.03 100.4l-8.02 42.59h-14.8l8.01-42.59h14.81zM27.97 10.92h14.8L36.63 42.6h-14.8l6.14-31.68z"/>
      <path class="cls-4" d="M52.38 25.08h14.8L63.89 42.6H49.08l3.3-17.52z"/>
      <path class="cls-1" d="M82.59 0H97.4l-8.01 42.6H74.58L82.59 0zm22.89 13.92h14.8l-5.39 28.68h-14.81l5.4-28.68z"/>
      <path class="cls-5" d="M133.6 0h14.8l-8.01 42.6h-14.81L133.6 0z"/>
      <path class="cls-1" d="M157.56 8.14h14.81l-6.48 34.46h-14.81l6.48-34.46zm22.11 18.07h14.81l-3.09 16.39h-14.8l3.08-16.39zm29.77-22.72h14.81L216.9 42.6h-14.81l7.35-39.11zM10.91 44.19H233.8l-10.91 54.62H0l10.91-54.62z"/>
      <text class="cls-6" transform="matrix(1.05 0 -.22 1.08 8.68 92.28)">
        THRIBYTE
      </text>
    </g>
  </g>
</svg>
