<svg xmlns="http://www.w3.org/2000/svg" viewBox="0 0 254.11 281.58">
	<defs>
		<style>.cls-1{fill:#f9bf17;}.cls-2{fill:#fff;}</style>
	</defs>
	<title>logo</title>
		<g id="Layer_1-2" data-name="Layer 1">
		<path class="cls-1" d="M.32,179.94s-2.92,60.39,8.92,53.29c6.08-3.65.34-13.13,5.27-16.21C21,213,20.33,207,21.6,198.38c1-6.89,51.16,3.95,78.22,4.66,15.4.41,43.4-49.21,44.78-46.81,9.12,15.81,19.9,18.3,25.13,25.94,12.77,18.64,3.86,21.36,15.23,39.9,3.87,6.32,25.1,28,22,35.74-2.83,7.07-1.75,15.54,5.14,23.24,2.53,2.83,14.18-6.48,22.75-9.46,13-4.52,23.25-19.72,17.78-25.4-3.63-3.76-27.15,17.43-33,.81-3.77-10.66-20.49-36.65-24.9-61.68-2.45-13.9-29.59-53.79-29.4-65,.2-12.16,22.7-32.62,29.85-32.29,4.89.23-2.26,15.89,7,14.32,5.94-1.08,5.54,17.89,12.7,15.94,11.89-3.24,22.6-14.09,28.41-20.5,8.87-9.76,6.33-27.4-1.61-26.07-13.57,2.26.48,7.4-3.84,16.58C235.39,93.48,224,100.86,220,99.43c-4.59-1.62-4.32-23.78-7.29-31.34-2.08-5.29-15.25-12.33-13.51-14,15.4-15.13,11.78-.72,17.88-10.56,4.46-7.2,4-1.69,6.52-14.53,2.57-13.21-3.6-18.41-3.6-18.41l11.35-8.11L200.79,0,181.61,15.15A48.39,48.39,0,0,0,177,23c-8.11.27-9.17-.57-8.9,2.41s8.38,1.62,10.27.27.25-5.29,3.47-6.55c9.5-3.72,11.15,4.72,9.23,15.19-2.43,13.24-13.19-7.28-28.91-8.38-19.45-1.35-23,3.78-32.69.81-8.17-2.5-14.32,1.08-17.83,3S95.56,55.93,88.94,58.9c-3.2,1.44-10.2-14.72-17.29-14.32-5.92.34-5.57,4.64-4.86,7.29C68,56.58,80.55,62,83.4,67.48s2.63,6,5.76,9.57c3.36,3.8,5.42,1.19,7.66,2.35s4.18,5.33,7.74,7.22c4.7,2.5,6.54.38,8.16-5s-7.57-5.94-10.54-10.54-1.89-10,.27-13.51S115.23,45.12,120,41.07s9.25.44,16.44,2.7c7.8,2.45,18.28-1.93,15.94,1.62s-12.29,24.72-12.16,35.12c.15,11.68-13.53,19.12-17.16,26.27-6.72,13.24-14,32.42-13.58,41.74s-5.47-2.84-10.13,35.46c-.5,4.15-3.2-1-22.09-3.64-8.92-1.23-52.28,2.83-53.9.8C19.14,175.8.32,179.94.32,179.94Z"/>
		<path class="cls-2" d="M241.65,71.77c-13.57,2.26.48,7.4-3.84,16.58C235.39,93.48,224,100.86,220,99.43c-4.59-1.62-4.32-23.78-7.29-31.34-2.08-5.29-15.25-12.33-13.51-14,15.4-15.13,11.78-.72,17.88-10.56,4.46-7.2,4-1.69,6.52-14.53,2.57-13.21-3.6-18.41-3.6-18.41l11.35-8.11L200.79,0,181.61,15.15A48.39,48.39,0,0,0,177,23c-8.11.27-9.17-.57-8.9,2.41s8.38,1.62,10.27.27.25-5.29,3.47-6.55c9.5-3.72,11.15,4.72,9.23,15.19-2.43,13.24-13.19-7.28-28.91-8.38-19.45-1.35-23,3.78-32.69.81-8.17-2.5-14.32,1.08-17.83,3S95.56,55.93,88.94,58.9c-3.2,1.44-10.2-14.72-17.29-14.32-5.34.31-5.58,3.84-5.05,6.47L76,60.49c3.13,2.28,6.15,4.63,7.37,7l.4.78L94.65,79.11a3.69,3.69,0,0,1,2.17.29c2.25,1.16,4.18,5.33,7.74,7.22,4.7,2.5,6.54.38,8.16-5s-7.57-5.94-10.54-10.54-1.89-10,.27-13.51S115.23,45.12,120,41.07s9.25.44,16.44,2.7c7.8,2.45,18.28-1.93,15.94,1.62s-12.29,24.72-12.16,35.12c.15,11.68-13.53,19.12-17.16,26.27l-.26.52,68.46,68.46c-7.88-17.6-26.2-46.21-26-55.4.2-12.16,22.7-32.62,29.85-32.29,4.89.23-2.26,15.89,7,14.32,5.94-1.08,5.54,17.89,12.7,15.94,11.89-3.24,22.6-14.09,28.41-20.5C252.13,88.08,249.59,70.44,241.65,71.77Z"/>
	</g>
</svg>